<svg xmlns="http://www.w3.org/2000/svg" viewBox="0 0 27 27"><defs><style>.a{opacity:0.8;}.b{fill:#fff;}</style></defs><title>ep-youtube</title><g class="a"><path class="b" d="M14.06,9.54V7.18c0-.52-0.16-0.78-0.48-0.78s-0.48.26-.48,0.78V9.54c0,0.52.16,0.78,0.48,0.78s0.48-.26.48-0.78M8.72,14.76H9.92V13.71H6.41v1.05H7.6v6.41H8.72V14.76h0ZM12,21.17h1V15.61H12v4.25a0.89,0.89,0,0,1-.64.47,0.23,0.23,0,0,1-.24-0.24,3.17,3.17,0,0,1,0-.39V15.61h-1V20a2.83,2.83,0,0,0,.09.83,0.62,0.62,0,0,0,.65.41A1.61,1.61,0,0,0,12,20.56v0.61Zm3.82-1.59c0,0.5-.15.75-0.44,0.75a0.72,0.72,0,0,1-.5-0.25V16.69a0.72,0.72,0,0,1,.5-0.24c0.29,0,.44.26,0.44,0.76v2.37Zm0.91,1a4.44,4.44,0,0,0,.1-1.12V17.28a4.13,4.13,0,0,0-.1-1.12,0.79,0.79,0,0,0-.81-0.63,1.35,1.35,0,0,0-1,.6V13.71h-1v7.46h1V20.63a1.37,1.37,0,0,0,1,.61,0.8,0.8,0,0,0,.81-0.63m1.89-2.88V17.21q0-.77.5-0.77c0.33,0,.5.26,0.5,0.77v0.52h-1Zm2,2.3c0-.1,0-0.32,0-0.65V19.24h-1c0,0.4,0,.63,0,0.68a0.43,0.43,0,0,1-.45.4c-0.35,0-.52-0.26-0.52-0.77v-1h2V17.42a2.22,2.22,0,0,0-.31-1.31,1.4,1.4,0,0,0-1.19-.57,1.43,1.43,0,0,0-1.21.57,2.15,2.15,0,0,0-.31,1.31v1.94a2.15,2.15,0,0,0,.32,1.31,1.44,1.44,0,0,0,1.22.57,1.4,1.4,0,0,0,1.22-.6,1.53,1.53,0,0,0,.23-0.6m1.26-2.47a18,18,0,0,1-.29,3.94,2.11,2.11,0,0,1-1.8,1.64,52.69,52.69,0,0,1-5.86.23H13.12a53.21,53.21,0,0,1-5.86-.23,2.11,2.11,0,0,1-1.8-1.64,17.87,17.87,0,0,1-.29-3.94,17.85,17.85,0,0,1,.29-3.94A2.11,2.11,0,0,1,7.27,12a52.72,52.72,0,0,1,5.86-.23h0.76a52.94,52.94,0,0,1,5.86.23,2.11,2.11,0,0,1,1.8,1.64,17.9,17.9,0,0,1,.29,3.94m-3-6.39h-1V10.56a1.63,1.63,0,0,1-1.16.69A0.63,0.63,0,0,1,16,10.83,2.84,2.84,0,0,1,15.91,10V5.55h1V9.69a2.1,2.1,0,0,0,0,.4,0.23,0.23,0,0,0,.24.24,0.9,0.9,0,0,0,.64-0.48V5.55h1v5.61h0ZM15.08,9.35a2.22,2.22,0,0,1-.31,1.32,1.51,1.51,0,0,1-2.37,0,2.17,2.17,0,0,1-.32-1.32v-2a2.19,2.19,0,0,1,.32-1.32,1.51,1.51,0,0,1,2.37,0,2.21,2.21,0,0,1,.31,1.32v2Zm-3-5.72L10.7,8.12v3.05H9.58V8.12a18.78,18.78,0,0,0-.69-2.38L8.17,3.63H9.35l0.8,3,0.77-3h1.14ZM27,13.5A13.5,13.5,0,1,0,13.5,27,13.5,13.5,0,0,0,27,13.5"/></g></svg>