<?xml version="1.0" encoding="utf-8"?>
<!-- Generator: Adobe Illustrator 19.0.0, SVG Export Plug-In . SVG Version: 6.00 Build 0)  -->
<svg version="1.1" id="Layer_1" xmlns="http://www.w3.org/2000/svg" xmlns:xlink="http://www.w3.org/1999/xlink" x="0px" y="0px"
	 width="400px" height="120px" viewBox="0 0 400 120" style="enable-background:new 0 0 400 120;" xml:space="preserve">
<style type="text/css">
	.st0{fill:#FFFFFF;}
</style>
<g>
	<path class="st0" d="M72.9,57.4c3,0.3,4.5,2.5,6.3,5.6c1.8,3.1,3,3,5.6,3c2.7-0.1,1.9,5.9-0.9,3.9c-1.4-1.1-2-0.1-8,1.3
		c-8.1,1.9-11.5,0.5-11.8-1.4c-0.3-1.7-0.3-4.7,2.3-7.8C69,59,71.2,57.8,72.9,57.4 M65.5,60.4C61,66,62.4,70.3,63,71.5
		c0.3,0.7,0.8,1,2.1,1.4c5.3,1.5,5.2,4.2,5.2,4.2c-3.7-2.6-5.2,0.2-5.2,0.2s-2.1,0.5-4.7-0.8c-1.7-0.9-1.6-7.8-12.6-7.6
		c-1.7,0-3.3,0.2-4.7,0.6C43,69.7,43,69.8,42.9,70c-1.4,3.9-6.4,7.1-8.9,7.4c0,0-0.9-2.6-5.6,0.3c0,0,0.1-4.4,5.8-4.7
		c-4.5-5.4-9.8-0.2-9.8-0.2c-1.1-6.2,0.5-10.5,2.4-13.2c5-4.9,12.3-8.1,20.4-7.8C54.5,52,60.4,54.4,65.5,60.4 M72.7,55.5
		c-1.8,0.5-4.1,1.5-6.1,3.6c-4.6-5.7-12.1-8.6-19.5-8.8C39.8,50.1,33,52.5,28,56.6c-0.3,0.2-0.5,0.4-0.7,0.6
		c-0.6,0.6-1.2,1.1-1.8,1.8C26.6,50.1,37,45.6,37,45.6c-1.3-1.3-5.3-0.1-5.3-0.1c7.8-7.8,21.2-2.7,21.2-2.7c0.1-1.8-3.3-3.5-3.3-3.5
		c7.7,0.7,9.3,1.5,9.3,1.5c3.4,1.3,5.9,2.9,7.9,4.6c0.9,0.5,1.7,1.5,2.2,2.2C71.5,50.6,72.4,53.8,72.7,55.5"/>
	<g>
		<polygon id="XMLID_60_" class="st0" points="104.6,37.8 108.4,37.8 114.3,50.1 114.4,50.1 114.4,37.8 117.4,37.8 117.4,54.2 
			113.6,54.2 107.6,42 107.6,42 107.6,54.2 104.6,54.2 		"/>
		<path class="st0" d="M124.1,52.2c0.9,0,1.6-0.4,2.1-1.1s0.6-1.5,0.6-2.5h-1.3c-1.3,0-3.3,0.2-3.3,2.1
			C122.2,51.8,123.1,52.2,124.1,52.2 M120.6,42.8c1.2-0.6,2.7-0.9,4-0.9c3.5,0,4.9,1.5,4.9,5.1v1.6c0,1.2,0,2.1,0,3s0.1,1.8,0.1,2.7
			H127c-0.1-0.6-0.1-1.4-0.1-1.8l0,0c-0.7,1.3-2.2,2.1-3.5,2.1c-2,0-4-1.3-4-3.6c0-1.8,0.8-2.9,2-3.5c1.1-0.6,2.6-0.7,3.9-0.7h1.6
			c0-1.9-0.8-2.6-2.6-2.6c-1.3,0-2.5,0.5-3.5,1.3L120.6,42.8z"/>
		<path id="XMLID_57_" class="st0" d="M132.8,44.4h-2.2v-2.3h2.2v-2.4l3-1v3.4h2.7v2.3h-2.7V50c0,1,0.3,2,1.4,2c0.5,0,1-0.1,1.4-0.3
			l0.1,2.5c-0.6,0.2-1.3,0.3-2.2,0.3c-2.3,0-3.6-1.5-3.6-3.9L132.8,44.4L132.8,44.4z"/>
		<path id="XMLID_56_" class="st0" d="M150.4,54.2h-2.8v-1.6l0,0c-0.9,1.2-2.2,1.9-3.8,1.9c-2.7,0-3.9-2-3.9-4.7v-7.6h3v6.5
			c0,1.5,0,3.5,1.9,3.5c2.2,0,2.6-2.5,2.6-4v-5.9h3V54.2z"/>
		<path id="XMLID_55_" class="st0" d="M152.9,42.1h2.7v2.7l0,0c0.1-1.1,1.4-3,3.1-3c0.3,0,0.6,0,0.9,0.1v3.2
			c-0.3-0.2-0.8-0.3-1.3-0.3c-2.4,0-2.4,3.2-2.4,4.9v4.4h-3C152.9,54.2,152.9,42.1,152.9,42.1z"/>
		<path class="st0" d="M164.6,52.2c0.9,0,1.6-0.4,2.1-1.1s0.6-1.5,0.6-2.5H166c-1.3,0-3.3,0.2-3.3,2.1
			C162.7,51.8,163.5,52.2,164.6,52.2 M161.1,42.8c1.2-0.6,2.7-0.9,4-0.9c3.5,0,4.9,1.5,4.9,5.1v1.6c0,1.2,0,2.1,0,3s0.1,1.8,0.1,2.7
			h-2.6c-0.1-0.6-0.1-1.4-0.1-1.8l0,0c-0.7,1.3-2.2,2.1-3.5,2.1c-2,0-4-1.3-4-3.6c0-1.8,0.8-2.9,2-3.5c1.1-0.6,2.6-0.7,3.9-0.7h1.6
			c0-1.9-0.8-2.6-2.6-2.6c-1.3,0-2.5,0.5-3.5,1.3L161.1,42.8z"/>
		<rect id="XMLID_52_" x="172.5" y="36.6" class="st0" width="3" height="17.6"/>
		<path class="st0" d="M187.2,44.8h1c1.5,0,3.3-0.2,3.3-2.3c0-2-1.7-2.1-3.3-2.1h-1V44.8z M184.1,37.8h3.4c3.3,0,7.3-0.1,7.3,4.4
			c0,1.9-1.2,3.5-3.2,3.8l0,0c0.9,0.1,1.3,1,1.7,1.7l2.5,6.4h-3.5l-1.9-5.1c-0.4-1.2-0.8-1.7-2.2-1.7h-1v6.8h-3.1
			C184.1,54.1,184.1,37.8,184.1,37.8z"/>
		<path class="st0" d="M204.3,47c-0.1-1.5-0.8-2.8-2.4-2.8c-1.7,0-2.5,1.2-2.7,2.8H204.3z M206.3,53.5c-1.1,0.6-2.3,1-3.9,1
			c-3.8,0-6-2.3-6-6.3c0-3.5,1.8-6.4,5.3-6.4c4.3,0,5.5,3.1,5.5,7.3h-7.9c0.1,1.9,1.4,3.1,3.3,3.1c1.5,0,2.7-0.6,3.8-1.2v2.5H206.3z
			"/>
		<path id="XMLID_47_" class="st0" d="M215.9,44.8c-0.9-0.3-1.6-0.5-2.7-0.5c-0.8,0-1.8,0.3-1.8,1.3c0,1.9,5.2,0.7,5.2,5.1
			c0,2.8-2.4,3.9-4.8,3.9c-1.1,0-2.3-0.2-3.4-0.5l0.2-2.6c0.9,0.5,1.9,0.8,2.9,0.8c0.8,0,2-0.3,2-1.5c0-2.4-5.2-0.7-5.2-5.1
			c0-2.6,2.2-3.8,4.5-3.8c1.4,0,2.3,0.2,3.3,0.4L215.9,44.8z"/>
		<path class="st0" d="M223.7,52c2.3,0,2.9-2.2,2.9-4.2c0-1.9-0.9-3.6-2.9-3.6c-1.9,0-2.9,1.8-2.9,3.6C220.8,49.9,221.4,52,223.7,52
			 M223.7,41.8c3.4,0,6,2.4,6,6.4c0,3.5-2.2,6.2-6,6.2s-6-2.8-6-6.2C217.7,44.3,220.3,41.8,223.7,41.8"/>
		<path id="XMLID_44_" class="st0" d="M242,54.2h-2.8v-1.6l0,0c-0.9,1.2-2.2,1.9-3.8,1.9c-2.7,0-3.9-2-3.9-4.7v-7.6h3v6.5
			c0,1.5,0,3.5,1.9,3.5c2.2,0,2.6-2.5,2.6-4v-5.9h3V54.2z"/>
		<path id="XMLID_43_" class="st0" d="M244.5,42.1h2.6v2.7l0,0c0.1-1.1,1.4-3,3.1-3c0.3,0,0.6,0,0.9,0.1v3.2
			c-0.3-0.2-0.8-0.3-1.3-0.3c-2.4,0-2.4,3.2-2.4,4.9v4.4h-3L244.5,42.1L244.5,42.1z"/>
		<path id="XMLID_42_" class="st0" d="M260.1,44.8c-0.5-0.3-1.1-0.4-2-0.4c-1.9,0-3,1.5-3,3.8c0,2.2,1,3.9,3.1,3.9
			c0.8,0,1.8-0.3,2.3-0.6l0.1,2.6c-0.9,0.3-1.8,0.4-3,0.4c-3.8,0-5.7-2.7-5.7-6.4c0-3.5,2-6.3,5.5-6.3c1.2,0,2.1,0.1,2.9,0.4
			L260.1,44.8z"/>
		<path class="st0" d="M269.1,47c-0.1-1.5-0.8-2.8-2.4-2.8c-1.7,0-2.5,1.2-2.7,2.8H269.1z M271.1,53.5c-1.1,0.6-2.3,1-3.9,1
			c-3.8,0-6-2.3-6-6.3c0-3.5,1.8-6.4,5.3-6.4c4.3,0,5.5,3.1,5.5,7.3h-7.9c0.1,1.9,1.4,3.1,3.3,3.1c1.4,0,2.7-0.6,3.8-1.2v2.5H271.1z
			"/>
		<path id="XMLID_39_" class="st0" d="M280.7,44.8c-0.9-0.3-1.6-0.5-2.7-0.5c-0.8,0-1.8,0.3-1.8,1.3c0,1.9,5.2,0.7,5.2,5.1
			c0,2.8-2.4,3.9-4.8,3.9c-1.1,0-2.3-0.2-3.4-0.5l0.2-2.6c0.9,0.5,1.9,0.8,2.9,0.8c0.8,0,2-0.3,2-1.5c0-2.4-5.2-0.7-5.2-5.1
			c0-2.6,2.2-3.8,4.5-3.8c1.4,0,2.3,0.2,3.3,0.4L280.7,44.8z"/>
		<path class="st0" d="M110.4,64.2L107,73h6.8L110.4,64.2z M109.6,62.8h1.8l6.2,15.7H116l-1.7-4.2h-7.9l-1.7,4.2h-1.5L109.6,62.8z"
			/>
		<path class="st0" d="M122.9,77.5c2.5,0,3.4-2.7,3.4-4.8c0-2.1-0.9-4.8-3.4-4.8c-2.7,0-3.4,2.6-3.4,4.8S120.2,77.5,122.9,77.5
			 M127.8,78.4h-1.4v-1.8l0,0c-0.8,1.5-1.9,2.1-3.6,2.1c-3.2,0-4.7-2.6-4.7-6c0-3.5,1.4-6,4.7-6c2.3,0,3.4,1.6,3.6,2.2l0,0v-7.3h1.4
			V78.4z"/>
		<path class="st0" d="M137.4,71.9c0-2-0.8-4-2.9-4c-2.1,0-3.4,2.1-3.4,4H137.4z M138.1,78.1c-1,0.4-2.3,0.6-3.3,0.6
			c-3.8,0-5.2-2.6-5.2-6c0-3.5,1.9-6,4.8-6c3.2,0,4.6,2.6,4.6,5.7v0.7h-7.9c0,2.4,1.3,4.4,3.8,4.4c1,0,2.5-0.4,3.2-0.9L138.1,78.1
			L138.1,78.1z"/>
		<rect id="XMLID_32_" x="140.7" y="61.5" class="st0" width="1.4" height="16.9"/>
		<path class="st0" d="M151.1,72.6h-0.4c-2.5,0-5.4,0.3-5.4,2.8c0,1.5,1.1,2.1,2.4,2.1c3.3,0,3.4-2.9,3.4-4.1V72.6z M151.3,76.6
			L151.3,76.6c-0.7,1.4-2.3,2.1-3.7,2.1c-3.3,0-3.8-2.2-3.8-3.2c0-3.9,4.1-4,7.1-4h0.3v-0.6c0-2-0.7-3-2.6-3c-1.2,0-2.3,0.3-3.4,0.9
			v-1.4c0.9-0.4,2.4-0.8,3.4-0.8c2.8,0,4,1.3,4,4.3V76c0,0.9,0,1.6,0.1,2.4h-1.4V76.6L151.3,76.6z"/>
		<path class="st0" d="M154.9,66.9h1.4v11.5h-1.4V66.9z M156.3,63.9h-1.4V62h1.4V63.9z"/>
		<path class="st0" d="M163.2,77.5c2.5,0,3.4-2.7,3.4-4.8c0-2.1-0.9-4.8-3.4-4.8c-2.7,0-3.4,2.6-3.4,4.8S160.5,77.5,163.2,77.5
			 M168.1,78.4h-1.4v-1.8l0,0c-0.8,1.5-1.9,2.1-3.6,2.1c-3.2,0-4.7-2.6-4.7-6c0-3.5,1.4-6,4.7-6c2.3,0,3.4,1.6,3.6,2.2l0,0v-7.3h1.4
			V78.4z"/>
		<path class="st0" d="M177.7,71.9c0-2-0.8-4-2.9-4c-2.1,0-3.4,2.1-3.4,4H177.7z M178.4,78.1c-1,0.4-2.3,0.6-3.3,0.6
			c-3.8,0-5.2-2.6-5.2-6c0-3.5,1.9-6,4.8-6c3.2,0,4.6,2.6,4.6,5.7v0.7h-7.9c0,2.4,1.3,4.4,3.8,4.4c1,0,2.5-0.4,3.2-0.9V78.1z"/>
		<polygon id="XMLID_23_" class="st0" points="229.8,62.8 232.2,62.8 238,76.5 243.7,62.8 246,62.8 246,78.4 244.4,78.4 244.4,64.3 
			244.4,64.3 238.6,78.4 237.3,78.4 231.4,64.3 231.4,64.3 231.4,78.4 229.8,78.4 		"/>
		<path id="XMLID_22_" class="st0" d="M253.8,68.2h-2.6v7.4c0,1,0.4,1.9,1.5,1.9c0.5,0,0.9-0.1,1.3-0.3l0.1,1.2
			c-0.3,0.1-1,0.3-1.7,0.3c-2.5,0-2.6-1.7-2.6-3.8v-6.7h-2.2V67h2.2v-2.8l1.4-0.5V67h2.6V68.2z"/>
		<polygon id="XMLID_21_" class="st0" points="261.5,62.8 263,62.8 263,77.1 269.3,77.1 269.3,78.4 261.5,78.4 		"/>
		<path class="st0" d="M275.1,77.5c2.5,0,3.8-2.1,3.8-4.8c0-2.7-1.3-4.8-3.8-4.8s-3.8,2.1-3.8,4.8C271.2,75.3,272.6,77.5,275.1,77.5
			 M275.1,66.8c3.7,0,5.4,2.9,5.4,6s-1.6,6-5.4,6c-3.7,0-5.4-2.9-5.4-6C269.7,69.5,271.3,66.8,275.1,66.8"/>
		<path id="XMLID_18_" class="st0" d="M283,68.2h-2.3V67h2.3v-0.8c0-2.4,0.1-4.8,3-4.8c0.4,0,1.1,0.1,1.3,0.2l-0.1,1.2
			c-0.3-0.2-0.7-0.2-1.1-0.2c-1.9,0-1.7,2.1-1.7,3.5v1h2.6v1.2h-2.6v10.1H283C283,78.5,283,68.2,283,68.2z"/>
		<path id="XMLID_17_" class="st0" d="M294,68.2h-2.6v7.4c0,1,0.4,1.9,1.5,1.9c0.5,0,0.9-0.1,1.3-0.3l0.1,1.2
			c-0.3,0.1-1,0.3-1.7,0.3c-2.5,0-2.6-1.7-2.6-3.8v-6.7h-2.3V67h2.3v-2.8l1.4-0.5V67h2.6V68.2z"/>
		<path id="XMLID_16_" class="st0" d="M299.7,80.1c-0.5,1.6-1.3,3.2-3,3.2c-0.5,0-1.1-0.1-1.5-0.2l0.1-1.2c0.3,0.1,0.5,0.2,1.1,0.2
			c1.2,0,1.6-1,2.1-2.5l0.3-1L294.7,67h1.5l3.2,9.6l0,0l0,0l3.3-9.6h1.5L299.7,80.1z"/>
		<path class="st0" d="M313.2,69.8h1.6c1.8,0,3.9-0.7,3.9-2.9c0-2.6-1.8-2.7-4-2.7h-1.6L313.2,69.8L313.2,69.8z M311.6,62.8h4.1
			c2.8,0,4.6,1.2,4.6,4.1c0,2-1.6,3.4-3.5,3.6l0,0c1.3,0.2,1.5,0.8,2,1.9l2.7,6.1h-1.7l-2.3-5.3c-0.9-2-1.6-2.1-3.1-2.1h-1.3v7.4
			h-1.6L311.6,62.8L311.6,62.8z"/>
		<path class="st0" d="M329.5,72.6h-0.4c-2.5,0-5.4,0.2-5.4,2.8c0,1.5,1.1,2.1,2.4,2.1c3.3,0,3.4-2.9,3.4-4.1V72.6z M329.7,76.6
			L329.7,76.6c-0.7,1.4-2.3,2.1-3.7,2.1c-3.3,0-3.8-2.2-3.8-3.2c0-3.9,4.1-4,7.1-4h0.3v-0.6c0-2-0.7-3-2.6-3c-1.2,0-2.3,0.3-3.4,0.9
			v-1.4c0.9-0.4,2.4-0.8,3.4-0.8c2.8,0,4,1.3,4,4.3V76c0,0.9,0,1.6,0.1,2.4h-1.4L329.7,76.6L329.7,76.6z"/>
		<path id="XMLID_11_" class="st0" d="M333.3,69.6c0-0.9,0-1.8-0.1-2.7h1.4V69l0,0c0.5-1,1.3-2.3,3.7-2.3c2.8,0,3.9,1.9,3.9,4.4v7.3
			h-1.4v-7c0-2.2-0.8-3.6-2.7-3.6c-2.6,0-3.4,2.3-3.4,4.2v6.4h-1.4V69.6z"/>
		<path class="st0" d="M349,77.2c2.6,0,3.5-2.4,3.5-4.5c0-2.8-0.8-4.8-3.4-4.8c-2.7,0-3.4,2.6-3.4,4.8S346.6,77.2,349,77.2
			 M354,77.5c0,3.2-1.4,5.8-5.4,5.8c-1.5,0-2.9-0.4-3.5-0.6l0.1-1.4c0.9,0.5,2.1,0.8,3.4,0.8c3.7,0,4-2.7,4-5.9l0,0
			c-0.8,1.7-2,2.3-3.5,2.3c-3.7,0-4.8-3.2-4.8-5.7c0-3.5,1.4-6,4.7-6c1.5,0,2.5,0.2,3.6,1.6l0,0v-1.3h1.4V77.5L354,77.5z"/>
		<path class="st0" d="M363.6,71.9c0-2-0.8-4-2.9-4s-3.4,2.1-3.4,4H363.6z M364.3,78.1c-1,0.4-2.3,0.6-3.3,0.6c-3.8,0-5.2-2.6-5.2-6
			c0-3.5,1.9-6,4.8-6c3.2,0,4.6,2.6,4.6,5.7v0.7h-7.9c0,2.4,1.3,4.4,3.8,4.4c1,0,2.5-0.4,3.2-0.9C364.3,76.7,364.3,78.1,364.3,78.1z
			"/>
		<path id="XMLID_6_" class="st0" d="M366.1,76.8c0.9,0.4,1.9,0.7,3,0.7c1.3,0,2.5-0.7,2.5-2.1c0-2.7-5.5-2.3-5.5-5.6
			c0-2.3,1.9-3.1,3.7-3.1c0.6,0,1.8,0.1,2.8,0.5l-0.1,1.2c-0.7-0.3-1.8-0.5-2.5-0.5c-1.5,0-2.5,0.5-2.5,1.9c0,2.1,5.7,1.9,5.7,5.6
			c0,2.4-2.3,3.3-4,3.3c-1.1,0-2.2-0.1-3.2-0.5L366.1,76.8z"/>
		<path class="st0" d="M194.7,72.5h-0.4c-2.5,0-5.4,0.2-5.4,2.8c0,1.5,1.1,2.1,2.4,2.1c3.3,0,3.4-2.9,3.4-4.1V72.5z M194.8,76.5
			L194.8,76.5c-0.7,1.4-2.3,2.1-3.7,2.1c-3.3,0-3.8-2.2-3.8-3.2c0-3.9,4.1-4,7.1-4h0.3v-0.6c0-2-0.7-3-2.6-3c-1.2,0-2.3,0.3-3.4,0.9
			v-1.4c0.9-0.4,2.4-0.8,3.4-0.8c2.8,0,4,1.3,4,4.3v5.1c0,0.9,0,1.6,0.1,2.4h-1.4V76.5L194.8,76.5z"/>
		<path id="XMLID_3_" class="st0" d="M198.5,69.5c0-0.9,0-1.8-0.1-2.7h1.4v2l0,0c0.5-1,1.3-2.3,3.7-2.3c2.8,0,3.9,1.9,3.9,4.4v7.3
			H206v-7c0-2.2-0.8-3.6-2.7-3.6c-2.6,0-3.4,2.3-3.4,4.2v6.4h-1.4V69.5z"/>
		<path class="st0" d="M214.3,77.4c2.5,0,3.4-2.7,3.4-4.8c0-2.1-0.9-4.8-3.4-4.8c-2.7,0-3.4,2.6-3.4,4.8S211.6,77.4,214.3,77.4
			 M219.1,78.3h-1.4v-1.8l0,0c-0.8,1.5-1.9,2.1-3.6,2.1c-3.2,0-4.7-2.6-4.7-6c0-3.5,1.4-6,4.7-6c2.3,0,3.4,1.6,3.6,2.2l0,0v-7.4h1.4
			V78.3z"/>
	</g>
</g>
</svg>
