<?xml version="1.0" encoding="utf-8"?>
<!-- Generator: Adobe Illustrator 16.0.0, SVG Export Plug-In . SVG Version: 6.00 Build 0)  -->
<!DOCTYPE svg PUBLIC "-//W3C//DTD SVG 1.1//EN" "http://www.w3.org/Graphics/SVG/1.1/DTD/svg11.dtd">
<svg version="1.1" id="Layer_1" xmlns="http://www.w3.org/2000/svg" xmlns:xlink="http://www.w3.org/1999/xlink" x="0px" y="0px"
	 width="412.582px" height="206.053px" viewBox="0 0 412.582 206.053" enable-background="new 0 0 412.582 206.053"
	 xml:space="preserve">
<linearGradient id="SVGID_1_" gradientUnits="userSpaceOnUse" x1="153.2385" y1="168.4309" x2="76.9093" y2="-59.531">
	<stop  offset="0" style="stop-color:#5B348B;stop-opacity:0"/>
	<stop  offset="1" style="stop-color:#5B348B"/>
</linearGradient>
<path fill="url(#SVGID_1_)" d="M261.077,0.881c-13.192,3.322-29.903,10.382-45.229,25.462
	c-33.006-42.125-87.211-64.434-141.547-67.281C20.832-43.775-29.307-26.942-65.996,2.317c-1.875,1.425-3.768,3.03-5.489,4.576
	c-4.57,3.955-8.971,8.179-13.108,12.549C-74.911-45.418,1.675-76.99,1.675-76.99c-9.274-10.067-39.021-1.645-39.021-1.645
	c58.095-55.73,155.316-16.723,155.316-16.723c0.948-12.926-23.667-25.826-23.667-25.826c56.04,6.365,67.458,12.378,67.458,12.378
	c24.367,9.7,42.939,21.748,56.974,34.48c6.827,4.101,12.204,11.039,15.686,16.589C252.606-34.975,258.911-12.482,261.077,0.881
	 M207.453,35.375c-34.055,40.247-24.414,71.797-20.277,80.996c2.008,4.762,5.94,7.452,15.07,10.324
	c38.237,11.986,37.24,31.669,37.24,31.669c-26.341-19.521-38.01,0.779-38.01,0.779s-15.483,3.286-34.24-6.864
	c-12.582-6.732-10.245-57.475-90.927-57.475c-12.494,0-23.971,1.365-34.404,3.435c-0.462,1.109-0.96,2.229-1.367,3.481
	c-10.534,28.551-47.522,50.826-66.182,53.125c0,0-6.054-19.399-40.979,1.474c0,0,1.472-32.496,42.775-33.739
	c-32.454-40.506-71.778-2.93-71.778-2.93c-7.054-45.605,5.446-76.548,19.868-96.167c37.224-35.027,91.428-57.095,150.059-54.015
	C127.982-27.673,170.828-9.27,207.453,35.375 M262.124,14.416c21.787,2.3,32.692,18.767,45.107,42.159
	c12.439,23.259,21.299,22.724,40.843,22.724c19.526,0,12.856,43.574-7.154,28.131c-10.273-7.927-14.459-1.122-58.544,8.155
	c-59.782,12.546-84.273,1.628-86.449-11.689c-2.167-12.268-1.813-34.089,18.231-56.581C232.962,26.087,249.83,17.276,262.124,14.416
	"/>
</svg>
