<?xml version="1.0" encoding="utf-8"?>
<!-- Generator: Adobe Illustrator 16.0.0, SVG Export Plug-In . SVG Version: 6.00 Build 0)  -->
<!DOCTYPE svg PUBLIC "-//W3C//DTD SVG 1.1//EN" "http://www.w3.org/Graphics/SVG/1.1/DTD/svg11.dtd">
<svg version="1.1" id="Layer_3" xmlns="http://www.w3.org/2000/svg" xmlns:xlink="http://www.w3.org/1999/xlink" x="0px" y="0px"
	 width="335.5px" height="45.994px" viewBox="0 0 335.5 45.994" enable-background="new 0 0 335.5 45.994" xml:space="preserve">
<path fill="#1D1D1B" d="M48.897,22.226c2.085,0.219,3.126,1.787,4.312,4.019c1.184,2.223,2.029,2.17,3.888,2.17
	c1.865,0,1.24,4.154-0.676,2.686c-0.988-0.76-1.377-0.104-5.581,0.78c-5.71,1.193-8.04,0.154-8.253-1.114
	c-0.201-1.178-0.168-3.254,1.748-5.408C46.119,23.342,47.729,22.498,48.897,22.226L48.897,22.226z M43.689,24.237
	c-3.25,3.836-2.322,6.84-1.941,7.712c0.203,0.462,0.573,0.722,1.444,0.987c3.653,1.145,3.547,3.023,3.547,3.023
	c-2.508-1.867-3.621,0.068-3.621,0.068s-1.47,0.318-3.263-0.65c-1.203-0.646-0.979-5.479-8.677-5.479
	c-1.193,0-2.281,0.121-3.278,0.33c-0.043,0.097-0.086,0.201-0.137,0.322c-1,2.731-4.527,4.854-6.311,5.068
	c0,0-0.569-1.854-3.905,0.143c0,0,0.132-3.101,4.079-3.222c-3.09-3.864-6.846-0.272-6.846-0.272
	c-0.68-4.354,0.525-7.307,1.894-9.178c3.545-3.339,8.718-5.45,14.312-5.153C36.107,18.213,40.198,19.967,43.689,24.237
	L43.689,24.237z M48.799,20.935c-1.25,0.32-2.853,0.994-4.307,2.431c-3.147-4.015-8.316-6.138-13.504-6.419
	c-5.095-0.273-9.877,1.344-13.381,4.125c-0.182,0.139-0.352,0.289-0.522,0.434c-0.441,0.379-0.854,0.781-1.244,1.199
	c0.924-6.182,8.228-9.194,8.228-9.194c-0.882-0.963-3.726-0.158-3.726-0.158c5.546-5.317,14.811-1.594,14.811-1.594
	c0.093-1.234-2.256-2.463-2.256-2.463c5.349,0.607,6.429,1.182,6.429,1.182c2.334,0.928,4.098,2.07,5.435,3.285
	c0.652,0.393,1.172,1.056,1.5,1.591C47.994,17.513,48.592,19.662,48.799,20.935L48.799,20.935z"/>
<g>
	<g>
		<path fill="#1D1D1B" d="M74.256,1.11h3.688l5.702,11.777h0.044V1.11h2.872v15.751h-3.666l-5.725-11.78h-0.045v11.78h-2.87V1.11z"
			/>
		<path fill="#1D1D1B" d="M89.453,5.848c1.115-0.544,2.616-0.881,3.833-0.881c3.368,0,4.762,1.467,4.762,4.897v1.487
			c0,1.171,0.021,2.053,0.04,2.913c0.025,0.881,0.067,1.694,0.129,2.597h-2.53c-0.105-0.612-0.105-1.377-0.13-1.742h-0.044
			c-0.658,1.291-2.098,2.01-3.403,2.01c-1.952,0-3.86-1.24-3.86-3.454c0-1.733,0.795-2.751,1.887-3.316
			c1.095-0.564,2.504-0.676,3.709-0.676h1.586c0-1.873-0.792-2.507-2.488-2.507c-1.219,0-2.442,0.497-3.402,1.264L89.453,5.848z
			 M92.819,14.919c0.876,0,1.565-0.406,2.014-1.04c0.469-0.654,0.599-1.488,0.599-2.391h-1.246c-1.285,0-3.192,0.228-3.192,2.008
			C90.993,14.491,91.785,14.919,92.819,14.919z"/>
		<path fill="#1D1D1B" d="M100.956,7.45h-2.127V5.237h2.127V2.915l2.873-0.971v3.293h2.552V7.45h-2.552v5.417
			c0,0.992,0.254,1.918,1.346,1.918c0.514,0,1.011-0.114,1.309-0.317l0.087,2.393c-0.602,0.179-1.266,0.269-2.121,0.269
			c-2.253,0-3.493-1.467-3.493-3.77V7.45z"/>
		<path fill="#1D1D1B" d="M117.599,16.861h-2.723V15.28h-0.042c-0.878,1.129-2.124,1.849-3.625,1.849
			c-2.615,0-3.747-1.941-3.747-4.556V5.237h2.871v6.208c0,1.422,0.018,3.341,1.862,3.341c2.079,0,2.53-2.373,2.53-3.86V5.237h2.873
			V16.861z"/>
		<path fill="#1D1D1B" d="M119.796,5.237h2.552v2.644h0.042c0.13-1.088,1.306-2.914,3.021-2.914c0.278,0,0.583,0,0.881,0.089v3.048
			c-0.258-0.159-0.771-0.248-1.284-0.248c-2.338,0-2.338,3.068-2.338,4.736v4.269h-2.873L119.796,5.237L119.796,5.237z"/>
		<path fill="#1D1D1B" d="M127.461,5.848c1.116-0.544,2.617-0.881,3.841-0.881c3.361,0,4.757,1.467,4.757,4.897v1.487
			c0,1.171,0.024,2.053,0.045,2.913c0.02,0.881,0.062,1.694,0.123,2.597h-2.524c-0.108-0.612-0.108-1.377-0.132-1.742h-0.042
			c-0.665,1.291-2.097,2.01-3.405,2.01c-1.953,0-3.86-1.24-3.86-3.454c0-1.733,0.797-2.751,1.886-3.316
			c1.096-0.564,2.51-0.676,3.71-0.676h1.583c0-1.873-0.795-2.507-2.482-2.507c-1.229,0-2.443,0.497-3.412,1.264L127.461,5.848z
			 M130.83,14.919c0.876,0,1.561-0.406,2.016-1.04c0.467-0.654,0.598-1.488,0.598-2.391h-1.241c-1.285,0-3.194,0.228-3.194,2.008
			C129.008,14.491,129.801,14.919,130.83,14.919z"/>
		<path fill="#1D1D1B" d="M138.166-0.064h2.873v16.925h-2.873V-0.064z"/>
		<path fill="#1D1D1B" d="M149.376,1.11h3.235c3.215,0,7.053-0.114,7.053,4.264c0,1.852-1.179,3.385-3.09,3.657v0.042
			c0.817,0.068,1.288,0.928,1.59,1.625l2.399,6.164h-3.346l-1.799-4.918c-0.429-1.176-0.812-1.627-2.076-1.627h-0.969v6.546h-2.999
			L149.376,1.11L149.376,1.11z M152.375,7.832h0.983c1.48,0,3.178-0.227,3.178-2.19c0-1.894-1.675-2.05-3.178-2.05h-0.983V7.832z"/>
		<path fill="#1D1D1B" d="M170.469,16.207c-1.051,0.607-2.251,0.923-3.794,0.923c-3.646,0-5.771-2.211-5.771-6.025
			c0-3.361,1.698-6.137,5.127-6.137c4.093,0,5.249,2.955,5.249,7.018h-7.629c0.127,1.874,1.371,2.934,3.153,2.934
			c1.39,0,2.591-0.541,3.664-1.174L170.469,16.207L170.469,16.207z M168.535,9.909c-0.088-1.468-0.727-2.732-2.332-2.732
			c-1.61,0-2.426,1.175-2.553,2.732H168.535z"/>
		<path fill="#1D1D1B" d="M179.459,7.675c-0.88-0.317-1.523-0.497-2.572-0.497c-0.772,0-1.696,0.296-1.696,1.288
			c0,1.85,4.999,0.676,4.999,4.873c0,2.709-2.296,3.791-4.632,3.791c-1.097,0-2.208-0.206-3.255-0.497l0.162-2.481
			c0.906,0.472,1.848,0.767,2.835,0.767c0.725,0,1.888-0.295,1.888-1.422c0-2.279-4.999-0.723-4.999-4.921
			c0-2.503,2.082-3.609,4.332-3.609c1.354,0,2.229,0.225,3.132,0.43L179.459,7.675z"/>
		<path fill="#1D1D1B" d="M186.727,4.967c3.281,0,5.786,2.324,5.786,6.161c0,3.34-2.118,6.002-5.786,6.002
			c-3.644,0-5.768-2.662-5.768-6.002C180.959,7.291,183.469,4.967,186.727,4.967z M186.727,14.785c2.208,0,2.783-2.077,2.783-4.019
			c0-1.784-0.899-3.452-2.783-3.452c-1.866,0-2.765,1.716-2.765,3.452C183.962,12.684,184.537,14.785,186.727,14.785z"/>
		<path fill="#1D1D1B" d="M204.134,16.861h-2.723V15.28h-0.039c-0.883,1.129-2.127,1.849-3.629,1.849
			c-2.614,0-3.749-1.941-3.749-4.556V5.237h2.874v6.208c0,1.422,0.018,3.341,1.862,3.341c2.078,0,2.53-2.373,2.53-3.86V5.237h2.872
			L204.134,16.861L204.134,16.861z"/>
		<path fill="#1D1D1B" d="M206.335,5.237h2.548v2.644h0.043c0.132-1.088,1.311-2.914,3.022-2.914c0.282,0,0.58,0,0.882,0.089v3.048
			c-0.259-0.159-0.773-0.248-1.288-0.248c-2.334,0-2.334,3.068-2.334,4.736v4.269h-2.873V5.237L206.335,5.237z"/>
		<path fill="#1D1D1B" d="M221.081,7.743c-0.514-0.249-1.076-0.428-1.95-0.428c-1.781,0-2.918,1.488-2.918,3.678
			c0,2.146,0.963,3.792,2.979,3.792c0.812,0,1.713-0.317,2.207-0.542l0.129,2.502c-0.833,0.269-1.689,0.384-2.869,0.384
			c-3.622,0-5.445-2.596-5.445-6.137c0-3.363,1.887-6.025,5.334-6.025c1.161,0,1.997,0.134,2.787,0.385L221.081,7.743z"/>
		<path fill="#1D1D1B" d="M231.475,16.207c-1.05,0.607-2.254,0.923-3.793,0.923c-3.646,0-5.769-2.211-5.769-6.025
			c0-3.361,1.694-6.137,5.124-6.137c4.095,0,5.251,2.955,5.251,7.018h-7.631c0.131,1.874,1.376,2.934,3.15,2.934
			c1.396,0,2.593-0.541,3.666-1.174L231.475,16.207L231.475,16.207z M229.545,9.909c-0.085-1.468-0.728-2.732-2.339-2.732
			c-1.606,0-2.418,1.175-2.549,2.732H229.545z"/>
		<path fill="#1D1D1B" d="M240.468,7.675c-0.883-0.317-1.527-0.497-2.575-0.497c-0.77,0-1.692,0.296-1.692,1.288
			c0,1.85,4.992,0.676,4.992,4.873c0,2.709-2.295,3.791-4.627,3.791c-1.095,0-2.209-0.206-3.257-0.497l0.166-2.481
			c0.906,0.472,1.849,0.767,2.834,0.767c0.726,0,1.887-0.295,1.887-1.422c0-2.279-4.994-0.723-4.994-4.921
			c0-2.503,2.079-3.609,4.324-3.609c1.354,0,2.232,0.225,3.138,0.43L240.468,7.675z"/>
	</g>
	<g>
		<path fill="#1D1D1B" d="M77.827,35.789l-1.564,4.733h-2.01l5.138-15.053h2.323l5.137,15.053h-2.077l-1.607-4.733H77.827z
			 M82.786,34.271l-1.497-4.334c-0.335-0.982-0.56-1.877-0.781-2.748h-0.044c-0.224,0.871-0.447,1.81-0.76,2.727l-1.476,4.355
			H82.786z"/>
		<path fill="#1D1D1B" d="M97.018,24.666v13.065c0,0.959,0.044,2.057,0.089,2.791h-1.743l-0.089-1.875h-0.065
			c-0.581,1.207-1.876,2.123-3.642,2.123c-2.612,0-4.646-2.213-4.646-5.496c-0.022-3.597,2.232-5.785,4.847-5.785
			c1.675,0,2.771,0.781,3.261,1.632h0.045v-6.455H97.018z M95.075,34.112c0-0.244-0.022-0.58-0.09-0.824
			c-0.29-1.229-1.361-2.257-2.836-2.257c-2.032,0-3.239,1.786-3.239,4.153c0,2.189,1.095,4,3.194,4c1.318,0,2.524-0.896,2.881-2.347
			c0.067-0.269,0.09-0.536,0.09-0.849V34.112z"/>
		<path fill="#1D1D1B" d="M100.308,35.476c0.044,2.658,1.72,3.754,3.708,3.754c1.408,0,2.278-0.246,2.993-0.56l0.358,1.407
			c-0.692,0.312-1.898,0.691-3.619,0.691c-3.328,0-5.316-2.211-5.316-5.473c0-3.261,1.921-5.809,5.071-5.809
			c3.551,0,4.467,3.082,4.467,5.07c0,0.401-0.022,0.692-0.067,0.916h-7.595V35.476z M106.07,34.069
			c0.022-1.229-0.514-3.172-2.725-3.172c-2.01,0-2.859,1.809-3.015,3.172H106.07z"/>
		<path fill="#1D1D1B" d="M109.369,24.666h1.965v15.856h-1.965V24.666z"/>
		<path fill="#1D1D1B" d="M121.044,37.933c0,0.938,0.044,1.854,0.157,2.59h-1.766l-0.156-1.359h-0.065
			c-0.604,0.847-1.767,1.607-3.306,1.607c-2.189,0-3.306-1.541-3.306-3.104c0-2.614,2.322-4.044,6.5-4.021v-0.225
			c0-0.871-0.246-2.502-2.458-2.479c-1.026,0-2.078,0.289-2.836,0.806l-0.447-1.317c0.895-0.56,2.211-0.939,3.574-0.939
			c3.307,0,4.11,2.258,4.11,4.4v4.041H121.044z M119.145,35.007c-2.144-0.045-4.579,0.335-4.579,2.436
			c0,1.295,0.851,1.875,1.833,1.875c1.431,0,2.346-0.893,2.658-1.81c0.068-0.223,0.088-0.444,0.088-0.625V35.007z"/>
		<path fill="#1D1D1B" d="M125.187,26.676c0,0.671-0.469,1.206-1.25,1.206c-0.715,0-1.184-0.535-1.184-1.206
			s0.491-1.229,1.228-1.229C124.695,25.447,125.187,25.983,125.187,26.676z M122.998,40.522v-10.81h1.966v10.81H122.998z"/>
		<path fill="#1D1D1B" d="M136.438,24.666v13.065c0,0.959,0.044,2.057,0.09,2.791h-1.742l-0.09-1.875h-0.067
			c-0.579,1.207-1.876,2.123-3.641,2.123c-2.612,0-4.646-2.213-4.646-5.496c-0.022-3.597,2.234-5.785,4.847-5.785
			c1.675,0,2.771,0.781,3.263,1.632h0.044v-6.455H136.438z M134.494,34.112c0-0.244-0.021-0.58-0.09-0.824
			c-0.291-1.229-1.362-2.257-2.837-2.257c-2.032,0-3.238,1.786-3.238,4.153c0,2.189,1.095,4,3.193,4
			c1.318,0,2.525-0.896,2.882-2.347c0.067-0.269,0.09-0.536,0.09-0.849V34.112z"/>
		<path fill="#1D1D1B" d="M139.727,35.476c0.045,2.658,1.72,3.754,3.708,3.754c1.408,0,2.279-0.246,2.993-0.56l0.358,1.407
			c-0.693,0.312-1.898,0.691-3.62,0.691c-3.327,0-5.315-2.211-5.315-5.473c0-3.261,1.921-5.809,5.07-5.809
			c3.551,0,4.468,3.082,4.468,5.07c0,0.401-0.021,0.692-0.067,0.916h-7.595V35.476z M145.49,34.069
			c0.021-1.229-0.516-3.172-2.726-3.172c-2.012,0-2.859,1.809-3.017,3.172H145.49z"/>
		<path fill="#1D1D1B" d="M161.036,37.933c0,0.938,0.044,1.854,0.154,2.59h-1.766l-0.156-1.359h-0.064
			c-0.604,0.847-1.768,1.607-3.307,1.607c-2.188,0-3.307-1.541-3.307-3.104c0-2.614,2.323-4.044,6.501-4.021v-0.225
			c0-0.871-0.247-2.502-2.458-2.479c-1.027,0-2.077,0.289-2.838,0.806l-0.446-1.317c0.894-0.56,2.212-0.939,3.574-0.939
			c3.306,0,4.111,2.258,4.111,4.4L161.036,37.933L161.036,37.933z M159.137,35.007c-2.146-0.045-4.579,0.335-4.579,2.436
			c0,1.295,0.851,1.875,1.831,1.875c1.43,0,2.347-0.893,2.658-1.81c0.067-0.223,0.09-0.444,0.09-0.625V35.007z"/>
		<path fill="#1D1D1B" d="M163.003,32.64c0-1.141-0.022-2.033-0.09-2.927h1.741l0.112,1.786h0.044
			c0.536-1.004,1.787-2.012,3.574-2.012c1.495,0,3.82,0.896,3.82,4.604v6.432h-1.966v-6.229c0-1.743-0.649-3.194-2.503-3.194
			c-1.272,0-2.279,0.916-2.636,2.012c-0.09,0.244-0.136,0.58-0.136,0.914v6.5h-1.964V32.64H163.003z"/>
		<path fill="#1D1D1B" d="M183.639,24.666v13.065c0,0.959,0.046,2.057,0.089,2.791h-1.743l-0.088-1.875h-0.065
			c-0.582,1.207-1.877,2.123-3.643,2.123c-2.612,0-4.646-2.213-4.646-5.496c-0.022-3.597,2.233-5.785,4.848-5.785
			c1.675,0,2.77,0.781,3.261,1.632h0.046v-6.455H183.639z M181.695,34.112c0-0.244-0.021-0.58-0.089-0.824
			c-0.291-1.229-1.363-2.257-2.837-2.257c-2.033,0-3.239,1.786-3.239,4.153c0,2.189,1.095,4,3.194,4
			c1.317,0,2.523-0.896,2.882-2.347c0.066-0.269,0.089-0.536,0.089-0.849V34.112z"/>
		<path fill="#1D1D1B" d="M203.294,33.912c-0.111-2.099-0.247-4.646-0.247-6.499h-0.044c-0.535,1.742-1.14,3.643-1.899,5.717
			l-2.656,7.307h-1.475l-2.458-7.172c-0.714-2.144-1.295-4.064-1.719-5.852h-0.045c-0.044,1.876-0.157,4.377-0.291,6.656
			l-0.401,6.453h-1.854l1.05-15.053h2.479l2.568,7.28c0.626,1.854,1.116,3.506,1.519,5.071h0.047c0.4-1.521,0.938-3.174,1.607-5.071
			l2.68-7.28h2.479l0.938,15.053h-1.92L203.294,33.912z"/>
		<path fill="#1D1D1B" d="M209.684,27.122v2.592h2.813v1.495h-2.813v5.831c0,1.341,0.38,2.1,1.474,2.1
			c0.535,0,0.851-0.045,1.14-0.134l0.09,1.496c-0.379,0.134-0.982,0.269-1.742,0.269c-0.915,0-1.652-0.312-2.121-0.826
			c-0.537-0.604-0.76-1.562-0.76-2.838V31.21h-1.676v-1.495h1.676v-2.011L209.684,27.122z"/>
		<path fill="#1D1D1B" d="M218.37,25.47h1.967v13.422h6.433v1.631h-8.398L218.37,25.47L218.37,25.47z"/>
		<path fill="#1D1D1B" d="M237.406,35.028c0,3.998-2.794,5.742-5.383,5.742c-2.904,0-5.183-2.146-5.183-5.562
			c0-3.596,2.39-5.719,5.36-5.719C235.306,29.489,237.406,31.747,237.406,35.028z M228.852,35.14c0,2.367,1.341,4.154,3.26,4.154
			c1.877,0,3.283-1.764,3.283-4.197c0-1.832-0.914-4.133-3.239-4.133C229.856,30.965,228.852,33.108,228.852,35.14z"/>
		<path fill="#1D1D1B" d="M238.924,40.522v-9.313h-1.496v-1.495h1.496v-0.515c0-1.519,0.356-2.904,1.25-3.774
			c0.738-0.715,1.721-1.005,2.637-1.005c0.715,0,1.296,0.155,1.676,0.313l-0.268,1.518c-0.291-0.135-0.671-0.246-1.252-0.246
			c-1.676,0-2.1,1.452-2.1,3.128v0.581h2.612v1.495h-2.612v9.313H238.924z"/>
		<path fill="#1D1D1B" d="M247.306,27.122v2.592h2.815v1.495h-2.815v5.831c0,1.341,0.38,2.1,1.477,2.1
			c0.534,0,0.847-0.045,1.139-0.134l0.09,1.496c-0.382,0.134-0.984,0.269-1.742,0.269c-0.917,0-1.654-0.312-2.123-0.826
			c-0.536-0.604-0.76-1.562-0.76-2.838V31.21h-1.675v-1.495h1.675v-2.011L247.306,27.122z"/>
		<path fill="#1D1D1B" d="M252.604,29.714l2.348,6.389c0.267,0.713,0.534,1.563,0.714,2.211h0.045
			c0.201-0.646,0.425-1.475,0.691-2.256l2.146-6.344h2.077l-2.949,7.705c-1.406,3.707-2.366,5.584-3.706,6.77
			c-0.984,0.826-1.922,1.162-2.414,1.252l-0.491-1.633c0.491-0.156,1.141-0.468,1.721-0.959c0.536-0.426,1.186-1.185,1.652-2.189
			c0.09-0.2,0.158-0.357,0.158-0.469c0-0.112-0.047-0.27-0.158-0.515l-3.977-9.962H252.604z"/>
		<path fill="#1D1D1B" d="M266.094,25.672c0.983-0.18,2.412-0.313,3.73-0.313c2.077,0,3.439,0.401,4.355,1.229
			c0.737,0.669,1.184,1.697,1.184,2.88c0,1.968-1.252,3.284-2.812,3.821v0.066c1.139,0.4,1.832,1.475,2.188,3.037
			c0.49,2.1,0.85,3.551,1.161,4.131h-2.01c-0.246-0.444-0.582-1.719-0.983-3.596c-0.445-2.076-1.272-2.857-3.037-2.926h-1.831v6.521
			h-1.944V25.672z M268.038,32.526h1.987c2.076,0,3.395-1.139,3.395-2.858c0-1.942-1.407-2.791-3.461-2.791
			c-0.939,0-1.587,0.065-1.921,0.155V32.526L268.038,32.526z"/>
		<path fill="#1D1D1B" d="M284.584,37.933c0,0.938,0.046,1.854,0.156,2.59h-1.766l-0.156-1.359h-0.065
			c-0.604,0.847-1.766,1.607-3.307,1.607c-2.188,0-3.308-1.541-3.308-3.104c0-2.614,2.324-4.044,6.501-4.021v-0.225
			c0-0.871-0.245-2.502-2.457-2.479c-1.027,0-2.077,0.289-2.838,0.806l-0.444-1.317c0.894-0.56,2.209-0.939,3.572-0.939
			c3.307,0,4.11,2.258,4.11,4.4L284.584,37.933L284.584,37.933z M282.687,35.007c-2.146-0.045-4.58,0.335-4.58,2.436
			c0,1.295,0.851,1.875,1.832,1.875c1.43,0,2.346-0.893,2.658-1.81c0.066-0.223,0.09-0.444,0.09-0.625V35.007z"/>
		<path fill="#1D1D1B" d="M286.553,32.64c0-1.141-0.023-2.033-0.09-2.927h1.742l0.11,1.786h0.045
			c0.536-1.004,1.786-2.012,3.573-2.012c1.496,0,3.819,0.896,3.819,4.604v6.432h-1.965v-6.229c0-1.743-0.647-3.194-2.503-3.194
			c-1.272,0-2.276,0.916-2.637,2.012c-0.089,0.244-0.133,0.58-0.133,0.914v6.5h-1.965V32.64H286.553z"/>
		<path fill="#1D1D1B" d="M307.107,38.938c0,2.5-0.514,4-1.541,4.959c-1.073,0.959-2.591,1.295-3.953,1.295
			c-1.297,0-2.727-0.312-3.598-0.895l0.492-1.52c0.715,0.471,1.831,0.871,3.172,0.871c2.01,0,3.483-1.049,3.483-3.795v-1.186h-0.045
			c-0.58,1.005-1.765,1.811-3.438,1.811c-2.683,0-4.603-2.28-4.603-5.272c0-3.662,2.391-5.72,4.893-5.72
			c1.876,0,2.881,0.963,3.373,1.855h0.043l0.066-1.631h1.743c-0.065,0.76-0.089,1.652-0.089,2.947L307.107,38.938L307.107,38.938z
			 M305.142,33.979c0-0.336-0.022-0.625-0.111-0.871c-0.357-1.161-1.296-2.1-2.747-2.1c-1.878,0-3.217,1.584-3.217,4.088
			c0,2.121,1.094,3.887,3.193,3.887c1.229,0,2.322-0.76,2.725-2.012c0.112-0.334,0.157-0.716,0.157-1.049V33.979z"/>
		<path fill="#1D1D1B" d="M310.376,35.476c0.045,2.658,1.72,3.754,3.708,3.754c1.407,0,2.278-0.246,2.991-0.56l0.359,1.407
			c-0.692,0.312-1.898,0.691-3.619,0.691c-3.329,0-5.315-2.211-5.315-5.473c0-3.261,1.921-5.809,5.069-5.809
			c3.554,0,4.468,3.082,4.468,5.07c0,0.401-0.021,0.692-0.066,0.916h-7.595V35.476z M316.14,34.069
			c0.021-1.229-0.514-3.172-2.728-3.172c-2.011,0-2.857,1.809-3.015,3.172H316.14z"/>
		<path fill="#1D1D1B" d="M319.049,38.537c0.604,0.354,1.631,0.758,2.612,0.758c1.407,0,2.078-0.69,2.078-1.606
			c0-0.938-0.56-1.432-1.987-1.965c-1.967-0.717-2.882-1.767-2.882-3.062c0-1.742,1.431-3.172,3.73-3.172
			c1.094,0,2.055,0.291,2.636,0.67l-0.47,1.43c-0.425-0.268-1.207-0.646-2.212-0.646c-1.161,0-1.786,0.67-1.786,1.475
			c0,0.895,0.625,1.296,2.033,1.854c1.854,0.691,2.836,1.631,2.836,3.237c0,1.923-1.497,3.263-4.021,3.263
			c-1.185,0-2.277-0.312-3.037-0.761L319.049,38.537z"/>
	</g>
</g>
</svg>
