<?xml version="1.0" encoding="utf-8"?>
<!-- Generator: Adobe Illustrator 16.0.3, SVG Export Plug-In . SVG Version: 6.00 Build 0)  -->
<!DOCTYPE svg PUBLIC "-//W3C//DTD SVG 1.1//EN" "http://www.w3.org/Graphics/SVG/1.1/DTD/svg11.dtd">
<svg version="1.1" id="Layer_1" xmlns="http://www.w3.org/2000/svg" xmlns:xlink="http://www.w3.org/1999/xlink" x="0px" y="0px"
	 width="640px" height="552px" viewBox="0 0 640 552" enable-background="new 0 0 640 552" xml:space="preserve">
<g>
	<g>
		<g>
			<g>
				<g>
					<g>
						<defs>
							<rect id="SVGID_1_" x="116.768" y="88.736" width="406.456" height="374.528"/>
						</defs>
						<clipPath id="SVGID_2_">
							<use xlink:href="#SVGID_1_"  overflow="visible"/>
						</clipPath>
						<path clip-path="url(#SVGID_2_)" fill="#59178A" d="M164.112,205.376c0,16.44,5.792,31.554,15.408,43.434
							c3.336-23.97,14.448-44.912,32.424-60.77c12.771-11.264,25.104-16.486,28.088-17.654c3.052-1.466,14.984-6.536,33.396-6.536
							c5.288,0,10.64,0.504,16.021,1.344c-12.562-17.504-33.03-28.978-56.178-28.978
							C195.136,136.224,164.112,167.248,164.112,205.376"/>
					</g>
				</g>
			</g>
		</g>
	</g>
</g>
<g>
	<g>
		<g>
			<g>
				<g>
					<g>
						<defs>
							<rect id="SVGID_3_" x="116.768" y="88.736" width="406.456" height="374.528"/>
						</defs>
						<clipPath id="SVGID_4_">
							<use xlink:href="#SVGID_3_"  overflow="visible"/>
						</clipPath>
						<path clip-path="url(#SVGID_4_)" fill="#59178A" d="M220.672,116.969c0.168,1.464,3.392,2.566,3.392,2.566h-0.088l18.288-0.19
							c-6.632-10.978-7.584-23.872-7.568-30.608C220.8,98.56,219.96,110.656,220.672,116.969"/>
					</g>
				</g>
			</g>
		</g>
	</g>
</g>
<g>
	<g>
		<g>
			<g>
				<g>
					<g>
						<defs>
							<rect id="SVGID_5_" x="116.768" y="88.736" width="406.456" height="374.528"/>
						</defs>
						<clipPath id="SVGID_6_">
							<use xlink:href="#SVGID_5_"  overflow="visible"/>
						</clipPath>
						<path clip-path="url(#SVGID_6_)" fill="#59178A" d="M180.328,136.264c0.64,0,1.288-0.178,1.854-0.521l15.812-9.336
							c-11.24-6.184-18.526-16.864-21.896-22.704c-7.12,15.456-1.824,26.368,1.944,31.474
							C178.744,136.12,179.776,136.264,180.328,136.264"/>
					</g>
				</g>
			</g>
		</g>
	</g>
</g>
<g>
	<g>
		<g>
			<g>
				<g>
					<g>
						<defs>
							<rect id="SVGID_7_" x="116.768" y="88.736" width="406.456" height="374.528"/>
						</defs>
						<clipPath id="SVGID_8_">
							<use xlink:href="#SVGID_7_"  overflow="visible"/>
						</clipPath>
						<path clip-path="url(#SVGID_8_)" fill="#59178A" d="M163.224,154.624c-0.784-0.176-1.288-0.168-1.752-0.168
							c-12.008,0-23.048-5.352-28.56-8.544c1.56,16.92,11.604,23.736,17.432,26.28c0.32,0.144,0.672,0.216,1.022,0.216
							c1.108,0,2.226-0.704,2.85-1.8L163.224,154.624z"/>
					</g>
				</g>
			</g>
		</g>
	</g>
</g>
<g>
	<g>
		<g>
			<g>
				<g>
					<g>
						<defs>
							<rect id="SVGID_9_" x="116.768" y="88.736" width="406.456" height="374.528"/>
						</defs>
						<clipPath id="SVGID_10_">
							<use xlink:href="#SVGID_9_"  overflow="visible"/>
						</clipPath>
						<path clip-path="url(#SVGID_10_)" fill="#59178A" d="M116.768,204.048c8.12,11.77,18.08,14.232,24.928,14.232h0.012
							c1.156,0,2.216-0.072,3.148-0.176c1.48-0.168,2.584-1.584,2.568-3.306l-0.192-18.352
							C136.288,203.056,123.472,204.048,116.768,204.048"/>
					</g>
				</g>
			</g>
		</g>
	</g>
</g>
<g>
	<g>
		<g>
			<g>
				<g>
					<g>
						<defs>
							<rect id="SVGID_11_" x="116.768" y="88.736" width="406.456" height="374.528"/>
						</defs>
						<clipPath id="SVGID_12_">
							<use xlink:href="#SVGID_11_"  overflow="visible"/>
						</clipPath>
						<path clip-path="url(#SVGID_12_)" fill="#59178A" d="M164.072,257.6c-0.076-0.386-0.229-0.776-0.444-1.146l-9.348-15.792
							c-6.168,11.232-16.854,18.528-22.692,21.89c4.854,2.424,9.848,3.566,14.604,3.566c2.576,0,4.904-0.352,7.012-0.88
							C156.696,262.328,160.376,259.768,164.072,257.6"/>
					</g>
				</g>
			</g>
		</g>
	</g>
</g>
<g>
	<g>
		<g>
			<g>
				<g>
					<g>
						<defs>
							<rect id="SVGID_13_" x="116.768" y="88.736" width="406.456" height="374.528"/>
						</defs>
						<clipPath id="SVGID_14_">
							<use xlink:href="#SVGID_13_"  overflow="visible"/>
						</clipPath>
						<path clip-path="url(#SVGID_14_)" fill="#59178A" d="M312.28,170.12c0.032,0,0.178-0.008,0.272-0.176
							c5.864-11.064,16.544-18.36,22.392-21.729c-4.854-2.432-9.848-3.574-14.604-3.574c-7.762,0-13.456,3.008-16.864,5.52
							c-1.2,0.888-1.438,2.672-0.568,4.152L312.28,170.12z"/>
					</g>
				</g>
			</g>
		</g>
	</g>
</g>
<g>
	<g>
		<g>
			<g>
				<g>
					<g>
						<defs>
							<rect id="SVGID_15_" x="116.768" y="88.736" width="406.456" height="374.528"/>
						</defs>
						<clipPath id="SVGID_16_">
							<use xlink:href="#SVGID_15_"  overflow="visible"/>
						</clipPath>
						<path clip-path="url(#SVGID_16_)" fill="#59178A" d="M268.032,126.328l15.988,9.018c-0.271-12.842,5.336-24.488,8.712-30.312
							c-16.936,1.552-23.74,11.6-26.286,17.424C265.856,123.816,266.536,125.48,268.032,126.328"/>
					</g>
				</g>
			</g>
		</g>
	</g>
</g>
<g>
	<g>
		<g>
			<g>
				<g>
					<g>
						<defs>
							<rect id="SVGID_17_" x="116.768" y="88.736" width="406.456" height="374.528"/>
						</defs>
						<clipPath id="SVGID_18_">
							<use xlink:href="#SVGID_17_"  overflow="visible"/>
						</clipPath>
						<path clip-path="url(#SVGID_18_)" fill="#59178A" d="M198.008,370.56h287.375h0.146c2.604,0,39.991-1.098,37.592-40.416
							c-1.504-24.592-24.809-29.554-41.703-29.554c-5.217,0-9.819,0.354-12.987,0.816c-0.13,0.023-0.239-0.032-0.359-0.032
							c-1.96,0-3.456-2.397-3.146-4.407c1.699-10.849,2.492-39.151-28.309-61.049c-11.729-8.328-24.937-11.008-37.039-11.008
							c-15.199,0-28.662,4.226-35.246,6.712c-0.479,0.186-0.979,0.272-1.467,0.272c-1.761,0-3.416-1.128-4-2.896
							c-3.376-10.088-15.185-35.424-51.494-48.408c-12.98-4.64-24.466-6.168-33.959-6.168c-18.271,0-29.159,5.674-29.159,5.674
							s-49.268,17.646-54.792,74.104c-0.257,2.656-2.104,4.888-4.648,5.664c-11.536,3.528-42.256,18.32-41.52,47.333
							C144.64,360.728,182.536,370.56,198.008,370.56"/>
					</g>
				</g>
			</g>
		</g>
	</g>
</g>
<g>
	<g>
		<g>
			<g>
				<g>
					<g>
						<defs>
							<rect id="SVGID_19_" x="116.768" y="88.736" width="406.456" height="374.528"/>
						</defs>
						<clipPath id="SVGID_20_">
							<use xlink:href="#SVGID_19_"  overflow="visible"/>
						</clipPath>
						<path clip-path="url(#SVGID_20_)" fill="#59178A" d="M241.272,436.616c0.562-7.312-10.76-24-11.24-24.704l-0.768,0.521
							l-0.776-0.521c-0.472,0.704-11.524,17.248-11.524,25.729c0,4.729,2.863,11.824,10.752,11.992
							c0.12,0.008,0.24,0.008,0.356,0.008C235.496,449.64,240.664,444.56,241.272,436.616"/>
					</g>
				</g>
			</g>
		</g>
	</g>
</g>
<g>
	<g>
		<g>
			<g>
				<g>
					<g>
						<defs>
							<rect id="SVGID_21_" x="116.768" y="88.736" width="406.456" height="374.528"/>
						</defs>
						<clipPath id="SVGID_22_">
							<use xlink:href="#SVGID_21_"  overflow="visible"/>
						</clipPath>
						<path clip-path="url(#SVGID_22_)" fill="#59178A" d="M294.264,421.416c8.128,0,13.792-5.552,14.464-14.256
							c0.608-7.968-11.646-26.04-12.168-26.812l-1.016,0.694l-1.02-0.688c-0.512,0.761-12.479,18.673-12.479,27.896
							c0,5.176,3.144,12.951,11.812,13.15C294,421.416,294.128,421.416,294.264,421.416"/>
					</g>
				</g>
			</g>
		</g>
	</g>
</g>
<g>
	<g>
		<g>
			<g>
				<g>
					<g>
						<defs>
							<rect id="SVGID_23_" x="116.768" y="88.736" width="406.456" height="374.528"/>
						</defs>
						<clipPath id="SVGID_24_">
							<use xlink:href="#SVGID_23_"  overflow="visible"/>
						</clipPath>
						<path clip-path="url(#SVGID_24_)" fill="#59178A" d="M266.552,463.264c7.16,0,12.136-4.888,12.728-12.544
							c0.536-6.979-10.156-22.752-10.612-23.416l-1,0.685l-1.012-0.672c-0.438,0.651-10.888,16.275-10.888,24.352
							c0,4.568,2.784,11.426,10.436,11.602C266.328,463.264,266.44,463.264,266.552,463.264"/>
					</g>
				</g>
			</g>
		</g>
	</g>
</g>
<g>
	<g>
		<g>
			<g>
				<g>
					<g>
						<defs>
							<rect id="SVGID_25_" x="116.768" y="88.736" width="406.456" height="374.528"/>
						</defs>
						<clipPath id="SVGID_26_">
							<use xlink:href="#SVGID_25_"  overflow="visible"/>
						</clipPath>
						<path clip-path="url(#SVGID_26_)" fill="#59178A" d="M258.192,404.344c5.22,0,8.992-3.688,9.416-9.24
							c0.388-5.018-6.808-15.712-7.624-16.92L259,378.856l-0.992-0.664c-0.32,0.472-7.824,11.704-7.824,17.56
							c0,3.386,2.064,8.474,7.76,8.594C258.024,404.344,258.12,404.344,258.192,404.344"/>
					</g>
				</g>
			</g>
		</g>
	</g>
</g>
<g>
	<g>
		<g>
			<g>
				<g>
					<g>
						<defs>
							<rect id="SVGID_27_" x="116.768" y="88.736" width="406.456" height="374.528"/>
						</defs>
						<clipPath id="SVGID_28_">
							<use xlink:href="#SVGID_27_"  overflow="visible"/>
						</clipPath>
						<path clip-path="url(#SVGID_28_)" fill="#59178A" d="M189,410.209c6.336,0,10.92-4.479,11.438-11.23
							c0.464-6.089-8.271-19.089-9.264-20.545l-1.2,0.814l-1.2-0.808c-0.392,0.562-9.504,14.208-9.504,21.323
							c0,4.112,2.516,10.288,9.424,10.448C188.8,410.209,188.896,410.209,189,410.209"/>
					</g>
				</g>
			</g>
		</g>
	</g>
</g>
<g>
	<g>
		<g>
			<g>
				<g>
					<g>
						<defs>
							<rect id="SVGID_29_" x="116.768" y="88.736" width="406.456" height="374.528"/>
						</defs>
						<clipPath id="SVGID_30_">
							<use xlink:href="#SVGID_29_"  overflow="visible"/>
						</clipPath>
						<path clip-path="url(#SVGID_30_)" fill="#59178A" d="M227.072,404.344c5.22,0,8.992-3.688,9.416-9.24
							c0.388-5.018-6.808-15.712-7.624-16.92l-0.979,0.677l-0.992-0.664c-0.32,0.472-7.824,11.704-7.824,17.56
							c0,3.386,2.064,8.475,7.764,8.594C226.904,404.344,226.992,404.344,227.072,404.344"/>
					</g>
				</g>
			</g>
		</g>
	</g>
</g>
</svg>
