<?xml version="1.0" encoding="utf-8"?>
<!-- Generator: Adobe Illustrator 16.0.0, SVG Export Plug-In . SVG Version: 6.00 Build 0)  -->
<!DOCTYPE svg PUBLIC "-//W3C//DTD SVG 1.1//EN" "http://www.w3.org/Graphics/SVG/1.1/DTD/svg11.dtd">
<svg version="1.1" id="Layer_1" xmlns="http://www.w3.org/2000/svg" xmlns:xlink="http://www.w3.org/1999/xlink" x="0px" y="0px"
	 width="400px" height="43px" viewBox="0 0 400 43" enable-background="new 0 0 400 43" xml:space="preserve">
<rect fill="#59178a" width="400" height="43"/>
<path fill="#FFFFFF" d="M367.646,28.421c0,0.645-0.524,1.168-1.168,1.168h-1.748c-0.645,0-1.166-0.523-1.166-1.168
	c0-0.338,0.146-0.639,0.374-0.852l3.319-0.012C367.494,27.77,367.646,28.076,367.646,28.421 M373.192,9.856
	c-0.161-0.459-0.666-0.703-1.125-0.54c-0.459,0.162-0.7,0.666-0.539,1.126l0.323,0.919l-0.097,0.076l2.187,6.217
	c0.083,0.239-0.015,0.498-0.223,0.626l0.075,0.256L355.8,26.298l-0.32-0.642c-0.077-0.06-0.144-0.141-0.178-0.241l-0.248-0.703
	l-0.201,0.157l-0.243-0.688c-0.151-0.433-0.626-0.659-1.055-0.507c-0.433,0.151-0.659,0.625-0.507,1.058l1.444,4.107
	c0.12,0.342,0.439,0.555,0.782,0.555c0.091,0,0.184-0.017,0.274-0.048c0.43-0.153,0.657-0.624,0.507-1.057l-0.244-0.691l6.485-0.023
	c-0.092,0.265-0.146,0.55-0.146,0.847c0,1.422,1.157,2.579,2.578,2.579h1.748c1.423,0,2.58-1.157,2.58-2.579
	c0-0.307-0.057-0.598-0.156-0.868l8.634-0.031l0.548,1.559c0.127,0.363,0.468,0.591,0.832,0.591c0.097,0,0.195-0.017,0.292-0.05
	c0.46-0.163,0.7-0.665,0.538-1.127L373.192,9.856z"/>
<polyline fill="#FFFFFF" points="356.303,25.068 372.039,15.434 370.878,12.136 355.931,24.014 356.3,25.063 356.303,25.068 "/>
<path fill="#FFFFFF" d="M385.571,18.255c-0.012-0.092-0.017-0.16-0.031-0.269l-0.031-0.226c-0.066-0.363-0.153-0.686-0.264-1.013
	c-0.449-1.305-1.358-2.439-2.499-3.153c-1.136-0.717-2.513-1.022-3.753-0.761c1.176,0.449,2.154,1.055,2.939,1.817
	c0.785,0.762,1.363,1.669,1.711,2.658c0.091,0.244,0.161,0.509,0.215,0.739l0.047,0.222c0.012,0.041,0.023,0.124,0.035,0.184
	c0.02,0.132,0.037,0.262,0.052,0.395c0.059,0.527,0.054,1.063-0.013,1.604c-0.132,1.086-0.524,2.174-1.158,3.259
	c1.13-0.575,2.011-1.67,2.449-2.942c0.223-0.638,0.33-1.319,0.325-2.004C385.597,18.595,385.585,18.424,385.571,18.255"/>
<path fill="#FFFFFF" d="M382.493,18.584l-0.018-0.131c-0.038-0.216-0.091-0.404-0.155-0.598c-0.264-0.771-0.801-1.44-1.472-1.86
	c-0.67-0.423-1.48-0.603-2.213-0.447c0.693,0.265,1.27,0.618,1.732,1.071c0.463,0.449,0.803,0.983,1.008,1.565
	c0.054,0.144,0.096,0.301,0.128,0.437l0.048,0.24l0.03,0.23c0.034,0.312,0.032,0.627-0.009,0.948
	c-0.077,0.64-0.308,1.279-0.682,1.92c0.665-0.34,1.185-0.986,1.444-1.736c0.13-0.373,0.194-0.776,0.19-1.181
	c0.002-0.101-0.005-0.2-0.014-0.301L382.493,18.584z"/>
</svg>
