<?xml version="1.0" encoding="utf-8"?>
<!-- Generator: Adobe Illustrator 16.0.0, SVG Export Plug-In . SVG Version: 6.00 Build 0)  -->
<!DOCTYPE svg PUBLIC "-//W3C//DTD SVG 1.1//EN" "http://www.w3.org/Graphics/SVG/1.1/DTD/svg11.dtd">
<svg version="1.1" id="Layer_1" xmlns="http://www.w3.org/2000/svg" xmlns:xlink="http://www.w3.org/1999/xlink" x="0px" y="0px"
	 width="41px" height="41px" viewBox="0 0 41 41" enable-background="new 0 0 41 41" xml:space="preserve">
<g>
	<g>
		<path fill="#59178A" d="M22.033,22.033c-2.245,2.244-5.898,2.244-8.143,0c-2.244-2.245-2.244-5.898,0-8.143
			c2.245-2.245,5.898-2.245,8.143,0C24.277,16.135,24.277,19.789,22.033,22.033 M23.941,11.982c-3.297-3.297-8.663-3.297-11.959,0
			s-3.297,8.662,0,11.959c2.996,2.996,7.7,3.269,11.008,0.818l2.591,2.592l1.771-1.771l-2.59-2.591
			C27.21,19.683,26.938,14.979,23.941,11.982"/>
	</g>
</g>
<rect x="27.905" y="27.108" transform="matrix(0.7069 -0.7073 0.7073 0.7069 -12.0771 29.1681)" fill="#59178A" width="2.503" height="4.097"/>
</svg>
