<?xml version="1.0" encoding="utf-8"?>
<!-- Generator: Adobe Illustrator 16.0.0, SVG Export Plug-In . SVG Version: 6.00 Build 0)  -->
<!DOCTYPE svg PUBLIC "-//W3C//DTD SVG 1.1//EN" "http://www.w3.org/Graphics/SVG/1.1/DTD/svg11.dtd">
<svg version="1.1" id="Layer_1" xmlns="http://www.w3.org/2000/svg" xmlns:xlink="http://www.w3.org/1999/xlink" x="0px" y="0px"
	 width="25.512px" height="45.354px" viewBox="0 0 25.512 45.354" enable-background="new 0 0 25.512 45.354" xml:space="preserve">
<path fill="#E70095" d="M12.428,45.144"/>
<path fill="#E70095" d="M12.428,45.144"/>
<path fill="#BDAED1" d="M13.246,23.854c5.829,0,10.554-4.725,10.554-10.554S19.074,2.746,13.246,2.746
	C7.416,2.746,2.69,7.47,2.69,13.299S7.416,23.854,13.246,23.854"/>
<path fill="#5B348B" d="M12.755,23.099c-5.354,0-9.693-4.34-9.693-9.688c0-5.354,4.34-9.694,9.693-9.694
	c5.353,0,9.692,4.34,9.692,9.694C22.448,18.759,18.109,23.099,12.755,23.099 M12.755,0.123c-6.916,0-12.521,5.604-12.521,12.52
	c0,13.946,12.521,32.589,12.521,32.589S25.276,28.19,25.276,12.643C25.276,5.728,19.67,0.123,12.755,0.123"/>
<g>
	<path fill="none" d="M8.845,11.59l0.014,0.019c0.09,0.113,0.194,0.193,0.301,0.233c0.069,0.027,0.13,0.05,0.183,0.073
		c0.049,0.019,0.088,0.035,0.122,0.048c0.084,0.031,0.145,0.055,0.201,0.047c0.031-0.004,0.052-0.009,0.076-0.017
		c0.102-0.036,0.195-0.038,0.291-0.007h0.002l0.016,0.007c0.03,0.009,0.063,0.026,0.099,0.045c0.052,0.025,0.098,0.048,0.161,0.055
		c0.059,0.006,0.127-0.019,0.197-0.071c0.004-0.003,0.007-0.004,0.011-0.008l0.03-0.025l0.044,0.022l-0.034-0.032l0.015-0.012
		l0.042,0.022l-0.036-0.028c0.022-0.023,0.039-0.042,0.055-0.063c0.039-0.05,0.069-0.103,0.09-0.156
		c0.016-0.042,0.032-0.106,0.044-0.19l0.047-0.005l-0.045-0.007c0.001-0.018,0.005-0.036,0.007-0.057l0.009-0.078l0.047-0.014
		l-0.047-0.003c0.031-0.385,0.04-0.928-0.226-1.213c-0.012-0.013-0.022-0.025-0.035-0.035c-0.026-0.023-0.055-0.045-0.084-0.063
		c-0.016-0.01-0.033-0.02-0.049-0.028l-0.004,0.005c-0.13,0.245-0.71,0.298-0.848,0.299l0,0c-0.096,0-0.202-0.013-0.297-0.035
		c-0.139-0.033-0.238-0.082-0.294-0.147c-0.144,0.104-0.302,0.275-0.328,0.537c-0.002,0.011-0.002,0.019-0.002,0.029l-0.002,0.018
		c-0.033,0.261,0.033,0.542,0.185,0.772C8.816,11.548,8.829,11.568,8.845,11.59z"/>
	<path fill="none" d="M16.483,10.875l-0.009,0.005c-0.186,0.072-0.419,0.105-0.635,0.094c-0.334-0.042-0.567-0.18-0.633-0.375
		c-0.004,0.005-0.009,0.01-0.012,0.013l-0.003,0.001l-0.003,0.004c-0.146,0.142-0.178,0.384-0.207,0.596
		c-0.012,0.077-0.021,0.151-0.036,0.218c-0.005,0.024-0.009,0.052-0.012,0.077v0.022c-0.002,0.023-0.002,0.039-0.002,0.056
		c0,0.016,0,0.024,0.002,0.034c0,0.01,0.002,0.019,0.003,0.029c0.006,0.039,0.011,0.07,0.021,0.097l0.004,0.02
		c0,0.005,0.003,0.01,0.005,0.014c0.03,0.098,0.085,0.188,0.157,0.27c0.006,0.007,0.012,0.013,0.018,0.019l0.024,0.025
		c0.026,0.025,0.049,0.043,0.069,0.061c0.014,0.014,0.03,0.024,0.045,0.035c0.012,0.008,0.021,0.015,0.032,0.023
		c0.024,0.017,0.051,0.034,0.079,0.047l0.034,0.018c0.006,0.004,0.012,0.007,0.018,0.009c0.022,0.01,0.044,0.018,0.062,0.027
		c0.162,0.065,0.315,0.088,0.454,0.074l0.037-0.002c0.061-0.003,0.122-0.017,0.182-0.037c0.092-0.034,0.178-0.09,0.254-0.169
		l0.007-0.008c0.006-0.005,0.011-0.009,0.017-0.016c0.13-0.148,0.226-0.362,0.272-0.603c0.023-0.105,0.031-0.212,0.027-0.32h0.006
		c-0.002-0.016-0.006-0.047-0.01-0.097c-0.017-0.032-0.025-0.065-0.028-0.088c-0.024-0.065-0.055-0.122-0.084-0.178
		c-0.019-0.031-0.038-0.063-0.062-0.095C16.559,10.814,16.527,10.847,16.483,10.875z"/>
	<path fill="none" d="M13.157,11.093c-0.071,0.005-0.136,0.007-0.197,0.008c-0.048,0.003-0.091,0.005-0.132,0.007
		c-0.058-0.007-0.104-0.015-0.149-0.023c-0.034-0.005-0.07-0.011-0.111-0.017c-0.137-0.022-0.308-0.049-0.439-0.109
		c-0.101-0.045-0.171-0.106-0.208-0.179c-0.051-0.077-0.083-0.166-0.089-0.247c-0.116,0.082-0.177,0.292-0.172,0.604
		c-0.006,0.065-0.007,0.119-0.004,0.167c0.015,0.099,0.031,0.202,0.048,0.305c0.009,0.028,0.015,0.06,0.022,0.091l0.011,0.039l0,0
		c0.058,0.242,0.112,0.426,0.283,0.588c0.099,0.094,0.253,0.156,0.473,0.189l0.011,0.001c0.135,0.021,0.309,0.042,0.479,0.042
		c0.086,0,0.166-0.006,0.234-0.017c0.081-0.01,0.149-0.032,0.21-0.067l0.023-0.014c0.006-0.003,0.013-0.007,0.019-0.012l0.009-0.005
		c0.005-0.003,0.012-0.009,0.015-0.011l0.009-0.008c0.042-0.033,0.079-0.071,0.11-0.115l0.011-0.011
		c0.057-0.058,0.095-0.129,0.12-0.22c0.172-0.385,0.261-0.978,0.095-1.334c-0.009-0.025-0.021-0.047-0.031-0.07
		c-0.002,0.027-0.008,0.051-0.016,0.071C13.734,10.904,13.495,11.032,13.157,11.093z"/>
	<path fill="#FFFFFF" d="M19.019,20.198c-0.201-0.045-0.391-0.09-0.571-0.137c0.054-0.017,0.11-0.04,0.166-0.074
		c0.324-0.187,0.611-0.73,0.575-0.795c0,0-0.144-0.019-0.331-0.019c-0.209,0-0.473,0.023-0.645,0.124
		c-0.2,0.116-0.295,0.295-0.326,0.438v0.172c-0.317-0.094-0.601-0.188-0.851-0.281c0.039-0.015,0.078-0.033,0.116-0.057
		c0.326-0.188,0.614-0.732,0.577-0.795c0,0-0.145-0.019-0.331-0.019c-0.211,0-0.473,0.022-0.645,0.122
		c-0.228,0.132-0.318,0.342-0.333,0.495c-0.541-0.25-0.86-0.477-1.044-0.643c1.005-0.252,2.008-0.557,2.957-0.925l0.226-0.57l0,0
		c-0.002,0-0.747,0.405-2.506,0.877c0.092-0.087,0.173-0.209,0.192-0.359c0.047-0.339-0.337-0.813-0.338-0.815l0,0
		c-0.085,0.002-0.514,0.465-0.561,0.804c-0.035,0.248,0.086,0.419,0.224,0.497c-0.209,0.052-0.431,0.104-0.664,0.157
		c0.023,0.117,0.038,0.237,0.033,0.364c-0.001,0.035-0.022,0.069-0.055,0.087c-0.006,0.003-0.015,0.007-0.022,0.008
		c0.012-0.001,0.022-0.004,0.035-0.008c0.189,0.222,0.596,0.446,1.082,0.653c-0.001,0-0.003,0.002-0.003,0.002
		c-0.16,0.051-0.312,0.316-0.156,0.637c0.158,0.319,0.705,0.66,0.779,0.636c0,0,0.187-0.576,0.029-0.896
		c-0.032-0.065-0.076-0.122-0.121-0.169c0.25,0.092,0.509,0.179,0.763,0.26c-0.155,0.063-0.295,0.32-0.142,0.631
		c0.156,0.32,0.705,0.662,0.779,0.636c0,0,0.187-0.575,0.027-0.896c-0.044-0.092-0.109-0.164-0.178-0.221
		c0.754,0.223,1.356,0.365,1.356,0.365L19.019,20.198z"/>
	<path fill="#FFFFFF" d="M14.828,18.863c-0.016,0-0.033-0.004-0.048-0.01c-0.176-0.077-0.305-0.199-0.404-0.341
		c-0.005-0.008-0.01-0.015-0.016-0.024c-0.127-0.19-0.207-0.417-0.283-0.628c-0.041-0.117-0.083-0.229-0.126-0.323
		c-0.04-0.087-0.076-0.175-0.109-0.266c-0.196,0.206-0.424,0.517-0.469,0.777c-0.048,0.284,0.063,0.498,0.21,0.618
		c-0.583,0.109-1.227,0.214-1.932,0.313c0.153-0.119,0.294-0.296,0.333-0.528c0.081-0.474-0.438-1.171-0.438-1.171h-0.001
		c-0.123,0-0.744,0.618-0.825,1.087c-0.057,0.329,0.09,0.575,0.27,0.699c-0.401,0.051-0.818,0.099-1.256,0.144
		c-0.053-0.001-0.118,0-0.196,0.005c-0.109,0.008-0.211,0.005-0.308-0.007c-0.188-0.02-0.354-0.07-0.496-0.132
		c-0.026-0.011-0.051-0.025-0.075-0.037c-0.145-0.098-0.297-0.209-0.451-0.323c-0.053-0.053-0.079-0.085-0.079-0.085l0.007,0.033
		c-0.022-0.016-0.044-0.033-0.066-0.049c0.03,0.01,0.06,0.015,0.088,0.017c0.134,0.002,0.478-0.192,0.523-0.53
		c0.046-0.338-0.339-0.814-0.339-0.814l0,0c-0.085,0-0.514,0.464-0.561,0.803c-0.021,0.156,0.02,0.283,0.087,0.375
		c-0.581-0.44-1.141-0.884-1.391-1.036l-0.266,0.352l0,0c0.172,0.1,0.349,0.214,0.521,0.336c-0.064,0.002-0.13,0.011-0.198,0.032
		c-0.353,0.111-0.651,0.637-0.651,0.637c0.036,0.068,0.683,0.215,1.036,0.105c0.228-0.072,0.346-0.216,0.381-0.35
		c0.407,0.325,0.752,0.638,0.934,0.805c-0.608,0.048-1.246,0.09-1.916,0.124L5.972,19.92l0,0H7.23
		c0.706-0.041,1.661-0.113,2.76-0.238c-0.014,0.009-0.028,0.016-0.039,0.023c-0.118,0.092-0.227,0.495,0.066,0.812
		c0.245,0.263,0.84,0.396,1.038,0.435h0.072c0.056-0.108-0.034-0.753-0.315-1.054c-0.142-0.153-0.311-0.231-0.466-0.258
		c0.406-0.048,0.83-0.105,1.266-0.17c-0.121,0.152-0.211,0.534,0.053,0.863c0.255,0.321,0.938,0.52,1.135,0.57h0.065
		c0.072-0.121,0.03-0.844-0.254-1.202c-0.136-0.169-0.303-0.266-0.463-0.312c0.306-0.049,0.619-0.103,0.934-0.161
		c-0.013,0.008-0.023,0.017-0.032,0.027c-0.125,0.123-0.191,0.609,0.199,0.941c0.251,0.216,0.743,0.31,1.058,0.351h0.307
		c0.035-0.164-0.165-0.874-0.525-1.182c-0.163-0.139-0.34-0.209-0.506-0.232c0.419-0.083,0.842-0.173,1.268-0.273
		C14.842,18.861,14.835,18.863,14.828,18.863z"/>
	<path fill="#FFFFFF" d="M9.155,9.726c0.174-0.046,0.434-0.1,0.707-0.1c0.364,0,0.652,0.095,0.853,0.282
		c0.473,0.441,0.368,1.675,0.266,1.942c-0.1,0.259-0.364,0.537-0.654,0.537l0,0c-0.017,0-0.032,0-0.048-0.002
		c-0.116-0.014-0.195-0.055-0.26-0.089c-0.081-0.042-0.113-0.055-0.181-0.031c-0.048,0.017-0.093,0.028-0.137,0.032
		c0.037,0.506,0.01,0.999-0.077,1.446C9.6,13.86,9.4,14.527,9.234,15.052c-0.133,0.422-0.223,0.697-0.287,0.878
		c0.068-0.055,0.162-0.135,0.284-0.249c0.015-0.016,0.028-0.026,0.034-0.036c0.199-0.181,0.37-0.375,0.51-0.579
		c0.159-0.197,0.417-0.534,0.674-0.92c-0.011,0.125-0.028,0.25-0.044,0.374c-0.018,0.125-0.035,0.243-0.044,0.356
		c-0.041,0.491-0.107,0.972-0.197,1.431c-0.174,0.872-0.458,1.94-1.122,2.75c0.268-0.117,0.547-0.298,0.848-0.55
		c0.976-0.819,1.695-2.022,2.265-3.784c0.02-0.059,0.038-0.118,0.054-0.176c-0.087-0.327-0.189-0.65-0.303-0.977
		c-0.541-1.535-0.746-3.072-0.653-4.836c0.037-0.686,0.149-1.303,0.335-1.845c-0.021-0.044-0.04-0.085-0.061-0.127
		c-0.406-0.428-0.754-0.898-1.036-1.398c-0.035-0.064-0.06-0.168-0.088-0.29c-0.029-0.12-0.094-0.396-0.157-0.422
		c0,0-0.026,0.003-0.077,0.055C9.878,4.995,9.709,5.409,9.558,5.774C9.19,6.671,8.986,7.447,8.933,8.146
		C8.89,8.719,8.981,9.231,9.115,9.74C9.137,9.732,9.152,9.729,9.155,9.726z"/>
	<path fill="#FFFFFF" d="M15.131,9.472c0.002,0,0.002,0.001,0.002,0.001c0.003,0.022,0.006,0.045,0.006,0.067l0.002,0.007l0,0
		c0.004,0.042,0.006,0.081,0.009,0.123c0.021,0.203,0.026,0.402,0.021,0.597c0.108-0.053,0.244-0.088,0.417-0.099
		c0.345-0.016,0.607,0.012,0.817,0.099c0-0.115,0.006-0.23,0.011-0.342c0.013-0.245,0.025-0.495-0.011-0.743
		c-0.07-0.498-0.316-0.904-0.584-1.312c-0.301-0.457-0.468-0.897-0.525-1.386c-0.011-0.085-0.007-0.169-0.005-0.249
		c0.001-0.066,0.003-0.129,0-0.189C15.27,6.08,15.25,6.115,15.24,6.134c-0.011,0.018-0.019,0.033-0.024,0.044
		c-0.077,0.128-0.159,0.25-0.239,0.368c-0.208,0.31-0.408,0.605-0.501,0.969c0.169,0.343,0.305,0.667,0.411,0.982
		C15.003,8.811,15.088,9.135,15.131,9.472z"/>
	<path fill="#FFFFFF" d="M15.927,16.504c0.156,0.185,0.302,0.353,0.467,0.504c0.021,0.018,0.079,0.058,0.139,0.093
		c-0.048-0.093-0.1-0.183-0.147-0.271c-0.168-0.303-0.343-0.614-0.41-0.986c-0.093-0.51-0.06-1.087-0.029-1.597l0.006-0.127
		c0.014-0.276,0.07-0.547,0.122-0.811c0.042-0.22,0.088-0.443,0.108-0.669c-0.054,0.014-0.109,0.024-0.167,0.027
		c-0.034,0.004-0.064,0.004-0.099,0.004c-0.396,0-0.761-0.161-1.003-0.444c-0.032-0.037-0.062-0.077-0.088-0.117
		c-0.045,0.139-0.093,0.274-0.14,0.406c-0.388,1.078-0.574,2.149-0.773,3.283l-0.033,0.196c-0.045,0.261-0.073,0.418,0.003,0.663
		l0.021,0.077c0.073,0.239,0.148,0.486,0.254,0.712c0.05,0.104,0.092,0.221,0.136,0.344c0.097,0.272,0.204,0.575,0.413,0.757
		c-0.011-0.081-0.028-0.161-0.043-0.243c-0.031-0.137-0.06-0.279-0.062-0.43c-0.011-0.381,0.042-0.77,0.098-1.132
		c0.039-0.266,0.104-0.611,0.258-0.936c0.021-0.046,0.04-0.09,0.058-0.138c0.058-0.105,0.096-0.176,0.096-0.176l0.388-0.533
		c0.011,0.028,0.011,0.058-0.004,0.088C15.285,15.46,15.561,16.075,15.927,16.504z"/>
	<path fill="#FFFFFF" d="M11.516,10.523c0.013-0.03,0.027-0.06,0.041-0.094c0.033-0.083,0.086-0.157,0.151-0.212l0.016-0.013
		l0.021-0.008c0.259-0.085,0.532-0.125,0.858-0.125c0.225,0,0.452,0.018,0.672,0.036l0.119,0.011c0.069,0.01,0.128,0.023,0.185,0.04
		c0.357,0.104,0.542,0.343,0.551,0.712c0.004,0.229,0.018,0.762-0.117,1.196c-0.035,0.16-0.096,0.289-0.192,0.392
		c-0.171,0.235-0.407,0.352-0.705,0.352H13.06c-0.383-0.002-0.902-0.008-1.211-0.275c0.083,0.323,0.18,0.643,0.292,0.961
		c0.55,1.566,0.807,3.133,0.768,4.668c0.483-0.97,0.651-2.001,0.828-3.085c0.057-0.336,0.112-0.684,0.18-1.025
		c0.104-0.537,0.281-1.076,0.452-1.596c0.102-0.307,0.204-0.62,0.294-0.935c0.001-0.05,0.006-0.1,0.017-0.149
		c0.019-0.083,0.032-0.168,0.045-0.25c0.029-0.181,0.061-0.373,0.142-0.535c0.049-0.349,0.065-0.7,0.024-1.05c0,0,0,0,0-0.002l0,0
		c-0.113-0.97-0.626-1.849-1.121-2.701c-0.25-0.43-0.508-0.873-0.712-1.324c-0.009-0.02-0.02-0.045-0.031-0.076
		c-0.023-0.056-0.092-0.225-0.143-0.267c-0.001,0.001-0.003,0.003-0.007,0.005c-0.235,0.222-0.413,0.525-0.584,0.817
		C12.26,6.043,12.226,6.1,12.195,6.154c-0.406,0.68-0.638,1.552-0.694,2.59C11.467,9.363,11.473,9.953,11.516,10.523z"/>
	<path fill="#FFFFFF" d="M8.774,11.647c0.001,0.003,0.005,0.007,0.013,0.015c0.099,0.125,0.216,0.217,0.339,0.264
		C9.194,11.951,9.253,11.975,9.313,12c0.043,0.016,0.083,0.031,0.116,0.044c0.09,0.034,0.158,0.055,0.222,0.055
		c0.009,0,0.017-0.002,0.033-0.003c0.03-0.003,0.06-0.01,0.088-0.02c0.084-0.029,0.156-0.03,0.236-0.003l0.007,0.001
		c0.032,0.012,0.06,0.025,0.091,0.042c0.055,0.028,0.112,0.057,0.193,0.065c0.009,0.001,0.019,0.001,0.028,0.001
		c0.073,0,0.156-0.032,0.236-0.088c0.005-0.005,0.011-0.009,0.021-0.017l0.067-0.062c0.021-0.021,0.038-0.042,0.058-0.065
		c0.042-0.058,0.078-0.117,0.102-0.179c0.018-0.045,0.035-0.119,0.05-0.208l0.001-0.013c0.001-0.018,0.005-0.039,0.007-0.059
		l0.009-0.099c0.035-0.434,0.039-0.972-0.248-1.276c-0.014-0.017-0.026-0.03-0.042-0.043c-0.028-0.027-0.062-0.05-0.095-0.071
		c-0.035-0.022-0.072-0.042-0.109-0.06L10.329,9.92v0.006C10.235,9.88,10.008,9.794,9.733,9.85c0,0-0.418,0.037-0.494,0.082
		c-0.041,0.023-0.159,0.057-0.241,0.099V10.03l-0.015,0.009c-0.015,0.009-0.029,0.017-0.039,0.025H8.942
		c-0.17,0.111-0.381,0.31-0.414,0.633c-0.002,0.012-0.002,0.021-0.004,0.033v0.015c-0.034,0.278,0.037,0.581,0.197,0.827
		C8.737,11.596,8.752,11.618,8.774,11.647z M10.556,10.106C10.924,10.438,10.502,10.057,10.556,10.106L10.556,10.106z M8.617,10.753
		l0.002-0.018c0-0.01,0-0.018,0.002-0.029c0.026-0.261,0.185-0.433,0.328-0.537c0.056,0.065,0.155,0.114,0.294,0.147
		c0.095,0.022,0.201,0.035,0.297,0.035l0,0c0.138-0.001,0.717-0.055,0.848-0.299l0.004-0.005c0.016,0.008,0.033,0.018,0.049,0.028
		c0.03,0.018,0.059,0.041,0.084,0.063c0.013,0.01,0.023,0.022,0.035,0.035c0.266,0.285,0.257,0.828,0.226,1.213l0.047,0.003
		l-0.047,0.014l-0.009,0.078c-0.002,0.021-0.005,0.039-0.007,0.057l0.045,0.007l-0.047,0.005c-0.013,0.084-0.028,0.148-0.044,0.19
		c-0.021,0.054-0.051,0.106-0.09,0.156c-0.016,0.021-0.033,0.041-0.055,0.063l0.036,0.028l-0.042-0.022l-0.015,0.012l0.034,0.032
		l-0.044-0.022l-0.03,0.025c-0.004,0.003-0.007,0.005-0.011,0.008c-0.07,0.052-0.139,0.077-0.197,0.071
		c-0.063-0.007-0.109-0.03-0.161-0.055c-0.036-0.019-0.069-0.036-0.099-0.045l-0.016-0.007h-0.002
		c-0.096-0.031-0.189-0.029-0.291,0.007c-0.023,0.008-0.044,0.013-0.076,0.017c-0.056,0.008-0.117-0.016-0.201-0.047
		c-0.034-0.014-0.072-0.029-0.122-0.048c-0.053-0.023-0.114-0.045-0.183-0.073c-0.107-0.04-0.211-0.12-0.301-0.233L8.845,11.59
		c-0.016-0.022-0.03-0.042-0.044-0.064C8.65,11.296,8.584,11.014,8.617,10.753z"/>
	<path fill="#FFFFFF" d="M10.556,10.106C10.502,10.057,10.924,10.438,10.556,10.106L10.556,10.106z"/>
	<path fill="#FFFFFF" d="M10.556,10.106C10.502,10.057,10.924,10.438,10.556,10.106L10.556,10.106z"/>
	<path fill="#FFFFFF" d="M11.829,10.43c-0.181,0.079-0.27,0.317-0.264,0.703c-0.006,0.066-0.007,0.122-0.003,0.179
		c0.014,0.104,0.032,0.208,0.049,0.315l0.023,0.094c0.004,0.015,0.007,0.026,0.011,0.038l0.016,0.065l0,0
		c0.056,0.221,0.121,0.405,0.292,0.567c0.111,0.104,0.278,0.172,0.515,0.211l0.011,0.001c0.141,0.022,0.323,0.045,0.504,0.045
		c0.091,0,0.176-0.004,0.248-0.018c0.089-0.01,0.172-0.037,0.242-0.077l0.027-0.015c0.008-0.005,0.018-0.01,0.027-0.017l0.007-0.005
		c0.008-0.005,0.013-0.01,0.02-0.013l0.009-0.008c0.045-0.037,0.088-0.081,0.123-0.127l0.007-0.009
		c0.065-0.066,0.111-0.148,0.137-0.249c0.178-0.397,0.271-1.02,0.096-1.395c-0.042-0.111-0.114-0.194-0.224-0.254l-0.245-0.134
		l0.007,0.005c-0.084-0.049-0.29-0.086-0.702-0.086c-0.348,0-0.596,0.076-0.596,0.076l-0.299,0.093l0,0l-0.009,0.003L11.829,10.43z
		 M13.806,10.677c0.011,0.022,0.022,0.044,0.031,0.07c0.166,0.356,0.077,0.949-0.095,1.334c-0.025,0.09-0.063,0.162-0.12,0.22
		l-0.011,0.011c-0.031,0.044-0.068,0.083-0.11,0.115l-0.009,0.008c-0.003,0.002-0.01,0.008-0.015,0.011l-0.009,0.005
		c-0.006,0.004-0.013,0.009-0.019,0.012l-0.023,0.014c-0.062,0.035-0.13,0.057-0.21,0.067c-0.068,0.011-0.148,0.017-0.234,0.017
		c-0.17,0-0.344-0.021-0.479-0.042l-0.011-0.001c-0.22-0.033-0.375-0.095-0.473-0.189c-0.171-0.163-0.226-0.346-0.283-0.588l0,0
		L11.725,11.7c-0.007-0.032-0.014-0.063-0.022-0.091c-0.018-0.103-0.033-0.206-0.048-0.305c-0.003-0.049-0.001-0.102,0.004-0.167
		c-0.004-0.311,0.056-0.522,0.172-0.604c0.007,0.082,0.039,0.17,0.089,0.247c0.037,0.073,0.107,0.134,0.208,0.179
		c0.131,0.06,0.302,0.087,0.439,0.109c0.041,0.005,0.077,0.011,0.111,0.017c0.045,0.008,0.091,0.017,0.149,0.023
		c0.041-0.002,0.084-0.003,0.132-0.007c0.061-0.001,0.126-0.003,0.197-0.008c0.338-0.061,0.577-0.189,0.633-0.345
		C13.798,10.728,13.804,10.704,13.806,10.677z"/>
	<path fill="#FFFFFF" d="M16.48,10.534c-0.073-0.048-0.264-0.161-0.503-0.177c-0.307-0.022-0.442,0.009-0.442,0.009l-0.258,0.08
		v-0.002l-0.012,0.007l-0.01,0.003c0,0,0,0.001,0,0.003l-0.043,0.026c-0.018,0.012-0.036,0.024-0.051,0.035
		c-0.012,0.011-0.022,0.02-0.036,0.032l-0.007,0.008c-0.163,0.164-0.199,0.418-0.23,0.644c-0.01,0.076-0.02,0.148-0.033,0.211
		c-0.007,0.028-0.01,0.059-0.014,0.089c0,0.006-0.002,0.015-0.002,0.032c0,0.018-0.002,0.037,0,0.062c0,0.01,0,0.021,0.002,0.031
		c0,0.012,0.001,0.022,0.005,0.042c0.005,0.036,0.011,0.069,0.022,0.107l0.003,0.011c0.001,0.006,0.004,0.013,0.005,0.02
		c0.037,0.11,0.094,0.211,0.175,0.301c0.008,0.008,0.017,0.017,0.023,0.023l0.031,0.03c0.021,0.021,0.044,0.041,0.067,0.062
		c0.016,0.013,0.033,0.025,0.049,0.038c0.013,0.008,0.023,0.015,0.035,0.023c0.028,0.02,0.059,0.037,0.088,0.054l0.035,0.018
		c0.007,0.003,0.015,0.007,0.023,0.011c0.021,0.011,0.045,0.02,0.065,0.03c0.14,0.055,0.277,0.083,0.405,0.083
		c0.034,0,0.065-0.001,0.099-0.004h0.013c0.007,0,0.013,0,0.018,0c0.07-0.004,0.14-0.021,0.207-0.043
		c0.107-0.04,0.204-0.104,0.29-0.192l0.007-0.009c0.008-0.005,0.014-0.012,0.02-0.018c0.14-0.159,0.245-0.388,0.293-0.646
		c0.021-0.093,0.03-0.189,0.03-0.287c0.009-0.013,0.006-0.036-0.009-0.162l-0.004-0.015c-0.014-0.025-0.021-0.053-0.023-0.074
		l-0.002-0.008c-0.028-0.07-0.057-0.132-0.089-0.192c-0.024-0.043-0.055-0.083-0.087-0.125c-0.016-0.023-0.033-0.045-0.055-0.066
		l-0.061-0.066c-0.005-0.004-0.006-0.008-0.01-0.013c0,0-0.008-0.005-0.016-0.013l-0.019-0.018L16.48,10.534z M16.639,10.87
		c0.029,0.056,0.06,0.112,0.084,0.178c0.003,0.023,0.012,0.057,0.028,0.088c0.004,0.05,0.008,0.081,0.01,0.097h-0.006
		c0.004,0.107-0.004,0.215-0.027,0.32c-0.047,0.241-0.143,0.455-0.272,0.603c-0.006,0.007-0.011,0.011-0.017,0.016l-0.007,0.008
		c-0.076,0.079-0.162,0.136-0.254,0.169c-0.06,0.02-0.121,0.033-0.182,0.037l-0.037,0.002c-0.139,0.015-0.292-0.009-0.454-0.074
		c-0.019-0.009-0.04-0.017-0.062-0.027c-0.006-0.002-0.012-0.005-0.018-0.009l-0.034-0.018c-0.028-0.014-0.055-0.031-0.079-0.047
		c-0.011-0.008-0.021-0.015-0.032-0.023c-0.015-0.01-0.031-0.021-0.045-0.035c-0.021-0.017-0.043-0.035-0.069-0.061l-0.024-0.025
		c-0.006-0.006-0.012-0.012-0.018-0.019c-0.072-0.082-0.127-0.172-0.157-0.27c-0.002-0.004-0.005-0.009-0.005-0.014l-0.004-0.02
		c-0.01-0.026-0.015-0.058-0.021-0.097c-0.001-0.01-0.003-0.019-0.003-0.029c-0.002-0.01-0.002-0.018-0.002-0.034
		c0-0.017,0-0.032,0.002-0.056V11.51c0.003-0.025,0.007-0.052,0.012-0.077c0.015-0.067,0.024-0.141,0.036-0.218
		c0.029-0.212,0.062-0.455,0.207-0.596l0.003-0.004l0.003-0.001c0.003-0.003,0.008-0.008,0.012-0.013
		c0.065,0.194,0.299,0.333,0.633,0.375c0.216,0.011,0.449-0.022,0.635-0.094l0.009-0.005c0.044-0.028,0.076-0.061,0.094-0.1
		C16.601,10.807,16.62,10.839,16.639,10.87z"/>
	<polygon fill="#FFFFFF" points="8.923,10.038 8.923,10.038 8.923,10.04 	"/>
	<polygon points="8.923,10.038 8.923,10.038 8.923,10.04 	"/>
</g>
</svg>
