<?xml version="1.0" encoding="utf-8"?>
<!-- Generator: Adobe Illustrator 16.0.3, SVG Export Plug-In . SVG Version: 6.00 Build 0)  -->
<!DOCTYPE svg PUBLIC "-//W3C//DTD SVG 1.1//EN" "http://www.w3.org/Graphics/SVG/1.1/DTD/svg11.dtd">
<svg version="1.1" id="Layer_1" xmlns="http://www.w3.org/2000/svg" xmlns:xlink="http://www.w3.org/1999/xlink" x="0px" y="0px"
	 width="593px" height="242px" viewBox="0 0 593 242" enable-background="new 0 0 593 242" xml:space="preserve">
<path fill="none" stroke="#5B348B" stroke-width="3" stroke-linecap="round" stroke-linejoin="bevel" stroke-miterlimit="10" stroke-dasharray="0,6" d="
	M408.171,116.903c17.759,1.865,26.622,15.217,36.701,34.207c10.078,18.925,17.276,18.475,33.093,18.475
	c15.879,0,10.56,35.371-5.753,22.868c-8.416-6.47-11.728-0.898-47.511,6.634c-48.608,10.161-68.447,1.313-70.262-9.494
	c-1.712-10.013-1.429-27.688,14.883-46.031C384.521,126.399,398.226,119.214,408.171,116.903L408.171,116.903z M363.836,134.015
	c-27.671,32.662-19.772,58.237-16.53,65.654c1.728,3.94,4.89,6.153,12.305,8.413c31.098,9.748,30.2,25.743,30.2,25.743
	c-21.354-15.897-30.831,0.583-30.831,0.583s-12.505,2.711-27.772-5.538c-10.243-5.521-8.331-46.629-73.866-46.629
	c-10.16,0-19.422,1.03-27.906,2.795c-0.366,0.831-0.731,1.729-1.164,2.759c-8.515,23.251-38.547,41.308-53.729,43.138
	c0,0-4.838-15.764-33.244,1.214c0,0,1.132-26.391,34.723-27.423c-26.307-32.893-58.269-2.327-58.269-2.327
	c-5.789-37.069,4.472-62.193,16.112-78.126c30.185-28.42,74.217-46.396,121.848-43.868
	C299.297,82.729,334.117,97.663,363.836,134.015L363.836,134.015z M407.338,105.911c-10.642,2.728-24.278,8.466-36.666,20.687
	c-26.793-34.172-70.793-52.249-114.96-54.645c-43.369-2.327-84.08,11.442-113.915,35.122c-1.547,1.181-2.993,2.461-4.456,3.693
	c-3.758,3.227-7.268,6.652-10.594,10.211c7.865-52.633,70.046-78.278,70.046-78.278c-7.503-8.196-31.716-1.346-31.716-1.346
	C212.29-3.91,291.165,27.784,291.165,27.784c0.782-10.508-19.208-20.969-19.208-20.969c45.533,5.171,54.73,10.061,54.73,10.061
	c19.871,7.899,34.886,17.629,46.264,27.97c5.552,3.343,9.976,8.983,12.771,13.538C400.487,76.775,405.575,95.07,407.338,105.911
	L407.338,105.911z"/>
</svg>
