<?xml version="1.0" encoding="utf-8"?>
<!-- Generator: Adobe Illustrator 19.0.0, SVG Export Plug-In . SVG Version: 6.00 Build 0)  -->
<svg version="1.1" id="Layer_1" xmlns="http://www.w3.org/2000/svg" xmlns:xlink="http://www.w3.org/1999/xlink" x="0px" y="0px"
	 width="295px" height="120px" viewBox="0 0 295 120" style="enable-background:new 0 0 295 120;" xml:space="preserve">
<style type="text/css">
	.st0{fill:#FFFFFF;}
	.st1{opacity:0.8;fill:#FAD8D2;enable-background:new    ;}
</style>
<g>
	<g>
		<polygon id="XMLID_52_" class="st0" points="110.1,38.4 113.8,38.4 119.5,50.2 119.6,50.2 119.6,38.4 122.4,38.4 122.4,54.1 
			118.8,54.1 113,42.4 113,42.4 113,54.1 110.1,54.1 		"/>
		<path class="st0" d="M128.9,52.2c0.9,0,1.6-0.4,2-1c0.5-0.7,0.6-1.5,0.6-2.4h-1.2c-1.3,0-3.2,0.2-3.2,2
			C127.1,51.8,127.9,52.2,128.9,52.2 M125.5,43.1c1.1-0.5,2.6-0.9,3.8-0.9c3.4,0,4.8,1.5,4.8,4.9v1.5c0,1.2,0,2,0,2.9
			s0.1,1.7,0.1,2.6h-2.5c-0.1-0.6-0.1-1.4-0.1-1.7l0,0c-0.7,1.3-2.1,2-3.4,2c-2,0-3.9-1.2-3.9-3.4c0-1.7,0.8-2.7,1.9-3.3
			c1.1-0.6,2.5-0.7,3.7-0.7h1.6c0-1.9-0.8-2.5-2.5-2.5c-1.2,0-2.4,0.5-3.4,1.3L125.5,43.1z"/>
		<path id="XMLID_49_" class="st0" d="M137.2,44.7h-2.1v-2.2h2.1v-2.3l2.9-1v3.3h2.5v2.2h-2.5v5.4c0,1,0.3,1.9,1.3,1.9
			c0.5,0,1-0.1,1.3-0.3l0.1,2.4c-0.6,0.2-1.3,0.3-2.1,0.3c-2.2,0-3.5-1.5-3.5-3.8V44.7z"/>
		<path id="XMLID_48_" class="st0" d="M154.1,54.1h-2.7v-1.6l0,0c-0.9,1.1-2.1,1.8-3.6,1.8c-2.6,0-3.8-1.9-3.8-4.6v-7.3h2.9v6.2
			c0,1.4,0,3.3,1.9,3.3c2.1,0,2.5-2.4,2.5-3.9v-5.7h2.9L154.1,54.1L154.1,54.1L154.1,54.1z"/>
		<path id="XMLID_47_" class="st0" d="M156.5,42.5h2.5v2.6l0,0c0.1-1.1,1.3-2.9,3-2.9c0.3,0,0.6,0,0.9,0.1v3
			c-0.3-0.2-0.8-0.3-1.3-0.3c-2.3,0-2.3,3.1-2.3,4.7V54h-2.9V42.5L156.5,42.5L156.5,42.5z"/>
		<path class="st0" d="M167.8,52.2c0.9,0,1.6-0.4,2-1c0.5-0.7,0.6-1.5,0.6-2.4h-1.2c-1.3,0-3.2,0.2-3.2,2
			C165.9,51.8,166.7,52.2,167.8,52.2 M164.4,43.1c1.1-0.5,2.6-0.9,3.8-0.9c3.4,0,4.8,1.5,4.8,4.9v1.5c0,1.2,0,2,0,2.9
			s0.1,1.7,0.1,2.6h-2.5c-0.1-0.6-0.1-1.4-0.1-1.7l0,0c-0.7,1.3-2.1,2-3.4,2c-1.9,0-3.9-1.2-3.9-3.4c0-1.7,0.8-2.7,1.9-3.3
			c1.1-0.6,2.5-0.7,3.7-0.7h1.6c0-1.9-0.8-2.5-2.5-2.5c-1.2,0-2.4,0.5-3.4,1.3L164.4,43.1z"/>
		<rect id="XMLID_44_" x="175.3" y="37.2" class="st0" width="2.9" height="16.9"/>
		<path class="st0" d="M189.5,45.1h1c1.5,0,3.2-0.2,3.2-2.2c0-1.9-1.7-2-3.2-2h-1V45.1z M186.5,38.4h3.2c3.2,0,7-0.1,7,4.3
			c0,1.8-1.2,3.4-3.1,3.6l0,0c0.8,0.1,1.3,0.9,1.6,1.6l2.4,6.1h-3.3l-1.8-4.9c-0.4-1.2-0.8-1.6-2.1-1.6h-1V54h-3V38.4H186.5z"/>
		<path class="st0" d="M205.9,47.2c-0.1-1.5-0.7-2.7-2.3-2.7s-2.4,1.2-2.5,2.7H205.9z M207.8,53.5c-1,0.6-2.2,0.9-3.8,0.9
			c-3.6,0-5.8-2.2-5.8-6c0-3.4,1.7-6.1,5.1-6.1c4.1,0,5.2,3,5.2,7h-7.6c0.1,1.9,1.4,2.9,3.1,2.9c1.4,0,2.6-0.5,3.7-1.2v2.5
			L207.8,53.5L207.8,53.5z"/>
		<path id="XMLID_39_" class="st0" d="M217,45c-0.9-0.3-1.5-0.5-2.6-0.5c-0.8,0-1.7,0.3-1.7,1.3c0,1.9,5,0.7,5,4.9
			c0,2.7-2.3,3.8-4.6,3.8c-1.1,0-2.2-0.2-3.3-0.5l0.2-2.5c0.9,0.5,1.8,0.8,2.8,0.8c0.7,0,1.9-0.3,1.9-1.4c0-2.3-5-0.7-5-4.9
			c0-2.5,2.1-3.6,4.3-3.6c1.3,0,2.2,0.2,3.1,0.4L217,45z"/>
		<path class="st0" d="M224.5,52.1c2.2,0,2.8-2.1,2.8-4c0-1.8-0.9-3.4-2.8-3.4c-1.9,0-2.8,1.7-2.8,3.4
			C221.7,50,222.3,52.1,224.5,52.1 M224.5,42.3c3.3,0,5.8,2.3,5.8,6.1c0,3.3-2.1,6-5.8,6c-3.6,0-5.8-2.7-5.8-6
			C218.7,44.6,221.2,42.3,224.5,42.3"/>
		<path id="XMLID_36_" class="st0" d="M242.1,54.1h-2.8v-1.6l0,0c-0.9,1.1-2.1,1.8-3.6,1.8c-2.6,0-3.7-1.9-3.7-4.6v-7.3h2.9v6.2
			c0,1.4,0,3.3,1.9,3.3c2.1,0,2.5-2.4,2.5-3.9v-5.7h2.9L242.1,54.1L242.1,54.1z"/>
		<path id="XMLID_35_" class="st0" d="M244.5,42.5h2.5v2.6l0,0c0.1-1.1,1.3-2.9,3-2.9c0.3,0,0.6,0,0.9,0.1v3
			c-0.3-0.2-0.8-0.3-1.3-0.3c-2.3,0-2.3,3.1-2.3,4.7V54h-2.9V42.5L244.5,42.5L244.5,42.5z"/>
		<path id="XMLID_34_" class="st0" d="M259.4,45c-0.5-0.3-1.1-0.4-2-0.4c-1.8,0-2.9,1.5-2.9,3.7c0,2.1,1,3.8,3,3.8
			c0.8,0,1.7-0.3,2.2-0.5l0.1,2.5c-0.8,0.3-1.7,0.4-2.9,0.4c-3.6,0-5.4-2.6-5.4-6.1c0-3.4,1.9-6,5.3-6c1.2,0,2,0.1,2.8,0.4L259.4,45
			z"/>
		<path class="st0" d="M268.3,47.2c-0.1-1.5-0.7-2.7-2.3-2.7s-2.4,1.2-2.5,2.7H268.3z M270.2,53.5c-1.1,0.6-2.2,0.9-3.8,0.9
			c-3.6,0-5.8-2.2-5.8-6c0-3.4,1.7-6.1,5.1-6.1c4.1,0,5.3,3,5.3,7h-7.6c0.1,1.9,1.4,2.9,3.1,2.9c1.4,0,2.6-0.5,3.7-1.2V53.5z"/>
		<path id="XMLID_31_" class="st0" d="M279.4,45c-0.9-0.3-1.5-0.5-2.6-0.5c-0.8,0-1.7,0.3-1.7,1.3c0,1.9,5,0.7,5,4.9
			c0,2.7-2.3,3.8-4.6,3.8c-1.1,0-2.2-0.2-3.3-0.5l0.2-2.5c0.9,0.5,1.8,0.8,2.8,0.8c0.7,0,1.9-0.3,1.9-1.4c0-2.3-5-0.7-5-4.9
			c0-2.5,2.1-3.6,4.3-3.6c1.3,0,2.2,0.2,3.1,0.4L279.4,45z"/>
		<path class="st1" d="M116.8,64.2l3.1,8h-6.3L116.8,64.2z M116.1,62.8l-5.9,14.5h1.4l1.6-3.9h7.3l1.6,3.9h1.5l-5.7-14.5H116.1z"/>
		<rect id="XMLID_28_" x="124.7" y="61.8" class="st1" width="1.3" height="15.5"/>
		<path class="st1" d="M128.2,66.7h1.3v10.6h-1.3V66.7z M129.6,63.9h-1.3v-1.7h1.3V63.9z"/>
		<path id="XMLID_25_" class="st1" d="M131.8,69.2c0-0.8,0-1.6-0.1-2.5h1.3v1.9l0,0c0.4-1,1.2-2.1,3.4-2.1c2.6,0,3.6,1.7,3.6,4.1
			v6.8h-1.3V71c0-2-0.7-3.3-2.5-3.3c-2.4,0-3.1,2.1-3.1,3.9v5.9h-1.3L131.8,69.2L131.8,69.2z"/>
		<path id="XMLID_24_" class="st1" d="M145.3,78.9c-0.5,1.4-1.2,2.9-2.7,2.9c-0.5,0-1-0.1-1.4-0.2l0.1-1.1c0.3,0.1,0.5,0.2,1,0.2
			c1.1,0,1.5-0.9,1.9-2.3l0.3-0.9l-3.8-10.7h1.4l3,8.8l0,0l0,0l3-8.8h1.4L145.3,78.9z"/>
		<path id="XMLID_23_" class="st1" d="M155.8,67.9h-2.4v6.8c0,1,0.4,1.7,1.4,1.7c0.5,0,0.8-0.1,1.2-0.2l0.1,1.1
			c-0.3,0.1-1,0.3-1.6,0.3c-2.3,0-2.4-1.6-2.4-3.5v-6.2H150v-1.1h2.1v-2.6l1.3-0.5v3h2.4V67.9z"/>
		<path class="st1" d="M158.6,63.9h-1.3v-1.7h1.3V63.9z M155.1,80.5c0.2,0.1,0.5,0.1,0.8,0.1c1.3,0,1.4-0.9,1.4-2V66.7h1.3v12.1
			c0,1.7-0.5,3-2.4,3c-0.6,0-0.9-0.1-1.1-0.1V80.5z"/>
		<path class="st1" d="M166.8,72h-0.4c-2.3,0-5,0.2-5,2.5c0,1.4,1,1.9,2.2,1.9c3.1,0,3.1-2.7,3.1-3.8L166.8,72L166.8,72z M167,75.6
			L167,75.6c-0.6,1.3-2.1,1.9-3.4,1.9c-3,0-3.5-2-3.5-3c0-3.5,3.8-3.7,6.5-3.7h0.2v-0.5c0-1.8-0.6-2.7-2.4-2.7
			c-1.1,0-2.1,0.2-3.1,0.9v-1.3c0.8-0.4,2.2-0.7,3.1-0.7c2.6,0,3.7,1.2,3.7,3.9v4.7c0,0.9,0,1.5,0.1,2.2h-1.3L167,75.6L167,75.6
			L167,75.6z"/>
		<path id="XMLID_18_" class="st1" d="M170.3,69.1c0-1.2,0-1.6-0.1-2.4h1.3v2l0,0c0.5-1.2,1.4-2.3,2.7-2.3c0.3,0,0.7,0.1,0.9,0.1
			v1.4c-0.3-0.1-0.6-0.1-1-0.1c-2.1,0-2.6,2.3-2.6,4.2v5.2h-1.2V69.1z"/>
		<path class="st1" d="M182.1,72h-0.4c-2.3,0-5,0.2-5,2.5c0,1.4,1,1.9,2.2,1.9c3.1,0,3.1-2.7,3.1-3.8V72H182.1z M182.2,75.6
			L182.2,75.6c-0.6,1.3-2.1,1.9-3.4,1.9c-3,0-3.5-2-3.5-3c0-3.5,3.8-3.7,6.5-3.7h0.2v-0.5c0-1.8-0.6-2.7-2.4-2.7
			c-1.1,0-2.1,0.2-3.1,0.9v-1.3c0.8-0.4,2.2-0.7,3.1-0.7c2.6,0,3.7,1.2,3.7,3.9v4.7c0,0.9,0,1.5,0.1,2.2h-1.3v-1.7L182.2,75.6
			L182.2,75.6z"/>
		<polygon id="XMLID_15_" class="st1" points="204.8,77.3 203.1,77.3 199.4,64.5 199.4,64.5 195.6,77.3 193.9,77.3 189.8,62.8 
			191.2,62.8 194.8,75.7 194.9,75.7 198.6,62.8 200.3,62.8 203.9,75.7 204,75.7 207.6,62.8 209,62.8 		"/>
		<path class="st1" d="M210.2,66.7h1.3v10.6h-1.3V66.7z M211.5,63.9h-1.3v-1.7h1.3V63.9z"/>
		<rect id="XMLID_12_" x="213.8" y="61.8" class="st1" width="1.3" height="15.5"/>
		<path id="XMLID_11_" class="st1" d="M225.6,74.8c0,0.8,0,1.6,0.1,2.5h-1.3v-1.9l0,0c-0.4,1-1.2,2.1-3.4,2.1
			c-2.6,0-3.6-1.7-3.6-4.1v-6.7h1.3v6.4c0,2,0.7,3.3,2.5,3.3c2.4,0,3.1-2.1,3.1-3.9v-5.8h1.3V74.8L225.6,74.8z"/>
		<path id="XMLID_10_" class="st1" d="M227.9,69.1c0-1.2,0-1.6-0.1-2.4h1.3v2l0,0c0.5-1.2,1.4-2.3,2.7-2.3c0.3,0,0.7,0.1,0.9,0.1
			v1.4c-0.3-0.1-0.6-0.1-1-0.1c-2.1,0-2.6,2.3-2.6,4.2v5.2h-1.3v-8.1L227.9,69.1L227.9,69.1z"/>
		<path class="st1" d="M239.7,72h-0.4c-2.3,0-5,0.2-5,2.5c0,1.4,1,1.9,2.2,1.9c3.1,0,3.1-2.7,3.1-3.8L239.7,72L239.7,72z
			 M239.8,75.6L239.8,75.6c-0.6,1.3-2.1,1.9-3.4,1.9c-3,0-3.5-2-3.5-3c0-3.5,3.8-3.7,6.5-3.7h0.3v-0.5c0-1.8-0.6-2.7-2.4-2.7
			c-1.1,0-2.1,0.2-3.1,0.9v-1.3c0.8-0.4,2.2-0.7,3.1-0.7c2.6,0,3.7,1.2,3.7,3.9v4.7c0,0.9,0,1.5,0.1,2.2h-1.3V75.6L239.8,75.6z"/>
		<path id="XMLID_7_" class="st1" d="M243.2,69.1c0-1.2,0-1.6-0.1-2.4h1.3v2l0,0c0.5-1.2,1.4-2.3,2.7-2.3c0.3,0,0.7,0.1,0.9,0.1v1.4
			c-0.3-0.1-0.6-0.1-1-0.1c-2.1,0-2.6,2.3-2.6,4.2v5.2h-1.3L243.2,69.1L243.2,69.1L243.2,69.1z"/>
		<path class="st1" d="M254.9,72h-0.4c-2.3,0-5,0.2-5,2.5c0,1.4,1,1.9,2.2,1.9c3.1,0,3.1-2.7,3.1-3.8L254.9,72L254.9,72z M255,75.6
			L255,75.6c-0.6,1.3-2.1,1.9-3.4,1.9c-3,0-3.5-2-3.5-3c0-3.5,3.8-3.7,6.5-3.7h0.2v-0.5c0-1.8-0.6-2.7-2.4-2.7
			c-1.1,0-2.1,0.2-3.1,0.9v-1.3c0.8-0.4,2.2-0.7,3.1-0.7c2.6,0,3.7,1.2,3.7,3.9v4.7c0,0.9,0,1.5,0.1,2.2h-1.3L255,75.6L255,75.6z"/>
		<rect id="XMLID_4_" x="227.1" y="79.1" class="st1" width="5.1" height="1.2"/>
	</g>
	<g>
		<path id="XMLID_3_" class="st0" d="M39.3,52c3.9-0.9,8.4-1.6,13.6-2.1c12.9-1.2,17.6-1.1,19.9-1.4c-3.3,2.6-8.2,5.3-14.8,6.2
			C49.9,55.9,43.1,53.7,39.3,52"/>
		<path id="XMLID_2_" class="st0" d="M86.5,43.5c0.3,0.1,0.4,0.2,0.4,0.2s4.3,2.3,5.7,2.7c1.4,0.4,1.2,2.3-0.3,3
			c-1,0.5-3.3,1.7-4.5,2.4c-0.5-1.3-1.5-3.5-1.6-5.1C86.2,45.6,86.3,44.5,86.5,43.5"/>
		<path id="XMLID_1_" class="st0" d="M67.7,65.4c1.2-2.8-1.6-7.2-1.6-7.2s-3.6,1.8-9.6,2.5c-6,0.8-9.1-0.3-9.1-0.3
			c1.1,2.7,0.1,4.1-1.3,4.9c-1.2,0.7-2.7,0.8-3.6,1c-1.9,0.2-2.4,0.4-1.2,1.2c1.3,0.9,3.9,0.7,5.6,1.8c1.7,1.1,0.3,1.3,0.3,1.3
			c-1-1-4.4-1.3-4.4-1.3s0.3,0.3,1.6,1.5c1.4,1.2,1.2,1.9-0.2,1.1c-1.4-0.8-3.7-2.9-3.7-2.9s-0.2,0.8-1,1.7
			c-0.8,0.9-0.7-0.1-0.7-0.1c0.8-2.3-1.5-2.1-1-4.6c0-0.2,0.1-0.5,0.3-0.7c1.2-2,5.6-2.8,5.6-2.8c-1.8-1.2-1.7-3.2-1.7-3.2
			s-2.9-1.5-10.8-0.1c-3.3,0.6-6.8,3.3-7.6,6.1c-0.8,2.9,1.1,5.9,8.9,7.1C47.4,74.6,48.4,76,49.6,78c1,2-1.3,4.8-1.3,4.8
			s0.9-1.7,1-2.8c0.6-4.8-11.3-5.2-15.8-5.9C29,73.4,20.7,73.4,20,66.4c0-0.4-0.1-0.8,0-1.1l0,0c0.2-4.9,5.4-9.8,17.3-12.9
			c3.3,1.7,10.5,4.7,19,3.7c10.8-1.2,17.4-5.9,21.7-11c2.8-2.1,5.3-2.3,6.9-2.1c-0.4,1.8-0.5,3.8,0.1,5.8c0.3,0.9,0.9,2.7,1.3,3.5
			c-0.9,0.4-1.3,0.6-3.7-0.1c-3.8-1.2-10,1.2-11.7,5c-0.8,1.8-1.4,5.1-0.3,6.5c0.9,1.2,1.6,0.9,2.6,1.3c0.2,0.1,0.5,0.2,0.8,0.4
			c1.3,0.9,0.5,2.2,0.1,1.9c-0.4-0.3-0.2-1-0.8-1.4c-0.5-0.4-2.2-0.7-1.5-0.1c0.6,0.6,1.2,1.7,1,2.3c-0.3,0.6-1.2,0.9-1-0.4
			s-1.3-2.1-1.5-1.8C70,66.2,70,68,70,68.7c0,0.7-0.4,0.7-0.7,0.4c-0.4-0.2-0.5-0.8-0.1-2.2c0.4-1.4-0.2-1.4-0.2-1.4
			s-2.2,3.6-2.7,3.1C65.8,68.2,66.4,68.2,67.7,65.4"/>
	</g>
</g>
</svg>
