<?xml version="1.0" encoding="utf-8"?>
<!-- Generator: Adobe Illustrator 15.1.0, SVG Export Plug-In . SVG Version: 6.00 Build 0)  -->
<!DOCTYPE svg PUBLIC "-//W3C//DTD SVG 1.1//EN" "http://www.w3.org/Graphics/SVG/1.1/DTD/svg11.dtd">
<svg version="1.1" id="Layer_1" xmlns="http://www.w3.org/2000/svg" xmlns:xlink="http://www.w3.org/1999/xlink" x="0px" y="0px"
	 width="434.278px" height="276px" viewBox="0 0 434.278 276" enable-background="new 0 0 434.278 276" xml:space="preserve">
<g>
	<path fill="#FFFFFF" d="M104.88-13.498c164.784-47.286,217.883-35.314,217.883-35.314c-8.766,28.023-11.932,57.839-11.39,89.754
		c0.574,31.206,5.94,60.851,15.228,89.434c8.25,28.778,20.72,57.743,37.626,83.929c17.073,26.737,36.672,49.731,59.633,67.821
		l0.649,3.868c-6.421,31.935-7.167,72.937-26.353,82.731c-20.83,10.422-116.519,22.479-90.783-14.62
		c3.531-4.928,6.796-9.39,9.777-13.341c-28.05,11.615-63.038,24.448-106.161,38.263c-34.224-31.599-63.858-69.322-85.172-114.452
		C84.287,175.885,79.921,77.325,104.88-13.498"/>
</g>
<rect x="-8.503" y="-8.504" fill="#f8ebe6" width="294.503" height="293.009"/>
<path fill="#f8ebe6" d="M91.703-19.077c165.584-44.402,218.466-31.506,218.466-31.506c-9.253,27.866-12.938,57.623-12.953,89.542
	c0.028,31.211,4.876,60.945,13.663,89.687c7.746,28.916,19.709,58.095,36.156,84.572c16.604,27.031,35.798,50.363,58.439,68.852
	l0.581,3.879c-6.977,31.817-8.438,72.801-27.792,82.26c-21.008,10.055-116.893,20.441-90.513-16.203
	c3.616-4.866,6.958-9.271,10.008-13.168c-28.249,11.124-63.456,23.344-106.813,36.403c-33.667-32.19-62.638-70.427-83.161-115.921
	C67.807,169.918,65.162,71.296,91.703-19.077"/>
</svg>
