<?xml version="1.0" encoding="utf-8"?>
<!-- Generator: Adobe Illustrator 16.0.0, SVG Export Plug-In . SVG Version: 6.00 Build 0)  -->
<!DOCTYPE svg PUBLIC "-//W3C//DTD SVG 1.1//EN" "http://www.w3.org/Graphics/SVG/1.1/DTD/svg11.dtd">
<svg version="1.1" id="Layer_1" xmlns="http://www.w3.org/2000/svg" xmlns:xlink="http://www.w3.org/1999/xlink" x="0px" y="0px"
	 width="412.582px" height="207px" viewBox="0 0 412.582 207" enable-background="new 0 0 412.582 207" xml:space="preserve">
<g>
	<defs>
		<rect id="SVGID_1_" x="0.538" y="-1.5" width="411.507" height="210"/>
	</defs>
	<clipPath id="SVGID_2_">
		<use xlink:href="#SVGID_1_"  overflow="visible"/>
	</clipPath>
	<g clip-path="url(#SVGID_2_)">
		<defs>
			<rect id="SVGID_3_" x="0.538" y="-1.5" width="411.507" height="210"/>
		</defs>
		<clipPath id="SVGID_4_">
			<use xlink:href="#SVGID_3_"  overflow="visible"/>
		</clipPath>
		<g opacity="0.31" clip-path="url(#SVGID_4_)">
			<g>
				<defs>
					<rect id="SVGID_5_" x="-8.462" y="-9.5" width="429.507" height="219"/>
				</defs>
				<clipPath id="SVGID_6_">
					<use xlink:href="#SVGID_5_"  overflow="visible"/>
				</clipPath>
				<defs>
					<filter id="Adobe_OpacityMaskFilter" filterUnits="userSpaceOnUse" x="-492.55" y="-23.162" width="913.595" height="555.193">
						<feFlood  style="flood-color:white;flood-opacity:1" result="back"/>
						<feBlend  in="SourceGraphic" in2="back" mode="normal"/>
					</filter>
				</defs>
				<mask maskUnits="userSpaceOnUse" x="-492.55" y="-23.162" width="913.595" height="555.193" id="SVGID_7_">
					<g filter="url(#Adobe_OpacityMaskFilter)">
						
							<linearGradient id="SVGID_8_" gradientUnits="userSpaceOnUse" x1="-3970.5059" y1="394.7695" x2="-3969.5059" y2="394.7695" gradientTransform="matrix(240.0624 362.6947 362.6947 -240.0624 810059.8125 1534748)">
							<stop  offset="0" style="stop-color:#FFFFFF"/>
							<stop  offset="1" style="stop-color:#000000"/>
						</linearGradient>
						<polygon clip-path="url(#SVGID_6_)" fill="url(#SVGID_8_)" points="290.201,-207.181 521.84,142.785 122.381,407.182 
							-109.258,57.215 						"/>
					</g>
				</mask>
				<g clip-path="url(#SVGID_6_)" mask="url(#SVGID_7_)">
					<g>
						<defs>
							<rect id="SVGID_9_" x="-8.462" y="-9.5" width="429.507" height="219"/>
						</defs>
						<clipPath id="SVGID_10_">
							<use xlink:href="#SVGID_9_"  overflow="visible"/>
						</clipPath>
						<g clip-path="url(#SVGID_10_)">
							<defs>
								<polygon id="SVGID_11_" points="137.535,-1.5 0.538,23.891 0.538,208.5 410.307,208.5 371.385,-1.5 								"/>
							</defs>
							<clipPath id="SVGID_12_">
								<use xlink:href="#SVGID_11_"  overflow="visible"/>
							</clipPath>
							<path clip-path="url(#SVGID_12_)" fill="#C33227" d="M-283.775,185.588c45.85-19.535,99.902-38.461,162.938-56.365
								C34.667,85.161,92.635,75.759,120.184,67.524c-34.619,38.054-88.697,81.617-168.444,107.82
								C-145.104,207.053-233.219,196.91-283.775,185.588"/>
							<path clip-path="url(#SVGID_12_)" fill="#C33227" d="M277.614-23.162c3.678,0.47,5.717,1.072,5.717,1.072
								s57.867,18.148,75.943,19.424c18.066,1.337,19.467,24.668,2.717,35.894c-11.898,8.005-36.707,28.057-50.482,38.631
								c-9.531-14.589-26.34-37.753-30.264-56.896C278.471,1.83,277.34-10.903,277.614-23.162"/>
							<path clip-path="url(#SVGID_12_)" fill="#C33227" d="M94.401,279.941c9.037-35.676-35.543-81.41-35.543-81.41
								S18.725,228.082-53.098,250.57c-71.824,22.566-112.059,17.314-112.059,17.314c19.045,29.76,10.215,48.727-5.243,61.135
								c-13.366,10.502-31.681,16.18-42.028,19.617c-22.548,7.174-29.276,9.822-11.958,17.262
								c17.411,7.545,49.303-0.361,73.049,8.904c23.668,9.283,6.546,14.359,6.546,14.359c-14.588-9.701-56.597-5.219-56.597-5.219
								s3.687,2.775,23.512,14.037c19.82,11.357,18.839,20.217,0.067,13.885c-18.713-6.301-52.249-26.197-52.249-26.197
								s-0.791,9.861-8.312,21.969c-7.618,12.105-9.003,0.539-9.003,0.539c5.214-29.668-22.711-20.982-22.539-52.303
								c0-2.898,0.589-5.738,1.648-8.582c9.945-26.666,62.537-45.916,62.537-45.916c-24.82-10.256-27.957-34.4-27.957-34.4
								s-39.22-11.641-132.74,23.162c-39.162,14.707-76.431,54.553-80.375,90.109c-3.815,36.111,26.889,67.695,125.17,63.535
								c188.279-8.039,202.895,6.299,222.471,27.838c17.062,20.855-4.852,60.412-4.852,60.412s6.972-21.645,6.296-35.686
								c-2.958-57.791-150.543-35.736-207.55-33.482c-57.188,2.324-158.322,21.068-183.471-60.889
								c-1.385-4.406-2.401-8.867-2.994-13.4l-0.019,0.004c-8.147-58.654,45.173-128.143,183.772-192.209
								c44.451,12.744,139.595,31.625,241.708,1.066C63.821,158.447,134.102,88.193,176.614,17.368
								c29.319-30.969,59.847-38.986,80.101-40.13c-1.293,22.701,2.584,46.134,13.795,69.108
								c5.076,10.209,17.072,30.048,23.107,38.718c-10.045,6.753-14.936,10.695-45.002,7.533
								c-49.394-5.432-120.65,37.584-132.798,86.6c-5.905,23.557-6.315,63.697,10.516,78.508
								c13.732,12.158,21.871,7.52,35.148,9.938c3.13,0.688,6.508,1.441,10.199,3.139c18.223,7.684,10.5,25.049,4.918,21.838
								c-5.543-3.254-5.068-11.48-12.618-14.916c-7.517-3.506-28.157-3.924-18.8,1.869c9.26,5.811,18.885,17.08,16.738,25.037
								c-2.338,7.867-12.773,13.16-13.643-2.344c-0.904-15.4-20.194-22.559-22.822-18.309c-2.581,4.299,0.572,26.195,2.162,34.172
								c1.531,8.014-3.031,8.59-8.16,6.758c-5.107-1.82-7.637-8.221-6.093-25.691c1.46-17.527-5.054-16.227-5.054-16.227
								S91.581,325.387,84.2,321.111C76.777,316.861,84.736,315.654,94.401,279.941"/>
						</g>
					</g>
				</g>
			</g>
		</g>
	</g>
</g>
</svg>
