<svg id="Layer_1" xmlns="http://www.w3.org/2000/svg" width="300" height="240" viewBox="0 0 300 240"><style>.st0{fill:#C0CFCE;} .st1{fill:none;}</style><path id="XMLID_3_" class="st0" d="M264.33 58.97c-16.457-4.4-33.6-6.353-50.942-5.58-7.506.31-15.063 1.165-22.613 2.55-11.056 2.025-22.137 5.206-32.957 9.578-10.84 4.38-21.008 9.783-30.38 16.01-6.38 4.245-12.42 8.885-18.038 13.874-12.993 11.486-23.974 24.8-32.75 39.395l-.52.488-12.95-3.788-.162-1.173c6.703-11.586 14.62-22.423 23.77-32.37 5.305-5.76 10.98-11.186 17.068-16.273 14.242-11.9 30.566-21.82 48.712-29.15C170.696 45.2 189.33 41 207.844 39.67c7.914-.57 15.765-.61 23.58-.15 13.464.81 26.73 3.09 39.556 6.784l.73.943-6.684 11.72-.696.004z"/><path id="XMLID_2_" class="st0" d="M246.52 135.392c.302-26.648 6.507-52.734 17.81-76.423 2.04-4.32 4.27-8.56 6.65-12.67 4.602 1.29 9.152 2.79 13.645 4.47 46.173 17.28 85.226 53.11 105.16 102.45 19.92 49.3 16.73 102.23-4.478 146.74-1.107 2.28-2.26 4.56-3.452 6.802l-7.087-17.54c17.652-40.094 19.72-86.96 2.023-130.76-18.57-45.96-55.11-79.236-98.29-94.995l24.81 61.324-35.38-15.02c-.21 2.604.216 5.253 1.256 7.83l.317.78c1.355 3.357 3.613 6.09 6.383 7.995.843.662 1.8 1.215 2.84 1.66l27.693 11.77 17.32 42.862-51.333-21.82c-.212 2.608.175 5.292 1.21 7.863l.32.786c1.358 3.36 3.66 6.068 6.43 7.983.836.643 1.806 1.213 2.8 1.65L326.9 197.7l17.35 42.948-49.336-20.932c-.19 2.597.22 5.265 1.26 7.842l.316.782c1.358 3.36 3.63 6.08 6.404 7.99.837.644 1.763 1.21 2.805 1.657l41.68 17.67 49.24 121.874-16.676 6.74-18.783-46.482c-2.04 2.46-4.144 4.878-6.3 7.26-5.315 5.734-10.99 11.16-17.08 16.24-12.95 10.856-27.63 20.034-43.85 27.142l-23.116-57.21c11.265-25.555 16.14-53.894 13.66-82.408-1.45-16.183-5.254-32.46-11.666-48.327-6.41-15.87-14.98-30.22-25.18-42.87-19.42-23.963-44.827-41.804-73.08-52.124l.096.24 24.636 60.974-35.25-14.944c-.163 2.587.216 5.253 1.257 7.83l.317.783c1.356 3.352 3.613 6.085 6.414 7.98.816.673 1.77 1.226 2.81 1.67l27.6 11.7 17.32 42.864-51.24-21.75c-.21 2.607.22 5.274 1.258 7.845l.32.78c1.356 3.36 3.62 6.084 6.384 8 .837.644 1.777 1.225 2.833 1.638l43.56 18.516 17.36 42.967-49.2-20.89c-.19 2.596.22 5.264 1.26 7.84l.317.78c1.358 3.36 3.632 6.08 6.404 7.99.834.645 1.79 1.198 2.833 1.646l41.52 17.64 63.8 157.91-16.713 6.75-25.8-63.847c-10.217 2.536-20.563 4.15-30.856 4.895-7.91.574-15.76.614-23.57.18-11.23-.703-22.326-2.385-33.14-5.08l-10.21-25.28c11.23-25.53 16.13-53.81 13.62-82.294-1.443-16.19-5.25-32.463-11.66-48.333-6.413-15.87-14.98-30.22-25.188-42.867-19.42-23.977-44.862-41.825-73.097-52.153l24.69 61.11-35.08-14.86c-.164 2.588.216 5.254 1.257 7.83l.316.783c1.355 3.354 3.63 6.08 6.426 7.976.844.67 1.777 1.23 2.81 1.67l27.523 11.69 17.32 42.866-51.175-21.73c-.183 2.595.216 5.275 1.254 7.845l.317.785c1.358 3.36 3.63 6.08 6.387 8 .85.636 1.82 1.207 2.83 1.638l43.52 18.5 17.35 42.947-49.13-20.86c-.18 2.59.22 5.264 1.26 7.84l.314.784c1.36 3.36 3.633 6.08 6.4 7.99.836.645 1.793 1.198 2.823 1.65l41.49 17.608 49.29 122-16.755 6.77-34.174-84.58c-37.694-19.255-68.865-51.67-85.952-93.96C31.93 240.415 35.142 187.505 56.35 143c2.057-4.32 4.288-8.56 6.668-12.676 4.62 1.286 9.152 2.795 13.632 4.473 24.568 9.196 47.122 23.663 65.882 42.61l.008-.28.008-.668c.425-25.28 6.122-50.01 16.468-72.69.45-.93.89-1.886 1.34-2.8 2.026-4.308 4.256-8.548 6.668-12.676 4.583 1.3 9.134 2.802 13.626 4.475 24.56 9.2 47.14 23.656 65.87 42.614"/><path id="XMLID_1_" class="st1" d="M0 0h300v240H0z"/></svg>