<svg id="Layer_1" xmlns="http://www.w3.org/2000/svg" width="595.3" height="120" viewBox="0 0 595.3 120"><style>.st0{fill:none;stroke:#FFFFFF;stroke-width:2.026;}</style><path id="XMLID_3_" class="st0" d="M81-50.3s1.4 30.1 4.7 63.7c-.1 0 32.6-32.9-4.7-63.7zm512.6 10.4s6.9 60.7 16.8 72.5c0 0 18.7-51.2 14.8-72.7-4-21.5-31.6.2-31.6.2zm-15.8-12.7s2 30.1 5.8 63.6c0 0 32-33.5-5.8-63.6zm-2.3 12.9s12 39.7-6 69.1c0 0-18-25.7-12-69.6 5.9-43.9 18 .5 18 .5zm-94.4-3.9c-3.9-2.9-28.2 41.1 0 91.1 0 0 44.4-33.1 46.4-92.9 1.9-59.9-46.4 1.8-46.4 1.8zM89.6-31.5c-5 0-2.7 74.4-25.6 87.5 0 0-32.7-67-19.6-85.6 13-18.5 45.2-1.9 45.2-1.9zm70.8-8.3s-41.8 91.1 0 141.6c0 0 48.8-64.5 52.4-131.9 3.6-67.5-52.4-9.7-52.4-9.7zm54.1 17.2s-12.6 63.6 1.9 93.7c0 0 39.3-70.1 40.6-101.9 1.2-31.9-42.5 8.2-42.5 8.2zm100.1-5.1s43.2 83.7-16.8 127c0 0-60.1-90.4-42-122.1 18-31.8 58.8-4.9 58.8-4.9zM155-77.1S98.2 4.2 125.7 72.1c0 0 20.2-113 60.7-126 40.4-13-31.4-23.2-31.4-23.2z"/></svg>