<svg id="Layer_1" xmlns="http://www.w3.org/2000/svg" width="71" height="71" viewBox="0 0 71 71"><style>.st0{fill:#00685F;}</style><g id="XMLID_23_"><path id="XMLID_35_" class="st0" d="M26.002 30.175l13.065-9.735c.25-.185.58-.286.933-.286s.687.1.933.284L54 30.175c.247.184.385.43.385.694 0 .26-.136.51-.384.69l-4.12 3.073v-4.39c0-.626-.683-1.136-1.52-1.136H31.657c-.84 0-1.525.51-1.525 1.134v4.39L26 31.565c-.246-.183-.383-.43-.383-.694 0-.266.137-.51.385-.695z"/><path id="XMLID_32_" class="st0" d="M33.774 34.267c-.592 0-1.073-.357-1.073-.798 0-.445.485-.8 1.077-.8h12.288c.598 0 1.08.355 1.08.8 0 .44-.482.794-1.08.794h-12.29z"/><path id="XMLID_14_" class="st0" d="M45.274 37.392c0 .44-.356.798-.792.798H35.36c-.44 0-.796-.357-.796-.798 0-.44.356-.8.796-.8h9.122c.435 0 .792.36.792.8z"/><path id="XMLID_1_" class="st0" d="M24 33.164c0-.066.006-.116.016-.155.043.02.097.052.158.1l10.364 7.722L24 48.352v-15.19z"/><path id="XMLID_44_" class="st0" d="M26.142 49.847l10.51-7.5c.643.37 1.388.713 1.945.876.826.244 2.183.244 2.98-.002.636-.19 1.537-.64 2.232-1.084l9.78 7.71-27.45.004z"/><path id="XMLID_45_" class="st0" d="M56 48.572L45.885 40.6l9.948-7.455c.06-.047.115-.08.154-.103.007.04.013.092.013.154v15.376z"/></g></svg>