<svg id="Layer_1" xmlns="http://www.w3.org/2000/svg" width="71" height="71" viewBox="0 0 71 71"><style>.st0{fill:#CDD9D8;} .st1{fill:#00685F;}</style><path id="XMLID_5_" class="st0" d="M24.667 43.71c-1.554 0-3.084.07-4.53.218-7.034.723-9.4 3.02-5.28 5.132 8.303 4.257 32.14 8.638 32.14 8.638s2.59-6.51-6.666-11.257c-3.27-1.672-9.65-2.73-15.66-2.73"/><path class="st1" d="M49.655 27.216c-1.394 1.393-3.66 1.393-5.053 0-1.394-1.393-1.394-3.66 0-5.054 1.393-1.394 3.66-1.394 5.053 0 1.393 1.394 1.393 3.66 0 5.054m3.303 2.203l-1.608-1.61c1.518-2.057 1.35-4.976-.51-6.836-2.046-2.047-5.378-2.047-7.423 0-2.047 2.046-2.047 5.376 0 7.423 1.86 1.86 4.778 2.03 6.832.51l1.61 1.606 1.094-1.098zm4.3-5.33c0 2.67-1.032 5.095-2.708 6.92l-.82-.82-1.102 1.094.79.79c-1.753 1.405-3.975 2.25-6.397 2.25-5.65 0-10.23-4.582-10.23-10.236 0-5.653 4.583-10.236 10.235-10.236 5.655 0 10.24 4.583 10.24 10.236m2.983-.803c0-7.302-5.918-13.222-13.222-13.222-7.3 0-13.218 5.92-13.218 13.222 0 14.727 13.22 34.41 13.22 34.41s13.22-17.994 13.22-34.41"/></svg>