<svg id="Layer_1" xmlns="http://www.w3.org/2000/svg" width="71" height="71" viewBox="0 0 71 71"><style>.st0{fill:#00685F;}</style><path class="st0" d="M56.61 31.345c-.1 0-.2-.012-.3-.036-.3-.08-.55-.26-.732-.49-.235-.31-.345-.71-.27-1.12.004-.02.004-.04.007-.05.14-.63.67-1.08 1.29-1.08.1 0 .2.01.3.033.344.083.638.3.826.614.19.314.25.684.17 1.044-.14.63-.67 1.074-1.29 1.074M35.54 44.7c-4.922 0-8.93-4.18-8.93-9.316s4.008-9.32 8.93-9.32c4.925 0 8.93 4.18 8.93 9.32s-4.005 9.32-8.93 9.32m4.42 9.23c.314.17.55.454.66.806.11.35.08.726-.08 1.056-.23.465-.68.755-1.184.755-.21 0-.41-.05-.598-.15-.316-.16-.55-.45-.66-.8-.11-.35-.083-.723.077-1.053.108-.22.267-.4.457-.53.214-.144.464-.227.73-.227.127 0 .25.024.37.06.077.023.154.05.23.087M25.63 50.7c.23.724-.143 1.51-.836 1.754-.137.05-.28.073-.423.073-.57 0-1.07-.38-1.25-.94-.23-.725.14-1.51.83-1.755.14-.05.28-.074.427-.074.09 0 .175.013.26.03.38.08.706.327.896.68.04.074.074.15.1.233M15.6 39.56c-.247.368-.654.588-1.086.588-.273 0-.536-.087-.76-.25-.598-.44-.743-1.304-.324-1.928.25-.37.656-.59 1.088-.59.273 0 .536.088.76.252.14.1.25.227.34.37.213.334.273.753.166 1.142-.04.147-.096.288-.183.418M20.86 25c-.057.03-.113.058-.174.078-.132.045-.27.067-.405.067-.58 0-1.083-.387-1.26-.962-.22-.724.164-1.505.86-1.74.13-.042.27-.065.404-.065.578 0 1.086.388 1.263.964.077.25.08.514.02.764-.025.1-.06.196-.104.29-.132.27-.343.475-.6.605m8.74-11.26c-.34-.1-.623-.333-.793-.66-.17-.32-.21-.695-.11-1.05.16-.59.684-1 1.27-1 .124 0 .25.02.37.056.7.21 1.106.98.903 1.714-.074.26-.223.486-.416.656-.29.256-.68.38-1.066.318-.05-.01-.105-.013-.16-.03m13.03 4.14c-.38-.65-.18-1.504.44-1.9.21-.134.45-.204.69-.204.47 0 .89.25 1.138.664.184.32.24.69.156 1.05-.082.36-.295.665-.597.857-.2.13-.424.198-.655.2l-.032.007c-.386 0-.735-.175-.984-.466-.052-.063-.107-.124-.15-.2m16.04 10.734c-.345-.575-.885-.975-1.52-1.128-.178-.044-.362-.066-.544-.066-1.14 0-2.12.81-2.37 1.97-.05.206-.068.41-.06.612l-8.06 2.162c-.814-2.917-2.71-5.36-5.2-6.82l2.403-5.697c.143.027.288.046.437.046.446 0 .884-.13 1.265-.37.555-.356.945-.91 1.1-1.57.152-.66.05-1.346-.29-1.925-.445-.764-1.222-1.22-2.08-1.22-.445 0-.883.13-1.265.37-1.148.73-1.51 2.298-.813 3.49.164.288.38.53.623.72l-2.38 5.64c-1.34-.61-2.822-.95-4.38-.95-.64 0-1.26.06-1.87.167l-2.534-9.43c.55-.316.98-.85 1.162-1.51.372-1.344-.373-2.756-1.66-3.146-.223-.068-.45-.1-.68-.1-1.076 0-2.038.752-2.337 1.83-.18.65-.105 1.338.21 1.933.31.593.83 1.025 1.452 1.213.22.068.45.102.68.102.036 0 .07-.01.107-.01l2.52 9.37c-2.383.692-4.444 2.2-5.886 4.214l-4.246-3.647c.28-.593.328-1.263.134-1.893-.322-1.057-1.254-1.767-2.316-1.767-.25 0-.5.04-.743.122-1.277.43-1.983 1.86-1.574 3.195.323 1.058 1.255 1.768 2.32 1.768.25 0 .5-.04.74-.12.27-.09.515-.235.734-.41l4.333 3.72c-.992 1.727-1.564 3.746-1.564 5.902 0 .485.03.964.087 1.435l-7.823 1.02c-.167-.452-.46-.86-.87-1.16-.41-.3-.895-.46-1.397-.46-.79 0-1.537.403-1.994 1.08-.77 1.146-.505 2.733.593 3.54.412.3.895.46 1.397.46.794 0 1.54-.404 1.995-1.08.254-.377.393-.8.43-1.23l7.863-1.027c.554 2.515 1.9 4.72 3.747 6.307L25.33 48.82c-.294-.13-.615-.21-.95-.21-.264 0-.525.046-.78.135-1.27.448-1.954 1.89-1.526 3.22.336 1.033 1.26 1.73 2.308 1.73.264 0 .526-.046.777-.135 1.27-.447 1.956-1.89 1.53-3.22-.105-.314-.267-.593-.465-.835l3.22-4.54c1.75 1.22 3.85 1.93 6.105 1.93.72 0 1.427-.074 2.11-.213l.82 6.132c-.546.223-1.007.644-1.283 1.213-.293.603-.344 1.29-.142 1.936.203.648.634 1.17 1.213 1.48.34.18.72.274 1.1.274.925 0 1.757-.532 2.174-1.39.295-.605.346-1.294.144-1.94-.202-.644-.632-1.17-1.212-1.475-.278-.146-.583-.233-.89-.26l-.837-6.25c4.53-1.43 7.83-5.824 7.83-11.01 0-.714-.063-1.413-.183-2.092l8.07-2.168c.317.64.89 1.137 1.615 1.31.18.044.363.065.546.065 1.14 0 2.112-.81 2.37-1.97.143-.662.034-1.343-.31-1.918"/><path class="st0" d="M52.002 45.406c-.124.347-.37.622-.692.775-.175.09-.36.13-.55.13-.517 0-.99-.312-1.206-.81-.093-.21-.124-.44-.11-.66.024-.4.208-.77.522-1.02.075-.06.156-.11.244-.15.175-.08.36-.123.55-.123.518 0 .99.318 1.206.81.147.337.16.713.036 1.058m-1.242-3.03c-.35 0-.69.08-1.01.23-.314.15-.58.36-.798.615l-3.732-2.18-.54 1.01 3.74 2.182c-.15.552-.128 1.17.12 1.732.394.904 1.264 1.487 2.215 1.487.35 0 .69-.074 1.01-.23.59-.28 1.04-.783 1.27-1.42.227-.634.204-1.324-.066-1.94-.397-.906-1.267-1.49-2.22-1.49"/></svg>