<svg id="Layer_1" xmlns="http://www.w3.org/2000/svg" width="71" height="71" viewBox="0 0 71 71"><style>.st0{fill:#00685F;}</style><path class="st0" d="M35.42 46.113l-1.91.102c-1.173.062-2.177-.758-2.34-1.855l6.316.02c-.196.94-1.025 1.677-2.067 1.733m8.14-24.625c-.21-.615-.87-.96-1.474-.77-.6.19-.914.842-.703 1.457l2.977 8.592-25.04 11.626-.838-2.426c-.18-.524-.774-.808-1.323-.635-.55.173-.85.74-.67 1.26l1.71 4.95c.18.525.774.808 1.32.635.55-.173.85-.738.67-1.26l-.208-.59 9.273.028c.167 2.15 2.1 3.792 4.35 3.672l1.91-.102c2.05-.11 3.662-1.64 3.873-3.54l9.697.03.69 1.985c.214.615.873.96 1.476.772.6-.19.915-.842.7-1.457l-8.39-24.227z"/><path class="st0" d="M42.258 28.006l-1.262-3.638-21.66 15.94.396 1.15zm19.567-.62c-1.664-3.717-5.992-5.57-9.953-4.395 3.384-.1 6.64 1.75 8.052 4.9 1.688 3.768.138 8.075-3.454 10.108.35-.09.698-.205 1.043-.345 4.16-1.696 6.09-6.29 4.312-10.257"/><path class="st0" d="M58.41 28.596c-1.253-2.794-4.506-4.186-7.482-3.303 2.542-.08 4.992 1.312 6.052 3.677 1.268 2.83.106 6.068-2.596 7.596.264-.07.525-.156.785-.26 3.12-1.276 4.57-4.728 3.24-7.71"/></svg>