<svg id="Layer_1" xmlns="http://www.w3.org/2000/svg" width="320" height="120" viewBox="0 0 320 120"><style>.st0{fill:#FFFFFF;}</style><path class="st0" d="M65.1 36c-1.7-1.3-3.6-2.3-5.6-3-.9-.3-1.8-.6-2.7-.8-1.4-.3-2.8-.4-4.3-.4s-2.9.2-4.3.4c-.9.2-1.9.4-2.7.8-2 .7-3.9 1.8-5.6 3h-.1l-1.3-1v-.1c1.3-1 2.7-1.9 4.3-2.6.9-.4 1.8-.8 2.7-1.1 2.2-.7 4.6-1.1 7-1.1 2.4 0 4.8.4 7 1.1.9.3 1.9.7 2.7 1.1 1.5.7 3 1.6 4.3 2.6v.1l-1.4 1z"/><path class="st0" d="M59.5 44c1.3-3.1 3.2-5.8 5.6-8 .4-.4.9-.8 1.4-1.2.5.4.9.8 1.4 1.2 4.5 4.2 7.4 10.2 7.4 16.8 0 6.7-2.8 12.6-7.4 16.8-.2.2-.5.4-.7.6v-2.4c3.9-3.8 6.4-9.2 6.4-15.1 0-6.2-2.7-11.8-6.9-15.6v8.3L63.1 42c-.1.3-.2.6-.2 1v.1c0 .5.1.9.4 1.2l.3.3 2.7 2.7v5.8l-4.9-4.9c-.1.3-.2.6-.2 1v.1c0 .5.1.9.4 1.2.1.1.2.2.2.3L66 55v5.8l-4.7-4.7c-.1.3-.2.6-.2 1v.1c0 .5.1.9.4 1.2.1.1.1.2.2.3l4 4v16.4h-2.2v-6.3c-.4.2-.7.4-1.1.5-.9.4-1.8.8-2.7 1.1-2 .7-4.1 1-6.4 1.1v-7.7c2.5-2.4 4.4-5.5 5.4-8.9.6-1.9.9-4 .9-6.1 0-2.1-.3-4.2-.9-6.2-1.1-3.7-3.2-6.9-6-9.5v8.2L49.1 42c-.1.3-.2.6-.2 1v.1c0 .5.1.9.4 1.2.1.1.1.2.2.3l2.7 2.6V53l-4.9-4.9c-.1.3-.2.6-.2 1v.1c0 .5.1.9.4 1.2.1.1.1.2.3.3l4.2 4.2v5.8L47.3 56c-.1.3-.2.6-.2 1v.1c0 .5.1.9.4 1.2l.3.3 4 4V84h-2.3v-8.6c-1.3-.2-2.6-.5-3.8-.9-.9-.3-1.9-.7-2.7-1.1-1.3-.6-2.5-1.3-3.6-2.1v-3.4c2.5-2.4 4.4-5.5 5.4-8.9.6-1.9.9-4 .9-6.1 0-2.1-.3-4.2-.9-6.2-1.1-3.7-3.2-7-6-9.5v8.2L35.1 42c-.1.3-.2.6-.2 1v.1c0 .5.1.9.4 1.2.1.1.1.2.2.3l2.6 2.6V53l-4.9-4.9c-.1.3-.2.6-.2 1v.1c0 .5.1.9.4 1.2l.3.3 4.2 4.2v5.8L33.2 56c-.1.3-.2.6-.2 1v.1c0 .5.1.9.4 1.2.1.1.2.2.2.3l4 4v16.5h-2.3V67.7c-3.5-4-5.6-9.2-5.6-14.9 0-6.7 2.9-12.6 7.4-16.8.4-.4.9-.8 1.4-1.2.5.4.9.8 1.4 1.2 2.4 2.2 4.4 5 5.6 8v-.1c1.2-2.9 3.1-5.5 5.3-7.7l.3-.3c.4-.4.9-.8 1.4-1.2.5.4.9.8 1.4 1.2 2.3 2.3 4.3 5 5.6 8.1m30.2-2c.7.1 1.4.1 1.6.1 1.2 0 2-.3 2.5-.8.4-.4.7-1.1.7-1.7 0-.6-.3-1.5-1.1-2.1-.6-.4-1.3-.5-1.9-.5-1 0-1.2.1-1.3 1.1l-.4 3.2c-.1.5-.1.6-.1.7m-.3 1.8c-.1.8-.2 1.8-.2 2-.1.7-.2 1.8-.2 2.1 0 .6.4.9 1.6.9.5 0 1.8 0 2.8-.8.7-.6 1.1-1.4 1.1-2.3 0-2.5-2.4-2.9-4.7-2.9-.2 0-.2 0-.2.1-.1 0-.1.4-.2.9m1.7 5.8c-.2 0-.9 0-1.5-.1h-1.4c-.2 0-.7 0-1.1.1h-.8c-.1 0-.4 0-.4-.4 0-.3.2-.4.4-.4 1.1 0 1.2-1.2 1.3-2.2l.1-1c.2-2.3.5-4.6.7-6.5 0-.4.1-.7.1-1 0-.3 0-.4-.3-.7-.2-.2-.4-.3-.9-.3-.3 0-.5 0-.5-.4 0-.3.2-.4.5-.4.1 0 .5 0 .9.1h.9c.2 0 .8 0 1.4-.1h1.4c1 0 2.2.1 3.1.8.7.6 1.1 1.4 1.1 2.3 0 1.6-1.1 2.4-1.5 2.7-.3.2-.5.3-1.1.4 1.8.3 2.8 1.3 2.8 2.8-.1 2.8-2.7 4.3-5.2 4.3"/><path class="st0" d="M89.7 42.9c2.3 0 4.7.3 4.7 2.7 0 .3 0 1.3-1 2.2-.9.7-2.2.7-2.7.7-1.4 0-1.5-.4-1.5-.7 0-.2.1-1.3.2-2.1 0-.2.1-1.3.2-2 0-.5.1-.7.1-.8m.1-1v-.7l.4-3c.1-.9.2-1 1.1-1 .8 0 1.3.1 1.9.4 1 .7 1.1 1.8 1.1 2 0 .6-.3 1.2-.6 1.6-.5.5-1.3.7-2.4.7-.2.1-.9.1-1.5 0m-2.5-5.7c-.6 0-.7.3-.7.5 0 .5.4.5.7.5.5 0 .6.1.8.3.2.3.2.4.2.6 0 .3 0 .6-.1.9v.1c-.3 1.9-.5 4.3-.7 6.5l-.1 1c-.1 1.2-.3 2.1-1.2 2.1-.1 0-.5 0-.5.5 0 .2.1.5.6.5h.8c.4 0 .9-.1 1.1-.1h1.5c.4 0 1.2.1 1.5.1 3 0 5.2-1.9 5.2-4.3 0-1-.4-2.3-2.4-2.9.3-.1.4-.2.7-.3.5-.3 1.6-1.1 1.6-2.8 0-.9-.4-1.8-1.1-2.4-.9-.7-2.1-.8-3.2-.8h-1.4c-.6 0-1.2.1-1.4.1h-.9c-.4-.1-.8-.1-1-.1m3.3 12.6c.7 0 1.9-.1 2.8-.8 1.1-.9 1.1-2.1 1.1-2.4 0-2.7-2.6-3-4.9-3-.2 0-.3.1-.3.2 0 0-.3 2.6-.3 2.9-.1.7-.2 1.8-.2 2.1.1.8.7 1 1.8 1m.7-6.6c1 0 2-.2 2.6-.8.4-.4.7-1.2.7-1.8 0-.6-.2-1.6-1.2-2.2-.6-.4-1.3-.5-2-.5-1.1 0-1.3.2-1.4 1.2l-.4 3c-.1.6-.1.7-.1 1 .8.1 1.5.1 1.8.1m-4-5.8c.1 0 .5 0 .9.1.4 0 .8.1.9.1.2 0 .8 0 1.4-.1h1.4c1.1 0 2.2.1 3 .8 1 .8 1 1.8 1 2.2 0 1.5-1 2.3-1.5 2.6-.4.2-.6.3-1.6.5 2.1.2 3.2 1.2 3.2 2.8 0 2.5-2.4 4.1-5 4.1-.2 0-.9 0-1.5-.1-.6 0-1.3-.1-1.5-.1-.3 0-1.7.1-1.8.1-.2 0-.3-.1-.3-.2 0-.2.1-.2.3-.2 1.2 0 1.3-1.3 1.5-2.3.3-2.5.5-5.3.8-7.5 0-.3.1-.7.1-1 0-.3-.1-.5-.3-.8-.2-.2-.4-.4-1-.4-.3 0-.4 0-.4-.2s0-.4.4-.4m15.4 5.6c-1.6 0-2.7 2.2-2.7 4.3 0 1.3.5 2.6 1.7 2.6 1.8 0 2.5-2.8 2.5-4.6.1-1.3-.5-2.3-1.5-2.3m-.9 7.6c-1.1 0-1.8-.3-2.4-.8-.9-.9-.9-2.1-.9-2.4 0-2.1 1.5-5.1 4.2-5.1 2.3 0 3.2 1.6 3.2 3.1-.1 2.1-1.4 5.2-4.1 5.2"/><path class="st0" d="M101.8 48.8c-1.5 0-1.6-1.9-1.6-2.5 0-2 1-4.2 2.5-4.2.9 0 1.4.9 1.4 2.3 0 1.9-.7 4.4-2.3 4.4m.9-7.5c-2.8 0-4.3 3-4.3 5.2 0 .2 0 1.5 1 2.5.6.6 1.4.9 2.5.9 2.8 0 4.2-3.2 4.2-5.3-.2-1.6-1-3.3-3.4-3.3m-.9 7.8c1.9 0 2.6-2.9 2.6-4.7 0-1.6-.7-2.5-1.7-2.5-1.8 0-2.8 2.4-2.8 4.4 0 1.6.6 2.8 1.9 2.8m.9-7.6c2.2 0 3 1.5 3 2.9 0 2.1-1.3 5.1-3.9 5.1-1.1 0-1.8-.3-2.3-.8-.8-.8-.9-1.9-.9-2.3 0-2 1.4-4.9 4.1-4.9m6.6 8.2c-.8 0-1.3-.6-1.3-1.8V47l.7-4.4h-.7c-.1 0-.5 0-.5-.2s.3-.3.4-.4c.6-.2 1.1-.5 1.9-1.8.2-.3.3-.5.4-.5.1 0 .2 0 .2.2v.4l-.2 1.4v.1h1.2c.5 0 .8 0 .8.4 0 .1 0 .3-.1.3-.1.1-.4.2-1 .2h-1c-.1 0-.1 0-.1.3l-.6 3.9c-.1.4-.1.7-.1 1.1 0 .8.4.8.6.8.4 0 .8-.2 1.4-.7.2-.2.3-.3.4-.3.1 0 .2.1.2.2.1.3-1.4 1.7-2.6 1.7"/><path class="st0" d="M110.4 39.4c-.2 0-.3.2-.5.5-.8 1.3-1.3 1.6-1.8 1.8-.1 0-.5.2-.5.5 0 .2.2.4.6.4h.5l-.6 4.3v.9c0 1.7.9 1.9 1.4 1.9 1.3 0 2.8-1.4 2.8-2 0-.2-.1-.4-.4-.4-.1 0-.3.1-.5.3-.6.5-.9.7-1.3.7-.1 0-.4 0-.4-.6 0-.3 0-.7.1-1l.6-3.9v-.1h1c.6 0 .9-.1 1.1-.2.2-.1.2-.3.2-.4 0-.6-.4-.6-1-.6h-1l.2-1.4v-.4c-.2-.3-.5-.3-.5-.3m0 .3v.4l-.2 1.4c0 .2 0 .2.2.2h1c.6 0 .7 0 .7.3 0 .1 0 .2-.1.2-.1.1-.7.1-.9.1h-1c-.2 0-.2.1-.3.4l-.6 3.9c0 .2-.1.6-.1 1.1 0 .4.1.9.7.9.4 0 .9-.2 1.5-.7.1-.1.3-.2.4-.2.1 0 .1.1.1.1 0 .4-1.3 1.7-2.6 1.7-1.1 0-1.1-1.2-1.1-1.6 0-.4.1-.7.1-.9l.7-4.6-.8-.1c-.1 0-.3 0-.3-.1s.2-.2.3-.2c.6-.3 1.2-.6 2-1.9 0-.1.2-.4.3-.4m8.2 2.4c-2 0-3.7 3.1-3.7 5 0 .4.1 1.4 1.3 1.4 1.3 0 2.5-1.4 2.8-2.7l.6-2.9c0-.2 0-.4-.1-.5-.2-.2-.5-.3-.9-.3m1.1 7.5c-.6 0-.8-.9-.9-2.1-.5.7-1.7 2.1-3.4 2.1-1.4 0-1.9-1.2-1.9-2.3 0-2.9 3.1-5.9 5.2-5.9.3 0 .6.1 1.1.2.1 0 .2.1.3.1.1 0 .3-.2.5-.6.2-.3.3-.5.4-.5 0 0 .2 0 .2.3v.6c-.1.5-.4 1.6-.4 1.9l-.5 2.6c0 .2-.1 1-.1 1.4 0 .5.2 1 .4 1s.5-.3.7-.6c.6-.7.7-.8.8-.8.2 0 .2.2.2.3 0 .4-1.5 2.3-2.6 2.3"/><path class="st0" d="M116.2 48.3c-1 0-1.1-.8-1.1-1.2 0-1.8 1.7-4.9 3.6-4.9.3 0 .6.1.7.2.1.1.1.2.1.4l-.6 2.9c-.3 1.3-1.5 2.6-2.7 2.6m4.8-7.8c-.2 0-.4.2-.5.5-.2.4-.4.5-.4.5s-.2 0-.2-.1c-.5-.2-.8-.2-1.2-.2-2.2 0-5.4 3.1-5.4 6.1 0 1.2.6 2.4 2 2.4 1.7 0 2.8-1.1 3.4-1.9.2 1.1.4 1.9 1 1.9 1.1 0 2.7-2.1 2.7-2.6 0-.2-.1-.4-.3-.4-.2 0-.3.1-.9.8-.3.3-.5.5-.6.5-.1 0-.3-.3-.3-.9 0-.4.1-1.2.1-1.3l.5-2.6c.1-.2.3-1.4.4-1.9v-.5c.1-.2-.1-.3-.3-.3m-4.8 8.1c1.3 0 2.6-1.4 2.9-2.8l.6-2.9c.1-.6-.4-.9-1-.9-2 0-3.8 3.2-3.8 5.1-.1.7.3 1.5 1.3 1.5m4.8-7.9c.1 0 .1.1.1.2s-.1.3-.1.4c-.1.4-.4 1.7-.5 2l-.5 2.6c0 .1-.1 1-.1 1.4 0 .5.2 1.1.5 1.1s.7-.4.8-.6c.6-.6.6-.7.7-.7.1 0 .1.1.1.1 0 .4-1.5 2.3-2.4 2.3-.5 0-.7-1.1-.8-2.3-.4.6-1.5 2.3-3.5 2.3-1.4 0-1.8-1.4-1.8-2.2 0-2.9 3.1-5.8 5.1-5.8.3 0 .7.1 1.1.2.1 0 .2.1.3.1.3 0 .6-.6.6-.7.2-.1.3-.4.4-.4m9.5 9c-.5 0-.8-.4-.8-1 0-.4.2-2.4.2-2.5l.1-.9c0-.4.1-.8.1-1.3 0-.3-.1-1.7-1.1-1.7-.8 0-1.8 1.1-2.2 3.4l-.4 2.5c-.2 1.3-.3 1.4-.8 1.4s-.7-.1-.7-.3c0-.1 0-.3.1-.7l.6-3.8c0-.2.1-.7.1-1 0-.4-.1-.9-.4-.9-.3 0-.5.5-.6.7-.1.2-.2.4-.3.4-.2 0-.3-.2-.3-.4 0-.5.8-2.1 1.8-2.1.7 0 .9 1.1.9 1.9 1-1.2 2-1.9 3.2-1.9.6 0 1.1.3 1.3 1 .2.4.2 1.2.2 2.3l-.2 2c0 .4-.1.8-.1 1.2 0 .6.2.6.2.6.2 0 .3 0 .4-.1l.7-.7.2-.2.2-.2.1.4c-.2.4-1.4 1.9-2.5 1.9"/><path class="st0" d="M125.7 41.3c-1 0-1.9 1.7-1.9 2.3 0 .2.1.5.4.5.3 0 .4-.3.5-.5.1-.4.3-.6.5-.6s.3.3.3.8c0 .3 0 .8-.1 1l-.6 3.8c-.1.4-.1.6-.1.7 0 .4.4.5.8.5.7 0 .8-.3.9-1.5l.4-2.5c.4-2.3 1.3-3.3 2.1-3.3.9 0 .9 1.3.9 1.6 0 .4 0 .9-.1 1.2l-.1.9s-.2 2-.2 2.5c0 .7.3 1.2.9 1.2 1.1 0 2.4-1.5 2.4-2.1v-.1l-.1-.4-.3.3-.2.2-.7.7c-.1.1-.2.1-.3.1 0 0-.1-.1-.1-.4 0-.4 0-.8.1-1.2l.2-1.9V45c0-.8 0-1.8-.2-2.4-.3-.7-.8-1.1-1.4-1.1-1.1 0-2.1.6-3.1 1.7.1-1-.1-1.9-.9-1.9m0 .2c.7 0 .7 1.4.7 2.1.8-1.1 1.9-2.1 3.3-2.1.7 0 1 .4 1.2.9.3.7.2 2.2.2 2.3l-.2 1.9c0 .4-.1.8-.1 1.2 0 .4.1.7.4.7.2 0 .3-.1.5-.2s.8-.8.9-.9v.1c0 .4-1.2 1.9-2.2 1.9-.6 0-.7-.7-.7-.9 0-.4.1-2 .2-2.5l.1-.9c.1-.4.1-.8.1-1.3 0-.8-.3-1.9-1.2-1.9-.8 0-1.9 1-2.3 3.5l-.4 2.5c-.2 1.3-.3 1.3-.7 1.3-.6 0-.6-.1-.6-.2s0-.3.1-.7l.6-3.8c0-.2.1-.8.1-1.1 0-.2 0-1-.5-1-.4 0-.6.4-.7.8-.1.2-.1.3-.2.3s-.2-.2-.2-.2c0-.2.8-1.8 1.6-1.8m11.3-1.8c-.3 0-.8-1-.8-1.1 0-.2.7-.9.9-.9.3 0 .8.9.8 1 0 .1-.1.2-.1.3l-.3.3c-.1.1-.3.4-.5.4m-1.3 10c-.5 0-.6-.9-.6-1.4 0-.9.1-1.4.8-5.4v-.4s0-.1-.1-.2-.4-.1-.5-.1h-.6c-.2 0-.3-.1-.3-.2 0-.2.2-.4.4-.4h1l.3-.1c.5-.1.9-.2 1-.2.3 0 .3.2.3.2 0 .1-.2.9-.2 1l-.7 3.9c-.1.3-.1.9-.1 1.3 0 .3.1.4.2.4s.3-.1.5-.4l.1-.1c.3-.4.4-.5.5-.5.1 0 .2.1.2.3 0 1-1.6 2.3-2.2 2.3"/><path class="st0" d="M137.1 41.3c-.1 0-.6.1-1.1.2-.1 0-.3 0-.3.1h-1c-.3 0-.5.2-.5.5 0 .2.2.4.4.4h.6c.2 0 .3 0 .5.1v.4c-.7 4-.8 4.5-.8 5.4 0 .1 0 1.5.8 1.5.7 0 2.4-1.3 2.4-2.3 0-.3-.2-.4-.3-.4-.2 0-.3.2-.6.6l-.1.1c-.3.3-.4.3-.4.3v-.3c0-.4.1-1 .1-1.2l.7-3.9s.2-.9.2-1c-.2-.3-.3-.5-.6-.5m0-3.8c-.3 0-1 .9-1 1.1 0 .1.4 1.2.9 1.2.1 0 .3 0 .6-.5l.2-.2c.1-.1.2-.2.2-.4s-.5-1.2-.9-1.2m0 4c.1 0 .2 0 .2.1 0 0-.2.8-.2 1l-.7 3.9c-.1.3-.1.9-.1 1.3 0 .2 0 .6.3.6s.6-.4.7-.4c.1-.1.4-.6.5-.6 0 0 .1 0 .1.1 0 .8-1.5 2.1-2.1 2.1-.4 0-.5-.8-.5-1.3 0-.8.1-1.3.8-5.4v-.4c0-.1 0-.1-.1-.2-.2-.1-.4-.1-.6-.1-.1 0-.5.1-.6.1-.1 0-.1 0-.1-.1 0-.2.1-.2.3-.2.3 0 .4 0 1-.1 0-.2.9-.4 1.1-.4m0-3.8c.2 0 .6.8.6.9 0 .1-.1.2-.1.3l-.2.2c-.1.1-.3.4-.4.4-.2 0-.6-.9-.6-1 0 0 .6-.8.7-.8m5.7 12c-1.8 0-2.8-1.2-2.8-3.1 0-2.4 2-5.2 4.4-5.2 1.3 0 2.3.8 2.3 1.4 0 .4-.3.7-.7.7-.3 0-.4-.1-.5-.2-.1-.1-.4-.6-.5-.7-.4-.3-.7-.5-1.1-.5-1.2 0-2.6 1.6-2.6 3.7 0 1.7.8 2.6 2.3 2.6.7 0 1.2-.2 1.7-.7l.1-.1c.3-.3.4-.4.5-.4.2 0 .3.1.3.3-.1.6-1.6 2.2-3.4 2.2"/><path class="st0" d="M144.3 41.2c-2.5 0-4.5 2.9-4.5 5.4 0 2 1.1 3.2 3 3.2s3.5-1.7 3.5-2.2c0-.2-.2-.4-.4-.4s-.3.1-.6.5l-.1.1c-.5.4-1 .6-1.6.6-1.4 0-2.2-.9-2.2-2.4 0-2 1.3-3.6 2.4-3.6.3 0 .7.2 1 .5 0 .1.4.5.4.6.1.1.3.3.6.3.5 0 .9-.4.9-.9.1-.8-1-1.7-2.4-1.7m0 .3c1.2 0 2.2.8 2.2 1.3 0 .3-.2.6-.6.6-.2 0-.3-.1-.4-.2-.1-.1-.4-.5-.5-.6-.6-.5-1.1-.5-1.2-.5-1.3 0-2.7 1.7-2.7 3.8 0 1.9 1.1 2.7 2.4 2.7.7 0 1.3-.2 1.8-.7.1-.1.4-.5.5-.5.1 0 .2.1.2.2 0 .4-1.4 2-3.2 2-1.8 0-2.7-1.2-2.7-2.9 0-2.4 1.9-5.2 4.2-5.2m16.4 11.2c-.7 0-1.6-.4-1.6-1 0 0 0-.1.2-.4.1-.1.1-.2.1-.3v-.1c.2-.4.2-.5.4-.5.4 0 .4.4.4.5 0 .8.5 1 .7 1 .4 0 .6-.7.7-1 .1-.2.3-1.5.3-1.8-.1 0-.3.1-.3.1-.8.3-1.6.5-3 .5-4 0-6.7-2.6-6.7-6.4 0-4 3.1-7.2 7-7.2 1.3 0 2.8.4 4.2 1.1.4.2.5.2.5.2l.1-.1c.2-.2.3-.3.4-.3.1 0 .3 0 .3.4v1.2c0 .1 0 .5.1.8 0 .3.1.7.1.8 0 .4-.2.4-.3.4-.3 0-.4-.3-.4-.6-.1-.6-.3-1-.9-1.6-1.1-1-2.6-1.6-4.3-1.6-1.5 0-2.6.4-3.4 1.2-1 1-1.5 2.5-1.5 4.6 0 4.2 2.6 6.1 5.2 6.1 1.4 0 2.7-.6 3.1-1.1.3-.5.5-2.9.5-3.8 0-.4-.7-.6-1.1-.6h-.7c-.2-.1-.3-.3-.3-.4 0-.1 0-.3.4-.3h.3c.6 0 2 .1 2.3.1.1 0 .4 0 .8-.1.3 0 .6-.1.7-.1.2 0 .2.1.2.3 0 .2-.1.3-.4.4-.6.2-.7.3-.9 3.1-.2 2-.4 3.5-.7 4.3-.5 1.4-1.5 2.2-2.5 2.2"/><path class="st0" d="M158.8 36c-4 0-7.1 3.2-7.1 7.3 0 3.9 2.8 6.6 6.9 6.6 1.4 0 2.2-.2 3-.5 0 0 .1 0 .2-.1 0 .4-.2 1.4-.2 1.6-.1.4-.3.9-.5.9-.1 0-.5-.2-.6-.9 0-.4-.2-.6-.5-.6s-.4.2-.6.6v.1s-.1.1-.1.2c-.2.4-.2.4-.2.5 0 .6.9 1.1 1.7 1.1 1.1 0 2.2-.8 2.5-1.9.3-.8.5-2.3.7-4.3.3-2.8.3-2.9.8-3h.1c.4-.1.5-.2.5-.5s-.2-.5-.4-.5c-.1 0-.4 0-.8.1-.3 0-.6.1-.8.1-.2 0-1.7-.1-2.3-.1h-.3c-.4 0-.6.2-.6.5 0 .2.1.5.3.5h.7c.4 0 1 .1 1 .5 0 .9-.2 3.3-.5 3.7-.3.5-1.6 1-3 1-2.5 0-5.1-1.8-5.1-6 0-2 .5-3.5 1.5-4.5.8-.8 1.9-1.2 3.4-1.2 1.6 0 3.1.6 4.2 1.6.5.6.7.9.8 1.5 0 .2.1.7.6.7.2 0 .5-.2.5-.6 0-.1 0-.4-.1-.8 0-.3-.1-.7-.1-.8v-1.3c0-.5-.4-.6-.4-.6-.2 0-.4.1-.5.3-.1 0-.2-.1-.4-.2-1.5-.6-3.1-1-4.3-1m0 .3c.4 0 2 0 4.2 1.1 0 0 .5.3.6.3 0 0 .1 0 .2-.1.1-.2.2-.2.3-.2.1 0 .2.1.2.3 0 .2-.1 1.1-.1 1.2 0 .3.1 1.4.1 1.6 0 .2 0 .3-.2.3s-.2-.1-.3-.5c-.1-.7-.3-1-.9-1.7-1.7-1.6-3.8-1.6-4.4-1.6-1.3 0-2.6.3-3.5 1.3-1.2 1.2-1.5 3-1.5 4.7 0 4.6 3 6.2 5.4 6.2 1.4 0 2.8-.5 3.2-1.1.4-.6.5-3.1.5-3.9 0-.5-.7-.7-1.2-.7h-.7c-.1 0-.1-.2-.1-.3 0-.1.1-.2.3-.2 0 0 2.2.1 2.6.1.2 0 1.3-.1 1.5-.1.1 0 .1.1.1.2 0 .2 0 .2-.4.3-.7.2-.7.4-1 3.2-.1.8-.3 3.1-.7 4.3-.3.9-1.3 1.7-2.2 1.7-.7 0-1.4-.4-1.4-.8 0 0 .2-.6.3-.7.2-.5.2-.5.4-.5s.2.1.2.4c0 .8.6 1.1.8 1.1.5 0 .7-.6.8-1.1.1-.3.3-1.5.3-1.8 0-.1 0-.1-.1-.1s-.4.1-.5.1c-.8.3-1.6.5-2.9.5-3.8 0-6.6-2.4-6.6-6.3-.2-4.3 2.9-7.2 6.7-7.2m13.2 5.8c-2 0-3.7 3.1-3.7 5 0 .4.1 1.4 1.3 1.4 1.3 0 2.5-1.4 2.8-2.7l.6-2.9c0-.2 0-.4-.1-.5-.2-.2-.5-.3-.9-.3m1.1 7.5c-.6 0-.7-.9-.9-2.1-.5.7-1.7 2.1-3.4 2.1-1.4 0-1.9-1.2-1.9-2.3 0-2.9 3.1-5.9 5.2-5.9.3 0 .6.1 1.1.2.1 0 .2.1.3.1.1 0 .4-.3.5-.6.2-.3.3-.5.4-.5 0 0 .2 0 .2.3v.4l-.1.5c-.1.6-.3 1.4-.4 1.6l-.5 2.6c0 .1-.1.9-.1 1.4 0 .5.2 1 .4 1s.5-.3.7-.6c.6-.7.7-.8.8-.8.1 0 .2.2.2.3.1.4-1.4 2.3-2.5 2.3"/><path class="st0" d="M169.6 48.3c-1 0-1.1-.8-1.1-1.2 0-1.8 1.7-4.9 3.6-4.9.3 0 .6.1.7.2.1.1.1.2.1.4l-.6 2.9c-.3 1.3-1.5 2.6-2.7 2.6m4.8-7.8c-.2 0-.4.2-.5.5-.1.3-.3.5-.4.5 0 0-.2 0-.2-.1-.5-.2-.8-.2-1.1-.2-2.2 0-5.4 3.1-5.4 6.1 0 1.1.5 2.4 2 2.4 1.6 0 2.8-1.1 3.4-1.9.2 1.1.4 1.9 1 1.9 1.1 0 2.7-2.1 2.7-2.6 0-.2-.1-.4-.4-.4-.2 0-.3.1-.9.8-.2.3-.5.5-.6.5-.1 0-.3-.3-.3-.9 0-.4.1-1.2.1-1.3l.5-2.6c0-.2.2-1 .4-1.6l.1-.4v-.4c0-.2-.2-.3-.4-.3m-4.8 8.1c1.3 0 2.6-1.4 2.9-2.8l.6-2.9c.1-.6-.4-.9-1-.9-2 0-3.8 3.2-3.8 5.1-.1.7.3 1.5 1.3 1.5m4.8-7.9c.1 0 .1.1.1.2s-.1.3-.1.4c-.1.4-.4 1.7-.5 2l-.5 2.6c0 .1-.1 1-.1 1.4 0 .5.2 1.1.5 1.1s.7-.4.8-.6c.6-.6.6-.7.7-.7.1 0 .1.1.1.1 0 .4-1.5 2.3-2.4 2.3-.5 0-.7-1.1-.8-2.3-.4.6-1.5 2.3-3.5 2.3-1.4 0-1.8-1.4-1.8-2.2 0-2.9 3.1-5.8 5.1-5.8.3 0 .6.1 1 .2.1 0 .2.1.3.1.3 0 .6-.6.6-.7.3-.1.4-.4.5-.4m4.9 9c-.5 0-.8 0-.8-.3v-.5l.5-3c.1-.4.1-1.2.1-1.8 0-.6-.1-1.3-.6-1.3-.2 0-.4.1-.8 1.3 0 0-.1.4-.3.4-.3 0-.3-.4-.3-.4 0-1.3.7-2.7 1.7-2.7.9 0 1.1 1.2 1.1 2 .7-1.3 1.5-2 2.3-2 .6 0 .8.4.8.7 0 0-.1 1.6-.6 1.6-.2 0-.3-.2-.3-.4-.1-.5-.3-.7-.6-.7-.8 0-1.2 2.1-1.4 3L180 49c-.1.5-.2.7-.7.7"/><path class="st0" d="M182.6 41.3c-.6 0-1.4.3-2.2 1.7-.1-.8-.4-1.7-1.2-1.7-1.1 0-1.9 1.5-1.9 2.8 0 .2.1.6.4.6.3 0 .4-.3.4-.5.3-1.2.5-1.2.6-1.2.4 0 .4.7.4 1.1 0 .5-.1 1.4-.1 1.7l-.5 3s-.1.3-.1.5c0 .4.4.4.9.4.6 0 .7-.3.7-.8l.5-3.3v-.1c.1-.8.5-2.9 1.2-2.9.3 0 .4.1.5.5v.1c0 .1.1.4.4.4.7 0 .7-1.7.7-1.7.2-.2.1-.6-.7-.6m0 .2c.5 0 .6.2.6.5 0 .5-.2 1.5-.4 1.5-.1 0-.2-.2-.2-.3-.1-.5-.3-.7-.7-.7-1 0-1.3 2.2-1.5 3.2l-.5 3.3c-.1.5-.1.6-.5.6s-.6 0-.6-.2V49l.5-3c.1-.4.1-1.3.1-1.8 0-.6-.1-1.4-.7-1.4-.3 0-.6.3-.9 1.4 0 0-.1.3-.2.3s-.1-.3-.1-.3c0-1.2.7-2.6 1.6-2.6.9 0 1 1.5 1 2.3.4-.7 1.3-2.4 2.5-2.4m6.5.5c-1.8 0-3.2 2.8-3.2 4.6 0 .9.5 1.8 1.5 1.8 1.1 0 2.2-1.4 2.4-2.5l.5-3.1c0-.2 0-.3-.1-.5-.4-.1-.7-.3-1.1-.3m1.5 7.6c-.9 0-1-1.1-1-1.9-.5.8-1.5 1.9-2.9 1.9-1.7 0-2.3-1.5-2.3-2.6 0-2.5 2.6-5.7 4.7-5.7.4 0 .7.1 1.3.4.3-1.9.7-4.6.7-4.8v-.1c-.1-.1-.6-.1-.9-.1-.5 0-.8 0-.9-.1-.1-.1-.1-.1-.1-.2 0-.2.1-.3.3-.3.2 0 2.5-.3 2.6-.3.2 0 .3.1.3.3 0 .2-.1.8-.2 1.5l-1.3 8.9c0 .2-.1.7-.1.9 0 .6.2.9.5.9s.7-.4.9-.7c.3-.4.3-.5.5-.5s.3.1.3.3c0 .6-1.3 2.2-2.4 2.2"/><path class="st0" d="M187.3 48.3c-.9 0-1.4-.9-1.4-1.7 0-1.7 1.4-4.5 3.1-4.5.4 0 .7.1.9.3.1.1.1.2.1.4l-.5 3.1c-.1 1.1-1.1 2.4-2.2 2.4m4.8-12.7c-.3 0-2.3.2-2.6.3-.3 0-.5.2-.5.4 0 .1 0 .2.1.3.2.1.4.2 1 .2.2 0 .6 0 .8.1v.1c0 .2-.3 2.5-.7 4.6-.5-.3-.8-.3-1.2-.3-2.2 0-4.8 3.2-4.8 5.8 0 1.1.7 2.7 2.5 2.7 1.3 0 2.2-.8 2.8-1.6.1.8.3 1.6 1.1 1.6 1.2 0 2.5-1.7 2.5-2.4 0-.2-.2-.4-.4-.4-.3 0-.4.1-.6.5-.2.3-.6.7-.8.7-.2 0-.3-.3-.3-.8 0-.2 0-.7.1-.8l1.3-8.8v-.2c.1-.8.2-1.4.2-1.6 0-.2-.2-.4-.5-.4m-4.8 13c1.2 0 2.3-1.5 2.5-2.6l.5-3.1c.1-.6-.6-1-1.2-1-1.8 0-3.4 2.8-3.4 4.7 0 1.1.6 2 1.6 2m4.8-12.7c.1 0 .2 0 .2.1 0 .2-.2 1.4-.2 1.7l-1.3 8.7c0 .2-.1.7-.1.9 0 .8.3 1 .6 1 .4 0 .9-.5 1-.8.2-.4.3-.4.4-.4.1 0 .1.1.1.2 0 .5-1.3 2.2-2.3 2.2-.9 0-.9-1.4-.9-2.1-.3.6-1.3 2.1-3 2.1-1.6 0-2.2-1.4-2.2-2.4 0-2.4 2.5-5.5 4.6-5.5.4 0 .7.1 1.4.5.3-1.8.7-4.7.7-5 0-.1 0-.2-.1-.2-.2-.1-.6-.1-1-.1-.2 0-.7 0-.8-.1v-.1c0-.1.1-.2.2-.2.3-.3 2.7-.5 2.7-.5m6.6 6.2c-1.2 0-2 1-2.6 3.1.9-.1 1.9-.2 2.6-.7.3-.2.9-.7.9-1.4.1-.4-.1-1-.9-1m-1.3 7.5c-.9 0-1.4-.2-1.9-.7-.7-.7-.8-1.7-.8-2.2 0-2.2 1.6-5.4 4.4-5.4.4 0 1.9.1 1.9 1.4 0 .5-.2 2.8-5 3v.5c0 1.6 1.2 2.3 2.3 2.3.6 0 1.1-.2 1.6-.5 0 0 .1 0 .1-.1.3-.3.4-.3.5-.3.2 0 .3.1.3.3 0 .5-1.6 1.7-3.4 1.7"/><path class="st0" d="M196.3 45c.5-1.9 1.3-2.8 2.4-2.8.7 0 .8.5.8.8 0 .6-.5 1.1-.8 1.3-.7.5-1.5.6-2.4.7m2.8-3.7c-2.9 0-4.6 3.3-4.6 5.5 0 .5.1 1.5.9 2.3.5.5 1 .7 2 .7 1.9 0 3.6-1.2 3.6-1.9 0-.2-.2-.4-.4-.4-.1 0-.3.1-.6.4l-.1.1c-.5.4-.9.5-1.5.5-1.1 0-2.2-.7-2.2-2.1V46c4.7-.3 5-2.7 5-3.2-.1-1-.8-1.5-2.1-1.5m-3.1 4c1-.1 2.1-.2 2.9-.8.4-.2.9-.7.9-1.5 0-.5-.2-1.1-1.1-1.1-1.8.1-2.5 2.5-2.7 3.4m3.1-3.8c.6 0 1.8.1 1.8 1.3 0 .4-.2 2.7-5 2.9v.6c0 1.7 1.3 2.4 2.5 2.4.6 0 1.1-.1 1.7-.6.1-.1.4-.4.5-.4.1 0 .1.1.1.1 0 .5-1.4 1.6-3.3 1.6-1 0-1.4-.2-1.8-.6-.7-.7-.8-1.7-.8-2.1 0-1.9 1.5-5.2 4.3-5.2m10.1 8.2c-.5 0-.8-.4-.8-1 0-.4.1-2.1.2-2.5l.1-.9c.1-.5.1-.9.1-1.3 0-.8-.3-1.7-1-1.7-.8 0-1.8 1.1-2.2 3.4l-.4 2.5c-.2 1.3-.3 1.4-.8 1.4s-.7-.1-.7-.3c0-.1 0-.3.1-.7l.6-3.8v-1c0-.4-.1-.9-.4-.9-.3 0-.5.5-.6.7-.1.2-.2.4-.3.4-.2 0-.3-.2-.3-.4 0-.5.8-2.1 1.8-2.1.7 0 .9 1.2.9 1.9 1-1.2 2-1.9 3.2-1.9.8 0 1.2.6 1.3 1 .2.4.2 1.2.2 2.3l-.2 2c0 .4-.1.8-.1 1.2 0 .6.2.6.2.6.2 0 .3-.1.4-.1l.6-.6.3-.3.2-.2.1.4c-.2.4-1.4 1.9-2.5 1.9"/><path class="st0" d="M204.5 41.3c-1 0-1.9 1.7-1.9 2.3 0 .2.1.5.4.5.3 0 .4-.3.5-.5.1-.3.3-.6.5-.6s.3.3.3.8v1l-.6 3.8c-.1.4-.1.6-.1.7 0 .4.4.5.8.5.7 0 .7-.3.9-1.5l.4-2.5c.4-2.3 1.3-3.3 2.1-3.3.9 0 .9 1.4.9 1.6 0 .4 0 .8-.1 1.2l-.1.9c0 .4-.2 2.1-.2 2.5 0 .7.3 1.2.9 1.2 1.1 0 2.4-1.5 2.4-2.1v-.1l-.1-.4-.3.3-.3.3c-.2.2-.5.6-.6.6-.1.1-.2.1-.3.1 0 0-.1-.1-.1-.4 0-.4 0-.8.1-1.2l.2-1.9V45c0-.8 0-1.8-.2-2.4-.3-.7-.8-1.1-1.4-1.1-1.1 0-2.1.6-3.1 1.6-.1-.9-.3-1.8-1-1.8m0 .2c.7 0 .7 1.4.7 2.1.8-1.1 1.9-2.1 3.3-2.1.6 0 1 .4 1.2.9.3.7.2 2.2.2 2.3l-.2 1.9c0 .4-.1.8-.1 1.2 0 .4.1.7.4.7.2 0 .3-.1.5-.2s.8-.8.9-.9v.1c0 .4-1.1 1.9-2.2 1.9-.6 0-.6-.7-.6-.9 0-.4.1-2 .2-2.5l.1-.9c.1-.4.1-.8.1-1.3 0-.8-.3-1.9-1.2-1.9-.8 0-1.9 1-2.3 3.5l-.4 2.5c-.2 1.3-.3 1.3-.7 1.3-.6 0-.6-.1-.6-.2s0-.3.1-.7l.6-3.8v-1.1c0-.2 0-1-.5-1-.4 0-.6.4-.7.8-.1.2-.1.3-.2.3s-.2-.2-.2-.2c0-.2.8-1.8 1.6-1.8m10.7 8.2c-1.4 0-2.4-.6-2.4-1.6 0-.5.3-.6.6-.6.4 0 .5.2 1 1 .1.2.3.5 1 .5 1 0 1.3-.6 1.3-1.1 0-.7-.4-1.2-1.1-2-1-1-1.5-1.7-1.5-2.6 0-1.2 1-2 2.4-2 1.1 0 1.9.5 1.9 1.2 0 .4-.3.6-.6.6s-.5-.2-.8-.6c-.2-.4-.5-.6-.9-.6-.5 0-.8.4-.8.8 0 .6.4 1.1.7 1.4 1.4 1.5 2 2.2 2 3.3-.1 1.7-1.6 2.3-2.8 2.3"/><path class="st0" d="M216.4 41.2c-1.5 0-2.5.9-2.5 2.1 0 .9.5 1.6 1.5 2.6.8.9 1.1 1.3 1.1 1.9 0 .6-.4.9-1.1.9-.6 0-.7-.2-.8-.4-.5-.9-.6-1.1-1.1-1.1-.3 0-.7.2-.7.7 0 .8.8 1.7 2.5 1.7 1.3 0 2.8-.6 2.8-2.3 0-1.2-.6-1.8-2-3.3-.3-.3-.7-.8-.7-1.3 0-.3.3-.6.7-.6.4 0 .6.2.8.6.2.3.4.6.9.6.4 0 .7-.3.7-.8-.1-.7-.9-1.3-2.1-1.3m0 .3c1 0 1.7.5 1.7 1.1 0 .3-.2.5-.5.5s-.4-.2-.6-.5c-.3-.4-.5-.7-1-.7-.6 0-1 .4-1 .9 0 .6.5 1.2.8 1.5 1.4 1.5 1.9 2.1 1.9 3.2 0 1.6-1.5 2.1-2.6 2.1-1.4 0-2.2-.6-2.2-1.4 0-.4.2-.5.4-.5.4 0 .4.1.9.9.1.3.3.6 1.1.6 1.2 0 1.4-.7 1.4-1.2 0-.7-.4-1.3-1.2-2.1-1-1-1.4-1.7-1.4-2.5.1-1.2 1.1-1.9 2.3-1.9m11.6.4c-1.6 0-2.7 2.2-2.7 4.3 0 1.3.5 2.6 1.7 2.6 1.8 0 2.5-2.8 2.5-4.6 0-1.3-.6-2.3-1.5-2.3m-1 7.6c-1.1 0-1.8-.3-2.4-.8-.9-.9-.9-2.1-.9-2.4 0-2.1 1.5-5.1 4.2-5.1 2.3 0 3.2 1.6 3.2 3.1 0 2.1-1.3 5.2-4.1 5.2"/><path class="st0" d="M227 48.7c-1.5 0-1.6-1.9-1.6-2.5 0-2 1-4.2 2.5-4.2.9 0 1.4.9 1.4 2.3.1 1.9-.6 4.4-2.3 4.4m.9-7.6c-2.8 0-4.3 3-4.3 5.2 0 .4.1 1.6 1 2.5.6.6 1.4.9 2.5.9 2.8 0 4.2-3.2 4.2-5.3-.1-1.5-1-3.3-3.4-3.3M227 49c1.9 0 2.7-2.9 2.7-4.7 0-1.6-.7-2.5-1.7-2.5-1.7 0-2.8 2.4-2.8 4.4 0 1.6.6 2.8 1.8 2.8m.9-7.6c2.2 0 3 1.5 3 2.9 0 2.1-1.3 5.1-3.9 5.1-1.1 0-1.8-.3-2.3-.8-.8-.8-.9-1.9-.9-2.3.1-2 1.5-4.9 4.1-4.9m3.6 11.4c-.5 0-.6-.3-.6-.5 0 0 .3-1.6.7-1.6.1 0 .2.1.2.4 0 .4.1.6.4.6.3 0 .6-.3.9-2.7 0 0 .5-4.9.6-5.2.1-.5.1-1.3.1-1.5 0 0-.1-.1-.8-.1h-.6c-.3 0-.3-.2-.3-.4 0-.3.1-.4.4-.4h1c.2 0 .4 0 .6-.1.3-1.5.7-3.5 2.2-5 .6-.6 1.2-.8 1.9-.8.6 0 .9.2.9.5 0 0-.2 1.6-.5 1.6-.2 0-.3-.3-.3-.4-.1-.2-.2-.3-.3-.4-.1-.1-.3-.3-.5-.3-1.4 0-1.8 3-2.1 4.8h1.6c.2 0 .4.2.4.4 0 .4-.3.4-.6.4h-1.4c-.1.1-.2 1.2-.2 1.6l-.4 3.4c-.3 2.9-.7 3.7-1.5 4.6-.5.5-1.1 1.1-1.8 1.1"/><path class="st0" d="M238.1 35.5c-.8 0-1.3.3-2 .9-1.5 1.5-1.9 3.5-2.2 4.9h-1.5c-.5 0-.5.3-.5.6 0 .4.2.6.5.6h1.3c0 .2-.1.9-.1 1.4 0 .3-.1.6-.1.7l-.5 4.5c-.2 1.7-.4 2.6-.7 2.6-.2 0-.2-.3-.2-.5 0-.4-.2-.5-.4-.5-.5 0-.8 1.7-.8 1.7 0 .1.1.6.8.6.7 0 1.4-.6 1.6-.8.9-.9 1.2-1.7 1.5-4.7l.4-3.4c0-.3.1-1.2.2-1.5h1.3c.2 0 .7 0 .7-.6 0-.3-.2-.4-.5-.5h-1.4c.3-1.7.7-4.6 1.9-4.6.2 0 .3.1.5.2.1.1.2.2.3.4 0 .2.2.4.5.4.5 0 .6-1.7.6-1.7-.2-.4-.6-.7-1.2-.7m0 .3c.3 0 .8.1.8.4 0 0-.2 1.4-.4 1.4-.1 0-.2-.2-.2-.3-.1-.2-.2-.4-.3-.5-.1-.1-.3-.3-.6-.3-1.5 0-2 3.2-2.2 5.1h1.7c.2 0 .2.1.2.2 0 .3-.1.3-.4.3h-1.5c-.1.1-.3 1.5-.3 1.7l-.4 3.4c-.3 2.8-.6 3.6-1.5 4.5-.1.1-.8.8-1.4.8-.1 0-.5 0-.5-.3 0-.1.4-1.4.6-1.4.1 0 .1.2.1.3 0 .5.2.8.5.8.4 0 .8-.5 1-2.8l.5-4.6c0-.2.2-1.9.2-2.1 0-.1 0-.1-.1-.2h-1.5c-.1 0-.2-.1-.2-.3 0-.3 0-.3.3-.3h1c.2 0 .5 0 .7-.1.3-1.5.7-3.5 2.2-5 .5-.5 1-.7 1.7-.7M89.5 68.5c-.5 0-1-.1-1.5-.2s-.9-.3-1.2-.5l-.3-.3c0-.1-.1-.4-.2-.6 0 0-.1-.3-.2-.8-.2-.5-.2-.9-.2-1.1 0-.4.2-.4.3-.4.2 0 .4.3.4.5.2.7.6 1.3 1.3 1.7.6.5 1.3.7 2.1.7s1.4-.2 1.9-.7c.5-.4.8-1 .8-1.6 0-.6-.2-1.1-.7-1.5-.2-.1-.7-.4-2.2-.9-1.3-.4-2.2-.9-2.8-1.5-.6-.5-.8-1.3-.8-2.1 0-1 .4-1.8 1.1-2.4.7-.6 1.6-.9 2.8-.9.6 0 1.2.1 1.6.3l.6.2h.1s.1 0 .1-.1l.1-.1s.1-.1.2-.1.3.1.3.6c0 .1 0 .4.1.8l.1.9v.4c0 .4-.2.4-.3.4-.2 0-.3-.3-.4-.5-.2-.6-.6-1.1-1.2-1.5-.6-.4-1.3-.6-2-.6-.6 0-1.1.2-1.5.5-.4.3-.6.8-.6 1.3s.1.8.4 1.2c.2.3.5.5.7.6.3.1 1 .4 2 .7 2.2.7 3.3 1.9 3.3 3.5 0 1.1-.4 2-1.2 2.7-.7 1.1-1.8 1.4-3 1.4"/><path class="st0" d="M90 55.9c-1.1 0-2.1.3-2.8.9-.7.6-1.1 1.5-1.1 2.5 0 .9.3 1.6.9 2.2.6.6 1.5 1 2.8 1.5 1.6.5 2 .8 2.1.9.4.4.7.9.7 1.4 0 .6-.2 1.1-.7 1.5-.5.4-1.1.6-1.8.6s-1.4-.2-2-.7c-.6-.4-1-1-1.2-1.7 0-.2-.2-.6-.5-.6-.2 0-.4.1-.4.5 0 .2.1.6.2 1.2.1.5.2.7.2.8.1.3.1.5.2.6l.3.3c.3.2.7.3 1.2.5.5.1 1.1.2 1.5.2 1.3 0 2.3-.4 3.2-1.1.8-.7 1.3-1.7 1.3-2.8 0-1.7-1.1-2.9-3.4-3.7-1.1-.4-1.8-.6-2-.7-.2-.1-.5-.3-.7-.6-.2-.3-.3-.7-.3-1.1 0-.5.2-.9.5-1.2.4-.3.8-.5 1.4-.5.7 0 1.4.2 2 .6.6.4 1 .8 1.1 1.4.1.2.2.6.5.6.2 0 .4-.1.4-.5v-.4l-.1-.9c-.1-.6-.1-.8-.1-.8 0-.6-.3-.7-.5-.7-.1 0-.2.1-.3.1l-.1.1-.6-.3c-.7 0-1.2-.1-1.9-.1m0 .3c.6 0 1.1.1 1.6.3l.6.2h.2c.1 0 .1 0 .2-.1l.1-.1h.1c.1 0 .2.1.2.4 0 .1 0 .4.1.9l.1.9v.4c0 .2-.1.3-.2.3s-.2-.1-.3-.4c-.2-.6-.6-1.1-1.3-1.5-.6-.4-1.3-.6-2.1-.6-.6 0-1.1.2-1.5.5-.4.4-.6.8-.6 1.4 0 .5.1.9.4 1.2.2.3.5.5.8.7.3.1 1 .4 2.1.7 2.1.7 3.2 1.8 3.2 3.4 0 1.1-.4 1.9-1.2 2.6-.8.7-1.8 1-3 1-.4 0-.9-.1-1.5-.2-.5-.1-.9-.3-1.2-.4-.1-.1-.2-.1-.2-.2s-.1-.3-.2-.6c0 0-.1-.3-.2-.8-.2-.5-.2-.9-.2-1.1 0-.2.1-.2.2-.2s.2.1.3.4c.2.7.6 1.3 1.3 1.8.7.5 1.4.7 2.2.7.8 0 1.5-.2 2-.7.5-.5.8-1 .8-1.7 0-.6-.3-1.2-.8-1.6-.3-.2-1-.5-2.2-1-1.3-.4-2.2-.9-2.7-1.4-.5-.5-.8-1.2-.8-2 0-.9.3-1.7 1-2.3.7-.6 1.6-.9 2.7-.9m11.2.7c-1.3 0-2.3.4-3.1 1.3-.8.9-1.1 2.1-1.1 3.5 0 1.7.5 3.1 1.5 4.3 1 1.2 2.2 1.7 3.6 1.7 1.3 0 2.4-.5 3.2-1.4.8-.9 1.3-2.2 1.3-3.6 0-1.7-.5-3.1-1.5-4.2-1.1-1-2.4-1.6-3.9-1.6m.5 11.6c-1.9 0-3.4-.6-4.6-1.7-1.2-1.1-1.8-2.7-1.8-4.5 0-.8.2-1.6.5-2.4.3-.8.7-1.5 1.2-2 .5-.6 1.2-1 2.1-1.3.8-.3 1.7-.5 2.6-.5 1.8 0 3.3.6 4.5 1.7 1.2 1.1 1.8 2.6 1.8 4.4 0 1.9-.6 3.4-1.8 4.6-1.1 1.1-2.6 1.7-4.5 1.7"/><path class="st0" d="M102.1 67.6c-1.4 0-2.5-.6-3.5-1.7s-1.4-2.6-1.4-4.2c0-1.4.4-2.6 1.1-3.4.7-.8 1.7-1.3 3-1.3 1.5 0 2.7.5 3.7 1.6s1.5 2.5 1.5 4.1c0 1.4-.4 2.6-1.2 3.5-1 1-2 1.4-3.2 1.4m-.3-11.7c-.9 0-1.8.2-2.6.5-.9.3-1.6.8-2.1 1.4-.5.5-1 1.2-1.3 2-.3.8-.5 1.6-.5 2.4 0 1.9.6 3.4 1.8 4.6 1.2 1.2 2.8 1.8 4.7 1.8 1.9 0 3.4-.6 4.6-1.8 1.2-1.2 1.8-2.8 1.8-4.7 0-1.8-.6-3.3-1.8-4.4-1.2-1.2-2.8-1.8-4.6-1.8m.3 12c1.3 0 2.4-.5 3.3-1.5.9-1 1.3-2.2 1.3-3.7 0-1.7-.5-3.1-1.6-4.3-1-1.1-2.3-1.7-3.9-1.7-1.3 0-2.4.4-3.2 1.3-.8.9-1.2 2.1-1.2 3.6 0 1.7.5 3.2 1.5 4.4 1.1 1.3 2.3 1.9 3.8 1.9m-.3-11.7c1.8 0 3.3.6 4.4 1.7 1.1 1.1 1.7 2.5 1.7 4.3 0 1.8-.6 3.3-1.7 4.5-1.2 1.2-2.6 1.8-4.4 1.8-1.9 0-3.4-.6-4.5-1.7s-1.7-2.6-1.7-4.4c0-.8.2-1.6.5-2.4.3-.8.7-1.4 1.2-1.9s1.2-1 2-1.3c.8-.4 1.6-.6 2.5-.6m13.8 12.3c-1 0-1.9-.2-2.7-.6-.8-.4-1.4-.9-1.8-1.6-.4-.8-.6-1.8-.6-3v-4.8c0-.6-.1-1-.2-1.2-.1-.2-.5-.3-.9-.4-.3 0-.3-.2-.3-.3 0-.1 0-.3.5-.3h3.5c.2 0 .3.1.3.3 0 .1-.1.3-.4.3-.3.1-.5.2-.6.4-.1.2-.2.6-.2 1.1v4.9c0 1.4.2 2.5.7 3.1.6.9 1.7 1.3 3.2 1.3 1.3 0 2.3-.4 3-1.1.7-.7 1-1.8 1-3.3v-4.5c0-.7-.1-1.2-.3-1.5-.2-.3-.5-.5-1-.5-.3 0-.4-.2-.4-.3 0-.2.1-.3.3-.3.2 0 .3 0 .6.1h2.4c.2 0 .3.1.3.3 0 .1 0 .2-.3.3-.3.1-.5.3-.6.5-.1.2-.1.5-.1 1.4V63c0 1.6-.3 2.8-1 3.7-.4.6-1 1-1.8 1.3-.9.4-1.7.5-2.6.5"/><path class="st0" d="M118.6 56c-.2 0-.4.2-.4.4 0 .1 0 .4.5.4.4 0 .7.2.9.4.2.3.3.8.3 1.4v4.5c0 1.4-.3 2.5-1 3.2-.6.7-1.6 1-2.9 1-1.4 0-2.5-.4-3.1-1.2-.4-.6-.6-1.6-.6-3v-4.9c0-.6.1-.9.1-1 .1-.1.2-.2.5-.3.4-.1.5-.3.5-.5s-.1-.4-.5-.4h-3.6c-.6 0-.6.4-.6.5 0 .1 0 .4.5.4.4.1.7.2.8.4.1.1.2.4.2 1.1v4.9c0 1.2.2 2.3.6 3 .4.7 1 1.2 1.8 1.7.8.4 1.7.6 2.7.6.9 0 1.7-.2 2.5-.5s1.4-.8 1.8-1.4c.7-.9 1-2.2 1-3.8v-4.3c0-.8.1-1.2.1-1.4.1-.2.3-.3.5-.5.3-.1.3-.3.3-.4 0-.2-.2-.4-.4-.4h-2.3c.1.2-.1.1-.2.1zm0 .3c.1 0 .3 0 .6.1.2 0 .5.1.8.1h1.6c.1 0 .2.1.2.2s-.1.2-.2.2c-.3.1-.6.3-.7.6-.1.3-.2.7-.2 1.5v4c0 1.6-.3 2.8-.9 3.6-.4.5-1 1-1.7 1.3-.7.3-1.5.5-2.4.5-1 0-1.9-.2-2.6-.6-.8-.4-1.3-.9-1.7-1.5-.4-.7-.6-1.7-.6-2.9v-4.9c0-.6-.1-1-.3-1.3-.2-.2-.5-.4-1-.5-.2 0-.2-.1-.2-.2s.1-.2.3-.2h3.5c.1 0 .2 0 .2.1s-.1.2-.3.2c-.3.1-.6.2-.7.4-.1.2-.2.6-.2 1.2v4.9c0 1.5.2 2.5.7 3.2.6.9 1.7 1.3 3.3 1.3 1.4 0 2.4-.4 3.1-1.1.7-.7 1-1.9 1-3.4v-4.5c0-.7-.1-1.2-.3-1.6-.2-.3-.6-.5-1-.6-.2 0-.2-.1-.2-.2-.3.1-.2.1-.1.1m11.5 12.1c-.1 0-.2 0-.4-.1H127c-.3 0-.5.1-.6.1-.4 0-.4-.2-.4-.3 0-.1.1-.3.4-.3.4-.1.7-.2.8-.3.1-.1.2-.4.2-.9v-9.1s-.1-.1-.3-.1h-2.3c-.4 0-.7.1-.9.2-.2.2-.3.5-.4 1-.1.3-.2.4-.4.4-.1 0-.3 0-.3-.4 0-.1 0-.4.1-.7.1-.4.1-.7.1-1 0-.3 0-.5.1-.6.1-.1.2-.2.5-.2h9.3c.5 0 .6.1.7.1.1.1.1.2.1.7v.7c0 .2 0 .3.1.4 0 .3-.2.4-.3.4-.1 0-.3-.1-.3-.4-.1-.5-.2-.6-.3-.7-.1-.1-.3-.2-.9-.2h-2.4c-.3 0-.4.1-.4.1s-.1.1-.1.4v8.7c0 .6.4 1 1 1.1.3 0 .4.2.4.3 0 .5 0 .7-.4.7"/><path class="st0" d="M132.9 56.2h-9.3c-.3 0-.5.1-.6.2-.1.1-.1.3-.1.7 0 .2 0 .6-.1 1-.1.3-.1.6-.1.7 0 .3.2.5.4.5s.4-.1.5-.5c.1-.6.3-.8.4-.9.2-.1.4-.2.8-.2h2.5v8.9c0 .5-.1.8-.2.8-.1.1-.3.2-.7.3-.5.1-.5.3-.5.4 0 .2.1.4.5.4.1 0 .2 0 .6-.1h2.6c.3 0 .4.1.5.1.4 0 .5-.2.5-.4 0-.1-.1-.4-.5-.4-.6-.1-.9-.4-.9-1v-9h2.7c.6 0 .8.1.8.1.1 0 .2.2.3.6.1.4.3.5.5.5s.5-.2.4-.5c0-.1 0-.2-.1-.4v-.7c0-.4 0-.7-.2-.8-.1-.3-.3-.3-.7-.3m0 .2c.3 0 .5 0 .6.1.1.1.1.3.1.6v.7c0 .2 0 .3.1.4 0 .2-.1.3-.2.3s-.2-.1-.2-.3c-.1-.4-.2-.7-.4-.8-.2-.1-.5-.2-1-.2h-2.4c-.3 0-.4 0-.5.1-.1.1-.1.2-.1.5v8.7c0 .7.4 1.1 1.1 1.2.2 0 .3.1.3.2s-.1.2-.2.2-.2 0-.4-.1H127c-.3 0-.5.1-.6.1-.2 0-.3-.1-.3-.2s.1-.1.3-.2c.4-.1.7-.2.9-.4.2-.2.2-.5.2-1v-8.5c0-.2 0-.3-.1-.4-.1-.1-.2-.1-.4-.1h-2.3c-.5 0-.8.1-1 .3-.2.2-.4.5-.5 1.1-.1.2-.1.3-.2.3s-.2-.1-.2-.2 0-.3.1-.7c.1-.4.1-.8.1-1 0-.3 0-.4.1-.5.1-.1.2-.1.4-.1h9.4zm10.7 12c-.1 0-.2 0-.2-.1 0 0-.1-.1-.1-.2s.1-.3.4-.3c.5-.1.8-.5.8-1.3v-3.9H139c-.4 0-.5.1-.5.1s-.1.1-.1.4v3.2c0 .6.1 1 .3 1.2.2.2.5.3 1 .4.4 0 .4.2.4.3 0 .1 0 .2-.1.2-.1.1-.2.1-.3.1h-3.8c-.3 0-.3-.2-.3-.3 0-.1 0-.3.3-.3l.4-.1c.2 0 .3-.2.4-.5.1-.3.1-.9.1-1.7v-7.4c0-.5-.1-.8-.3-1-.2-.2-.5-.3-.9-.4-.3 0-.4-.2-.4-.3 0-.1.1-.3.3-.3.1 0 .3 0 .6.1.4.1 1 .1 1.6.1.4 0 .8 0 1.1-.1h.4c.4 0 .4.2.4.3 0 .1-.1.2-.3.3-.4.1-.6.2-.7.4-.1.2-.2.4-.2.8v3.1c0 .4.1.5.1.5s.1.1.5.1h5.5v-3.1c0-.6-.1-1-.2-1.2-.1-.2-.4-.4-.8-.5-.3-.1-.4-.2-.3-.3 0-.1 0-.3.3-.3h.6c.4 0 .8.1 1.2.1.6 0 1 0 1.3-.1h.3c.2 0 .3.2.3.3 0 .1 0 .2-.3.3l-.3.1c-.1 0-.3.1-.4.3-.1.2-.2.4-.2.7v8.3c0 .7.1 1.1.2 1.2.1.2.4.3.9.4.3 0 .4.2.4.3 0 .1 0 .2-.1.2-.1.1-.2.1-.3.1h-2.9c-.3-.2-.5-.2-.6-.2v-.1.1z"/><path class="st0" d="M135.6 56c-.3 0-.5.2-.5.4 0 .1 0 .4.5.4.4.1.7.2.8.4.1.2.2.5.2.9v7.4c0 1-.1 1.4-.1 1.6-.1.3-.2.4-.3.4l-.4.1c-.4.1-.4.3-.4.5s.1.4.5.4h3.9c.2 0 .3 0 .4-.1.1-.1.1-.2.1-.3 0-.1-.1-.4-.6-.5-.4 0-.7-.2-.9-.4-.1-.1-.2-.4-.2-1.1v-3.4h5.8v3.8c0 1-.4 1.2-.7 1.2-.4.1-.5.3-.5.4 0 .2.1.3.1.3.1.1.2.1.3.1h3.6c.2 0 .3 0 .4-.1.1-.1.1-.2.1-.3 0-.1-.1-.3-.5-.4-.4 0-.7-.2-.8-.3-.1-.1-.2-.4-.2-1.1V58c0-.2 0-.5.1-.6.1-.2.2-.2.3-.3l.4-.1c.4-.1.4-.4.4-.4 0-.2-.1-.4-.5-.4h-1.7c-.4 0-.8 0-1.2-.1h-.6c-.3 0-.5.2-.5.4 0 .1 0 .4.5.5.3.1.6.2.7.4.1.1.2.5.2 1.1v3h-5.7V58c0-.5.1-.7.1-.8.1-.1.2-.2.6-.3.4-.1.4-.3.4-.4 0-.2-.1-.4-.5-.4h-.4c-.3 0-.7.1-1.1.1-.6 0-1.1 0-1.5-.1-.3-.1-.5-.1-.6-.1zm0 .3c.1 0 .3 0 .5.1.4.1 1 .1 1.6.1.4 0 .8 0 1.1-.1h.4c.2 0 .2.1.2.2s-.1.2-.2.2c-.4.1-.6.2-.8.4-.1.2-.2.5-.2.9v3.1c0 .3 0 .5.1.6.1.1.3.1.6.1h5.1c.3 0 .4 0 .5-.1.1 0 .1-.1.1-.3v-2.9c0-.6-.1-1-.2-1.3-.1-.2-.4-.4-.8-.5-.2 0-.3-.1-.2-.2 0-.1.1-.1.2-.1h.6c.4 0 .8.1 1.2.1.6 0 1 0 1.3-.1h.3c.1 0 .2.1.2.2s-.1.1-.2.2l-.3.1c-.2 0-.3.2-.4.4-.1.2-.2.5-.2.8v8.3c0 .6.1 1 .3 1.3.2.2.5.4 1 .4.2 0 .3.1.3.2s-.1.2-.2.2H144c-.1 0-.2-.1-.2-.2s.1-.2.3-.2c.6-.1.9-.6.9-1.5V63c0-.3 0-.4-.1-.5 0 0-.2-.1-.5-.1H139c-.3 0-.5 0-.6.1-.1.1-.1.2-.1.5v3.2c0 .6.1 1 .3 1.3.2.2.5.4 1.1.4.2 0 .3.1.3.2s-.1.2-.2.2h-3.7c-.1 0-.2-.1-.2-.2s.1-.2.2-.2l.4-.1c.3-.1.4-.2.5-.6.1-.3.1-.9.1-1.7v-7.4c0-.5-.1-.9-.3-1.1-.2-.2-.5-.4-1-.4-.2 0-.2-.1-.2-.2-.2-.1-.2-.1 0-.1m22.9 6.1c-.1.2-.1.3-.1.3 0 .1.1.1.3.1h2.8c.1 0 .3 0 .3-.1v-.4l-1.4-3.6c0-.1-.1-.2-.1-.2-.1.1-1.8 3.9-1.8 3.9m-1.3 6h-2.6c-.3 0-.4-.2-.4-.3 0-.2.1-.3.2-.3l.3-.1s.2-.1.4-.4c.2-.2.3-.5.5-.7l.2-.6 4.4-9.8c0-.1.1-.3.4-.3.2 0 .3.1.4.3l3.9 9.9c.3.7.5 1.1.6 1.3.1.1.4.3 1 .4.3.1.4.3.4.3 0 .1 0 .3-.4.3h-3.7c-.3 0-.4-.2-.4-.3 0-.1 0-.3.3-.3l.3-.1c.2 0 .3-.1.3-.5 0-.3-.2-.9-.5-1.8l-.4-1.1c-.2-.4-.2-.5-.2-.5h-3.6c-.5 0-.7.1-.7.1s-.1.1-.4.6l-.6 1.3c-.2.6-.4 1-.4 1.2 0 .2.1.4.2.5.1.1.3.2.7.3.3.1.4.2.4.3 0 .1 0 .1-.1.2s-.2.1-.3.1h-.2z"/><path class="st0" d="M158.6 62.6s0-.1.1-.2l1.6-3.5v.1l1.4 3.4v.2h-3.1m2.1-6.9c-.2 0-.4.1-.5.4l-4.4 9.8-.2.6c-.1.2-.3.5-.4.7-.2.3-.3.3-.3.3l-.3.1c-.2.1-.3.2-.3.4s.1.4.5.4h2.9c.2 0 .3 0 .4-.1.1-.1.1-.2.1-.3 0-.1-.1-.4-.5-.4-.5-.1-.6-.2-.7-.2-.1-.1-.1-.3-.1-.4 0-.2.1-.5.4-1.2l.6-1.3c.2-.5.3-.6.3-.6s.1-.1.6-.1h3.5l.2.4.4 1.1c.4 1.1.5 1.5.5 1.7 0 .3-.1.3-.2.3l-.3.1c-.4.1-.4.3-.4.4 0 .2.1.4.5.4h3.6c.5 0 .5-.3.5-.4 0-.1 0-.4-.5-.5-.6-.1-.9-.3-1-.3-.1-.1-.3-.3-.6-1.2l-.2-.5-3.7-9.5c-.1 0-.3-.1-.4-.1m-1.8 7.2h2.6c.3 0 .4-.1.4-.2v-.4l-1.4-3.4-.1-.2c-.1-.2-.1-.3-.2-.3 0 0-.1.1-.1.2l-1.7 3.7c-.1.2-.1.3-.1.3 0 .2.1.2.4.2l.2.1zm1.8-6.9c.1 0 .2.1.2.2l3.7 9.5.2.5c.3.7.5 1.1.7 1.3.2.2.5.3 1.1.4.2 0 .3.1.3.2s-.1.1-.2.1H163c-.1 0-.2-.1-.2-.2s.1-.2.2-.2l.3-.1c.3-.1.4-.3.4-.6s-.2-.9-.5-1.8l-.4-1.1c-.1-.3-.2-.5-.3-.5-.1 0-.3-.1-.6-.1h-3.1c-.4 0-.7 0-.8.1-.1.1-.2.3-.4.7l-.6 1.3c-.3.6-.4 1-.4 1.3 0 .3.1.5.2.6.1.1.4.2.8.3.2 0 .3.1.3.2s-.1.1-.2.1h-2.9c-.2 0-.2-.1-.2-.2s0-.2.1-.2l.3-.1c.1 0 .3-.2.5-.4s.4-.5.5-.8l.2-.6 4.4-9.8c-.1 0 0-.1.1-.1m12.1 12.5c-1 0-1.9-.2-2.7-.6-.8-.4-1.4-.9-1.8-1.6-.4-.8-.6-1.8-.6-3v-4.8c0-.6-.1-1-.2-1.2-.1-.2-.5-.3-.9-.4-.3 0-.3-.2-.3-.3 0-.1 0-.3.5-.3h3.6c.3 0 .3.2.3.3 0 .1-.1.3-.4.3-.3.1-.5.2-.6.4-.1.2-.2.6-.2 1.1v4.9c0 1.4.2 2.5.7 3.1.6.9 1.7 1.3 3.2 1.3 1.3 0 2.3-.4 3-1.1.7-.7 1-1.8 1-3.3v-4.5c0-.7-.1-1.2-.3-1.5-.2-.3-.5-.4-1-.5-.3 0-.4-.2-.4-.3 0-.2.1-.3.3-.3.2 0 .3 0 .6.1h2.4c.2 0 .3.1.3.3 0 .1 0 .2-.3.3-.3.1-.5.3-.6.5-.1.2-.1.7-.1 1.4V63c0 1.6-.3 2.8-1 3.7-.4.5-1 1-1.8 1.3-1.1.4-1.9.5-2.7.5"/><path class="st0" d="M175.7 56c-.2 0-.4.2-.4.4 0 .1 0 .4.5.4.4 0 .7.2.9.4.2.3.3.8.3 1.4v4.5c0 1.4-.3 2.5-1 3.2-.6.7-1.6 1-2.9 1-1.4 0-2.5-.4-3.1-1.2-.4-.6-.6-1.6-.6-3v-4.9c0-.6.1-.9.1-1 .1-.1.2-.2.5-.3.4-.1.5-.3.5-.5s-.1-.4-.5-.4h-3.6c-.6 0-.6.4-.6.5 0 .1 0 .4.5.4.4.1.7.2.8.4.1.1.2.4.2 1.1v4.9c0 1.2.2 2.3.6 3 .4.7 1 1.2 1.8 1.7.8.4 1.7.6 2.7.6.9 0 1.7-.2 2.5-.5s1.4-.8 1.8-1.4c.7-.9 1-2.1 1-3.8v-4.3c0-.8.1-1.2.1-1.4.1-.2.3-.3.5-.5.3-.1.3-.3.3-.4 0-.2-.2-.4-.4-.4h-2.3c.2.2 0 .1-.2.1zm0 .3c.1 0 .3 0 .6.1.2 0 .5.1.8.1h1.6c.1 0 .2.1.2.2s-.1.2-.2.2c-.4.1-.6.3-.7.6-.1.3-.2.7-.2 1.5v4c0 1.6-.3 2.8-.9 3.6-.4.5-1 1-1.7 1.3-.7.3-1.5.5-2.4.5-1 0-1.9-.2-2.6-.6-.8-.4-1.4-.9-1.7-1.5-.4-.7-.6-1.7-.6-2.9v-4.9c0-.6-.1-1-.3-1.3-.2-.2-.5-.4-1-.5-.2 0-.2-.1-.2-.2s.1-.2.3-.2h3.5c.1 0 .2 0 .2.1s-.1.2-.3.2c-.3.1-.6.2-.7.4-.1.2-.2.6-.2 1.2v4.9c0 1.5.2 2.5.7 3.2.6.9 1.7 1.3 3.3 1.3 1.4 0 2.4-.4 3.1-1.1.7-.7 1-1.9 1-3.4v-4.5c0-.7-.1-1.2-.3-1.6-.2-.3-.6-.5-1.1-.6-.2 0-.3-.1-.3-.2-.1.1 0 .1.1.1m8.3 12.2c-.5 0-1-.1-1.5-.2s-.9-.3-1.2-.5l-.3-.3c0-.1-.1-.3-.2-.6l-.2-.8c-.2-.5-.2-.9-.2-1.1 0-.3.2-.4.3-.4.2 0 .4.3.4.5.2.7.6 1.3 1.3 1.7.6.5 1.3.7 2.1.7s1.4-.2 1.9-.7c.5-.4.8-1 .8-1.6 0-.6-.2-1.1-.7-1.5-.2-.1-.7-.4-2.2-.9-1.3-.4-2.2-.9-2.8-1.5-.6-.5-.8-1.3-.8-2.1 0-1 .4-1.8 1.1-2.4.7-.6 1.6-.9 2.8-.9.6 0 1.2.1 1.6.3l.6.2h.1s.1 0 .1-.1l.1-.1s.1-.1.2-.1c.2 0 .3.1.3.6 0 .1 0 .2.1.8l.1.9v.4c0 .4-.2.4-.3.4-.2 0-.3-.3-.4-.5-.2-.6-.6-1.1-1.2-1.5-.6-.4-1.3-.6-2-.6-.6 0-1.1.2-1.5.5-.4.3-.6.8-.6 1.3s.1.8.4 1.2c.2.3.5.5.7.6.3.1.9.4 2 .7 2.2.7 3.3 1.9 3.3 3.5 0 1.1-.4 2-1.2 2.7-.7 1.1-1.8 1.4-3 1.4"/><path class="st0" d="M184.5 55.9c-1.1 0-2.1.3-2.8.9-.8.6-1.1 1.5-1.1 2.5 0 .9.3 1.6.9 2.2.6.6 1.5 1 2.8 1.5 1.6.5 2 .8 2.1.9.4.4.7.9.7 1.4 0 .6-.2 1.1-.7 1.5-.5.4-1.1.6-1.8.6s-1.4-.2-2-.7c-.6-.4-1-1-1.2-1.7 0-.2-.2-.6-.5-.6-.1 0-.4 0-.4.5 0 .2.1.6.2 1.2l.1.3c.1.3.1.5.1.5.1.5.2.6.2.7l.3.3c.3.2.7.3 1.2.5.5.1 1.1.2 1.5.2 1.3 0 2.4-.4 3.2-1.1.8-.7 1.3-1.7 1.3-2.8 0-1.7-1.1-2.9-3.4-3.7-1.1-.4-1.8-.6-2-.7-.2-.1-.5-.3-.7-.6-.2-.3-.3-.7-.3-1.1 0-.5.2-.9.5-1.2.4-.3.8-.5 1.4-.5.7 0 1.4.2 2 .6.6.4 1 .8 1.1 1.4.1.2.2.6.5.6.2 0 .4-.1.4-.5v-.4l-.1-.9c-.1-.6-.1-.8-.1-.8 0-.6-.3-.7-.5-.7s-.2.1-.3.1l-.1.1h-.1l-.6-.2c-.6-.2-1.1-.3-1.8-.3m0 .3c.6 0 1.1.1 1.6.3l.6.2h.2c.1 0 .1 0 .2-.1l.1-.1h.1c.1 0 .2.1.2.4 0 .1 0 .4.1.9l.1.9v.4c0 .2-.1.3-.2.3s-.2-.1-.3-.4c-.2-.6-.6-1.1-1.3-1.5-.6-.4-1.3-.6-2.1-.6-.6 0-1.1.2-1.5.5-.4.4-.6.8-.6 1.4 0 .5.1.9.4 1.2.2.3.5.5.8.7.3.1 1 .4 2 .7 2.1.7 3.2 1.8 3.2 3.4 0 1.1-.4 1.9-1.2 2.6-.8.7-1.8 1-3 1-.4 0-.9-.1-1.5-.2-.5-.1-.9-.3-1.2-.4-.1-.1-.2-.1-.2-.2s-.1-.3-.2-.6c0 0-.1-.3-.2-.8s-.2-.9-.2-1.1c0-.2.1-.2.2-.2s.2.1.3.4c.2.7.6 1.3 1.3 1.8.7.5 1.4.7 2.2.7.8 0 1.5-.2 2-.7.5-.5.8-1 .8-1.7 0-.6-.3-1.2-.8-1.6-.3-.2-1-.5-2.2-1-1.3-.4-2.2-.9-2.7-1.4-.5-.5-.8-1.2-.8-2 0-.9.3-1.7 1-2.3.9-.6 1.7-.9 2.8-.9m12.2 12.2c-.1 0-.2 0-.4-.1h-2.7c-.3 0-.5.1-.6.1-.4 0-.4-.2-.4-.3 0-.1.1-.3.4-.3.4-.1.7-.2.8-.3.1-.2.2-.5.2-.9v-8.8c0-.3-.1-.3-.1-.3s-.1-.1-.3-.1h-2.3c-.4 0-.7.1-.9.2-.2.2-.3.5-.4 1-.1.3-.2.4-.3.4-.1 0-.3 0-.3-.4 0-.1 0-.3.1-.7.1-.4.1-.7.1-1 0-.3 0-.5.1-.6.1-.1.2-.2.5-.2h9.3c.5 0 .6.1.7.1.1.1.1.3.1.7v.7c0 .2 0 .3.1.4 0 .3-.2.4-.3.4-.1 0-.3-.1-.3-.4-.1-.5-.2-.6-.3-.7-.1-.1-.3-.2-.9-.2h-2.4c-.3 0-.4.1-.4.1s-.1.1-.1.4v8.7c0 .6.4 1 1 1.1.3 0 .4.2.4.3 0 .5-.1.7-.4.7"/><path class="st0" d="M199.4 56.2h-9.3c-.3 0-.5.1-.6.2-.1.1-.1.3-.1.7 0 .3 0 .6-.1 1-.1.3-.1.6-.1.7 0 .3.2.5.4.5s.4-.1.5-.5c.1-.6.3-.8.4-.9.2-.1.4-.2.8-.2h2.5v8.9c0 .5-.1.8-.2.8-.1.1-.3.2-.7.3-.4 0-.5.3-.5.4 0 .2.1.4.5.4.1 0 .2 0 .6-.1h2.6c.3 0 .4.1.5.1.4 0 .5-.2.5-.4 0-.1-.1-.4-.5-.4-.6-.1-.9-.4-.9-1v-9h2.7c.6 0 .8.1.8.1.1 0 .2.2.3.6.1.4.3.5.5.5s.5-.2.4-.5c0-.1 0-.2-.1-.4v-.7c0-.4 0-.7-.2-.8 0-.3-.2-.3-.7-.3m0 .2c.3 0 .5 0 .6.1.1.1.1.3.1.6v.7c0 .2 0 .3.1.4 0 .2-.1.3-.2.3s-.2-.1-.2-.3c-.1-.4-.2-.7-.4-.8-.2-.1-.5-.2-1-.2H196c-.3 0-.4 0-.5.1-.1.1-.1.2-.1.5v8.7c0 .7.4 1.1 1.1 1.2.2 0 .3.1.3.2s-.1.2-.2.2-.2 0-.4-.1h-2.7c-.3 0-.5.1-.6.1-.2 0-.3-.1-.3-.2s.1-.1.3-.2c.4-.1.7-.2.9-.4.2-.2.2-.5.2-1v-8.5c0-.2 0-.3-.1-.4-.1-.1-.2-.1-.4-.1h-2.3c-.5 0-.8.1-1 .3-.2.2-.4.5-.5 1.1-.1.2-.1.3-.2.3s-.2-.1-.2-.2 0-.3.1-.7c.1-.4.1-.8.1-1 0-.3 0-.4.1-.5.1-.1.2-.1.4-.1h9.4zm6 .6c-.4 0-.5.1-.6.1-.1.1-.1.3-.1.5v3.8c0 .3.1.4.1.4s.1.1.4.1h1c.7 0 1.3-.2 1.7-.6.4-.4.6-.9.6-1.6 0-.8-.3-1.5-.8-2-.7-.4-1.4-.7-2.3-.7m6.1 11.5c-.5 0-1-.2-1.5-.4-.4-.3-.9-.8-1.3-1.4l-2.3-3.5c-.1-.2-.3-.3-.6-.3h-1.3V66c0 .6 0 .9.1 1 0 .2.1.3.3.4.2.2.6.3 1.1.3.3 0 .4.2.4.3 0 .1 0 .2-.1.2-.1.1-.2.1-.4.1h-4c-.2 0-.3-.1-.3-.3 0-.1.1-.2.3-.3.4-.1.7-.3.8-.5.1-.3.2-.9.2-1.9v-7.1c0-.8-.3-1.3-.8-1.4l-.4-.1c-.3-.1-.4-.2-.4-.3 0-.1 0-.3.4-.3h1.4c.3 0 .7 0 1.3-.1h1.2c1.3 0 2.4.3 3.1.8.7.5 1.1 1.3 1.1 2.3 0 1.3-.7 2.3-2.1 3l2.6 3.8c.7 1 1.4 1.6 1.9 1.6h.3c.1 0 .2 0 .2.1v.1c0 .2-.3.3-.5.4-.1.3-.4.4-.7.4"/><path class="st0" d="M204.8 61.8v-4.1c0-.2 0-.4.1-.4 0 0 .2-.1.5-.1.8 0 1.5.2 2.1.7.5.5.8 1.1.8 1.9 0 .7-.2 1.1-.6 1.5-.4.4-.9.5-1.6.5h-1.3m1-5.7h-1.2c-.6 0-1.1.1-1.3.1H202c-.5 0-.6.4-.6.4 0 .1 0 .4.5.5l.4.1c.3 0 .7.2.7 1.2v7.1c0 .9-.1 1.6-.2 1.8-.1.3-.3.4-.7.5-.4.1-.4.3-.4.4 0 .2.1.4.5.4h4c.2 0 .4-.1.5-.2.1-.1.1-.2.1-.3 0-.1-.1-.4-.6-.4s-.8-.2-1-.3c-.1-.1-.2-.2-.3-.4 0-.1-.1-.3-.1-.9V63h1.2c.2 0 .4.1.4.2l.1.2 2.1 3.3c.4.7.9 1.2 1.3 1.5.5.3 1 .5 1.5.5.3 0 .6 0 .9-.1.1 0 .5-.1.6-.5 0-.1 0-.2-.1-.3-.1-.1-.2-.1-.3-.1h-.3c-.5 0-1.2-.6-1.8-1.6l-.3-.4-2.2-3.3c1.3-.7 2-1.8 2-3.1 0-1.1-.4-1.9-1.1-2.4-.6-.6-1.7-.8-3-.8m-.7 6h1c.8 0 1.3-.2 1.8-.6.4-.4.6-1 .6-1.7 0-.8-.3-1.5-.9-2.1-.6-.5-1.3-.8-2.2-.8-.3 0-.6.1-.7.2-.1.1-.2.3-.2.6v3.8c0 .3 0 .4.1.5.1.1.2.1.5.1m.7-5.8c1.3 0 2.3.2 3 .7.7.5 1 1.2 1 2.2 0 1.3-.7 2.3-2.1 3l2.4 3.5.3.4c.7 1.1 1.4 1.6 2 1.7h.3c.1 0 .2 0 .1.1 0 .1-.1.2-.4.2-.2.1-.5.1-.8.1-.5 0-1-.1-1.4-.4-.4-.3-.8-.8-1.2-1.4l-2.1-3.3-.1-.2c-.1-.2-.4-.4-.7-.4h-1.3c-.1 0-.1.1-.1.3v3c0 .5 0 .8.1 1 .1.2.2.3.4.5s.6.3 1.1.4c.2 0 .3.1.3.2s-.1.2-.3.2h-4c-.1 0-.2-.1-.2-.2s.1-.1.2-.2c.5-.1.8-.3.9-.6.1-.3.2-1 .2-2V58c0-.9-.3-1.4-.9-1.5l-.4-.1c-.2 0-.3-.1-.3-.2s.1-.2.3-.2h1.4c.3 0 .7 0 1.4-.1.1.4.5.4.9.4m13.3 2.3l-1.7 3.7c-.1.2-.1.3-.1.3 0 .1.1.1.3.1h2.8c.2 0 .3 0 .3-.1v-.4l-1.3-3.4-.1-.2c-.1.1-.2 0-.2 0m-3 9.8h-2.6c-.3 0-.4-.2-.4-.3 0-.1.1-.3.2-.3l.3-.1s.2-.1.4-.4c.2-.2.3-.5.5-.7l.2-.6 4.4-9.8c0-.1.1-.3.4-.3.2 0 .3.1.4.3l3.7 9.5.2.5c.3.8.5 1.1.6 1.3.1.1.4.3 1 .4.3.1.4.2.4.3 0 .1-.1.3-.4.3h-3.7c-.3 0-.4-.2-.4-.3 0-.1 0-.3.3-.3l.3-.1c.2 0 .3-.2.3-.5s-.2-.9-.5-1.8l-.4-1.1c-.2-.4-.2-.5-.2-.5h-3.6c-.5 0-.7.1-.7.1s-.1.1-.4.6l-.6 1.3c-.3.7-.4 1.1-.4 1.2 0 .2.1.4.2.5.1.1.3.2.7.3.3.1.4.2.4.3 0 .1 0 .1-.1.2s-.2.1-.3.1l-.2-.1z"/><path class="st0" d="M217.4 62.6s0-.1.1-.2l1.6-3.5v.1l1.4 3.4v.2h-3.1m2.2-6.9c-.2 0-.4.1-.5.4l-4.4 9.8-.2.6c-.1.2-.3.5-.4.7-.2.3-.3.3-.3.3l-.3.1c-.2.1-.3.2-.3.4s.1.4.5.4h2.9c.2 0 .3 0 .4-.1.1-.1.1-.2.1-.3 0-.1-.1-.4-.5-.4-.5-.1-.6-.2-.7-.2-.1-.1-.1-.3-.1-.4 0-.2.1-.5.4-1.2l.6-1.3c.2-.5.3-.6.3-.6s.1-.1.6-.1h3.5s.1.1.2.4l.4 1.1c.4 1.1.5 1.5.5 1.7 0 .3-.1.3-.2.3l-.3.1c-.4.1-.4.3-.4.4 0 .2.1.4.5.4h3.7c.4 0 .5-.3.5-.4 0-.1 0-.4-.5-.5-.6-.1-.9-.3-.9-.3-.1-.1-.3-.3-.6-1.2l-.2-.5-3.7-9.5c-.3 0-.5-.1-.6-.1m-1.8 7.2h2.6c.3 0 .4-.1.4-.2v-.4l-1.4-3.4-.1-.2c-.1-.2-.1-.3-.2-.3 0 0-.1.1-.1.2l-1.7 3.7c-.1.2-.1.3-.1.3 0 .2.1.2.4.2l.2.1zm1.8-6.9c.1 0 .2.1.2.2l3.7 9.5.2.5c.3.7.5 1.1.7 1.3.2.2.5.3 1.1.4.2 0 .3.1.3.2s-.1.1-.2.1h-3.7c-.2 0-.2-.1-.2-.2s.1-.2.2-.2l.3-.1c.3-.1.4-.3.4-.6s-.2-.9-.5-1.8l-.4-1.1c-.1-.3-.2-.5-.3-.5-.1 0-.3-.1-.6-.1h-3.1c-.4 0-.7 0-.8.1-.1.1-.2.3-.4.7l-.6 1.3c-.3.6-.4 1-.4 1.3 0 .3.1.5.2.6.1.1.4.2.8.3.2 0 .3.1.3.2s-.1.1-.2.1h-3c-.2 0-.2-.1-.2-.2s.1-.2.1-.2l.3-.1c.1 0 .3-.2.5-.4s.4-.5.5-.8l.2-.6 4.4-9.8s.1-.1.2-.1m8 12.4c-.1 0-.2 0-.2-.1 0 0-.1-.1-.1-.2s.1-.2.3-.3c.4-.1.6-.3.7-.5.1-.2.2-.6.2-1.1v-8.1c0-.7-.3-1.1-.8-1.2l-.4-.1c-.3-.1-.3-.2-.3-.3 0-.1 0-.3.4-.3h.6c.4 0 .8.1 1.3.1h1.8c.3 0 .3.2.3.3 0 .1 0 .3-.3.4l-.3.1c-.4.1-.7.6-.7 1.4v7.8c0 .9.1 1.1.2 1.1 0 0 .3.1 1.2.1 1.1 0 2-.1 2.8-.4.8-.2 1.2-.6 1.4-.9.1-.2.2-.3.4-.3.1 0 .2 0 .2.1.1.1.1.1.1.2 0 .4-.2.9-.6 1.3-.5.7-1.4 1-2.5 1h-.6l-.9-.1c-.5 0-1.1-.1-1.7-.1-.7 0-1.3 0-1.8.1h-.7z"/><path class="st0" d="M227.4 56.1c-.5 0-.6.4-.6.5 0 .1 0 .3.4.4l.4.1c.3.1.7.2.7 1.1v8.1c0 .6-.1.9-.2 1-.1.2-.3.3-.7.4-.4.1-.4.3-.4.5s.1.4.5.4c.2 0 .3 0 .5-.1.5-.1 1.1-.1 1.7-.1.6 0 1.2 0 1.7.1l.9.1h.7c1.2 0 2.1-.3 2.6-1 .4-.5.6-1 .6-1.4 0-.1 0-.3-.1-.3-.1-.1-.1-.1-.3-.1-.2 0-.3.1-.5.4-.2.4-.6.7-1.4.9-.8.2-1.7.4-2.7.4-.9 0-1.1-.1-1.1-.1s-.1-.2-.1-1v-7.8c0-.8.2-1.2.6-1.3l.3-.1c.4-.1.5-.4.5-.5 0-.2-.1-.4-.5-.4h-1.8c-.4 0-.9 0-1.3-.1-.1-.1-.3-.1-.4-.1m0 .3h.5c.4 0 .8.1 1.3.1h1.8c.1 0 .2 0 .2.1s-.1.2-.3.2l-.3.1c-.5.1-.8.6-.8 1.5v7.8c0 .7.1 1.1.2 1.2.1.1.6.2 1.3.2 1.1 0 2-.1 2.8-.4.8-.3 1.3-.6 1.5-1 .1-.2.2-.2.2-.2.1 0 .1.1.1.2 0 .4-.2.8-.6 1.2-.5.6-1.3.9-2.4.9h-.6l-.9-.1c-.5 0-1.1-.1-1.7-.1-.7 0-1.3 0-1.8.1-.2 0-.4 0-.5.1-.1 0-.2-.1-.2-.2s.1-.2.2-.2c.4-.1.7-.3.8-.5.1-.2.2-.6.2-1.2v-8.1c0-.8-.3-1.2-.9-1.3l-.4-.1c-.1 0-.2-.1-.2-.2.2-.1.3-.1.5-.1m14.1 12h-2.4l-1 .1h-.4c-.3 0-.4-.2-.4-.3 0-.1 0-.3.4-.3.4-.1.6-.2.8-.4.1-.1.2-.5.2-1.4v-7.4c0-.9-.1-1.2-.2-1.4-.1-.2-.5-.4-1-.4-.2 0-.4-.2-.4-.3 0-.1 0-.2.1-.2.1-.1.2-.1.3-.1h.1c.4.1 1 .1 1.7.1h1.9c.3 0 .4.2.4.3 0 .1 0 .3-.3.3l-.4.2c-.3.1-.6.5-.6 1.9v6.5c0 .8 0 1.3.1 1.5.1.3.2.5.4.6.2.1.4.2.7.2.2 0 .5.1.5.3-.1 0-.1.2-.5.2"/><path class="st0" d="M241.1 56.1h-1.9c-.7 0-1.2 0-1.6-.1h-.2c-.2 0-.3 0-.4.1-.1.1-.1.2-.1.3 0 .1.1.4.5.4.5.1.8.2.9.4.1.1.2.4.2 1.3V66c0 .9-.1 1.2-.2 1.3-.1.2-.3.3-.7.3-.4.1-.5.3-.5.4 0 .2.1.4.5.4h.4l1-.1h2.5c.4 0 .5-.2.5-.5 0-.4-.5-.4-.7-.5-.4-.1-.6-.1-.7-.2-.1-.1-.2-.3-.3-.5-.1-.2-.1-.5-.1-1.5v-6.5c0-1.5.3-1.8.5-1.8l.4-.2c.4-.1.4-.4.4-.5.1.2-.1 0-.4 0m0 .2c.2 0 .2.1.2.2s-.1.2-.2.2l-.4.2c-.4.2-.6.8-.6 2.1v6.5c0 .8 0 1.3.1 1.6.1.3.3.5.4.6.2.1.4.2.8.3.3 0 .4.1.4.2s-.1.2-.3.2h-2.4l-1 .1h-.4c-.2 0-.2-.1-.2-.2s.1-.2.3-.2c.4-.1.7-.2.8-.5.1-.2.2-.7.2-1.4v-7.4c0-.7-.1-1.2-.2-1.4-.2-.2-.5-.4-1-.5-.2 0-.3-.1-.3-.2s.1-.2.3-.2h.2c.4.1 1 .1 1.7.1h1.7c-.2-.3-.2-.3-.1-.3m7.7 2.3l-1.7 3.7c-.1.2-.1.3-.1.3 0 .1.1.1.3.1h2.8c.1 0 .3 0 .3-.1v-.4l-1.4-3.6c-.1.1-.2 0-.2 0m-3 9.8h-2.6c-.3 0-.4-.2-.4-.3 0-.2.1-.3.2-.3l.3-.1s.2-.1.4-.4c.2-.2.3-.5.5-.7l.2-.6 4.4-9.8c0-.1.1-.3.4-.3.1 0 .3.1.4.3l3.7 9.5.2.5c.3.8.5 1.1.6 1.3.2.2.5.3 1 .4.3.1.4.2.4.3 0 .1-.1.3-.4.3h-3.7c-.3 0-.4-.2-.4-.3 0-.1 0-.3.3-.3l.3-.1c.2 0 .3-.1.3-.5 0-.3-.2-.9-.5-1.8l-.4-1.1c-.2-.4-.2-.5-.2-.5h-3.6c-.5 0-.7.1-.7.1s-.1.1-.4.6l-.6 1.3c-.2.6-.4 1-.4 1.2 0 .2.1.4.2.5.1.1.3.2.7.3.3.1.4.2.4.3 0 .1 0 .1-.1.2s-.2.1-.3.1l-.2-.1z"/><path class="st0" d="M247.2 62.6s0-.1.1-.2l1.6-3.5v.1l1.4 3.4v.2h-3.1m2.1-6.9c-.2 0-.4.1-.5.4l-4.4 9.8-.2.6c-.1.2-.3.5-.4.7-.2.3-.3.3-.3.3l-.3.1c-.2.1-.3.2-.3.4s.1.4.5.4h2.9c.2 0 .3 0 .4-.1.1-.1.1-.2.1-.3 0-.1-.1-.4-.5-.4-.4-.1-.6-.2-.7-.2-.1-.1-.1-.3-.1-.4 0-.2.1-.5.4-1.2l.6-1.3c.2-.5.3-.6.3-.6s.1-.1.6-.1h3.5l.2.4.4 1.1c.4 1.1.5 1.5.5 1.7 0 .3-.1.3-.2.3l-.3.1c-.4.1-.4.3-.4.4 0 .2.1.4.5.4h3.6c.5 0 .5-.3.5-.4 0-.1 0-.4-.5-.5-.6-.1-.9-.3-1-.3-.1-.1-.3-.3-.6-1.2l-.2-.5-3.7-9.5c-.1 0-.3-.1-.4-.1m-1.8 7.2h2.6c.3 0 .4-.1.4-.2v-.4l-1.4-3.4-.1-.2c-.1-.2-.1-.3-.2-.3 0 0-.1.1-.1.2l-1.7 3.7c-.1.2-.1.3-.1.3 0 .2.1.2.4.2l.2.1zm1.8-6.9c.1 0 .2.1.2.2l3.7 9.5.2.5c.3.7.5 1.1.7 1.3.2.2.5.3 1.1.4.2 0 .3.1.3.2s-.1.1-.2.1h-3.7c-.1 0-.2-.1-.2-.2s.1-.2.2-.2l.3-.1c.3-.1.4-.3.4-.6s-.2-.9-.5-1.8l-.4-1.1c-.1-.3-.2-.5-.3-.5-.1 0-.3-.1-.6-.1h-3.1c-.4 0-.7 0-.8.1-.1.1-.2.3-.4.7l-.6 1.3c-.3.6-.4 1-.4 1.3 0 .3.1.5.2.6.1.1.4.2.8.3.2 0 .3.1.3.2s-.1.1-.2.1h-3c-.2 0-.2-.1-.2-.2s0-.2.1-.2l.3-.1c.1 0 .3-.2.5-.4s.4-.5.5-.8l.2-.6 4.4-9.8s.1-.1.2-.1"/></svg>