<svg id="Layer_1" xmlns="http://www.w3.org/2000/svg" width="320" height="240" viewBox="0 0 320 240"><style>.st0{fill:#4C4845;} .st1{fill:none;}</style><path id="XMLID_28_" class="st0" d="M103.718 10.322c4.188 0 8.39.16 12.593.48 6.9.534 13.77 1.507 20.65 2.928 16.09 3.322 32 9.112 47.2 17.515 15.22 8.41 28.58 18.8 39.98 30.667 4.84 5.054 9.332 10.366 13.42 15.902 7.103 9.57 13.067 19.782 17.854 30.452-4.145.57-8.277 1.316-12.35 2.218-6.325-13.497-14.735-26.18-25.034-37.52-4.49-4.915-9.34-9.604-14.55-13.988-7.61-6.433-16.01-12.228-25.104-17.256-9.09-5.023-18.45-9.043-27.975-12.082-6.46-2.068-13.012-3.683-19.542-4.856-8.922-1.598-17.88-2.38-26.766-2.38-6.162 0-12.295.376-18.357 1.12-1.396-3.922-2.95-7.815-4.658-11.614 7.456-1.058 15.03-1.586 22.65-1.586"/><path id="XMLID_27_" class="st0" d="M81.066 11.908l-.73.716 4.778 10.803.608.094c7.723 21.57 10.768 44.56 8.59 67.36 18.134-13.97 39.222-23.64 61.58-28.57 4.08-.892 8.195-1.65 12.326-2.223 1.725 3.81 3.292 7.71 4.676 11.625.312.836.6 1.687.898 2.53 6.98 20.58 9.71 42.388 7.758 64.01l-.04.584-.043.22c18.166-13.958 39.227-23.64 61.59-28.566l.428.478 11.68-1.706.24-.99c1.71 3.804 3.27 7.696 4.672 11.622 14.492 40.517 12.446 86.076-9.53 125.835-18.844 34.09-49.112 58.057-83.878 70.05l-37.68 68.164-14.04-7.76 54.35-98.327 37.94-10.126c.93-.26 1.82-.62 2.59-1.08 2.62-1.31 4.86-3.36 6.357-6.07l.342-.62c1.15-2.077 1.73-4.317 1.826-6.555l-44.937 11.99 19.137-34.626 39.8-10.625c.93-.24 1.815-.62 2.614-1.07 2.613-1.296 4.846-3.367 6.34-6.07l.346-.626c1.146-2.07 1.737-4.31 1.83-6.55l-46.814 12.5 19.103-34.56 25.173-6.72c.94-.243 1.822-.614 2.62-1.074 2.607-1.31 4.836-3.363 6.336-6.08l.34-.613c1.15-2.08 1.75-4.312 1.84-6.54l-32.05 8.54 27.22-49.244c-25.69 5.46-49.6 17.69-68.79 35.86-10.123 9.586-18.934 20.833-26.002 33.62-7.067 12.786-11.903 26.224-14.633 39.895-4.816 24.028-3.106 48.75 4.37 71.88l-11.26 20.38c-5.565.578-11.175.868-16.814.868-4.21 0-8.44-.16-12.68-.485-6.85-.538-13.75-1.505-20.6-2.91-8.956-1.86-17.84-4.46-26.58-7.85l-28.446 51.46-14-7.74 70.35-127.28 37.968-10.15c.95-.25 1.83-.615 2.633-1.06 2.61-1.318 4.845-3.368 6.34-6.08l.346-.62c1.148-2.074 1.747-4.304 1.82-6.555l-44.99 12.018 19.142-34.633 39.85-10.645c.95-.23 1.82-.615 2.61-1.07 2.618-1.293 4.855-3.36 6.35-6.065l.345-.628c1.146-2.073 1.73-4.317 1.822-6.55l-46.87 12.503 19.105-34.563 25.245-6.714c.94-.246 1.808-.626 2.602-1.088 2.625-1.3 4.838-3.36 6.34-6.076l.34-.614c1.15-2.08 1.753-4.31 1.846-6.535l-32.242 8.6 27.16-49.143.117-.2c-25.678 5.47-49.568 17.69-68.74 35.85-10.137 9.584-18.926 20.84-25.99 33.63-7.07 12.785-11.928 26.21-14.647 39.887-4.816 24.05-3.13 48.817 4.382 71.96L29.56 301.32c-13.545-7.997-25.54-17.56-35.89-28.35-4.86-5.066-9.336-10.385-13.463-15.92-1.66-2.275-3.276-4.578-4.857-6.927l-20.7 37.465-13.98-7.727 54.295-98.23 38.117-10.15c.936-.254 1.82-.615 2.603-1.073 2.613-1.315 4.847-3.364 6.346-6.075l.35-.62c1.148-2.08 1.74-4.313 1.827-6.557L-.91 169.19l19.142-34.63 39.978-10.675c.917-.247 1.82-.617 2.61-1.07 2.602-1.303 4.843-3.37 6.34-6.074l.344-.62c1.145-2.07 1.74-4.31 1.822-6.55L22.35 122.11l19.1-34.556 25.34-6.768c.937-.246 1.826-.614 2.628-1.07 2.605-1.312 4.85-3.354 6.353-6.07l.34-.616c1.15-2.08 1.75-4.316 1.82-6.55l-32.37 8.636 27.35-49.44C33.68 34.044-1.4 58.11-21.872 95.15c-19.507 35.29-22.01 75.57-10.215 111.882l-7.817 14.144c-.845-2.055-1.64-4.137-2.376-6.206-14.5-40.51-12.44-86.097 9.527-125.837C-10.78 49.373 26.71 23.405 68.73 14.125c4.064-.905 8.2-1.65 12.344-2.217"/><path id="XMLID_24_" class="st0" d="M81.066 11.908c1.705 3.8 3.262 7.69 4.657 11.613l-.61-.09-4.778-10.8.73-.713zm174.338 96.358l-.24.99-11.68 1.706-.427-.478c4.07-.903 8.202-1.65 12.347-2.218"/><path id="XMLID_23_" class="st1" d="M.5 5.954h1206.333v234.132H.5z"/></svg>