<?xml version="1.0" encoding="utf-8"?>
<!-- Generator: Adobe Illustrator 15.1.0, SVG Export Plug-In . SVG Version: 6.00 Build 0)  -->
<!DOCTYPE svg PUBLIC "-//W3C//DTD SVG 1.1//EN" "http://www.w3.org/Graphics/SVG/1.1/DTD/svg11.dtd">
<svg version="1.1" id="Layer_1" xmlns="http://www.w3.org/2000/svg" xmlns:xlink="http://www.w3.org/1999/xlink" x="0px" y="0px"
	 width="300px" height="100px" viewBox="0 0 300 100" enable-background="new 0 0 300 100" xml:space="preserve">
<path fill="#FFFFFF" d="M260.618,99.242C180.578-16.755,124.043,0.095,124.043,0.095l-0.723-0.571H0v99.718H260.618z"/>
<g>
	<g>
		<path fill="#7A7A7A" d="M24.544,19.978c-0.468-0.133-0.943-0.231-1.428-0.281c-3.207-0.328-5.917,0.455-7.711,1.898
			c-0.187,0.102-0.395,0.088-0.507,0.176c-0.265,0.204-0.24,0.497-0.489,0.685c-0.259,0.195-0.694,0.174-0.914,0.398
			c-0.229,0.23-0.21,0.673-0.393,0.928c-0.189,0.262-0.608,0.378-0.75,0.664c-0.139,0.29,0.022,0.7-0.068,1.01
			c-0.086,0.308-0.438,0.566-0.469,0.89c-0.034,0.339,0.27,0.67,0.31,1c0.04,0.331-0.176,0.726-0.067,1.046
			c0.106,0.312,0.513,0.492,0.678,0.791c0.159,0.285,0.095,0.733,0.305,1.002c0.2,0.256,0.642,0.3,0.885,0.539
			c0.231,0.229,0.284,0.678,0.551,0.888c0.256,0.201,0.696,0.141,0.981,0.322c0.274,0.175,0.416,0.605,0.713,0.757
			c0.29,0.149,0.712,0.01,1.023,0.138c0.301,0.125,0.509,0.525,0.828,0.63c0.037,0.011,0.076,0.019,0.116,0.022
			C18.345,28.192,20.715,23.323,24.544,19.978"/>
		<path fill="#7A7A7A" d="M34.085,73.699l-0.092,1.177c0.028,0.204-0.58,0.051-0.631,0c0,0-0.205,0-1.929-1.475
			c-1.541-1.318-2.675-3.565-3.728-5.967c-2.56-5.836-2.597-11.494-0.09-12.637c1.832-0.831,6.211,0.539,8.338,3.982
			c0.042,0.068-0.216,1.076-0.587,2.834c1.216-1.299,1.846-1.33,3.668-1.969c-1.76,1.25-3.153,2.98-4.031,4.988
			c1.245-1.221,2.741-2.157,4.382-2.733l0.003,0.004c-1.812,1.283-3.245,3.08-4.123,5.166c1.295-1.343,2.883-2.369,4.626-2.98
			C36.847,66.245,34.153,69.717,34.085,73.699 M25.812,28.596c-0.753,0.262-1.216-0.099-1.18-0.742
			c0.038-0.752,0.674-1.904,1.429-2.164c0.754-0.264,1.443,0.11,1.54,0.834C27.693,27.245,26.567,28.335,25.812,28.596
			 M50.778,56.794l0.041,0.117c-0.377-0.851-0.936-1.38-1.588-1.622c-1.65-0.612-4.024,0.785-6.028,3.804c0,0-0.38,0.282-0.608,0.05
			c-0.228-0.233-0.188-0.562-0.188-0.562c2.276-3.428,4.982-5.078,7.065-4.304c0.667,0.248,1.226,0.72,1.665,1.391l0.018-0.071
			c0.689-2.386,1.059-4.909,1.053-7.52c-0.004-1.423-0.128-2.816-0.346-4.179c-0.04-0.206-0.082-0.412-0.124-0.612
			c-0.271,1.916-1.125,3.753-2.525,5.336c-1.983,2.243-4.809,3.708-7.958,4.125c-0.606,0.081-1.209,0.121-1.804,0.121
			c-4.755,0-9-2.509-10.689-6.482c-0.099-0.23,0.005-0.499,0.232-0.601c0.229-0.099,0.491,0.007,0.591,0.238
			c1.742,4.097,6.494,6.49,11.555,5.818c0.423-0.057,0.837-0.138,1.246-0.234c0.005-0.023,0.009-0.047,0.017-0.071
			c0.402-2.2,0.963-4.462,2.02-6.718c-1.038,0.012-2.082,0.149-3.117,0.411c-1.278,0.322-2.482,0.817-3.579,1.468
			c-0.072,0.043-0.148,0.063-0.226,0.063c-0.153,0-0.304-0.082-0.387-0.228c-0.031-0.054-0.05-0.114-0.058-0.174
			c-0.847-2.271-2.298-4.269-4.199-5.773c-0.195-0.155-0.23-0.441-0.079-0.641c0.152-0.199,0.434-0.235,0.629-0.081
			c1.924,1.524,3.41,3.521,4.331,5.792c1.044-0.568,2.165-1.014,3.351-1.313c1.257-0.317,2.526-0.453,3.784-0.425
			c1.011-1.907,2.407-3.803,4.4-5.644c-0.193-1.365-0.715-3.18-1.442-4.285l0.01-0.018c0.212,0.152,0.406,0.309,0.592,0.468
			c-1.655-2.778-3.795-5.234-6.309-7.243c0.187-0.012,0.369-0.012,0.473-0.02c0.215-0.017,0.586,0.035,0.946-0.343
			c0.494-0.516,0.39-0.906,0.636-1.177c0.251-0.278,0.743-0.341,0.968-0.629c0.232-0.297,0.18-0.797,0.385-1.103
			c0.209-0.313,0.685-0.451,0.863-0.77c0.183-0.33,0.053-0.816,0.201-1.151c0.154-0.347,0.598-0.568,0.713-0.915
			c0.122-0.362-0.101-0.812-0.027-1.167c0.08-0.374,0.463-0.693,0.493-1.057c0.031-0.381-0.3-0.754-0.326-1.118
			c-0.028-0.38,0.24-0.805,0.15-1.159c-0.094-0.363-0.533-0.594-0.696-0.925c-0.162-0.332-0.083-0.829-0.319-1.122
			c-0.102-0.125-0.253-0.197-0.414-0.259c-0.014-0.027-0.029-0.054-0.048-0.077c-0.15-0.187-0.414-0.258-0.652-0.352
			c-0.176-0.248-0.289-0.587-0.535-0.732c-0.063-0.037-0.134-0.058-0.21-0.072c-0.07-0.108-0.148-0.204-0.252-0.265
			c-0.304-0.176-0.763-0.021-1.097-0.144c-0.004-0.002-0.006-0.003-0.009-0.004c-0.11-0.096-0.224-0.186-0.347-0.236
			c-0.179-0.157-0.357-0.33-0.57-0.372c-0.339-0.068-0.729,0.225-1.088,0.206c-0.344-0.019-0.498-0.304-0.866-0.326
			c-0.159-0.01-0.342,0.133-0.577,0.156c-2.535-0.208-5.517,0.771-8.288,3.092c-0.732,0.613-1.357,1.34-1.887,2.14
			c0.001,0.003,0.005,0.006,0.007,0.01c0.106,0.248-0.004,0.537-0.248,0.646c-0.077,0.035-0.15,0.073-0.226,0.109
			c-0.002,0.003-0.005,0.007-0.007,0.011c-1.317,0.615-2.526,1.393-3.625,2.291c-0.011-0.004-0.021-0.007-0.031-0.012
			c-2.628,2.146-4.587,5.028-5.644,8.282c0.939,0.453,1.854,1.625,2.338,3.166c0.705,2.244,0.233,4.404-1.052,4.823
			c-0.401,0.131-1.164,0.367-1.629,0.3c0.011,0.018,0.019,0.037,0.031,0.054c0.517,0.742,3.315,1.296,6.53,1.296h0.076
			c0.737-0.002,1.467-0.047,2.19-0.128c-0.001,0-0.002,0-0.002,0.001c3.429-0.39,6.682-1.662,9.511-3.739
			c0.216-0.158,0.516-0.108,0.671,0.11c0.155,0.22,0.106,0.527-0.109,0.686c-3.294,2.418-7.135,3.793-11.17,4.019
			c-3.964,4.128-6.423,9.864-6.407,16.21c0.028,10.322,6.707,18.683,15.631,21.407l2.571-0.241c0.724-0.001,1.418-0.067,2.085-0.194
			l0.81-0.204l0.553-0.159c1.13-0.39,2.136-0.965,3.079-1.765c0.045-0.474,0.098-1.025,0.069-1.324
			c-0.357-3.773-2.645-6.88-5.77-8.412c1.57,0.279,3.483,0.505,4.771,1.471c-1.032-1.659-2.917-2.564-4.637-3.406l0.001-0.006
			c1.479,0.262,3.302,0.426,4.531,1.294c-1.021-1.593-2.864-2.448-4.534-3.269c1.967,0.349,8.31,0.37,9.579,7.755l0.001,0.036
			c0.156-0.373,0.306-0.76,0.447-1.159c1.013-2.827,1.452-5.668,1.236-8C51.281,58.29,51.078,57.459,50.778,56.794"/>
		<path fill="#00703C" d="M58.784,24.863c-0.857,0.647-1.667,1.348-2.444,2.087c0.215,0.25,0.423,0.504,0.619,0.769
			c-0.026-0.107-0.054-0.215-0.083-0.322c-0.086-0.315-0.013-0.653,0.196-0.901c0.201-0.238,0.505-0.371,0.812-0.344
			c0.307,0.025,0.589,0.192,0.749,0.46c0.278,0.465,0.522,0.943,0.738,1.431c0.35-0.445,0.707-0.886,1.078-1.314
			c1.897-2.196,4.113-4.138,6.791-5.604C64.208,21.518,61.295,22.972,58.784,24.863"/>
		<path fill="#00703C" d="M51.973,32.049c-0.85,1.168-1.641,2.372-2.39,3.599c0.506,0.653,0.9,1.352,1.261,2.094l0.042,0.049
			c0.022,0.026,0.042,0.054,0.057,0.084c0.563,1.01,0.706,1.866,0.835,2.88c0.026,0.205,0.041,0.41,0.051,0.617
			c0.332-0.75,0.667-1.498,1.016-2.236C53.334,36.749,53.039,34.27,51.973,32.049"/>
		<path fill="#00703C" d="M44.494,61.598c1.233-3.902,2.542-7.836,3.935-11.643c0.104-0.282,0.212-0.561,0.317-0.84
			c-1.731,1.711-3.992,2.89-6.5,3.395c-0.828,2.654-1.566,5.403-2.178,8.107C40.981,60.767,42.729,60.875,44.494,61.598"/>
		<path fill="#00703C" d="M40.115,64.576l-0.226-0.119l0.121,0.106c0.001,0.001,0.261,0.04,0.263,0.041
			c1.103,0.194,1.963,0.29,3.068,0.708c0.061-0.199,0.146-0.465,0.208-0.666c-1.02-0.899-1.957-1.372-3.171-1.966l0.131,0.041
			c1.24,0.22,2.21,0.205,3.382,0.761c0.034-0.107,0.095-0.251,0.128-0.358c-1.042-1.147-2.537-1.866-3.93-2.549
			c-0.238,1.055-0.462,2.112-0.67,3.171c-0.032,0.16,0.66,0.146,0.628,0.306c-0.045,0.235-0.811,0.643-0.855,0.877
			c-0.07,0.378-0.139,0.758-0.206,1.136c-0.523,3.037-1.772,7.876-2.037,10.943c-0.184,2.244,0.129,3.541,0.364,5.286
			c0.322-0.095,0.646-0.198,0.974-0.31c1.562-5.03,3.018-10.02,4.534-14.973c0.031-0.101,0.062-0.2,0.093-0.301
			C42.05,65.78,41.253,65.133,40.115,64.576"/>
		<path fill="#00703C" d="M39.896,64.087c-0.002,0.001-0.003,0.002-0.005,0.003L39.896,64.087z"/>
		<path fill="#00703C" d="M39.051,59.631c-0.007,0.004-0.013,0.009-0.018,0.014c0.003,0,0.005-0.002,0.008-0.003L39.051,59.631z"/>
		<path fill="#8DC63F" d="M65.729,49.171c-4.255,0.807-4.909,0.59-7.062,1.21c-0.979,0.282-1.673,0.826-1.907,1.371
			c-0.086,0.199-0.109,0.38-0.086,0.546l-3.207,0.195l0.021,0.356l3.329-0.203c0.562,0.857,2.627,1.134,3.744,0.984
			c1.19-0.162,5.601-1.257,8.436-3.682c2.834-2.424,4.162-4.478,4.162-4.478S69.984,48.363,65.729,49.171"/>
		<path fill="#00703C" d="M74.415,60.952c-1.385-2.977-5.118-5.686-6.313-6.304c-1.125-0.582-3.769-1.526-4.868,0.057l-2.316-0.708
			l-0.1,0.341l2.232,0.683c-0.001,0-0.002,0.002-0.002,0.003c0,0-0.048,1.115,1.597,2.285c1.645,1.167,5.376,2.477,7.626,4.439
			c2.25,1.96,3.531,4.98,3.531,4.98S75.801,63.929,74.415,60.952"/>
	</g>
	<polygon fill="#8DC63F" points="101.433,69.528 99.693,69.528 95.938,56.13 95.896,56.13 92.078,69.528 90.318,69.528 
		86.075,54.445 87.539,54.445 91.229,67.843 91.272,67.843 95.068,54.445 96.83,54.445 100.562,67.843 100.605,67.843 
		104.316,54.445 105.717,54.445 	"/>
	<path fill="#8DC63F" d="M107.583,58.507h1.336v11.021h-1.336V58.507z M108.919,55.567h-1.336v-1.815h1.336V55.567z"/>
	<rect x="111.783" y="53.32" fill="#8DC63F" width="1.336" height="16.208"/>
	<g>
		<path fill="#8DC63F" d="M116.81,64.018c0,0.519,0.05,1.044,0.149,1.578c0.114,0.547,0.283,1.052,0.509,1.512
			c0.255,0.433,0.586,0.786,0.998,1.059c0.396,0.303,0.912,0.454,1.548,0.454c0.593,0,1.103-0.151,1.526-0.454
			c0.396-0.273,0.722-0.64,0.976-1.102c0.481-0.979,0.714-1.996,0.701-3.047c0-0.519-0.049-1.052-0.148-1.599
			c-0.113-0.519-0.297-1.009-0.552-1.47c-0.254-0.461-0.581-0.836-0.976-1.124c-0.423-0.274-0.933-0.411-1.526-0.411
			c-0.636,0-1.152,0.137-1.548,0.411c-0.412,0.259-0.742,0.619-0.998,1.08c-0.226,0.432-0.395,0.922-0.509,1.469
			C116.859,62.923,116.81,63.471,116.81,64.018 M124.552,69.528h-1.336v-1.75h-0.042c-0.708,1.355-1.832,2.025-3.372,2.01
			c-1.485-0.029-2.597-0.583-3.332-1.664c-0.75-1.081-1.124-2.449-1.124-4.106c-0.014-1.716,0.333-3.098,1.04-4.149
			c0.706-1.067,1.845-1.607,3.415-1.621c0.536,0,1.002,0.079,1.398,0.238c0.41,0.158,0.75,0.359,1.02,0.604
			c0.551,0.504,0.87,0.929,0.954,1.275h0.042V53.32h1.336V69.528z"/>
	</g>
	<rect x="127.268" y="53.32" fill="#8DC63F" width="1.335" height="16.208"/>
	<path fill="#8DC63F" d="M131.468,58.507h1.335v11.021h-1.335V58.507z M132.803,55.567h-1.335v-1.815h1.335V55.567z"/>
	<g>
		<path fill="#8DC63F" d="M136.578,59.675h-2.185v-1.167h2.185v-0.8c0-0.59,0.03-1.167,0.086-1.728
			c0.027-0.548,0.134-1.039,0.318-1.47c0.183-0.446,0.473-0.799,0.869-1.059c0.382-0.26,0.912-0.389,1.59-0.389
			c0.226,0,0.46,0.007,0.701,0.022c0.241,0.042,0.425,0.107,0.552,0.194l-0.085,1.167c-0.296-0.145-0.652-0.217-1.062-0.217
			c-0.437,0-0.771,0.102-0.997,0.303c-0.24,0.23-0.403,0.512-0.487,0.843c-0.085,0.331-0.127,0.685-0.127,1.058
			c-0.014,0.389-0.022,0.764-0.022,1.125v0.951h2.44v1.167h-2.44v9.853h-1.336V59.675z"/>
		<path fill="#8DC63F" d="M148.796,63.24c0-1.009-0.205-1.887-0.616-2.636c-0.437-0.764-1.151-1.159-2.14-1.188
			c-0.977,0.029-1.748,0.432-2.313,1.21c-0.58,0.778-0.869,1.649-0.869,2.614H148.796z M149.455,69.183
			c-1.02,0.389-2.065,0.592-3.14,0.605c-1.768-0.029-3.032-0.583-3.796-1.664c-0.764-1.052-1.138-2.42-1.124-4.106
			c0.013-1.715,0.438-3.105,1.272-4.171c0.807-1.052,1.902-1.585,3.287-1.599c1.514,0.029,2.617,0.569,3.311,1.621
			c0.663,1.037,0.996,2.319,0.996,3.846v0.692h-7.403c0,1.196,0.304,2.182,0.912,2.96c0.595,0.821,1.477,1.24,2.651,1.253
			c0.522,0,1.075-0.093,1.654-0.281c0.581-0.158,1.041-0.337,1.379-0.54V69.183z"/>
		<path fill="#8DC63F" d="M159.275,61.705h1.016c0.566,0,1.104-0.035,1.613-0.108c0.51-0.057,0.97-0.18,1.38-0.368
			c0.409-0.201,0.728-0.503,0.954-0.907c0.226-0.404,0.34-0.936,0.34-1.599c-0.028-1.959-1.006-2.953-2.928-2.982h-2.375V61.705z
			 M157.811,54.445h3.649c2.982,0,4.511,1.425,4.581,4.278c-0.015,1.398-0.467,2.457-1.357,3.177c-0.877,0.734-2,1.102-3.372,1.102
			h-2.036v6.526h-1.465V54.445z"/>
		<path fill="#8DC63F" d="M173.825,63.975h-0.381c-0.58,0-1.159,0.016-1.74,0.043c-0.608,0.057-1.159,0.18-1.654,0.367
			c-0.494,0.173-0.891,0.44-1.188,0.8c-0.325,0.36-0.489,0.842-0.489,1.447c0,0.706,0.228,1.21,0.681,1.512
			c0.424,0.318,0.947,0.476,1.568,0.476c0.777,0,1.395-0.158,1.848-0.476c0.437-0.302,0.755-0.662,0.954-1.08
			c0.21-0.446,0.331-0.886,0.36-1.318c0.027-0.447,0.041-0.814,0.041-1.102V63.975z M173.954,67.755h-0.043
			c-0.312,0.649-0.786,1.147-1.42,1.493c-0.639,0.345-1.31,0.525-2.017,0.54c-0.75-0.014-1.357-0.136-1.824-0.367
			c-0.482-0.216-0.849-0.49-1.104-0.821c-0.452-0.72-0.665-1.362-0.637-1.923c0-0.922,0.22-1.649,0.658-2.183
			c0.424-0.533,0.969-0.914,1.634-1.145c0.665-0.244,1.386-0.404,2.164-0.475c0.763-0.043,1.498-0.065,2.206-0.065h0.253v-0.562
			c0.042-1.887-0.777-2.83-2.459-2.83c-1.117-0.015-2.178,0.288-3.184,0.907v-1.296c1.006-0.489,2.066-0.748,3.184-0.778
			c2.559-0.029,3.824,1.339,3.796,4.106v4.862c-0.014,0.836,0.021,1.607,0.106,2.312h-1.314V67.755z"/>
		<path fill="#8DC63F" d="M177.835,60.971c0-1.023-0.029-1.843-0.085-2.463h1.336v2.118h0.043c0.254-0.649,0.615-1.203,1.082-1.665
			c0.451-0.46,1.019-0.698,1.697-0.712c0.353,0.014,0.663,0.058,0.932,0.129v1.427c-0.296-0.087-0.621-0.129-0.974-0.129
			c-0.523,0.014-0.957,0.143-1.295,0.389c-0.34,0.259-0.616,0.612-0.827,1.059c-0.198,0.432-0.34,0.899-0.424,1.404
			c-0.101,0.533-0.148,1.052-0.148,1.556v5.445h-1.337V60.971z"/>
	</g>
	<polygon fill="#8DC63F" points="184.368,53.321 185.703,53.321 185.703,63.023 190.542,58.507 192.259,58.507 186.978,63.391 
		192.895,69.529 191.051,69.529 185.703,63.866 185.703,69.529 184.368,69.529 	"/>
	<g>
		<path fill="#7A7A7A" d="M51.989,30.207l0.003,0.004c1.4,1.223,2.505,2.771,3.223,4.507c-0.062-2.269-0.743-4.478-1.964-6.351
			l0.004-0.002c1.318,1.15,2.37,2.582,3.086,4.185c-0.089-2.196-0.76-4.328-1.943-6.15c1.76,1.54,3.042,3.573,3.683,5.849
			c0.254-1.694,0.161-3.432-0.291-5.088l0.009-0.011c2.085,3.49,2.421,8,0.387,11.863c-2.172,4.123-6.062,4.367-6.062,4.367
			c0.264-0.422,0.505-0.869,0.722-1.335C54.681,38.078,54.21,33.609,51.989,30.207"/>
		<path fill="#00703C" d="M96.802,48.149c-1.103,0.302-2.227,0.46-3.372,0.475c-2.433,0-4.378-0.626-5.834-1.88
			c-1.513-1.225-2.277-3.112-2.29-5.662c0.097-5.317,2.807-8.004,8.124-8.062c1.06,0,2.177,0.209,3.352,0.627l-0.213,2.549
			c-0.552-0.316-1.089-0.541-1.612-0.67c-0.524-0.085-1.053-0.129-1.592-0.129c-1.54,0.015-2.743,0.533-3.606,1.555
			c-0.904,1.024-1.358,2.328-1.358,3.913c0,1.57,0.446,2.846,1.336,3.825c0.877,1.022,2.108,1.541,3.692,1.556
			c0.607,0,1.215-0.066,1.824-0.195c0.594-0.115,1.067-0.26,1.421-0.432L96.802,48.149z"/>
	</g>
	<rect x="98.288" y="32.157" fill="#00703C" width="2.842" height="16.209"/>
	<g>
		<path fill="#00703C" d="M110.463,41.709c-0.029-0.734-0.22-1.348-0.573-1.837c-0.368-0.505-0.947-0.763-1.74-0.778
			c-0.778,0.015-1.378,0.26-1.803,0.735c-0.424,0.489-0.664,1.116-0.721,1.88H110.463z M112.372,47.738
			c-1.004,0.591-2.256,0.886-3.755,0.886c-3.762-0.058-5.664-1.98-5.707-5.77c0-1.657,0.424-3.047,1.272-4.171
			c0.849-1.109,2.115-1.678,3.797-1.707c1.995,0.014,3.373,0.641,4.137,1.88c0.721,1.239,1.075,2.853,1.061,4.84h-7.552
			c0.07,0.895,0.388,1.578,0.955,2.053c0.565,0.505,1.286,0.756,2.163,0.756c0.694,0,1.344-0.115,1.952-0.346
			c0.593-0.201,1.152-0.46,1.676-0.778V47.738z"/>
	</g>
	<rect x="114.938" y="32.157" fill="#00703C" width="2.843" height="16.209"/>
	<path fill="#00703C" d="M122.278,45.145c0,0.461,0.176,0.8,0.529,1.016c0.326,0.23,0.75,0.346,1.274,0.346
		c0.876-0.014,1.542-0.346,1.994-0.993c0.41-0.648,0.608-1.412,0.594-2.292h-1.23h-0.488c-0.17,0-0.339,0.015-0.508,0.044
		c-0.369,0.043-0.716,0.13-1.041,0.259c-0.325,0.129-0.587,0.325-0.785,0.584C122.391,44.368,122.278,44.713,122.278,45.145
		 M120.75,37.82c1.217-0.548,2.482-0.829,3.797-0.844c3.182-0.043,4.753,1.521,4.709,4.69v1.426c0,1.08,0.014,2.01,0.043,2.788
		c0.027,0.821,0.069,1.65,0.125,2.485h-2.502c-0.085-0.677-0.127-1.232-0.127-1.664h-0.044c-0.338,0.604-0.812,1.073-1.42,1.405
		c-0.623,0.345-1.272,0.519-1.952,0.519c-0.99-0.015-1.86-0.303-2.609-0.864c-0.792-0.563-1.196-1.376-1.209-2.442
		c0-0.835,0.184-1.514,0.551-2.032c0.339-0.519,0.779-0.899,1.316-1.145c0.566-0.274,1.167-0.454,1.802-0.54
		c0.65-0.072,1.272-0.108,1.867-0.108h1.57c0-0.893-0.198-1.52-0.594-1.881c-0.396-0.346-1.019-0.518-1.866-0.518
		c-1.246,0.015-2.37,0.418-3.374,1.21L120.75,37.82z"/>
	<path fill="#00703C" d="M131.547,37.235h2.695v1.513h0.042c0.905-1.196,2.1-1.786,3.584-1.772c1.288,0.015,2.235,0.426,2.842,1.232
		c0.58,0.807,0.871,1.851,0.871,3.133v7.024h-2.843v-5.943c0-0.361-0.008-0.728-0.021-1.103c-0.016-0.374-0.086-0.713-0.212-1.015
		c-0.1-0.332-0.277-0.597-0.532-0.8c-0.269-0.187-0.628-0.281-1.08-0.281c-0.51,0-0.92,0.123-1.231,0.368
		c-0.312,0.245-0.566,0.555-0.764,0.928c-0.183,0.376-0.311,0.772-0.382,1.189c-0.084,0.433-0.126,0.836-0.126,1.21v5.446h-2.844
		V37.235z"/>
	<path fill="#00703C" d="M146.247,42.768c-0.015,0.807,0.155,1.599,0.51,2.377c0.183,0.346,0.432,0.635,0.741,0.865
		c0.296,0.245,0.679,0.367,1.146,0.367c0.494,0,0.896-0.122,1.208-0.367c0.325-0.23,0.58-0.519,0.765-0.865
		c0.197-0.36,0.339-0.749,0.423-1.167c0.07-0.417,0.106-0.821,0.106-1.21c0-0.836-0.191-1.621-0.572-2.356
		c-0.213-0.36-0.476-0.648-0.785-0.864c-0.326-0.216-0.723-0.325-1.188-0.325c-0.89,0.029-1.513,0.425-1.866,1.188
		c-0.171,0.346-0.29,0.728-0.361,1.145C146.289,41.976,146.247,42.379,146.247,42.768 M151.252,47.112h-0.044
		c-0.875,1.024-1.992,1.526-3.348,1.513c-1.655-0.029-2.837-0.626-3.543-1.794c-0.708-1.138-1.054-2.492-1.041-4.062
		c-0.013-1.585,0.333-2.939,1.041-4.063c0.707-1.123,1.888-1.7,3.543-1.729c1.37,0,2.458,0.518,3.264,1.556h0.042v-6.375h2.845
		v16.208h-2.759V47.112z"/>
	<path fill="#FBB034" d="M41.27,52.675c-0.607,0.081-1.224,0.191-1.819,0.191c-0.662,0-1.313-0.054-1.95-0.148
		c-0.583,2.019-1.098,4.053-1.546,6.098c0.002,0.158-0.18,0.905-0.455,2.166c-0.039,0.203-0.074,0.407-0.113,0.609
		c1.201-1.276,1.837-1.312,3.647-1.947c0.004-0.004,0.011-0.008,0.017-0.013l-0.008,0.011c-0.003,0-0.006,0.002-0.009,0.002
		c-1.759,1.25-3.154,2.981-4.031,4.989c1.246-1.222,2.742-2.159,4.383-2.734l0.002,0.005c-1.813,1.282-3.244,3.079-4.123,5.166
		c1.295-1.343,2.883-2.369,4.625-2.98l0.004-0.002c-0.001,0-0.002,0.001-0.004,0.002c-3.043,2.155-5.739,5.628-5.807,9.609
		l-0.092,1.177c0.013,0.084-0.087,0.106-0.209,0.1c-0.008,0.156-0.02,0.312-0.025,0.468c-0.055,1.646-0.092,3.291-0.031,4.949
		c0.032,0.828,0.062,1.655,0.108,2.483c0.002,0.023,0.004,0.047,0.005,0.072c0.432,0.001,0.882-0.037,1.345-0.106
		c1.249-5.378,2.736-10.303,4.315-15.567c0.215-0.73,0.639-1.859,0.863-2.586c-0.09-0.046-0.177-0.096-0.268-0.141l-0.286-0.009
		l0.282,0.006c0.001,0.001-0.284-0.006-0.282-0.006c0.096,0.018,0.483,0.042,0.582,0.059c0.169-0.552,0.344-1.101,0.519-1.653
		c-0.228-0.114-0.215-0.101-0.44-0.211l-0.047-0.039c0.24,0.042,0.278,0.06,0.532,0.1c0.157-0.496,0.343-1.056,0.505-1.55
		c-0.411-0.212-0.826-0.414-1.231-0.612c0.341,0.06,0.815,0.111,1.368,0.192c0.335-1.019,0.511-1.857,0.839-3.006
		c0.57-1.998,1.227-3.997,1.966-5.929C43.393,52.286,42.383,52.528,41.27,52.675"/>
	<path fill="#FBB034" d="M65.866,18.039l-0.073,0c-0.838,0.011-1.667,0.151-2.504,0.32c-0.825,0.196-1.64,0.463-2.445,0.772
		c-1.613,0.621-3.12,1.502-4.541,2.494c-2.833,2.009-5.237,4.53-7.334,7.211c-3.727,4.842-6.503,10.216-8.692,15.738
		c0.267-0.084,0.537-0.164,0.812-0.233c1.257-0.317,2.526-0.452,3.784-0.424c1.011-1.908,2.407-3.803,4.4-5.645
		c-0.193-1.365-0.715-3.18-1.442-4.284l0.009-0.018c1.509,1.085,2.312,2.349,3.003,3.773l0.042,0.049
		c0.021,0.026,0.041,0.053,0.057,0.083c0.013,0.024,0.022,0.044,0.035,0.067c0.613-1.138,1.229-2.271,1.848-3.396
		c-0.287-1.326-0.812-2.613-1.583-3.792L51.24,30.75c-0.294-0.452-0.174-1.06,0.268-1.359c0.385-0.259,0.885-0.201,1.203,0.112
		c0.101,0.089,0.201,0.18,0.3,0.272c-0.157-0.296-0.327-0.584-0.51-0.866c-0.143-0.219-0.193-0.487-0.14-0.746
		c0.054-0.256,0.206-0.481,0.424-0.623c0.357-0.23,0.826-0.201,1.147,0.081c0.078,0.068,0.156,0.138,0.233,0.208
		c-0.158-0.303-0.331-0.597-0.517-0.885c-0.026-0.039-0.044-0.08-0.065-0.123c-0.008-0.017-0.017-0.033-0.024-0.05
		c-0.007-0.019-0.02-0.035-0.026-0.054c-0.156-0.457,0.034-0.966,0.452-1.194c0.372-0.204,0.821-0.139,1.117,0.148
		c0.014,0.015,0.026,0.031,0.04,0.046c0.666,0.589,1.265,1.243,1.791,1.948c0.011-0.016,0.021-0.032,0.031-0.046
		c-0.016-0.065-0.031-0.13-0.049-0.195c-0.086-0.315-0.012-0.652,0.196-0.901c0.2-0.238,0.505-0.371,0.812-0.345
		c0.019,0.001,0.036,0.008,0.054,0.011c0.381-0.517,0.771-1.027,1.174-1.526c1.901-2.345,4.067-4.462,6.797-6.136
		c0.097-0.034,0.169-0.129,0.167-0.242C66.113,18.148,66.001,18.037,65.866,18.039"/>
</g>
</svg>
