<?xml version="1.0" encoding="utf-8"?>
<!-- Generator: Adobe Illustrator 15.1.0, SVG Export Plug-In . SVG Version: 6.00 Build 0)  -->
<!DOCTYPE svg PUBLIC "-//W3C//DTD SVG 1.1//EN" "http://www.w3.org/Graphics/SVG/1.1/DTD/svg11.dtd">
<svg version="1.1" id="Layer_1" xmlns="http://www.w3.org/2000/svg" xmlns:xlink="http://www.w3.org/1999/xlink" x="0px" y="0px"
	 width="330px" height="120px" viewBox="-15 -10 330 120" enable-background="new -15 -10 330 120" xml:space="preserve">
<g>
	<g>
		<path fill="#FFFFFF" d="M23.977,14.309c-0.468-0.133-0.943-0.231-1.428-0.281c-3.207-0.328-5.917,0.455-7.711,1.897
			c-0.187,0.103-0.395,0.088-0.507,0.176c-0.265,0.204-0.24,0.497-0.489,0.685c-0.259,0.195-0.694,0.174-0.914,0.398
			c-0.229,0.23-0.21,0.673-0.393,0.928c-0.189,0.262-0.608,0.378-0.75,0.664c-0.139,0.29,0.022,0.7-0.068,1.01
			c-0.086,0.308-0.438,0.566-0.469,0.89c-0.034,0.339,0.27,0.67,0.31,1c0.04,0.331-0.176,0.726-0.067,1.046
			c0.106,0.312,0.513,0.492,0.678,0.791c0.159,0.285,0.095,0.733,0.305,1.002c0.2,0.256,0.642,0.3,0.885,0.539
			c0.231,0.229,0.284,0.678,0.551,0.888c0.256,0.201,0.696,0.141,0.981,0.322c0.274,0.175,0.416,0.605,0.713,0.757
			c0.29,0.149,0.712,0.01,1.023,0.138c0.301,0.125,0.509,0.525,0.828,0.63c0.037,0.011,0.076,0.019,0.116,0.022
			C17.778,22.523,20.147,17.654,23.977,14.309"/>
		<path fill="#FFFFFF" d="M33.518,68.029l-0.092,1.177c0.028,0.204-0.58,0.051-0.631,0c0,0-0.205,0-1.929-1.476
			c-1.541-1.317-2.675-3.564-3.728-5.967c-2.56-5.836-2.597-11.494-0.09-12.636c1.832-0.831,6.211,0.539,8.338,3.982
			c0.042,0.068-0.216,1.076-0.587,2.834c1.216-1.299,1.846-1.33,3.668-1.969c-1.76,1.25-3.153,2.979-4.031,4.987
			c1.245-1.221,2.741-2.157,4.382-2.733l0.003,0.004c-1.812,1.283-3.245,3.08-4.123,5.166c1.295-1.342,2.883-2.368,4.626-2.979
			C36.28,60.575,33.585,64.047,33.518,68.029 M25.245,22.927c-0.753,0.262-1.216-0.099-1.18-0.742
			c0.038-0.752,0.674-1.904,1.429-2.164c0.754-0.264,1.443,0.11,1.54,0.834C27.125,21.576,26,22.666,25.245,22.927 M50.21,51.124
			l0.041,0.117c-0.377-0.85-0.936-1.379-1.588-1.622c-1.65-0.612-4.024,0.785-6.028,3.803c0,0-0.38,0.282-0.608,0.05
			s-0.188-0.562-0.188-0.562c2.276-3.428,4.982-5.078,7.065-4.303c0.667,0.248,1.226,0.72,1.665,1.391l0.018-0.07
			c0.689-2.386,1.059-4.91,1.053-7.52c-0.004-1.423-0.128-2.816-0.346-4.179c-0.04-0.206-0.082-0.412-0.124-0.612
			c-0.271,1.916-1.125,3.753-2.525,5.336c-1.983,2.243-4.809,3.708-7.958,4.125c-0.606,0.081-1.209,0.121-1.804,0.121
			c-4.755,0-9-2.509-10.689-6.482c-0.099-0.229,0.005-0.499,0.232-0.601c0.229-0.099,0.491,0.007,0.591,0.238
			c1.742,4.097,6.494,6.491,11.555,5.818c0.423-0.057,0.837-0.138,1.246-0.233c0.005-0.023,0.009-0.047,0.017-0.071
			c0.402-2.2,0.963-4.462,2.02-6.718c-1.038,0.012-2.082,0.149-3.117,0.411c-1.278,0.322-2.482,0.817-3.579,1.468
			c-0.072,0.043-0.148,0.063-0.226,0.063c-0.153,0-0.304-0.082-0.387-0.228c-0.031-0.054-0.05-0.114-0.058-0.174
			c-0.847-2.271-2.298-4.269-4.199-5.773c-0.195-0.155-0.23-0.441-0.079-0.641c0.152-0.199,0.434-0.235,0.629-0.081
			c1.924,1.524,3.41,3.521,4.331,5.792c1.044-0.568,2.165-1.014,3.351-1.313c1.257-0.317,2.526-0.453,3.784-0.425
			c1.011-1.907,2.407-3.803,4.4-5.644c-0.193-1.365-0.715-3.18-1.442-4.285l0.01-0.018c0.212,0.152,0.406,0.309,0.592,0.468
			c-1.655-2.778-3.795-5.234-6.309-7.243c0.187-0.012,0.369-0.012,0.473-0.02c0.215-0.017,0.586,0.035,0.946-0.343
			c0.494-0.516,0.39-0.906,0.636-1.177c0.251-0.278,0.743-0.341,0.968-0.629c0.232-0.297,0.18-0.797,0.385-1.103
			c0.209-0.313,0.685-0.451,0.863-0.77c0.183-0.33,0.053-0.816,0.201-1.151c0.154-0.347,0.598-0.568,0.713-0.915
			c0.122-0.362-0.101-0.812-0.027-1.167c0.08-0.374,0.463-0.693,0.493-1.057c0.031-0.381-0.3-0.754-0.326-1.118
			c-0.028-0.38,0.24-0.805,0.15-1.159c-0.094-0.363-0.533-0.594-0.696-0.925c-0.162-0.332-0.083-0.829-0.319-1.122
			c-0.102-0.125-0.253-0.197-0.414-0.259c-0.014-0.027-0.029-0.054-0.048-0.077c-0.15-0.187-0.414-0.258-0.652-0.352
			c-0.176-0.248-0.289-0.587-0.535-0.732c-0.063-0.037-0.134-0.058-0.21-0.072c-0.07-0.108-0.148-0.204-0.252-0.265
			c-0.304-0.176-0.763-0.021-1.097-0.144c-0.004-0.002-0.006-0.003-0.009-0.004c-0.11-0.096-0.224-0.186-0.347-0.236
			c-0.179-0.157-0.357-0.33-0.57-0.372c-0.339-0.068-0.729,0.225-1.088,0.206c-0.344-0.019-0.498-0.304-0.866-0.326
			c-0.159-0.01-0.342,0.133-0.577,0.156c-2.535-0.208-5.517,0.771-8.288,3.092c-0.732,0.613-1.357,1.34-1.887,2.14
			c0.001,0.003,0.005,0.006,0.007,0.01c0.106,0.248-0.004,0.537-0.248,0.646c-0.077,0.035-0.15,0.073-0.226,0.109
			c-0.002,0.003-0.005,0.007-0.007,0.011c-1.317,0.615-2.526,1.393-3.625,2.291c-0.011-0.004-0.021-0.007-0.031-0.012
			c-2.628,2.146-4.587,5.028-5.644,8.282c0.939,0.453,1.854,1.625,2.338,3.166c0.705,2.244,0.233,4.404-1.052,4.823
			c-0.401,0.131-1.164,0.367-1.629,0.3c0.011,0.018,0.019,0.037,0.031,0.054c0.517,0.742,3.315,1.296,6.53,1.296h0.076
			c0.737-0.002,1.467-0.047,2.19-0.128c-0.001,0-0.002,0-0.002,0.001c3.429-0.39,6.682-1.662,9.511-3.739
			c0.216-0.158,0.516-0.108,0.671,0.11c0.155,0.22,0.106,0.527-0.109,0.686c-3.294,2.418-7.135,3.793-11.17,4.019
			c-3.964,4.128-6.423,9.864-6.407,16.21c0.028,10.321,6.707,18.681,15.631,21.406l2.571-0.24c0.724-0.002,1.418-0.068,2.085-0.195
			l0.81-0.203l0.553-0.159c1.13-0.39,2.136-0.965,3.079-1.765c0.045-0.475,0.098-1.025,0.069-1.324
			c-0.357-3.773-2.645-6.881-5.77-8.412c1.57,0.279,3.483,0.505,4.771,1.471c-1.032-1.658-2.917-2.564-4.637-3.406l0.001-0.006
			c1.479,0.262,3.302,0.426,4.531,1.295c-1.021-1.594-2.864-2.449-4.534-3.27c1.967,0.35,8.31,0.37,9.579,7.755l0.001,0.036
			c0.156-0.373,0.306-0.76,0.447-1.159c1.013-2.827,1.452-5.668,1.236-8C50.713,52.62,50.511,51.789,50.21,51.124"/>
		<path fill="#FFFFFF" d="M58.217,19.194c-0.857,0.647-1.667,1.348-2.444,2.087c0.215,0.25,0.423,0.504,0.619,0.769
			c-0.026-0.107-0.054-0.215-0.083-0.322c-0.086-0.315-0.013-0.653,0.196-0.901c0.201-0.238,0.505-0.371,0.812-0.344
			c0.307,0.025,0.589,0.192,0.749,0.46c0.278,0.465,0.522,0.943,0.738,1.431c0.35-0.445,0.707-0.886,1.078-1.314
			c1.897-2.196,4.113-4.138,6.791-5.604C63.641,15.849,60.728,17.303,58.217,19.194"/>
		<path fill="#FFFFFF" d="M51.406,26.38c-0.85,1.168-1.641,2.372-2.39,3.599c0.506,0.653,0.9,1.352,1.261,2.094l0.042,0.049
			c0.022,0.026,0.042,0.054,0.057,0.084c0.563,1.01,0.706,1.866,0.835,2.88c0.026,0.205,0.041,0.41,0.051,0.617
			c0.332-0.75,0.667-1.498,1.016-2.236C52.767,31.08,52.472,28.601,51.406,26.38"/>
		<path fill="#FFFFFF" d="M43.927,55.928c1.233-3.902,2.542-7.835,3.935-11.642c0.104-0.282,0.212-0.561,0.317-0.84
			c-1.731,1.711-3.992,2.89-6.5,3.395c-0.828,2.654-1.566,5.402-2.178,8.106C40.414,55.098,42.162,55.205,43.927,55.928"/>
		<path fill="#FFFFFF" d="M39.548,58.906l-0.226-0.119l0.121,0.105c0.001,0.002,0.261,0.041,0.263,0.041
			c1.103,0.194,1.963,0.291,3.068,0.709c0.061-0.199,0.146-0.465,0.208-0.666c-1.02-0.899-1.957-1.373-3.171-1.967l0.131,0.041
			c1.24,0.221,2.21,0.205,3.382,0.762c0.034-0.107,0.095-0.252,0.128-0.358c-1.042-1.147-2.537-1.866-3.93-2.549
			c-0.238,1.055-0.462,2.112-0.67,3.171c-0.032,0.16,0.66,0.146,0.628,0.306c-0.045,0.235-0.811,0.644-0.855,0.878
			c-0.07,0.377-0.139,0.758-0.206,1.135c-0.523,3.037-1.772,7.877-2.037,10.943c-0.184,2.244,0.129,3.541,0.364,5.286
			c0.322-0.095,0.646-0.198,0.974-0.31c1.562-5.03,3.018-10.021,4.534-14.973c0.031-0.102,0.062-0.201,0.093-0.302
			C41.482,60.109,40.686,59.463,39.548,58.906"/>
		<path fill="#FFFFFF" d="M39.329,58.417c-0.002,0.001-0.003,0.002-0.005,0.003L39.329,58.417z"/>
		<path fill="#FFFFFF" d="M38.483,53.961c-0.007,0.004-0.013,0.01-0.018,0.014c0.003,0,0.005-0.002,0.008-0.002L38.483,53.961z"/>
		<path fill="#FFFFFF" d="M65.162,43.502c-4.255,0.807-4.909,0.59-7.062,1.21c-0.979,0.282-1.673,0.826-1.907,1.371
			c-0.086,0.199-0.109,0.38-0.086,0.546l-3.207,0.195l0.021,0.356l3.329-0.203c0.562,0.856,2.627,1.132,3.744,0.983
			c1.19-0.162,5.601-1.256,8.436-3.681c2.834-2.424,4.162-4.478,4.162-4.478S69.417,42.694,65.162,43.502"/>
		<path fill="#FFFFFF" d="M73.848,55.282c-1.385-2.978-5.118-5.686-6.313-6.303c-1.125-0.582-3.769-1.526-4.868,0.057l-2.316-0.708
			l-0.1,0.341l2.232,0.684c-0.001,0-0.002,0.002-0.002,0.002s-0.048,1.115,1.597,2.285c1.645,1.168,5.376,2.478,7.626,4.439
			c2.25,1.96,3.531,4.98,3.531,4.98S75.233,58.26,73.848,55.282"/>
	</g>
	<polygon fill="#FFFFFF" points="100.866,63.857 99.125,63.857 95.371,50.46 95.329,50.46 91.511,63.857 89.75,63.857 
		85.508,48.776 86.972,48.776 90.662,62.173 90.705,62.173 94.5,48.776 96.263,48.776 99.995,62.173 100.038,62.173 103.749,48.776 
		105.149,48.776 	"/>
	<path fill="#FFFFFF" d="M107.016,52.837h1.336v11.021h-1.336V52.837z M108.352,49.897h-1.336v-1.814h1.336V49.897z"/>
	<rect x="111.216" y="47.651" fill="#FFFFFF" width="1.336" height="16.206"/>
	<g>
		<path fill="#FFFFFF" d="M116.243,58.348c0,0.52,0.05,1.045,0.149,1.578c0.114,0.547,0.283,1.053,0.509,1.512
			c0.255,0.434,0.586,0.787,0.998,1.06c0.396,0.304,0.912,0.454,1.548,0.454c0.593,0,1.103-0.15,1.526-0.454
			c0.396-0.272,0.722-0.64,0.976-1.103c0.481-0.979,0.714-1.996,0.701-3.047c0-0.519-0.049-1.052-0.148-1.599
			c-0.113-0.519-0.297-1.009-0.552-1.47c-0.254-0.461-0.581-0.836-0.976-1.124c-0.423-0.274-0.933-0.411-1.526-0.411
			c-0.636,0-1.152,0.137-1.548,0.411c-0.412,0.259-0.742,0.618-0.998,1.079c-0.226,0.433-0.395,0.923-0.509,1.47
			C116.292,57.253,116.243,57.801,116.243,58.348 M123.984,63.857h-1.336v-1.75h-0.042c-0.708,1.355-1.832,2.025-3.372,2.011
			c-1.485-0.029-2.597-0.583-3.332-1.664c-0.75-1.081-1.124-2.449-1.124-4.106c-0.014-1.716,0.333-3.098,1.04-4.148
			c0.706-1.067,1.845-1.607,3.415-1.621c0.536,0,1.002,0.079,1.398,0.238c0.41,0.158,0.75,0.359,1.02,0.604
			c0.551,0.504,0.87,0.93,0.954,1.275h0.042v-7.044h1.336L123.984,63.857L123.984,63.857z"/>
	</g>
	<rect x="126.701" y="47.651" fill="#FFFFFF" width="1.335" height="16.206"/>
	<path fill="#FFFFFF" d="M130.9,52.837h1.335v11.021H130.9V52.837z M132.236,49.897H130.9v-1.814h1.335V49.897z"/>
	<g>
		<path fill="#FFFFFF" d="M136.011,54.005h-2.185v-1.167h2.185v-0.8c0-0.59,0.03-1.167,0.086-1.727
			c0.027-0.549,0.134-1.039,0.318-1.471c0.183-0.445,0.473-0.799,0.869-1.059c0.382-0.259,0.912-0.388,1.59-0.388
			c0.226,0,0.46,0.006,0.701,0.021c0.241,0.042,0.425,0.107,0.552,0.193l-0.085,1.167c-0.296-0.146-0.652-0.217-1.062-0.217
			c-0.437,0-0.771,0.102-0.997,0.303c-0.24,0.229-0.403,0.512-0.487,0.843c-0.085,0.331-0.127,0.685-0.127,1.057
			c-0.014,0.389-0.022,0.764-0.022,1.125v0.951h2.44v1.167h-2.44v9.853h-1.336V54.005z"/>
		<path fill="#FFFFFF" d="M148.229,57.57c0-1.01-0.205-1.887-0.616-2.637c-0.437-0.764-1.151-1.158-2.14-1.188
			c-0.977,0.029-1.748,0.432-2.313,1.21c-0.58,0.778-0.869,1.649-0.869,2.614H148.229z M148.888,63.514
			c-1.02,0.389-2.065,0.592-3.14,0.604c-1.768-0.029-3.032-0.583-3.796-1.664c-0.764-1.052-1.138-2.42-1.124-4.106
			c0.013-1.715,0.438-3.104,1.272-4.17c0.807-1.053,1.902-1.586,3.287-1.6c1.514,0.029,2.617,0.568,3.311,1.621
			c0.663,1.037,0.996,2.318,0.996,3.846v0.692h-7.403c0,1.196,0.304,2.182,0.912,2.96c0.595,0.82,1.477,1.24,2.651,1.253
			c0.522,0,1.075-0.093,1.654-0.281c0.581-0.157,1.041-0.337,1.379-0.54L148.888,63.514L148.888,63.514z"/>
		<path fill="#FFFFFF" d="M158.709,56.035h1.016c0.566,0,1.104-0.035,1.613-0.107c0.51-0.058,0.97-0.181,1.38-0.369
			c0.409-0.201,0.728-0.502,0.954-0.906c0.226-0.404,0.34-0.937,0.34-1.6c-0.028-1.959-1.006-2.953-2.928-2.981h-2.375V56.035
			L158.709,56.035z M157.244,48.776h3.649c2.981,0,4.511,1.425,4.581,4.277c-0.016,1.398-0.467,2.457-1.357,3.178
			c-0.877,0.733-2,1.102-3.371,1.102h-2.037v6.525h-1.465V48.776L157.244,48.776z"/>
		<path fill="#FFFFFF" d="M173.259,58.305h-0.382c-0.58,0-1.158,0.017-1.739,0.043c-0.608,0.058-1.159,0.181-1.654,0.367
			c-0.493,0.174-0.891,0.44-1.188,0.801c-0.324,0.359-0.488,0.842-0.488,1.446c0,0.706,0.229,1.21,0.682,1.513
			c0.424,0.317,0.946,0.476,1.567,0.476c0.776,0,1.396-0.158,1.849-0.476c0.437-0.303,0.754-0.662,0.953-1.08
			c0.21-0.446,0.331-0.887,0.36-1.318c0.026-0.447,0.041-0.814,0.041-1.102V58.305L173.259,58.305z M173.388,62.085h-0.043
			c-0.312,0.649-0.786,1.147-1.42,1.493c-0.64,0.345-1.31,0.525-2.017,0.54c-0.75-0.015-1.357-0.136-1.824-0.367
			c-0.482-0.216-0.85-0.489-1.104-0.821c-0.452-0.72-0.665-1.361-0.637-1.923c0-0.922,0.22-1.649,0.657-2.183
			c0.425-0.533,0.97-0.914,1.635-1.145c0.665-0.244,1.386-0.404,2.164-0.476c0.763-0.043,1.498-0.065,2.205-0.065h0.254v-0.562
			c0.042-1.888-0.777-2.83-2.459-2.83c-1.117-0.015-2.178,0.288-3.184,0.907v-1.297c1.006-0.488,2.065-0.747,3.184-0.777
			c2.559-0.029,3.824,1.339,3.796,4.105v4.862c-0.015,0.837,0.021,1.607,0.106,2.312h-1.314L173.388,62.085L173.388,62.085z"/>
		<path fill="#FFFFFF" d="M177.269,55.301c0-1.022-0.028-1.843-0.085-2.463h1.336v2.118h0.043c0.254-0.649,0.615-1.203,1.082-1.665
			c0.451-0.46,1.02-0.697,1.697-0.712c0.354,0.015,0.662,0.058,0.932,0.129v1.427c-0.296-0.087-0.621-0.129-0.974-0.129
			c-0.523,0.014-0.957,0.143-1.296,0.389c-0.34,0.26-0.615,0.612-0.826,1.06c-0.198,0.433-0.34,0.899-0.424,1.403
			c-0.102,0.533-0.148,1.053-0.148,1.557v5.445h-1.337V55.301L177.269,55.301z"/>
	</g>
	<polygon fill="#FFFFFF" points="183.802,47.651 185.137,47.651 185.137,57.354 189.976,52.837 191.692,52.837 186.412,57.721 
		192.328,63.859 190.484,63.859 185.137,58.196 185.137,63.859 183.802,63.859 	"/>
	<g>
		<path fill="#FFFFFF" d="M51.421,24.538l0.003,0.004c1.4,1.223,2.505,2.771,3.223,4.507c-0.062-2.269-0.743-4.478-1.964-6.351
			l0.004-0.002c1.318,1.15,2.37,2.582,3.086,4.185c-0.089-2.196-0.76-4.328-1.943-6.15c1.76,1.54,3.042,3.573,3.683,5.849
			c0.254-1.694,0.161-3.432-0.291-5.088l0.009-0.011c2.085,3.49,2.421,8,0.387,11.863c-2.172,4.123-6.062,4.367-6.062,4.367
			c0.264-0.422,0.505-0.869,0.722-1.335C54.114,32.409,53.643,27.94,51.421,24.538"/>
		<path fill="#FFFFFF" d="M96.234,42.48c-1.103,0.302-2.227,0.46-3.372,0.475c-2.433,0-4.378-0.626-5.834-1.88
			c-1.513-1.225-2.277-3.112-2.29-5.662c0.097-5.317,2.807-8.004,8.124-8.062c1.06,0,2.177,0.209,3.352,0.627l-0.213,2.549
			c-0.552-0.316-1.089-0.541-1.612-0.67c-0.524-0.085-1.053-0.129-1.592-0.129c-1.54,0.015-2.743,0.533-3.606,1.555
			c-0.904,1.024-1.358,2.328-1.358,3.913c0,1.57,0.446,2.846,1.336,3.825c0.877,1.022,2.108,1.541,3.692,1.556
			c0.607,0,1.215-0.066,1.824-0.195c0.594-0.115,1.067-0.26,1.421-0.432L96.234,42.48z"/>
	</g>
	<rect x="97.721" y="26.488" fill="#FFFFFF" width="2.842" height="16.209"/>
	<g>
		<path fill="#FFFFFF" d="M109.896,36.04c-0.029-0.734-0.22-1.348-0.573-1.837c-0.368-0.505-0.947-0.763-1.74-0.778
			c-0.778,0.015-1.378,0.26-1.803,0.735c-0.424,0.489-0.664,1.116-0.721,1.88H109.896z M111.805,42.069
			c-1.004,0.591-2.256,0.886-3.755,0.886c-3.762-0.058-5.664-1.98-5.707-5.77c0-1.657,0.424-3.047,1.272-4.171
			c0.849-1.109,2.115-1.678,3.797-1.707c1.995,0.014,3.373,0.641,4.137,1.88c0.721,1.239,1.075,2.853,1.061,4.84h-7.552
			c0.07,0.895,0.388,1.578,0.955,2.053c0.565,0.505,1.286,0.756,2.163,0.756c0.694,0,1.344-0.115,1.952-0.346
			c0.593-0.201,1.152-0.46,1.676-0.778L111.805,42.069L111.805,42.069z"/>
	</g>
	<rect x="114.371" y="26.488" fill="#FFFFFF" width="2.843" height="16.209"/>
	<path fill="#FFFFFF" d="M121.71,39.476c0,0.461,0.176,0.8,0.529,1.016c0.326,0.23,0.75,0.346,1.274,0.346
		c0.876-0.014,1.542-0.346,1.994-0.993c0.41-0.648,0.608-1.412,0.594-2.292h-1.23h-0.488c-0.17,0-0.339,0.015-0.508,0.044
		c-0.369,0.043-0.716,0.13-1.041,0.259c-0.325,0.129-0.587,0.325-0.785,0.584C121.824,38.699,121.71,39.044,121.71,39.476
		 M120.183,32.151c1.217-0.548,2.482-0.829,3.797-0.844c3.182-0.043,4.753,1.521,4.709,4.69v1.426c0,1.08,0.014,2.01,0.043,2.788
		c0.027,0.821,0.069,1.65,0.125,2.485h-2.502c-0.085-0.677-0.127-1.232-0.127-1.664h-0.044c-0.338,0.604-0.812,1.073-1.42,1.405
		c-0.623,0.345-1.272,0.519-1.952,0.519c-0.99-0.015-1.86-0.303-2.609-0.864c-0.792-0.562-1.196-1.376-1.209-2.442
		c0-0.835,0.184-1.514,0.551-2.032c0.339-0.519,0.779-0.899,1.316-1.145c0.566-0.274,1.167-0.454,1.802-0.54
		c0.65-0.072,1.272-0.108,1.867-0.108h1.57c0-0.893-0.198-1.52-0.594-1.881c-0.396-0.346-1.019-0.518-1.866-0.518
		c-1.246,0.015-2.37,0.418-3.374,1.21L120.183,32.151z"/>
	<path fill="#FFFFFF" d="M130.979,31.566h2.695v1.513h0.042c0.905-1.196,2.1-1.786,3.584-1.772c1.288,0.015,2.235,0.426,2.842,1.232
		c0.58,0.807,0.871,1.851,0.871,3.133v7.024h-2.843v-5.943c0-0.361-0.008-0.728-0.021-1.103c-0.016-0.374-0.086-0.713-0.212-1.015
		c-0.1-0.332-0.277-0.597-0.532-0.8c-0.269-0.187-0.628-0.281-1.08-0.281c-0.51,0-0.92,0.123-1.231,0.368
		c-0.312,0.245-0.566,0.555-0.764,0.928c-0.183,0.376-0.311,0.772-0.382,1.189c-0.084,0.433-0.126,0.836-0.126,1.21v5.446h-2.844
		L130.979,31.566L130.979,31.566z"/>
	<path fill="#FFFFFF" d="M145.68,37.099c-0.015,0.807,0.155,1.599,0.51,2.377c0.183,0.346,0.432,0.635,0.741,0.865
		c0.296,0.245,0.679,0.367,1.146,0.367c0.494,0,0.896-0.122,1.208-0.367c0.325-0.23,0.58-0.519,0.765-0.865
		c0.198-0.36,0.339-0.749,0.423-1.167c0.07-0.417,0.107-0.821,0.107-1.21c0-0.836-0.192-1.621-0.573-2.356
		c-0.213-0.36-0.476-0.648-0.785-0.864c-0.326-0.216-0.723-0.325-1.188-0.325c-0.89,0.029-1.513,0.425-1.866,1.188
		c-0.171,0.346-0.29,0.728-0.361,1.145C145.722,36.307,145.68,36.71,145.68,37.099 M150.686,41.443h-0.044
		c-0.876,1.024-1.993,1.526-3.349,1.513c-1.655-0.029-2.837-0.626-3.543-1.794c-0.708-1.138-1.054-2.492-1.041-4.062
		c-0.013-1.585,0.333-2.939,1.041-4.063c0.707-1.123,1.888-1.7,3.543-1.729c1.37,0,2.458,0.518,3.265,1.556h0.042v-6.375h2.846
		v16.208h-2.76V41.443z"/>
	<path fill="#FFFFFF" d="M40.703,47.006c-0.607,0.081-1.224,0.191-1.819,0.191c-0.662,0-1.313-0.054-1.95-0.148
		c-0.583,2.018-1.098,4.053-1.546,6.098c0.002,0.158-0.18,0.904-0.455,2.166c-0.039,0.203-0.074,0.406-0.113,0.608
		c1.201-1.276,1.837-1.312,3.647-1.946c0.004-0.004,0.011-0.008,0.017-0.014l-0.008,0.012c-0.003,0-0.006,0.002-0.009,0.002
		c-1.759,1.25-3.154,2.98-4.031,4.988c1.246-1.222,2.742-2.158,4.383-2.734l0.002,0.006c-1.813,1.281-3.244,3.078-4.123,5.166
		c1.295-1.344,2.883-2.369,4.625-2.98l0.004-0.002c-0.001,0-0.002,0.001-0.004,0.002c-3.043,2.155-5.739,5.628-5.807,9.609
		l-0.092,1.177c0.013,0.084-0.087,0.106-0.209,0.101c-0.008,0.155-0.02,0.312-0.025,0.467c-0.055,1.646-0.092,3.291-0.031,4.949
		c0.032,0.828,0.062,1.655,0.108,2.483c0.002,0.022,0.004,0.047,0.005,0.072c0.432,0.001,0.882-0.037,1.345-0.106
		c1.249-5.378,2.736-10.303,4.315-15.566c0.215-0.73,0.639-1.859,0.863-2.586c-0.09-0.047-0.177-0.097-0.268-0.142l-0.286-0.009
		l0.282,0.006c0.001,0.001-0.284-0.006-0.282-0.006c0.096,0.018,0.483,0.042,0.582,0.059c0.169-0.552,0.344-1.101,0.519-1.652
		c-0.228-0.114-0.215-0.102-0.44-0.211l-0.047-0.039c0.24,0.041,0.278,0.06,0.532,0.1c0.157-0.496,0.343-1.057,0.505-1.55
		c-0.411-0.212-0.826-0.414-1.231-0.612c0.341,0.061,0.815,0.111,1.368,0.192c0.335-1.019,0.511-1.857,0.839-3.007
		c0.57-1.998,1.227-3.996,1.966-5.927C42.826,46.617,41.815,46.858,40.703,47.006"/>
	<path fill="#FFFFFF" d="M65.299,12.37h-0.073c-0.838,0.011-1.667,0.151-2.504,0.32c-0.825,0.196-1.64,0.463-2.445,0.772
		c-1.613,0.621-3.12,1.502-4.541,2.494c-2.833,2.009-5.237,4.53-7.334,7.211c-3.727,4.842-6.503,10.216-8.692,15.738
		c0.267-0.084,0.537-0.164,0.812-0.233c1.257-0.317,2.526-0.452,3.784-0.424c1.011-1.908,2.407-3.803,4.4-5.645
		c-0.193-1.365-0.715-3.18-1.442-4.284l0.009-0.018c1.509,1.085,2.312,2.349,3.003,3.773l0.042,0.049
		c0.021,0.026,0.041,0.053,0.057,0.083c0.013,0.024,0.022,0.044,0.035,0.067c0.613-1.138,1.229-2.271,1.848-3.396
		c-0.287-1.326-0.812-2.613-1.583-3.792l-0.002-0.004c-0.294-0.452-0.174-1.06,0.268-1.359c0.385-0.259,0.885-0.201,1.203,0.112
		c0.101,0.089,0.201,0.18,0.3,0.272c-0.157-0.296-0.327-0.584-0.51-0.866c-0.143-0.219-0.193-0.487-0.14-0.746
		c0.054-0.256,0.206-0.481,0.424-0.623c0.357-0.23,0.826-0.201,1.147,0.081c0.078,0.068,0.156,0.138,0.233,0.208
		c-0.158-0.303-0.331-0.597-0.517-0.885c-0.026-0.039-0.044-0.08-0.065-0.123c-0.008-0.017-0.017-0.033-0.024-0.05
		c-0.007-0.019-0.02-0.035-0.026-0.054c-0.156-0.457,0.034-0.966,0.452-1.194c0.372-0.204,0.821-0.139,1.117,0.148
		c0.014,0.015,0.026,0.031,0.04,0.046c0.666,0.589,1.265,1.243,1.791,1.948c0.011-0.016,0.021-0.032,0.031-0.046
		c-0.016-0.065-0.031-0.13-0.049-0.195c-0.086-0.315-0.012-0.652,0.196-0.901c0.2-0.238,0.505-0.371,0.812-0.345
		c0.019,0.001,0.036,0.008,0.054,0.011c0.381-0.517,0.771-1.027,1.174-1.526c1.901-2.345,4.067-4.462,6.797-6.136
		c0.097-0.034,0.169-0.129,0.167-0.242C65.545,12.479,65.434,12.368,65.299,12.37"/>
</g>
</svg>
