<?xml version="1.0" encoding="utf-8"?>
<!-- Generator: Adobe Illustrator 16.0.0, SVG Export Plug-In . SVG Version: 6.00 Build 0)  -->
<!DOCTYPE svg PUBLIC "-//W3C//DTD SVG 1.1//EN" "http://www.w3.org/Graphics/SVG/1.1/DTD/svg11.dtd">
<svg version="1.1" id="Layer_1" xmlns="http://www.w3.org/2000/svg" xmlns:xlink="http://www.w3.org/1999/xlink" x="0px" y="0px"
	 width="27px" height="27px" viewBox="0 0 27 27" enable-background="new 0 0 27 27" xml:space="preserve">
<path fill="#016836" d="M17.074,13.443h-2.34v8.338H11.27v-8.338H9.624V10.5h1.647V8.594c0-1.365,0.648-3.496,3.499-3.496
	l2.562,0.01v2.859h-1.863c-0.303,0-0.732,0.15-0.732,0.801V10.5h2.646L17.074,13.443z M13.5,0C6.043,0,0,6.047,0,13.502
	C0,20.955,6.043,27,13.5,27c7.455,0,13.501-6.045,13.501-13.498C27.002,6.047,20.955,0,13.5,0"/>
</svg>
