<?xml version="1.0" encoding="utf-8"?>
<!-- Generator: Adobe Illustrator 18.0.0, SVG Export Plug-In . SVG Version: 6.00 Build 0)  -->
<!DOCTYPE svg PUBLIC "-//W3C//DTD SVG 1.1//EN" "http://www.w3.org/Graphics/SVG/1.1/DTD/svg11.dtd">
<svg version="1.1" id="Find_a_park" xmlns="http://www.w3.org/2000/svg" xmlns:xlink="http://www.w3.org/1999/xlink" x="0px"
	 y="0px" width="80px" height="69px" viewBox="-243 318.9 80 69" enable-background="new -243 318.9 80 69" xml:space="preserve">
<path fill="#016836" d="M-203,329.9c-12.7,0-23,10.3-23,23c0,12.7,10.3,23,23,23s23-10.3,23-23C-180,340.1-190.3,329.9-203,329.9z
	 M-200.6,358c-1.5,1.1-3.3,1.7-5.2,1.7c-5.1,0-9.2-4.1-9.2-9.2s4.1-9.2,9.2-9.2c5.1,0,9.2,4.1,9.2,9.2c0,1.9-0.6,3.5-1.5,5l3.7,3.6
	l-2.6,2.6L-200.6,358z M-193.9,364.7l-2.5-2.6l2.5-2.5l2.5,2.5L-193.9,364.7z M-199.8,350.4c0,3.2-2.6,5.9-5.9,5.9s-5.9-2.6-5.9-5.9
	s2.6-5.9,5.9-5.9S-199.8,347.2-199.8,350.4z"/>
</svg>
