<?xml version="1.0" encoding="utf-8"?>
<!-- Generator: Adobe Illustrator 18.0.0, SVG Export Plug-In . SVG Version: 6.00 Build 0)  -->
<!DOCTYPE svg PUBLIC "-//W3C//DTD SVG 1.1//EN" "http://www.w3.org/Graphics/SVG/1.1/DTD/svg11.dtd">
<svg version="1.1" id="Fees" xmlns="http://www.w3.org/2000/svg" xmlns:xlink="http://www.w3.org/1999/xlink" x="0px" y="0px"
	 width="80px" height="69px" viewBox="-243 318.9 80 69" enable-background="new -243 318.9 80 69" xml:space="preserve">
<path fill="#016836" d="M-203,329.9c-12.7,0-23,10.3-23,23c0,12.7,10.3,23,23,23s23-10.3,23-23C-180,340.2-190.3,329.9-203,329.9z
	 M-196.7,359.9c-0.4,0.8-0.9,1.5-1.6,2.1c-0.7,0.6-1.5,1-2.4,1.3c-0.1,0-0.2,0-0.2,0.1v3.6h-3.1v-3.2c-1.2,0-2.3-0.1-3.2-0.3
	c-1-0.2-1.8-0.4-2.3-0.6l0.3-4.2c0.8,0.3,1.5,0.6,2.2,0.9c0.7,0.3,1.6,0.5,2.5,0.5c0.4,0,0.8,0,1.2-0.2c0.4-0.1,0.7-0.3,1-0.5
	c0.3-0.2,0.5-0.5,0.7-0.8s0.3-0.7,0.3-1.2c0-0.7-0.2-1.3-0.6-1.7c-0.4-0.4-1-0.8-1.6-1.1c-0.6-0.3-1.3-0.6-2.1-0.9
	c-0.7-0.3-1.4-0.7-2.1-1.2c-0.6-0.5-1.2-1.1-1.6-1.9c-0.4-0.8-0.6-1.8-0.6-3.1c0-0.1,0-0.3,0-0.7c0-0.4,0.1-0.8,0.3-1.2
	c0.2-0.5,0.4-0.9,0.7-1.4s0.7-1,1.3-1.4c0.6-0.4,1.3-0.8,2.1-1c0.4-0.1,0.9-0.2,1.4-0.3v-2.4h3.1v2.4c0.4,0,0.8,0.1,1.2,0.1
	c0.4,0.1,0.8,0.1,1.2,0.2c0.4,0.1,0.8,0.2,1.3,0.3l-0.2,4c-0.6-0.3-1.3-0.6-2.1-0.8c-0.8-0.2-1.5-0.3-2.2-0.3
	c-0.8,0-1.5,0.2-2.1,0.6c-0.5,0.4-0.8,1-0.8,1.8c0,0.7,0.2,1.2,0.6,1.6c0.4,0.4,1,0.7,1.6,1c0.6,0.3,1.3,0.6,2.1,0.9
	c0.7,0.3,1.4,0.7,2.1,1.2c0.6,0.5,1.2,1.2,1.6,2c0.4,0.8,0.6,1.8,0.6,3.1C-196.1,358.2-196.3,359.1-196.7,359.9z"/>
</svg>
