<svg xmlns="http://www.w3.org/2000/svg" viewBox="0 0 27 27"><defs><style>.a{fill:#fff;opacity:0.8;isolation:isolate;}</style></defs><title>cwp-subscribe3</title><path class="a" d="M27,13.5A13.5,13.5,0,1,0,13.5,27,13.5,13.5,0,0,0,27,13.5Zm-5.51-2.56a0.53,0.53,0,0,1,0,.09v8.74l-5-4.53L21.43,11Zm-10.93.7a0.46,0.46,0,1,1-.13-0.91h6.16a0.46,0.46,0,0,1,.13.91H10.56Zm5.66,1.78a0.42,0.42,0,0,1-.39.46H11.36a0.46,0.46,0,0,1,0-.91h4.49a0.43,0.43,0,0,1,.37.45h0ZM6.73,9.31l6.44-5.54a0.73,0.73,0,0,1,.91,0l6.43,5.54a0.51,0.51,0,0,1,.08.72l-0.08.08-2,1.72V9.35a0.71,0.71,0,0,0-.74-0.65H9.52a0.71,0.71,0,0,0-.75.65v2.5l-2-1.72a0.57,0.57,0,0,1,0-.77l0-.05h0ZM5.75,11a0.42,0.42,0,0,1,0-.09l0.09,0,5.1,4.4L5.76,19.69V11.07ZM12,16.26a4.53,4.53,0,0,0,1,.5,2.63,2.63,0,0,0,1.47,0,4.71,4.71,0,0,0,1.1-.62l4.81,4.38H6.81Z"/></svg>