<svg xmlns="http://www.w3.org/2000/svg" viewBox="0 0 413 206" preserveAspectRatio="xMinYMid"><style>.st4{fill:#fff;opacity:.3}</style><g id="Layer_2"><path class="st4" d="M69.5 10.1c-1 8.6-1.2 18.4.5 27.8 0 .2.8 8 5.8 15.6l.3.4-.1.5c0 .1-1.6 14.8 9.4 30.8l.1.2c0 .1 3.9 9.3 9.2 20.2 1.6 3.4 3.4 6.9 5.3 10.4.5 1.3 13.2 31.5 15.2 51.4 0 .9.2 1.8.4 2.4.1.2.1.3.2.4.4-.5.8-2.1.9-3.6v-.2c0-.1.5-1.8 1-5.2 1-6.6 2.2-19.4 1.1-39.1v.1c-.1-1.7-.2-3.4-.3-5.3-.2-3.1-.5-6.4-.8-9.6-.1-.7.5-1.3 1.2-1.4.7-.1 1.3.4 1.4 1.2.3 3.3.6 6.5.8 9.7.4 5 .6 9.6.7 13.9 9.3 23.5 16 31 19.2 33.3-.8-3.5-2.2-10.3-3.1-17.3-.8-5.8-1.4-11.9-1.6-16.8-.2-4.7-.1-7 .3-8.1-.9-1.4-1.7-3.1-2-4.7-.1-.7.3-1.4 1-1.5.7-.2 1.4.3 1.5 1 .3 1.6 1.2 3.2 2.1 4.5l.3.3c4.7 6.6 8.9 11.1 12.3 14.1 3.9 3.3 6.9 4.9 9 5.6-.8-.9-1.5-1.8-1.9-2.3-.5-.5-11.4-13.1-14.4-39.8-.4-3.8-.8-7.3-1.2-10.6-.3-2.9-.7-5.6-1-8.3-.3-2.1-.5-4.1-.7-6.1-.6.3-1.1.5-1.8.6-1.3.2-2.7.2-4 .1-.4 0-.9-.1-1.3-.1h-2.3c-2.3.1-4.9.2-6.7-1-1.8-1.2-3.1-3.1-3.9-5.1 0 .5-.1 1-.1 1.6-.1 1.9-.2 4.3-.3 7.2 0 .6-.5 1.1-1.1 1.2h-.3c-.7 0-1.3-.6-1.2-1.3.1-3 .2-5.3.3-7.3.1-2.3.2-4 .2-5.3-.1-7.5-.8-16.5-.8-16.5-1.7-8-4.8-15.2-7-20.5l-.1-.3c-.3-.7 0-1.4.7-1.7.7-.3 1.4 0 1.7.7l.1.3c2.3 5.4 5.4 12.7 7.2 21.1v.3c1.2.2 2.5.3 3.7.4h.5c.9.1 2.2.1 3.2 0 .7-.1 1.1-.3 1.4-.6.7-.9.2-2.1-.4-3.3-.6-1.4-1.3-2.9-.2-3.9l.2-.2.2.2c1.3 1.2 2.7 1.4 4.3 1.7.6.1 1.2.2 1.8.4.6.2 1.3.4 2 .8-.2-1.6-.4-3.1-.6-4.7-.7-5.2-1.7-9.5-3.1-13.1-3.1-8.3-7.7-13.3-12.6-18.5-1.8-2-3.4-4.4-4.7-6.9h-11.4c-.6 2.4-1.2 5-1.6 8 1.5 2.6 2.3 4.6 2.3 4.6.3.7-.1 1.4-.7 1.7-.7.3-1.4-.1-1.7-.7 0 0-.9-2.1-2.4-4.7-1.1-1.8-2.2-3.8-4.1-5.4-.3-.2-.6-.5-.9-.7-.7-.5-1.7-1.5-2.7-2.7H71.1c-.6 2.9-1.2 6.2-1.6 9.7 0 .1 0 0 0 0zM118 84.7c0-.7.6-1.3 1.3-1.3.7 0 1.3.6 1.3 1.3 0 3.6-.2 7.7-.5 11.6 0 .6-.5 1.1-1.1 1.2h-.3c-.7 0-1.2-.7-1.2-1.4.3-3.9.5-7.9.5-11.4zm.8 14.2c.7 0 1.3.6 1.3 1.3v1.5c0 .6-.5 1.2-1.1 1.3h-.2c-.7 0-1.3-.6-1.3-1.3v-1.5c0-.7.6-1.3 1.3-1.3zM80.2 57.7l.1-.5c.3-1.9 1.6-3.1 3.7-3.5 1.3-.2 2.5-.1 2.6-.1 2.1 1 3.8 1 4.8.9.7-.1 1.1-.3 1.1-.3 3.3-2.5 6.1-4 8.5-4.4 1.9-.3 2.8.1 3.1.3 5.1.7 10 15.3 10.6 22.8.2 2.5 0 6-2.4 8.2-2.2 2-6.6 5.5-11.8 6.4-3.9.7-7.6-.1-11.1-2.4-12.1-8.1-9.9-22.6-9.2-27.4zM219 13.6c-5.4 3.1-6.8 8.8-4 13.7 1.4 2.5 3.7 4.5 6.1 5.2L223 29c-1.6-.4-3.3-1.8-4.1-3.3-1.6-2.7-.7-5.4 1.3-6.9l6.8 11.9 1-.6c5.5-3.2 7.5-8.6 4.7-13.4-2.8-4.8-8.8-5.9-13.7-3.1zm10.1 5.2c1.6 2.8.1 5.1-1.5 6.1l-4.5-7.9c1.8-.7 4.5-.8 6 1.8zM64.4 205c-.4.1-1.6.5-3 1h7c-.4-1.5-1.9-1.6-4-1zM281.6 54.9c-4.2-19.5-11.3-37.9-21-54.7h-6.9c10.2 16.8 17.8 35.6 22.2 55.9 11.7 54.8-2.7 109.1-34.9 149.9h7.4c2.6-3.4 5-7 7.4-10.6 27.1-41.9 36.2-91.8 25.8-140.5zm-74.8 17.7c2.3 10.6 2.9 21.1 2.1 31.4.8-.8 1.8-1.6 2.9-2.2l2.5-1.4c.4-9.5-.4-19.2-2.5-28.9-6.3-29.3-23.4-54.6-48.3-71.4h-9.9c26.3 15 46.3 40.7 53.2 72.5zM35.2 191.1c4.1 2.8 8.4 5.2 12.8 7.4.8-.9 1.6-1.7 2.6-2.4l1.8-1.2C29.8 184.3 11 166 0 142.6v11.1c8.7 14.8 20.6 27.6 35.2 37.4zM34.5 7c.2-2.4.4-4.6.7-6.8C20.6 10 8.7 22.9 0 37.8v11C7.8 32.3 19.6 17.8 34.5 7zm135.1 176c-.9-.3-2-.4-3.2-.3-12.6 9.7-27.5 16.8-44 20.4-1.3.3-2.6.5-3.9.8-12.4 2.2-24.8 2.2-36.6.3-1.6.5-2.9 1.1-3.8 1.9h53.7c15.5-4.5 29.3-12.1 41.1-21.9-1.2-.5-2.2-.9-3.3-1.2zM32.4 145.4c4 2 8.6 1.9 12.7 1.3 3.5-.4 6.3-2 8.5-3.9.1-.1.2-.2.4-.3-.8-1.5-.6-3.5.5-6.1l.1-.3v-.2c.1-.5.3-1.5.5-3-1.4 0-2.8.1-4 .2-8.7-.6-13.4 6.9-18.7 12.3zm38.5-2.8c-.1-2-.2-4.1-.4-6.3-1.2-.8-2.4-1.6-3.4-2.3-.8 1.5-1.6 3-2.5 4.3 1.5.9 2.9 1.8 4.3 2.8.7.5 1.3 1 2 1.5z"/><path class="st4" d="M193 189.6c-.2-.4-.5-.8-.8-1.1 2.9 1.3 5.7 2.7 8.1 4.5 1.4 1 3 2.7 4.7 1.7 1.1-.6 2.1-2.4 2.8-3.5-5.4-2.6-10.8-5.5-16.2-8.1.6-1.5 1.1-3 1.5-4.3.4-1.5.7-2.8.9-4 1.2-6.1-2.7-11.8-1.1-18 .1-.9.3-1.7.4-2.4.2-1.1.4-1.9.4-2.2 3.7.6 7.3-1.9 7.3-1.9l8-7.4s-8.2 2.6-10.5 1.4c-1.6-.9-3.8-2.2-6.7-2.1 5.1-3 10.7-5 16.8-6.2.4-.1.7-.1 1.1-.2.7 2.6 2.7 7.5 8.2 6.7 7.3-1.1 11.1-3.9 11.1-3.9s-8.7-1.6-10.4-2.9c-.5-.4-1.2-.8-1.9-1.2 1.8-.3 3.5-.5 5.3-.7 2.8-.3 5.6-.4 8.4-.3 1.8.1 2.9.6 3.8-1.2 2.1-4.2-6.8-3.5-8.9-3.5-5 .1-9.9 1.1-14.7 2.2h-.2c1.9-3.7 3.5-11.1 3.5-11.1 1.8-13.1-.1-14.9-.1-14.9-4.2 2.4-5.8 7.7-5.8 7.7-4.1 10.9-2.1 16.8-.9 19-5.6 1.1-11 2.1-16.2 4.7.9-2.4.8-5.3.7-8.1-.1-2.2-.2-4.3-.1-6.4.2-4.2 1.1-8.3 4.3-11.7-1.2.6-2.4 1.2-3.6 2-.6.4-1.1.8-1.7 1.2-3.8 3.4-6.4 7.6-7.9 12.3-.3.9-.4 1.8-.6 2.7-.1.9-.2 1.8-.2 2.7.1 1.8.4 3.5 1.2 5 .6 1.2 1.6 2.4 2.8 3.3-4.3 2.9-8.3 6.3-11.8 10.2-.7.8-1.3 1.5-2 2.3-.9-7.8-2.9-15.2-7-21.7-.9-1.7-1.6-2.7-1.6-2.7s-1.6 2.4-2.8 6.1c.9 1.4 1.5 2.1 1.6 2.2l.2.2c1.1 1.5 2.7 3.2 3.3 3.6 1.3.4 2.3 1.6 2.3 3 .1 1.5-.8 2.8-2.3 3.3-.3.1-.5.2-.8.2-1.4.2-3.2.1-5.2-.6 1.5 7.4 8 9.5 9.9 9.9-.7 1.1-1.4 2.2-2 3.3-1.6 2.9-2.5 6.4-4.5 9.1-2.4 3.2-5.3 4.1-8.9 4.6 1.7-1.6 3.7-4.3 3.8-8.5 0 0-.9-12.7-15.7-18.3 0 .1 0 .3.1.4.9 6.9 2.4 13.7 3.1 17.1.1.4.2.8.3 1l.1.2c.1.4.4 1.2.3 2.1 1.8 3.5 1.5 2 3.1 5.1.3.6-.3 1.7-.9 1.9-2.5.6-4.9 1.4-7.4 2.2-4.5 1.6-4.8-2-5.1-5.8-.1-1.8-.4-3.7-.8-5.5-2.6-2.9-5.7-7.3-9.3-14.3.5 3.5.9 6.9 1.4 10.4.6 4.5 1.3 8.9 1.7 13.4.1 1.3.8 3.2.3 4.1-.1.3-.5.5-.9.6-.5.1-1.5.2-1.9 0-.7-.4-.7-1.4-1.2-2-.9-1.2-2.4-2-3.6-2.9-.6-.5-1.2-.9-1.8-1.4-.8 1.3-1.8 2.1-3.1 2.4-.3.1-.7.1-1.1.1-2.9-.2-4.7-2.9-4.8-7.1-.1-.7-.2-1.5-.3-2.2-1.7-1.3-3.4-2.5-5.1-3.8-4.3-3.2-8.5-6.5-12.7-9.7-.6 1.9-1.2 3.8-1.9 5.6.6.4 1.1.8 1.7 1.2 8.1 5.8 16.5 11.5 24 18.1.9.8 3.4 2.6 2.5 4-.2.4-.7.6-1.3.8-.3.1-.7.2-1 .3-.1 0-.2 0-.3.1-.2 0-.4.1-.6.1-3.7.5-7.3 1.5-11 2.3-10 2-19.7 5.1-29.5 7.6-4.3 1.1-8.6 2.5-12.9 3.9-3 1-6.6 1.6-9.2 3.6-2.3 1.7-4 4.2-5.4 6.7h13.8c1.5-.5 2.6-.9 3-1 2-.6 3.6-.4 4 1h4.9c.3-.6.7-1.2 1-1.8 2.9-4.1 9.5-4.4 13.9-5.8 11.3-3.6 22.4-6.8 33.9-9.6 12.2-3 24.6-5.5 36.8-8.7 3.8-1 8-2 11.9-.8 4.8 1.5 9.7 3.8 14.2 6 1.3.7 2.7 1.3 4.2 1.9l-.8.5c-.8.4-1.4.8-2 1.3-.6.5-1 .9-1.4 1.5-2.4 2.6-2.4 6.3-.9 9.1.9 2.2 1.7 4.4 2.4 6.6h6.3c1.9-5.5 2.7-11.6 0-16.8zm-5.2-7.8c-1.5-.5-2.9-.9-4.4-1.5-1.3-.5-2.5-1.2-3.7-1.8-.8-.4-2.5-.8-3-1.4-1.9-2.1.9-1.7 2.3-2.4 2.1-1.1.3-3.1.4-5 0-1.2 1.1-2.3.2-3.2-1.5-1.4-5.7 1.1-7.4 1 1.1-8.1 6.5-14.8 12.3-19.9 1-.9 2-1.6 3-2.4-.1 1.6.3 3.9 3 5.9.9.7 1.8 1 2.8 1.2-1.7.7-10 4.6-12 15.1-1.3 7.4 3.1 12 6.5 14.4zM70.6 153.6c-2.5.8-4.9 1.8-6.9 3-5.1 3-6.9 10.6-5.2 10.3 1.7-.3 3.6-1.1 6-3.1 1.1-1 2.9-1.7 5-2.5.6-2.4.9-5 1.1-7.7zM144.9 31c.3-.7-.7-1.6-.4-2.3.5-1.3 1.6-.2 2 .5 1.1 2.1 1.4 4.9 1.9 7.2.3 1.3.4 2.6.8 3.9.2.6.2.7.7.8.5.1 1.1.1 1.6 0 1-.1 4.1-.9 3.8-2.6.5-4.5-3.6-9.3-7-11.7-1-.7-2-1.2-3.2-1.4-1.3-.2-1.8.6-1.9 1.8-.1 1 0 2.6.3 3.5.1.8 1 1.3 1.4.3zM52.2 72.3c.5.1 1.1.1 1.6.1s1.1 0 1.6-.1c5.1-.7 14.3-1.6 12.7-8.7-.2-1.1-.5-2.3-.9-3.3s-.8-2-1.1-2.7c-1.1-2.3-4.4-4.4-6.8-3.2-.7.2-1.5.4-2.4.6-1.9.3-4.2.5-7.2.4-.6 0-2.6.5-3.3 1.6-.5.8-1.1 1.5-1.5 2.3-.2.4-.4.8-.6 1.3-2.3 5.9 2.4 11.5 7.9 11.7zm48.9 1.1c6.6-1.4 8.1-13.3 3.9-19.4-3.3-4.8-11.5 1.8-11.5 1.8s-1.2 1.8-7.3.2c0 0-1.9-.6-3.8 1.1 0 0-3.1 10.3 2.8 13.5 0 .1 9.2 4.2 15.9 2.8zM143 52c-2.3-4.3-6.6-7.2-11.3-8.2 2.3 2 3.4 4.5.6 6.5-1 .8-2.4 1.2-3.6 1.4-.7.1-1.4.2-2.1-.1-.8-.3-1.2-1.1-1.9-.3-.4 3.2 1.4 7.3 3.2 9.8 1.7 2.4 3.9 3.3 6.7 2.8 2.7-.4 5.8-1.1 7.9-3 2.7-2.3 1.9-6.1.5-8.9z"/><path class="st4" d="M136.5 24.7c1.4 3.8 2.6 8.3 3.3 13.7l.9 7.2.2.2c3.1 3.1 4.7 6.9 5.4 10.6.6 3.1.6 6.1.5 8.2-.1 2.1-.7 5.4-2.7 7.7.3 2.4.6 5 .9 7.6.5 4.4 1.1 9.1 1.6 14.1.2.3.3.5.5.8.5.9 1.1 1.7 1.6 2.6.4.7.9 1.4 1.4 2.1l1.5 2.1c4.2 4.6 9.9 10.3 17.3 13.8l.6.3c1.1.5 2.7 1.3 3.1 1.3h.1c0-.3-.7-1.1-1.2-1.7-.4-.4-.7-.8-1-1.2-1.6-2.3-3.1-4.6-4.6-7.2-.5-.9-1-1.7-1.5-2.6l-.3-.6c-1.2-2.4-2.5-5-3.5-7.7l-1.5-4 3.5 2.5c2.5 1.8 5.2 3.5 7.2 3.2.3 0 .6-.2.7-.5.2-1-1.5-3-2.7-4l-.1-.1-.1-.1c-1-1.1-2-2.1-3-3.1-3.4-3.5-6.6-6.9-9.1-11.1-.7-1.2-1.4-2.4-1.9-3.6-3.2-6.8-3.3-12.1-3.3-12.2-.1-1.6-.2-3.1-.3-4.7 5-.9 7.3-6.4 7.5-7 6-16.1-3.7-25.7-8-28.1-3.1-1.7-6.4-4.8-7.1-5.4l-.5-.5-2.6-2.6c-.2-.5-.3-1-.5-1.5-.6-2.1-1.6-4.1-2.9-6.1-1.4-2-2.7-3.7-4.3-5.3-.5-.5-1-.9-1.6-1.4h-10.3c1 1.9 2.3 3.7 3.6 5.2 5 4.9 9.9 10.3 13.2 19.1zm4-5.8v-.5l.5.5s3.9 3.7 7.5 5.7c3.8 2.1 12.6 10.9 7.1 25.6-.1.2-2 5.1-6 5.8-.6.1-1.2.1-1.8 0h-.3v-.3c0-.1 1.1-7.4-1.1-12.5-.6-1.4-1.3-2.8-2-4.2-1.9-3.8-3.9-7.7-4-12.1-.2-5.8.1-7.8.1-7.8v-.2zM37.6 20.7c.7 14.2 3.9 23.7 5.8 29.3.4 1.2.7 2.2 1 3.1-.7.5-1.4 1.1-2 1.8-4.3 4.8-4.8 13.2-3.4 19.3.4 1.6.9 3.1 1.6 4.4.8 1.5 1.8 2.9 2.9 4.1l.1.1c-8 2.9-11.3 12.2-9.8 20.8.9 4.9 2.4 8.4 3.9 10.9-5.3-3.3-10.7-6.1-16.6-8.3.8-1.4 2.9-5.2 3.5-11.4.8-7.9-1-19.9-1-19.9s-14.4 8.4-12.7 20c.7 4.4 2.2 7.1 3.9 8.9-3-1.2-5.9-2.7-8.8-4-1.6-.7-3.2-1.4-4.8-2-.3-.2-.7-.5-1.2-.8v4.7c1.1.4 2.2.8 3.2 1.2 5.3 2 10.4 4.6 15.6 7l1.8.9h-.4s-6.6 2.3-6.4 11.8c.2 9.5 3.8 17.7 3.8 17.7s5.6-6.8 6.8-18.5c.6-6.2-.6-8.9-1.9-10.1 7.4 3.5 14.6 7.2 21.3 12.2 3.7 2.8 7.5 5.3 11.3 8 .1-1.4.3-3.1.3-5.2-4.4-2.9-8.6-6-12.9-9 1.4-1.9 4-5.5 5.5-9.4 2.2-5.6-.1-12.8-.8-15.4-.9-3.5-1.3-6.3-1.4-8.1 3.1 2.4 6.9 3.9 11 4.4.6 3.3 1.2 6.9 1.6 10.8 3.3 29.5.1 37.6 0 38-.2.5-.4 1-.5 1.5.4-.4 1-1.1 1.9-2.3l.1-.2c4-5.7 7-13.2 8.8-22.3.1-.4.3-1.3 1.2-1.5l.6-.1.4.3c.4.3.6.7.7 2 .2.9.3 1.4.4 1.9.1.5.2 1.1.4 2.1 4.8 25.6 3.3 45.3-4.4 58.5-1.6 2.7-1.9 4-2 4.6.4-.1 1.6-.5 3.6-2.1 14.8-11.6 23.1-34.9 24.8-69.4C88.3 99.1 83.6 87.8 83 86.6c-5.3-7.8-7.8-15.1-8.9-20.9-1.1-5.6-1-9.7-.9-11.1-5.1-8-5.9-15.9-5.9-16.3-1.7-10.6-1.3-21.5 0-30.9C64.2 3.9 62 2.2 62 2.2c-.1-.1-1.2-.8-2.7-2H38.4c-.7 6.1-1.1 13.4-.8 20.5zm7.5 34.5c1.1-.9 2.3-1.5 3.5-1.9h.1c.6-.2 1.1-.4 1.6-.5.1 0 .2 0 .2-.1.5-.1.9-.2 1.3-.3h.1c1-.2 2.1-.3 3.1-.4.6-.1 1.2-.1 1.8-.2 1.3-.1 2.6-.2 3.8-.4.7-.1 2.8.7 3.7 1.2 4.1 2 6.8 6.4 8.3 13.5 2.2 10.5-.6 16.1-1.9 18.1-.9 1.4-2.1 2.3-3 2.5l-.6.1c-.4.1-.9.2-1.5.3-.3.1-.6.1-.9.1-8.1 1.2-15-.7-19.8-5.8-1-1.1-1.9-2.3-2.6-3.6-.6-1.2-1.1-2.5-1.4-4-1.3-5.4-.9-13.2 2.9-17.5.5-.5.9-.8 1.3-1.1zM222.7 2.3l5.2-.3c.1-.6.1-1.2 0-1.9h-5.2c.1.8.1 1.5 0 2.2zm-6.5 9.9c4.4-3.6 2.6-8.2.8-12h-6.2c.3.7.6 1.3.9 2 1.3 2.7 2.1 4.9.6 6.2-1.2 1-3.3.8-5.1-1.5-1.7-2.1-2.3-4.4-2.4-6.6h-5.2c-.1 3 .9 6.3 3.5 9.5 4.3 5.2 9.2 5.5 13.1 2.4zm6.5 29.6l11.9-5c1.5.2 3.2 1.8 3.8 3.3.2.5.3.9.4 1.3l4.6-2c-.9-2.1-3-3.7-5.2-4.2l2.5-1-1.9-4.5-18 7.6 1.9 4.5zm5.9 17.1l20.9 1.7-1.5-5-14.4-.8 11.7-8.4-1.4-5-16.7 12.5zm28.1 9.4c1.7-.3 2.8-1.8 2.5-3.4-.3-1.5-1.9-2.6-3.5-2.3-1.7.3-2.8 1.9-2.5 3.4.2 1.6 1.8 2.6 3.5 2.3z"/><path transform="rotate(-10.212 240.651 68.234)" class="st4" d="M230.9 65.8h19.5v4.8h-19.5z"/><path class="st4" d="M241.9 74.5c-6 .5-9.9 4.8-9.5 10.5.3 3.8 2.2 5.9 4.1 7l2.9-3.4c-1.4-.8-2.3-2-2.4-3.7-.2-2.9 1.9-5.2 5.3-5.4 3.4-.3 5.8 1.6 6 4.6.1 1.7-.5 3.1-1.8 4l3.4 2.9c1.7-1.4 3.2-3.8 3-7.5-.4-5.7-5-9.4-11-9zm1.4 19.5c-6.3-.4-10.5 3.5-10.9 9.1-.2 2.9.5 5.8 2.2 7.8l3.5-1.9c-1.1-1.3-1.7-3.3-1.6-5 .2-3.1 2.4-4.8 4.9-5l-.9 13.7 1.1.1c6.4.4 11-3 11.4-8.5.2-5.6-4.1-9.9-9.7-10.3zm5.5 10c-.2 3.2-2.8 4.2-4.6 4.2l.6-9.1c1.9.4 4.2 1.9 4 4.9z"/></g></svg>