<?xml version="1.0" encoding="utf-8"?>
<!-- Generator: Adobe Illustrator 16.0.0, SVG Export Plug-In . SVG Version: 6.00 Build 0)  -->
<!DOCTYPE svg PUBLIC "-//W3C//DTD SVG 1.1//EN" "http://www.w3.org/Graphics/SVG/1.1/DTD/svg11.dtd">
<svg version="1.1" id="Layer_1" xmlns="http://www.w3.org/2000/svg" xmlns:xlink="http://www.w3.org/1999/xlink" x="0px" y="0px"
	 width="593px" height="242px" viewBox="0 0 593 242" enable-background="new 0 0 593 242" xml:space="preserve">
<path fill="none" stroke="#6BA2B9" stroke-width="2" stroke-linecap="round" stroke-linejoin="bevel" stroke-miterlimit="10" stroke-dasharray="0,3.908" d="
	M334.315,23.288c14.268,1.306,40.691,12.685,39.52,78.984c-1.547,88.442-53.17,127.851-59.974,132.674
	c0,0,53.725-55.241,46.685-136.677C358.02,68.871,347.128,43.578,334.315,23.288 M183.662,184.406
	c-1.486,0.091-0.405-0.6,2.404-2.825c17.044-11.742,95.292-69.457,104.409-145.961c0.902-0.797,6.534-11.46,11.985-17.904
	c0,0,11.4-13.848,12.978-14.223c0.029,0.271,41.213,51.439,39.574,112.776c-1.262,48.164-20.862,82.885-35.157,101.973
	c16.895-48.297,17.197-95.364,5.195-136.169c-12.511-42.046-1.892-54.806,0.869-57.734c0,0-3.709-9.215-9.535-13.396
	c-1.008,0.472-1.923,0.915-3.664,1.989c-10.694,6.715-15.456,15.491-18.625,22.454c-3.917,8.403,13.698,26.178,0,53.113
	C270.697,134.646,198.35,183.775,183.662,184.406 M234.216,103.64c16.762-51.155,39.725-64.297,50.749-67.662
	c-0.662,11.19-7.555,60.422-76.506,121.319C216.9,145.236,226.212,127.932,234.216,103.64"/>
</svg>
