<?xml version="1.0" encoding="utf-8"?>
<!-- Generator: Adobe Illustrator 16.0.0, SVG Export Plug-In . SVG Version: 6.00 Build 0)  -->
<!DOCTYPE svg PUBLIC "-//W3C//DTD SVG 1.1//EN" "http://www.w3.org/Graphics/SVG/1.1/DTD/svg11.dtd">
<svg version="1.1" id="Layer_1" xmlns="http://www.w3.org/2000/svg" xmlns:xlink="http://www.w3.org/1999/xlink" x="0px" y="0px"
	 width="80px" height="72px" viewBox="0 0 80 72" enable-background="new 0 0 80 72" xml:space="preserve">
<g>
	<g>
		<path fill="#6BA2B9" d="M45.533,53.521c-0.015-0.023-0.031-0.047-0.048-0.072c-0.027,0.035-0.058,0.068-0.087,0.102
			C45.442,53.538,45.489,53.53,45.533,53.521z"/>
		<path fill="#6BA2B9" d="M47.229,54.31c-0.005,0.111-0.067,0.215-0.163,0.275c-0.022,0.014-0.046,0.021-0.071,0.031
			c0.035-0.012,0.069-0.018,0.106-0.027c0.571,0.701,1.79,1.408,3.26,2.066c-0.006,0.002-0.01,0.002-0.013,0.004
			c-0.482,0.162-0.94,1.002-0.469,2.016c0.473,1.012,2.118,2.086,2.346,2.01c0,0,0.558-1.822,0.086-2.834
			c-0.098-0.209-0.224-0.387-0.364-0.537c0.754,0.293,1.531,0.568,2.291,0.824c-0.466,0.197-0.882,1.012-0.425,1.996
			c0.473,1.014,2.118,2.088,2.346,2.01c0,0,0.558-1.82,0.085-2.834c-0.137-0.291-0.329-0.518-0.539-0.699
			c2.271,0.707,4.08,1.156,4.08,1.156l-0.291-0.904c-0.604-0.145-1.175-0.289-1.718-0.438c0.162-0.053,0.33-0.127,0.5-0.23
			c0.976-0.596,1.845-2.314,1.733-2.518c0,0-0.434-0.057-0.997-0.057c-0.631,0-1.422,0.072-1.94,0.389
			c-0.601,0.367-0.887,0.93-0.976,1.387v0.543c-0.961-0.297-1.812-0.594-2.565-0.889c0.116-0.049,0.235-0.107,0.354-0.18
			c0.977-0.594,1.846-2.314,1.732-2.518c0,0-0.434-0.059-0.994-0.059c-0.632,0-1.424,0.074-1.94,0.391
			c-0.683,0.414-0.959,1.084-1.002,1.561c-1.629-0.789-2.585-1.506-3.138-2.027c3.025-0.801,6.038-1.764,8.896-2.924l0.676-1.807
			l0,0c-0.006,0-2.245,1.281-7.535,2.777c0.279-0.279,0.516-0.662,0.577-1.135c0.139-1.07-1.017-2.574-1.018-2.578h-0.002
			c-0.254,0.004-1.547,1.471-1.685,2.539c-0.103,0.781,0.262,1.328,0.673,1.57c-0.628,0.164-1.293,0.33-1.995,0.496
			C47.197,53.528,47.247,53.911,47.229,54.31z"/>
		<path fill="#6BA2B9" d="M46.747,54.603c-0.526-0.246-0.912-0.629-1.214-1.082c-0.044,0.01-0.091,0.018-0.135,0.029
			c0.029-0.033,0.06-0.066,0.087-0.102c-0.383-0.605-0.627-1.318-0.854-1.986c-0.125-0.371-0.244-0.723-0.379-1.023
			c-0.122-0.275-0.228-0.557-0.326-0.84c-0.596,0.65-1.277,1.633-1.413,2.461c-0.146,0.891,0.191,1.57,0.636,1.951
			c-1.76,0.344-3.695,0.676-5.814,0.986c0.462-0.377,0.881-0.936,1.002-1.67c0.243-1.492-1.321-3.701-1.321-3.701
			c-0.001,0-0.003,0-0.006,0c-0.368,0-2.234,1.953-2.477,3.438c-0.17,1.043,0.27,1.82,0.807,2.211
			c-1.204,0.16-2.46,0.312-3.774,0.455c-0.161-0.004-0.355,0-0.593,0.02c-0.326,0.021-0.634,0.01-0.924-0.023
			c-0.567-0.066-1.066-0.223-1.493-0.422c-0.08-0.039-0.156-0.074-0.23-0.113c-0.434-0.314-0.891-0.662-1.353-1.02
			c-0.156-0.164-0.237-0.273-0.237-0.273l0.021,0.105c-0.066-0.053-0.134-0.105-0.202-0.156c0.091,0.031,0.182,0.049,0.266,0.051
			c0.402,0.006,1.434-0.605,1.575-1.674c0.139-1.068-1.02-2.576-1.02-2.576l0,0c-0.253,0-1.546,1.469-1.686,2.537
			c-0.064,0.494,0.059,0.893,0.26,1.184c-1.75-1.391-3.43-2.791-4.183-3.271l-0.798,1.111l0,0c0.518,0.312,1.047,0.676,1.57,1.062
			c-0.194,0.004-0.396,0.033-0.598,0.104c-1.062,0.35-1.96,2.012-1.96,2.012c0.107,0.219,2.056,0.682,3.117,0.33
			c0.682-0.225,1.036-0.682,1.143-1.104c1.227,1.027,2.266,2.016,2.809,2.545c-1.826,0.152-3.743,0.285-5.759,0.395l-1.041,1.426
			l0,0h3.786c2.126-0.129,4.998-0.355,8.301-0.75c-0.042,0.023-0.083,0.047-0.116,0.074c-0.355,0.291-0.68,1.561,0.204,2.562
			c0.733,0.83,2.526,1.254,3.116,1.375h0.22c0.169-0.34-0.103-2.377-0.947-3.332c-0.427-0.484-0.936-0.729-1.401-0.811
			c1.22-0.158,2.494-0.338,3.805-0.541c-0.365,0.479-0.634,1.682,0.159,2.729c0.767,1.016,2.824,1.641,3.417,1.805h0.198
			c0.215-0.381,0.088-2.67-0.771-3.803c-0.405-0.533-0.909-0.844-1.39-0.99c0.922-0.156,1.86-0.326,2.81-0.508
			c-0.035,0.027-0.066,0.053-0.095,0.082c-0.376,0.391-0.577,1.928,0.596,2.979c0.759,0.682,2.237,0.982,3.188,1.111h0.921
			c0.104-0.52-0.495-2.766-1.584-3.74c-0.487-0.438-1.022-0.66-1.518-0.734c1.261-0.26,2.532-0.545,3.81-0.861
			c-0.021,0.004-0.044,0.01-0.065,0.01C46.842,54.634,46.792,54.624,46.747,54.603z"/>
		<path fill="#6BA2B9" d="M31.037,13.249c-1.106,2.836-1.723,5.289-1.879,7.498c-0.129,1.813,0.145,3.432,0.546,5.042
			c0.068-0.026,0.109-0.042,0.121-0.044c0.525-0.147,1.307-0.318,2.124-0.318c1.098,0,1.962,0.303,2.568,0.898
			c1.42,1.394,1.103,5.291,0.794,6.135c-0.299,0.827-1.091,1.701-1.963,1.701l0,0c-0.048,0-0.096-0.002-0.145-0.007
			c-0.347-0.043-0.588-0.174-0.781-0.28c-0.244-0.132-0.341-0.175-0.547-0.098c-0.144,0.055-0.279,0.088-0.414,0.103
			c0.109,1.599,0.035,3.163-0.229,4.567c-0.069,0.369-0.672,2.477-1.17,4.139c-0.4,1.334-0.67,2.207-0.864,2.781
			c0.208-0.18,0.487-0.434,0.851-0.795c0.046-0.047,0.084-0.084,0.109-0.107c0.598-0.57,1.108-1.188,1.534-1.832
			c0.472-0.621,1.249-1.684,2.024-2.908c-0.032,0.395-0.084,0.791-0.135,1.182c-0.053,0.395-0.101,0.768-0.129,1.127
			c-0.123,1.549-0.323,3.07-0.596,4.518c-0.52,2.758-1.371,6.141-3.371,8.697c0.803-0.365,1.646-0.943,2.548-1.74
			c2.934-2.592,5.098-6.395,6.811-11.965c0.058-0.186,0.111-0.373,0.164-0.561c-0.265-1.029-0.57-2.057-0.915-3.084
			c-1.619-4.854-2.244-9.71-1.961-15.291c0.109-2.172,0.449-4.125,1.01-5.836c-0.062-0.136-0.121-0.27-0.185-0.404
			c-1.223-1.351-2.271-2.835-3.115-4.418c-0.107-0.202-0.181-0.532-0.266-0.914c-0.085-0.375-0.281-1.256-0.473-1.336
			c0.001,0.001-0.074,0.013-0.23,0.175C31.998,10.784,31.487,12.094,31.037,13.249z"/>
		<path fill="#6BA2B9" d="M47.805,24.947c0.011,0.067,0.022,0.14,0.024,0.213l0.001,0.018l0,0c0.014,0.132,0.02,0.263,0.03,0.394
			c0.059,0.641,0.081,1.27,0.064,1.888c0.323-0.172,0.731-0.284,1.253-0.31c1.036-0.052,1.829,0.033,2.455,0.308
			c0.003-0.365,0.02-0.726,0.036-1.083c0.034-0.771,0.07-1.566-0.033-2.348c-0.212-1.569-0.952-2.857-1.759-4.147
			c-0.903-1.447-1.404-2.84-1.581-4.385c-0.029-0.268-0.021-0.53-0.015-0.783c0.008-0.208,0.014-0.409-0.001-0.601
			c-0.064,0.109-0.12,0.221-0.15,0.277c-0.032,0.058-0.056,0.107-0.077,0.139c-0.232,0.405-0.479,0.792-0.719,1.164
			c-0.63,0.984-1.228,1.914-1.508,3.062c0.51,1.084,0.92,2.113,1.242,3.106c0.346,0.995,0.607,2.018,0.734,3.082
			C47.803,24.944,47.805,24.946,47.805,24.947z"/>
		<path fill="#6BA2B9" d="M50.461,35.045c-0.1,0.008-0.197,0.012-0.295,0.012c-1.192,0-2.291-0.512-3.021-1.404
			c-0.098-0.119-0.183-0.245-0.262-0.372c-0.136,0.44-0.275,0.871-0.42,1.29c-1.169,3.401-1.73,6.79-2.325,10.381l-0.103,0.617
			c-0.137,0.826-0.222,1.326,0.003,2.096l0.07,0.244c0.219,0.754,0.443,1.535,0.765,2.252c0.146,0.326,0.271,0.695,0.402,1.082
			c0.293,0.861,0.618,1.82,1.243,2.396c-0.031-0.254-0.081-0.508-0.132-0.77c-0.086-0.432-0.174-0.881-0.186-1.357
			c-0.028-1.205,0.131-2.43,0.297-3.58c0.118-0.838,0.315-1.934,0.773-2.959c0.063-0.145,0.121-0.291,0.177-0.439
			c0.175-0.328,0.286-0.555,0.286-0.555l1.166-1.684c0.033,0.088,0.033,0.188-0.01,0.277c-0.627,1.303,0.206,3.248,1.303,4.605
			c0.476,0.586,0.909,1.111,1.407,1.592c0.062,0.057,0.237,0.182,0.416,0.297c-0.145-0.293-0.295-0.58-0.443-0.863
			c-0.504-0.949-1.026-1.938-1.232-3.113c-0.28-1.611-0.182-3.438-0.094-5.049l0.021-0.4c0.046-0.873,0.209-1.732,0.364-2.564
			c0.13-0.693,0.265-1.404,0.329-2.117C50.8,35.004,50.633,35.034,50.461,35.045z"/>
		<path fill="#6BA2B9" d="M36.88,22.643c-0.099,1.953-0.083,3.816,0.049,5.619c0.035-0.095,0.075-0.189,0.118-0.293
			c0.103-0.268,0.257-0.498,0.455-0.674l0.05-0.043l0.062-0.021c0.775-0.275,1.597-0.4,2.584-0.4c0.672,0,1.354,0.058,2.017,0.116
			l0.358,0.033c0.207,0.033,0.39,0.074,0.559,0.125c1.07,0.329,1.629,1.086,1.655,2.251c0.017,0.722,0.054,2.409-0.356,3.781
			c-0.099,0.509-0.286,0.916-0.573,1.244c-0.513,0.735-1.228,1.109-2.125,1.109l-0.162-0.002c-1.152-0.009-2.711-0.026-3.646-0.872
			c0.251,1.02,0.543,2.032,0.88,3.044c1.654,4.949,2.428,9.904,2.309,14.76c1.455-3.066,1.962-6.33,2.494-9.762
			c0.167-1.062,0.337-2.162,0.537-3.24c0.315-1.697,0.848-3.396,1.363-5.043c0.304-0.977,0.613-1.964,0.879-2.96
			c0.009-0.157,0.023-0.314,0.054-0.47c0.054-0.263,0.095-0.532,0.136-0.791c0.088-0.573,0.185-1.177,0.427-1.694
			c0.148-1.101,0.192-2.21,0.072-3.321c0-0.001-0.001-0.001-0.001-0.003v-0.001c-0.34-3.068-1.88-5.851-3.37-8.543
			c-0.752-1.359-1.529-2.762-2.145-4.188c-0.027-0.064-0.06-0.144-0.094-0.235c-0.071-0.183-0.279-0.719-0.43-0.847
			c-0.007,0.004-0.011,0.009-0.02,0.016c-0.712,0.7-1.243,1.659-1.756,2.586c-0.1,0.181-0.197,0.358-0.295,0.53
			C37.747,16.6,37.045,19.354,36.88,22.643z"/>
		<path fill="#6BA2B9" d="M29.265,26.792c0,0,0,0-0.002,0c0.002,0.004,0.002,0.007,0.004,0.011
			C29.265,26.798,29.267,26.796,29.265,26.792z"/>
		<path fill="#6BA2B9" d="M29.265,26.792c0,0,0,0-0.002,0c0.002,0.004,0.002,0.007,0.004,0.011
			C29.265,26.798,29.267,26.796,29.265,26.792z"/>
	</g>
	<path fill="#6BA2B9" d="M44.002,28.707c-0.111-0.328-0.311-0.573-0.608-0.75c0.716,0.851-0.271,1.546-1.593,1.8
		c-0.352,0.021-0.696,0.029-0.973,0.046c-0.143-0.021-0.281-0.048-0.415-0.073c-0.456-0.09-1.131-0.156-1.622-0.401
		c-0.248-0.121-0.45-0.288-0.559-0.52c-0.206-0.337-0.283-0.71-0.253-0.985c-0.022,0.009-0.047,0.015-0.07,0.023
		c-0.003,0.001-0.005,0.006-0.009,0.01c-0.581,0.264-0.731,1.233-0.719,2.185c-0.015,0.184-0.022,0.368-0.015,0.554
		c0.045,0.339,0.094,0.677,0.148,1.013c0.025,0.104,0.049,0.208,0.07,0.312c0.155,0.697,0.029,0.127,0.002,0.011
		c0.181,0.812,0.337,1.512,0.918,2.111c0.359,0.371,0.906,0.561,1.499,0.657c0,0,0.002,0,0.002,0.001
		c0.603,0.098,1.485,0.221,2.223,0.087c0.253-0.033,0.479-0.111,0.683-0.236c0.017-0.008,0.032-0.018,0.049-0.028
		c0.029-0.02,0.06-0.04,0.089-0.061c0.01-0.009,0.021-0.014,0.031-0.022c0.025-0.018,0.049-0.043,0.075-0.063
		c0.129-0.112,0.248-0.245,0.354-0.4l0.027-0.035c0.179-0.202,0.305-0.458,0.388-0.771C44.28,31.816,44.495,29.853,44.002,28.707z"
		/>
	<g>
		<path fill="#6BA2B9" d="M34.841,31.344c0.005-0.042,0.008-0.081,0.011-0.123c0.005-0.047,0.009-0.093,0.012-0.141
			c0.001-0.018,0.003-0.035,0.004-0.053c0.088-1.21,0.149-3.084-0.715-4.09c-0.036-0.047-0.074-0.088-0.114-0.128
			c-0.083-0.081-0.174-0.155-0.271-0.222c-0.096-0.068-0.199-0.127-0.307-0.178c-0.01,0.046-0.024,0.089-0.043,0.132
			c-0.003,0.008-0.008,0.017-0.013,0.024c-0.332,0.677-1.867,0.898-2.426,0.901c-0.238,0-0.554-0.034-0.856-0.111
			c-0.334-0.086-0.649-0.226-0.816-0.438c-0.018-0.04-0.035-0.08-0.044-0.125c-0.504,0.354-1.093,0.974-1.188,1.97
			c-0.005,0.053-0.006,0.105-0.01,0.158c-0.102,0.894,0.116,1.854,0.575,2.624c0.045,0.074,0.089,0.147,0.138,0.217
			c0.005,0.005,0.008,0.012,0.011,0.018c0.012,0.016,0.024,0.03,0.037,0.046c0.283,0.391,0.616,0.675,0.96,0.82
			c0.216,0.089,0.404,0.17,0.569,0.243c0.131,0.058,0.245,0.106,0.349,0.149c0.258,0.107,0.447,0.169,0.613,0.169
			c0.028,0,0.056-0.005,0.084-0.008c0.073-0.008,0.147-0.025,0.234-0.058c0.149-0.056,0.288-0.083,0.427-0.083
			c0.141,0,0.264,0.028,0.376,0.071c0.001,0,0.001,0,0.003,0l0,0c0.113,0.043,0.214,0.098,0.309,0.149
			c0.164,0.089,0.319,0.174,0.536,0.2c0.215,0.026,0.461-0.076,0.692-0.26c0.018-0.014,0.036-0.031,0.055-0.048
			c0.015-0.011,0.03-0.024,0.045-0.037c0.016-0.017,0.034-0.034,0.053-0.051c0.02-0.022,0.042-0.042,0.061-0.063
			c0.007-0.009,0.015-0.017,0.023-0.025c0.003-0.005,0.005-0.008,0.008-0.011c0.057-0.065,0.111-0.133,0.162-0.206l0,0
			c0.118-0.167,0.219-0.353,0.291-0.548c0.053-0.145,0.101-0.372,0.139-0.653c0.001-0.014,0.003-0.027,0.006-0.04
			C34.826,31.473,34.834,31.409,34.841,31.344z"/>
		<path fill="#6BA2B9" d="M34.04,26.809C35.142,27.892,33.874,26.647,34.04,26.809L34.04,26.809z"/>
	</g>
	<path fill="#6BA2B9" d="M52.808,30.099c-0.051-0.101-0.072-0.214-0.083-0.285c-0.082-0.226-0.17-0.427-0.265-0.609
		c-0.075-0.147-0.157-0.276-0.246-0.396c-0.044-0.069-0.097-0.135-0.153-0.202c0.033,0.233-0.076,0.422-0.274,0.566
		c-0.006,0.003-0.013,0.006-0.02,0.01c-0.501,0.207-1.185,0.321-1.824,0.281c-0.82-0.108-1.603-0.479-1.784-1.144
		c-0.016-0.061-0.031-0.12-0.036-0.187c-0.05,0.033-0.097,0.07-0.14,0.106c-0.032,0.03-0.063,0.06-0.094,0.091
		c-0.003,0.005-0.007,0.008-0.011,0.013c-0.001,0-0.001,0.002-0.003,0.004c-0.631,0.672-0.6,1.9-0.769,2.731
		c-0.018,0.09-0.029,0.181-0.038,0.271c-0.002,0.032-0.004,0.063-0.006,0.096c-0.001,0.057-0.003,0.115-0.001,0.171
		c0.001,0.04,0.001,0.079,0.005,0.119c0.005,0.043,0.011,0.084,0.016,0.127c0.013,0.104,0.032,0.209,0.06,0.312
		c0.001,0.008,0.003,0.017,0.004,0.025c0.009,0.029,0.014,0.061,0.023,0.091c0.1,0.329,0.268,0.645,0.502,0.934
		c0.031,0.038,0.066,0.071,0.1,0.107c0.018,0.019,0.035,0.038,0.053,0.057c0.064,0.068,0.129,0.132,0.198,0.192
		c0.045,0.042,0.094,0.081,0.142,0.12c0.032,0.026,0.065,0.051,0.1,0.076c0.082,0.06,0.165,0.116,0.252,0.166
		c0.021,0.012,0.041,0.021,0.061,0.033c0.034,0.02,0.068,0.04,0.106,0.058c0.062,0.034,0.128,0.062,0.192,0.09
		c0.002,0,0.003,0.001,0.003,0.001c0.522,0.227,1,0.3,1.434,0.247c0.034-0.001,0.068,0.001,0.102-0.001
		c0.207-0.015,0.402-0.06,0.588-0.132c0.302-0.119,0.574-0.318,0.816-0.589c0.025-0.026,0.052-0.053,0.074-0.083
		c0.447-0.548,0.726-1.299,0.855-2.038c0.064-0.353,0.096-0.713,0.085-1.069C52.85,30.598,52.863,30.619,52.808,30.099z"/>
</g>
</svg>
