<?xml version="1.0" encoding="utf-8"?>
<!-- Generator: Adobe Illustrator 16.0.0, SVG Export Plug-In . SVG Version: 6.00 Build 0)  -->
<!DOCTYPE svg PUBLIC "-//W3C//DTD SVG 1.1//EN" "http://www.w3.org/Graphics/SVG/1.1/DTD/svg11.dtd">
<svg version="1.1" id="Layer_1" xmlns="http://www.w3.org/2000/svg" xmlns:xlink="http://www.w3.org/1999/xlink" x="0px" y="0px"
	 width="80px" height="69px" viewBox="0 0 80 69" enable-background="new 0 0 80 69" xml:space="preserve">
<g>
	<g>
		<g>
			<g>
				<g>
					<g>
						<g>
							<g>
								<g>
									<defs>
										<rect id="SVGID_1_" x="18.239" y="17.345" width="43.523" height="32.312"/>
									</defs>
									<clipPath id="SVGID_2_">
										<use xlink:href="#SVGID_1_"  overflow="visible"/>
									</clipPath>
									<path clip-path="url(#SVGID_2_)" fill="#6BA2B9" d="M37.793,45.82c0,0.957-0.699,1.736-1.558,1.736h-2.334
										c-0.86,0-1.559-0.779-1.559-1.736c0-0.5,0.195-0.948,0.501-1.266l4.431-0.021C37.591,44.855,37.793,45.311,37.793,45.82
										 M45.199,18.222c-0.217-0.683-0.891-1.043-1.504-0.802c-0.611,0.24-0.938,0.989-0.719,1.672l0.432,1.366l-0.129,0.114
										l2.92,9.242c0.111,0.357-0.021,0.742-0.299,0.932l0.103,0.378l-24.5,11.783l-0.79-2.363l-0.324-1.026
										c-0.203-0.643-0.836-0.979-1.41-0.754c-0.576,0.229-0.879,0.93-0.677,1.57l1.93,6.107c0.16,0.508,0.587,0.824,1.043,0.824
										c0.122,0,0.246-0.021,0.367-0.07c0.576-0.229,0.879-0.928,0.676-1.569l-0.325-1.028l8.659-0.035
										c-0.123,0.396-0.194,0.818-0.194,1.267c0,2.106,1.544,3.834,3.443,3.834h2.334c1.898,0,3.443-1.728,3.443-3.834
										c0-0.454-0.075-0.896-0.206-1.294l11.524-0.051l0.73,2.318c0.17,0.541,0.625,0.877,1.104,0.877
										c0.131,0,0.269-0.021,0.396-0.074c0.609-0.233,0.938-0.981,0.721-1.672L45.199,18.222z"/>
								</g>
							</g>
						</g>
					</g>
				</g>
			</g>
		</g>
	</g>
	<g>
		<g>
			<g>
				<g>
					<g>
						<g>
							<g>
								<g>
									<defs>
										<rect id="SVGID_3_" x="18.239" y="17.345" width="43.523" height="32.312"/>
									</defs>
									<clipPath id="SVGID_4_">
										<use xlink:href="#SVGID_3_"  overflow="visible"/>
									</clipPath>
									<polyline clip-path="url(#SVGID_4_)" fill="#6BA2B9" points="22.646,40.838 43.658,26.514 42.107,21.608 22.151,39.27 
										22.645,40.83 22.646,40.838 									"/>
								</g>
							</g>
						</g>
					</g>
				</g>
			</g>
		</g>
	</g>
	<g>
		<g>
			<g>
				<g>
					<g>
						<g>
							<g>
								<g>
									<defs>
										<rect id="SVGID_5_" x="18.239" y="17.345" width="43.523" height="32.312"/>
									</defs>
									<clipPath id="SVGID_6_">
										<use xlink:href="#SVGID_5_"  overflow="visible"/>
									</clipPath>
									<path clip-path="url(#SVGID_6_)" fill="#6BA2B9" d="M61.727,30.706c-0.014-0.134-0.019-0.235-0.041-0.397l-0.043-0.335
										c-0.086-0.54-0.203-1.018-0.351-1.506c-0.601-1.938-1.813-3.625-3.335-4.688c-1.52-1.066-3.355-1.521-5.014-1.131
										c1.572,0.669,2.877,1.566,3.928,2.703c1.046,1.132,1.818,2.48,2.283,3.95c0.119,0.362,0.217,0.756,0.287,1.1l0.062,0.331
										c0.015,0.06,0.028,0.183,0.046,0.272c0.025,0.194,0.049,0.389,0.068,0.585c0.074,0.784,0.07,1.583-0.02,2.388
										c-0.183,1.616-0.697,3.229-1.545,4.844c1.508-0.857,2.688-2.486,3.27-4.377c0.297-0.945,0.439-1.961,0.436-2.977
										C61.764,31.212,61.747,30.958,61.727,30.706"/>
								</g>
							</g>
						</g>
					</g>
				</g>
			</g>
		</g>
	</g>
	<g>
		<g>
			<g>
				<g>
					<g>
						<g>
							<g>
								<g>
									<defs>
										<rect id="SVGID_7_" x="18.239" y="17.345" width="43.523" height="32.312"/>
									</defs>
									<clipPath id="SVGID_8_">
										<use xlink:href="#SVGID_7_"  overflow="visible"/>
									</clipPath>
									<path clip-path="url(#SVGID_8_)" fill="#6BA2B9" d="M57.619,31.197L57.594,31c-0.051-0.318-0.119-0.601-0.205-0.888
										c-0.354-1.143-1.07-2.137-1.968-2.764c-0.896-0.628-1.978-0.895-2.956-0.666c0.928,0.395,1.697,0.923,2.316,1.593
										c0.617,0.668,1.072,1.462,1.346,2.329c0.07,0.213,0.127,0.445,0.169,0.648l0.063,0.356l0.041,0.344
										c0.045,0.463,0.043,0.933-0.01,1.408c-0.105,0.952-0.412,1.904-0.912,2.856c0.889-0.506,1.584-1.466,1.928-2.58
										c0.176-0.558,0.261-1.156,0.258-1.756c0.001-0.15-0.01-0.299-0.021-0.449L57.619,31.197z"/>
								</g>
							</g>
						</g>
					</g>
				</g>
			</g>
		</g>
	</g>
</g>
</svg>
