<?xml version="1.0" encoding="utf-8"?>
<!-- Generator: Adobe Illustrator 16.0.0, SVG Export Plug-In . SVG Version: 6.00 Build 0)  -->
<!DOCTYPE svg PUBLIC "-//W3C//DTD SVG 1.1//EN" "http://www.w3.org/Graphics/SVG/1.1/DTD/svg11.dtd">
<svg version="1.1" id="Layer_1" xmlns="http://www.w3.org/2000/svg" xmlns:xlink="http://www.w3.org/1999/xlink" x="0px" y="0px"
	 width="640px" height="552px" viewBox="0 0 640 552" enable-background="new 0 0 640 552" xml:space="preserve">
<g>
	<g>
		<g>
			<g>
				<g>
					<g>
						<g>
							<path fill="#6BA2B9" d="M164.112,205.376c0,16.44,5.792,31.554,15.408,43.434c3.336-23.97,14.448-44.912,32.424-60.77
								c12.771-11.264,25.104-16.486,28.09-17.654c3.052-1.466,14.982-6.536,33.396-6.536c5.288,0,10.64,0.504,16.021,1.344
								c-12.562-17.504-33.03-28.978-56.18-28.978C195.136,136.224,164.112,167.248,164.112,205.376"/>
						</g>
					</g>
				</g>
			</g>
		</g>
	</g>
</g>
<g>
	<g>
		<g>
			<g>
				<g>
					<g>
						<g>
							<path fill="#6BA2B9" d="M220.672,116.969c0.168,1.464,3.392,2.566,3.392,2.566h-0.088l18.288-0.19
								c-6.632-10.978-7.584-23.872-7.568-30.608C220.8,98.56,219.96,110.656,220.672,116.969"/>
						</g>
					</g>
				</g>
			</g>
		</g>
	</g>
</g>
<g>
	<g>
		<g>
			<g>
				<g>
					<g>
						<g>
							<path fill="#6BA2B9" d="M180.328,136.264c0.64,0,1.288-0.178,1.854-0.521l15.812-9.336
								c-11.24-6.184-18.526-16.864-21.896-22.704c-7.12,15.456-1.824,26.368,1.944,31.474
								C178.744,136.12,179.776,136.264,180.328,136.264"/>
						</g>
					</g>
				</g>
			</g>
		</g>
	</g>
</g>
<g>
	<g>
		<g>
			<g>
				<g>
					<g>
						<g>
							<path fill="#6BA2B9" d="M163.224,154.624c-0.784-0.176-1.288-0.168-1.752-0.168c-12.008,0-23.048-5.352-28.56-8.544
								c1.56,16.92,11.604,23.736,17.432,26.28c0.32,0.144,0.672,0.216,1.022,0.216c1.106,0,2.226-0.704,2.85-1.8L163.224,154.624z"
								/>
						</g>
					</g>
				</g>
			</g>
		</g>
	</g>
</g>
<g>
	<g>
		<g>
			<g>
				<g>
					<g>
						<g>
							<path fill="#6BA2B9" d="M116.768,204.048c8.12,11.77,18.08,14.232,24.928,14.232h0.014c1.154,0,2.216-0.072,3.146-0.176
								c1.48-0.168,2.584-1.584,2.568-3.306l-0.192-18.352C136.288,203.056,123.472,204.048,116.768,204.048"/>
						</g>
					</g>
				</g>
			</g>
		</g>
	</g>
</g>
<g>
	<g>
		<g>
			<g>
				<g>
					<g>
						<g>
							<path fill="#6BA2B9" d="M164.072,257.6c-0.074-0.386-0.229-0.776-0.442-1.146l-9.35-15.792
								c-6.168,11.232-16.854,18.528-22.69,21.89c4.854,2.424,9.848,3.566,14.604,3.566c2.576,0,4.904-0.352,7.014-0.88
								C156.696,262.328,160.376,259.768,164.072,257.6"/>
						</g>
					</g>
				</g>
			</g>
		</g>
	</g>
</g>
<g>
	<g>
		<g>
			<g>
				<g>
					<g>
						<g>
							<path fill="#6BA2B9" d="M312.28,170.12c0.032,0,0.178-0.008,0.272-0.176c5.864-11.064,16.544-18.36,22.392-21.729
								c-4.854-2.432-9.848-3.574-14.604-3.574c-7.764,0-13.456,3.008-16.864,5.52c-1.2,0.888-1.438,2.672-0.568,4.152
								L312.28,170.12z"/>
						</g>
					</g>
				</g>
			</g>
		</g>
	</g>
</g>
<g>
	<g>
		<g>
			<g>
				<g>
					<g>
						<g>
							<path fill="#6BA2B9" d="M268.032,126.328l15.986,9.018c-0.271-12.842,5.336-24.488,8.712-30.312
								c-16.936,1.552-23.738,11.6-26.286,17.424C265.856,123.816,266.536,125.48,268.032,126.328"/>
						</g>
					</g>
				</g>
			</g>
		</g>
	</g>
</g>
<g>
	<g>
		<g>
			<g>
				<g>
					<g>
						<g>
							<path fill="#6BA2B9" d="M198.008,370.561h287.375h0.146c2.604,0,39.991-1.099,37.592-40.416
								c-1.504-24.593-24.809-29.555-41.701-29.555c-5.219,0-9.819,0.354-12.987,0.816c-0.13,0.021-0.239-0.032-0.359-0.032
								c-1.96,0-3.456-2.397-3.146-4.407c1.697-10.849,2.492-39.151-28.311-61.049c-11.729-8.328-24.937-11.008-37.039-11.008
								c-15.197,0-28.662,4.226-35.246,6.712c-0.479,0.186-0.979,0.272-1.467,0.272c-1.761,0-3.416-1.128-4-2.896
								c-3.376-10.088-15.185-35.424-51.494-48.408c-12.979-4.64-24.466-6.168-33.957-6.168c-18.271,0-29.159,5.674-29.159,5.674
								s-49.27,17.646-54.792,74.104c-0.257,2.656-2.104,4.888-4.648,5.664c-11.536,3.528-42.256,18.319-41.52,47.333
								C144.64,360.729,182.536,370.561,198.008,370.561"/>
						</g>
					</g>
				</g>
			</g>
		</g>
	</g>
</g>
<g>
	<g>
		<g>
			<g>
				<g>
					<g>
						<g>
							<path fill="#6BA2B9" d="M241.272,436.616c0.562-7.312-10.76-24-11.238-24.704l-0.77,0.521l-0.776-0.521
								c-0.472,0.704-11.522,17.248-11.522,25.729c0,4.729,2.863,11.824,10.752,11.992c0.12,0.008,0.24,0.008,0.354,0.008
								C235.496,449.64,240.664,444.56,241.272,436.616"/>
						</g>
					</g>
				</g>
			</g>
		</g>
	</g>
</g>
<g>
	<g>
		<g>
			<g>
				<g>
					<g>
						<g>
							<path fill="#6BA2B9" d="M294.264,421.416c8.128,0,13.792-5.553,14.464-14.256c0.608-7.969-11.646-26.04-12.168-26.812
								l-1.016,0.694l-1.021-0.688c-0.512,0.763-12.479,18.674-12.479,27.896c0,5.176,3.144,12.951,11.812,13.15
								C294,421.416,294.128,421.416,294.264,421.416"/>
						</g>
					</g>
				</g>
			</g>
		</g>
	</g>
</g>
<g>
	<g>
		<g>
			<g>
				<g>
					<g>
						<g>
							<path fill="#6BA2B9" d="M266.552,463.264c7.16,0,12.136-4.888,12.728-12.544c0.536-6.979-10.154-22.752-10.61-23.416
								l-1,0.687l-1.014-0.672c-0.438,0.649-10.888,16.273-10.888,24.352c0,4.568,2.784,11.426,10.438,11.604
								C266.328,463.264,266.44,463.264,266.552,463.264"/>
						</g>
					</g>
				</g>
			</g>
		</g>
	</g>
</g>
<g>
	<g>
		<g>
			<g>
				<g>
					<g>
						<g>
							<path fill="#6BA2B9" d="M258.192,404.344c5.222,0,8.992-3.688,9.416-9.24c0.39-5.018-6.808-15.711-7.624-16.92L259,378.855
								l-0.992-0.664c-0.32,0.473-7.824,11.705-7.824,17.561c0,3.387,2.064,8.475,7.76,8.594
								C258.024,404.344,258.12,404.344,258.192,404.344"/>
						</g>
					</g>
				</g>
			</g>
		</g>
	</g>
</g>
<g>
	<g>
		<g>
			<g>
				<g>
					<g>
						<g>
							<path fill="#6BA2B9" d="M189,410.209c6.336,0,10.92-4.479,11.438-11.23c0.464-6.088-8.271-19.088-9.264-20.545l-1.2,0.814
								l-1.2-0.809c-0.392,0.562-9.504,14.209-9.504,21.324c0,4.11,2.518,10.286,9.424,10.446
								C188.8,410.209,188.896,410.209,189,410.209"/>
						</g>
					</g>
				</g>
			</g>
		</g>
	</g>
</g>
<g>
	<g>
		<g>
			<g>
				<g>
					<g>
						<g>
							<path fill="#6BA2B9" d="M227.072,404.344c5.222,0,8.992-3.688,9.416-9.24c0.39-5.018-6.808-15.711-7.624-16.92l-0.979,0.678
								l-0.992-0.663c-0.32,0.472-7.824,11.702-7.824,17.56c0,3.387,2.064,8.477,7.766,8.596
								C226.904,404.344,226.992,404.344,227.072,404.344"/>
						</g>
					</g>
				</g>
			</g>
		</g>
	</g>
</g>
</svg>
