<?xml version="1.0" encoding="utf-8"?>
<!-- Generator: Adobe Illustrator 18.0.0, SVG Export Plug-In . SVG Version: 6.00 Build 0)  -->
<!DOCTYPE svg PUBLIC "-//W3C//DTD SVG 1.1//EN" "http://www.w3.org/Graphics/SVG/1.1/DTD/svg11.dtd">
<svg version="1.1" id="Volunteer" xmlns="http://www.w3.org/2000/svg" xmlns:xlink="http://www.w3.org/1999/xlink" x="0px" y="0px"
	 width="80px" height="69px" viewBox="-243 318.9 80 69" enable-background="new -243 318.9 80 69" xml:space="preserve">
<g>
	<circle fill="#6BA2B9" cx="-203.6" cy="335.4" r="3.5"/>
	<path fill="#6BA2B9" d="M-210.9,329.8L-210.9,329.8c-0.1-1.1-1-1.9-2.1-1.8c-1.1,0.1-1.9,1-1.8,2.1c0.1,1.3,1.1,11.5,6.4,13.8v30.1
		c0,1.1,0.9,2,2,2s2-0.9,2-2v-14.2h1v14.2c0,1.1,0.9,2,2,2c1.1,0,2-0.9,2-2v-16.7v-12.9l0.1,0c0,0,0.2,0,0.2,0.1
		c0.1,0.1,0.2,0.4,0.2,0.8V356c0,1.1,0.9,2,2,2s2-0.9,2-2v-10.6c0-1.9-0.8-3.1-1.4-3.7c-1.1-1.1-2.5-1.2-3-1.2
		c-0.5,0-3.2-0.2-6.7-0.1c0,0,0,0,0,0C-209.1,340.3-210.6,333.1-210.9,329.8z"/>
	<circle fill="#6BA2B9" cx="-218.8" cy="341.1" r="3"/>
	<path fill="#6BA2B9" d="M-222.3,345c-1.5,0.1-3.6,1.4-3.6,4.3v8.7c0,0.8,0.7,1.5,1.5,1.5s1.5-0.7,1.5-1.5v15c0,1,0.8,1.7,1.7,1.7
		s1.7-0.8,1.7-1.7v-12.2h1v12.2c0,1,0.8,1.7,1.7,1.7s1.7-0.8,1.7-1.7v-14V358c0,0.8,0.7,1.5,1.5,1.5s1.5-0.7,1.5-1.5v-8.7
		c0-2.9-2.1-4.1-3.5-4.3l-6.7,0L-222.3,345z"/>
	<circle fill="#6BA2B9" cx="-185.4" cy="340.6" r="3"/>
	<path fill="#6BA2B9" d="M-192.5,348.8v8.7c0,0.8,0.7,1.5,1.5,1.5s1.5-0.7,1.5-1.5v-8.7c0-0.6,0.2-1,0.5-1.2v24.8
		c0,1,0.8,1.7,1.7,1.7c1,0,1.7-0.8,1.7-1.7c0,1,0.8,1.7,1.7,1.7s1.7-0.8,1.7-1.7v-14v-10.9c0.4,0.1,1,0.4,1,1.2v8.7
		c0,0.8,0.7,1.5,1.5,1.5c0.8,0,1.5-0.7,1.5-1.5v-8.7c0-2.9-2.4-4.2-4-4.3l-6.7,0l-0.1,0C-190.3,344.6-192.5,345.9-192.5,348.8z"/>
</g>
</svg>
