<?xml version="1.0" encoding="utf-8"?>
<!-- Generator: Adobe Illustrator 19.0.0, SVG Export Plug-In . SVG Version: 6.00 Build 0)  -->
<svg version="1.1" id="Layer_1" xmlns="http://www.w3.org/2000/svg" xmlns:xlink="http://www.w3.org/1999/xlink" x="0px" y="0px"
	 width="285px" height="120px" viewBox="0 0 285 120" style="enable-background:new 0 0 285 120;" xml:space="preserve">
<style type="text/css">
	.st0{fill:#FFFFFF;}
	.st1{opacity:0.8;fill:#FFFFFF;enable-background:new    ;}
</style>
<g id="Eyre_P">
	<polygon id="XMLID_43_" class="st0" points="98.8,39.1 98.8,50.9 98.8,50.9 93.1,39.1 89.4,39.1 89.4,54.9 92.2,54.9 92.2,43.1 
		92.3,43.1 98,54.9 101.7,54.9 101.7,39.1 	"/>
	<path class="st0" d="M108.2,52.9c0.9,0,1.6-0.4,2-1c0.5-0.7,0.6-1.5,0.6-2.4h-1.2c-1.3,0-3.2,0.2-3.2,2
		C106.4,52.6,107.2,52.9,108.2,52.9 M104.9,43.9c1.1-0.5,2.6-0.9,3.9-0.9c3.4,0,4.8,1.5,4.8,4.9v1.5c0,1.2,0,2.1,0,2.9
		c0,0.9,0.1,1.7,0.1,2.6h-2.5c-0.1-0.6-0.1-1.4-0.1-1.7l0,0c-0.7,1.3-2.1,2-3.4,2c-2,0-3.9-1.3-3.9-3.5c0-1.7,0.8-2.8,1.9-3.3
		c1.1-0.6,2.5-0.7,3.7-0.7h1.6c0-1.9-0.8-2.5-2.5-2.5c-1.2,0-2.5,0.5-3.4,1.3L104.9,43.9z"/>
	<path id="XMLID_40_" class="st0" d="M116.7,45.4h-2.1v-2.2h2.1v-2.3l2.9-1v3.3h2.6v2.2h-2.6v5.4c0,1,0.3,1.9,1.4,1.9
		c0.5,0,1-0.1,1.3-0.3l0.1,2.4c-0.6,0.2-1.3,0.3-2.1,0.3c-2.3,0-3.5-1.5-3.5-3.8L116.7,45.4L116.7,45.4z"/>
	<path id="XMLID_39_" class="st0" d="M133.6,54.9h-2.7v-1.6l0,0c-0.9,1.1-2.1,1.9-3.6,1.9c-2.6,0-3.8-2-3.8-4.6v-7.4h2.9v6.2
		c0,1.4,0,3.4,1.9,3.4c2.1,0,2.5-2.4,2.5-3.9v-5.7h2.9L133.6,54.9L133.6,54.9z"/>
	<path id="XMLID_38_" class="st0" d="M136.1,43.3h2.6v2.7l0,0c0.1-1.1,1.3-2.9,3-2.9c0.3,0,0.6,0,0.9,0.1v3.1
		c-0.3-0.2-0.8-0.3-1.3-0.3c-2.4,0-2.4,3.1-2.4,4.8v4.3H136L136.1,43.3L136.1,43.3z"/>
	<path class="st0" d="M147.4,52.9c0.9,0,1.6-0.4,2-1c0.5-0.7,0.6-1.5,0.6-2.4h-1.3c-1.3,0-3.2,0.2-3.2,2
		C145.6,52.6,146.4,52.9,147.4,52.9 M144,43.9c1.1-0.5,2.6-0.9,3.9-0.9c3.4,0,4.8,1.5,4.8,4.9v1.5c0,1.2,0,2.1,0,2.9
		c0,0.9,0.1,1.7,0.1,2.6h-2.5c-0.1-0.6-0.1-1.4-0.1-1.7l0,0c-0.7,1.3-2.1,2-3.4,2c-2,0-3.9-1.3-3.9-3.5c0-1.7,0.8-2.8,1.9-3.3
		c1.1-0.6,2.5-0.7,3.7-0.7h1.6c0-1.9-0.8-2.5-2.5-2.5c-1.2,0-2.5,0.5-3.4,1.3L144,43.9z"/>
	<rect id="XMLID_35_" x="155" y="37.9" class="st0" width="2.9" height="17"/>
	<path class="st0" d="M169.3,45.9h1c1.5,0,3.2-0.2,3.2-2.2c0-1.9-1.7-2.1-3.2-2.1h-1V45.9z M166.3,39.1h3.3c3.2,0,7.1-0.1,7.1,4.3
		c0,1.9-1.2,3.4-3.1,3.7l0,0c0.8,0.1,1.3,0.9,1.6,1.6l2.4,6.2h-3.4l-1.8-4.9c-0.4-1.2-0.8-1.6-2.1-1.6h-1V55h-3V39.1z"/>
	<path class="st0" d="M185.8,47.9c-0.1-1.5-0.7-2.7-2.3-2.7s-2.4,1.2-2.6,2.7H185.8z M187.7,54.3c-1.1,0.6-2.3,0.9-3.8,0.9
		c-3.7,0-5.8-2.2-5.8-6.1c0-3.4,1.7-6.2,5.2-6.2c4.1,0,5.3,3,5.3,7.1h-7.7c0.1,1.9,1.4,2.9,3.2,2.9c1.4,0,2.6-0.5,3.7-1.2
		L187.7,54.3L187.7,54.3z"/>
	<path id="XMLID_30_" class="st0" d="M197,45.7c-0.9-0.3-1.5-0.5-2.6-0.5c-0.8,0-1.7,0.3-1.7,1.3c0,1.9,5,0.7,5,4.9
		c0,2.7-2.3,3.8-4.7,3.8c-1.1,0-2.2-0.2-3.3-0.5l0.2-2.5c0.9,0.5,1.9,0.8,2.9,0.8c0.7,0,1.9-0.3,1.9-1.4c0-2.3-5-0.7-5-4.9
		c0-2.5,2.1-3.6,4.4-3.6c1.4,0,2.2,0.2,3.1,0.4L197,45.7z"/>
	<path class="st0" d="M204.5,52.9c2.2,0,2.8-2.1,2.8-4c0-1.8-0.9-3.5-2.8-3.5c-1.9,0-2.8,1.7-2.8,3.5
		C201.7,50.8,202.3,52.9,204.5,52.9 M204.5,42.9c3.3,0,5.8,2.3,5.8,6.2c0,3.4-2.1,6-5.8,6c-3.7,0-5.8-2.7-5.8-6
		C198.7,45.3,201.2,42.9,204.5,42.9"/>
	<path id="XMLID_27_" class="st0" d="M222.2,54.9h-2.7v-1.6l0,0c-0.9,1.1-2.1,1.9-3.6,1.9c-2.6,0-3.8-2-3.8-4.6v-7.4h2.9v6.2
		c0,1.4,0,3.4,1.9,3.4c2.1,0,2.5-2.4,2.5-3.9v-5.7h2.9L222.2,54.9L222.2,54.9z"/>
	<path id="XMLID_26_" class="st0" d="M224.7,43.3h2.6v2.7l0,0c0.1-1.1,1.3-2.9,3-2.9c0.3,0,0.6,0,0.9,0.1v3.1
		c-0.3-0.2-0.8-0.3-1.3-0.3c-2.3,0-2.3,3.1-2.3,4.8v4.3h-2.9V43.3z"/>
	<path id="XMLID_25_" class="st0" d="M239.7,45.8c-0.5-0.3-1.1-0.4-2-0.4c-1.8,0-2.9,1.5-2.9,3.7s1,3.8,3,3.8c0.8,0,1.7-0.3,2.2-0.5
		l0.1,2.5c-0.8,0.3-1.7,0.4-2.9,0.4c-3.6,0-5.5-2.6-5.5-6.2c0-3.4,1.9-6.1,5.4-6.1c1.2,0,2,0.1,2.8,0.4L239.7,45.8z"/>
	<path class="st0" d="M248.4,47.9c-0.1-1.5-0.7-2.7-2.4-2.7c-1.6,0-2.4,1.2-2.6,2.7H248.4z M250.4,54.3c-1.1,0.6-2.3,0.9-3.8,0.9
		c-3.7,0-5.8-2.2-5.8-6.1c0-3.4,1.7-6.2,5.2-6.2c4.1,0,5.3,3,5.3,7.1h-7.7c0.1,1.9,1.4,2.9,3.2,2.9c1.4,0,2.6-0.5,3.7-1.2
		L250.4,54.3L250.4,54.3L250.4,54.3z"/>
	<path id="XMLID_22_" class="st0" d="M259.6,45.7c-0.9-0.3-1.5-0.5-2.6-0.5c-0.8,0-1.7,0.3-1.7,1.3c0,1.9,5,0.7,5,4.9
		c0,2.7-2.3,3.8-4.7,3.8c-1.1,0-2.2-0.2-3.3-0.5l0.2-2.5c0.9,0.5,1.9,0.8,2.9,0.8c0.7,0,1.9-0.3,1.9-1.4c0-2.3-5-0.7-5-4.9
		c0-2.5,2.1-3.6,4.4-3.6c1.4,0,2.2,0.2,3.1,0.4L259.6,45.7z"/>
	<polygon id="XMLID_21_" class="st1" points="89.6,63.2 97,63.2 97,64.4 91.1,64.4 91.1,69.9 96.7,69.9 96.7,71.2 91.1,71.2 
		91.1,77.1 97.3,77.1 97.3,78.4 89.6,78.4 	"/>
	<path id="XMLID_20_" class="st1" d="M102.5,79.9c-0.5,1.5-1.3,3-2.9,3c-0.5,0-1-0.1-1.5-0.2l0.1-1.2c0.3,0.1,0.5,0.2,1,0.2
		c1.2,0,1.6-1,2-2.4l0.3-1l-3.9-11.1h1.5l3.1,9.3l0,0l0,0l3.2-9.3h1.4L102.5,79.9z"/>
	<path id="XMLID_19_" class="st1" d="M108.1,69.7c0-1.2,0-1.7-0.1-2.5h1.4v2.1l0,0c0.5-1.2,1.4-2.4,2.9-2.4c0.3,0,0.7,0.1,1,0.1v1.4
		c-0.3-0.1-0.7-0.1-1-0.1c-2.2,0-2.8,2.4-2.8,4.4v5.5h-1.4C108.1,78.2,108.1,69.7,108.1,69.7z"/>
	<path class="st1" d="M121,71.9c0-1.9-0.8-3.9-2.8-3.9s-3.3,2-3.3,3.9H121z M121.7,77.9c-1,0.4-2.2,0.6-3.2,0.6
		c-3.7,0-5.1-2.5-5.1-5.8c0-3.4,1.9-5.8,4.7-5.8c3.1,0,4.4,2.5,4.4,5.5v0.7h-7.6c0,2.4,1.3,4.2,3.7,4.2c1,0,2.5-0.4,3.1-0.8V77.9
		L121.7,77.9z"/>
	<path class="st1" d="M131.8,70.4h1c2.3,0,4.4-0.3,4.4-3c0-1.9-1.1-3-3-3h-2.4V70.4z M130.3,63.2h3.7c2.9,0,4.7,1.4,4.7,4.3
		c0,2.8-2.1,4.3-4.9,4.3h-2.1v6.6h-1.5V63.1L130.3,63.2L130.3,63.2z"/>
	<path class="st1" d="M146.9,71.9c0-1.9-0.8-3.9-2.8-3.9c-2,0-3.3,2-3.3,3.9H146.9z M147.5,77.9c-1,0.4-2.2,0.6-3.2,0.6
		c-3.7,0-5.1-2.5-5.1-5.8c0-3.4,1.9-5.8,4.7-5.8c3.1,0,4.4,2.5,4.4,5.5v0.7h-7.6c0,2.4,1.3,4.2,3.7,4.2c1,0,2.5-0.4,3.1-0.8V77.9
		L147.5,77.9z"/>
	<path id="XMLID_12_" class="st1" d="M150.1,69.9c0-0.8,0-1.7-0.1-2.6h1.3v2l0,0c0.5-1,1.3-2.2,3.6-2.2c2.7,0,3.8,1.8,3.8,4.3v7.1
		h-1.4v-6.8c0-2.1-0.7-3.4-2.6-3.4c-2.5,0-3.3,2.2-3.3,4.1v6.1H150L150.1,69.9L150.1,69.9z"/>
	<path class="st1" d="M161.1,67.3h1.4v11.1h-1.4V67.3z M162.5,64.3h-1.4v-1.8h1.4V64.3z"/>
	<path id="XMLID_9_" class="st1" d="M164.9,69.9c0-0.8,0-1.7-0.1-2.6h1.3v2l0,0c0.5-1,1.3-2.2,3.6-2.2c2.7,0,3.8,1.8,3.8,4.3v7.1
		h-1.4v-6.8c0-2.1-0.7-3.4-2.6-3.4c-2.5,0-3.3,2.2-3.3,4.1v6.1h-1.4L164.9,69.9L164.9,69.9z"/>
	<path id="XMLID_8_" class="st1" d="M175.1,76.8c0.8,0.4,1.8,0.7,2.9,0.7c1.3,0,2.5-0.7,2.5-2c0-2.6-5.3-2.2-5.3-5.4
		c0-2.2,1.8-3,3.6-3c0.6,0,1.8,0.1,2.7,0.5l-0.1,1.2c-0.7-0.3-1.7-0.5-2.5-0.5c-1.4,0-2.4,0.4-2.4,1.9c0,2.1,5.5,1.8,5.5,5.4
		c0,2.4-2.2,3.2-3.9,3.2c-1.1,0-2.1-0.1-3.1-0.5L175.1,76.8z"/>
	<path id="XMLID_7_" class="st1" d="M192,75.8c0,0.8,0,1.7,0.1,2.6h-1.3v-2l0,0c-0.5,1-1.3,2.2-3.6,2.2c-2.8,0-3.8-1.8-3.8-4.3v-7.1
		h1.4v6.8c0,2.1,0.7,3.4,2.6,3.4c2.5,0,3.3-2.2,3.3-4v-6.1h1.4L192,75.8L192,75.8z"/>
	<rect id="XMLID_6_" x="194.4" y="61.9" class="st1" width="1.4" height="16.3"/>
	<path class="st1" d="M204.5,72.8h-0.4c-2.4,0-5.2,0.2-5.2,2.7c0,1.5,1,2,2.3,2c3.2,0,3.3-2.8,3.3-4V72.8L204.5,72.8z M204.6,76.6
		L204.6,76.6c-0.7,1.3-2.2,2-3.6,2c-3.2,0-3.7-2.1-3.7-3.1c0-3.7,4-3.9,6.8-3.9h0.3v-0.6c0-1.9-0.7-2.9-2.5-2.9
		c-1.2,0-2.2,0.3-3.3,0.9v-1.3c0.9-0.4,2.3-0.8,3.3-0.8c2.7,0,3.9,1.2,3.9,4.1v5c0,0.9,0,1.6,0.1,2.3h-1.3V76.6z"/>
	<path class="st0" d="M61.2,36.4c3.5,0.3,10,3.1,9.7,19.4c-0.4,21.7-13.1,31.4-14.7,32.6c0,0,13.2-13.6,11.5-33.6
		C67,47.6,64.4,41.3,61.2,36.4 M24.2,75.9c-0.4,0-0.1-0.1,0.6-0.7c4.2-2.9,23.4-17.1,25.6-35.8c0.2-0.2,1.6-2.8,2.9-4.4
		c0,0,2.8-3.4,3.2-3.5c0,0.1,10.1,12.6,9.7,27.7c-0.3,11.8-5.1,20.4-8.6,25c4.1-11.9,4.2-23.4,1.3-33.4c-3.1-10.3-0.5-13.5,0.2-14.2
		c0,0-0.9-2.3-2.3-3.3c-0.2,0.1-0.5,0.2-0.9,0.5c-2.6,1.6-3.8,3.8-4.6,5.5c-1,2.1,3.4,6.4,0,13C45.6,63.7,27.8,75.8,24.2,75.9
		 M36.6,56.1c4.1-12.6,9.8-15.8,12.5-16.6c-0.2,2.7-1.9,14.8-18.8,29.8C32.4,66.3,34.7,62.1,36.6,56.1"/>
</g>
</svg>
