<?xml version="1.0" encoding="utf-8"?>
<!-- Generator: Adobe Illustrator 16.0.0, SVG Export Plug-In . SVG Version: 6.00 Build 0)  -->
<!DOCTYPE svg PUBLIC "-//W3C//DTD SVG 1.1//EN" "http://www.w3.org/Graphics/SVG/1.1/DTD/svg11.dtd">
<svg version="1.1" id="EP" xmlns="http://www.w3.org/2000/svg" xmlns:xlink="http://www.w3.org/1999/xlink" x="0px" y="0px"
	 width="375.75px" height="87.997px" viewBox="0 0 375.75 87.997" enable-background="new 0 0 375.75 87.997" xml:space="preserve">
<g>
	<g>
		<polygon points="90.079,37.305 90.079,49.071 90.034,49.071 84.341,37.305 80.655,37.305 80.655,53.036 83.524,53.036 
			83.524,41.271 83.565,41.271 89.283,53.036 92.951,53.036 92.951,37.305 		"/>
		<path d="M99.425,51.1c0.88,0,1.568-0.406,2.016-1.036c0.472-0.653,0.596-1.491,0.596-2.392h-1.242
			c-1.282,0-3.188,0.229-3.188,2.006C97.608,50.671,98.404,51.1,99.425,51.1 M96.066,42.039c1.113-0.543,2.611-0.88,3.833-0.88
			c3.363,0,4.755,1.465,4.755,4.891v1.488c0,1.172,0.019,2.053,0.044,2.908c0.018,0.879,0.062,1.691,0.128,2.59h-2.528
			c-0.105-0.605-0.105-1.374-0.125-1.736h-0.047c-0.664,1.288-2.099,2.009-3.404,2.009c-1.949,0-3.857-1.241-3.857-3.448
			c0-1.734,0.794-2.75,1.887-3.315c1.095-0.562,2.506-0.677,3.708-0.677h1.579c0-1.868-0.788-2.502-2.48-2.502
			c-1.221,0-2.44,0.497-3.408,1.263L96.066,42.039z"/>
		<path d="M107.782,43.639h-2.122V41.43h2.122v-2.322l2.87-0.971v3.293h2.549v2.209h-2.549v5.41c0,0.993,0.256,1.915,1.348,1.915
			c0.517,0,1.011-0.113,1.304-0.316l0.091,2.389c-0.597,0.183-1.264,0.272-2.121,0.272c-2.25,0-3.492-1.466-3.492-3.762V43.639z"/>
		<path d="M124.641,53.036h-2.719v-1.577h-0.043c-0.876,1.129-2.122,1.85-3.616,1.85c-2.617,0-3.752-1.938-3.752-4.554V41.43h2.869
			v6.197c0,1.422,0.021,3.337,1.865,3.337c2.078,0,2.525-2.366,2.525-3.853V41.43h2.872V53.036z"/>
		<path d="M127.063,41.43h2.55v2.639h0.04c0.132-1.084,1.308-2.908,3.019-2.908c0.282,0,0.579,0,0.88,0.088v3.045
			c-0.261-0.159-0.773-0.25-1.283-0.25c-2.337,0-2.337,3.067-2.337,4.736v4.257h-2.869V41.43z"/>
		<path d="M138.318,51.1c0.88,0,1.568-0.406,2.015-1.036c0.473-0.653,0.6-1.491,0.6-2.392h-1.241c-1.286,0-3.191,0.229-3.191,2.006
			C136.501,50.671,137.295,51.1,138.318,51.1 M134.962,42.039c1.114-0.543,2.612-0.879,3.829-0.879c3.364,0,4.76,1.464,4.76,4.89
			v1.488c0,1.172,0.019,2.053,0.043,2.908c0.014,0.879,0.059,1.691,0.125,2.59h-2.528c-0.106-0.605-0.106-1.374-0.128-1.736h-0.044
			c-0.663,1.288-2.095,2.009-3.4,2.009c-1.952,0-3.861-1.241-3.861-3.448c0-1.734,0.795-2.75,1.887-3.315
			c1.095-0.562,2.507-0.677,3.708-0.677h1.583c0-1.868-0.791-2.502-2.483-2.502c-1.22,0-2.439,0.497-3.407,1.263L134.962,42.039z"/>
		<rect x="145.873" y="36.132" width="2.869" height="16.904"/>
		<path d="M160.072,44.021h0.989c1.476,0,3.165-0.224,3.165-2.186c0-1.892-1.667-2.052-3.165-2.052h-0.989V44.021z M157.074,37.305
			h3.235c3.209,0,7.041-0.113,7.041,4.258c0,1.854-1.176,3.384-3.082,3.653v0.048c0.813,0.064,1.288,0.922,1.589,1.619l2.399,6.153
			h-3.347l-1.8-4.91c-0.427-1.175-0.812-1.625-2.077-1.625h-0.962v6.535h-2.997V37.305z"/>
		<path d="M176.459,46.096c-0.088-1.464-0.729-2.729-2.333-2.729c-1.607,0-2.423,1.176-2.55,2.729H176.459z M178.387,52.383
			c-1.052,0.611-2.249,0.926-3.792,0.926c-3.638,0-5.765-2.209-5.765-6.019c0-3.356,1.695-6.13,5.119-6.13
			c4.094,0,5.253,2.952,5.253,7.01h-7.626c0.127,1.872,1.369,2.93,3.146,2.93c1.393,0,2.592-0.54,3.665-1.174V52.383z"/>
		<path d="M187.584,43.865c-0.881-0.318-1.521-0.499-2.572-0.499c-0.773,0-1.694,0.295-1.694,1.289c0,1.846,4.991,0.673,4.991,4.865
			c0,2.708-2.289,3.788-4.629,3.788c-1.092,0-2.199-0.201-3.25-0.494l0.166-2.48c0.906,0.474,1.843,0.766,2.833,0.766
			c0.726,0,1.883-0.292,1.883-1.422c0-2.276-4.99-0.718-4.99-4.911c0-2.503,2.078-3.606,4.327-3.606
			c1.347,0,2.224,0.227,3.131,0.428L187.584,43.865z"/>
		<path d="M195.064,50.964c2.204,0,2.784-2.071,2.784-4.013c0-1.78-0.902-3.448-2.784-3.448c-1.864,0-2.765,1.713-2.765,3.448
			C192.299,48.868,192.873,50.964,195.064,50.964 M195.064,41.16c3.276,0,5.778,2.319,5.778,6.151c0,3.337-2.116,5.997-5.778,5.997
			c-3.643,0-5.761-2.66-5.761-5.997C189.303,43.479,191.809,41.16,195.064,41.16"/>
		<path d="M212.678,53.038h-2.718v-1.579h-0.043c-0.88,1.129-2.125,1.85-3.625,1.85c-2.611,0-3.745-1.938-3.745-4.554V41.43h2.871
			v6.197c0,1.422,0.016,3.337,1.864,3.337c2.072,0,2.529-2.366,2.529-3.853V41.43h2.866V53.038z"/>
		<path d="M215.098,41.43h2.545v2.639h0.045c0.131-1.084,1.308-2.908,3.021-2.908c0.282,0,0.578,0,0.88,0.088v3.045
			c-0.259-0.159-0.772-0.25-1.284-0.25c-2.337,0-2.337,3.067-2.337,4.736v4.259h-2.87V41.43z"/>
		<path d="M230.045,43.934c-0.514-0.25-1.07-0.429-1.949-0.429c-1.777,0-2.917,1.487-2.917,3.671c0,2.145,0.969,3.788,2.979,3.788
			c0.817,0,1.721-0.315,2.207-0.542l0.132,2.503c-0.837,0.271-1.692,0.384-2.872,0.384c-3.616,0-5.441-2.594-5.441-6.133
			c0-3.357,1.891-6.016,5.337-6.016c1.153,0,1.99,0.135,2.782,0.384L230.045,43.934z"/>
		<path d="M238.729,46.096c-0.084-1.464-0.729-2.729-2.337-2.729c-1.605,0-2.421,1.176-2.545,2.729H238.729z M240.656,52.383
			c-1.051,0.611-2.249,0.926-3.794,0.926c-3.639,0-5.763-2.209-5.763-6.019c0-3.356,1.694-6.13,5.123-6.13
			c4.088,0,5.245,2.952,5.245,7.01h-7.621c0.124,1.872,1.368,2.93,3.146,2.93c1.391,0,2.591-0.54,3.663-1.174V52.383z"/>
		<path d="M249.852,43.865c-0.881-0.318-1.518-0.499-2.572-0.499c-0.771,0-1.69,0.295-1.69,1.289c0,1.846,4.99,0.673,4.99,4.865
			c0,2.708-2.29,3.788-4.626,3.788c-1.094,0-2.203-0.201-3.256-0.494l0.168-2.48c0.906,0.474,1.846,0.766,2.834,0.766
			c0.723,0,1.882-0.292,1.882-1.422c0-2.276-4.992-0.718-4.992-4.911c0-2.503,2.078-3.606,4.329-3.606
			c1.344,0,2.224,0.227,3.125,0.428L249.852,43.865z"/>
		<polygon opacity="0.8" points="80.86,61.198 88.268,61.198 88.268,62.499 82.354,62.499 82.354,67.893 87.964,67.893 
			87.964,69.193 82.354,69.193 82.354,75.021 88.524,75.021 88.524,76.316 80.86,76.316 		"/>
		<path opacity="0.8" d="M93.669,77.966c-0.517,1.514-1.3,3.028-2.836,3.028c-0.502,0-1.018-0.064-1.474-0.172l0.125-1.172
			c0.264,0.092,0.524,0.171,1.022,0.171c1.168,0,1.557-0.97,1.989-2.398l0.287-0.979l-3.924-11.172h1.498l3.092,9.227l-0.018-0.021
			h0.044l3.18-9.205h1.433L93.669,77.966z"/>
		<path opacity="0.8" d="M99.253,67.742c0-1.217,0-1.672-0.088-2.471h1.36v2.123h0.048c0.497-1.236,1.429-2.387,2.839-2.387
			c0.323,0,0.715,0.071,0.953,0.133v1.429c-0.282-0.085-0.651-0.127-0.996-0.127c-2.166,0-2.752,2.424-2.752,4.418v5.456h-1.362
			V67.742z"/>
		<path opacity="0.8" d="M112.143,70.017c0-1.931-0.784-3.835-2.814-3.835c-2.012,0-3.25,2.015-3.25,3.835H112.143z M112.817,75.972
			c-0.956,0.388-2.188,0.604-3.209,0.604c-3.661,0-5.02-2.47-5.02-5.781c0-3.378,1.861-5.784,4.654-5.784
			c3.117,0,4.393,2.511,4.393,5.479v0.692h-7.555c0,2.341,1.257,4.22,3.642,4.22c0.989,0,2.444-0.406,3.096-0.82V75.972z"/>
		<path opacity="0.8" d="M122.823,68.479h1.041c2.247,0,4.368-0.26,4.368-2.99c0-1.904-1.078-2.989-2.987-2.989h-2.422V68.479z
			 M121.328,61.198h3.719c2.839,0,4.678,1.433,4.678,4.29c0,2.814-2.121,4.288-4.825,4.288h-2.078v6.54h-1.495V61.198z"/>
		<path opacity="0.8" d="M137.802,70.017c0-1.931-0.781-3.835-2.817-3.835c-2.012,0-3.247,2.015-3.247,3.835H137.802z
			 M138.472,75.972c-0.952,0.388-2.188,0.604-3.207,0.604c-3.66,0-5.022-2.47-5.022-5.781c0-3.378,1.861-5.784,4.657-5.784
			c3.118,0,4.393,2.511,4.393,5.479v0.692h-7.556c0,2.341,1.253,4.22,3.639,4.22c0.993,0,2.447-0.406,3.096-0.82V75.972z"/>
		<path opacity="0.8" d="M140.971,67.871c0-0.844,0-1.711-0.084-2.6h1.319v1.973h0.044c0.454-0.997,1.279-2.236,3.576-2.236
			c2.726,0,3.763,1.821,3.763,4.248v7.061h-1.364v-6.713c0-2.077-0.732-3.422-2.616-3.422c-2.491,0-3.272,2.188-3.272,4.027v6.107
			h-1.366V67.871z"/>
		<path opacity="0.8" d="M151.974,65.271h1.367v11.045h-1.367V65.271z M153.341,62.327h-1.367v-1.818h1.367V62.327z"/>
		<path opacity="0.8" d="M155.725,67.871c0-0.844,0-1.711-0.086-2.6h1.322v1.973h0.043c0.455-0.997,1.275-2.236,3.573-2.236
			c2.725,0,3.771,1.821,3.771,4.248v7.061h-1.368v-6.713c0-2.077-0.736-3.422-2.62-3.422c-2.492,0-3.272,2.188-3.272,4.027v6.107
			h-1.364V67.871z"/>
		<path opacity="0.8" d="M165.86,74.714c0.818,0.411,1.817,0.694,2.875,0.694c1.3,0,2.448-0.72,2.448-1.974
			c0-2.62-5.306-2.207-5.306-5.414c0-2.184,1.775-3.013,3.599-3.013c0.582,0,1.756,0.133,2.726,0.503l-0.13,1.191
			c-0.713-0.326-1.688-0.521-2.447-0.521c-1.406,0-2.38,0.432-2.38,1.839c0,2.06,5.433,1.8,5.433,5.414
			c0,2.342-2.188,3.142-3.854,3.142c-1.057,0-2.12-0.133-3.096-0.521L165.86,74.714z"/>
		<path opacity="0.8" d="M182.66,73.719c0,0.843,0,1.706,0.087,2.598h-1.321v-1.972h-0.044c-0.454,0.997-1.276,2.231-3.572,2.231
			c-2.734,0-3.772-1.821-3.772-4.243v-7.062h1.369v6.715c0,2.077,0.735,3.416,2.615,3.416c2.496,0,3.267-2.184,3.267-4.021v-6.109
			h1.372V73.719z"/>
		<rect x="185.059" y="60.076" opacity="0.8" width="1.362" height="16.24"/>
		<path opacity="0.8" d="M195.038,70.752h-0.389c-2.358,0-5.178,0.237-5.178,2.661c0,1.452,1.041,1.989,2.3,1.989
			c3.204,0,3.267-2.787,3.267-3.981V70.752z M195.171,74.539h-0.045c-0.605,1.323-2.143,2.037-3.508,2.037
			c-3.137,0-3.635-2.12-3.635-3.118c0-3.7,3.938-3.878,6.796-3.878h0.259v-0.562c0-1.883-0.669-2.836-2.508-2.836
			c-1.147,0-2.231,0.261-3.251,0.909v-1.32c0.846-0.413,2.276-0.763,3.251-0.763c2.728,0,3.876,1.235,3.876,4.119v4.872
			c0,0.889,0,1.562,0.106,2.317h-1.342V74.539z"/>
	</g>
	<path d="M52.697,34.572c3.482,0.319,9.927,3.096,9.642,19.271c-0.377,21.574-12.972,31.189-14.632,32.366
		c0,0,13.108-13.476,11.389-33.343C58.481,45.693,55.823,39.523,52.697,34.572 M15.944,73.88c-0.363,0.022-0.098-0.147,0.586-0.69
		c4.158-2.864,23.248-16.943,25.472-35.607c0.22-0.194,1.594-2.796,2.924-4.367c0,0,2.78-3.378,3.166-3.471
		c0.007,0.066,10.054,12.55,9.654,27.513c-0.308,11.749-5.089,20.221-8.577,24.877c4.122-11.782,4.196-23.265,1.268-33.22
		c-3.052-10.257-0.461-13.37,0.212-14.085c0,0-0.905-2.248-2.326-3.268c-0.246,0.115-0.469,0.224-0.895,0.485
		c-2.608,1.637-3.77,3.779-4.543,5.478c-0.957,2.052,3.342,6.387,0,12.957C37.177,61.739,19.528,73.726,15.944,73.88 M28.277,54.176
		c4.089-12.479,9.691-15.686,12.38-16.507c-0.161,2.73-1.843,14.741-18.664,29.596C24.053,64.325,26.324,60.102,28.277,54.176"/>
</g>
</svg>
