<?xml version="1.0" encoding="utf-8"?>
<!-- Generator: Adobe Illustrator 16.0.0, SVG Export Plug-In . SVG Version: 6.00 Build 0)  -->
<!DOCTYPE svg PUBLIC "-//W3C//DTD SVG 1.1//EN" "http://www.w3.org/Graphics/SVG/1.1/DTD/svg11.dtd">
<svg version="1.1" id="Layer_1" xmlns="http://www.w3.org/2000/svg" xmlns:xlink="http://www.w3.org/1999/xlink" x="0px" y="0px"
	 width="25.512px" height="45.354px" viewBox="0 0 25.512 45.354" enable-background="new 0 0 25.512 45.354" xml:space="preserve">
<path fill="#E70095" d="M12.428,45.144"/>
<path fill="#E70095" d="M12.428,45.144"/>
<path fill="#A8C7D4" d="M13.246,23.854c5.829,0,10.554-4.725,10.554-10.554S19.074,2.746,13.246,2.746
	C7.416,2.746,2.69,7.47,2.69,13.299S7.416,23.854,13.246,23.854"/>
<path fill="#6BA2B9" d="M12.755,23.099c-5.354,0-9.693-4.34-9.693-9.688c0-5.354,4.34-9.694,9.693-9.694
	c5.353,0,9.689,4.34,9.689,9.694C22.448,18.759,18.109,23.099,12.755,23.099 M12.755,0.123c-6.916,0-12.521,5.604-12.521,12.52
	c0,13.946,12.521,32.589,12.521,32.589S25.276,28.19,25.276,12.643C25.276,5.728,19.67,0.123,12.755,0.123"/>
<g>
	<path fill="none" d="M8.845,11.59l0.014,0.019c0.093,0.113,0.194,0.193,0.304,0.233c0.066,0.027,0.13,0.05,0.183,0.073
		c0.049,0.019,0.088,0.035,0.122,0.048c0.084,0.031,0.145,0.055,0.201,0.047c0.028-0.004,0.052-0.009,0.076-0.017
		c0.102-0.036,0.192-0.038,0.291-0.01h0.002l0.016,0.01c0.03,0.009,0.062,0.023,0.099,0.045c0.055,0.022,0.101,0.048,0.161,0.055
		c0.062,0.006,0.127-0.02,0.197-0.071c0.004-0.003,0.007-0.004,0.011-0.008l0.03-0.023l0.044,0.021l-0.034-0.032l0.018-0.012
		l0.042,0.021l-0.036-0.025c0.021-0.023,0.039-0.042,0.055-0.063c0.039-0.05,0.069-0.103,0.09-0.153
		c0.019-0.042,0.032-0.106,0.044-0.19l0.047-0.005l-0.045-0.007c0.001-0.021,0.005-0.036,0.008-0.06l0.011-0.077l0.047-0.015
		l-0.047-0.003c0.028-0.385,0.04-0.928-0.229-1.213c-0.012-0.013-0.021-0.025-0.035-0.035c-0.023-0.021-0.055-0.045-0.084-0.062
		c-0.016-0.013-0.03-0.021-0.049-0.028l-0.004,0.005c-0.13,0.245-0.71,0.298-0.848,0.299l0,0c-0.099,0-0.202-0.013-0.297-0.035
		c-0.142-0.03-0.238-0.082-0.294-0.146c-0.146,0.104-0.305,0.273-0.328,0.537C8.62,10.719,8.62,10.727,8.62,10.737l-0.002,0.021
		c-0.033,0.261,0.03,0.542,0.185,0.771C8.816,11.548,8.829,11.568,8.845,11.59z"/>
	<path fill="none" d="M16.483,10.875l-0.009,0.005c-0.186,0.072-0.419,0.104-0.635,0.094c-0.334-0.042-0.567-0.18-0.633-0.375
		c-0.004,0.005-0.012,0.01-0.015,0.013l-0.003,0.001l-0.003,0.007c-0.146,0.142-0.178,0.384-0.207,0.596
		c-0.012,0.077-0.021,0.15-0.036,0.218c-0.005,0.024-0.009,0.052-0.012,0.077v0.021c-0.002,0.022-0.002,0.038-0.002,0.058
		c0,0.016,0,0.021,0.002,0.034c0,0.01,0.002,0.019,0.003,0.026c0.006,0.039,0.011,0.07,0.021,0.1l0.004,0.02
		c0,0.005,0.003,0.01,0.005,0.016c0.03,0.099,0.085,0.188,0.157,0.271c0.006,0.007,0.012,0.013,0.018,0.02l0.024,0.024
		c0.023,0.025,0.049,0.043,0.066,0.062c0.017,0.015,0.03,0.022,0.045,0.033c0.015,0.01,0.021,0.018,0.032,0.023
		c0.024,0.017,0.051,0.034,0.079,0.047l0.034,0.019c0.006,0.005,0.012,0.009,0.018,0.011c0.022,0.01,0.044,0.018,0.062,0.024
		c0.162,0.065,0.312,0.089,0.454,0.074l0.037-0.002c0.061-0.003,0.121-0.017,0.182-0.037c0.092-0.034,0.178-0.09,0.254-0.169
		l0.007-0.008c0.006-0.005,0.013-0.009,0.02-0.017c0.13-0.147,0.226-0.361,0.271-0.604c0.023-0.104,0.031-0.212,0.027-0.32h0.006
		c-0.002-0.016-0.006-0.047-0.01-0.097c-0.02-0.032-0.025-0.064-0.028-0.088c-0.024-0.065-0.055-0.122-0.084-0.178
		c-0.019-0.031-0.038-0.063-0.062-0.098C16.559,10.814,16.527,10.847,16.483,10.875z"/>
	<path fill="none" d="M13.157,11.093c-0.071,0.005-0.139,0.007-0.197,0.008c-0.048,0.003-0.091,0.005-0.132,0.007
		c-0.061-0.007-0.104-0.015-0.149-0.021c-0.034-0.005-0.07-0.012-0.111-0.02c-0.137-0.021-0.308-0.049-0.438-0.106
		c-0.104-0.045-0.171-0.106-0.208-0.181c-0.051-0.075-0.083-0.165-0.089-0.245c-0.116,0.081-0.18,0.292-0.172,0.604
		c-0.009,0.065-0.01,0.119-0.006,0.167c0.017,0.1,0.03,0.202,0.05,0.305c0.009,0.028,0.015,0.062,0.021,0.094l0.011,0.038l0,0
		c0.061,0.24,0.112,0.427,0.283,0.589c0.102,0.094,0.253,0.153,0.476,0.188l0.011,0.001c0.135,0.021,0.309,0.042,0.479,0.042
		c0.086,0,0.166-0.006,0.234-0.017c0.081-0.011,0.149-0.032,0.21-0.067l0.023-0.014c0.006-0.003,0.013-0.007,0.019-0.013
		l0.009-0.007c0.005-0.003,0.015-0.009,0.018-0.011l0.009-0.008c0.042-0.033,0.079-0.071,0.107-0.115l0.014-0.011
		c0.057-0.058,0.095-0.129,0.12-0.22c0.172-0.388,0.261-0.979,0.095-1.334c-0.009-0.025-0.021-0.049-0.031-0.07
		c-0.002,0.027-0.008,0.051-0.016,0.071C13.734,10.904,13.495,11.031,13.157,11.093z"/>
	<path fill="#FFFFFF" d="M19.019,20.198c-0.201-0.047-0.391-0.092-0.569-0.139c0.055-0.017,0.108-0.04,0.164-0.074
		c0.324-0.187,0.611-0.729,0.575-0.795c0,0-0.144-0.019-0.331-0.019c-0.209,0-0.473,0.021-0.645,0.124
		c-0.2,0.116-0.295,0.295-0.326,0.438v0.174c-0.317-0.096-0.601-0.188-0.851-0.28c0.039-0.018,0.075-0.033,0.113-0.06
		c0.326-0.188,0.614-0.729,0.577-0.795c0,0-0.145-0.019-0.331-0.019c-0.211,0-0.473,0.021-0.645,0.122
		c-0.229,0.132-0.318,0.342-0.333,0.495c-0.541-0.25-0.86-0.479-1.044-0.646c1.005-0.252,2.008-0.557,2.957-0.925l0.226-0.57l0,0
		c-0.002,0-0.747,0.405-2.506,0.877c0.092-0.087,0.173-0.209,0.192-0.356c0.047-0.339-0.338-0.813-0.339-0.815l0,0
		c-0.087,0.002-0.516,0.465-0.562,0.807c-0.035,0.247,0.086,0.419,0.224,0.494c-0.209,0.055-0.431,0.104-0.664,0.157
		c0.023,0.117,0.038,0.237,0.033,0.364c-0.001,0.035-0.021,0.069-0.055,0.087c-0.006,0.003-0.015,0.007-0.022,0.008
		c0.015-0.001,0.022-0.004,0.035-0.008c0.189,0.222,0.599,0.446,1.082,0.653c-0.001,0-0.003,0.002-0.003,0.002
		c-0.16,0.051-0.312,0.313-0.156,0.637c0.158,0.319,0.705,0.66,0.779,0.636c0,0,0.188-0.574,0.029-0.896
		c-0.032-0.065-0.076-0.122-0.121-0.169c0.25,0.092,0.509,0.179,0.763,0.26c-0.155,0.062-0.295,0.32-0.142,0.631
		c0.155,0.32,0.705,0.662,0.777,0.636c0,0,0.188-0.572,0.026-0.896c-0.044-0.092-0.107-0.164-0.178-0.221
		c0.754,0.223,1.354,0.362,1.354,0.362L19.019,20.198z"/>
	<path fill="#FFFFFF" d="M14.828,18.863c-0.019,0-0.033-0.004-0.051-0.01c-0.176-0.077-0.305-0.199-0.401-0.341
		c-0.005-0.008-0.01-0.015-0.019-0.024c-0.127-0.188-0.207-0.417-0.28-0.628c-0.041-0.114-0.083-0.229-0.126-0.32
		c-0.04-0.087-0.076-0.178-0.109-0.269c-0.196,0.206-0.424,0.52-0.469,0.777c-0.048,0.284,0.062,0.498,0.21,0.618
		C13,18.774,12.355,18.88,11.65,18.978c0.153-0.119,0.294-0.296,0.333-0.525c0.081-0.477-0.438-1.174-0.438-1.174h-0.001
		c-0.123,0-0.744,0.618-0.825,1.09c-0.057,0.326,0.09,0.572,0.271,0.696c-0.401,0.054-0.818,0.102-1.259,0.146
		c-0.053-0.001-0.115,0-0.193,0.005c-0.109,0.008-0.211,0.005-0.311-0.007c-0.188-0.021-0.354-0.07-0.496-0.132
		c-0.023-0.014-0.051-0.025-0.072-0.037c-0.146-0.101-0.3-0.209-0.451-0.323c-0.056-0.053-0.079-0.085-0.079-0.085l0.007,0.033
		c-0.022-0.019-0.044-0.033-0.066-0.05c0.03,0.011,0.062,0.016,0.091,0.018c0.134,0.002,0.478-0.192,0.521-0.53
		c0.046-0.338-0.339-0.812-0.339-0.812l0,0c-0.085,0-0.514,0.464-0.562,0.803c-0.021,0.156,0.021,0.283,0.09,0.375
		c-0.581-0.44-1.144-0.884-1.394-1.036L6.21,17.783l0,0c0.172,0.101,0.349,0.215,0.521,0.337c-0.062,0.002-0.13,0.011-0.195,0.029
		c-0.354,0.111-0.651,0.64-0.651,0.64c0.036,0.065,0.683,0.215,1.036,0.104c0.228-0.072,0.346-0.216,0.381-0.35
		c0.407,0.325,0.752,0.638,0.934,0.805c-0.605,0.048-1.246,0.09-1.916,0.124L5.972,19.92l0,0H7.23
		c0.706-0.041,1.661-0.113,2.763-0.238c-0.017,0.009-0.028,0.018-0.039,0.023c-0.118,0.092-0.229,0.495,0.063,0.812
		c0.245,0.264,0.84,0.396,1.038,0.438h0.072c0.056-0.108-0.034-0.754-0.315-1.057c-0.142-0.15-0.311-0.229-0.466-0.258
		c0.406-0.048,0.83-0.104,1.266-0.17c-0.118,0.152-0.211,0.534,0.056,0.863c0.255,0.318,0.938,0.52,1.135,0.567h0.065
		c0.069-0.119,0.027-0.844-0.257-1.199c-0.136-0.17-0.303-0.269-0.463-0.312c0.309-0.049,0.619-0.103,0.937-0.161
		c-0.016,0.008-0.023,0.02-0.032,0.027c-0.125,0.123-0.191,0.606,0.199,0.938c0.251,0.219,0.743,0.312,1.058,0.354h0.309
		c0.033-0.164-0.164-0.874-0.524-1.183c-0.163-0.141-0.34-0.211-0.506-0.231c0.419-0.083,0.842-0.173,1.268-0.273
		C14.842,18.861,14.835,18.863,14.828,18.863z"/>
	<path fill="#FFFFFF" d="M9.155,9.726c0.177-0.046,0.437-0.1,0.707-0.1c0.364,0,0.652,0.095,0.854,0.282
		c0.473,0.438,0.368,1.675,0.266,1.939c-0.1,0.259-0.361,0.537-0.651,0.537l0,0c-0.02,0-0.032,0-0.051-0.002
		c-0.113-0.014-0.192-0.055-0.26-0.089c-0.081-0.042-0.111-0.055-0.181-0.031c-0.048,0.019-0.093,0.028-0.137,0.032
		c0.034,0.506,0.01,0.999-0.077,1.446C9.6,13.86,9.4,14.527,9.234,15.052c-0.133,0.422-0.223,0.697-0.287,0.878
		c0.068-0.055,0.162-0.135,0.284-0.249c0.018-0.016,0.028-0.025,0.034-0.036c0.199-0.181,0.37-0.375,0.51-0.579
		c0.159-0.194,0.417-0.532,0.677-0.92c-0.014,0.125-0.028,0.25-0.047,0.374c-0.018,0.125-0.032,0.243-0.044,0.356
		c-0.041,0.491-0.104,0.972-0.194,1.431c-0.174,0.872-0.458,1.94-1.122,2.75c0.268-0.117,0.547-0.298,0.848-0.55
		c0.979-0.819,1.695-2.022,2.267-3.784c0.021-0.059,0.036-0.118,0.055-0.176c-0.087-0.327-0.189-0.65-0.304-0.979
		c-0.54-1.532-0.745-3.069-0.652-4.836c0.037-0.686,0.146-1.303,0.335-1.845c-0.021-0.044-0.04-0.085-0.062-0.127
		c-0.403-0.428-0.754-0.898-1.033-1.398c-0.035-0.062-0.062-0.168-0.091-0.288c-0.026-0.119-0.094-0.396-0.154-0.424
		c0,0-0.026,0.003-0.077,0.058C9.88,4.995,9.711,5.409,9.56,5.773C9.19,6.671,8.986,7.448,8.933,8.146
		C8.89,8.719,8.981,9.231,9.115,9.74C9.137,9.732,9.152,9.729,9.155,9.726z"/>
	<path fill="#FFFFFF" d="M15.131,9.472c0.002,0,0.002,0.001,0.002,0.001c0.003,0.022,0.006,0.045,0.006,0.067l0.002,0.007l0,0
		c0.004,0.042,0.006,0.081,0.009,0.123c0.021,0.203,0.026,0.399,0.021,0.597c0.105-0.053,0.244-0.088,0.417-0.099
		c0.345-0.019,0.604,0.012,0.814,0.099c0-0.115,0.009-0.229,0.014-0.342c0.013-0.245,0.022-0.495-0.014-0.743
		c-0.067-0.498-0.313-0.904-0.584-1.312c-0.301-0.457-0.468-0.897-0.522-1.389c-0.011-0.085-0.007-0.169-0.005-0.249
		c0.001-0.063,0.003-0.129,0-0.188C15.27,6.08,15.25,6.115,15.24,6.134c-0.014,0.018-0.021,0.033-0.024,0.044
		c-0.077,0.128-0.159,0.25-0.239,0.368c-0.208,0.31-0.408,0.604-0.501,0.969c0.169,0.343,0.307,0.667,0.411,0.982
		C15.003,8.811,15.088,9.135,15.131,9.472z"/>
	<path fill="#FFFFFF" d="M15.927,16.504c0.156,0.185,0.302,0.353,0.467,0.504c0.021,0.018,0.079,0.058,0.142,0.093
		c-0.051-0.093-0.103-0.183-0.147-0.271c-0.168-0.306-0.343-0.614-0.41-0.986c-0.093-0.51-0.06-1.087-0.027-1.597l0.007-0.127
		c0.014-0.276,0.067-0.55,0.122-0.812c0.042-0.22,0.088-0.44,0.105-0.669c-0.054,0.014-0.106,0.024-0.167,0.027
		c-0.034,0.004-0.062,0.004-0.099,0.004c-0.396,0-0.762-0.161-1.003-0.444c-0.032-0.037-0.062-0.077-0.088-0.117
		c-0.046,0.142-0.096,0.274-0.143,0.406c-0.388,1.078-0.574,2.149-0.771,3.283l-0.033,0.196c-0.045,0.261-0.073,0.418,0.003,0.663
		l0.021,0.074c0.073,0.239,0.148,0.486,0.257,0.712c0.05,0.104,0.092,0.224,0.136,0.347c0.097,0.271,0.204,0.575,0.413,0.757
		c-0.013-0.081-0.028-0.161-0.043-0.243c-0.031-0.137-0.062-0.279-0.062-0.43c-0.011-0.381,0.042-0.771,0.101-1.132
		c0.038-0.269,0.104-0.611,0.258-0.938c0.021-0.046,0.04-0.09,0.058-0.138c0.061-0.105,0.098-0.176,0.098-0.176l0.381-0.53
		c0.011,0.025,0.011,0.058-0.004,0.088C15.285,15.46,15.561,16.075,15.927,16.504z"/>
	<path fill="#FFFFFF" d="M11.516,10.523c0.013-0.027,0.027-0.06,0.041-0.094c0.033-0.083,0.086-0.157,0.151-0.212l0.016-0.013
		l0.021-0.011c0.259-0.085,0.529-0.125,0.855-0.125c0.228,0,0.452,0.021,0.672,0.036l0.119,0.014c0.069,0.01,0.128,0.021,0.188,0.04
		c0.354,0.104,0.542,0.343,0.551,0.712c0.004,0.229,0.018,0.762-0.117,1.193c-0.035,0.16-0.096,0.289-0.192,0.395
		c-0.171,0.232-0.404,0.352-0.702,0.352H13.06c-0.383-0.002-0.899-0.008-1.211-0.272c0.083,0.32,0.18,0.643,0.292,0.961
		c0.55,1.563,0.809,3.133,0.771,4.668c0.48-0.973,0.648-2.001,0.825-3.085c0.06-0.336,0.112-0.687,0.183-1.025
		c0.104-0.537,0.28-1.076,0.452-1.596c0.102-0.31,0.203-0.62,0.294-0.938c0.001-0.05,0.006-0.1,0.017-0.146
		c0.021-0.083,0.032-0.168,0.045-0.25c0.029-0.184,0.062-0.373,0.145-0.535c0.049-0.35,0.062-0.7,0.021-1.05c0,0,0,0,0-0.002l0,0
		c-0.113-0.973-0.626-1.852-1.121-2.701c-0.25-0.431-0.508-0.873-0.712-1.324c-0.009-0.02-0.02-0.045-0.031-0.076
		c-0.021-0.056-0.092-0.225-0.143-0.267c-0.001,0.001-0.003,0.003-0.007,0.005c-0.235,0.222-0.413,0.524-0.584,0.817
		c-0.034,0.051-0.068,0.106-0.101,0.16c-0.403,0.683-0.638,1.555-0.691,2.593C11.467,9.363,11.473,9.953,11.516,10.523z"/>
	<path fill="#FFFFFF" d="M8.774,11.647c0.001,0.003,0.005,0.007,0.016,0.018c0.099,0.125,0.216,0.217,0.339,0.264
		C9.194,11.951,9.253,11.975,9.313,12c0.043,0.016,0.083,0.028,0.116,0.044c0.09,0.034,0.158,0.055,0.222,0.055
		c0.012,0,0.02-0.002,0.033-0.003c0.03-0.003,0.062-0.01,0.088-0.02c0.084-0.029,0.156-0.03,0.236-0.006l0.007,0.003
		c0.032,0.013,0.062,0.023,0.091,0.043c0.058,0.025,0.112,0.057,0.193,0.062c0.009,0.001,0.019,0.001,0.028,0.001
		c0.07,0,0.153-0.032,0.233-0.088c0.005-0.005,0.014-0.009,0.021-0.017l0.064-0.062c0.021-0.021,0.038-0.042,0.061-0.062
		c0.042-0.061,0.078-0.117,0.102-0.182c0.021-0.045,0.035-0.119,0.05-0.208l0.001-0.013c0.001-0.021,0.008-0.039,0.01-0.059
		l0.009-0.102c0.035-0.434,0.039-0.972-0.248-1.273c-0.014-0.02-0.026-0.03-0.042-0.046c-0.028-0.024-0.062-0.05-0.095-0.068
		c-0.035-0.022-0.072-0.042-0.109-0.062l-0.055-0.02v0.006c-0.095-0.044-0.321-0.13-0.597-0.074c0,0-0.418,0.037-0.494,0.082
		C9.199,9.955,9.082,9.99,9,10.032v-0.002l-0.018,0.01c-0.015,0.009-0.026,0.017-0.039,0.022H8.942
		c-0.17,0.111-0.381,0.312-0.414,0.633c-0.002,0.015-0.002,0.021-0.004,0.033v0.018c-0.031,0.275,0.037,0.581,0.197,0.824
		C8.737,11.596,8.752,11.618,8.774,11.647z M10.556,10.106C10.924,10.438,10.502,10.057,10.556,10.106L10.556,10.106z M8.617,10.753
		l0.002-0.021c0-0.01,0-0.018,0.002-0.026c0.023-0.264,0.185-0.436,0.328-0.537c0.056,0.062,0.152,0.114,0.294,0.146
		c0.095,0.022,0.198,0.035,0.297,0.035l0,0c0.138-0.001,0.717-0.055,0.848-0.299l0.004-0.005c0.019,0.008,0.033,0.018,0.049,0.028
		c0.03,0.018,0.062,0.041,0.084,0.062c0.016,0.01,0.023,0.022,0.035,0.035c0.269,0.285,0.257,0.828,0.229,1.213l0.047,0.003
		l-0.047,0.014l-0.012,0.078c-0.002,0.021-0.005,0.039-0.007,0.06l0.045,0.007l-0.047,0.005c-0.013,0.084-0.026,0.146-0.044,0.188
		c-0.021,0.057-0.051,0.106-0.09,0.156c-0.016,0.021-0.033,0.041-0.055,0.063l0.033,0.025l-0.042-0.021l-0.015,0.012l0.034,0.032
		l-0.044-0.022l-0.03,0.025c-0.004,0.003-0.007,0.005-0.011,0.008c-0.07,0.052-0.139,0.077-0.197,0.071
		c-0.062-0.007-0.106-0.03-0.161-0.055c-0.036-0.021-0.066-0.036-0.099-0.046l-0.016-0.009H10.03
		c-0.098-0.028-0.188-0.026-0.291,0.009c-0.022,0.009-0.046,0.014-0.075,0.018c-0.059,0.008-0.117-0.016-0.201-0.047
		C9.428,11.942,9.39,11.929,9.34,11.91c-0.053-0.023-0.114-0.045-0.183-0.073c-0.107-0.04-0.214-0.12-0.304-0.233L8.845,11.59
		c-0.016-0.022-0.03-0.042-0.044-0.064C8.65,11.296,8.584,11.014,8.617,10.753z"/>
	<path fill="#FFFFFF" d="M10.556,10.106C10.502,10.057,10.924,10.438,10.556,10.106L10.556,10.106z"/>
	<path fill="#FFFFFF" d="M10.556,10.106C10.502,10.057,10.924,10.438,10.556,10.106L10.556,10.106z"/>
	<path fill="#FFFFFF" d="M11.829,10.43c-0.184,0.079-0.271,0.317-0.267,0.703c-0.006,0.065-0.007,0.122-0.003,0.179
		c0.017,0.104,0.032,0.208,0.049,0.315l0.023,0.094c0.004,0.015,0.007,0.026,0.011,0.038l0.019,0.064l0,0
		c0.056,0.222,0.121,0.403,0.292,0.565c0.108,0.104,0.275,0.172,0.515,0.211l0.011,0.001c0.144,0.022,0.323,0.045,0.504,0.045
		c0.094,0,0.179-0.004,0.248-0.018c0.089-0.01,0.172-0.037,0.242-0.077l0.027-0.015c0.008-0.005,0.018-0.013,0.024-0.02l0.01-0.005
		c0.008-0.005,0.013-0.01,0.02-0.013l0.009-0.008c0.045-0.037,0.088-0.081,0.123-0.127l0.007-0.012
		c0.065-0.063,0.111-0.146,0.14-0.249c0.178-0.396,0.271-1.02,0.096-1.395c-0.042-0.111-0.114-0.194-0.224-0.254l-0.245-0.135
		l0.007,0.006c-0.084-0.051-0.29-0.086-0.702-0.086c-0.348,0-0.596,0.073-0.596,0.073l-0.299,0.096l0,0l-0.012,0.003L11.829,10.43z
		 M13.806,10.677c0.011,0.021,0.022,0.044,0.031,0.07c0.166,0.354,0.077,0.946-0.095,1.334c-0.025,0.09-0.063,0.162-0.12,0.22
		l-0.014,0.011c-0.028,0.044-0.065,0.083-0.107,0.115l-0.009,0.008c-0.006,0.002-0.013,0.008-0.018,0.011l-0.009,0.008
		c-0.006,0.004-0.013,0.009-0.02,0.012l-0.022,0.014c-0.062,0.035-0.13,0.06-0.21,0.067c-0.068,0.011-0.148,0.017-0.234,0.017
		c-0.17,0-0.344-0.021-0.479-0.042L12.49,12.52c-0.223-0.033-0.375-0.095-0.476-0.188c-0.171-0.163-0.226-0.349-0.283-0.588l0,0
		L11.725,11.7c-0.007-0.032-0.014-0.063-0.021-0.094c-0.021-0.103-0.033-0.206-0.051-0.305c-0.003-0.049-0.001-0.102,0.007-0.167
		c-0.007-0.311,0.056-0.521,0.172-0.604c0.007,0.079,0.039,0.17,0.089,0.244c0.037,0.073,0.104,0.137,0.208,0.182
		c0.131,0.06,0.302,0.087,0.438,0.106c0.041,0.005,0.077,0.014,0.111,0.02c0.045,0.008,0.091,0.017,0.149,0.021
		c0.041-0.002,0.084-0.003,0.132-0.007c0.061-0.001,0.126-0.003,0.194-0.008c0.341-0.062,0.577-0.189,0.636-0.345
		C13.798,10.728,13.804,10.704,13.806,10.677z"/>
	<path fill="#FFFFFF" d="M16.48,10.534c-0.07-0.051-0.264-0.161-0.503-0.18c-0.307-0.021-0.439,0.012-0.439,0.012l-0.261,0.077
		v-0.002l-0.012,0.01l-0.01,0.003c0,0,0,0.001,0,0.003l-0.043,0.023c-0.021,0.015-0.036,0.024-0.051,0.035s-0.022,0.021-0.036,0.032
		l-0.007,0.008c-0.163,0.164-0.199,0.418-0.23,0.646c-0.01,0.073-0.02,0.146-0.033,0.211c-0.007,0.025-0.01,0.059-0.014,0.089
		c0,0.006-0.002,0.015-0.002,0.032c0,0.017-0.002,0.034,0,0.062c0,0.01,0,0.021,0.002,0.031c0,0.012,0.001,0.021,0.005,0.042
		c0.005,0.036,0.011,0.066,0.022,0.104l0.003,0.014c0.001,0.006,0.004,0.013,0.005,0.02c0.037,0.11,0.094,0.211,0.175,0.301
		c0.008,0.011,0.017,0.02,0.023,0.023l0.028,0.03c0.021,0.021,0.044,0.041,0.067,0.062c0.016,0.013,0.033,0.025,0.049,0.038
		c0.013,0.008,0.023,0.015,0.035,0.023c0.028,0.02,0.059,0.034,0.088,0.054l0.035,0.018c0.007,0.003,0.015,0.007,0.021,0.014
		c0.021,0.011,0.045,0.02,0.065,0.027c0.14,0.058,0.277,0.083,0.405,0.083c0.031,0,0.062-0.001,0.099-0.004h0.013
		c0.009,0,0.016,0,0.021,0c0.067-0.004,0.14-0.021,0.207-0.043c0.104-0.04,0.204-0.104,0.29-0.189l0.007-0.012
		c0.008-0.005,0.014-0.012,0.02-0.018c0.143-0.159,0.245-0.388,0.293-0.646c0.021-0.093,0.03-0.188,0.03-0.285
		c0.009-0.015,0.006-0.035-0.009-0.161l-0.004-0.018c-0.017-0.022-0.021-0.053-0.023-0.073l-0.002-0.009
		c-0.025-0.067-0.057-0.132-0.089-0.189c-0.024-0.043-0.055-0.083-0.087-0.125c-0.016-0.023-0.033-0.045-0.055-0.066l-0.062-0.064
		c-0.005-0.006-0.006-0.01-0.01-0.015c0,0-0.008-0.005-0.016-0.013l-0.021-0.021L16.48,10.534z M16.639,10.87
		c0.029,0.056,0.062,0.109,0.084,0.178c0.003,0.021,0.012,0.057,0.028,0.088c0.004,0.05,0.008,0.081,0.01,0.097h-0.006
		c0.004,0.107-0.004,0.217-0.027,0.32c-0.047,0.241-0.143,0.455-0.271,0.604c-0.006,0.008-0.014,0.012-0.02,0.017l-0.007,0.008
		c-0.076,0.079-0.162,0.136-0.254,0.169c-0.06,0.021-0.121,0.033-0.182,0.037l-0.037,0.002c-0.142,0.016-0.292-0.009-0.454-0.074
		c-0.021-0.009-0.04-0.017-0.062-0.024c-0.006-0.002-0.012-0.006-0.018-0.011l-0.034-0.019c-0.028-0.014-0.055-0.031-0.079-0.047
		c-0.011-0.008-0.021-0.016-0.032-0.023c-0.015-0.01-0.028-0.021-0.045-0.033c-0.021-0.019-0.043-0.034-0.066-0.062l-0.024-0.025
		c-0.006-0.006-0.012-0.012-0.018-0.019c-0.072-0.082-0.127-0.172-0.157-0.271c-0.002-0.005-0.005-0.01-0.005-0.015l-0.004-0.02
		c-0.011-0.026-0.018-0.061-0.021-0.1c-0.001-0.01-0.003-0.019-0.003-0.026c-0.002-0.013-0.002-0.021-0.002-0.034
		c0-0.02,0-0.032,0.002-0.059v-0.02c0.003-0.025,0.007-0.052,0.012-0.077c0.018-0.064,0.024-0.141,0.036-0.218
		c0.029-0.212,0.062-0.455,0.207-0.596l0.003-0.007l0.003-0.001c0.005-0.003,0.011-0.008,0.015-0.013
		c0.062,0.194,0.299,0.333,0.633,0.375c0.216,0.011,0.449-0.021,0.635-0.094l0.009-0.005c0.044-0.028,0.076-0.062,0.097-0.103
		C16.601,10.807,16.62,10.839,16.639,10.87z"/>
	<polygon fill="#FFFFFF" points="8.923,10.038 8.923,10.038 8.923,10.04 	"/>
	<polygon points="8.923,10.038 8.923,10.038 8.923,10.04 	"/>
</g>
</svg>
