<?xml version="1.0" encoding="utf-8"?>
<!-- Generator: Adobe Illustrator 16.0.0, SVG Export Plug-In . SVG Version: 6.00 Build 0)  -->
<!DOCTYPE svg PUBLIC "-//W3C//DTD SVG 1.1//EN" "http://www.w3.org/Graphics/SVG/1.1/DTD/svg11.dtd">
<svg version="1.1" id="Layer_1" xmlns="http://www.w3.org/2000/svg" xmlns:xlink="http://www.w3.org/1999/xlink" x="0px" y="0px"
	 width="25.512px" height="45.354px" viewBox="0 0 25.512 45.354" enable-background="new 0 0 25.512 45.354" xml:space="preserve">
<path fill="#E70095" d="M12.428,45.144"/>
<path fill="#E70095" d="M12.428,45.144"/>
<path fill="#A8C7D4" d="M13.246,23.854c5.829,0,10.554-4.725,10.554-10.554S19.074,2.746,13.246,2.746
	C7.416,2.746,2.69,7.47,2.69,13.299S7.416,23.854,13.246,23.854"/>
<path fill="#6BA2B9" d="M12.755,23.099c-5.354,0-9.693-4.34-9.693-9.688c0-5.354,4.34-9.694,9.693-9.694
	c5.353,0,9.69,4.34,9.69,9.694C22.448,18.759,18.109,23.099,12.755,23.099 M12.755,0.123c-6.916,0-12.521,5.604-12.521,12.52
	c0,13.946,12.521,32.589,12.521,32.589S25.276,28.19,25.276,12.643C25.276,5.728,19.67,0.123,12.755,0.123"/>
</svg>
