<?xml version="1.0" encoding="utf-8"?>
<!-- Generator: Adobe Illustrator 16.0.0, SVG Export Plug-In . SVG Version: 6.00 Build 0)  -->
<!DOCTYPE svg PUBLIC "-//W3C//DTD SVG 1.1//EN" "http://www.w3.org/Graphics/SVG/1.1/DTD/svg11.dtd">
<svg version="1.1" id="overlay" xmlns="http://www.w3.org/2000/svg" xmlns:xlink="http://www.w3.org/1999/xlink" x="0px" y="0px"
	 width="435px" height="275px" viewBox="-154 393 435 275" enable-background="new -154 393 435 275" xml:space="preserve">
<path id="Overlay" fill="#E3ECF0" d="M205.146,610.433c-16.289-25.253-29.532-54.782-38.285-85.38
	c-9.91-30.508-14.966-60.292-15.459-91.057c-0.219-15.304,0.298-28.715,1.571-40.996H-154v275h406.383
	C235.29,652.08,219.419,632.752,205.146,610.433z"/>
<path id="White_strip" fill="#FFFFFF" d="M210.201,607.2c-16.9-26.2-29.4-55.2-37.601-83.899c-9.3-28.601-14.699-58.2-15.199-89.4
	c-0.2-14,0.199-27.7,1.6-40.9h-12.056c-1.251,12.349-1.761,25.795-1.542,41.093c0.502,31.336,5.644,61.665,15.719,92.714
	c8.914,31.119,22.396,61.165,38.969,86.858c13.259,20.733,27.891,38.952,43.603,54.335h17.606
	C242.001,651,225.101,630.5,210.201,607.2z"/>
</svg>
