<?xml version="1.0" encoding="utf-8"?>
<!-- Generator: Adobe Illustrator 16.0.0, SVG Export Plug-In . SVG Version: 6.00 Build 0)  -->
<!DOCTYPE svg PUBLIC "-//W3C//DTD SVG 1.1//EN" "http://www.w3.org/Graphics/SVG/1.1/DTD/svg11.dtd">
<svg version="1.1" id="Layer_1" xmlns="http://www.w3.org/2000/svg" xmlns:xlink="http://www.w3.org/1999/xlink" x="0px" y="0px"
	 width="412.582px" height="206.053px" viewBox="0 0 412.582 206.053" enable-background="new 0 0 412.582 206.053"
	 xml:space="preserve">
<linearGradient id="SVGID_1_" gradientUnits="userSpaceOnUse" x1="276.458" y1="471.2949" x2="200.1285" y2="243.3319" gradientTransform="matrix(1 0 0 1 -123.2197 -302.8623)">
	<stop  offset="0" style="stop-color:#5B348B;stop-opacity:0"/>
	<stop  offset="1" style="stop-color:#5B348B"/>
</linearGradient>
<path display="none" fill="url(#SVGID_1_)" d="M261.077,0.881c-13.192,3.322-29.903,10.382-45.229,25.462
	C182.841-15.782,128.637-38.091,74.3-40.938C20.832-43.775-29.307-26.942-65.996,2.317c-1.875,1.425-3.768,3.03-5.488,4.576
	c-4.57,3.955-8.972,8.179-13.108,12.549C-74.911-45.418,1.675-76.99,1.675-76.99c-9.273-10.067-39.021-1.645-39.021-1.645
	c58.095-55.73,155.316-16.723,155.316-16.723c0.947-12.926-23.667-25.826-23.667-25.826c56.039,6.365,67.458,12.378,67.458,12.378
	c24.366,9.7,42.938,21.748,56.973,34.48c6.828,4.101,12.205,11.039,15.687,16.589C252.605-34.975,258.911-12.482,261.077,0.881
	 M207.453,35.375c-34.055,40.247-24.414,71.797-20.277,80.996c2.009,4.762,5.94,7.452,15.07,10.323
	c38.236,11.986,37.24,31.67,37.24,31.67c-26.342-19.521-38.01,0.779-38.01,0.779s-15.483,3.285-34.24-6.865
	c-12.582-6.731-10.245-57.474-90.927-57.474c-12.494,0-23.972,1.365-34.404,3.435c-0.462,1.109-0.96,2.229-1.367,3.481
	c-10.534,28.55-47.521,50.826-66.182,53.125c0,0-6.054-19.397-40.979,1.475c0,0,1.473-32.495,42.775-33.738
	c-32.454-40.506-71.778-2.932-71.778-2.932c-7.054-45.604,5.446-76.546,19.868-96.167C-38.534-11.544,15.67-33.612,74.301-30.532
	C127.982-27.673,170.828-9.27,207.453,35.375 M262.124,14.416c21.787,2.3,32.692,18.767,45.106,42.159
	c12.439,23.259,21.299,22.724,40.844,22.724c19.525,0,12.855,43.574-7.153,28.132c-10.272-7.928-14.459-1.123-58.545,8.154
	c-59.782,12.546-84.272,1.628-86.449-11.689c-2.167-12.268-1.812-34.087,18.231-56.581C232.962,26.087,249.83,17.276,262.124,14.416
	"/>
<linearGradient id="SVGID_2_" gradientUnits="userSpaceOnUse" x1="279.209" y1="239.1631" x2="-13.3097" y2="70.2774">
	<stop  offset="0" style="stop-color:#6BA2B9;stop-opacity:0"/>
	<stop  offset="1" style="stop-color:#6BA2B9"/>
</linearGradient>
<path fill="url(#SVGID_2_)" d="M203.474-75.582c32.289,2.956,92.093,28.708,89.44,178.758
	c-3.501,200.163-120.334,289.357-135.738,300.271c0,0,121.595-125.023,105.659-309.328
	C257.122,27.583,232.468-29.661,203.474-75.582 M-137.487,289.065c-3.366,0.204-0.919-1.356,5.435-6.393
	c38.583-26.576,215.673-157.197,236.306-330.345c2.042-1.803,14.787-25.937,27.124-40.52c0,0,25.799-31.342,29.37-32.191
	c0.068,0.614,93.276,116.419,89.57,255.24c-2.857,109.002-47.22,187.588-79.574,230.789
	c38.239-109.312,38.922-215.832,11.76-308.186c-28.314-95.157-4.283-124.036,1.968-130.664c0,0-8.394-20.855-21.581-30.317
	c-2.279,1.068-4.352,2.071-8.292,4.5c-24.203,15.197-34.981,35.062-42.149,50.819c-8.869,19.018,30.996,59.247,0,120.207
	C59.486,176.446-104.247,287.639-137.487,289.065 M-23.075,106.272C14.859-9.502,66.832-39.248,91.781-46.861
	C90.281-21.536,74.679,89.888-81.37,227.713C-62.267,200.419-41.193,161.249-23.075,106.272"/>
</svg>
