<?xml version="1.0" encoding="utf-8"?>
<!-- Generator: Adobe Illustrator 18.0.0, SVG Export Plug-In . SVG Version: 6.00 Build 0)  -->
<!DOCTYPE svg PUBLIC "-//W3C//DTD SVG 1.1//EN" "http://www.w3.org/Graphics/SVG/1.1/DTD/svg11.dtd">
<svg version="1.1" id="Layer_1" xmlns="http://www.w3.org/2000/svg" xmlns:xlink="http://www.w3.org/1999/xlink" x="0px" y="0px"
	 width="237px" height="48px" viewBox="0 0 237 48" enable-background="new 0 0 237 48" xml:space="preserve">
<path fill-rule="evenodd" clip-rule="evenodd" d="M36.622,18.433c2.295,4.311,1.416,10.326-1.889,13.908
	c-3.435,3.798-8.358,5.296-13.461,4.104c-4.554-0.878-8.723-5.22-9.629-9.586c-1.269-5.333,0.94-10.417,5.445-13.51
	c3.784-2.69,9.895-2.935,13.934-0.615C33.335,13.916,35.522,16.175,36.622,18.433 M36.967,18.647
	c2.249,4.578,1.151,10.625-2.452,14.247c-3.46,3.551-8.431,4.953-13.401,3.737c-4.852-1.027-9.179-5.712-9.845-10.479
	c-0.905-5.183,1.305-9.864,5.57-12.898c3.9-2.872,10.38-3.073,14.529-0.582C33.73,13.953,35.914,16.304,36.967,18.647"/>
<path d="M10.074,28.91c0.338,0.592,0.738,1.157,1.004,1.78c-0.237,0.098-0.266-0.255-0.469-0.307l-0.315,0.058l-2.923,1.592
	c-0.348,0.249-0.483,0.576-0.507,0.951c0.031,0.582,0.353,1.188,0.945,1.412c1.306,0.105,2.296-0.908,3.428-1.412
	c0.268-0.167,0.449-0.433,0.473-0.731l-0.065-0.431h0.128l0.88,1.563l-0.063,0.058c-0.282-0.282-0.655-0.458-1.068-0.335
	l-2.863,1.47c-0.529,0.094-1.14,0.03-1.512-0.428c-0.518-0.62-0.888-1.348-0.722-2.206c0.071-0.369,0.44-0.645,0.755-0.828
	l2.767-1.5c0.292-0.202-0.02-0.491,0.033-0.706H10.074z"/>
<path d="M38.857,29.371c0.017,0.275-0.212,0.67,0.218,0.767l3.741,1.651c0.305,0,0.305-0.49,0.571-0.364
	c-0.292,0.61-0.541,1.271-0.882,1.836h-0.095c0-0.214,0.143-0.443,0-0.642l-3.902-1.778c-0.296-0.047-0.353,0.363-0.594,0.397
	c0.218-0.649,0.527-1.264,0.848-1.867H38.857z"/>
<path d="M35.68,34.12c0.047,0.229-0.349,0.391-0.157,0.67l3.08,2.789c0.392,0.179,0.645-0.29,0.851-0.522
	c0.489-0.638,0.315-1.708-0.095-2.325c0.023-0.056,0.084-0.023,0.125-0.031l1.1,1.47c-0.895,0.942-1.774,1.861-2.732,2.725
	c-0.034,0.011-0.048-0.014-0.064-0.03c0.03-0.213,0.282-0.38,0.187-0.611l-3.111-2.852c-0.279-0.188-0.527,0.424-0.664,0.094
	l1.388-1.378H35.68z"/>
<path fill-rule="evenodd" clip-rule="evenodd" d="M15.389,35.681c0.071,0.171,0.142,0.339,0.315,0.458l0.284-0.058v0.181
	c-0.322,0.428-0.614,0.877-0.974,1.287h-0.097c0.182-0.655,0.637-1.583-0.03-2.206c-0.189-0.229-0.456-0.282-0.725-0.334
	c-0.322,0.023-0.627,0.26-0.755,0.551c-0.155,1.287,1.692,2.375,0.442,3.615c-0.33,0.306-0.731,0.453-1.195,0.428
	c-0.818-0.061-1.47-0.743-1.855-1.406c-0.128-0.157-0.275-0.097-0.442-0.064v-0.154c0.449-0.497,0.92-1.017,1.353-1.5h0.094
	c-0.316,0.682-0.865,1.494-0.378,2.268c0.258,0.275,0.566,0.573,0.976,0.582c0.392,0.02,0.724-0.238,0.91-0.552
	c0.363-1.372-1.965-2.667-0.187-3.828C13.934,34.513,14.947,34.884,15.389,35.681"/>
<path d="M18.254,37.367c1.138,0.383,2.247,0.85,3.457,1.07c-0.047,0.601-0.141,1.18-0.282,1.748
	c-0.157-0.171-0.078-0.492-0.188-0.706c-0.134-0.511-0.536-1.103-1.103-1.254l-1.509,4.072c0.047,0.302,0.423,0.286,0.566,0.494
	l-0.063,0.058c-0.732-0.251-1.484-0.465-2.204-0.764v-0.058c0.222-0.048,0.482,0.087,0.727,0c0.62-1.314,1.044-2.698,1.571-4.05
	c0.023-0.095-0.094-0.122-0.155-0.151c-0.85-0.083-1.504,0.299-2.077,0.861c-0.142-0.028,0-0.148,0-0.216l0.88-1.348L18.254,37.367z
	"/>
<path fill-rule="evenodd" clip-rule="evenodd" d="M8.123,25.357c-0.472,0.369-1.054,0.626-1.604,0.891l-0.127-1.319L8.123,25.357z
	 M4.505,24.009c1.158,0.727,2.58,0.818,3.871,1.227c0.393-0.453,0.769,0.243,1.225,0.182l0.063,0.061
	c-1.534,0.837-3.081,1.755-4.623,2.636c-0.269,0.108-0.087,0.481-0.315,0.522c-0.111-0.629-0.172-1.319-0.221-1.931
	c-0.007-0.053,0.087-0.023,0.125-0.031c0.095,0.152,0.041,0.461,0.316,0.461c0.472-0.206,0.964-0.424,1.351-0.767l-0.155-1.501
	c-0.433-0.131-0.962-0.406-1.416-0.121c-0.275,0.121-0.103,0.504-0.378,0.549C4.268,24.73,4.16,24.14,4.16,23.578
	C4.388,23.593,4.357,23.878,4.505,24.009"/>
<path fill-rule="evenodd" clip-rule="evenodd" d="M26.086,38.992c0.43,0.433,0.385,1.14,0.157,1.654
	c-0.315,0.406-0.818,0.357-1.292,0.397c-0.07-0.727-0.131-1.492-0.061-2.239C25.307,38.822,25.761,38.746,26.086,38.992
	 M27.154,39.112c0.229,0.285,0.355,0.635,0.255,1.015c-0.217,0.586-0.86,0.818-1.388,0.981c0.4,0.137,0.92,0.406,1.1,0.858
	c0.34,0.478,0.52,1.369,1.323,1.316v0.093c-0.472,0.021-0.927,0.083-1.416,0.058c-0.527-0.712-0.771-1.624-1.576-2.145
	c-0.142-0.053-0.313-0.024-0.472-0.03l-0.063,0.093l0.094,1.807c0.141,0.205,0.386,0.168,0.597,0.216
	c0.051,0.12-0.091,0.168-0.185,0.154l-1.889,0.058l-0.063-0.058c0.133-0.218,0.503-0.064,0.598-0.37l-0.157-4.077
	c-0.104-0.296-0.466-0.174-0.631-0.334l0.093-0.061C24.636,38.736,26.173,38.232,27.154,39.112"/>
<path fill-rule="evenodd" clip-rule="evenodd" d="M32.659,39.754L31.43,40.34c-0.147-0.546-0.098-1.167-0.155-1.75
	C31.745,38.944,32.232,39.358,32.659,39.754 M35.523,40.585v0.061c-0.607,0.275-1.205,0.574-1.825,0.797
	c-0.057-0.214,0.48-0.286,0.281-0.581l-1.098-0.953c-0.517,0.206-1.064,0.431-1.511,0.737c0.087,0.481,0.016,1.11,0.6,1.319h0.437
	v0.09c-0.543,0.221-1.09,0.544-1.635,0.673c0.449-0.346,0.504-0.928,0.504-1.439l-0.189-2.819c-0.603-0.185-0.024-0.797-0.254-1.228
	l0.064-0.058l4.151,3.401H35.523z"/>
<path fill-rule="evenodd" clip-rule="evenodd" d="M42.63,26.921c-0.57-0.162-1.073-0.515-1.603-0.769
	c0.527-0.229,1.131-0.414,1.729-0.551L42.63,26.921z M44.992,23.673c-0.014,0.612-0.104,1.262-0.16,1.9l-0.094,0.028
	c-0.117-0.151-0.007-0.407-0.219-0.519c-0.554,0.061-1.094,0.212-1.54,0.461l-0.164,1.5c0.406,0.238,0.815,0.542,1.323,0.428
	c0.294-0.061,0.278-0.437,0.54-0.492c-0.067,0.591-0.033,1.213-0.224,1.749c-0.093-0.391-0.386-0.79-0.786-1.009l-2.923-1.503
	c-0.482,0.421-0.742-0.414-1.198-0.431v-0.091c1.728-0.508,3.45-1.052,5.16-1.624C44.896,23.981,44.778,23.702,44.992,23.673"/>
<path d="M26.968,4.218c-0.076,0.191-0.363,0.138-0.507,0.307c-0.416,0.373-0.288,0.963-0.311,1.499
	c-0.095,1.012,0.477,2.681-0.915,3.125c-0.772,0.229-1.708,0.137-2.361-0.276c-0.383-0.298-0.509-0.69-0.534-1.134l-0.094-3.122
	c-0.118-0.283-0.51-0.071-0.598-0.309c0.68-0.114,1.464-0.038,2.141-0.061c0.027,0.269-0.332,0.115-0.473,0.246L23.19,4.678
	l0.094,3.431c0.058,0.329,0.348,0.65,0.66,0.797c0.466,0.161,1.087,0.235,1.51-0.061c0.395-0.3,0.56-0.736,0.536-1.227
	c-0.141-0.973,0.191-2.139-0.282-2.973c-0.164-0.229-0.489-0.236-0.628-0.399l0.221-0.06C25.857,4.285,26.408,4.117,26.968,4.218"/>
<path d="M33.852,6.239h0.222c-0.08,0.598-0.205,1.18-0.376,1.748c-0.081-0.26-0.12-0.598-0.191-0.889
	c-0.158-0.443-0.48-0.956-0.977-1.133c-0.627,1.325-1.147,2.69-1.698,4.045c0.064,0.283,0.379,0.336,0.57,0.521
	c-0.033,0.098-0.205,0.067-0.285,0.03c-0.635-0.299-1.321-0.507-1.952-0.827c0.104-0.139,0.379,0,0.568,0
	c0.315,0.038,0.332-0.315,0.439-0.492c0.434-1.224,1.014-2.391,1.449-3.612C30.77,5.291,29.977,5.818,29.324,6.3
	c0.261-0.529,0.583-1.025,0.974-1.501l0.412,0.276L33.852,6.239z"/>
<path d="M38.635,9.579c-0.009,0.038,0.024,0.098-0.031,0.122c-0.244-0.007-0.376-0.362-0.662-0.185l-1.288,1.288
	c0.426,0.561,0.977,0.926,1.447,1.44h0.094c0.358-0.621,1.833-1.097,1.067-1.869c0.078-0.145,0.175,0.007,0.254,0.03l1.322,1.316
	l-0.064,0.094c-0.234-0.017-0.385-0.353-0.658-0.185l-3.019,3.003c-0.064,0.236,0.224,0.337,0.218,0.551h-0.157
	c-0.464-0.465-0.99-0.911-1.385-1.409c0.251-0.131,0.557,0.46,0.818,0.031l1.383-1.351c-0.416-0.519-0.966-0.978-1.445-1.47h-0.095
	l-1.511,1.501c-0.162,0.246,0.433,0.491,0.097,0.615c-0.457-0.445-0.959-0.935-1.416-1.38v-0.091
	c0.241-0.03,0.482,0.414,0.755,0.124l2.956-2.91c0.157-0.293-0.443-0.517-0.095-0.645L38.635,9.579z"/>
<path fill-rule="evenodd" clip-rule="evenodd" d="M11.929,10.529v0.122c-0.67-0.245-1.551-0.72-2.234-0.185
	c-0.292,0.213-0.417,0.49-0.47,0.8c0.03,0.289,0.249,0.525,0.501,0.702c1.266,0.215,2.274-1.18,3.554-0.458
	c0.402,0.276,0.574,0.703,0.661,1.131c0.063,0.737-0.409,1.304-1.007,1.718c-0.242,0.122-0.526,0.231-0.694,0.461
	c-0.02,0.098,0.043,0.159,0.064,0.243l-0.064,0.061c-0.57-0.428-1.123-0.965-1.634-1.472l0.061-0.06
	c0.64,0.374,1.332,0.804,2.143,0.584c0.422-0.202,0.809-0.63,0.818-1.106c-0.024-0.344-0.251-0.657-0.568-0.825
	c-1.369-0.316-3.231,1.906-4.059-0.246c-0.138-0.62,0.05-1.258,0.567-1.684c0.291-0.325,1.054-0.269,0.912-0.86h0.095L11.929,10.529
	z"/>
<path fill-rule="evenodd" clip-rule="evenodd" d="M18.662,8.138c0.225,0.576,0.274,1.464-0.157,1.964
	c-0.33,0.343-0.739,0.495-1.197,0.549c-1.331-0.077-1.942-1.517-2.262-2.542c-0.128-0.575-0.098-1.234,0.343-1.655
	c0.424-0.381,1.037-0.583,1.606-0.367C17.851,6.43,18.355,7.358,18.662,8.138 M19.354,7.128c0.4,0.71,0.338,1.731-0.064,2.418
	c-0.464,0.768-1.296,1.319-2.201,1.38c-0.937,0.024-1.764-0.283-2.362-1.01c-0.479-0.646-0.668-1.517-0.437-2.33
	c0.298-0.949,1.274-1.776,2.294-1.869C17.74,5.634,18.825,6.125,19.354,7.128"/>
<path d="M1.674,15.454C5.212,6.417,14.187,0,24.707,0c10.525,0,19.51,6.427,23.04,15.468l-2.494,0.902
	C42.102,8.318,34.082,2.61,24.707,2.61c-9.371,0-17.373,5.714-20.526,13.76L1.674,15.454z"/>
<path d="M3.1,27.853c1.863,9.978,10.825,17.54,21.608,17.54c10.778,0,19.748-7.563,21.607-17.54l2.637,0.487
	C46.853,39.525,36.797,48,24.708,48C12.617,48,2.561,39.528,0.463,28.339L3.1,27.853z"/>
<rect y="23.805" width="2.664" height="0.655"/>
<rect x="1.045" y="21.74" transform="matrix(-0.0393 0.9992 -0.9992 -0.0393 24.4698 22.6008)" width="0.651" height="2.648"/>
<rect x="1.13" y="20.716" transform="matrix(-0.0815 0.9967 -0.9967 -0.0815 23.5346 22.3833)" width="0.647" height="2.641"/>
<polygon points="0.233,21.177 0.312,20.536 2.929,20.844 2.849,21.488 "/>
<polygon points="0.398,20.099 0.502,19.46 3.104,19.869 3,20.506 "/>
<polygon points="0.565,19.018 0.698,18.383 3.283,18.894 3.152,19.529 "/>
<polygon points="0.82,17.96 0.978,17.328 3.553,17.942 3.392,18.574 "/>
<polygon points="1.305,16.274 3.864,16.989 3.678,17.616 1.121,16.902 "/>
<rect x="46.677" y="23.805" width="2.661" height="0.655"/>
<rect x="47.645" y="21.741" transform="matrix(0.0417 0.9991 -0.9991 0.0417 69.0151 -25.8264)" width="0.651" height="2.646"/>
<polygon points="49.232,22.256 49.176,21.612 46.543,21.816 46.596,22.461 "/>
<polygon points="49.109,21.177 49.028,20.536 46.412,20.844 46.487,21.488 "/>
<polygon points="48.943,20.099 48.834,19.46 46.232,19.869 46.341,20.506 "/>
<polygon points="48.776,19.018 48.644,18.383 46.05,18.894 46.187,19.529 "/>
<polygon points="48.52,17.96 48.363,17.328 45.786,17.942 45.948,18.574 "/>
<polygon points="48.034,16.274 45.474,16.989 45.661,17.616 48.221,16.902 "/>
<line x1="59.329" y1="18.405" x2="237" y2="18.405"/>
<line fill="none" stroke="#000000" stroke-width="1.8225" stroke-miterlimit="3.864" x1="59.329" y1="18.405" x2="237" y2="18.405"/>
<path d="M66.609,5.505c-0.661-0.297-1.512-0.438-2.194-0.438c-1.989,0-3.086,1.305-3.086,3.004c0,1.685,1.073,2.954,2.888,2.954
	c0.47,0,0.829-0.046,1.125-0.117V8.747h-1.808V7.442h3.44v4.462c-0.903,0.239-1.841,0.428-2.758,0.428
	c-2.755,0-4.666-1.343-4.666-4.144c0-2.836,1.778-4.429,4.666-4.429c0.987,0,1.768,0.13,2.502,0.346L66.609,5.505z"/>
<path d="M71.456,5.934c1.863,0,3.291,1.222,3.291,3.241c0,1.758-1.207,3.156-3.291,3.156c-2.076,0-3.282-1.399-3.282-3.156
	C68.174,7.157,69.601,5.934,71.456,5.934 M71.456,11.097c1.254,0,1.584-1.093,1.584-2.113c0-0.938-0.513-1.817-1.584-1.817
	c-1.064,0-1.576,0.904-1.576,1.817C69.88,9.993,70.211,11.097,71.456,11.097"/>
<polygon points="75.29,6.076 77.047,6.076 78.608,10.528 78.628,10.528 80.141,6.076 81.775,6.076 79.461,12.189 77.618,12.189 "/>
<path d="M87.756,11.847c-0.598,0.319-1.278,0.485-2.158,0.485c-2.068,0-3.279-1.164-3.279-3.168c0-1.772,0.964-3.229,2.915-3.229
	c2.326,0,2.986,1.553,2.986,3.692h-4.341c0.073,0.983,0.781,1.541,1.794,1.541c0.792,0,1.475-0.285,2.084-0.618V11.847z
	 M86.66,8.534c-0.049-0.771-0.416-1.437-1.328-1.437c-0.915,0-1.38,0.616-1.453,1.437H86.66z"/>
<path d="M89.497,6.076h1.452v1.39h0.023c0.073-0.571,0.744-1.533,1.717-1.533c0.161,0,0.33,0,0.501,0.047v1.601
	c-0.148-0.083-0.439-0.13-0.729-0.13c-1.332,0-1.332,1.615-1.332,2.492v2.244h-1.631V6.076z"/>
<path d="M94.4,6.076h1.55v0.83h0.023c0.511-0.699,1.205-0.972,2.059-0.972c1.489,0,2.137,1.02,2.137,2.397v3.858h-1.635V8.925
	c0-0.75-0.013-1.758-1.061-1.758c-1.181,0-1.437,1.247-1.437,2.029v2.991H94.4V6.076z"/>
<path d="M101.781,6.076h1.527V6.93h0.023c0.514-0.749,1.255-0.996,1.866-0.996c0.878,0,1.499,0.32,1.852,1.08
	c0.377-0.737,1.195-1.08,1.963-1.08c1.547,0,1.986,1.03,1.986,2.397v3.858h-1.634V8.547c0-0.572,0-1.379-0.936-1.379
	c-1.085,0-1.218,1.258-1.218,2.055v2.966h-1.635V8.547c0-0.572,0-1.379-0.937-1.379c-1.085,0-1.222,1.258-1.222,2.055v2.966h-1.634
	V6.076z"/>
<path d="M117.636,11.847c-0.595,0.319-1.278,0.485-2.158,0.485c-2.071,0-3.277-1.164-3.277-3.168c0-1.772,0.962-3.229,2.912-3.229
	c2.329,0,2.989,1.553,2.989,3.692h-4.341c0.073,0.983,0.778,1.541,1.791,1.541c0.792,0,1.477-0.285,2.084-0.618V11.847z
	 M116.542,8.534c-0.05-0.771-0.413-1.437-1.331-1.437c-0.916,0-1.378,0.616-1.45,1.437H116.542z"/>
<path d="M119.342,6.076h1.544v0.83h0.023c0.511-0.699,1.211-0.972,2.064-0.972c1.489,0,2.134,1.02,2.134,2.397v3.858h-1.635V8.925
	c0-0.75-0.013-1.758-1.061-1.758c-1.184,0-1.437,1.247-1.437,2.029v2.991h-1.631V6.076z"/>
<path d="M127.282,7.238h-1.205V6.075h1.205V4.853l1.634-0.511v1.733h1.455v1.163h-1.455v2.851c0,0.522,0.148,1.009,0.769,1.009
	c0.291,0,0.573-0.058,0.744-0.165l0.047,1.258c-0.34,0.095-0.719,0.141-1.211,0.141c-1.274,0-1.983-0.77-1.983-1.982V7.238z"/>
<path d="M137.676,5.934c1.866,0,3.292,1.222,3.292,3.241c0,1.758-1.208,3.156-3.292,3.156c-2.073,0-3.277-1.399-3.277-3.156
	C134.399,7.157,135.825,5.934,137.676,5.934 M137.676,11.097c1.256,0,1.587-1.093,1.587-2.113c0-0.938-0.513-1.817-1.587-1.817
	c-1.059,0-1.57,0.904-1.57,1.817C136.106,9.993,136.434,11.097,137.676,11.097"/>
<path d="M142.806,7.238h-1.208V6.075h1.208V5.221c0-1.225,0.707-2.078,2-2.078c0.413,0,0.873,0.058,1.194,0.131l-0.135,1.319
	c-0.144-0.087-0.353-0.218-0.709-0.218c-0.547,0-0.715,0.463-0.715,0.939v0.76h1.425v1.163h-1.425v4.953h-1.634V7.238z"/>
<path d="M154.978,5.422c-0.537-0.225-1.131-0.356-1.731-0.356c-0.586,0-1.341,0.248-1.341,1.151c0,1.436,3.727,0.83,3.727,3.609
	c0,1.817-1.472,2.505-3.191,2.505c-0.925,0-1.342-0.12-2.184-0.32l0.16-1.497c0.587,0.31,1.259,0.511,1.925,0.511
	c0.652,0,1.516-0.32,1.516-1.069c0-1.577-3.734-0.925-3.734-3.667c0-1.854,1.475-2.53,2.973-2.53c0.734,0,1.416,0.097,2.04,0.299
	L154.978,5.422z"/>
<path d="M159.874,5.934c1.869,0,3.292,1.222,3.292,3.241c0,1.758-1.208,3.156-3.292,3.156c-2.073,0-3.279-1.399-3.279-3.156
	C156.594,7.157,158.024,5.934,159.874,5.934 M159.874,11.097c1.256,0,1.587-1.093,1.587-2.113c0-0.938-0.516-1.817-1.587-1.817
	c-1.059,0-1.57,0.904-1.57,1.817C158.304,9.993,158.631,11.097,159.874,11.097"/>
<path d="M170.168,12.19h-1.544v-0.832h-0.023c-0.503,0.595-1.211,0.975-2.061,0.975c-1.489,0-2.134-1.02-2.134-2.398V6.077h1.633
	V9.34c0,0.747,0.01,1.756,1.061,1.756c1.184,0,1.437-1.247,1.437-2.029v-2.99h1.631V12.19z"/>
<path d="M172.347,7.238h-1.205V6.075h1.205V4.853l1.637-0.511v1.733h1.449v1.163h-1.449v2.851c0,0.522,0.145,1.009,0.764,1.009
	c0.296,0,0.581-0.058,0.749-0.165l0.044,1.258c-0.34,0.095-0.718,0.141-1.205,0.141c-1.279,0-1.989-0.77-1.989-1.982V7.238z"/>
<path d="M176.514,3.286h1.637v3.619h0.024c0.415-0.592,1.117-0.972,1.97-0.972c1.492,0,2.137,1.02,2.137,2.398v3.858h-1.635V8.926
	c0-0.75-0.013-1.759-1.061-1.759c-1.181,0-1.434,1.247-1.434,2.029v2.993h-1.637V3.286z"/>
<path d="M189.857,3.901h1.929l3.335,8.287h-1.886l-0.732-1.899h-3.448l-0.744,1.899h-1.768L189.857,3.901z M190.796,5.565h-0.024
	l-1.232,3.418h2.49L190.796,5.565z"/>
<path d="M201.8,12.19h-1.55v-0.832h-0.02c-0.506,0.595-1.214,0.975-2.064,0.975c-1.486,0-2.134-1.02-2.134-2.398V6.077h1.635V9.34
	c0,0.747,0.013,1.756,1.061,1.756c1.184,0,1.437-1.247,1.437-2.029v-2.99h1.634V12.19z"/>
<path d="M207.173,7.358c-0.502-0.165-0.868-0.26-1.469-0.26c-0.436,0-0.957,0.152-0.957,0.676c0,0.973,2.836,0.354,2.836,2.565
	c0,1.423-1.303,1.994-2.628,1.994c-0.627,0-1.259-0.107-1.853-0.262l0.093-1.305c0.516,0.249,1.05,0.403,1.611,0.403
	c0.416,0,1.074-0.154,1.074-0.747c0-1.198-2.845-0.38-2.845-2.587c0-1.318,1.187-1.899,2.466-1.899c0.766,0,1.266,0.117,1.779,0.223
	L207.173,7.358z"/>
<path d="M209.351,7.238h-1.208V6.075h1.208V4.853l1.631-0.511v1.733h1.449v1.163h-1.449v2.851c0,0.522,0.145,1.009,0.772,1.009
	c0.288,0,0.57-0.058,0.741-0.165l0.047,1.258c-0.34,0.095-0.717,0.141-1.205,0.141c-1.282,0-1.986-0.77-1.986-1.982V7.238z"/>
<path d="M213.551,6.076h1.453v1.39h0.024c0.073-0.571,0.746-1.533,1.717-1.533c0.16,0,0.331,0,0.502,0.047v1.601
	c-0.145-0.083-0.437-0.13-0.734-0.13c-1.325,0-1.325,1.615-1.325,2.492v2.244h-1.637V6.076z"/>
<path d="M218.502,6.395c0.63-0.283,1.484-0.461,2.178-0.461c1.912,0,2.71,0.771,2.71,2.576v0.783c0,0.616,0.011,1.08,0.021,1.533
	c0.013,0.461,0.037,0.889,0.071,1.365h-1.437c-0.058-0.32-0.058-0.723-0.071-0.914h-0.024c-0.377,0.676-1.197,1.056-1.939,1.056
	c-1.111,0-2.197-0.655-2.197-1.817c0-0.912,0.454-1.447,1.076-1.745c0.624-0.297,1.426-0.357,2.105-0.357h0.905
	c0-0.983-0.452-1.315-1.416-1.315c-0.691,0-1.39,0.26-1.936,0.663L218.502,6.395z M220.414,11.168c0.499,0,0.888-0.212,1.144-0.545
	c0.269-0.344,0.342-0.784,0.342-1.259h-0.708c-0.729,0-1.815,0.121-1.815,1.057C219.377,10.944,219.827,11.168,220.414,11.168"/>
<rect x="224.991" y="3.286" width="1.631" height="8.903"/>
<path d="M228.342,3.439h1.634v1.52h-1.634V3.439z M228.342,6.076h1.634v6.112h-1.634V6.076z"/>
<path d="M231.938,6.395c0.631-0.283,1.484-0.461,2.181-0.461c1.912,0,2.707,0.771,2.707,2.576v0.783c0,0.616,0.013,1.08,0.023,1.533
	c0.011,0.461,0.038,0.889,0.073,1.365h-1.435c-0.061-0.32-0.061-0.723-0.074-0.914h-0.024c-0.38,0.676-1.197,1.056-1.939,1.056
	c-1.111,0-2.194-0.655-2.194-1.817c0-0.912,0.45-1.447,1.071-1.745c0.621-0.297,1.425-0.357,2.11-0.357h0.9
	c0-0.983-0.45-1.315-1.412-1.315c-0.694,0-1.39,0.26-1.939,0.663L231.938,6.395z M233.85,11.168c0.501,0,0.89-0.212,1.147-0.545
	c0.266-0.344,0.34-0.784,0.34-1.259h-0.704c-0.734,0-1.821,0.121-1.821,1.057C232.813,10.944,233.269,11.168,233.85,11.168"/>
<path d="M59.973,23.079h2.177c3.153,0,4.398,1.766,4.398,4.268c0,3.103-2.128,4.294-5.037,4.294h-1.537V23.079z M60.841,30.905
	h0.719c2.495,0,4.117-0.983,4.117-3.608c0-2.616-1.597-3.482-3.564-3.482h-1.272V30.905z"/>
<path d="M72.669,31.447c-0.554,0.218-1.271,0.34-1.863,0.34c-2.131,0-2.923-1.399-2.923-3.275c0-1.914,1.086-3.275,2.711-3.275
	c1.812,0,2.556,1.422,2.556,3.102v0.394h-4.396c0,1.321,0.732,2.389,2.12,2.389c0.576,0,1.422-0.229,1.796-0.464V31.447z
	 M72.28,28.068c0-1.09-0.456-2.169-1.64-2.169c-1.171,0-1.888,1.14-1.888,2.169H72.28z"/>
<path d="M74.585,25.383h0.791l-0.048,1.14h0.024c0.205-0.342,0.697-1.287,2.056-1.287c1.888,0,2.644,1.376,2.644,3.276
	c0,1.85-0.882,3.273-2.644,3.273c-1.007,0-1.614-0.404-2.006-1.214h-0.026v3.645h-0.791V25.383z M77.282,25.9
	c-1.413,0-1.906,1.47-1.906,2.613c0,1.14,0.493,2.61,1.906,2.61c1.509,0,1.899-1.395,1.899-2.61
	C79.181,27.298,78.791,25.9,77.282,25.9"/>
<path d="M85.357,30.635h-0.029c-0.352,0.747-1.247,1.151-2.039,1.151c-1.826,0-2.118-1.201-2.118-1.769
	c0-2.093,2.291-2.194,3.959-2.194h0.148v-0.317c0-1.067-0.389-1.605-1.459-1.605c-0.67,0-1.299,0.147-1.89,0.514v-0.749
	c0.49-0.233,1.323-0.43,1.89-0.43c1.587,0,2.254,0.702,2.254,2.331v2.761c0,0.502,0,0.884,0.064,1.314h-0.781V30.635z
	 M85.279,28.489h-0.227c-1.37,0-3.01,0.137-3.01,1.507c0,0.821,0.604,1.127,1.335,1.127c1.865,0,1.902-1.58,1.902-2.254V28.489z"/>
<path d="M87.964,26.782c0-0.684,0-0.942-0.05-1.398h0.794v1.203h0.026c0.292-0.7,0.831-1.351,1.648-1.351
	c0.187,0,0.416,0.038,0.556,0.075v0.81c-0.162-0.048-0.379-0.074-0.584-0.074c-1.256,0-1.597,1.373-1.597,2.503v3.09h-0.792V26.782z
	"/>
<path d="M94.928,26.047h-1.457v4.049c0,0.565,0.209,1.029,0.855,1.029c0.301,0,0.504-0.061,0.728-0.148l0.051,0.638
	c-0.191,0.077-0.58,0.174-0.972,0.174c-1.407,0-1.46-0.946-1.46-2.086v-3.655h-1.259v-0.663h1.259v-1.509l0.798-0.27v1.779h1.457
	V26.047z"/>
<path d="M104.108,31.64v-4.158c0-0.884-0.339-1.581-1.358-1.581c-0.869,0-1.725,0.723-1.725,2.28v3.46h-0.795v-4.158
	c0-0.884-0.34-1.581-1.359-1.581c-0.869,0-1.728,0.723-1.728,2.28v3.46h-0.795v-4.782c0-0.478,0-0.972-0.048-1.476h0.769v1.056
	l0.026,0.013c0.252-0.431,0.63-1.214,2.003-1.214c0.568,0,1.499,0.232,1.701,1.322h0.024c0.288-0.732,1.044-1.322,2.051-1.322
	c1.298,0,2.029,0.884,2.029,2.096v4.306H104.108z"/>
<path d="M111.153,31.447c-0.554,0.218-1.274,0.34-1.863,0.34c-2.131,0-2.923-1.399-2.923-3.275c0-1.914,1.083-3.275,2.705-3.275
	c1.818,0,2.559,1.422,2.559,3.102v0.394h-4.394c0,1.321,0.727,2.389,2.117,2.389c0.576,0,1.419-0.229,1.799-0.464V31.447z
	 M110.761,28.068c0-1.09-0.453-2.169-1.634-2.169c-1.174,0-1.89,1.14-1.89,2.169H110.761z"/>
<path d="M113.142,26.859c0-0.48,0-0.972-0.051-1.476h0.771v1.116h0.021c0.266-0.562,0.748-1.261,2.083-1.261
	c1.584,0,2.19,1.029,2.19,2.401v4.002h-0.792V27.84c0-1.18-0.427-1.94-1.521-1.94c-1.452,0-1.902,1.238-1.902,2.281v3.46h-0.798
	V26.859z"/>
<path d="M122.917,26.047h-1.46v4.049c0,0.565,0.212,1.029,0.858,1.029c0.301,0,0.504-0.061,0.728-0.148l0.053,0.638
	c-0.192,0.077-0.581,0.174-0.973,0.174c-1.407,0-1.46-0.946-1.46-2.086v-3.655h-1.259v-0.663h1.259v-1.509l0.795-0.27v1.779h1.46
	V26.047z"/>
<path d="M130.348,25.237c2.078,0,2.999,1.568,2.999,3.276c0,1.705-0.92,3.273-2.999,3.273c-2.077,0-2.997-1.568-2.997-3.273
	C127.351,26.806,128.271,25.237,130.348,25.237 M130.348,31.124c1.39,0,2.128-1.164,2.128-2.61c0-1.45-0.738-2.613-2.128-2.613
	c-1.385,0-2.128,1.163-2.128,2.613C128.22,29.959,128.964,31.124,130.348,31.124"/>
<path d="M135.388,26.047h-1.295v-0.663h1.295v-0.455c0-1.308,0.05-2.634,1.704-2.634c0.248,0,0.59,0.037,0.738,0.122l-0.047,0.676
	c-0.165-0.087-0.403-0.138-0.63-0.138c-1.083,0-0.97,1.14-0.97,1.891v0.538h1.45v0.663h-1.45v5.594h-0.795V26.047z"/>
<polygon points="142.633,23.079 146.938,23.079 146.938,23.814 143.497,23.814 143.497,26.869 146.763,26.869 146.763,27.605 
	143.497,27.605 143.497,30.905 147.094,30.905 147.094,31.64 142.633,31.64 "/>
<path d="M148.84,26.859c0-0.48,0-0.972-0.049-1.476h0.768v1.116h0.027c0.264-0.562,0.744-1.261,2.077-1.261
	c1.586,0,2.192,1.029,2.192,2.401v4.002h-0.795V27.84c0-1.18-0.427-1.94-1.524-1.94c-1.449,0-1.902,1.238-1.902,2.281v3.46h-0.795
	V26.859z"/>
<polygon points="158.076,31.64 157.145,31.64 154.962,25.383 155.834,25.383 157.609,30.794 157.635,30.794 159.501,25.383 
	160.329,25.383 "/>
<path d="M162.234,23.716h-0.795v-1.03h0.795V23.716z M161.439,25.383h0.795v6.258h-0.795V25.383z"/>
<path d="M164.222,26.782c0-0.684,0-0.942-0.051-1.398h0.792v1.203h0.027c0.291-0.7,0.829-1.351,1.648-1.351
	c0.191,0,0.417,0.038,0.554,0.075v0.81c-0.16-0.048-0.376-0.074-0.576-0.074c-1.262,0-1.603,1.373-1.603,2.503v3.09h-0.792V26.782z"
	/>
<path d="M170.912,25.237c2.078,0,2.999,1.568,2.999,3.276c0,1.705-0.92,3.273-2.999,3.273c-2.079,0-2.997-1.568-2.997-3.273
	C167.915,26.806,168.834,25.237,170.912,25.237 M170.912,31.124c1.388,0,2.128-1.164,2.128-2.61c0-1.45-0.741-2.613-2.128-2.613
	c-1.385,0-2.126,1.163-2.126,2.613C168.787,29.959,169.527,31.124,170.912,31.124"/>
<path d="M175.413,26.859c0-0.48,0-0.972-0.053-1.476h0.766v1.116h0.03c0.261-0.562,0.739-1.261,2.074-1.261
	c1.59,0,2.192,1.029,2.192,2.401v4.002h-0.795V27.84c0-1.18-0.427-1.94-1.521-1.94c-1.452,0-1.902,1.238-1.902,2.281v3.46h-0.792
	V26.859z"/>
<path d="M190.174,31.64v-4.158c0-0.884-0.342-1.581-1.362-1.581c-0.87,0-1.727,0.723-1.727,2.28v3.46h-0.794v-4.158
	c0-0.884-0.339-1.581-1.361-1.581c-0.869,0-1.722,0.723-1.722,2.28v3.46h-0.795v-4.782c0-0.478,0-0.972-0.048-1.476h0.764v1.056
	l0.028,0.013c0.252-0.431,0.63-1.214,2.003-1.214c0.563,0,1.499,0.232,1.695,1.322h0.027c0.289-0.732,1.046-1.322,2.054-1.322
	c1.298,0,2.032,0.884,2.032,2.096v4.306H190.174z"/>
<path d="M197.213,31.447c-0.554,0.218-1.272,0.34-1.863,0.34c-2.128,0-2.923-1.399-2.923-3.275c0-1.914,1.083-3.275,2.71-3.275
	c1.814,0,2.557,1.422,2.557,3.102v0.394h-4.396c0,1.321,0.729,2.389,2.117,2.389c0.576,0,1.422-0.229,1.799-0.464V31.447z
	 M196.822,28.068c0-1.09-0.45-2.169-1.634-2.169c-1.171,0-1.89,1.14-1.89,2.169H196.822z"/>
<path d="M199.205,26.859c0-0.48,0-0.972-0.05-1.476h0.766v1.116h0.027c0.264-0.562,0.745-1.261,2.08-1.261
	c1.586,0,2.19,1.029,2.19,2.401v4.002h-0.792V27.84c0-1.18-0.433-1.94-1.524-1.94c-1.449,0-1.905,1.238-1.905,2.281v3.46h-0.792
	V26.859z"/>
<path d="M208.978,26.047h-1.457v4.049c0,0.565,0.215,1.029,0.855,1.029c0.303,0,0.504-0.061,0.734-0.148l0.048,0.638
	c-0.191,0.077-0.58,0.174-0.969,0.174c-1.413,0-1.46-0.946-1.46-2.086v-3.655h-1.262v-0.663h1.262v-1.509l0.792-0.27v1.779h1.457
	V26.047z"/>
<polygon points="210.82,30.612 211.879,30.612 210.884,33.284 210.089,33.284 "/>
<polygon points="68.2,45.63 67.166,45.63 64.936,38.025 64.912,38.025 62.644,45.63 61.599,45.63 59.081,37.073 59.974,37.073 
	62.14,44.674 62.163,44.674 64.418,37.073 65.465,37.073 67.683,44.674 67.704,44.674 69.912,37.073 70.74,37.073 "/>
<path d="M75.081,44.625h-0.029c-0.352,0.747-1.247,1.154-2.039,1.154c-1.829,0-2.121-1.204-2.121-1.769
	c0-2.096,2.294-2.194,3.956-2.194h0.154v-0.32c0-1.067-0.389-1.605-1.457-1.605c-0.674,0-1.302,0.149-1.892,0.515v-0.747
	c0.487-0.235,1.321-0.43,1.892-0.43c1.583,0,2.249,0.699,2.249,2.328v2.761c0,0.502,0,0.887,0.061,1.314h-0.775V44.625z
	 M75.002,42.479h-0.227c-1.373,0-3.01,0.134-3.01,1.507c0,0.824,0.601,1.13,1.332,1.13c1.865,0,1.905-1.583,1.905-2.258V42.479z"/>
<path d="M80.455,40.039h-1.46v4.046c0,0.565,0.215,1.032,0.858,1.032c0.301,0,0.504-0.061,0.731-0.148l0.051,0.638
	c-0.191,0.074-0.583,0.174-0.972,0.174c-1.41,0-1.46-0.949-1.46-2.086v-3.655h-1.259v-0.666h1.259v-1.509l0.792-0.27v1.779h1.46
	V40.039z"/>
<path d="M86.187,45.436c-0.554,0.218-1.271,0.343-1.863,0.343c-2.128,0-2.923-1.399-2.923-3.276c0-1.913,1.083-3.273,2.711-3.273
	c1.812,0,2.554,1.422,2.554,3.102v0.394h-4.395c0,1.321,0.729,2.389,2.114,2.389c0.578,0,1.425-0.232,1.802-0.467V45.436z
	 M85.798,42.061c0-1.093-0.453-2.172-1.64-2.172c-1.174,0-1.888,1.141-1.888,2.172H85.798z"/>
<path d="M88.179,40.771c0-0.684,0-0.942-0.051-1.398h0.792v1.203h0.029c0.286-0.7,0.828-1.348,1.648-1.348
	c0.189,0,0.413,0.036,0.553,0.073v0.81c-0.162-0.048-0.376-0.073-0.578-0.073c-1.259,0-1.6,1.375-1.6,2.502v3.09h-0.792V40.771z"/>
<path d="M99.566,44.625H99.54c-0.355,0.747-1.248,1.154-2.039,1.154c-1.828,0-2.118-1.204-2.118-1.769
	c0-2.096,2.291-2.194,3.953-2.194h0.151v-0.32c0-1.067-0.389-1.605-1.46-1.605c-0.665,0-1.298,0.149-1.889,0.515v-0.747
	c0.493-0.235,1.323-0.43,1.889-0.43c1.588,0,2.255,0.699,2.255,2.328v2.761c0,0.502,0,0.887,0.064,1.314h-0.781V44.625z
	 M99.488,42.479h-0.224c-1.373,0-3.013,0.134-3.013,1.507c0,0.824,0.607,1.13,1.335,1.13c1.868,0,1.902-1.583,1.902-2.258V42.479z"
	/>
<path d="M102.173,40.849c0-0.48,0-0.972-0.049-1.476h0.768v1.116h0.024c0.266-0.562,0.742-1.259,2.077-1.259
	c1.587,0,2.192,1.027,2.192,2.402v3.999h-0.789v-3.804c0-1.175-0.433-1.937-1.527-1.937c-1.449,0-1.902,1.238-1.902,2.281v3.46
	h-0.795V40.849z"/>
<path d="M114.266,45.63h-0.792v-0.99h-0.024c-0.429,0.796-1.086,1.14-2.006,1.14c-1.762,0-2.644-1.423-2.644-3.276
	c0-1.9,0.754-3.273,2.644-3.273c1.261,0,1.89,0.892,2.006,1.197h0.024v-3.996h0.792V45.63z M111.572,45.116
	c1.41,0,1.902-1.473,1.902-2.613c0-1.143-0.491-2.613-1.902-2.613c-1.512,0-1.902,1.398-1.902,2.613
	C109.67,43.716,110.06,45.116,111.572,45.116"/>
<polygon points="119.656,37.072 120.752,37.072 125.224,44.601 125.251,44.601 125.251,37.072 126.12,37.072 126.12,45.629 
	124.946,45.629 120.555,38.246 120.528,38.246 120.528,45.629 119.656,45.629 "/>
<path d="M131.776,44.625h-0.026c-0.355,0.747-1.247,1.154-2.039,1.154c-1.826,0-2.118-1.204-2.118-1.769
	c0-2.096,2.294-2.194,3.956-2.194h0.151v-0.32c0-1.067-0.392-1.605-1.46-1.605c-0.668,0-1.299,0.149-1.892,0.515v-0.747
	c0.493-0.235,1.326-0.43,1.892-0.43c1.588,0,2.252,0.699,2.252,2.328v2.761c0,0.502,0,0.887,0.067,1.314h-0.784V44.625z
	 M131.7,42.479h-0.227c-1.373,0-3.013,0.134-3.013,1.507c0,0.824,0.607,1.13,1.335,1.13c1.868,0,1.905-1.583,1.905-2.258V42.479z"/>
<path d="M137.156,40.039h-1.46v4.046c0,0.565,0.212,1.032,0.858,1.032c0.301,0,0.499-0.061,0.728-0.148l0.048,0.638
	c-0.188,0.074-0.577,0.174-0.969,0.174c-1.413,0-1.46-0.949-1.46-2.086v-3.655h-1.262v-0.666h1.262v-1.509l0.795-0.27v1.779h1.46
	V40.039z"/>
<path d="M143.593,44.157c0,0.483,0,0.969,0.047,1.473h-0.769v-1.116h-0.021c-0.266,0.565-0.748,1.264-2.077,1.264
	c-1.591,0-2.192-1.029-2.192-2.404v-4.002h0.792v3.804c0,1.18,0.43,1.94,1.521,1.94c1.449,0,1.905-1.238,1.905-2.281v-3.463h0.795
	V44.157z"/>
<path d="M145.584,40.771c0-0.684,0-0.942-0.053-1.398h0.794v1.203h0.026c0.289-0.7,0.831-1.348,1.65-1.348
	c0.191,0,0.416,0.036,0.554,0.073v0.81c-0.165-0.048-0.379-0.073-0.578-0.073c-1.262,0-1.603,1.375-1.603,2.502v3.09h-0.789V40.771z
	"/>
<path d="M153.467,44.625h-0.026c-0.355,0.747-1.245,1.154-2.039,1.154c-1.826,0-2.115-1.204-2.115-1.769
	c0-2.096,2.291-2.194,3.953-2.194h0.151v-0.32c0-1.067-0.389-1.605-1.46-1.605c-0.671,0-1.298,0.149-1.889,0.515v-0.747
	c0.484-0.235,1.326-0.43,1.889-0.43c1.588,0,2.255,0.699,2.255,2.328v2.761c0,0.502,0,0.887,0.061,1.314h-0.781V44.625z
	 M153.391,42.479h-0.227c-1.376,0-3.01,0.134-3.01,1.507c0,0.824,0.601,1.13,1.335,1.13c1.865,0,1.902-1.583,1.902-2.258V42.479z"/>
<rect x="156.077" y="36.43" width="0.792" height="9.201"/>
<path d="M162.487,37.072h2.265c1.561,0,2.581,0.646,2.581,2.219c0,1.101-0.866,1.837-1.949,1.974v0.024
	c0.705,0.087,0.853,0.454,1.133,1.029l1.497,3.312h-0.954l-1.275-2.892c-0.504-1.107-0.876-1.143-1.71-1.143h-0.719v4.035h-0.869
	V37.072z M163.356,40.862h0.917c1.021,0,2.194-0.383,2.194-1.571c0-1.399-1.021-1.486-2.218-1.486h-0.893V40.862z"/>
<path d="M173.682,45.436c-0.554,0.218-1.271,0.343-1.866,0.343c-2.126,0-2.918-1.399-2.918-3.276c0-1.913,1.083-3.273,2.707-3.273
	c1.811,0,2.556,1.422,2.556,3.102v0.394h-4.392c0,1.321,0.727,2.389,2.114,2.389c0.581,0,1.425-0.232,1.799-0.467V45.436z
	 M173.294,42.061c0-1.093-0.456-2.172-1.64-2.172c-1.168,0-1.885,1.141-1.885,2.172H173.294z"/>
<path d="M175.181,44.724c0.483,0.235,1.058,0.391,1.678,0.391c0.756,0,1.42-0.403,1.42-1.116c0-1.484-3.081-1.252-3.081-3.065
	c0-1.241,1.031-1.705,2.09-1.705c0.338,0,1.02,0.071,1.586,0.282l-0.077,0.672c-0.416-0.185-0.98-0.293-1.425-0.293
	c-0.815,0-1.383,0.245-1.383,1.045c0,1.163,3.163,1.017,3.163,3.065c0,1.324-1.274,1.779-2.245,1.779
	c-0.615,0-1.232-0.074-1.798-0.295L175.181,44.724z"/>
<path d="M183.079,39.23c2.078,0,2.996,1.568,2.996,3.273c0,1.705-0.917,3.276-2.996,3.276c-2.076,0-2.997-1.571-2.997-3.276
	C180.082,40.798,181.003,39.23,183.079,39.23 M183.079,45.116c1.388,0,2.131-1.166,2.131-2.613c0-1.45-0.744-2.613-2.131-2.613
	c-1.385,0-2.128,1.163-2.128,2.613C180.951,43.95,181.694,45.116,183.079,45.116"/>
<path d="M192.593,44.157c0,0.483,0,0.969,0.048,1.473h-0.768v-1.116h-0.024c-0.264,0.565-0.746,1.264-2.08,1.264
	c-1.586,0-2.192-1.029-2.192-2.404v-4.002h0.792v3.804c0,1.18,0.433,1.94,1.527,1.94c1.449,0,1.899-1.238,1.899-2.281v-3.463h0.798
	V44.157z"/>
<path d="M194.582,40.771c0-0.684,0-0.942-0.05-1.398h0.794v1.203h0.026c0.289-0.7,0.828-1.348,1.647-1.348
	c0.191,0,0.417,0.036,0.554,0.073v0.81c-0.165-0.048-0.373-0.073-0.578-0.073c-1.259,0-1.6,1.375-1.6,2.502v3.09h-0.792V40.771z"/>
<path d="M202.946,40.209c-0.432-0.186-0.943-0.319-1.371-0.319c-1.553,0-2.42,1.09-2.42,2.613c0,1.425,0.882,2.613,2.331,2.613
	c0.503,0,0.97-0.112,1.446-0.285l0.075,0.724c-0.541,0.186-1.046,0.223-1.65,0.223c-2.067,0-3.07-1.534-3.07-3.276
	c0-1.926,1.268-3.275,3.173-3.275c0.766,0,1.321,0.171,1.547,0.243L202.946,40.209z"/>
<path d="M208.663,45.436c-0.554,0.218-1.269,0.343-1.863,0.343c-2.128,0-2.92-1.399-2.92-3.276c0-1.913,1.085-3.273,2.71-3.273
	c1.811,0,2.554,1.422,2.554,3.102v0.394h-4.394c0,1.321,0.727,2.389,2.114,2.389c0.581,0,1.425-0.232,1.799-0.467V45.436z
	 M208.274,42.061c0-1.093-0.453-2.172-1.637-2.172c-1.174,0-1.888,1.141-1.888,2.172H208.274z"/>
<path d="M210.167,44.724c0.474,0.235,1.056,0.391,1.675,0.391c0.754,0,1.419-0.403,1.419-1.116c0-1.484-3.08-1.252-3.08-3.065
	c0-1.241,1.029-1.705,2.087-1.705c0.34,0,1.019,0.071,1.588,0.282l-0.077,0.672c-0.416-0.185-0.983-0.293-1.423-0.293
	c-0.819,0-1.385,0.245-1.385,1.045c0,1.163,3.16,1.017,3.16,3.065c0,1.324-1.271,1.779-2.245,1.779
	c-0.615,0-1.229-0.074-1.798-0.295L210.167,44.724z"/>
<path d="M36.559,22.386c-0.296-0.313-0.682-0.537-1.067-0.707l-0.034-0.091l0.69-0.611v-0.154c-0.271-0.269-0.69-0.223-1.003-0.4
	c0.02-0.038,0.046-0.074,0.073-0.108c0.204-0.242,0.595-0.364,0.65-0.689c-0.197-0.221-0.486-0.205-0.754-0.243
	c-0.182,0-0.388,0.122-0.534,0c0.195-0.353,0.628-0.528,0.719-0.918c-0.611-0.238-1.232,0.159-1.791,0.245
	c0.168-0.252,0.37-0.454,0.628-0.615c0.244-0.222,0.734-0.444,0.598-0.797c-0.604,0-1.105,0.231-1.603,0.492
	c-0.362,0.122-0.66,0.488-1.007,0.549c0.255-0.312,0.66-0.504,0.946-0.858c0.265-0.283,0.218-0.695,0.561-0.948
	c0.026-0.175,0.229-0.343,0.066-0.522c-0.852,0.208-1.606,0.828-2.17,1.503l-0.064-0.061c0.244-0.343,0.338-0.743,0.691-1.043
	c0.191-0.399,0.567-0.881,0.285-1.318c-0.843,0.246-1.266,1.15-1.764,1.748c-0.093-0.1-0.074-0.238-0.093-0.369
	c0.449-0.564,0.432-1.332,0.501-2.051c0.009-0.124-0.101-0.26-0.217-0.185c-0.499,0.36-0.63,0.911-0.852,1.41l-0.063-0.063v-1.225
	c-0.031-0.327-0.15-0.734-0.501-0.825c-0.362,0.346-0.222,0.888-0.378,1.315c-0.142,0-0.164-0.159-0.254-0.243
	c-0.046-0.046-0.157-0.046-0.187,0.028c-0.105,1.809,0.04,3.485,0.158,5.24c-0.075,0.144-0.14,0.29-0.189,0.443
	c-0.399,1.16-0.252,2.532-1.323,3.42c-0.275,0.205-0.611-0.01-0.942,0.06c-0.181-0.218-0.164-0.512-0.252-0.766
	c-0.433-1.171-1.731-1.479-2.738-1.87c-0.222-0.024-0.566-0.098-0.722,0.064c0.343,0.165,0.708,0.359,0.943,0.703l-0.063,0.061
	c-0.291-0.101-0.63-0.184-0.945-0.152c0.191,0.512,0.816,0.574,1.131,0.981c0.046,0.367,0.097,0.81-0.281,1.039
	c-0.261,0.168-0.376-0.165-0.597-0.181c-0.221-0.021-0.497,0.188-0.662-0.064c-0.078-0.635-0.99-0.934-0.786-1.684
	c-0.264-0.512-0.466-1.045-0.574-1.617c-0.048-0.256-0.078-0.527-0.085-0.804c0.197-1.585,0.974-3.208,0.409-4.842
	c-0.237,0.016-0.268,0.295-0.472,0.367l-0.063-0.06c0.016-0.49-0.019-0.958-0.094-1.409l-0.128-0.246
	c-0.282,0.147-0.47,0.482-0.533,0.795c0.155,0.736-0.023,1.487-0.034,2.239c-0.195-0.346-0.234-0.751-0.343-1.131
	c-0.198-0.408-0.275-1.02-0.786-1.136c-0.338,0.482-0.026,1.077-0.031,1.624c0.061,0.305,0.407,0.572,0.188,0.918l-0.722-0.979
	c-0.245-0.26-0.536-0.652-0.882-0.643c-0.071,0.643,0.329,1.094,0.536,1.622c0.077,0.262,0.368,0.477,0.346,0.736
	c-0.742-0.505-1.385-1.103-2.235-1.258c-0.077,0.684,0.694,1.104,1.039,1.655l-0.061,0.063c-0.426-0.184-0.838-0.398-1.229-0.643
	c-0.258-0.054-0.511-0.306-0.786-0.124c0,0.49,0.322,0.874,0.661,1.197c-0.425,0.054-0.898-0.239-1.322,0
	c0.085,0.366,0.541,0.589,0.661,0.948c-0.4,0.208-0.936,0.078-1.353,0.246c0.104,0.29,0.403,0.498,0.567,0.766l-0.093,0.091
	c-0.041,0-0.083,0.006-0.121,0.014c-0.272,0.04-0.496,0.212-0.728,0.356c0.037,0.366,0.51,0.568,0.69,0.917
	c-0.305,0.192-0.644,0.453-0.849,0.767c0.221,0.299,0.583,0.414,0.755,0.703c-0.228,0.302-0.675,0.482-0.694,0.894
	c0.222,0.242,0.584,0.255,0.852,0.455c-0.133,0.236-0.392,0.453-0.315,0.737c0.088,0.043,0.184,0.074,0.282,0.104
	c0.293,0.073,0.62,0.08,0.913,0.141c-0.103,0.245-0.182,0.498-0.219,0.764c0.235,0.302,0.748,0.171,1.07,0.246
	c-0.026,0.246-0.198,0.514-0.222,0.796c0.308,0.194,0.692,0.027,1.04,0.031c0.204-0.047,0.228,0.179,0.251,0.307
	c0.064,0.428,0.504,0.074,0.786,0.185l0.316,0.519c0.172,0.014,0.328-0.014,0.47-0.093c0.254-0.154,0.37,0.131,0.472,0.275
	c0.181,0.276,0.44,0,0.661,0c0.167,0.078,0.227,0.246,0.345,0.371c0.238,0.127,0.37-0.157,0.537-0.276
	c0.313-0.165,0.43,0.305,0.691,0.366c0.301-0.238,0.63-0.315,1.007-0.185c0.416-0.346,0.369-0.881,0.409-1.378
	c0.03-0.084,0.061-0.225,0.189-0.218c0.172,0.699,0.627,1.473,0.094,2.146c-0.343,0.241-0.641,0.615-0.972,0.915
	c-0.399,0.367-0.848,0.628-1.483,0.434c-0.473,0.406-1.336-0.068-1.697,0.521c-0.073,0.198-0.027,0.427,0.124,0.585
	c0.283,0.165,0.755,0.12,1.007,0.088c0.171,0.098,0.338,0.194,0.566,0.154c0.195-0.299,0.41-0.009,0.628,0.033
	c0.229,0.007,0.419-0.27,0.631-0.125c-0.212,0.339-0.459,0.652-0.537,1.043c-0.021,0.276,0.443,0.198,0.315,0.52
	c0.073,0.241,0.332,0.154,0.473,0.275c0.016,0.4,0.472,0.293,0.722,0.4c0.078,0.69,0.859-0.094,1.009,0.552
	c0.164,0,0.291-0.11,0.439-0.154c0.188,0.026,0.332,0.229,0.442,0.366c0.318,0.246,0.433-0.157,0.658-0.306l0.568,0.218l0.377-0.431
	c0.442,0.316,0.598-0.313,1.009-0.184c0.282,0.033,0.249-0.283,0.375-0.428c0.489,0.067,0.419-0.589,0.882-0.584
	c0.031-0.534-0.463-0.85-0.598-1.316c0.188-0.107,0.338,0.053,0.473,0.155c0.291,0.09,0.44-0.147,0.662-0.216
	c0.399,0.605,0.802-0.229,1.318-0.058c0.237-0.08,0.457-0.317,0.41-0.585c-0.057-0.124-0.135-0.283-0.282-0.307
	c-0.779,0.095-1.305-0.413-2.108-0.275l-0.402-0.373l-0.919-0.852c-0.678-0.453-0.419-1.241-0.254-1.837
	c0.016-0.094,0.118-0.246,0.254-0.184c0.306,0.413,0.134,1.07,0.628,1.44c0.151,0.085,0.315,0.112,0.439-0.033
	c0.207-0.181,0.426,0.054,0.538,0.215c0.164,0.023,0.264-0.108,0.378-0.215c0.234-0.188,0.439,0.084,0.658,0.124
	c0.118-0.091,0.211-0.246,0.313-0.37c0.191-0.108,0.318,0.101,0.474,0.154c0.289,0.085,0.298-0.343,0.502-0.49
	c0.229-0.007,0.392,0.138,0.628,0.124l0.254-0.43c0.252-0.283,0.564,0.023,0.879-0.03l0.409-0.583l0.662-0.03
	c0.172-0.186,0.164-0.444,0.154-0.705c0.332-0.206,0.798-0.1,1.167-0.215c0.026-0.279-0.142-0.569-0.254-0.827
	c0.306-0.147,0.704-0.081,1.037-0.174c0.011-0.003,0.024-0.006,0.034-0.009c0.111-0.383-0.299-0.676-0.377-0.983l0.976-0.458
	c-0.017-0.342-0.467-0.463-0.598-0.737c0.291-0.205,0.614-0.327,0.915-0.521L36.559,22.386z M20.609,17.758
	c0.019,0.461,0.13,0.921-0.093,1.318C20.588,18.64,19.864,18.028,20.609,17.758 M20.014,18.493c0.195,0.246,0.164,0.638,0.251,0.951
	C20.092,19.192,19.803,18.816,20.014,18.493 M19.541,21.371c-0.078-0.105-0.108-0.229-0.093-0.363
	c0.157-0.067,0.298,0.258,0.472,0.058c-0.04-0.296-0.433-0.396-0.537-0.673c0.229-0.151,0.45,0.323,0.598,0
	c-0.009-0.026-0.024-0.053-0.043-0.078c-0.157-0.205-0.563-0.319-0.427-0.625l0.315,0.154c0.017-0.253-0.238-0.438-0.157-0.676
	c0.211,0.131,0.336,0.406,0.501,0.613c-0.036,0.179-0.073,0.357-0.1,0.534c-0.066,0.417-0.09,0.83,0.006,1.272
	C19.864,21.596,19.706,21.475,19.541,21.371 M21.616,24.653c-0.133,0.009-0.225-0.084-0.218-0.212
	c-0.057-0.104,0.115-0.188-0.033-0.248c-0.165,0.107-0.313,0.327-0.534,0.213c-0.077-0.213,0.124-0.389,0.191-0.582
	c-0.254-0.03-0.434,0.376-0.758,0.185c-0.07-0.262,0.16-0.4,0.284-0.581c-0.251-0.142-0.442,0.135-0.692,0
	c0.016-0.225,0.403-0.299,0.598-0.461c-0.175-0.115-0.449-0.266-0.473-0.521c0.292-0.151,0.489,0.289,0.758,0.09
	c0.006-0.226-0.278-0.427-0.13-0.64c0.111,0.043,0.189,0.159,0.284,0.246c0.198-0.053,0.024-0.246,0.033-0.371
	c0.282,0.383,0.046,1.032,0.567,1.351c0.313,0.198,0.402,0.544,0.504,0.858C22.019,24.261,21.861,24.508,21.616,24.653
	 M19.669,31.482c-0.276,0.02-0.709,0.131-0.882-0.122c0.101-0.45,0.732-0.157,1.101-0.243l0.061,0.064
	C19.958,31.323,19.791,31.448,19.669,31.482 M20.769,31.457c-0.229-0.027-0.379,0.054-0.567-0.064
	c0.033-0.107,0.095-0.198,0.188-0.276c0.158-0.047,0.379-0.047,0.536,0C21.012,31.246,20.925,31.441,20.769,31.457 M29.389,31.054
	c0.244,0.04,0.59-0.098,0.722,0.127c-0.095,0.502-0.755,0.179-1.134,0.276C29.003,31.246,29.238,31.158,29.389,31.054
	 M28.288,31.054c0.165,0.024,0.376-0.053,0.504,0.063c0.006,0.145-0.158,0.268-0.285,0.307c-0.151,0.058-0.36,0.033-0.44-0.093
	C28.027,31.164,28.169,31.1,28.288,31.054 M30.111,20.671c-0.143,0.211-0.432,0.204-0.66,0.275c0.08-0.205,0.402-0.424,0.66-0.491
	C30.252,20.509,30.111,20.6,30.111,20.671 M29.922,21.129c0.013,0.29-0.329,0.152-0.47,0.275c-0.087-0.172,0.211-0.275,0.345-0.337
	C29.842,21.066,29.93,21.061,29.922,21.129 M30.078,19.872c-0.033,0.171-0.174,0.313-0.333,0.443
	c-0.121,0.09-0.254,0.178-0.356,0.26c-0.03-0.088-0.019-0.179,0.017-0.26c0.095-0.226,0.363-0.43,0.547-0.625
	C30.056,19.675,30.105,19.79,30.078,19.872 M29.892,19.138c-0.038,0.292-0.299,0.566-0.503,0.825h-0.033
	C29.379,19.668,29.648,19.336,29.892,19.138 M29.043,18.126c0.178,0.007,0.162,0.208,0.252,0.305
	c-0.074,0.255-0.262,0.538-0.128,0.797c0.174-0.105,0.157-0.399,0.376-0.458c-0.028,0.33-0.154,0.689-0.376,0.981
	C28.932,19.282,28.947,18.649,29.043,18.126 M27.973,23.241c0.416-0.397,0.407-0.969,0.661-1.437c0.054,0.135-0.12,0.26,0.03,0.367
	c0.175-0.017,0.175-0.232,0.379-0.184c0.155,0.323-0.523,0.443-0.222,0.673c0.177-0.06,0.377-0.252,0.568-0.09
	c-0.01,0.253-0.346,0.253-0.412,0.458c0.276,0.013,0.537,0.114,0.692,0.337c0.048,0.124-0.093,0.165-0.19,0.149
	c-0.234,0.048-0.477-0.087-0.66,0c0.144,0.241,0.511,0.279,0.474,0.616c-0.323,0.121-0.53-0.206-0.819-0.243
	c-0.078,0.219,0.299,0.336,0.251,0.582c-0.289,0.09-0.5-0.195-0.725-0.305c-0.051,0.141,0.05,0.296,0.125,0.426
	c-0.227,0.108-0.454-0.056-0.564-0.246C27.249,23.91,27.838,23.61,27.973,23.241 M24.292,22.048
	c0.063,0.024,0.188-0.057,0.188,0.061c0.009,0.061-0.009,0.162-0.095,0.122h-0.093V22.048z M23.661,22.386
	c-0.218-0.014-0.39-0.132-0.564-0.243c0.214-0.102,0.524,0.205,0.721-0.033c0.041-0.315-0.281-0.481-0.47-0.706
	c0.313-0.016,0.55,0.216,0.533,0.522C23.81,22.081,23.924,22.363,23.661,22.386 M22.086,30.162c0.011-0.01,0.021-0.016,0.036-0.024
	c0.486,0.115,1.269-1.106,1.321,0.024v0.009c-0.336,0.686-1.219,0.596-1.92,0.549C21.561,30.508,21.871,30.317,22.086,30.162
	 M21.522,31.457c-0.023-0.158,0.143-0.262,0.252-0.34c0.128-0.047,0.315-0.047,0.44,0C22.034,31.216,21.854,31.667,21.522,31.457
	 M21.774,32.157c0.048-0.426,0.606-0.633,0.915-0.945l0.627-0.431c-0.4,0.518-0.989,0.858-1.447,1.376H21.774z M22.089,32.651
	h-0.063c0.197-0.629,0.912-1.074,1.385-1.566C23.229,31.675,22.38,32.042,22.089,32.651 M22.625,32.985
	c-0.054,0.024-0.088-0.033-0.125-0.061c0.355-0.642,0.771-1.318,1.289-1.839C23.568,31.781,22.947,32.328,22.625,32.985
	 M23.316,33.352c-0.095,0.087-0.209-0.037-0.252-0.122c0.175-0.774,0.628-1.432,0.946-2.145
	C23.944,31.867,23.545,32.594,23.316,33.352 M23.88,33.385h-0.091c-0.04-0.76,0.275-1.402,0.503-2.025
	C24.3,32.022,24.629,32.953,23.88,33.385 M24.609,31.36h0.091c0.266,0.632,0.393,1.349,0.379,2.054
	C24.149,33.034,24.725,32.022,24.609,31.36 M25.739,33.324c-0.212-0.73-0.694-1.348-0.819-2.112h0.064
	c0.268,0.647,0.793,1.198,0.944,1.897C25.96,33.217,25.826,33.347,25.739,33.324 M26.524,33.109
	c-0.373-0.707-1.194-1.319-1.319-2.116l1.382,1.901C26.572,32.97,26.628,33.071,26.524,33.109 M26.997,32.894
	c-0.541-0.737-1.195-1.351-1.667-2.113h0.095c0.644,0.612,1.123,1.211,1.665,1.87C27.098,32.746,27.091,32.839,26.997,32.894
	 M27.313,32.312c-0.574-0.43-1.063-1.013-1.543-1.531c0.576,0.4,1.04,0.925,1.543,1.437V32.312z M27.437,31.457
	c-0.295,0.112-0.503-0.186-0.722-0.34c0.227-0.067,0.694-0.145,0.882,0.064C27.563,31.279,27.547,31.384,27.437,31.457
	 M26.715,29.861c0.124,0.095,0.242,0.194,0.362,0.3c0.175,0.152,0.345,0.317,0.486,0.498c-0.651-0.058-1.557,0.312-1.953-0.431
	l0.027-0.067l0.229-0.672C26.094,29.752,26.431,29.736,26.715,29.861 M25.752,25.245c0.048,0.629,0.218,1.244,0.49,1.766
	l-0.124,0.767c-0.419-0.06-0.12,0.431-0.252,0.613c-0.088,0.359-0.309,0.667-0.504,0.979l0.157,0.091
	c-0.076,0.235-0.162,0.474-0.275,0.7c-0.161,0.334-0.377,0.645-0.699,0.892c-0.362-0.212-0.591-0.538-0.759-0.892
	c-0.117-0.258-0.205-0.529-0.279-0.791h0.219c-0.041-0.306-0.276-0.612-0.409-0.921c-0.158-0.235,0.204-0.709-0.191-0.703
	l-0.061,0.061c-0.503-0.889,0.127-1.679,0.328-2.563c0.043-0.192,0.064-0.388,0.051-0.592c0.085-0.199-0.204-0.554,0.188-0.521
	c0.551,0.013,1.029-0.27,1.319-0.736c0.167-0.245,0.039-0.66,0.35-0.796c0.429,0.188,0.588,0.657,0.595,1.101
	c-0.14,0.491-0.182,1.018-0.144,1.537V25.245z"/>
</svg>
