<?xml version="1.0" encoding="utf-8"?>
<!-- Generator: Adobe Illustrator 18.0.0, SVG Export Plug-In . SVG Version: 6.00 Build 0)  -->
<!DOCTYPE svg PUBLIC "-//W3C//DTD SVG 1.1//EN" "http://www.w3.org/Graphics/SVG/1.1/DTD/svg11.dtd">
<svg version="1.1" id="Layer_1" xmlns="http://www.w3.org/2000/svg" xmlns:xlink="http://www.w3.org/1999/xlink" x="0px" y="0px"
	 width="68px" height="72px" viewBox="0 0 68 72" enable-background="new 0 0 68 72" xml:space="preserve">
<path fill="#FFFFFF" d="M48.961,71.924h0.596v-4.641h-0.596V71.924z M53.352,69.996l0.447-1.341
	c0.089-0.283,0.163-0.572,0.224-0.841h0.021c0.067,0.269,0.135,0.545,0.229,0.847l0.453,1.335H53.352z M54.409,67.283h-0.711
	l-1.549,4.641h0.609l0.474-1.46h1.616l0.487,1.46h0.629L54.409,67.283z M26.341,67.793h1.386v4.131h0.596v-4.131h1.394v-0.51h-3.375
	V67.793z M44.523,67.283h-0.596v4.641h2.544v-0.502h-1.948V67.283z M38.744,69.996l0.447-1.341c0.087-0.283,0.162-0.572,0.223-0.841
	h0.021c0.067,0.269,0.135,0.545,0.229,0.847l0.453,1.335H38.744z M39.088,67.283l-1.549,4.641h0.609l0.474-1.46h1.616l0.487,1.46
	h0.629l-1.556-4.641H39.088z M33.458,69.459h-0.601v-1.686c0.101-0.027,0.297-0.055,0.58-0.055c0.623,0,1.049,0.261,1.049,0.861
	C34.486,69.109,34.088,69.459,33.458,69.459 M34.224,69.714v-0.021c0.473-0.165,0.859-0.572,0.859-1.177
	c0-0.364-0.135-0.682-0.359-0.882c-0.284-0.261-0.697-0.385-1.325-0.385c-0.4,0-0.833,0.04-1.131,0.103v4.571h0.589v-2.011h0.554
	c0.535,0.021,0.785,0.261,0.92,0.902c0.122,0.578,0.224,0.971,0.298,1.108h0.609c-0.087-0.179-0.197-0.627-0.345-1.273
	C34.778,70.168,34.568,69.839,34.224,69.714 M22.848,69.294c-0.628-0.248-0.905-0.462-0.905-0.887c0-0.318,0.236-0.696,0.859-0.696
	c0.412,0,0.716,0.131,0.859,0.22l0.163-0.496c-0.197-0.111-0.541-0.22-1.001-0.22c-0.887,0-1.477,0.537-1.477,1.26
	c0,0.646,0.461,1.047,1.206,1.308c0.615,0.234,0.859,0.489,0.859,0.923c0,0.467-0.352,0.784-0.955,0.784
	c-0.405,0-0.785-0.13-1.048-0.296l-0.157,0.496c0.243,0.166,0.724,0.304,1.164,0.304c1.075,0,1.59-0.627,1.59-1.336
	C24.006,69.975,23.62,69.603,22.848,69.294 M17.956,70.037c0,1.02-0.44,1.474-1.11,1.474c-0.609,0-1.062-0.44-1.062-1.474v-2.754
	h-0.596v2.734c0,1.446,0.703,1.982,1.637,1.982c0.988,0,1.725-0.578,1.725-2.004v-2.712h-0.594V70.037z M10.208,69.996l0.447-1.341
	c0.087-0.283,0.162-0.572,0.223-0.841h0.021c0.067,0.269,0.135,0.545,0.229,0.847l0.453,1.335H10.208z M10.553,67.283l-1.549,4.641
	h0.609l0.473-1.46h1.618l0.487,1.46h0.629l-1.557-4.641H10.553z M11.809,63.043c-1.089,0-2.149-0.342-2.805-0.685l-0.545,2.43
	c0.609,0.326,1.875,0.668,3.174,0.668c3.158,0,4.599-1.614,4.599-3.505c0-1.533-0.865-2.577-2.804-3.31
	c-1.363-0.523-1.94-0.734-1.94-1.289c0-0.489,0.482-0.815,1.363-0.815c1.075,0,1.875,0.309,2.34,0.521l0.609-2.363
	c-0.705-0.31-1.634-0.555-2.917-0.555c-2.725,0-4.344,1.5-4.344,3.44c0,1.631,1.219,2.642,3.045,3.31
	c1.219,0.425,1.699,0.718,1.699,1.256C13.283,62.701,12.802,63.043,11.809,63.043 M34.344,60.548c0,1.744-0.562,2.594-1.716,2.594
	c-1.139,0-1.699-0.929-1.699-2.594v-6.243h-2.9v5.999c0,3.522,1.57,5.17,4.519,5.17c3.029,0,4.696-1.713,4.696-5.104v-6.064h-2.9
	V60.548z M22.071,63.142h-0.034c-1.394,0-2.26-1.371-2.243-3.343c0-1.908,0.85-3.342,2.243-3.342c1.412,0,2.245,1.434,2.245,3.325
	C24.282,61.771,23.464,63.142,22.071,63.142 M22.102,54.126c-3.317,0-5.37,2.542-5.37,5.739c0,3.048,1.843,5.609,5.194,5.609h0.017
	c3.317,0,5.401-2.251,5.401-5.788C27.343,56.749,25.581,54.126,22.102,54.126 M46.179,54.305h-8.463v2.478h2.757v8.51h2.9v-8.51
	h2.805V54.305z M49.552,65.293v-4.337h3.51v4.337h2.901V54.305h-2.901v4.076h-3.51v-4.076h-2.9v10.988"/>
<polygon fill="#FFFFFF" points="68,25.1 30.265,1.115 0,20.35 9.003,48.533 24.124,38.922 24.125,38.922 24.125,22.721 
	43.876,22.721 43.876,46.634 55.965,51.355 "/>
<polygon fill="#FFFFFF" points="42.324,24.299 25.677,24.299 25.677,39.528 26.667,39.914 26.667,26.557 38.774,26.557 
	38.774,44.642 42.324,46.027 "/>
<polygon fill="#FFFFFF" points="28.219,28.135 28.219,30.393 34.337,30.393 34.337,42.91 37.222,44.036 37.222,28.135 "/>
<polygon opacity="0.8" fill="#FFFFFF" points="55.965,0 49.027,13.04 68,25.101 "/>
</svg>
