<?xml version="1.0" encoding="utf-8"?>
<!-- Generator: Adobe Illustrator 19.0.0, SVG Export Plug-In . SVG Version: 6.00 Build 0)  -->
<svg version="1.1" id="Layer_1" xmlns="http://www.w3.org/2000/svg" xmlns:xlink="http://www.w3.org/1999/xlink" x="0px" y="0px"
	 width="560.8px" height="317.8px" viewBox="290.4 -133.8 560.8 317.8" style="enable-background:new 290.4 -133.8 560.8 317.8;"
	 xml:space="preserve">
<style type="text/css">
	.st0{fill:#002856;}
	.st1{fill:#3E577D;}
</style>
<g>
	<g>
		<path class="st0" d="M361.1-86.9c0-5.6,2.4-8.5,7.7-8.8l0.6,0.3c6.5,0,10.6,0.9,12.1,2.4c1.8,1.8,2.7,5.9,2.7,12.4
			c-0.3,33.9-0.3,51.3-0.3,52.5c-0.3,4.4-0.3,10.6,0,18c0,9.1,0.3,15.3,0.3,18c0,13.6-2.1,24.5-5.6,32.1
			c-5,10.3-12.7,16.8-23.3,19.5c-11.8,2.9-28.3,2.4-49.2-1.8c-5-0.9-8-2.9-8.8-5.9c-1.5-6.2-1.2-11.2,0.9-15
			c1.2-2.4,3.5-3.2,6.5-2.7c3.8,0.6,11.2,2.1,21.2,4.1c10.9,2.1,19.2,0,25-6.2c2.4-2.4,3.8-4.4,4.1-6.5c2.1-9.1,2.7-16.5,1.8-22.1
			c-10.9,5-16.5,7.7-17.4,8c-10.6,4.1-20.3,2.9-29.2-3.5c-9.7-7.1-16.2-17.4-18.9-30.6c-1.2-6.2-1.2-14.7,0.3-25
			c1.5-11.2,3.8-20.3,6.8-27.7c3.8-8.5,10.9-14.4,21.2-17.4c15.3-4.4,27.7-0.6,37.7,11.2l3.5,3.5L361.1-86.9L361.1-86.9L361.1-86.9z
			 M321.3-20.9c3.5,13.3,11.8,17.1,24.8,10.9c5-2.4,8-5.9,8.8-10.9c1.2-5.6,2.4-13.6,3.5-24.2c0.9-8.5-1.8-16.5-8.5-24.2
			c-5.3-6.2-10.9-8.3-17.1-6.5c-5.9,1.5-9.7,5.3-11.2,11.5c0,0.9-1.2,7.4-3.5,19.5C320.4-29.8,321.3-21.8,321.3-20.9z"/>
	</g>
	<g>
		<path class="st0" d="M407.7,0.3c-7.1-5.9-11.2-13-12.7-21.5c-1.8-9.4-2.9-15.6-3.2-19.2c-1.5-11.8-0.3-21.8,3.5-30.4
			c5.3-11.2,14.1-18.3,26.5-20.6c8.3-1.5,15.3-2.1,20.6-1.2c2.7,0.3,4.1,0.6,4.7,0.6c7.7,3.5,14.1,8.3,18.9,14.1
			c0.9,1.2,2.1,4.1,3.8,8.8c3.8,10.6,5.6,18,5.3,22.1c0,9.7-2.1,18.6-5.6,27.1c-2.4,4.7-4.4,9.1-6.5,13.3
			c-3.5,5.9-8.5,9.7-15.6,11.5c-0.9,0-6.8,1.2-17.4,2.7C422.1,8.6,414.7,5.9,407.7,0.3z M448.6-53c-1.5-8-4.4-14.1-9.1-18
			c-5.9-5.3-10.9-5.6-15.3-0.9c-2.4,2.4-3.8,4.4-4.7,6.2c-6.2,15.3-7.1,29.8-2.7,42.7c0.9,2.4,2.1,4.7,3.8,6.8
			c3.8,4.4,8.3,6.5,13.6,5.6c5.6-0.9,9.4-3.8,11.8-9.1c2.4-5.9,3.8-13.6,4.1-22.7C449.2-48.9,448.6-52.7,448.6-53z"/>
		<path class="st0" d="M496.1,0.3c-7.1-5.9-11.2-13-12.7-21.5c-1.8-9.4-2.9-15.6-3.2-19.2c-1.5-11.8-0.3-21.8,3.5-30.4
			c5.3-11.2,14.1-18.3,26.5-20.6c8.3-1.5,15.3-2.1,20.6-1.2c2.7,0.3,4.1,0.6,4.7,0.6c7.7,3.5,14.1,8.3,18.9,14.1
			c0.9,1.2,2.1,4.1,3.8,8.8c3.8,10.6,5.6,18,5.3,22.1c0,9.7-2.1,18.6-5.6,27.1c-2.4,4.7-4.4,9.1-6.5,13.3
			c-3.5,5.9-8.5,9.7-15.6,11.5c-0.9,0-6.8,1.2-17.4,2.7C510.2,8.6,503.2,5.9,496.1,0.3z M537-53c-1.5-8-4.4-14.1-9.1-18
			c-5.9-5.3-10.9-5.6-15.3-0.9c-2.4,2.4-3.8,4.4-4.7,6.2c-6.2,15.3-7.1,29.8-2.7,42.7c0.9,2.4,2.1,4.7,3.8,6.8
			c3.8,4.4,8.3,6.5,13.6,5.6c5.6-0.9,9.4-3.8,11.8-9.1c2.4-5.9,3.8-13.6,4.1-22.7C537.6-48.9,537-52.7,537-53z"/>
		<path class="st0" d="M625.2-109.3c0-7.1,0-13.6,0.3-18.9c0-3.5,2.1-5.6,5.6-5.6c2.9,0,6.8,0,11.5,0.3c2.9,0.3,4.7,1.8,5.3,4.7
			c0.3,2.7,0.6,3.8,0.6,3.8c0,48.3-0.3,72.5-0.3,72.8c0,30.9,0.3,47.4,0.6,48.9C649-1.5,649,0,649,0.9c-0.3,2.9-1.8,4.1-4.4,3.8
			c-5-0.3-8.8-0.9-11.5-1.2c-3.8-0.6-5.9-3.5-6.5-8.8c-6.8,4.1-10.3,6.5-10.6,6.8c-8.3,5-17.1,5-26.5-0.3c-13-7.4-20-18.3-21.2-32.4
			c-1.2-12.7-0.6-23.6,1.8-31.8c1.5-5.3,4.4-11.8,9.4-19.5c2.7-3.8,7.1-6.8,13.6-8.3c6.8-1.8,12.7-1.5,17.1,1.5
			c0.6,0.3,5.6,3.5,15,10L625.2-109.3L625.2-109.3L625.2-109.3z M593-47.4v5.3c0,8.5,1.2,15.9,3.8,22.4c3.5,8.5,9.4,10,17.1,4.7
			c5.3-3.8,8.5-8.8,9.4-15c0.3-2.1,0.9-8.8,1.5-20.3c0.3-8-2.4-15-8.3-20.6c-8.3-8.3-14.7-7.7-19.5,1.8c-1.5,3.2-2.7,6.2-3.2,8.8
			C593.6-59.5,593.3-55.4,593-47.4L593-47.4L593-47.4z"/>
	</g>
	<g>
		<path class="st1" d="M827.6,44.8l-3.5-3.5c-10-11.8-22.4-15.6-37.7-11.2C776,33,769,38.9,765.1,47.5c-3.2,7.4-5.3,16.5-6.8,27.7
			c-1.5,10.6-1.5,18.9-0.3,25c2.9,13.3,9.1,23.6,18.9,30.6c8.8,6.5,18.6,7.7,29.2,3.5c0.6-0.3,6.5-2.9,17.4-8c0.6,5.6,0,13-1.8,22.1
			c-0.3,1.8-1.8,3.8-4.1,6.5c-5.9,6.2-14.1,8.3-25,6.2c-10.3-2.1-17.4-3.2-21.2-4.1c-3.2-0.6-5.3,0.3-6.5,2.7
			c-2.1,3.8-2.4,9.1-0.9,15c0.6,2.9,3.5,5,8.8,5.9c20.9,3.8,37.4,4.4,49.2,1.8c10.6-2.7,18.3-9.1,23.3-19.5
			c3.8-7.7,5.6-18.6,5.9-32.1c0-2.9,0-8.8-0.3-18c-0.3-7.7-0.3-13.6,0-18c0-0.9,0-18.6,0.3-52.5c0-6.5-0.9-10.6-2.7-12.4
			c-1.5-1.5-5.6-2.4-12.1-2.4l-0.6-0.3c-5.3,0.3-7.7,3.2-7.7,8.8L827.6,44.8L827.6,44.8z M785.2,78.4c2.1-12.1,3.2-18.9,3.5-19.5
			c1.5-6.2,5.3-10,11.2-11.5c6.2-1.8,12.1,0.6,17.1,6.5c6.8,7.7,9.4,15.6,8.5,24.2c-1.2,10.6-2.4,18.6-3.5,24.2
			c-0.9,5-4.1,8.5-8.8,10.9c-13.3,6.2-21.5,2.4-25-10.9C788.1,101.4,786.9,93.7,785.2,78.4 M669.1,61c0,6.5-0.3,15.6-0.9,27.1
			c-0.3,13-0.6,21.8-0.6,27.1c-0.3,8.5,3.8,13,12.7,13.3c0,0,0.9,0,2.7-0.3c5.3-0.6,8.3-3.5,8-8.8c0-3.2,0-9.1-0.3-17.4
			c-0.3-7.4-0.3-13-0.3-17.4c0-5.6,0.3-12.7,1.2-21.2c0.6-5.3,3.8-9.4,9.7-12.4c11.5-5.3,17.7-1.8,19.2,9.7
			c0.6,6.8,1.2,17.1,1.5,30.9c0,0.6,0,9.4-0.3,26.8c0,3.8,1.5,6.2,4.7,7.1c4.1,0.9,7.1,1.5,8.8,1.8c5,0.3,8-2.1,8.8-7.1
			c0.3-1.8,0.3-4.7,0.3-9.1c0-16.5,0-28.9-0.3-37.1c0-10.6-1.8-19.5-4.7-26.8c-4.1-9.4-11.2-15-20.9-16.5
			c-9.7-1.5-17.4,0.9-23.6,7.7c0,0-1.2,1.2-3.8,3.2c-0.9-3.2-1.5-5-1.5-5.3c-1.2-3.2-3.2-4.7-6.2-4.7c-0.9,0-5.6,0.3-14.1,0.6
			L669.1,61L669.1,61z M627.8,32.1c-0.6,4.1-0.9,6.5-0.9,6.8c0,2.1,0.3,5.9,0.9,11.8c0.3,5,0.3,8.8,0.6,11.8
			c0.3,18.6,0.6,35.4,0.6,50.4c0,10.3,5,15.3,15.3,14.7c2.9-0.3,5.3-2.1,6.8-5.6c0,0,0-3.5,0-10.3c0-16.2-0.3-25.6-0.3-27.7
			c0,3.8,0-9.7,0.3-41c0-5.3-1.2-8.8-3.8-10.9L627.8,32.1L627.8,32.1z M577.7,100.8c-1.2-2.7-2.1-4.1-2.1-4.1
			c-4.4-13.9-7.1-22.4-8-25.9c-2.4-8.5-5.6-20-9.1-34.2c-0.9-2.9-2.7-4.4-5.6-4.4c-7.1,0-10.9-0.3-11.5-0.3c-4.4,0-6.2,2.4-5,6.8
			c2.4,9.4,5,18.6,7.7,27.4c1.2,3.5,2.7,8.5,4.7,14.7c2.4,6.8,3.8,11.5,4.7,14.7c0.9,2.9,2.4,7.1,3.8,12.4c1.5,6.2,2.7,10,3.5,12.4
			c1.5,4.7,4.4,7.1,9.1,7.1l12.7,0.3c4.1,0.3,7.1-1.5,8.8-5.6c0.3-0.9,1.5-4.4,3.5-11.2c6.2-19.5,9.1-29.8,9.7-30.6
			c1.5-4.7,3.8-11.2,6.8-19.5c3.2-9.7,5.6-16.2,6.8-19.5c1.5-4.1,0.6-6.8-2.4-7.4c-6.2-1.2-11.5-0.9-16.5,1.5
			c-0.6,0.3-1.2,1.2-1.8,2.9c-1.2,3.5-2.7,8-4.1,13.3c-2.7,8.3-6.5,20.6-11.5,37.1l-0.3,0.3C581.2,88.7,580.1,92.5,577.7,100.8
			 M504,32.1c-0.6,4.1-0.9,6.5-0.9,6.8c0,2.1,0.3,5.9,0.9,11.8c0.3,5,0.3,8.8,0.6,11.8c0.3,18.6,0.6,35.4,0.9,50.4
			c0,10.3,5,15.3,15.3,14.7c2.9-0.3,5.3-2.1,6.8-5.6c0,0,0-3.5,0-10.3c0-16.2-0.3-25.6-0.3-27.7c0,3.8,0-9.7,0.3-41
			c0-5.3-1.2-8.8-3.8-10.9L504,32.1L504,32.1z M463.1,57.2V84c0-1.5,0,10.3-0.3,34.8c0,4.7,1.8,7.4,5.9,8c3.5,0.6,7.1,0.6,10.3,0.3
			c4.1-0.6,6.2-2.7,6.2-6.8c0.3-13.3,0.6-25.9,0.6-37.7c0-3.5,0.3-14.7,0.6-60.4V10.6c-0.3-3.8-2.4-6.2-6.5-6.8
			c-0.6,0-3.5-0.3-9.1-0.9c-5-0.3-7.4,1.8-7.4,6.8c0,2.1,0,5,0.3,9.1c0,4.1,0.3,7.1,0.3,9.1v29.5L463.1,57.2L463.1,57.2L463.1,57.2z
			"/>
	</g>
</g>
<g>
	<g>
		<path class="st0" d="M307.2,179.7c-3,0.3-5.5-1-7.6-3.7c-1.4-1.8-2.4-4.2-3-7.1c-0.8-4.4-0.3-8.6,1.6-12.7c0.9-2,2.3-3.7,4.1-5.2
			c0.2-0.1,0.4-0.3,0.5-0.3c2.7-1.4,5.4-1.8,8-1.2c0.6,0.1,1,0.4,1.4,0.7c0.2,0.2,0.3,0.5,0.2,0.7c-0.1,0.3-0.3,0.3-0.6,0.2
			c-0.6-0.2-1.7-0.4-3.2-0.4c-1.3,0-2.7,0.2-4,0.8c-1.5,0.7-2.8,1.8-3.9,3.4c-2.1,3.1-3,6.7-2.9,10.6c0.1,2.6,0.7,4.9,1.6,6.9
			c0.8,1.8,2,3.2,3.5,4.4c1.1,0.9,2.3,1.3,3.6,1.2c0.9,0,1.7,0,2.2-0.1c1.1-0.1,2-0.3,2.6-0.6c0.4-0.2,0.8-0.3,1.1-0.2
			c0.7,0.2,0.8,0.6,0.3,1.2c-0.2,0.2-0.4,0.3-0.7,0.5c-1,0.6-2.3,0.9-3.8,0.9L307.2,179.7z"/>
		<path class="st0" d="M317.8,162.6c0.6-2.8,2.4-4.5,5.3-5.1c1.6-0.3,3,0.1,4.5,1.4c1.4,1.2,2.4,2.6,2.8,4c0.4,1.4,0.6,2.8,0.7,4.3
			c0.1,2.5-0.1,4.6-0.5,6.2c-0.3,1.2-0.6,2-0.8,2.7c-0.8,2.1-2.4,3.4-4.8,4c-1.6,0.4-3.1-0.1-4.7-1.3c-1.4-1.1-2.3-2.8-2.7-5.2
			c-0.4-2-0.5-3.7-0.4-5.2C317.3,165.5,317.5,163.6,317.8,162.6z M329.6,166.2c0-1.6-0.4-3.1-1.3-4.5c-1.6-2.5-3.6-3.4-6-2.5
			c-0.7,0.3-1.3,0.6-1.8,1.1c-0.8,0.8-1.4,2-1.6,3.6c-0.4,3-0.5,5.5-0.3,7.7c0.2,1.3,0.5,2.5,0.9,3.6c0.6,1.3,1.4,2.3,2.5,2.9
			c3,1.5,5.1,0.7,6.3-2.5c1-2.5,1.4-4.9,1.3-7.4L329.6,166.2z"/>
		<path class="st0" d="M340.2,158.6c1.9-1.3,3.8-1.5,5.8-0.6c0.7,0.3,1.2,0.8,1.5,1.6c0.8,1.9,1.2,3.6,1.3,5.1l0,3.9
			c0,1.6,0,2.8,0,3.8c0,0.3,0,0.8,0,1.3c0.1,0.7,0.1,1.1,0.1,1.3c0.1,1.9,0.1,2.9,0.2,3.1c0.1,0.4,0.1,0.8,0,1.2
			c0,0.2-0.2,0.5-0.4,0.8c-0.3,0.4-0.6,0.3-0.8-0.2c-0.1-0.3-0.2-0.6-0.2-0.8c-0.1-1.4-0.1-2.7-0.1-3.7c0-1-0.1-2.5-0.1-4.7
			c0-2-0.1-3.5-0.1-4.7c0-2-0.4-3.8-1-5.2c-0.5-1.1-1.2-1.7-2.4-1.8c-0.8-0.1-1.5,0-2.3,0.4c-1.9,0.9-3.1,2.1-3.6,3.8
			c-0.1,0.4-0.2,1-0.2,1.6c0,4.2,0,7.3,0,9.5c0-0.9,0,0.6,0.2,4.6c0,0.4,0,0.9-0.1,1.3c0,0.1-0.2,0.3-0.4,0.4
			c-0.3,0.1-0.5,0-0.6-0.3c-0.2-0.6-0.3-1-0.3-1.4c-0.2-1.5-0.3-4.5-0.3-9.1c0-1.3,0-4.2,0-8.6l0-1.6c0-0.7,0-1.2,0-1.6
			c0-0.2,0-0.5,0.1-0.8c0.1-0.4,0.3-0.4,0.6-0.2c0.3,0.2,0.5,0.6,0.5,1.2c0,0.1,0.1,0.9,0.2,2.3
			C339.3,159.3,340.1,158.7,340.2,158.6z"/>
		<path class="st0" d="M358.8,158.6c1.9-1.3,3.8-1.5,5.8-0.6c0.7,0.3,1.2,0.8,1.5,1.6c0.8,1.9,1.2,3.6,1.3,5.1l0,3.9
			c0,1.6,0,2.8,0,3.8c0,0.3,0,0.8,0,1.3c0.1,0.7,0.1,1.1,0.1,1.3c0.1,1.9,0.1,2.9,0.2,3.1c0.1,0.4,0.1,0.8,0,1.2
			c0,0.2-0.2,0.5-0.4,0.8c-0.3,0.4-0.6,0.3-0.8-0.2c-0.1-0.3-0.2-0.6-0.2-0.8c-0.1-1.4-0.1-2.7-0.1-3.7c0-1-0.1-2.5-0.1-4.7
			c0-2-0.1-3.5-0.1-4.7c0-2-0.4-3.8-1-5.2c-0.5-1.1-1.2-1.7-2.4-1.8c-0.8-0.1-1.5,0-2.3,0.4c-1.9,0.9-3.1,2.1-3.6,3.8
			c-0.1,0.4-0.2,1-0.2,1.6c0,4.2,0,7.3,0,9.5c0-0.9,0,0.6,0.2,4.6c0,0.4,0,0.9-0.1,1.3c0,0.1-0.2,0.3-0.4,0.4
			c-0.3,0.1-0.5,0-0.6-0.3c-0.2-0.6-0.3-1-0.3-1.4c-0.2-1.5-0.3-4.5-0.3-9.1c0-1.3,0-4.2,0-8.6l0-1.6c0-0.7,0-1.2,0-1.6
			c0-0.2,0-0.5,0.1-0.8c0.1-0.4,0.3-0.4,0.6-0.2c0.3,0.2,0.5,0.6,0.5,1.2c0,0.1,0.1,0.9,0.2,2.3C358,159.3,358.7,158.7,358.8,158.6z
			"/>
		<path class="st0" d="M384.7,161.4c0.6,1.5,0.8,3,0.6,4.4c-0.2,1-0.3,1.6-0.3,1.8c-0.1,0.7-0.6,1.2-1.4,1.2
			c-0.9,0.1-1.6,0.1-1.9,0.1c-0.8,0-1.7,0-3,0c-1.5,0.1-2.5,0.1-3,0.1c-0.1,0-0.5,0.1-1.4,0.2c-0.2,1.3-0.1,2.4,0.3,3.3
			c0.7,1.8,1.3,3,2,3.7c0.6,0.7,1.4,1.2,2.4,1.5c1.7,0.5,3.2,0.3,4.5-0.5c0.5-0.3,0.9-0.1,1.4,0.4c-0.3,0.6-0.8,1-1.4,1.3
			c-4.2,1.8-7.3,0.6-9.3-3.7c-0.8-1.6-1.2-3.3-1.2-5c0-0.1,0-0.4-0.1-0.8v0c0,0.8,0.1,0.2,0.2-1.9c0.1-0.4,0.1-0.6,0.1-0.8
			c0-1.8,0.5-3.6,1.7-5.3c1.1-2,2.8-3,5-3.2c0.3,0,0.6,0,0.8,0.1c1.3,0.4,2.3,0.9,3,1.5C384.1,160.4,384.5,160.9,384.7,161.4z
			 M383.8,167.2c0.5-1.7,0.5-3.4-0.2-5.1c-0.1-0.4-0.3-0.7-0.6-0.8c-1-0.9-2.2-1.4-3.3-1.4c-1.6,0-2.8,0.7-3.7,2.1
			c-0.7,1.1-1.2,2.3-1.4,3.6c-0.2,1.1-0.3,1.8-0.2,2.1c2.9-0.1,4.4-0.1,4.7-0.2C383,167.1,384.5,167,383.8,167.2z"/>
		<path class="st0" d="M400.7,159.5c-0.2-0.1-0.3-0.1-0.4-0.1c-1.6-0.7-3.5-0.5-5.6,0.5c-0.3,0.1-0.7,0.4-1.1,0.8
			c-0.9,1-1.5,2.3-1.8,4c-0.3,1.8-0.5,3.2-0.5,4c0,2.5,0.4,4.6,1.3,6.2c1,1.8,2.6,3,4.8,3.6c1.3,0.4,2.4,0.3,3.5,0
			c0.5-0.2,0.9-0.1,1.3,0.2c0.1,0.5-0.1,0.9-0.5,1.1c-0.5,0.2-0.9,0.4-1.2,0.4c-3.5,0.4-6.4-0.9-8.6-3.7c-0.6-0.7-1-1.8-1.4-3.2
			c-0.7-3-0.7-6,0.1-9.1c0.4-1.5,0.9-2.6,1.5-3.5c0.6-0.8,1.2-1.4,1.9-1.8c2.6-1.5,5.2-1.5,7.6,0
			C401.4,159.3,401.2,159.6,400.7,159.5z"/>
		<path class="st0" d="M411.6,158c0.8,0,1.3,0,1.4,0c0.3,0.1,0.5,0.2,0.7,0.4c0.2,0.2,0.3,0.4,0.2,0.7c-0.1,0.3-0.3,0.4-0.5,0.4
			c-0.1,0-0.7,0-2,0c-0.1,0-0.6,0-1.4,0c-0.3,0.9-0.4,2.2-0.3,4c0.1,4,0.2,6.2,0.2,6.5c0,2.6,0.1,4.4,0.3,5.5
			c0.1,0.8,0.3,1.4,0.4,1.9c0.3,0.8,0.9,1.2,1.7,1.1c0.7-0.1,0.9-0.1,0.7-0.1c0.3,0,0.4,0.1,0.5,0.2c0.1,0.3,0.1,0.5,0,0.7
			c-0.3,0.3-0.5,0.5-0.8,0.6c-1.6,0.4-2.7-0.2-3.4-1.6c-0.4-0.8-0.6-1.7-0.7-2.7c-0.1-1.1-0.2-3.6-0.3-7.6c0-0.6-0.1-1.5-0.1-2.6
			c-0.1-1.2-0.1-2.1-0.1-2.6c0-0.1,0-1.1,0-3c-0.5-0.1-0.7-0.2-0.7-0.2c-0.2,0-0.6-0.1-1.1-0.1c-0.5,0-0.9-0.1-1.1-0.1
			c-0.7-0.1-0.8-0.5-0.5-1.4c3-0.2,4.1-0.2,3.5,0c0.3-0.7,0.4-1.7,0.3-3.1c-0.1-0.5-0.1-1.1-0.1-1.7c0-0.4,0.2-0.5,0.6-0.3
			c0.4,0.2,0.6,0.6,0.6,1.1c0,0.3,0.1,1.5,0.3,3.8C410.3,157.9,410.8,158,411.6,158z"/>
		<path class="st0" d="M445.8,174.1c0,0,0-0.1,0.1-0.2c0.2-0.9,0.5-2.1,0.8-3.6c0.4-1.8,0.7-3,0.8-3.6c0.6-2.6,1-4.3,1.3-5.2
			c0.1-0.6,0.5-1.8,1.1-3.6c0.1-0.4,0.4-0.5,0.8-0.4c0.5,0.1,0.6,0.4,0.6,0.9c0,0,0,0.1-0.1,0.4c-0.5,1.4-0.9,3.3-1.4,5.6
			c-0.1,0.6-0.3,1.4-0.6,2.3c-0.3,1.1-0.5,1.9-0.6,2.3c-0.2,0.7-0.4,1.7-0.7,3c-0.3,1.4-0.5,2.4-0.7,3c-0.3,1.4-0.6,2.7-1,3.9
			c-0.2,0.7-0.8,1.2-1.7,1.3c-0.3-0.5-0.5-0.8-0.5-0.8c-0.6-1.4-1.1-2.8-1.4-4.3c-0.1-0.3-0.9-3.3-2.5-9c-0.3-0.9-0.5-1.7-0.6-2.3
			c-0.2-0.7-0.6-1.9-1.3-3.6l-0.3,0.6c-0.5,3-0.7,4.5-0.6,4.4c0-0.1-0.5,2.4-1.4,7.4c-0.1,0.8-0.5,2.6-1.1,5.4
			c-0.1,0.4-0.2,0.7-0.4,1.1c-0.2,0.5-0.5,0.7-1,0.6c-0.9-0.2-1.4-0.6-1.6-1.2c-0.2-0.7-0.5-1.9-1-3.6c-0.6-2.1-1.2-3.8-1.6-5.1
			c-0.1-0.3-1.1-4-3-11.3c-0.1-0.4-0.1-0.8,0.2-1l0.4,0c0.1,0,0.3,0.1,0.7,0.3c1.1,4.4,1.6,6.7,1.7,7c0.3,1,1,3.4,2.2,7.2
			c-0.1-0.4,0.3,0.8,1.3,3.8c0,0.1,0.1,0.5,0.4,1.4c0.2-0.1,0.3-0.1,0.3-0.2c0.1-0.1,0.1-0.3,0.2-0.4c0.6-3.2,1.1-5.4,1.3-6.7
			c0.1-0.5,0.2-1.2,0.3-2c0.2-1,0.3-1.7,0.4-2c0-0.2,0.2-1.1,0.5-2.6c0.5-2.4,0.8-4,0.9-4.6c0,0,0.1-0.2,0.2-0.5
			c0.3-0.1,0.4-0.1,0.5-0.1c0.9,0,1.5,0.4,1.7,1.2c0.3,0.9,0.7,1.8,1.1,2.7c0.3,0.6,0.6,1.5,0.9,2.8c-0.1-0.4,0.8,3,2.7,10.3
			c0.2,0.7,0.3,1.3,0.5,1.8c0,0,0.2,0.2,0.4,0.6C445.5,175.2,445.8,174.1,445.8,174.1z"/>
		<path class="st0" d="M456.3,152.4c-0.3,0-0.5-0.1-0.8-0.3c-1.2-1-1.2-2.1,0.2-3.4c0.1-0.1,0.3-0.1,0.4-0.1
			c1.2,0.1,1.8,0.7,1.9,1.9C458.1,151.8,457.5,152.4,456.3,152.4z M457.1,169.1c0,0.7,0,1.8-0.1,3.2c-0.1,1.2,0,3.2,0.2,6.2
			c0,0,0.1,0.3,0.2,1c0.1,0.4-0.1,0.7-0.5,0.9c-0.4,0.2-0.7,0-0.9-0.4c-0.1-0.4-0.2-0.8-0.3-1.2c-0.1-3.1-0.1-5.2-0.1-6.4
			c0-5.5,0-8.5,0-8.8c-0.1-1.1-0.1-2.6-0.2-4.6c0-0.5,0-1,0-1.6c0.1-0.8,0.5-0.9,1.3-0.4C456.9,164,457.1,168,457.1,169.1z"/>
		<path class="st0" d="M468,158c0.8,0,1.3,0,1.4,0c0.3,0.1,0.5,0.2,0.7,0.4c0.2,0.2,0.3,0.4,0.2,0.7c-0.1,0.3-0.3,0.4-0.5,0.4
			c-0.1,0-0.7,0-2,0c-0.1,0-0.5,0-1.4,0c-0.3,0.9-0.4,2.2-0.3,4c0.1,4,0.2,6.2,0.2,6.5c0,2.6,0.1,4.4,0.3,5.5
			c0.1,0.8,0.3,1.4,0.4,1.9c0.3,0.8,0.9,1.2,1.7,1.1c0.7-0.1,0.9-0.1,0.7-0.1c0.3,0,0.4,0.1,0.5,0.2c0.1,0.3,0.1,0.5,0,0.7
			c-0.3,0.3-0.5,0.5-0.8,0.6c-1.6,0.4-2.7-0.2-3.4-1.6c-0.4-0.8-0.6-1.7-0.7-2.7c-0.1-1.1-0.2-3.6-0.3-7.6c0-0.6-0.1-1.5-0.1-2.6
			c-0.1-1.2-0.1-2.1-0.1-2.6c0-0.1,0-1.1,0-3c-0.5-0.1-0.7-0.2-0.7-0.2c-0.2,0-0.6-0.1-1.1-0.1c-0.5,0-0.9-0.1-1.1-0.1
			c-0.7-0.1-0.8-0.5-0.5-1.4c3-0.2,4.1-0.2,3.5,0c0.3-0.7,0.4-1.7,0.3-3.1c-0.1-0.5-0.1-1.1-0.1-1.7c0-0.4,0.2-0.5,0.5-0.3
			c0.4,0.2,0.6,0.6,0.6,1.1c0,0.3,0.1,1.5,0.3,3.8C466.7,157.9,467.2,158,468,158z"/>
		<path class="st0" d="M476.9,161.1C476.9,161.1,476.9,161.1,476.9,161.1c0.2-0.3,0.6-0.6,1-1c0.4-0.4,0.8-0.8,1-1
			c0.8-0.8,1.8-1.3,3-1.6c1-0.2,2,0,3,0.6c0,0,0.1,0.1,0.2,0.1c0.1,0.1,0.1,0.1,0.2,0.1c1.7,1,2.6,2.8,2.7,5.3c0.1,1,0.1,2.3,0,3.7
			c0,0.6-0.1,1.4-0.1,2.4c-0.1,1.2-0.1,2-0.2,2.4v2c-0.1,3.7-0.1,5.4-0.1,4.9c0,0.4-0.2,0.8-0.5,0.9c-0.4,0.2-0.6,0.1-0.7-0.3
			c-0.1-0.5-0.2-1-0.2-1.3c0-0.3,0-0.8,0-1.6c0-0.7,0-1.2,0-1.6c0,0.2,0.1-1.9,0.3-6.5c0.1-0.9,0.1-2.7,0-5.5c0-0.1-0.1-0.5-0.2-1.2
			c-0.2-1.5-1.1-2.5-2.5-3.2c-1.1-0.5-2.2-0.3-3.3,0.5c-1.3,1-2.5,2.3-3.6,3.9c-0.3,0.4-0.4,0.9-0.5,1.4c0,0.2,0,0.5,0,1
			c0,0.4,0,0.7,0,1c0,0.7,0,1.7,0,3c0.1,1.4,0.1,2.4,0.1,3.1c0,1,0,2.9,0,5.9c0,0.2,0,0.4,0,0.6c-0.1,0.4-0.4,0.6-0.8,0.6
			c-0.3,0-0.5-0.2-0.6-0.5c-0.1-0.4-0.1-0.8-0.1-1.2c-0.1-3.2-0.1-5.7-0.1-7.6c0-0.6,0-1.6,0-3l0-3.1c0-3.4-0.1-5.6-0.2-6.7
			c-0.1-1.5-0.1-3.9,0-7.3c0-1.2,0.1-2,0.1-2.4c0-0.4,0.1-0.7,0.1-1c0.1-0.3,0.3-0.4,0.6-0.3c0.3,0.1,0.4,0.2,0.5,0.4
			c0.1,0.1,0.1,0.4,0.1,0.8c0,0.4,0,1.3,0,2.7c0,1.2-0.1,2.1-0.1,2.8c0,0.1,0,0.8,0.1,2.1c0.1,2.8,0.1,4.6,0.2,5.2l0.1,0.7
			C476.7,161.3,476.9,161.1,476.9,161.1z"/>
		<path class="st0" d="M504.5,177.6c0.8,0.4,2,0.7,3.6,0.9c1.5,0.2,2.8-0.1,3.9-0.9c1.2-0.8,1.9-1.9,2-3.5l0-0.9
			c0.3-2-0.5-3.8-2.2-5.5c-0.2-0.2-1.2-1-3-2.5c-1.3-1.1-2.4-2.3-3.3-3.4c-0.7-0.9-1.1-1.9-1.3-2.9c-0.6-3-0.1-5.5,1.6-7.7
			c0.7-0.9,1.7-1.5,3-1.6c1.8-0.3,3.7,0,5.7,0.9c0.1,0,0.1,0.1,0.2,0.2c0.3,0.3,0.3,0.5,0.2,0.6c-0.2,0.2-0.4,0.3-0.6,0.3l-0.8-0.2
			c-1.6-0.5-3.2-0.6-4.7-0.4c-0.8,0.1-1.5,0.6-2,1.2c-1.5,1.9-1.8,4.3-0.9,7.2c0.1,0.2,0.3,0.6,0.8,1.2c1.1,1.5,2.6,3,4.6,4.6
			c1.2,1,1.9,1.6,2.1,1.8c1.4,1.5,2.1,3.1,2.2,4.9c0,0.8-0.1,1.8-0.2,2.9c-0.2,1.6-1,3-2.4,4c-1.5,1-3.2,1.4-5.2,1.2
			c-1.3-0.1-2.6-0.5-4.1-1.1c-0.5-0.2-0.8-0.6-0.9-1.3C503.3,177.3,503.9,177.3,504.5,177.6z"/>
		<path class="st0" d="M529.6,170.5c-2.5,0.1-4.4,0.3-5.7,0.4c-0.4,0.5-0.6,1-0.8,1.6c-0.9,3.1-1.3,4.3-1,3.4
			c-0.3,0.8-0.6,1.9-1,3.1c-0.1,0.3-0.3,0.6-0.4,0.9c-0.2,0.3-0.4,0.4-0.7,0.3c-0.3-0.1-0.5-0.4-0.5-0.7c0-0.2,0-0.4,0-0.6
			c0.5-1.5,1-3,1.5-4.6c2-6.2,3.1-9.4,3.2-9.7c0.9-2.8,1.8-5.5,2.8-8.1c0.2-0.4,1.1-2.5,2.7-6.1c0,0,0.2-0.4,0.5-1.2
			c0.4-0.1,0.8,0,1.1,0.4c0.1,0.2,0.3,0.4,0.3,0.6c0.7,1.8,1.2,3.2,1.4,4.2c0,0.1,0.5,2.4,1.6,7.1c0.6,2.5,0.8,3.4,0.6,2.6
			c0.5,1.7,0.9,3.4,1.4,5.2c0.5,1.7,1.1,3.8,1.8,6.2c0.1,0.3,0.4,1,0.8,2.2c0.2,0.6,0.2,1,0.1,1.3c-0.1,0.3-0.3,0.4-0.5,0.5
			c-0.3,0.1-0.5,0-0.6-0.3c-0.2-0.4-0.4-1-0.6-1.5c0.5,1.7-0.2-0.6-2.1-6.9l-0.3-0.8C534.2,170.3,532.3,170.4,529.6,170.5z
			 M532,168.9c0,0,0.8-0.1,2.3-0.2l0.6-0.1l0-0.2c-1.7-7.2-2.6-10.8-2.6-11c0.3,1.2,0-0.3-1-4.8c0,0-0.2-0.4-0.4-1.2
			c-0.5,0.7-1,1.8-1.6,3.3c-1.5,3.7-2.9,7.8-4.3,12.2c0,0.1-0.3,0.8-0.8,2.4C529.4,169.1,532,168.9,532,168.9z"/>
		<path class="st0" d="M545.3,148.2c-0.5,1.4-0.9,3.4-1.4,6c-0.1,0.3-0.2,0.7-0.3,1.2c0,0.2-0.1,0.3-0.1,0.4
			c-0.3,0.5-0.6,0.7-1.1,0.4c-0.3-0.2-0.4-0.5-0.3-0.8c0.5-2,0.9-3.7,1.2-5.3c0.1-0.4,0.3-1.2,0.7-2.5c0.1-0.2,0.1-0.5,0.2-0.7
			c0.2-0.4,0.5-0.5,0.8-0.2c0,0,0.2,0.3,0.5,0.7C545.4,147.9,545.3,148.2,545.3,148.2z"/>
		<path class="st0" d="M554.9,157.7c0.7-0.1,1.7,0.2,2.9,0.9c0.4,0.3,0.5,0.6,0.3,0.9c-0.2,0.3-0.5,0.4-0.9,0.1
			c-0.6-0.4-1.5-0.5-2.9-0.5c-1.1,0.1-2.1,0.6-2.9,1.6c-0.5,0.6-0.7,1.6-0.8,3.1c0,0.3,0.2,0.7,0.6,1.2c0.4,0.4,0.9,0.8,1.4,1.1
			c1.3,0.7,2.9,2.1,4.9,4c1.6,1.6,2,3.6,1.2,6c-0.7,2.3-2.4,3.7-4.9,4.3c-0.5,0.1-1,0.1-1.8-0.2c-0.5-0.2-1.6-0.6-3.3-1.3
			c-0.1-0.1-0.3-0.2-0.4-0.4c-0.2-0.2-0.3-0.5-0.1-0.8c0.1-0.2,0.3-0.3,0.6-0.3c0.7,0.2,1.1,0.4,1.4,0.4c0.2,0.1,0.4,0.1,0.7,0.3
			c0.3,0.1,0.5,0.3,0.6,0.3c1.6,0.6,3,0.4,4.4-0.7c1.4-1.1,1.9-2.5,1.7-4.3c-0.1-0.8-0.4-1.6-1.1-2.2c-0.9-0.8-2-1.8-3.3-2.9
			c-0.7-0.6-1.5-1.2-2.3-1.7c-1.2-0.7-1.7-2-1.6-3.8c0.1-3.2,1.8-5,5-5.2L554.9,157.7L554.9,157.7z"/>
		<path class="st0" d="M584.8,161.4c0.6,1.5,0.8,3,0.6,4.4c-0.2,1-0.3,1.6-0.3,1.8c-0.1,0.7-0.6,1.2-1.4,1.2
			c-0.9,0.1-1.6,0.1-1.9,0.1c-0.8,0-1.7,0-3,0c-1.5,0.1-2.5,0.1-3,0.1c-0.1,0-0.5,0.1-1.4,0.2c-0.2,1.3-0.1,2.4,0.3,3.3
			c0.7,1.8,1.3,3,2,3.7c0.6,0.7,1.4,1.2,2.4,1.5c1.7,0.5,3.2,0.3,4.5-0.5c0.5-0.3,0.9-0.1,1.4,0.4c-0.3,0.6-0.8,1-1.4,1.3
			c-4.2,1.8-7.3,0.6-9.3-3.7c-0.8-1.6-1.2-3.3-1.2-5c0-0.1,0-0.4-0.1-0.8v0c0,0.8,0.1,0.2,0.2-1.9c0.1-0.4,0.1-0.6,0.1-0.8
			c0-1.8,0.5-3.6,1.7-5.3c1.1-2,2.8-3,5-3.2c0.3,0,0.6,0,0.8,0.1c1.3,0.4,2.3,0.9,3,1.5C584.3,160.4,584.6,160.9,584.8,161.4z
			 M583.9,167.2c0.5-1.7,0.5-3.4-0.2-5.1c-0.1-0.4-0.3-0.7-0.5-0.8c-1-0.9-2.2-1.4-3.3-1.4c-1.6,0-2.8,0.7-3.7,2.1
			c-0.7,1.1-1.2,2.3-1.4,3.6c-0.2,1.1-0.3,1.8-0.2,2.1c2.9-0.1,4.4-0.1,4.7-0.2C583.2,167.1,584.7,167,583.9,167.2z"/>
		<path class="st0" d="M594.5,158.6c1.9-1.3,3.8-1.5,5.8-0.6c0.7,0.3,1.2,0.8,1.5,1.6c0.8,1.9,1.2,3.6,1.3,5.1l0,3.9
			c0,1.6,0,2.8,0,3.8c0,0.3,0,0.8,0,1.3c0.1,0.7,0.1,1.1,0.1,1.3c0.1,1.9,0.1,2.9,0.2,3.1c0.1,0.4,0.1,0.8,0,1.2
			c0,0.2-0.2,0.5-0.4,0.8c-0.3,0.4-0.6,0.3-0.8-0.2c-0.1-0.3-0.2-0.6-0.2-0.8c-0.1-1.4-0.1-2.7-0.1-3.7c0-1-0.1-2.5-0.1-4.7
			c0-2-0.1-3.5-0.1-4.7c0-2-0.4-3.8-1-5.2c-0.5-1.1-1.2-1.7-2.4-1.8c-0.8-0.1-1.5,0-2.3,0.4c-1.9,0.9-3.1,2.1-3.6,3.8
			c-0.1,0.4-0.2,1-0.2,1.6c0,4.2,0,7.3,0,9.5c0-0.9,0,0.6,0.2,4.6c0,0.4,0,0.9-0.1,1.3c0,0.1-0.2,0.3-0.4,0.4
			c-0.3,0.1-0.5,0-0.6-0.3c-0.2-0.6-0.3-1-0.3-1.4c-0.2-1.5-0.3-4.5-0.3-9.1c0-1.3,0-4.2,0-8.6l0-1.6c0-0.7,0-1.2,0-1.6
			c0-0.2,0-0.5,0.1-0.8c0.1-0.4,0.3-0.4,0.6-0.2c0.3,0.2,0.5,0.6,0.5,1.2c0,0.1,0.1,0.9,0.2,2.3
			C593.7,159.3,594.4,158.7,594.5,158.6z"/>
		<path class="st0" d="M614.9,175.6c0.2-0.5,0.3-1.1,0.5-1.9c0.4-1.8,0.9-3.8,1.6-6.2c0.1-0.1,0.9-3.1,2.7-8.9
			c0.2-0.6,0.3-1,0.4-1.3c0.2-0.4,0.5-0.5,0.8-0.2c0.1,0.1,0.1,0.1,0.2,0.2c0,0,0.1,0.1,0.3,0.4c-0.1,0.4-0.3,0.8-0.3,1.1
			c-1.1,3.8-1.7,6-1.9,6.5c-0.5,1.9-0.7,2.5-0.5,1.8c-1.5,5.8-2.2,8.3-2,7.7c-0.1,0.3-0.5,1.5-1.1,3.5c-0.1,0.1-0.2,0.3-0.3,0.7
			c-0.2,0.4-0.5,0.5-0.9,0.5c-0.5,0-0.7-0.2-0.9-0.6c-1.1-3.2-1.7-5-1.9-5.3c0,0.1-1-3.7-3.1-11.4c-0.1-0.3-0.3-0.8-0.4-1.3
			c-0.2-0.7-0.3-1.1-0.4-1.4c-0.2-0.5-0.3-1-0.4-1.4c-0.1-0.5,0-0.8,0.3-0.8c0.3-0.1,0.6,0.1,0.8,0.5c0.4,1,0.6,1.6,0.8,2
			c0.1,0.3,0.5,2,1.4,5.3c0.1,0.3,0.1,0.5,0.2,0.6c0.4,1,0.8,2.4,1.3,4.2c0.5,2,0.9,3.4,1.2,4.2c0.8,2.4,1.2,3.4,1,2.9l0.2,0.2
			C614.4,177,614.6,176.5,614.9,175.6z"/>
		<path class="st0" d="M626.3,152.4c-0.3,0-0.5-0.1-0.8-0.3c-1.2-1-1.2-2.1,0.2-3.4c0.1-0.1,0.3-0.1,0.4-0.1
			c1.2,0.1,1.8,0.7,1.9,1.9C628.1,151.8,627.5,152.4,626.3,152.4z M627.1,169.1c0,0.7,0,1.8-0.1,3.2c-0.1,1.2,0,3.2,0.2,6.2
			c0,0,0.1,0.3,0.2,1c0.1,0.4-0.1,0.7-0.5,0.9c-0.4,0.2-0.7,0-0.9-0.4c-0.1-0.4-0.2-0.8-0.3-1.2c-0.1-3.1-0.1-5.2-0.1-6.4
			c0-5.5,0-8.5,0-8.8c-0.1-1.1-0.1-2.6-0.2-4.6c0-0.5,0-1,0-1.6c0.1-0.8,0.5-0.9,1.3-0.4C626.9,164,627.1,168,627.1,169.1z"/>
		<path class="st0" d="M634.5,160.4c0.2,0.1,0.4,0,0.6-0.2c0.6-0.8,0.9-1.2,0.9-1.1c1.2-1.3,2.6-1.8,4.2-1.4
			c0.4,0.1,0.6,0.3,0.5,0.6c0,0.2-0.1,0.4-0.3,0.7c-0.1,0.1-0.2,0.1-0.4,0.2c-0.2,0-0.4,0-0.5,0c-1-0.1-1.9,0.3-2.7,1.2
			c-0.5,0.6-1.2,1.8-2,3.4c-0.1,0.1-0.1,0.5,0,1.2c0.2,4.4,0.3,6.2,0.3,5.2c0,0.7,0,1.5,0,2.7l0,2.7c0,1.1,0,2.4,0.1,3.7
			c0,0.4-0.1,0.6-0.3,0.8c-0.3,0.4-0.6,0.4-0.9,0.3c-0.3-0.1-0.4-0.4-0.4-0.7c-0.1-1.6-0.1-3,0-4.3c0.1-3.6,0-7.5-0.4-11.7
			c0-0.3-0.1-1.8-0.2-4.6c0-0.2,0-0.4,0-0.6c0.1-0.4,0.3-0.6,0.7-0.5c0,0,0.2,0.1,0.5,0.3C634.4,158.7,634.4,159.6,634.5,160.4z"/>
		<path class="st0" d="M644.2,162.6c0.6-2.8,2.4-4.5,5.3-5.1c1.6-0.3,3,0.1,4.5,1.4c1.4,1.2,2.4,2.6,2.8,4c0.4,1.4,0.6,2.8,0.7,4.3
			c0.1,2.5-0.1,4.6-0.5,6.2c-0.3,1.2-0.6,2-0.8,2.7c-0.8,2.1-2.4,3.4-4.8,4c-1.5,0.4-3.1-0.1-4.7-1.3c-1.4-1.1-2.3-2.8-2.7-5.2
			c-0.4-2-0.5-3.7-0.4-5.2C643.7,165.5,644,163.6,644.2,162.6z M656,166.2c0-1.6-0.4-3.1-1.3-4.5c-1.6-2.5-3.6-3.4-6-2.5
			c-0.7,0.3-1.3,0.6-1.8,1.1c-0.8,0.8-1.4,2-1.6,3.6c-0.4,3-0.5,5.5-0.3,7.7c0.2,1.3,0.5,2.5,0.9,3.6c0.6,1.3,1.4,2.3,2.5,2.9
			c3,1.5,5.1,0.7,6.3-2.5c1-2.5,1.4-4.9,1.3-7.4L656,166.2z"/>
		<path class="st0" d="M666.6,158.6c1.9-1.3,3.8-1.5,5.8-0.6c0.7,0.3,1.2,0.8,1.5,1.6c0.8,1.9,1.2,3.6,1.3,5.1l0,3.9
			c0,1.6,0,2.8,0,3.8c0,0.3,0,0.8,0,1.3c0.1,0.7,0.1,1.1,0.1,1.3c0.1,1.9,0.1,2.9,0.2,3.1c0.1,0.4,0.1,0.8,0,1.2
			c0,0.2-0.2,0.5-0.4,0.8c-0.3,0.4-0.6,0.3-0.8-0.2c-0.1-0.3-0.2-0.6-0.2-0.8c-0.1-1.4-0.1-2.7-0.1-3.7c0-1-0.1-2.5-0.1-4.7
			c0-2-0.1-3.5-0.1-4.7c0-2-0.4-3.8-1-5.2c-0.5-1.1-1.2-1.7-2.4-1.8c-0.8-0.1-1.5,0-2.3,0.4c-1.9,0.9-3.1,2.1-3.6,3.8
			c-0.1,0.4-0.2,1-0.2,1.6c0,4.2,0,7.3,0,9.5c0-0.9,0,0.6,0.2,4.6c0,0.4,0,0.9-0.1,1.3c0,0.1-0.2,0.3-0.4,0.4
			c-0.3,0.1-0.5,0-0.6-0.3c-0.2-0.6-0.3-1-0.3-1.4c-0.2-1.5-0.3-4.5-0.3-9.1c0-1.3,0-4.2,0-8.6l0-1.6c0-0.7,0-1.2,0-1.6
			c0-0.2,0-0.5,0.1-0.8c0.1-0.4,0.3-0.4,0.6-0.2c0.3,0.2,0.5,0.6,0.5,1.2c0,0.1,0.1,0.9,0.2,2.3
			C665.8,159.3,666.5,158.7,666.6,158.6z"/>
		<path class="st0" d="M692.1,169.3c0.1-2.7,0-5.3-0.3-7.6c-0.2-1.5-0.9-2.4-2.2-2.8c-1.4-0.3-2.5-0.1-3.4,0.7
			c-1.4,1.2-2.4,2.7-3,4.6c-0.1,0.3-0.1,1-0.1,2c0,4,0.1,7.5,0.1,10.4c0,0.3,0,0.7,0.1,1.2c0.1,0.6,0.1,1,0.1,1.2
			c0,0.4-0.1,0.7-0.2,1c-0.1,0.2-0.3,0.3-0.5,0.4c-0.3,0-0.5-0.2-0.6-0.5c0-0.1,0-0.3,0-0.4c-0.1-2.1-0.1-3.4-0.1-4
			c-0.1-6.5-0.2-11.2-0.2-14.2c0-0.6,0-1.8,0.1-3.6c0-0.3,0.1-0.5,0.4-0.4c0.2,0,0.4,0.1,0.6,0.3c0.1,0.1,0.1,0.2,0.1,0.4
			c0-0.4,0-0.1,0,0.9c0,0.9,0.1,1.5,0.3,2c1-1.2,1.5-1.8,1.6-1.9c0.5-0.5,1-0.9,1.6-1.3c0.7-0.4,1.5-0.6,2.6-0.5
			c2,0.1,3.4,1.3,4.2,3.7c0.9-1.1,1.3-1.7,1.4-1.7c0.6-0.8,1.4-1.4,2.5-1.7c2.5-0.9,4.5-0.2,5.8,2c0.8,1.4,1.2,2.8,1.2,4.3l0,3.6
			c0,1,0,2.5,0,4.3c0,2-0.1,3.4-0.1,4.3c0,2.8,0,3.8,0,3c0,0.8-0.3,1.1-0.8,1c-0.4-0.1-0.6-0.4-0.6-1c0-0.2,0-0.5,0-0.8
			c0-0.4,0-0.7,0-0.8c0.1-5.2,0.2-9.8,0.2-13.7c0-1.8-0.6-3.3-1.9-4.4c-0.4-0.4-1-0.6-1.7-0.7c-1.6-0.1-3,0.5-4.2,2
			c-0.2,0.2-0.7,1.2-1.6,3c-0.1,0.1-0.1,0.5-0.1,1c0.1,3,0.1,4.4,0.1,4c0,0.8,0,1.9,0,3.3c-0.1,1.7-0.1,2.8-0.1,3.3
			c0-0.3,0,0.6,0,2.8c0,0.1,0,0.5,0,1.2c0,0.4-0.2,0.7-0.5,0.8c-0.2,0.1-0.5,0-0.8-0.4C691.8,179.1,691.9,175.6,692.1,169.3z"/>
		<path class="st0" d="M720.8,161.4c0.6,1.5,0.8,3,0.6,4.4c-0.2,1-0.3,1.6-0.3,1.8c-0.1,0.7-0.6,1.2-1.4,1.2
			c-0.9,0.1-1.5,0.1-1.9,0.1c-0.8,0-1.7,0-3,0c-1.5,0.1-2.5,0.1-3,0.1c-0.1,0-0.5,0.1-1.4,0.2c-0.2,1.3-0.1,2.4,0.3,3.3
			c0.7,1.8,1.3,3,2,3.7c0.6,0.7,1.4,1.2,2.4,1.5c1.7,0.5,3.2,0.3,4.5-0.5c0.5-0.3,0.9-0.1,1.4,0.4c-0.3,0.6-0.8,1-1.4,1.3
			c-4.2,1.8-7.3,0.6-9.3-3.7c-0.8-1.6-1.2-3.3-1.2-5c0-0.1,0-0.4-0.1-0.8v0c0,0.8,0.1,0.2,0.2-1.9c0.1-0.4,0.1-0.6,0.1-0.8
			c0-1.8,0.5-3.6,1.7-5.3c1.1-2,2.8-3,5-3.2c0.3,0,0.6,0,0.8,0.1c1.3,0.4,2.3,0.9,3,1.5C720.3,160.4,720.6,160.9,720.8,161.4z
			 M719.9,167.2c0.5-1.7,0.5-3.4-0.2-5.1c-0.1-0.4-0.3-0.7-0.5-0.8c-1-0.9-2.2-1.4-3.3-1.4c-1.6,0-2.8,0.7-3.7,2.1
			c-0.7,1.1-1.2,2.3-1.4,3.6c-0.2,1.1-0.3,1.8-0.2,2.1c2.9-0.1,4.4-0.1,4.7-0.2C719.1,167.1,720.7,167,719.9,167.2z"/>
		<path class="st0" d="M730.5,158.6c1.9-1.3,3.8-1.5,5.8-0.6c0.7,0.3,1.2,0.8,1.5,1.6c0.8,1.9,1.2,3.6,1.3,5.1l0,3.9
			c0,1.6,0,2.8,0,3.8c0,0.3,0,0.8,0,1.3c0.1,0.7,0.1,1.1,0.1,1.3c0.1,1.9,0.1,2.9,0.2,3.1c0.1,0.4,0.1,0.8,0,1.2
			c0,0.2-0.2,0.5-0.4,0.8c-0.3,0.4-0.6,0.3-0.8-0.2c-0.1-0.3-0.2-0.6-0.2-0.8c-0.1-1.4-0.1-2.7-0.1-3.7c0-1-0.1-2.5-0.1-4.7
			c0-2-0.1-3.5-0.1-4.7c0-2-0.4-3.8-1-5.2c-0.5-1.1-1.2-1.7-2.4-1.8c-0.8-0.1-1.5,0-2.3,0.4c-1.9,0.9-3.1,2.1-3.6,3.8
			c-0.1,0.4-0.2,1-0.2,1.6c0,4.2,0,7.3,0,9.5c0-0.9,0,0.6,0.2,4.6c0,0.4,0,0.9-0.1,1.3c0,0.1-0.2,0.3-0.4,0.4
			c-0.3,0.1-0.5,0-0.6-0.3c-0.2-0.6-0.3-1-0.3-1.4c-0.2-1.5-0.3-4.5-0.3-9.1c0-1.3,0-4.2,0-8.6l0-1.6c0-0.7,0-1.2,0-1.6
			c0-0.2,0-0.5,0.1-0.8c0.1-0.4,0.3-0.4,0.6-0.2c0.3,0.2,0.5,0.6,0.5,1.2c0,0.1,0.1,0.9,0.2,2.3
			C729.7,159.3,730.4,158.7,730.5,158.6z"/>
	</g>
	<g>
		<path class="st0" d="M748.7,157c0.9,0,1.3,0,1.5,0c0.3,0.1,0.5,0.2,0.8,0.4c0.2,0.2,0.3,0.5,0.2,0.7c-0.1,0.3-0.3,0.4-0.5,0.4
			c-0.1,0-0.8,0-2.1,0c-0.1,0-0.6,0-1.5,0c-0.3,0.9-0.4,2.3-0.3,4.2c0.1,4.2,0.2,6.5,0.2,6.8c0,2.7,0.1,4.6,0.3,5.7
			c0.1,0.8,0.3,1.5,0.4,2c0.3,0.8,0.9,1.2,1.8,1.2c0.7-0.1,1-0.1,0.8-0.1c0.3,0,0.4,0.1,0.5,0.2c0.1,0.3,0.1,0.6,0,0.7
			c-0.3,0.3-0.5,0.5-0.8,0.6c-1.7,0.4-2.9-0.2-3.5-1.7c-0.4-0.8-0.6-1.8-0.8-2.8c-0.1-1.2-0.2-3.8-0.3-7.9c0-0.6-0.1-1.5-0.1-2.7
			c-0.1-1.2-0.1-2.2-0.1-2.7c0-0.1,0-1.2,0-3.2c-0.5-0.1-0.7-0.2-0.8-0.2c-0.2,0-0.6-0.1-1.2-0.1c-0.5,0-0.9-0.1-1.2-0.1
			c-0.7-0.1-0.9-0.6-0.5-1.4c3.1-0.2,4.3-0.2,3.7,0c0.3-0.7,0.4-1.8,0.3-3.2c-0.1-0.5-0.1-1.1-0.1-1.8c0-0.4,0.2-0.5,0.6-0.3
			c0.4,0.2,0.6,0.6,0.7,1.1c0,0.3,0.1,1.6,0.3,4C747.3,156.9,747.8,157,748.7,157z"/>
	</g>
</g>
</svg>
