<?xml version="1.0" encoding="utf-8"?>
<!-- Generator: Adobe Illustrator 19.0.0, SVG Export Plug-In . SVG Version: 6.00 Build 0)  -->
<svg version="1.1" id="Layer_1" xmlns="http://www.w3.org/2000/svg" xmlns:xlink="http://www.w3.org/1999/xlink" x="0px" y="0px"
	 width="559.7px" height="316.5px" viewBox="272.9 -133.7 559.7 316.5" style="enable-background:new 272.9 -133.7 559.7 316.5;"
	 xml:space="preserve">
<style type="text/css">
	.st0{fill:#FFFFFF;}
	.st1{fill:#3E577D;}
	.st2{fill:#FFFFFE;}
</style>
<g>
	<path class="st0" d="M343.6-86.9c0-5.7,2.2-8.4,7.5-8.8h0.4c6.6,0,10.6,0.9,11.9,2.2c1.8,1.8,2.6,5.7,2.6,12.3
		c-0.4,34-0.4,51.1-0.4,52c-0.4,4.4-0.4,10.6,0,18.1c0,9.3,0,15.4,0,18.1c0,13.7-2.2,24.3-5.7,32.2c-4.8,10.1-12.8,16.8-22.9,19.4
		c-11.9,2.6-28.2,2.2-48.9-1.8c-5.3-0.9-7.9-3.1-8.8-5.7c-1.8-6.2-1.3-11,0.9-15c1.3-2.2,3.5-3.1,6.6-2.6c4,1.3,11,2.6,21.6,4.4
		c11,2.2,19.4,0,25.1-6.2c2.2-2.2,4-4.4,4-6.2c1.8-9.3,2.6-16.3,1.8-22c-10.6,5.3-16.3,7.9-17.2,7.9c-10.6,4-20.3,3.1-29.1-3.5
		c-9.7-7.1-15.9-17.2-19-30.4c-1.3-6.2-1.3-14.6,0-25.1c1.3-11,3.5-20.3,6.6-27.8c4-8.8,11-14.6,21.2-17.2
		c15-4.4,27.8-0.4,37.5,11.5l3.5,3.5L343.6-86.9L343.6-86.9z M303.9-20.8c3.5,13.2,11.5,16.8,24.7,11c4.9-2.2,7.9-5.7,8.8-11
		c1.3-5.7,2.6-13.7,3.5-23.8c0.9-8.4-1.8-16.8-8.4-24.3c-5.3-6.2-11-8.4-17.2-6.6c-5.7,1.8-9.7,5.3-11.5,11.5
		c0,0.9-1.3,7.5-3.5,19.4C302.5-29.6,303.9-21.7,303.9-20.8z"/>
</g>
<g>
	<path class="st0" d="M389.9,0.4c-7.1-5.7-11-12.8-12.8-21.6c-1.8-9.3-2.6-15.9-3.5-19c-1.8-11.9-0.4-22,3.5-30.4
		c5.3-11.5,14.1-18.1,26.5-20.3c8.4-1.8,15-2.2,20.3-1.3c2.6,0.4,4.4,0.4,4.4,0.9c7.9,3.5,14.1,7.9,19,14.1c0.9,1.3,2.2,4,4,8.8
		c3.5,10.6,5.3,18.1,5.3,22c0,9.7-2.2,18.5-5.7,26.9c-2.2,4.9-4.4,8.8-6.6,13.2c-3.5,6.2-8.8,9.7-15.9,11.5c-0.9,0-6.6,0.9-17.2,2.6
		C404,8.7,396.9,6.1,389.9,0.4z M430.9-53c-1.3-7.9-4.4-14.1-9.3-18.1c-5.7-5.3-11-5.3-15.4-0.9c-2.2,2.6-4,4.4-4.4,6.2
		c-6.2,15.4-7.1,29.5-2.6,42.8c0.9,2.6,2.2,4.9,3.5,6.6c3.5,4.4,8.4,6.6,13.7,5.7c5.7-0.9,9.3-4,11.5-8.8c2.6-6.2,4-13.7,4-22.5
		C431.3-49,430.9-52.6,430.9-53z"/>
	<path class="st0" d="M478,0.4c-7.1-5.7-11-12.8-12.8-21.6c-1.8-9.3-2.6-15.9-3.5-19c-1.8-11.9-0.4-22,3.5-30.4
		c5.3-11.5,14.1-18.1,26.5-20.3c8.4-1.8,15-2.2,20.3-1.3c2.6,0.4,4.4,0.4,4.4,0.9c7.9,3.5,14.1,7.9,19,14.1c0.9,1.3,2.2,4,4,8.8
		c3.5,10.6,5.3,18.1,5.3,22c0,9.7-2.2,18.5-5.7,26.9c-2.2,4.9-4.4,8.8-6.6,13.2c-3.5,6.2-8.8,9.7-15.9,11.5c-0.9,0-6.6,0.9-17.2,2.6
		C492.2,8.7,485.1,6.1,478,0.4z M519-53c-1.3-7.9-4.4-14.1-9.3-18.1c-5.7-5.3-11-5.3-15.4-0.9c-2.2,2.6-4,4.4-4.4,6.2
		c-6.2,15.4-7.1,29.5-2.6,42.8c0.9,2.6,2.2,4.9,3.5,6.6c3.5,4.4,8.4,6.6,13.7,5.7c5.7-0.9,9.3-4,11.5-8.8c2.6-6.2,4-13.7,4-22.5
		C519.5-49,519-52.6,519-53z"/>
	<path class="st0" d="M606.8-109c0-7.1,0-13.2,0.4-19c0-3.5,2.2-5.3,5.7-5.7c3.1,0,7.1,0,11.5,0.4c3.1,0.4,4.9,1.8,5.3,4.9
		c0.4,2.6,0.4,3.5,0.4,3.5c0,48.1,0,72.3,0,72.8c0,30.9,0.4,47.2,0.4,48.9c0.4,1.8,0.4,3.1,0,4.4c-0.4,2.6-1.8,4-4.4,4
		c-4.9-0.4-8.8-0.9-11.5-1.3c-3.5-0.4-5.7-3.5-6.6-8.8c-6.6,4-10.1,6.2-10.6,6.6c-8.4,4.9-17.2,4.9-26.5-0.4
		c-12.8-7.5-19.8-18.1-21.2-32.6c-1.3-12.8-0.4-23.4,1.8-31.7c1.3-5.3,4.4-11.9,9.3-19.4c2.6-4,7.1-6.6,13.7-8.4
		c7.1-1.8,12.8-1.3,17.2,1.3c0.4,0.4,5.3,3.5,15,10.1V-109L606.8-109z M574.6-47.3v5.3c0,8.4,1.3,15.9,4,22.5
		c3.5,8.4,9.3,10.1,17.2,4.4c5.3-4,8.4-8.8,9.3-15c0.4-2.2,0.9-8.8,1.3-20.3c0.4-7.9-2.2-15-8.4-20.7c-8.4-8.4-14.6-7.5-19.4,1.8
		c-1.8,3.1-2.6,6.2-3.1,8.8C575.5-59.2,575-55.2,574.6-47.3L574.6-47.3L574.6-47.3z"/>
</g>
<g>
	<path class="st1" d="M808.8,44.5l-3.5-3.5c-9.7-11.9-22.5-15.4-37.5-11.5c-10.1,3.1-17.2,8.8-21.2,17.2c-3.1,7.5-5.3,16.8-6.6,27.8
		c-1.3,10.6-1.3,19,0,25.1c2.6,13.2,9.3,23.4,19,30.4c8.8,6.6,18.5,7.9,29.1,3.5c0.9-0.4,6.6-3.1,17.2-7.9c0.9,5.7,0,13.2-1.8,22
		c-0.4,1.8-1.8,4-4,6.2c-5.7,6.2-14.1,8.4-25.1,6.2c-10.1-1.8-17.2-3.5-21.2-4c-3.1-0.4-5.3,0.4-6.6,2.6c-2.2,4-2.2,8.8-0.9,15
		c0.9,3.1,3.5,4.8,8.8,5.7c21.2,4,37.5,4.4,48.9,1.8c10.6-2.6,18.1-8.8,22.9-19.4c3.5-7.9,5.7-18.5,5.7-32.2c0-2.6,0-8.8,0-18.1
		c-0.4-7.5-0.4-13.7,0-18.1c0-0.9,0-18.5,0.4-52c0-6.6-0.9-10.6-2.6-12.3s-5.7-2.2-11.9-2.2h-0.4c-5.3,0.4-7.9,3.1-7.5,8.8
		C808.8,36.1,808.8,44.5,808.8,44.5z M766.4,78.4c2.2-12.3,3.1-18.5,3.5-19.4c1.8-6.2,5.3-9.7,11.5-11.5c6.2-1.8,11.9,0.4,17.2,6.6
		c6.6,7.5,9.7,15.9,8.4,24.3c-1.3,10.6-2.2,18.5-3.5,23.8c-0.9,4.9-4,8.4-8.8,11c-13.2,6.2-21.6,2.6-24.7-11
		C769.5,101.3,768.2,93.4,766.4,78.4 M650.5,60.8c0,6.6-0.4,15.4-0.9,26.9c-0.4,12.8-0.4,22-0.4,26.9c-0.4,8.8,4,13.2,12.8,13.2
		c0,0,0.9,0,2.6,0c5.3-0.4,7.9-3.5,7.9-8.8c0-3.5,0-9.3-0.4-17.2c-0.4-7.5-0.4-13.2-0.4-17.2c0-5.7,0.4-12.8,1.3-21.2
		c0.4-5.3,3.5-9.7,9.7-12.3c11.5-5.3,17.6-1.8,19,9.7c0.9,6.6,1.3,17.2,1.3,30.9c0,0.4,0,9.7,0,26.5c0,3.5,1.8,6.2,4.8,7.1
		c4,0.9,7.1,1.3,8.8,1.8c4.8,0.4,7.9-2.2,8.8-7.1c0.4-1.8,0.4-4.9,0.4-9.3c0-16.3,0-28.7,0-37c0-10.6-1.8-19.4-4.9-26.5
		c-4-9.3-11-15-20.7-16.3c-9.7-1.8-17.6,0.9-23.4,7.5c0,0-1.3,1.3-4,3.5c-0.9-3.1-1.3-4.9-1.3-5.3c-1.3-3.1-3.5-4.9-6.2-4.9
		c-0.9,0-5.3,0-14.1,0.4C650.5,33,650.5,60.8,650.5,60.8z M609.4,32.1c-0.4,4.4-0.9,6.6-0.9,6.6c0,2.2,0.4,6.2,0.9,11.5
		c0.4,4.9,0.4,8.8,0.4,11.9c0.4,18.5,0.4,35.3,0.9,50.3c0,10.6,5.3,15.4,15.4,14.6c3.1-0.4,5.3-2.2,7.1-5.7c0,0,0-3.5,0-10.1
		c0-16.3,0-25.6,0-27.8c0,4,0-9.7,0.4-40.6c0-5.3-1.3-8.8-4-11L609.4,32.1L609.4,32.1z M559.6,100.5c-1.3-2.6-1.8-4-2.2-4.4
		c-4.4-13.7-7.1-22.5-7.9-26c-2.6-8.4-5.7-19.8-9.3-34c-0.9-3.1-2.6-4.4-5.7-4.4c-7.1,0-11,0-11.5,0c-4.4,0-6.2,2.2-4.8,6.6
		c2.2,9.7,4.8,18.5,7.5,27.3c1.3,3.5,2.6,8.4,4.9,15c2.2,6.6,4,11.5,4.8,14.6c0.9,3.1,2.2,7.1,3.5,12.3c1.8,6.2,2.6,10.1,3.5,12.3
		c1.3,4.4,4.4,7.1,9.3,7.1l12.8,0.4c4.4,0.4,7.1-1.3,8.8-5.7c0.4-0.9,1.3-4.4,3.5-11c6.2-19.4,9.3-29.5,9.7-30.4
		c1.8-4.9,4-11.5,6.6-19.4c3.5-9.7,5.7-16.3,6.6-19.4c1.3-4.4,0.9-6.6-2.2-7.5c-6.2-1.3-11.5-0.9-16.3,1.3c-0.4,0.4-1.3,1.3-1.8,3.1
		c-1.3,3.5-2.6,7.9-4.4,13.2c-2.6,7.9-6.6,20.3-11.5,37V89C563.1,88.6,561.8,92.5,559.6,100.5 M486,32.1c-0.4,4.4-0.9,6.6-0.9,6.6
		c0,2.2,0.4,6.2,0.9,11.5c0.4,4.9,0.4,8.8,0.4,11.9c0.4,18.5,0.4,35.3,0.9,50.3c0,10.6,5.3,15.4,15.4,14.6c3.1-0.4,5.3-2.2,7.1-5.7
		c0,0,0-3.5,0-10.1c0-16.3,0-25.6,0-27.8c0,4,0-9.7,0.4-40.6c0-5.3-1.3-8.8-4-11L486,32.1L486,32.1z M445,57.2v26.5
		c0-1.3,0,10.1-0.4,34.4c0,4.8,1.8,7.5,5.7,7.9c3.5,0.4,7.1,0.4,10.1,0c4-0.4,6.2-2.6,6.2-6.6c0.4-13.2,0.4-25.6,0.9-37.5
		c0-3.5,0-14.6,0.4-60.4V10.1c-0.4-4-2.2-6.2-6.6-6.6c-0.4,0-3.5-0.4-9.3-0.9c-4.9-0.4-7.5,1.8-7.5,6.6c0,2.2,0,5.3,0,9.3
		s0,7.1,0,9.3L445,57.2L445,57.2L445,57.2z"/>
</g>
<g>
	<g>
		<path class="st2" d="M288.9,178.7c-3,0.3-5.5-1-7.6-3.7c-1.4-1.8-2.4-4.2-3-7.1c-0.8-4.4-0.3-8.6,1.6-12.7c0.9-2,2.3-3.7,4.1-5.2
			c0.2-0.1,0.4-0.3,0.5-0.3c2.7-1.4,5.4-1.8,7.9-1.2c0.6,0.1,1,0.4,1.4,0.7c0.2,0.2,0.3,0.5,0.2,0.7c-0.1,0.3-0.3,0.3-0.6,0.2
			c-0.6-0.2-1.7-0.4-3.2-0.4c-1.3,0-2.6,0.2-4,0.8c-1.5,0.7-2.8,1.8-3.9,3.4c-2.1,3.1-3,6.7-2.9,10.6c0.1,2.6,0.7,4.9,1.6,6.9
			c0.8,1.8,2,3.2,3.5,4.4c1.1,0.9,2.3,1.3,3.6,1.2c0.9,0,1.7,0,2.2-0.1c1.1-0.1,2-0.3,2.6-0.6c0.4-0.2,0.8-0.3,1.1-0.2
			c0.7,0.2,0.8,0.6,0.3,1.2c-0.2,0.2-0.4,0.3-0.7,0.5c-1,0.6-2.3,0.9-3.8,0.9L288.9,178.7z"/>
		<path class="st2" d="M299.5,161.6c0.6-2.8,2.4-4.5,5.3-5.1c1.6-0.3,3,0.1,4.5,1.4c1.4,1.2,2.4,2.6,2.8,4c0.4,1.4,0.6,2.8,0.7,4.3
			c0.1,2.5-0.1,4.6-0.6,6.2c-0.3,1.2-0.6,2-0.8,2.7c-0.8,2.1-2.4,3.4-4.8,4c-1.5,0.4-3.1-0.1-4.7-1.3c-1.4-1.1-2.3-2.8-2.7-5.2
			c-0.4-2-0.5-3.7-0.4-5.2C299,164.5,299.2,162.6,299.5,161.6z M311.3,165.2c0-1.6-0.4-3.1-1.3-4.5c-1.6-2.5-3.6-3.4-6-2.5
			c-0.7,0.3-1.3,0.6-1.8,1.1c-0.8,0.8-1.4,2-1.6,3.6c-0.4,3-0.5,5.5-0.3,7.7c0.2,1.3,0.5,2.5,0.9,3.6c0.6,1.3,1.4,2.3,2.5,2.9
			c3,1.5,5.1,0.7,6.3-2.5c1-2.5,1.4-4.9,1.3-7.4L311.3,165.2z"/>
		<path class="st2" d="M321.9,157.6c1.9-1.3,3.8-1.5,5.8-0.6c0.7,0.3,1.2,0.8,1.5,1.6c0.8,1.9,1.2,3.6,1.3,5.1l0,3.9
			c0,1.6,0,2.8,0,3.8c0,0.3,0,0.8,0,1.3c0.1,0.7,0.1,1.1,0.1,1.3c0.1,1.9,0.1,2.9,0.2,3.1c0.1,0.4,0.1,0.8,0,1.2
			c0,0.2-0.2,0.5-0.4,0.8c-0.3,0.4-0.6,0.3-0.8-0.2c-0.1-0.3-0.2-0.6-0.2-0.8c-0.1-1.4-0.1-2.7-0.1-3.7c0-1-0.1-2.5-0.1-4.7
			c0-2-0.1-3.5-0.1-4.7c0-2-0.4-3.8-1-5.2c-0.5-1.1-1.2-1.7-2.4-1.8c-0.8-0.1-1.5,0-2.3,0.4c-1.9,0.9-3.1,2.1-3.6,3.8
			c-0.1,0.4-0.2,1-0.2,1.6c0,4.2,0,7.3,0,9.5c0-0.9,0,0.6,0.2,4.6c0,0.4,0,0.9-0.1,1.3c0,0.1-0.2,0.3-0.4,0.4
			c-0.3,0.1-0.5,0-0.6-0.3c-0.2-0.6-0.3-1-0.3-1.4c-0.2-1.5-0.3-4.5-0.3-9.1c0-1.3,0-4.2,0-8.6l0-1.6c0-0.7,0-1.2,0-1.6
			c0-0.2,0-0.5,0.1-0.8c0.1-0.4,0.3-0.4,0.6-0.2c0.3,0.2,0.5,0.6,0.5,1.2c0,0.1,0.1,0.9,0.2,2.3
			C321.1,158.3,321.8,157.7,321.9,157.6z"/>
		<path class="st2" d="M340.6,157.6c1.9-1.3,3.8-1.5,5.8-0.6c0.7,0.3,1.2,0.8,1.5,1.6c0.8,1.9,1.2,3.6,1.3,5.1l0,3.9
			c0,1.6,0,2.8,0,3.8c0,0.3,0,0.8,0,1.3c0.1,0.7,0.1,1.1,0.1,1.3c0.1,1.9,0.1,2.9,0.2,3.1c0.1,0.4,0.1,0.8,0,1.2
			c0,0.2-0.2,0.5-0.4,0.8c-0.3,0.4-0.6,0.3-0.8-0.2c-0.1-0.3-0.2-0.6-0.2-0.8c-0.1-1.4-0.1-2.7-0.1-3.7c0-1-0.1-2.5-0.1-4.7
			c0-2-0.1-3.5-0.1-4.7c0-2-0.4-3.8-1-5.2c-0.5-1.1-1.2-1.7-2.4-1.8c-0.8-0.1-1.5,0-2.3,0.4c-1.9,0.9-3.1,2.1-3.6,3.8
			c-0.1,0.4-0.2,1-0.2,1.6c0,4.2,0,7.3,0,9.5c0-0.9,0,0.6,0.2,4.6c0,0.4,0,0.9-0.1,1.3c0,0.1-0.2,0.3-0.4,0.4
			c-0.3,0.1-0.5,0-0.6-0.3c-0.2-0.6-0.3-1-0.3-1.4c-0.2-1.5-0.3-4.5-0.3-9.1c0-1.3,0-4.2,0-8.6l0-1.6c0-0.7,0-1.2,0-1.6
			c0-0.2,0-0.5,0.1-0.8c0.1-0.4,0.3-0.4,0.6-0.2c0.3,0.2,0.5,0.6,0.5,1.2c0,0.1,0.1,0.9,0.2,2.3
			C339.7,158.3,340.5,157.7,340.6,157.6z"/>
		<path class="st2" d="M366.4,160.4c0.6,1.5,0.8,3,0.6,4.4c-0.2,1-0.3,1.6-0.3,1.8c-0.1,0.7-0.6,1.2-1.4,1.2
			c-0.9,0.1-1.6,0.1-1.9,0.1c-0.8,0-1.7,0-3,0c-1.5,0.1-2.5,0.1-3,0.1c-0.1,0-0.5,0.1-1.4,0.2c-0.2,1.3-0.1,2.4,0.3,3.3
			c0.7,1.8,1.3,3,2,3.7c0.6,0.7,1.4,1.2,2.4,1.5c1.7,0.5,3.2,0.3,4.5-0.5c0.4-0.3,0.9-0.1,1.4,0.4c-0.3,0.6-0.8,1-1.4,1.3
			c-4.2,1.8-7.3,0.6-9.3-3.7c-0.8-1.6-1.2-3.3-1.2-5c0-0.1,0-0.4-0.1-0.8v0c0,0.8,0.1,0.2,0.2-1.9c0.1-0.4,0.1-0.6,0.1-0.8
			c0-1.8,0.5-3.6,1.7-5.3c1.1-2,2.8-3,5-3.2c0.3,0,0.6,0,0.8,0.1c1.3,0.4,2.3,0.9,3,1.5C365.9,159.4,366.2,159.9,366.4,160.4z
			 M365.5,166.2c0.5-1.7,0.5-3.4-0.2-5.1c-0.1-0.4-0.3-0.7-0.6-0.8c-1-0.9-2.2-1.4-3.3-1.4c-1.6,0-2.8,0.7-3.7,2.1
			c-0.7,1.1-1.2,2.3-1.4,3.6c-0.2,1.1-0.3,1.8-0.2,2.1c2.9-0.1,4.4-0.1,4.7-0.2C364.7,166.1,366.3,166,365.5,166.2z"/>
		<path class="st2" d="M382.5,158.5c-0.2-0.1-0.3-0.1-0.4-0.1c-1.6-0.7-3.5-0.5-5.6,0.5c-0.3,0.1-0.7,0.4-1.1,0.8
			c-0.9,1-1.5,2.3-1.8,4c-0.3,1.8-0.5,3.2-0.5,4c0,2.5,0.4,4.6,1.3,6.2c1,1.8,2.6,3,4.8,3.6c1.3,0.4,2.4,0.3,3.5,0
			c0.5-0.2,0.9-0.1,1.3,0.2c0.1,0.5-0.1,0.9-0.6,1.1c-0.5,0.2-0.9,0.4-1.2,0.4c-3.5,0.4-6.4-0.9-8.6-3.7c-0.6-0.7-1-1.8-1.4-3.2
			c-0.7-3-0.7-6,0.1-9.1c0.4-1.5,0.9-2.6,1.5-3.5c0.6-0.8,1.2-1.4,1.9-1.8c2.6-1.5,5.2-1.5,7.6,0
			C383.1,158.3,382.9,158.6,382.5,158.5z"/>
		<path class="st2" d="M393.3,157c0.8,0,1.3,0,1.4,0c0.3,0.1,0.5,0.2,0.7,0.4c0.2,0.2,0.3,0.4,0.2,0.7c-0.1,0.3-0.3,0.4-0.5,0.4
			c-0.1,0-0.7,0-2,0c-0.1,0-0.5,0-1.4,0c-0.3,0.9-0.4,2.2-0.3,4c0.1,4,0.2,6.2,0.2,6.5c0,2.6,0.1,4.4,0.3,5.5
			c0.1,0.8,0.3,1.4,0.4,1.9c0.3,0.8,0.9,1.2,1.7,1.1c0.7-0.1,0.9-0.1,0.7-0.1c0.3,0,0.4,0.1,0.5,0.2c0.1,0.3,0.1,0.5,0,0.7
			c-0.3,0.3-0.5,0.5-0.8,0.6c-1.6,0.4-2.7-0.2-3.4-1.6c-0.4-0.8-0.6-1.7-0.7-2.7c-0.1-1.1-0.2-3.6-0.3-7.6c0-0.6-0.1-1.5-0.1-2.6
			c-0.1-1.2-0.1-2.1-0.1-2.6c0-0.1,0-1.1,0-3c-0.5-0.1-0.7-0.2-0.7-0.2c-0.2,0-0.6-0.1-1.1-0.1c-0.5,0-0.9-0.1-1.1-0.1
			c-0.7-0.1-0.8-0.5-0.5-1.4c3-0.2,4.1-0.2,3.5,0c0.3-0.7,0.4-1.7,0.3-3.1c-0.1-0.5-0.1-1.1-0.1-1.7c0-0.4,0.2-0.5,0.5-0.3
			c0.4,0.2,0.6,0.6,0.6,1.1c0,0.3,0.1,1.5,0.3,3.8C392,156.9,392.5,157,393.3,157z"/>
		<path class="st2" d="M427.5,173.1c0,0,0-0.1,0.1-0.2c0.2-0.9,0.5-2.1,0.8-3.6c0.4-1.8,0.7-3,0.8-3.6c0.6-2.6,1-4.3,1.3-5.2
			c0.1-0.6,0.5-1.8,1.1-3.6c0.1-0.4,0.4-0.5,0.8-0.4c0.5,0.1,0.6,0.4,0.6,0.9c0,0,0,0.1-0.1,0.4c-0.5,1.4-0.9,3.3-1.4,5.6
			c-0.1,0.6-0.3,1.4-0.6,2.3c-0.3,1.1-0.5,1.9-0.6,2.3c-0.2,0.7-0.4,1.7-0.7,3c-0.3,1.4-0.5,2.4-0.7,3c-0.3,1.4-0.6,2.7-1,3.9
			c-0.2,0.7-0.8,1.2-1.7,1.3c-0.3-0.5-0.5-0.8-0.5-0.8c-0.6-1.4-1.1-2.8-1.4-4.3c-0.1-0.3-0.9-3.3-2.5-9c-0.3-0.9-0.5-1.7-0.6-2.3
			c-0.2-0.7-0.6-1.9-1.3-3.6l-0.3,0.6c-0.5,3-0.7,4.5-0.6,4.4c0-0.1-0.5,2.4-1.4,7.4c-0.1,0.8-0.5,2.6-1.1,5.4
			c-0.1,0.4-0.2,0.7-0.4,1.1c-0.2,0.5-0.5,0.7-1,0.6c-0.9-0.2-1.4-0.6-1.6-1.2c-0.2-0.7-0.5-1.9-1-3.6c-0.6-2.1-1.2-3.8-1.6-5.1
			c-0.1-0.3-1.1-4-3-11.3c-0.1-0.4-0.1-0.8,0.2-1l0.4,0c0.1,0,0.3,0.1,0.7,0.3c1.1,4.4,1.6,6.7,1.7,7c0.3,1,1,3.4,2.2,7.2
			c-0.1-0.4,0.3,0.8,1.3,3.8c0,0.1,0.1,0.5,0.4,1.4c0.2-0.1,0.3-0.1,0.3-0.2c0.1-0.1,0.1-0.3,0.2-0.4c0.6-3.2,1.1-5.4,1.3-6.7
			c0.1-0.5,0.2-1.2,0.3-2c0.2-1,0.3-1.7,0.4-2c0-0.2,0.2-1.1,0.5-2.6c0.5-2.4,0.8-4,0.9-4.6c0,0,0.1-0.2,0.2-0.5
			c0.3-0.1,0.4-0.1,0.5-0.1c0.9,0,1.5,0.4,1.7,1.2c0.3,0.9,0.7,1.8,1.1,2.7c0.3,0.6,0.6,1.5,0.9,2.8c-0.1-0.4,0.8,3,2.7,10.3
			c0.2,0.7,0.3,1.3,0.5,1.8c0,0,0.2,0.2,0.4,0.6C427.2,174.2,427.5,173.1,427.5,173.1z"/>
		<path class="st2" d="M438.1,151.4c-0.3,0-0.5-0.1-0.8-0.3c-1.2-1-1.2-2.1,0.2-3.4c0.1-0.1,0.3-0.1,0.4-0.1
			c1.2,0.1,1.8,0.7,1.9,1.9C439.9,150.8,439.3,151.4,438.1,151.4z M438.8,168.1c0,0.7,0,1.8-0.1,3.2c-0.1,1.2,0,3.2,0.2,6.2
			c0,0,0.1,0.3,0.2,1c0.1,0.4-0.1,0.7-0.5,0.9c-0.4,0.2-0.7,0-0.9-0.4c-0.1-0.4-0.2-0.8-0.3-1.2c-0.1-3.1-0.1-5.2-0.1-6.4
			c0-5.5,0-8.5,0-8.8c-0.1-1.1-0.1-2.6-0.2-4.6c0-0.5,0-1,0-1.6c0.1-0.8,0.5-0.9,1.3-0.4C438.7,163,438.8,167,438.8,168.1z"/>
		<path class="st2" d="M449.7,157c0.8,0,1.3,0,1.4,0c0.3,0.1,0.5,0.2,0.7,0.4c0.2,0.2,0.3,0.4,0.2,0.7c-0.1,0.3-0.3,0.4-0.5,0.4
			c-0.1,0-0.7,0-2,0c-0.1,0-0.6,0-1.4,0c-0.3,0.9-0.4,2.2-0.3,4c0.1,4,0.2,6.2,0.2,6.5c0,2.6,0.1,4.4,0.3,5.5
			c0.1,0.8,0.3,1.4,0.4,1.9c0.3,0.8,0.9,1.2,1.7,1.1c0.7-0.1,0.9-0.1,0.7-0.1c0.3,0,0.4,0.1,0.5,0.2c0.1,0.3,0.1,0.5,0,0.7
			c-0.3,0.3-0.5,0.5-0.8,0.6c-1.6,0.4-2.7-0.2-3.4-1.6c-0.4-0.8-0.6-1.7-0.7-2.7c-0.1-1.1-0.2-3.6-0.3-7.6c0-0.6-0.1-1.5-0.1-2.6
			c-0.1-1.2-0.1-2.1-0.1-2.6c0-0.1,0-1.1,0-3c-0.5-0.1-0.7-0.2-0.7-0.2c-0.2,0-0.6-0.1-1.1-0.1c-0.5,0-0.9-0.1-1.1-0.1
			c-0.7-0.1-0.8-0.5-0.5-1.4c3-0.2,4.1-0.2,3.5,0c0.3-0.7,0.4-1.7,0.3-3.1c-0.1-0.5-0.1-1.1-0.1-1.7c0-0.4,0.2-0.5,0.6-0.3
			c0.4,0.2,0.6,0.6,0.6,1.1c0,0.3,0.1,1.5,0.3,3.8C448.4,156.9,448.9,157,449.7,157z"/>
		<path class="st2" d="M458.6,160.1C458.6,160.1,458.6,160.1,458.6,160.1c0.2-0.3,0.6-0.6,1-1c0.4-0.4,0.8-0.8,1-1
			c0.8-0.8,1.8-1.3,3-1.6c1-0.2,2,0,3,0.6c0,0,0.1,0.1,0.2,0.1c0.1,0.1,0.1,0.1,0.2,0.1c1.7,1,2.6,2.8,2.7,5.3c0.1,1,0.1,2.3,0,3.7
			c0,0.6-0.1,1.4-0.1,2.4c-0.1,1.2-0.1,2-0.2,2.4v2c-0.1,3.7-0.1,5.4-0.1,4.9c0,0.4-0.2,0.8-0.5,0.9c-0.4,0.2-0.6,0.1-0.7-0.3
			c-0.1-0.5-0.2-1-0.2-1.3c0-0.3,0-0.8,0-1.6c0-0.7,0-1.2,0-1.6c0,0.2,0.1-1.9,0.3-6.5c0.1-0.9,0.1-2.7,0-5.5c0-0.1-0.1-0.5-0.2-1.2
			c-0.2-1.5-1.1-2.5-2.5-3.2c-1.1-0.5-2.2-0.3-3.3,0.5c-1.3,1-2.5,2.3-3.6,3.9c-0.3,0.4-0.4,0.9-0.5,1.4c0,0.2,0,0.5,0,1
			c0,0.4,0,0.7,0,1c0,0.7,0,1.7,0,3c0.1,1.4,0.1,2.4,0.1,3.1c0,1,0,2.9,0,5.9c0,0.2,0,0.4,0,0.6c-0.1,0.4-0.4,0.6-0.8,0.6
			c-0.3,0-0.5-0.2-0.6-0.5c-0.1-0.4-0.1-0.8-0.1-1.2c-0.1-3.2-0.1-5.7-0.1-7.6c0-0.6,0-1.6,0-3l0-3.1c0-3.4-0.1-5.6-0.2-6.7
			c-0.1-1.5-0.1-3.9,0-7.3c0-1.2,0.1-2,0.1-2.4c0-0.4,0.1-0.7,0.1-1c0.1-0.3,0.3-0.4,0.6-0.3c0.3,0.1,0.4,0.2,0.5,0.4
			c0.1,0.1,0.1,0.4,0.1,0.8c0,0.4,0,1.3,0,2.7c0,1.2-0.1,2.1-0.1,2.8c0,0.1,0,0.8,0.1,2.1c0.1,2.8,0.1,4.6,0.2,5.2l0.1,0.7
			C458.4,160.3,458.6,160.1,458.6,160.1z"/>
		<path class="st2" d="M486.3,176.6c0.8,0.4,2,0.7,3.6,0.9c1.5,0.2,2.8-0.1,3.9-0.9c1.2-0.8,1.9-1.9,2-3.5l0-0.9
			c0.3-2-0.5-3.8-2.2-5.5c-0.2-0.2-1.2-1-3-2.5c-1.3-1.1-2.4-2.3-3.3-3.4c-0.7-0.9-1.1-1.9-1.3-2.9c-0.6-3-0.1-5.5,1.6-7.7
			c0.7-0.9,1.7-1.5,3-1.6c1.8-0.3,3.7,0,5.7,0.9c0.1,0,0.1,0.1,0.2,0.2c0.3,0.3,0.3,0.5,0.2,0.6c-0.2,0.2-0.4,0.3-0.6,0.3l-0.8-0.2
			c-1.6-0.5-3.2-0.6-4.7-0.4c-0.8,0.1-1.5,0.6-2,1.2c-1.5,1.9-1.8,4.3-0.9,7.2c0.1,0.2,0.3,0.6,0.8,1.2c1.1,1.5,2.6,3,4.6,4.6
			c1.2,1,1.9,1.6,2.1,1.8c1.4,1.5,2.1,3.1,2.2,4.9c0,0.8-0.1,1.8-0.2,2.9c-0.2,1.6-1,3-2.4,4c-1.5,1-3.2,1.4-5.2,1.2
			c-1.3-0.1-2.6-0.5-4.1-1.1c-0.5-0.2-0.8-0.6-0.9-1.3C485,176.3,485.6,176.3,486.3,176.6z"/>
		<path class="st2" d="M511.4,169.5c-2.5,0.1-4.4,0.3-5.7,0.4c-0.4,0.5-0.6,1-0.8,1.6c-0.9,3.1-1.3,4.3-1,3.4
			c-0.3,0.8-0.6,1.9-1,3.1c-0.1,0.3-0.3,0.6-0.4,0.9c-0.2,0.3-0.4,0.4-0.7,0.3c-0.3-0.1-0.5-0.4-0.5-0.7c0-0.2,0-0.4,0-0.6
			c0.5-1.5,1-3,1.5-4.6c2-6.2,3.1-9.4,3.2-9.7c0.9-2.8,1.8-5.5,2.8-8.1c0.2-0.4,1.1-2.5,2.7-6.1c0,0,0.2-0.4,0.6-1.2
			c0.4-0.1,0.8,0,1.1,0.4c0.1,0.2,0.3,0.4,0.3,0.6c0.7,1.8,1.2,3.2,1.4,4.2c0,0.1,0.5,2.4,1.6,7.1c0.6,2.5,0.8,3.4,0.6,2.6
			c0.4,1.7,0.9,3.4,1.4,5.2c0.5,1.7,1.1,3.8,1.8,6.2c0.1,0.3,0.4,1,0.8,2.2c0.2,0.6,0.2,1,0.1,1.3c-0.1,0.3-0.3,0.4-0.5,0.5
			c-0.3,0.1-0.5,0-0.6-0.3c-0.2-0.4-0.4-1-0.6-1.5c0.5,1.7-0.2-0.6-2.1-6.9l-0.3-0.8C515.9,169.3,514,169.4,511.4,169.5z
			 M513.7,167.9c0,0,0.8-0.1,2.3-0.2l0.6-0.1l0-0.2c-1.7-7.2-2.6-10.8-2.6-11c0.3,1.2,0-0.3-1-4.8c0,0-0.2-0.4-0.4-1.2
			c-0.5,0.7-1,1.8-1.6,3.3c-1.5,3.7-2.9,7.8-4.3,12.2c0,0.1-0.3,0.8-0.8,2.4C511.1,168.1,513.7,167.9,513.7,167.9z"/>
		<path class="st2" d="M527,147.2c-0.5,1.4-0.9,3.4-1.4,6c-0.1,0.3-0.2,0.7-0.3,1.2c0,0.2-0.1,0.3-0.1,0.4c-0.3,0.5-0.6,0.7-1.1,0.4
			c-0.3-0.2-0.4-0.5-0.3-0.8c0.5-2,0.9-3.7,1.2-5.3c0.1-0.4,0.3-1.2,0.7-2.5c0.1-0.2,0.1-0.5,0.2-0.7c0.2-0.4,0.5-0.5,0.8-0.2
			c0,0,0.2,0.3,0.5,0.7C527.1,146.9,527,147.2,527,147.2z"/>
		<path class="st2" d="M536.7,156.7c0.7-0.1,1.7,0.2,2.9,0.9c0.4,0.3,0.5,0.6,0.3,0.9c-0.2,0.3-0.5,0.4-0.9,0.1
			c-0.6-0.4-1.5-0.5-2.9-0.5c-1.1,0.1-2.1,0.6-2.9,1.6c-0.5,0.6-0.7,1.6-0.8,3.1c0,0.3,0.2,0.7,0.6,1.2c0.4,0.4,0.9,0.8,1.4,1.1
			c1.3,0.7,2.9,2.1,4.9,4c1.6,1.6,2,3.6,1.2,6c-0.7,2.3-2.4,3.7-4.9,4.3c-0.5,0.1-1,0.1-1.8-0.2c-0.5-0.2-1.6-0.6-3.3-1.3
			c-0.1-0.1-0.3-0.2-0.4-0.4c-0.2-0.2-0.3-0.5-0.1-0.8c0.1-0.2,0.3-0.3,0.6-0.3c0.7,0.2,1.1,0.4,1.4,0.4c0.2,0.1,0.4,0.1,0.7,0.3
			c0.3,0.1,0.5,0.3,0.6,0.3c1.6,0.6,3,0.4,4.4-0.7c1.4-1.1,1.9-2.5,1.7-4.3c-0.1-0.8-0.4-1.6-1.1-2.2c-0.9-0.8-2-1.8-3.3-2.9
			c-0.7-0.6-1.5-1.2-2.3-1.7c-1.2-0.7-1.7-2-1.6-3.8c0.1-3.2,1.8-5,5-5.2L536.7,156.7L536.7,156.7z"/>
		<path class="st2" d="M566.6,160.4c0.6,1.5,0.8,3,0.6,4.4c-0.2,1-0.3,1.6-0.3,1.8c-0.1,0.7-0.6,1.2-1.4,1.2
			c-0.9,0.1-1.6,0.1-1.9,0.1c-0.8,0-1.7,0-3,0c-1.5,0.1-2.5,0.1-3,0.1c-0.1,0-0.5,0.1-1.4,0.2c-0.2,1.3-0.1,2.4,0.3,3.3
			c0.7,1.8,1.3,3,2,3.7c0.6,0.7,1.4,1.2,2.4,1.5c1.7,0.5,3.2,0.3,4.5-0.5c0.5-0.3,0.9-0.1,1.4,0.4c-0.3,0.6-0.8,1-1.4,1.3
			c-4.2,1.8-7.3,0.6-9.3-3.7c-0.8-1.6-1.2-3.3-1.2-5c0-0.1,0-0.4-0.1-0.8v0c0,0.8,0.1,0.2,0.2-1.9c0.1-0.4,0.1-0.6,0.1-0.8
			c0-1.8,0.5-3.6,1.7-5.3c1.1-2,2.8-3,5-3.2c0.3,0,0.6,0,0.8,0.1c1.3,0.4,2.3,0.9,3,1.5C566,159.4,566.4,159.9,566.6,160.4z
			 M565.7,166.2c0.5-1.7,0.5-3.4-0.2-5.1c-0.1-0.4-0.3-0.7-0.5-0.8c-1-0.9-2.2-1.4-3.3-1.4c-1.6,0-2.8,0.7-3.7,2.1
			c-0.7,1.1-1.2,2.3-1.4,3.6c-0.2,1.1-0.3,1.8-0.2,2.1c2.9-0.1,4.4-0.1,4.7-0.2C564.9,166.1,566.4,166,565.7,166.2z"/>
		<path class="st2" d="M576.3,157.6c1.9-1.3,3.8-1.5,5.8-0.6c0.7,0.3,1.2,0.8,1.5,1.6c0.8,1.9,1.2,3.6,1.3,5.1l0,3.9
			c0,1.6,0,2.8,0,3.8c0,0.3,0,0.8,0,1.3c0.1,0.7,0.1,1.1,0.1,1.3c0.1,1.9,0.1,2.9,0.2,3.1c0.1,0.4,0.1,0.8,0,1.2
			c0,0.2-0.2,0.5-0.4,0.8c-0.3,0.4-0.6,0.3-0.8-0.2c-0.1-0.3-0.2-0.6-0.2-0.8c-0.1-1.4-0.1-2.7-0.1-3.7c0-1-0.1-2.5-0.1-4.7
			c0-2-0.1-3.5-0.1-4.7c0-2-0.4-3.8-1-5.2c-0.5-1.1-1.2-1.7-2.4-1.8c-0.8-0.1-1.5,0-2.3,0.4c-1.9,0.9-3.1,2.1-3.6,3.8
			c-0.1,0.4-0.2,1-0.2,1.6c0,4.2,0,7.3,0,9.5c0-0.9,0,0.6,0.2,4.6c0,0.4,0,0.9-0.1,1.3c0,0.1-0.2,0.3-0.4,0.4
			c-0.3,0.1-0.5,0-0.6-0.3c-0.2-0.6-0.3-1-0.3-1.4c-0.2-1.5-0.3-4.5-0.3-9.1c0-1.3,0-4.2,0-8.6l0-1.6c0-0.7,0-1.2,0-1.6
			c0-0.2,0-0.5,0.1-0.8c0.1-0.4,0.3-0.4,0.6-0.2c0.3,0.2,0.5,0.6,0.5,1.2c0,0.1,0.1,0.9,0.2,2.3
			C575.4,158.3,576.2,157.7,576.3,157.6z"/>
		<path class="st2" d="M596.7,174.6c0.2-0.5,0.3-1.1,0.5-1.9c0.4-1.8,0.9-3.8,1.6-6.2c0.1-0.1,0.9-3.1,2.7-8.9
			c0.2-0.6,0.3-1,0.4-1.3c0.2-0.4,0.5-0.5,0.8-0.2c0.1,0.1,0.1,0.1,0.2,0.2c0,0,0.1,0.1,0.3,0.4c-0.1,0.4-0.3,0.8-0.3,1.1
			c-1.1,3.8-1.7,6-1.9,6.5c-0.5,1.9-0.7,2.5-0.5,1.8c-1.5,5.8-2.2,8.3-2,7.7c-0.1,0.3-0.5,1.5-1.1,3.5c-0.1,0.1-0.2,0.3-0.3,0.7
			c-0.2,0.4-0.5,0.5-0.9,0.5c-0.5,0-0.7-0.2-0.9-0.6c-1.1-3.2-1.7-5-1.9-5.3c0,0.1-1-3.7-3.1-11.4c-0.1-0.3-0.3-0.8-0.4-1.3
			c-0.2-0.7-0.3-1.1-0.4-1.4c-0.2-0.5-0.3-1-0.4-1.4c-0.1-0.5,0-0.8,0.3-0.8c0.3-0.1,0.6,0.1,0.8,0.5c0.4,1,0.6,1.6,0.8,2
			c0.1,0.3,0.5,2,1.4,5.3c0.1,0.3,0.1,0.5,0.2,0.6c0.4,1,0.8,2.4,1.3,4.2c0.5,2,0.9,3.4,1.2,4.2c0.8,2.4,1.2,3.4,1,2.9l0.2,0.2
			C596.1,176,596.3,175.5,596.7,174.6z"/>
		<path class="st2" d="M608.1,151.4c-0.3,0-0.5-0.1-0.8-0.3c-1.2-1-1.2-2.1,0.2-3.4c0.1-0.1,0.3-0.1,0.4-0.1
			c1.2,0.1,1.8,0.7,1.9,1.9C609.8,150.8,609.3,151.4,608.1,151.4z M608.8,168.1c0,0.7,0,1.8-0.1,3.2c-0.1,1.2,0,3.2,0.2,6.2
			c0,0,0.1,0.3,0.2,1c0.1,0.4-0.1,0.7-0.5,0.9c-0.4,0.2-0.7,0-0.9-0.4c-0.1-0.4-0.2-0.8-0.3-1.2c-0.1-3.1-0.1-5.2-0.1-6.4
			c0-5.5,0-8.5,0-8.8c-0.1-1.1-0.1-2.6-0.2-4.6c0-0.5,0-1,0-1.6c0.1-0.8,0.5-0.9,1.3-0.4C608.6,163,608.8,167,608.8,168.1z"/>
		<path class="st2" d="M616.2,159.4c0.2,0.1,0.4,0,0.6-0.2c0.6-0.8,0.9-1.2,0.9-1.1c1.2-1.3,2.6-1.8,4.2-1.4
			c0.4,0.1,0.6,0.3,0.5,0.6c0,0.2-0.1,0.4-0.3,0.7c-0.1,0.1-0.2,0.1-0.4,0.2c-0.2,0-0.4,0-0.5,0c-1-0.1-1.9,0.3-2.7,1.2
			c-0.5,0.6-1.2,1.8-2,3.4c-0.1,0.1-0.1,0.5,0,1.2c0.2,4.4,0.3,6.2,0.3,5.2c0,0.7,0,1.5,0,2.7l0,2.7c0,1.1,0,2.4,0.1,3.7
			c0,0.4-0.1,0.6-0.3,0.8c-0.3,0.4-0.6,0.4-0.9,0.3c-0.3-0.1-0.4-0.4-0.4-0.7c-0.1-1.6-0.1-3,0-4.3c0.1-3.6,0-7.5-0.4-11.7
			c0-0.3-0.1-1.8-0.2-4.6c0-0.2,0-0.4,0-0.6c0.1-0.4,0.3-0.6,0.7-0.5c0,0,0.2,0.1,0.5,0.3C616.1,157.7,616.2,158.6,616.2,159.4z"/>
		<path class="st2" d="M625.9,161.6c0.6-2.8,2.4-4.5,5.3-5.1c1.6-0.3,3,0.1,4.5,1.4c1.4,1.2,2.4,2.6,2.8,4c0.4,1.4,0.6,2.8,0.7,4.3
			c0.1,2.5-0.1,4.6-0.5,6.2c-0.3,1.2-0.6,2-0.8,2.7c-0.8,2.1-2.4,3.4-4.8,4c-1.5,0.4-3.1-0.1-4.7-1.3c-1.4-1.1-2.3-2.8-2.7-5.2
			c-0.4-2-0.5-3.7-0.4-5.2C625.4,164.5,625.7,162.6,625.9,161.6z M637.8,165.2c0-1.6-0.4-3.1-1.3-4.5c-1.6-2.5-3.6-3.4-6-2.5
			c-0.7,0.3-1.3,0.6-1.8,1.1c-0.8,0.8-1.4,2-1.6,3.6c-0.4,3-0.5,5.5-0.3,7.7c0.2,1.3,0.5,2.5,0.9,3.6c0.6,1.3,1.4,2.3,2.5,2.9
			c3,1.5,5.1,0.7,6.3-2.5c1-2.5,1.4-4.9,1.3-7.4L637.8,165.2z"/>
		<path class="st2" d="M648.4,157.6c1.9-1.3,3.8-1.5,5.8-0.6c0.7,0.3,1.2,0.8,1.5,1.6c0.8,1.9,1.2,3.6,1.3,5.1l0,3.9
			c0,1.6,0,2.8,0,3.8c0,0.3,0,0.8,0,1.3c0.1,0.7,0.1,1.1,0.1,1.3c0.1,1.9,0.1,2.9,0.2,3.1c0.1,0.4,0.1,0.8,0,1.2
			c0,0.2-0.2,0.5-0.4,0.8c-0.3,0.4-0.6,0.3-0.8-0.2c-0.1-0.3-0.2-0.6-0.2-0.8c-0.1-1.4-0.1-2.7-0.1-3.7c0-1-0.1-2.5-0.1-4.7
			c0-2-0.1-3.5-0.1-4.7c0-2-0.4-3.8-1-5.2c-0.5-1.1-1.2-1.7-2.4-1.8c-0.8-0.1-1.5,0-2.3,0.4c-1.9,0.9-3.1,2.1-3.6,3.8
			c-0.1,0.4-0.2,1-0.2,1.6c0,4.2,0,7.3,0,9.5c0-0.9,0,0.6,0.2,4.6c0,0.4,0,0.9-0.1,1.3c0,0.1-0.2,0.3-0.4,0.4
			c-0.3,0.1-0.5,0-0.6-0.3c-0.2-0.6-0.3-1-0.3-1.4c-0.2-1.5-0.3-4.5-0.3-9.1c0-1.3,0-4.2,0-8.6l0-1.6c0-0.7,0-1.2,0-1.6
			c0-0.2,0-0.5,0.1-0.8c0.1-0.4,0.3-0.4,0.6-0.2c0.3,0.2,0.5,0.6,0.5,1.2c0,0.1,0.1,0.9,0.2,2.3
			C647.5,158.3,648.3,157.7,648.4,157.6z"/>
		<path class="st2" d="M673.8,168.3c0.1-2.7,0-5.3-0.3-7.6c-0.2-1.5-0.9-2.4-2.2-2.8c-1.4-0.3-2.5-0.1-3.4,0.7
			c-1.4,1.2-2.4,2.7-3,4.6c-0.1,0.3-0.1,1-0.1,2c0,4,0.1,7.5,0.1,10.4c0,0.3,0,0.7,0.1,1.2c0.1,0.6,0.1,1,0.1,1.2
			c0,0.4-0.1,0.7-0.2,1c-0.1,0.2-0.3,0.3-0.5,0.4c-0.3,0-0.5-0.2-0.6-0.5c0-0.1,0-0.3,0-0.4c-0.1-2.1-0.1-3.4-0.1-4
			c-0.1-6.5-0.2-11.2-0.2-14.2c0-0.6,0-1.8,0.1-3.6c0-0.3,0.1-0.5,0.4-0.4c0.2,0,0.4,0.1,0.6,0.3c0.1,0.1,0.1,0.2,0.1,0.4
			c0-0.4,0-0.1,0,0.9c0,0.9,0.1,1.5,0.3,2c1-1.2,1.5-1.8,1.6-1.9c0.5-0.5,1-0.9,1.6-1.3c0.7-0.4,1.5-0.6,2.6-0.5
			c2,0.1,3.4,1.3,4.2,3.7c0.9-1.1,1.3-1.7,1.4-1.7c0.6-0.8,1.4-1.4,2.5-1.7c2.5-0.9,4.5-0.2,5.8,2c0.8,1.4,1.2,2.8,1.2,4.3l0,3.6
			c0,1,0,2.5,0,4.3c0,2-0.1,3.4-0.1,4.3c0,2.8,0,3.8,0,3c0,0.8-0.3,1.1-0.8,1c-0.4-0.1-0.6-0.4-0.6-1c0-0.2,0-0.5,0-0.8
			c0-0.4,0-0.7,0-0.8c0.1-5.2,0.2-9.8,0.2-13.7c0-1.8-0.6-3.3-1.9-4.4c-0.4-0.4-1-0.6-1.7-0.7c-1.6-0.1-3,0.5-4.2,2
			c-0.2,0.2-0.7,1.2-1.6,3c-0.1,0.1-0.1,0.5-0.1,1c0.1,3,0.1,4.4,0.1,4c0,0.8,0,1.9,0,3.3c-0.1,1.7-0.1,2.8-0.1,3.3
			c0-0.3,0,0.6,0,2.8c0,0.1,0,0.5,0,1.2c0,0.4-0.2,0.7-0.5,0.8c-0.2,0.1-0.5,0-0.8-0.4C673.6,178.1,673.6,174.6,673.8,168.3z"/>
		<path class="st2" d="M702.6,160.4c0.6,1.5,0.8,3,0.6,4.4c-0.2,1-0.3,1.6-0.3,1.8c-0.1,0.7-0.6,1.2-1.4,1.2
			c-0.9,0.1-1.5,0.1-1.9,0.1c-0.8,0-1.7,0-3,0c-1.5,0.1-2.5,0.1-3,0.1c-0.1,0-0.5,0.1-1.4,0.2c-0.2,1.3-0.1,2.4,0.3,3.3
			c0.7,1.8,1.3,3,2,3.7c0.6,0.7,1.4,1.2,2.4,1.5c1.7,0.5,3.2,0.3,4.5-0.5c0.5-0.3,0.9-0.1,1.4,0.4c-0.3,0.6-0.8,1-1.4,1.3
			c-4.2,1.8-7.3,0.6-9.3-3.7c-0.8-1.6-1.2-3.3-1.2-5c0-0.1,0-0.4-0.1-0.8v0c0,0.8,0.1,0.2,0.2-1.9c0.1-0.4,0.1-0.6,0.1-0.8
			c0-1.8,0.5-3.6,1.7-5.3c1.1-2,2.8-3,5-3.2c0.3,0,0.6,0,0.8,0.1c1.3,0.4,2.3,0.9,3,1.5C702,159.4,702.4,159.9,702.6,160.4z
			 M701.7,166.2c0.5-1.7,0.5-3.4-0.2-5.1c-0.1-0.4-0.3-0.7-0.5-0.8c-1-0.9-2.2-1.4-3.3-1.4c-1.6,0-2.8,0.7-3.7,2.1
			c-0.7,1.1-1.2,2.3-1.4,3.6c-0.2,1.1-0.3,1.8-0.2,2.1c2.9-0.1,4.4-0.1,4.7-0.2C700.9,166.1,702.4,166,701.7,166.2z"/>
		<path class="st2" d="M712.2,157.6c1.9-1.3,3.8-1.5,5.8-0.6c0.7,0.3,1.2,0.8,1.5,1.6c0.8,1.9,1.2,3.6,1.3,5.1l0,3.9
			c0,1.6,0,2.8,0,3.8c0,0.3,0,0.8,0,1.3c0.1,0.7,0.1,1.1,0.1,1.3c0.1,1.9,0.1,2.9,0.2,3.1c0.1,0.4,0.1,0.8,0,1.2
			c0,0.2-0.2,0.5-0.4,0.8c-0.3,0.4-0.6,0.3-0.8-0.2c-0.1-0.3-0.2-0.6-0.2-0.8c-0.1-1.4-0.1-2.7-0.1-3.7c0-1-0.1-2.5-0.1-4.7
			c0-2-0.1-3.5-0.1-4.7c0-2-0.4-3.8-1-5.2c-0.5-1.1-1.2-1.7-2.4-1.8c-0.8-0.1-1.5,0-2.3,0.4c-1.9,0.9-3.1,2.1-3.6,3.8
			c-0.1,0.4-0.2,1-0.2,1.6c0,4.2,0,7.3,0,9.5c0-0.9,0,0.6,0.2,4.6c0,0.4,0,0.9-0.1,1.3c0,0.1-0.2,0.3-0.4,0.4
			c-0.3,0.1-0.5,0-0.6-0.3c-0.2-0.6-0.3-1-0.3-1.4c-0.2-1.5-0.3-4.5-0.3-9.1c0-1.3,0-4.2,0-8.6l0-1.6c0-0.7,0-1.2,0-1.6
			c0-0.2,0-0.5,0.1-0.8c0.1-0.4,0.3-0.4,0.6-0.2c0.3,0.2,0.5,0.6,0.5,1.2c0,0.1,0.1,0.9,0.2,2.3
			C711.4,158.3,712.2,157.7,712.2,157.6z"/>
	</g>
	<g>
		<path class="st2" d="M730.4,156c0.9,0,1.3,0,1.5,0c0.3,0.1,0.5,0.2,0.8,0.4c0.2,0.2,0.3,0.5,0.2,0.7c-0.1,0.3-0.3,0.4-0.5,0.4
			c-0.1,0-0.8,0-2.1,0c-0.1,0-0.6,0-1.5,0c-0.3,0.9-0.4,2.3-0.3,4.2c0.1,4.2,0.2,6.5,0.2,6.8c0,2.7,0.1,4.6,0.3,5.7
			c0.1,0.8,0.3,1.5,0.4,2c0.3,0.8,0.9,1.2,1.8,1.2c0.7-0.1,1-0.1,0.8-0.1c0.3,0,0.4,0.1,0.5,0.2c0.1,0.3,0.1,0.6,0,0.7
			c-0.3,0.3-0.5,0.5-0.8,0.6c-1.7,0.4-2.9-0.2-3.5-1.7c-0.4-0.8-0.6-1.8-0.8-2.8c-0.1-1.2-0.2-3.8-0.3-7.9c0-0.6-0.1-1.5-0.1-2.7
			c-0.1-1.2-0.1-2.2-0.1-2.7c0-0.1,0-1.2,0-3.2c-0.5-0.1-0.7-0.2-0.8-0.2c-0.2,0-0.6-0.1-1.2-0.1c-0.5,0-0.9-0.1-1.2-0.1
			c-0.7-0.1-0.9-0.6-0.5-1.4c3.1-0.2,4.3-0.2,3.7,0c0.3-0.7,0.4-1.8,0.3-3.2c-0.1-0.5-0.1-1.1-0.1-1.8c0-0.4,0.2-0.5,0.6-0.3
			c0.4,0.2,0.6,0.6,0.7,1.1c0,0.3,0.1,1.6,0.3,4C729.1,155.9,729.6,156,730.4,156z"/>
	</g>
</g>
</svg>
