<?xml version="1.0" encoding="utf-8"?>
<!-- Generator: Adobe Illustrator 18.0.0, SVG Export Plug-In . SVG Version: 6.00 Build 0)  -->
<!DOCTYPE svg PUBLIC "-//W3C//DTD SVG 1.1//EN" "http://www.w3.org/Graphics/SVG/1.1/DTD/svg11.dtd">
<svg version="1.1" id="Layer_1" xmlns="http://www.w3.org/2000/svg" xmlns:xlink="http://www.w3.org/1999/xlink" x="0px" y="0px"
	 width="93px" height="72px" viewBox="0 0 93 72" enable-background="new 0 0 93 72" xml:space="preserve">
<path fill="#FFFFFF" d="M28.57,37.749c-0.381-0.175-0.878-0.261-1.276-0.261c-1.155,0-1.793,0.776-1.793,1.785
	c0,1.001,0.624,1.756,1.68,1.756c0.271,0,0.482-0.029,0.655-0.07v-1.285h-1.052v-0.775h2v2.651
	c-0.525,0.142-1.069,0.255-1.603,0.255c-1.601,0-2.712-0.797-2.712-2.462c0-1.686,1.033-2.631,2.712-2.631
	c0.575,0,1.029,0.079,1.454,0.205L28.57,37.749z"/>
<path fill="#FFFFFF" d="M31.628,41.07c0.73,0,0.922-0.647,0.922-1.255c0-0.557-0.298-1.079-0.922-1.079
	c-0.617,0-0.915,0.536-0.915,1.079C30.713,40.415,30.904,41.07,31.628,41.07 M31.628,38.003c1.084,0,1.913,0.726,1.913,1.925
	c0,1.044-0.702,1.876-1.913,1.876c-1.205,0-1.908-0.832-1.908-1.876C29.719,38.729,30.551,38.003,31.628,38.003"/>
<polygon fill="#FFFFFF" points="34.131,38.086 35.152,38.086 36.059,40.733 36.074,40.733 36.953,38.086 37.904,38.086 
	36.554,41.719 35.485,41.719 "/>
<path fill="#FFFFFF" d="M41.159,39.546c-0.029-0.457-0.241-0.852-0.774-0.852c-0.531,0-0.802,0.366-0.843,0.852H41.159z
	 M41.797,41.515c-0.349,0.19-0.744,0.289-1.256,0.289c-1.205,0-1.907-0.691-1.907-1.882c0-1.051,0.56-1.918,1.695-1.918
	c1.354,0,1.736,0.924,1.736,2.193h-2.523c0.041,0.585,0.455,0.916,1.043,0.916c0.46,0,0.858-0.169,1.212-0.367V41.515z"/>
<path fill="#FFFFFF" d="M43.116,38.086h0.844v0.826h0.014c0.044-0.339,0.433-0.91,0.999-0.91c0.092,0,0.192,0,0.293,0.029v0.952
	c-0.087-0.05-0.256-0.079-0.427-0.079c-0.773,0-0.773,0.96-0.773,1.481v1.333h-0.95V38.086z"/>
<path fill="#FFFFFF" d="M46.279,38.086h0.901v0.495h0.015c0.298-0.416,0.701-0.579,1.197-0.579c0.864,0,1.24,0.607,1.24,1.425v2.292
	h-0.949v-1.94c0-0.445-0.008-1.044-0.618-1.044c-0.687,0-0.835,0.741-0.835,1.206v1.777h-0.951V38.086z"/>
<path fill="#FFFFFF" d="M50.988,38.086h0.887v0.509h0.014c0.296-0.445,0.729-0.592,1.084-0.592c0.51,0,0.872,0.19,1.078,0.642
	c0.22-0.439,0.695-0.642,1.141-0.642c0.901,0,1.156,0.614,1.156,1.425v2.292h-0.951v-2.166c0-0.337,0-0.817-0.545-0.817
	c-0.632,0-0.709,0.747-0.709,1.22v1.763h-0.95v-2.166c0-0.337,0-0.817-0.545-0.817c-0.632,0-0.711,0.747-0.711,1.22v1.763h-0.948
	V38.086z"/>
<path fill="#FFFFFF" d="M59.879,39.546c-0.026-0.457-0.241-0.852-0.773-0.852c-0.531,0-0.8,0.366-0.842,0.852H59.879z
	 M60.517,41.515c-0.347,0.19-0.744,0.289-1.255,0.289c-1.204,0-1.906-0.691-1.906-1.882c0-1.051,0.559-1.918,1.694-1.918
	c1.356,0,1.737,0.924,1.737,2.193h-2.523c0.041,0.585,0.452,0.916,1.04,0.916c0.461,0,0.859-0.169,1.212-0.367V41.515z"/>
<path fill="#FFFFFF" d="M61.818,38.086h0.899v0.495h0.014c0.298-0.416,0.702-0.579,1.198-0.579c0.866,0,1.24,0.607,1.24,1.425v2.292
	h-0.95v-1.94c0-0.445-0.008-1.044-0.616-1.044c-0.687,0-0.838,0.741-0.838,1.206v1.777h-0.948V38.086z"/>
<path fill="#FFFFFF" d="M66.675,38.778h-0.702v-0.692h0.702v-0.725l0.95-0.304v1.029h0.844v0.692h-0.844v1.692
	c0,0.311,0.085,0.6,0.446,0.6c0.17,0,0.333-0.035,0.432-0.099l0.029,0.747c-0.199,0.056-0.42,0.085-0.701,0.085
	c-0.744,0-1.156-0.459-1.156-1.178V38.778z"/>
<path fill="#FFFFFF" d="M15.793,47.991c0.73,0,0.921-0.646,0.921-1.253c0-0.557-0.298-1.08-0.921-1.08
	c-0.618,0-0.915,0.536-0.915,1.08C14.879,47.336,15.07,47.991,15.793,47.991 M15.793,44.924c1.084,0,1.913,0.727,1.913,1.926
	c0,1.045-0.702,1.875-1.913,1.875c-1.206,0-1.907-0.83-1.907-1.875C13.886,45.652,14.715,44.924,15.793,44.924"/>
<path fill="#FFFFFF" d="M19.083,45.701h-0.701V45.01h0.701v-0.509c0-0.725,0.412-1.232,1.163-1.232c0.24,0,0.511,0.034,0.693,0.076
	l-0.077,0.782c-0.087-0.049-0.207-0.125-0.412-0.125c-0.318,0-0.418,0.274-0.418,0.555v0.452h0.83v0.691h-0.83v2.941h-0.95V45.701z"
	/>
<path fill="#FFFFFF" d="M26.776,44.623c-0.31-0.135-0.658-0.211-1.005-0.211c-0.34,0-0.78,0.146-0.78,0.684
	c0,0.854,2.168,0.492,2.168,2.142c0,1.081-0.856,1.488-1.857,1.488c-0.539,0-0.78-0.07-1.268-0.19l0.092-0.889
	c0.34,0.182,0.73,0.304,1.118,0.304c0.377,0,0.881-0.191,0.881-0.635c0-0.939-2.17-0.551-2.17-2.18c0-1.099,0.858-1.501,1.73-1.501
	c0.426,0,0.823,0.056,1.183,0.175L26.776,44.623z"/>
<path fill="#FFFFFF" d="M29.932,47.991c0.731,0,0.921-0.646,0.921-1.253c0-0.557-0.298-1.08-0.921-1.08
	c-0.618,0-0.915,0.536-0.915,1.08C29.018,47.336,29.21,47.991,29.932,47.991 M29.932,44.924c1.084,0,1.913,0.727,1.913,1.926
	c0,1.045-0.701,1.875-1.913,1.875c-1.206,0-1.906-0.83-1.906-1.875C28.027,45.652,28.854,44.924,29.932,44.924"/>
<path fill="#FFFFFF" d="M36.229,48.642h-0.901v-0.495h-0.014c-0.291,0.354-0.701,0.579-1.197,0.579c-0.866,0-1.24-0.606-1.24-1.422
	V45.01h0.949v1.94c0,0.444,0.008,1.042,0.617,1.042c0.689,0,0.837-0.741,0.837-1.205V45.01h0.95V48.642z"/>
<path fill="#FFFFFF" d="M37.806,45.701h-0.704V45.01h0.704v-0.726l0.948-0.302v1.029h0.844v0.691h-0.844v1.692
	c0,0.311,0.085,0.599,0.447,0.599c0.17,0,0.333-0.034,0.433-0.096l0.026,0.746c-0.199,0.056-0.417,0.084-0.701,0.084
	c-0.744,0-1.154-0.457-1.154-1.177V45.701z"/>
<path fill="#FFFFFF" d="M40.535,43.354h0.95v2.15h0.014c0.242-0.351,0.653-0.579,1.149-0.579c0.864,0,1.24,0.607,1.24,1.425v2.292
	h-0.95v-1.94c0-0.442-0.006-1.044-0.617-1.044c-0.689,0-0.837,0.74-0.837,1.206v1.777h-0.95V43.354z"/>
<path fill="#FFFFFF" d="M49.456,44.707h-0.015l-0.716,2.032h1.447L49.456,44.707z M48.909,43.721h1.121l1.942,4.921h-1.099
	l-0.426-1.13h-2.006l-0.431,1.13h-1.028L48.909,43.721z"/>
<path fill="#FFFFFF" d="M56.164,48.642h-0.9v-0.495h-0.014c-0.291,0.354-0.704,0.579-1.2,0.579c-0.866,0-1.24-0.606-1.24-1.422
	V45.01h0.95v1.94c0,0.444,0.006,1.042,0.616,1.042c0.688,0,0.839-0.741,0.839-1.205V45.01h0.949V48.642z"/>
<path fill="#FFFFFF" d="M59.596,45.771c-0.29-0.096-0.503-0.155-0.851-0.155c-0.254,0-0.559,0.092-0.559,0.402
	c0,0.579,1.652,0.211,1.652,1.523c0,0.846-0.759,1.183-1.531,1.183c-0.362,0-0.731-0.062-1.078-0.155l0.057-0.774
	c0.298,0.147,0.609,0.237,0.936,0.237c0.24,0,0.623-0.09,0.623-0.442c0-0.711-1.651-0.225-1.651-1.537
	c0-0.784,0.687-1.13,1.432-1.13c0.446,0,0.737,0.072,1.034,0.135L59.596,45.771z"/>
<path fill="#FFFFFF" d="M61.171,45.701h-0.702V45.01h0.702v-0.726l0.95-0.302v1.029h0.844v0.691h-0.844v1.692
	c0,0.311,0.085,0.599,0.446,0.599c0.17,0,0.334-0.034,0.435-0.096l0.026,0.746c-0.199,0.056-0.417,0.084-0.701,0.084
	c-0.744,0-1.156-0.457-1.156-1.177V45.701z"/>
<path fill="#FFFFFF" d="M63.923,45.01h0.844v0.826h0.012c0.044-0.34,0.433-0.911,1-0.911c0.093,0,0.191,0,0.293,0.029v0.952
	c-0.087-0.05-0.256-0.077-0.426-0.077c-0.774,0-0.774,0.959-0.774,1.481v1.332h-0.95V45.01z"/>
<path fill="#FFFFFF" d="M68.221,48.034c0.289,0,0.516-0.126,0.665-0.324c0.156-0.202,0.2-0.466,0.2-0.747h-0.412
	c-0.426,0-1.055,0.07-1.055,0.627C67.618,47.902,67.881,48.034,68.221,48.034 M67.107,45.201c0.368-0.171,0.864-0.276,1.269-0.276
	c1.113,0,1.573,0.459,1.573,1.532v0.464c0,0.366,0.009,0.641,0.015,0.909c0.008,0.277,0.021,0.531,0.043,0.812H69.17
	c-0.036-0.191-0.036-0.43-0.043-0.542h-0.014c-0.22,0.401-0.696,0.626-1.127,0.626c-0.647,0-1.276-0.387-1.276-1.079
	c0-0.542,0.263-0.86,0.623-1.037c0.362-0.175,0.83-0.211,1.227-0.211h0.525c0-0.585-0.264-0.784-0.823-0.784
	c-0.405,0-0.808,0.156-1.128,0.396L67.107,45.201z"/>
<rect x="71.193" y="43.354" fill="#FFFFFF" width="0.947" height="5.289"/>
<path fill="#FFFFFF" d="M73.447,48.642h0.951v-3.632h-0.951V48.642z M73.447,44.348h0.951v-0.906h-0.951V44.348z"/>
<path fill="#FFFFFF" d="M76.956,48.034c0.29,0,0.518-0.126,0.668-0.324c0.155-0.202,0.197-0.466,0.197-0.747H77.41
	c-0.426,0-1.057,0.07-1.057,0.627C76.353,47.902,76.616,48.034,76.956,48.034 M75.844,45.201c0.368-0.171,0.864-0.276,1.268-0.276
	c1.114,0,1.575,0.459,1.575,1.532v0.464c0,0.366,0.006,0.641,0.014,0.909c0.006,0.277,0.021,0.531,0.041,0.812h-0.835
	c-0.035-0.191-0.035-0.43-0.043-0.542h-0.015c-0.219,0.401-0.695,0.626-1.127,0.626c-0.644,0-1.276-0.387-1.276-1.079
	c0-0.542,0.263-0.86,0.624-1.037c0.362-0.175,0.83-0.211,1.226-0.211h0.525c0-0.585-0.263-0.784-0.823-0.784
	c-0.402,0-0.808,0.156-1.126,0.396L75.844,45.201z"/>
<rect x="13.924" y="52.879" fill="#FFFFFF" width="65.203" height="1.433"/>
<path fill="#FFFFFF" d="M1.665,62.886h0.431c1.496,0,2.471-0.601,2.471-2.21c0-1.6-0.96-2.133-2.138-2.133H1.665V62.886z
	 M1.145,58.091h1.307c1.888,0,2.636,1.085,2.636,2.617c0,1.902-1.275,2.628-3.021,2.628H1.145V58.091z"/>
<path fill="#FFFFFF" d="M8.526,61.151c0-0.669-0.273-1.332-0.984-1.332c-0.704,0-1.133,0.7-1.133,1.332H8.526z M8.76,63.217
	c-0.333,0.135-0.765,0.209-1.119,0.209c-1.276,0-1.751-0.857-1.751-2.005c0-1.172,0.65-2.007,1.623-2.007
	c1.089,0,1.534,0.871,1.534,1.901v0.241H6.41c0,0.812,0.438,1.465,1.27,1.465c0.348,0,0.854-0.141,1.08-0.284V63.217z"/>
<path fill="#FFFFFF" d="M11.525,59.819c-0.847,0-1.14,0.902-1.14,1.602c0,0.697,0.293,1.6,1.14,1.6c0.907,0,1.142-0.857,1.142-1.6
	C12.667,60.676,12.432,59.819,11.525,59.819 M9.908,59.504h0.477l-0.03,0.7h0.014c0.121-0.211,0.416-0.79,1.231-0.79
	c1.133,0,1.587,0.841,1.587,2.007c0,1.135-0.529,2.005-1.587,2.005c-0.604,0-0.966-0.247-1.2-0.742h-0.015v2.232H9.908V59.504z"/>
<path fill="#FFFFFF" d="M16.324,61.406h-0.136c-0.824,0-1.805,0.082-1.805,0.925c0,0.504,0.362,0.69,0.802,0.69
	c1.116,0,1.14-0.97,1.14-1.381V61.406z M16.369,62.722h-0.015c-0.212,0.457-0.75,0.705-1.225,0.705
	c-1.093,0-1.269-0.736-1.269-1.081c0-1.287,1.374-1.345,2.373-1.345h0.09v-0.196c0-0.652-0.235-0.986-0.877-0.986
	c-0.401,0-0.778,0.092-1.134,0.317v-0.459c0.295-0.144,0.794-0.264,1.134-0.264c0.952,0,1.353,0.427,1.353,1.428v1.691
	c0,0.307,0,0.54,0.038,0.804h-0.469V62.722z"/>
<path fill="#FFFFFF" d="M17.932,60.361c0-0.421,0-0.579-0.029-0.857h0.475v0.736h0.014c0.176-0.427,0.501-0.826,0.991-0.826
	c0.113,0,0.249,0.022,0.333,0.045v0.497c-0.098-0.031-0.227-0.045-0.348-0.045c-0.755,0-0.959,0.841-0.959,1.532v1.892h-0.477
	V60.361z"/>
<path fill="#FFFFFF" d="M22.11,59.911h-0.876v2.479c0,0.347,0.128,0.63,0.513,0.63c0.183,0,0.303-0.037,0.438-0.09l0.031,0.392
	c-0.113,0.045-0.348,0.104-0.582,0.104c-0.847,0-0.877-0.579-0.877-1.276v-2.24h-0.755v-0.407h0.755v-0.922l0.476-0.166v1.089h0.876
	V59.911z"/>
<path fill="#FFFFFF" d="M27.617,63.336v-2.547c0-0.54-0.204-0.97-0.815-0.97c-0.521,0-1.034,0.442-1.034,1.4v2.117H25.29v-2.547
	c0-0.54-0.204-0.97-0.817-0.97c-0.52,0-1.033,0.442-1.033,1.4v2.117h-0.479v-2.929c0-0.292,0-0.595-0.029-0.902h0.461v0.647
	l0.015,0.007c0.152-0.264,0.378-0.745,1.202-0.745c0.339,0,0.898,0.144,1.019,0.812h0.015c0.173-0.451,0.627-0.812,1.231-0.812
	c0.779,0,1.217,0.542,1.217,1.285v2.637H27.617z"/>
<path fill="#FFFFFF" d="M31.607,61.151c0-0.669-0.271-1.332-0.981-1.332c-0.702,0-1.133,0.7-1.133,1.332H31.607z M31.842,63.217
	c-0.333,0.135-0.764,0.209-1.119,0.209c-1.276,0-1.751-0.857-1.751-2.005c0-1.172,0.65-2.007,1.623-2.007
	c1.088,0,1.535,0.871,1.535,1.901v0.241h-2.637c0,0.812,0.437,1.465,1.268,1.465c0.349,0,0.854-0.141,1.082-0.284V63.217z"/>
<path fill="#FFFFFF" d="M33.036,60.406c0-0.292,0-0.594-0.031-0.902h0.461v0.684h0.016c0.158-0.346,0.446-0.774,1.246-0.774
	c0.951,0,1.314,0.632,1.314,1.473v2.448h-0.476v-2.328c0-0.722-0.258-1.188-0.913-1.188c-0.871,0-1.142,0.761-1.142,1.4v2.117
	h-0.475V60.406z"/>
<path fill="#FFFFFF" d="M38.898,59.911h-0.877v2.479c0,0.347,0.129,0.63,0.515,0.63c0.181,0,0.3-0.037,0.437-0.09l0.03,0.392
	c-0.112,0.045-0.348,0.104-0.582,0.104c-0.845,0-0.877-0.579-0.877-1.276v-2.24h-0.754v-0.407h0.754v-0.922l0.476-0.166v1.089h0.877
	V59.911z"/>
<path fill="#FFFFFF" d="M43.357,63.02c0.83,0,1.276-0.712,1.276-1.6c0-0.886-0.446-1.602-1.276-1.602
	c-0.833,0-1.278,0.716-1.278,1.602C42.079,62.308,42.524,63.02,43.357,63.02 M43.357,59.414c1.245,0,1.798,0.964,1.798,2.007
	c0,1.045-0.553,2.005-1.798,2.005c-1.248,0-1.799-0.96-1.799-2.005C41.558,60.377,42.109,59.414,43.357,59.414"/>
<path fill="#FFFFFF" d="M46.379,59.911h-0.778v-0.407h0.778v-0.276c0-0.804,0.029-1.618,1.02-1.618c0.151,0,0.354,0.022,0.446,0.076
	l-0.03,0.415c-0.099-0.052-0.242-0.084-0.378-0.084c-0.651,0-0.583,0.697-0.583,1.158v0.329h0.869v0.407h-0.869v3.425h-0.475V59.911
	z"/>
<polygon fill="#FFFFFF" points="50.722,58.091 53.305,58.091 53.305,58.543 51.244,58.543 51.244,60.415 53.201,60.415 
	53.201,60.865 51.244,60.865 51.244,62.886 53.397,62.886 53.397,63.336 50.722,63.336 "/>
<path fill="#FFFFFF" d="M54.448,60.406c0-0.292,0-0.594-0.031-0.902h0.461v0.684h0.016c0.158-0.346,0.445-0.774,1.246-0.774
	c0.95,0,1.313,0.632,1.313,1.473v2.448h-0.475v-2.328c0-0.722-0.258-1.188-0.913-1.188c-0.869,0-1.142,0.761-1.142,1.4v2.117h-0.475
	V60.406z"/>
<polygon fill="#FFFFFF" points="59.985,63.336 59.427,63.336 58.12,59.504 58.642,59.504 59.707,62.819 59.721,62.819 60.84,59.504 
	61.339,59.504 "/>
<path fill="#FFFFFF" d="M62.004,63.335h0.476v-3.832h-0.476V63.335z M62.004,58.483h0.476v-0.63h-0.476V58.483z"/>
<path fill="#FFFFFF" d="M63.673,60.361c0-0.421,0-0.579-0.03-0.857h0.475v0.736h0.015c0.175-0.427,0.499-0.826,0.99-0.826
	c0.113,0,0.247,0.022,0.334,0.045v0.497c-0.099-0.031-0.229-0.045-0.349-0.045c-0.755,0-0.96,0.841-0.96,1.532v1.892h-0.475V60.361z
	"/>
<path fill="#FFFFFF" d="M67.685,63.02c0.833,0,1.276-0.712,1.276-1.6c0-0.886-0.444-1.602-1.276-1.602
	c-0.83,0-1.276,0.716-1.276,1.602C66.408,62.308,66.854,63.02,67.685,63.02 M67.685,59.414c1.247,0,1.799,0.964,1.799,2.007
	c0,1.045-0.551,2.005-1.799,2.005c-1.245,0-1.798-0.96-1.798-2.005C65.887,60.377,66.44,59.414,67.685,59.414"/>
<path fill="#FFFFFF" d="M70.384,60.406c0-0.292,0-0.594-0.03-0.902h0.461v0.684h0.015c0.158-0.346,0.445-0.774,1.246-0.774
	c0.951,0,1.313,0.632,1.313,1.473v2.448h-0.475v-2.328c0-0.722-0.256-1.188-0.913-1.188c-0.868,0-1.141,0.761-1.141,1.4v2.117
	h-0.476V60.406z"/>
<path fill="#FFFFFF" d="M79.238,63.336v-2.547c0-0.54-0.204-0.97-0.815-0.97c-0.521,0-1.036,0.442-1.036,1.4v2.117h-0.475v-2.547
	c0-0.54-0.205-0.97-0.817-0.97c-0.521,0-1.034,0.442-1.034,1.4v2.117h-0.476v-2.929c0-0.292,0-0.595-0.03-0.902h0.461v0.647
	l0.015,0.007c0.151-0.264,0.378-0.745,1.201-0.745c0.339,0,0.898,0.144,1.019,0.812h0.016c0.173-0.451,0.626-0.812,1.231-0.812
	c0.778,0,1.215,0.542,1.215,1.285v2.637H79.238z"/>
<path fill="#FFFFFF" d="M83.228,61.151c0-0.669-0.273-1.332-0.984-1.332c-0.704,0-1.133,0.7-1.133,1.332H83.228z M83.461,63.217
	c-0.333,0.135-0.764,0.209-1.118,0.209c-1.276,0-1.751-0.857-1.751-2.005c0-1.172,0.648-2.007,1.623-2.007
	c1.088,0,1.534,0.871,1.534,1.901v0.241h-2.637c0,0.812,0.438,1.465,1.269,1.465c0.349,0,0.856-0.141,1.08-0.284V63.217z"/>
<path fill="#FFFFFF" d="M84.657,60.406c0-0.292,0-0.594-0.031-0.902h0.461v0.684h0.016c0.157-0.346,0.443-0.774,1.245-0.774
	c0.952,0,1.314,0.632,1.314,1.473v2.448h-0.476v-2.328c0-0.722-0.256-1.188-0.913-1.188c-0.868,0-1.141,0.761-1.141,1.4v2.117
	h-0.475V60.406z"/>
<path fill="#FFFFFF" d="M90.518,59.911h-0.876v2.479c0,0.347,0.128,0.63,0.514,0.63c0.182,0,0.301-0.037,0.44-0.09l0.029,0.392
	c-0.114,0.045-0.348,0.104-0.582,0.104c-0.847,0-0.876-0.579-0.876-1.276v-2.24h-0.755v-0.407h0.755v-0.922l0.475-0.166v1.089h0.876
	V59.911z"/>
<polygon fill="#FFFFFF" points="91.621,62.706 91.182,64.344 91.66,64.344 92.256,62.706 "/>
<polygon fill="#FFFFFF" points="5.47,71.907 4.851,71.907 3.514,67.25 3.499,67.25 2.138,71.907 1.511,71.907 0,66.662 
	0.536,66.662 1.835,71.322 1.852,71.322 3.204,66.662 3.83,66.662 5.16,71.322 5.176,71.322 6.498,66.662 6.995,66.662 "/>
<path fill="#FFFFFF" d="M9.551,69.977H9.414c-0.822,0-1.804,0.082-1.804,0.925c0,0.501,0.362,0.69,0.8,0.69
	c1.118,0,1.141-0.97,1.141-1.381V69.977z M9.597,71.293H9.581c-0.211,0.457-0.749,0.706-1.224,0.706c-1.095,0-1.27-0.737-1.27-1.082
	c0-1.287,1.377-1.347,2.372-1.347h0.092v-0.194c0-0.655-0.234-0.986-0.877-0.986c-0.399,0-0.778,0.092-1.133,0.317v-0.459
	c0.295-0.142,0.793-0.264,1.133-0.264c0.952,0,1.353,0.427,1.353,1.428v1.691c0,0.307,0,0.54,0.038,0.804H9.597V71.293z"/>
<path fill="#FFFFFF" d="M12.822,68.482h-0.876v2.479c0,0.345,0.129,0.63,0.513,0.63c0.183,0,0.303-0.037,0.44-0.09l0.03,0.392
	c-0.114,0.045-0.347,0.105-0.582,0.105c-0.847,0-0.877-0.58-0.877-1.28v-2.237h-0.754v-0.407h0.754V67.15l0.476-0.164v1.089h0.876
	V68.482z"/>
<path fill="#FFFFFF" d="M16.027,69.72c0-0.669-0.273-1.33-0.984-1.33c-0.704,0-1.133,0.7-1.133,1.33H16.027z M16.26,71.788
	c-0.333,0.132-0.764,0.211-1.119,0.211c-1.276,0-1.751-0.86-1.751-2.007c0-1.175,0.65-2.007,1.623-2.007
	c1.088,0,1.534,0.871,1.534,1.902v0.24H13.91c0,0.812,0.44,1.465,1.271,1.465c0.347,0,0.853-0.144,1.079-0.285V71.788z"/>
<path fill="#FFFFFF" d="M17.455,68.932c0-0.421,0-0.579-0.031-0.857h0.477v0.736h0.015c0.173-0.427,0.497-0.826,0.989-0.826
	c0.113,0,0.249,0.022,0.333,0.045v0.495c-0.098-0.029-0.226-0.042-0.349-0.042c-0.753,0-0.959,0.841-0.959,1.532v1.892h-0.475
	V68.932z"/>
<path fill="#FFFFFF" d="M24.239,69.977h-0.136c-0.824,0-1.805,0.082-1.805,0.925c0,0.501,0.363,0.69,0.8,0.69
	c1.117,0,1.141-0.97,1.141-1.381V69.977z M24.284,71.293h-0.015c-0.211,0.457-0.748,0.706-1.225,0.706
	c-1.093,0-1.269-0.737-1.269-1.082c0-1.287,1.376-1.347,2.374-1.347h0.089v-0.194c0-0.655-0.235-0.986-0.877-0.986
	c-0.399,0-0.776,0.092-1.134,0.317v-0.459c0.295-0.142,0.794-0.264,1.134-0.264c0.952,0,1.353,0.427,1.353,1.428v1.691
	c0,0.307,0,0.54,0.038,0.804h-0.469V71.293z"/>
<path fill="#FFFFFF" d="M25.848,68.977c0-0.292,0-0.594-0.03-0.902h0.461v0.684h0.014c0.161-0.346,0.446-0.774,1.249-0.774
	c0.95,0,1.313,0.632,1.313,1.473v2.448H28.38v-2.328c0-0.722-0.257-1.188-0.915-1.188c-0.869,0-1.141,0.759-1.141,1.4v2.117h-0.476
	V68.977z"/>
<path fill="#FFFFFF" d="M31.484,71.592c0.847,0,1.141-0.902,1.141-1.6c0-0.7-0.294-1.602-1.141-1.602
	c-0.906,0-1.141,0.857-1.141,1.602C30.343,70.735,30.578,71.592,31.484,71.592 M33.099,71.907h-0.475V71.3h-0.015
	c-0.256,0.489-0.65,0.7-1.201,0.7c-1.058,0-1.585-0.874-1.585-2.007c0-1.166,0.452-2.007,1.585-2.007
	c0.755,0,1.133,0.549,1.201,0.735h0.015v-2.449h0.475V71.907z"/>
<polygon fill="#FFFFFF" points="36.334,66.662 36.993,66.662 39.675,71.277 39.689,71.277 39.689,66.662 40.209,66.662 
	40.209,71.907 39.508,71.907 36.872,67.384 36.858,67.384 36.858,71.907 36.334,71.907 "/>
<path fill="#FFFFFF" d="M43.558,69.977h-0.137c-0.822,0-1.807,0.082-1.807,0.925c0,0.501,0.363,0.69,0.802,0.69
	c1.119,0,1.142-0.97,1.142-1.381V69.977z M43.604,71.293h-0.016c-0.211,0.457-0.748,0.706-1.224,0.706
	c-1.095,0-1.269-0.737-1.269-1.082c0-1.287,1.376-1.347,2.372-1.347h0.092v-0.194c0-0.655-0.234-0.986-0.877-0.986
	c-0.399,0-0.778,0.092-1.133,0.317v-0.459c0.295-0.142,0.793-0.264,1.133-0.264c0.952,0,1.352,0.427,1.352,1.428v1.691
	c0,0.307,0,0.54,0.039,0.804h-0.469V71.293z"/>
<path fill="#FFFFFF" d="M46.829,68.482h-0.876v2.479c0,0.345,0.127,0.63,0.514,0.63c0.181,0,0.302-0.037,0.437-0.09l0.031,0.392
	c-0.114,0.045-0.349,0.105-0.583,0.105c-0.845,0-0.876-0.58-0.876-1.28v-2.237h-0.755v-0.407h0.755V67.15l0.476-0.164v1.089h0.876
	V68.482z"/>
<path fill="#FFFFFF" d="M50.689,71.005c0,0.295,0,0.594,0.031,0.902h-0.461v-0.682h-0.015C50.085,71.57,49.799,72,48.997,72
	c-0.951,0-1.314-0.632-1.314-1.475v-2.449h0.476v2.328c0,0.722,0.256,1.188,0.913,1.188c0.869,0,1.141-0.759,1.141-1.397v-2.12
	h0.475V71.005z"/>
<path fill="#FFFFFF" d="M51.885,68.932c0-0.421,0-0.579-0.03-0.857h0.475v0.736h0.015c0.175-0.427,0.499-0.826,0.99-0.826
	c0.113,0,0.247,0.022,0.334,0.045v0.495c-0.101-0.029-0.229-0.042-0.348-0.042c-0.756,0-0.961,0.841-0.961,1.532v1.892h-0.475
	V68.932z"/>
<path fill="#FFFFFF" d="M56.568,69.977h-0.134c-0.824,0-1.807,0.082-1.807,0.925c0,0.501,0.362,0.69,0.8,0.69
	c1.118,0,1.141-0.97,1.141-1.381V69.977z M56.613,71.293h-0.014c-0.211,0.457-0.75,0.706-1.225,0.706
	c-1.096,0-1.268-0.737-1.268-1.082c0-1.287,1.373-1.347,2.371-1.347h0.09v-0.194c0-0.655-0.234-0.986-0.876-0.986
	c-0.401,0-0.778,0.092-1.133,0.317v-0.459c0.295-0.142,0.793-0.264,1.133-0.264c0.952,0,1.352,0.427,1.352,1.428v1.691
	c0,0.307,0,0.54,0.039,0.804h-0.47V71.293z"/>
<rect x="58.179" y="66.27" fill="#FFFFFF" width="0.476" height="5.638"/>
<path fill="#FFFFFF" d="M62.544,68.984h0.553c0.612,0,1.314-0.231,1.314-0.962c0-0.856-0.612-0.907-1.33-0.907h-0.536V68.984z
	 M62.024,66.662h1.358c0.938,0,1.55,0.401,1.55,1.36c0,0.677-0.521,1.127-1.171,1.21v0.016c0.422,0.051,0.513,0.276,0.68,0.63
	l0.9,2.03h-0.575l-0.763-1.773c-0.303-0.675-0.529-0.697-1.029-0.697h-0.43v2.471h-0.52V66.662z"/>
<path fill="#FFFFFF" d="M68.507,69.72c0-0.669-0.273-1.33-0.985-1.33c-0.702,0-1.132,0.7-1.132,1.33H68.507z M68.739,71.788
	c-0.333,0.132-0.763,0.211-1.118,0.211c-1.276,0-1.753-0.86-1.753-2.007c0-1.175,0.65-2.007,1.624-2.007
	c1.088,0,1.534,0.871,1.534,1.902v0.24H66.39c0,0.812,0.438,1.465,1.27,1.465c0.347,0,0.853-0.144,1.079-0.285V71.788z"/>
<path fill="#FFFFFF" d="M69.639,71.351c0.288,0.141,0.633,0.241,1.004,0.241c0.454,0,0.854-0.247,0.854-0.685
	c0-0.909-1.852-0.765-1.852-1.878c0-0.759,0.622-1.045,1.254-1.045c0.206,0,0.613,0.045,0.953,0.174l-0.045,0.414
	c-0.25-0.112-0.59-0.182-0.854-0.182c-0.491,0-0.833,0.151-0.833,0.64c0,0.715,1.898,0.624,1.898,1.878
	c0,0.812-0.764,1.092-1.344,1.092c-0.371,0-0.74-0.047-1.08-0.182L69.639,71.351z"/>
<path fill="#FFFFFF" d="M74.377,71.592c0.83,0,1.275-0.712,1.275-1.6c0-0.886-0.445-1.602-1.275-1.602
	c-0.833,0-1.278,0.716-1.278,1.602C73.1,70.879,73.544,71.592,74.377,71.592 M74.377,67.985c1.245,0,1.797,0.961,1.797,2.007
	c0,1.045-0.552,2.007-1.797,2.007c-1.249,0-1.799-0.962-1.799-2.007C72.578,68.946,73.129,67.985,74.377,67.985"/>
<path fill="#FFFFFF" d="M80.079,71.005c0,0.295,0,0.594,0.031,0.902h-0.461v-0.682h-0.015C79.475,71.57,79.188,72,78.387,72
	c-0.951,0-1.313-0.632-1.313-1.475v-2.449h0.475v2.328c0,0.722,0.256,1.188,0.915,1.188c0.869,0,1.139-0.759,1.139-1.397v-2.12
	h0.476V71.005z"/>
<path fill="#FFFFFF" d="M81.275,68.932c0-0.421,0-0.579-0.03-0.857h0.475v0.736h0.015c0.175-0.427,0.499-0.826,0.989-0.826
	c0.114,0,0.249,0.022,0.333,0.045v0.495c-0.098-0.029-0.226-0.042-0.346-0.042c-0.756,0-0.961,0.841-0.961,1.532v1.892h-0.475
	V68.932z"/>
<path fill="#FFFFFF" d="M86.291,68.588c-0.255-0.115-0.567-0.197-0.824-0.197c-0.928,0-1.45,0.67-1.45,1.602
	c0,0.87,0.53,1.6,1.397,1.6c0.304,0,0.583-0.067,0.869-0.174l0.045,0.444C86.004,71.975,85.702,72,85.34,72
	c-1.239,0-1.844-0.941-1.844-2.007c0-1.182,0.763-2.008,1.905-2.008c0.46,0,0.793,0.106,0.928,0.151L86.291,68.588z"/>
<path fill="#FFFFFF" d="M89.487,69.72c0-0.669-0.273-1.33-0.982-1.33c-0.704,0-1.133,0.7-1.133,1.33H89.487z M89.722,71.788
	c-0.333,0.132-0.765,0.211-1.119,0.211c-1.278,0-1.753-0.86-1.753-2.007c0-1.175,0.651-2.007,1.623-2.007
	c1.088,0,1.534,0.871,1.534,1.902v0.24h-2.636c0,0.812,0.438,1.465,1.269,1.465c0.349,0,0.853-0.144,1.082-0.285V71.788z"/>
<path fill="#FFFFFF" d="M90.621,71.351c0.288,0.141,0.636,0.241,1.005,0.241c0.452,0,0.853-0.247,0.853-0.685
	c0-0.909-1.852-0.765-1.852-1.878c0-0.759,0.622-1.045,1.256-1.045c0.204,0,0.611,0.045,0.951,0.174l-0.045,0.414
	c-0.25-0.112-0.59-0.182-0.853-0.182c-0.494,0-0.832,0.151-0.832,0.64c0,0.715,1.896,0.624,1.896,1.878
	C93,71.72,92.237,72,91.656,72c-0.371,0-0.74-0.047-1.08-0.182L90.621,71.351z"/>
<path fill="#FFFFFF" d="M44.18,24.552c-3.003-0.594-5.751-3.518-6.348-6.46c-0.839-3.592,0.618-7.016,3.59-9.102
	c2.494-1.81,6.524-1.976,9.19-0.412c1.525,0.795,2.966,2.317,3.691,3.839c1.516,2.904,0.937,6.955-1.243,9.369
	C50.793,24.346,47.547,25.35,44.18,24.552 M54.532,12.561c-0.693-1.578-2.135-3.163-3.692-4.024
	c-2.738-1.677-7.01-1.543-9.584,0.392c-2.812,2.045-4.268,5.195-3.672,8.688c0.44,3.211,3.294,6.367,6.494,7.058
	c3.278,0.82,6.557-0.124,8.839-2.517C55.292,19.718,56.014,15.646,54.532,12.561"/>
<path fill="#FFFFFF" d="M35.862,23.293l1.888-0.991c0.273-0.082,0.519,0.036,0.705,0.226l0.041-0.04l-0.58-1.052h-0.084l0.043,0.289
	c-0.016,0.201-0.136,0.381-0.312,0.495c-0.747,0.34-1.401,1.021-2.261,0.949c-0.388-0.15-0.602-0.557-0.624-0.949
	c0.016-0.252,0.106-0.475,0.334-0.64l1.93-1.074l0.207-0.04c0.136,0.034,0.155,0.272,0.309,0.206c-0.173-0.42-0.44-0.8-0.662-1.198
	h-0.063c-0.035,0.145,0.171,0.34-0.021,0.476l-1.824,1.011c-0.21,0.124-0.452,0.309-0.498,0.556
	c-0.11,0.579,0.134,1.069,0.476,1.486C35.109,23.312,35.515,23.354,35.862,23.293"/>
<path fill="#FFFFFF" d="M58.185,22.404c0.224-0.38,0.389-0.825,0.58-1.237c-0.177-0.082-0.177,0.247-0.374,0.247l-2.47-1.115
	c-0.283-0.062-0.132-0.33-0.145-0.517h-0.061c-0.212,0.409-0.413,0.822-0.558,1.261c0.16-0.025,0.196-0.3,0.392-0.269l2.574,1.197
	c0.093,0.134,0,0.289,0,0.432H58.185z"/>
<path fill="#FFFFFF" d="M55.114,26.203c0.634-0.582,1.214-1.202,1.805-1.837l-0.724-0.991c-0.03,0.005-0.07-0.015-0.087,0.021
	c0.27,0.419,0.386,1.135,0.064,1.568c-0.136,0.156-0.304,0.47-0.562,0.351l-2.034-1.88c-0.126-0.189,0.137-0.296,0.106-0.454h-0.062
	l-0.915,0.93c0.088,0.221,0.255-0.191,0.437-0.062l2.053,1.92c0.062,0.155-0.104,0.27-0.123,0.412
	C55.085,26.193,55.093,26.209,55.114,26.203"/>
<path fill="#FFFFFF" d="M40.052,25.295c0.24-0.279,0.43-0.58,0.642-0.867v-0.124l-0.185,0.041c-0.114-0.082-0.162-0.196-0.21-0.309
	c-0.289-0.536-0.957-0.79-1.49-0.496c-1.175,0.785,0.361,1.657,0.122,2.581c-0.122,0.211-0.343,0.386-0.601,0.37
	c-0.27-0.005-0.474-0.206-0.643-0.391c-0.322-0.521,0.04-1.069,0.249-1.528h-0.063c-0.286,0.326-0.597,0.677-0.892,1.011v0.104
	c0.108-0.02,0.207-0.062,0.291,0.042c0.254,0.447,0.685,0.906,1.222,0.949c0.306,0.016,0.572-0.082,0.789-0.287
	c0.825-0.837-0.393-1.571-0.291-2.436c0.083-0.197,0.286-0.356,0.499-0.372c0.176,0.036,0.352,0.072,0.477,0.226
	c0.441,0.42,0.141,1.042,0.021,1.487H40.052z"/>
<path fill="#FFFFFF" d="M44.16,26.594c0.073,0.144,0.019,0.361,0.124,0.475c0.093-0.381,0.155-0.775,0.187-1.177
	c-0.8-0.149-1.53-0.464-2.283-0.721l-0.248-0.165l-0.582,0.907c0,0.046-0.094,0.13,0,0.145c0.378-0.376,0.809-0.635,1.369-0.577
	c0.04,0.02,0.119,0.036,0.103,0.102c-0.348,0.907-0.628,1.842-1.036,2.724c-0.162,0.062-0.333-0.031-0.477,0v0.041
	c0.472,0.202,0.969,0.346,1.451,0.515l0.043-0.04c-0.095-0.139-0.343-0.129-0.374-0.33l0.996-2.744
	C43.807,25.852,44.071,26.248,44.16,26.594"/>
<path fill="#FFFFFF" d="M35.509,17.081c-0.312,0.249-0.695,0.422-1.058,0.599l-0.083-0.887L35.509,17.081z M33.205,17.968
	c-0.025,0.006-0.087-0.015-0.083,0.02c0.033,0.414,0.074,0.877,0.146,1.301c0.149-0.026,0.031-0.277,0.207-0.351
	c1.018-0.592,2.039-1.212,3.05-1.775l-0.041-0.041c-0.302,0.041-0.55-0.427-0.81-0.124c-0.851-0.274-1.788-0.335-2.552-0.825
	c-0.098-0.087-0.077-0.28-0.227-0.289c0,0.376,0.073,0.774,0.123,1.155c0.182-0.03,0.069-0.289,0.25-0.371
	c0.303-0.191,0.648-0.005,0.936,0.082l0.103,1.01c-0.256,0.234-0.582,0.377-0.893,0.517C33.232,18.278,33.267,18.072,33.205,17.968"
	/>
<path fill="#FFFFFF" d="M46.566,26.141c0.278,0.01,0.575-0.041,0.788,0.124c0.285,0.294,0.256,0.769,0.106,1.114
	c-0.208,0.275-0.54,0.242-0.853,0.269C46.561,27.157,46.521,26.641,46.566,26.141 M46.939,27.813
	c0.531,0.35,0.692,0.964,1.039,1.442c0.322,0.017,0.623-0.024,0.933-0.037v-0.065c-0.529,0.036-0.649-0.561-0.872-0.886
	c-0.119-0.304-0.462-0.485-0.725-0.577c0.346-0.109,0.773-0.264,0.913-0.661c0.067-0.254-0.015-0.49-0.168-0.681
	c-0.647-0.594-1.658-0.254-2.489-0.289L45.508,26.1c0.109,0.109,0.348,0.025,0.416,0.226l0.102,2.746
	c-0.063,0.206-0.304,0.101-0.393,0.249l0.043,0.04l1.244-0.04c0.063,0.01,0.157-0.022,0.126-0.102
	c-0.143-0.034-0.303-0.007-0.396-0.146l-0.062-1.218l0.041-0.061C46.733,27.797,46.846,27.774,46.939,27.813"/>
<path fill="#FFFFFF" d="M50.882,27.173c-0.099-0.369-0.068-0.784-0.104-1.177c0.31,0.237,0.631,0.516,0.913,0.785L50.882,27.173z
	 M52.376,27.915c0.41-0.15,0.801-0.352,1.202-0.536v-0.041h-0.31l-2.739-2.291l-0.043,0.041c0.152,0.289-0.23,0.702,0.166,0.825
	l0.126,1.9c0,0.344-0.036,0.739-0.332,0.97c0.358-0.087,0.72-0.305,1.078-0.454v-0.062h-0.289c-0.386-0.14-0.339-0.562-0.396-0.887
	c0.294-0.206,0.656-0.356,0.998-0.496l0.725,0.641C52.693,27.725,52.338,27.772,52.376,27.915"/>
<path fill="#FFFFFF" d="M58.267,18.135c-0.378-0.109-0.706-0.347-1.058-0.517c0.348-0.154,0.748-0.279,1.142-0.371L58.267,18.135z
	 M59.513,16.894c0.139,0.079,0.067,0.25,0.144,0.352l0.063-0.02c0.036-0.429,0.097-0.869,0.103-1.28
	c-0.139,0.02-0.06,0.206-0.186,0.267c-1.126,0.387-2.263,0.754-3.402,1.095v0.061c0.3,0.01,0.472,0.574,0.788,0.29l1.928,1.011
	c0.265,0.147,0.459,0.416,0.521,0.681c0.122-0.364,0.102-0.78,0.144-1.177c-0.171,0.036-0.159,0.289-0.355,0.33
	c-0.334,0.076-0.604-0.127-0.871-0.289l0.106-1.011C58.792,17.04,59.15,16.936,59.513,16.894"/>
<path fill="#FFFFFF" d="M45.841,2.861c-0.446,0.016-0.965-0.036-1.411,0.041c0.057,0.16,0.315,0.016,0.395,0.207l0.062,2.105
	c0.014,0.297,0.099,0.562,0.352,0.764c0.433,0.279,1.049,0.341,1.558,0.186c0.918-0.3,0.538-1.423,0.602-2.106
	c0.015-0.361-0.068-0.759,0.207-1.011c0.093-0.114,0.284-0.077,0.332-0.206c-0.368-0.067-0.732,0.046-1.1-0.021l-0.145,0.041
	c0.093,0.109,0.305,0.114,0.415,0.269c0.31,0.561,0.093,1.347,0.186,2.002c0.016,0.331-0.093,0.624-0.353,0.826
	c-0.279,0.2-0.688,0.147-0.995,0.04c-0.209-0.097-0.398-0.315-0.436-0.535L45.446,3.15l0.082-0.124
	C45.623,2.938,45.861,3.041,45.841,2.861"/>
<path fill="#FFFFFF" d="M49.761,6.556c-0.126,0-0.305-0.094-0.373,0c0.415,0.216,0.868,0.356,1.287,0.557
	c0.053,0.025,0.166,0.046,0.187-0.021c-0.126-0.124-0.333-0.16-0.374-0.351c0.363-0.912,0.706-1.831,1.119-2.723
	c0.327,0.117,0.541,0.464,0.644,0.764c0.046,0.195,0.073,0.422,0.126,0.597c0.113-0.381,0.196-0.774,0.249-1.176h-0.147
	l-2.074-0.785l-0.271-0.185c-0.256,0.32-0.469,0.655-0.642,1.011c0.432-0.325,0.956-0.681,1.515-0.454
	c-0.285,0.825-0.667,1.608-0.954,2.434C49.979,6.345,49.968,6.581,49.761,6.556"/>
<path fill="#FFFFFF" d="M52.812,7.918c-0.181,0.196-0.339-0.105-0.498-0.082v0.06c0.302,0.3,0.633,0.63,0.933,0.93
	c0.222-0.082-0.17-0.247-0.062-0.414l0.995-1.01h0.063c0.317,0.33,0.68,0.639,0.954,0.989l-0.912,0.91
	c-0.172,0.289-0.374-0.109-0.539-0.022c0.258,0.337,0.604,0.636,0.911,0.951h0.104c0.006-0.145-0.185-0.212-0.144-0.371l1.99-2.022
	c0.183-0.115,0.281,0.112,0.436,0.122l0.041-0.062L56.214,7.01c-0.05-0.016-0.118-0.12-0.166-0.021
	c0.502,0.521-0.471,0.841-0.706,1.26h-0.06c-0.312-0.347-0.675-0.594-0.955-0.97l0.849-0.867c0.188-0.12,0.275,0.117,0.436,0.124
	c0.035-0.015,0.018-0.056,0.021-0.082L54.7,5.523c-0.229,0.087,0.166,0.237,0.061,0.435L52.812,7.918z"/>
<path fill="#FFFFFF" d="M36.462,6.949c-0.342,0.287-0.465,0.716-0.372,1.135c0.545,1.45,1.774-0.046,2.676,0.165
	c0.209,0.114,0.358,0.325,0.373,0.556c-0.005,0.32-0.26,0.61-0.539,0.744c-0.534,0.149-0.991-0.14-1.411-0.394l-0.041,0.042
	c0.338,0.341,0.7,0.702,1.079,0.991l0.041-0.041c-0.016-0.056-0.058-0.099-0.041-0.166c0.109-0.155,0.294-0.226,0.455-0.309
	c0.395-0.28,0.706-0.661,0.665-1.156c-0.058-0.289-0.17-0.579-0.436-0.762c-0.844-0.486-1.509,0.454-2.343,0.307
	c-0.167-0.117-0.313-0.277-0.333-0.472c0.036-0.207,0.121-0.394,0.312-0.537c0.45-0.361,1.033-0.041,1.472,0.124V7.092l-0.892-0.724
	h-0.062C37.158,6.767,36.654,6.73,36.462,6.949"/>
<path fill="#FFFFFF" d="M40.074,5.462C39.99,5.075,40.01,4.631,40.3,4.348c0.281-0.257,0.685-0.392,1.059-0.247
	c0.564,0.231,0.897,0.857,1.101,1.382c0.148,0.387,0.182,0.986-0.104,1.321c-0.219,0.232-0.486,0.335-0.788,0.371
	C40.689,7.123,40.285,6.153,40.074,5.462 M42.874,6.432c0.265-0.465,0.305-1.151,0.04-1.631c-0.348-0.676-1.064-1.006-1.825-0.949
	c-0.673,0.061-1.318,0.617-1.514,1.257c-0.151,0.549-0.026,1.136,0.29,1.57c0.394,0.49,0.938,0.695,1.557,0.681
	C42.017,7.318,42.566,6.948,42.874,6.432"/>
<path fill="#FFFFFF" d="M46.446,1.758c6.185,0,11.473,3.845,13.551,9.269l1.646-0.607C59.312,4.329,53.388,0,46.446,0
	c-6.939,0-12.856,4.324-15.19,10.41l1.652,0.617C34.988,5.606,40.265,1.758,46.446,1.758"/>
<path fill="#FFFFFF" d="M46.446,30.577c-7.11,0-13.02-5.095-14.249-11.814l-1.739,0.327c1.383,7.535,8.015,13.245,15.988,13.245
	c7.974,0,14.608-5.712,15.992-13.246l-1.739-0.326C59.473,25.482,53.555,30.577,46.446,30.577"/>
<path fill="#FFFFFF" d="M50.011,13.923c-0.096,0.145-0.285,0.139-0.437,0.185c0.052-0.139,0.266-0.282,0.437-0.329
	C50.104,13.815,50.011,13.876,50.011,13.923 M47.77,20.115c0.08,0.064,0.161,0.132,0.24,0.202c0.114,0.104,0.225,0.214,0.32,0.334
	c-0.431-0.036-1.028,0.211-1.286-0.289l0.015-0.045l0.151-0.451C47.36,20.041,47.585,20.031,47.77,20.115 M48.247,21.189
	c-0.197,0.076-0.332-0.124-0.477-0.227c0.15-0.046,0.457-0.099,0.579,0.041C48.33,21.069,48.32,21.141,48.247,21.189 M48.165,21.766
	c-0.377-0.289-0.701-0.681-1.016-1.032c0.379,0.269,0.685,0.625,1.016,0.97V21.766z M47.957,22.158
	c-0.358-0.496-0.79-0.91-1.098-1.425h0.059c0.426,0.412,0.742,0.815,1.101,1.258C48.024,22.06,48.019,22.121,47.957,22.158
	 M47.644,22.302c-0.248-0.475-0.785-0.887-0.871-1.425l0.913,1.281C47.677,22.208,47.714,22.276,47.644,22.302 M47.127,22.446
	c-0.139-0.489-0.456-0.906-0.539-1.423h0.041c0.176,0.439,0.523,0.81,0.621,1.28C47.271,22.375,47.185,22.462,47.127,22.446
	 M46.382,21.126h0.06c0.176,0.422,0.259,0.907,0.249,1.382C46.079,22.25,46.458,21.569,46.382,21.126 M45.838,20.318
	c-0.079-0.174-0.136-0.357-0.183-0.535H45.8c-0.029-0.205-0.183-0.411-0.271-0.617c-0.104-0.161,0.134-0.48-0.124-0.475
	l-0.041,0.041c-0.33-0.6,0.083-1.131,0.215-1.728c0.028-0.127,0.043-0.26,0.034-0.397c0.059-0.134-0.136-0.371,0.124-0.35
	c0.364,0.01,0.681-0.181,0.871-0.496c0.109-0.166,0.028-0.444,0.23-0.537c0.284,0.13,0.387,0.445,0.396,0.744
	c-0.093,0.33-0.123,0.686-0.097,1.035l0.004,0.002h-0.004c0.001,0.022,0.004,0.042,0.005,0.062c0.038,0.401,0.15,0.796,0.319,1.13
	l-0.083,0.516C47.1,18.67,47.296,19,47.21,19.124c-0.058,0.241-0.202,0.449-0.332,0.659l0.104,0.065
	c-0.05,0.157-0.109,0.316-0.181,0.47c-0.108,0.225-0.251,0.434-0.462,0.602C46.1,20.775,45.947,20.557,45.838,20.318 M45.901,22.488
	h-0.06c-0.025-0.511,0.181-0.945,0.332-1.362C46.18,21.569,46.396,22.198,45.901,22.488 M45.529,22.467
	c-0.061,0.056-0.141-0.025-0.166-0.082c0.113-0.521,0.415-0.965,0.623-1.443C45.943,21.466,45.678,21.957,45.529,22.467
	 M45.073,22.22c-0.035,0.016-0.058-0.021-0.083-0.041c0.235-0.434,0.509-0.887,0.851-1.237
	C45.696,21.409,45.285,21.776,45.073,22.22 M44.72,21.992h-0.04c0.128-0.424,0.602-0.722,0.911-1.051
	C45.472,21.337,44.912,21.586,44.72,21.992 M44.512,21.662c0.031-0.289,0.399-0.427,0.603-0.64l0.413-0.289
	c-0.266,0.351-0.653,0.577-0.954,0.929H44.512z M44.348,21.189c-0.016-0.104,0.092-0.177,0.165-0.227
	c0.084-0.031,0.207-0.031,0.29,0C44.682,21.027,44.565,21.332,44.348,21.189 M44.717,20.318c0.01-0.007,0.015-0.011,0.025-0.017
	c0.319,0.077,0.835-0.744,0.869,0.017v0.004c-0.224,0.465-0.804,0.402-1.264,0.371C44.373,20.551,44.578,20.423,44.717,20.318
	 M45.756,15.077c-0.144-0.009-0.258-0.087-0.371-0.162c0.138-0.069,0.345,0.137,0.476-0.021c0.025-0.211-0.186-0.325-0.312-0.475
	c0.206-0.011,0.363,0.145,0.351,0.35C45.855,14.871,45.931,15.062,45.756,15.077 M46.172,14.851
	c0.041,0.017,0.126-0.036,0.126,0.042c0.004,0.041-0.006,0.107-0.064,0.082h-0.062V14.851z M48.6,15.656
	c0.275-0.267,0.268-0.655,0.435-0.97c0.038,0.094-0.077,0.176,0.023,0.249c0.113-0.011,0.113-0.155,0.248-0.124
	c0.103,0.217-0.344,0.299-0.144,0.454c0.116-0.042,0.247-0.17,0.373-0.061c-0.006,0.17-0.229,0.17-0.27,0.31
	c0.182,0.01,0.353,0.076,0.456,0.226c0.033,0.082-0.061,0.112-0.124,0.101c-0.156,0.032-0.318-0.06-0.435,0
	c0.093,0.162,0.338,0.187,0.31,0.415c-0.214,0.081-0.348-0.14-0.539-0.166c-0.053,0.149,0.196,0.227,0.165,0.392
	c-0.192,0.061-0.33-0.13-0.477-0.206c-0.035,0.097,0.031,0.201,0.083,0.287c-0.149,0.074-0.299-0.035-0.372-0.164
	C48.122,16.106,48.513,15.904,48.6,15.656 M49.305,12.209c0.118,0.006,0.109,0.141,0.166,0.207c-0.048,0.17-0.171,0.361-0.083,0.536
	c0.116-0.072,0.103-0.269,0.248-0.309c-0.019,0.221-0.102,0.465-0.248,0.66C49.232,12.989,49.242,12.56,49.305,12.209 M49.867,12.89
	c-0.026,0.197-0.198,0.382-0.333,0.559h-0.02C49.528,13.247,49.705,13.025,49.867,12.89 M49.574,14.419
	c-0.057-0.119,0.141-0.185,0.229-0.227c0.03,0,0.088-0.005,0.083,0.042C49.896,14.429,49.668,14.336,49.574,14.419 M49.989,13.387
	c-0.023,0.115-0.116,0.209-0.22,0.297c-0.08,0.06-0.165,0.12-0.235,0.177c-0.019-0.062-0.01-0.121,0.012-0.177
	c0.062-0.152,0.24-0.29,0.359-0.42C49.974,13.253,50.006,13.33,49.989,13.387 M48.808,20.92c0.108,0.015,0.25-0.035,0.332,0.041
	c0.005,0.096-0.104,0.18-0.19,0.206c-0.097,0.041-0.235,0.021-0.286-0.062C48.636,20.991,48.731,20.951,48.808,20.92 M49.534,20.92
	c0.162,0.025,0.389-0.069,0.477,0.082c-0.063,0.34-0.498,0.124-0.748,0.186C49.278,21.047,49.433,20.987,49.534,20.92
	 M43.849,21.189c-0.151-0.016-0.25,0.036-0.374-0.042c0.02-0.071,0.061-0.135,0.124-0.185c0.106-0.031,0.25-0.031,0.353,0
	C44.01,21.047,43.952,21.177,43.849,21.189 M43.122,21.209c-0.18,0.01-0.466,0.087-0.579-0.082c0.065-0.305,0.482-0.107,0.725-0.165
	l0.041,0.041C43.314,21.1,43.206,21.182,43.122,21.209 M44.408,16.606c-0.089,0.005-0.148-0.056-0.144-0.144
	c-0.036-0.067,0.078-0.125-0.02-0.166c-0.111,0.072-0.209,0.222-0.354,0.144c-0.049-0.144,0.083-0.261,0.124-0.391
	c-0.165-0.02-0.285,0.254-0.497,0.125c-0.046-0.175,0.103-0.27,0.188-0.392c-0.168-0.094-0.291,0.092-0.459,0
	c0.01-0.151,0.266-0.201,0.396-0.311c-0.116-0.077-0.298-0.179-0.313-0.349c0.193-0.104,0.323,0.195,0.501,0.061
	c0.003-0.154-0.183-0.289-0.085-0.435c0.073,0.032,0.124,0.109,0.187,0.167c0.128-0.037,0.015-0.167,0.02-0.249
	c0.187,0.257,0.031,0.696,0.374,0.907c0.206,0.135,0.264,0.367,0.332,0.579C44.672,16.343,44.569,16.507,44.408,16.606
	 M43.039,14.398c-0.051-0.072-0.072-0.155-0.06-0.249c0.103-0.045,0.195,0.176,0.31,0.042c-0.025-0.201-0.285-0.269-0.354-0.454
	c0.151-0.102,0.297,0.216,0.395,0c-0.008-0.019-0.015-0.036-0.028-0.052c-0.103-0.14-0.369-0.215-0.283-0.421l0.209,0.102
	c0.01-0.17-0.156-0.295-0.106-0.455c0.142,0.089,0.222,0.274,0.333,0.412c-0.024,0.122-0.048,0.241-0.067,0.36
	c-0.044,0.282-0.059,0.561,0.004,0.859C43.252,14.548,43.149,14.465,43.039,14.398 M43.352,12.457
	c0.128,0.167,0.107,0.43,0.165,0.641C43.402,12.928,43.21,12.674,43.352,12.457 M43.745,11.963c0.009,0.309,0.085,0.619-0.062,0.887
	C43.728,12.556,43.252,12.143,43.745,11.963 M52.936,17.122c0.2-0.1,0.464-0.055,0.682-0.117h-0.03l0.011-0.001h0.019
	c0.008,0,0.015-0.002,0.023-0.005c0.005-0.015,0.009-0.03,0.01-0.046c0.033-0.235-0.211-0.421-0.258-0.615l0.643-0.309
	c-0.011-0.231-0.308-0.311-0.396-0.495c0.193-0.141,0.406-0.222,0.603-0.351l0.02-0.105c-0.198-0.209-0.451-0.36-0.706-0.474
	l-0.019-0.061l0.455-0.412v-0.105c-0.181-0.18-0.455-0.149-0.665-0.267c0.014-0.027,0.031-0.051,0.049-0.074
	c0.133-0.164,0.392-0.246,0.427-0.462c-0.129-0.15-0.319-0.14-0.496-0.166c-0.119,0-0.254,0.084-0.353,0
	c0.129-0.237,0.415-0.355,0.477-0.617c-0.403-0.16-0.813,0.107-1.183,0.165c0.111-0.17,0.244-0.305,0.416-0.415
	c0.16-0.149,0.484-0.297,0.395-0.535c-0.401,0-0.732,0.154-1.057,0.33c-0.239,0.082-0.436,0.33-0.663,0.371
	c0.163-0.211,0.433-0.34,0.622-0.577c0.175-0.191,0.142-0.469,0.372-0.64c0.016-0.117,0.151-0.231,0.041-0.351
	c-0.56,0.14-1.058,0.557-1.432,1.011l-0.043-0.041c0.163-0.231,0.225-0.5,0.457-0.701c0.127-0.269,0.374-0.594,0.188-0.889
	c-0.557,0.166-0.835,0.775-1.162,1.177c-0.064-0.066-0.052-0.161-0.064-0.247c0.295-0.38,0.285-0.897,0.332-1.382
	c0.008-0.082-0.065-0.176-0.143-0.124c-0.328,0.241-0.415,0.612-0.56,0.949l-0.043-0.041V9.671c-0.02-0.22-0.097-0.495-0.332-0.556
	c-0.237,0.231-0.146,0.599-0.249,0.886c-0.093,0-0.107-0.107-0.165-0.164c-0.033-0.032-0.103-0.032-0.126,0.021
	c-0.067,1.217,0.028,2.346,0.104,3.528c-0.049,0.096-0.09,0.196-0.123,0.297c-0.263,0.781-0.167,1.706-0.873,2.303
	c-0.182,0.139-0.403-0.005-0.623,0.041c-0.118-0.144-0.107-0.345-0.166-0.515c-0.285-0.79-1.141-0.997-1.804-1.261
	c-0.146-0.015-0.374-0.066-0.477,0.042c0.227,0.112,0.469,0.242,0.623,0.474l-0.041,0.042c-0.193-0.069-0.416-0.125-0.622-0.104
	c0.123,0.345,0.538,0.387,0.745,0.66c0.03,0.247,0.063,0.546-0.187,0.702c-0.171,0.112-0.247-0.114-0.394-0.124
	c-0.144-0.015-0.324,0.129-0.435-0.042c-0.052-0.427-0.655-0.627-0.518-1.135c-0.176-0.344-0.308-0.702-0.381-1.087
	c-0.031-0.175-0.051-0.356-0.055-0.542c0.129-1.067,0.642-2.162,0.27-3.261c-0.157,0.01-0.178,0.196-0.312,0.247l-0.041-0.041
	c0.01-0.33-0.01-0.645-0.063-0.949L43.578,8.97c-0.186,0.097-0.31,0.326-0.351,0.536c0.102,0.495-0.018,1.002-0.021,1.507
	c-0.129-0.232-0.157-0.505-0.227-0.762c-0.131-0.275-0.182-0.687-0.52-0.764c-0.222,0.324-0.015,0.725-0.021,1.094
	c0.041,0.205,0.271,0.385,0.124,0.619l-0.476-0.661c-0.162-0.175-0.353-0.439-0.58-0.432c-0.046,0.432,0.216,0.736,0.352,1.094
	c0.052,0.175,0.244,0.32,0.229,0.495c-0.487-0.341-0.912-0.744-1.474-0.847c-0.051,0.461,0.459,0.744,0.686,1.116l-0.041,0.041
	c-0.281-0.124-0.551-0.27-0.81-0.434c-0.171-0.036-0.335-0.206-0.519-0.084c0,0.33,0.212,0.589,0.437,0.806
	c-0.28,0.036-0.593-0.161-0.872,0c0.057,0.246,0.357,0.397,0.435,0.639c-0.263,0.14-0.617,0.054-0.891,0.166
	c0.068,0.196,0.263,0.335,0.373,0.515l-0.063,0.062c-0.028,0-0.053,0.003-0.078,0.009c-0.182,0.026-0.328,0.145-0.482,0.239
	c0.025,0.249,0.338,0.384,0.456,0.62c-0.201,0.127-0.423,0.304-0.56,0.516c0.147,0.201,0.384,0.276,0.499,0.475
	c-0.152,0.201-0.447,0.324-0.456,0.599c0.144,0.164,0.384,0.172,0.559,0.307c-0.087,0.161-0.258,0.305-0.207,0.496
	c0.058,0.032,0.122,0.052,0.185,0.071c0.196,0.05,0.408,0.052,0.604,0.095c-0.068,0.165-0.119,0.335-0.144,0.515
	c0.155,0.201,0.494,0.114,0.705,0.165c-0.016,0.166-0.129,0.347-0.146,0.537c0.202,0.129,0.457,0.016,0.685,0.021
	c0.136-0.032,0.151,0.119,0.166,0.206c0.043,0.287,0.332,0.051,0.52,0.124l0.206,0.351c0.114,0.01,0.217-0.01,0.312-0.062
	c0.166-0.105,0.244,0.087,0.31,0.186c0.121,0.185,0.29,0,0.436,0c0.111,0.051,0.151,0.165,0.229,0.247
	c0.156,0.087,0.244-0.104,0.352-0.186c0.21-0.107,0.288,0.206,0.457,0.247c0.197-0.16,0.415-0.211,0.663-0.124
	c0.275-0.231,0.245-0.594,0.271-0.929c0.02-0.056,0.041-0.151,0.124-0.145c0.113,0.47,0.413,0.991,0.062,1.445
	c-0.226,0.162-0.423,0.414-0.639,0.616c-0.263,0.247-0.558,0.424-0.979,0.292c-0.312,0.275-0.882-0.046-1.121,0.351
	c-0.046,0.132-0.015,0.287,0.082,0.391c0.188,0.114,0.499,0.084,0.666,0.062c0.113,0.066,0.222,0.129,0.373,0.102
	c0.129-0.201,0.27-0.005,0.415,0.022c0.151,0.004,0.275-0.181,0.416-0.084c-0.141,0.226-0.302,0.439-0.353,0.702
	c-0.016,0.185,0.29,0.132,0.207,0.35c0.048,0.16,0.217,0.104,0.31,0.185c0.01,0.269,0.312,0.196,0.479,0.269
	c0.05,0.464,0.565-0.061,0.662,0.372c0.111,0,0.192-0.074,0.293-0.102c0.123,0.015,0.217,0.155,0.289,0.247
	c0.21,0.164,0.286-0.11,0.435-0.207l0.376,0.145l0.25-0.287c0.288,0.209,0.392-0.212,0.663-0.126
	c0.187,0.022,0.165-0.191,0.248-0.289c0.322,0.045,0.274-0.397,0.579-0.392c0.023-0.36-0.305-0.572-0.392-0.886
	c0.123-0.072,0.222,0.035,0.31,0.104c0.192,0.06,0.291-0.1,0.437-0.146c0.266,0.407,0.529-0.155,0.871-0.041
	c0.156-0.05,0.3-0.211,0.27-0.391c-0.038-0.084-0.088-0.191-0.186-0.207c-0.515,0.062-0.862-0.277-1.392-0.185l-0.264-0.251
	l-0.607-0.575c-0.445-0.304-0.275-0.836-0.166-1.238c0.01-0.061,0.078-0.164,0.166-0.124c0.202,0.279,0.089,0.722,0.415,0.971
	c0.101,0.056,0.207,0.077,0.29-0.021c0.134-0.124,0.28,0.035,0.356,0.145c0.107,0.015,0.173-0.072,0.247-0.145
	c0.155-0.129,0.289,0.055,0.436,0.082c0.077-0.061,0.137-0.165,0.206-0.247c0.126-0.072,0.209,0.065,0.313,0.104
	c0.19,0.057,0.196-0.234,0.332-0.331c0.15-0.005,0.258,0.094,0.413,0.084l0.166-0.29c0.168-0.191,0.374,0.016,0.58-0.02l0.271-0.392
	l0.436-0.021c0.114-0.124,0.108-0.299,0.103-0.474c0.216-0.14,0.524-0.067,0.768-0.145C53.118,17.492,53.009,17.297,52.936,17.122"
	/>
<rect x="30.153" y="16.037" fill="#FFFFFF" width="1.758" height="0.441"/>
<rect x="30.183" y="15.318" transform="matrix(-0.9992 -0.0401 0.0401 -0.9992 61.4638 32.3066)" fill="#FFFFFF" width="1.746" height="0.439"/>
<rect x="30.239" y="14.626" transform="matrix(-0.9969 -0.0789 0.0789 -0.9969 60.9511 32.0973)" fill="#FFFFFF" width="1.742" height="0.436"/>
<rect x="30.326" y="13.935" transform="matrix(-0.9929 -0.1188 0.1188 -0.9929 60.4854 31.9113)" fill="#FFFFFF" width="1.736" height="0.435"/>
<rect x="30.44" y="13.243" transform="matrix(-0.9874 -0.1584 0.1584 -0.9874 60.0865 31.7117)" fill="#FFFFFF" width="1.735" height="0.435"/>
<rect x="30.55" y="12.551" transform="matrix(-0.9804 -0.1968 0.1968 -0.9804 59.7119 31.472)" fill="#FFFFFF" width="1.74" height="0.436"/>
<rect x="30.72" y="11.872" transform="matrix(-0.9717 -0.2361 0.2361 -0.9717 59.4378 31.3016)" fill="#FFFFFF" width="1.747" height="0.439"/>
<rect x="30.918" y="11.193" transform="matrix(-0.9614 -0.2751 0.2751 -0.9614 59.2241 31.1339)" fill="#FFFFFF" width="1.754" height="0.441"/>
<rect x="60.936" y="16.037" fill="#FFFFFF" width="1.756" height="0.441"/>
<rect x="61.57" y="14.664" transform="matrix(-0.037 -0.9993 0.9993 -0.037 48.5518 77.8598)" fill="#FFFFFF" width="0.439" height="1.746"/>
<rect x="61.518" y="13.974" transform="matrix(-0.0721 -0.9974 0.9974 -0.0721 51.3826 77.4898)" fill="#FFFFFF" width="0.435" height="1.742"/>
<polygon fill="#FFFFFF" points="60.761,14.04 60.811,14.472 62.541,14.266 62.486,13.833 "/>
<polygon fill="#FFFFFF" points="60.643,13.383 60.715,13.813 62.432,13.538 62.358,13.108 "/>
<rect x="61.203" y="11.901" transform="matrix(-0.2042 -0.9789 0.9789 -0.2042 61.4663 75.5051)" fill="#FFFFFF" width="0.437" height="1.739"/>
<rect x="61.031" y="11.219" transform="matrix(-0.2403 -0.9707 0.9707 -0.2403 64.2336 74.4539)" fill="#FFFFFF" width="0.439" height="1.747"/>
<rect x="60.829" y="10.535" transform="matrix(-0.2737 -0.9618 0.9618 -0.2737 66.7774 73.2555)" fill="#FFFFFF" width="0.44" height="1.757"/>
</svg>
