<?xml version="1.0" encoding="utf-8"?>
<!-- Generator: Adobe Illustrator 18.0.0, SVG Export Plug-In . SVG Version: 6.00 Build 0)  -->
<!DOCTYPE svg PUBLIC "-//W3C//DTD SVG 1.1//EN" "http://www.w3.org/Graphics/SVG/1.1/DTD/svg11.dtd">
<svg version="1.1" xmlns="http://www.w3.org/2000/svg" xmlns:xlink="http://www.w3.org/1999/xlink" x="0px" y="0px" width="36px"
	 height="144px" viewBox="0 0 36 144" enable-background="new 0 0 36 144" xml:space="preserve">
<g id="Twitter">
	<path fill="#FFFFFF" d="M26.748,13.482c0.009,0.195,0.011,0.392,0.011,0.588C26.76,20.077,22.221,27,13.919,27
		C11.371,27,8.998,26.248,7,24.959c0.354,0.042,0.712,0.063,1.077,0.063c2.115,0,4.061-0.727,5.606-1.944
		c-1.975-0.037-3.641-1.351-4.217-3.157c0.276,0.053,0.559,0.082,0.849,0.082c0.413,0,0.811-0.056,1.19-0.16
		c-2.065-0.418-3.621-2.256-3.621-4.456V15.33c0.609,0.34,1.305,0.545,2.044,0.568c-1.21-0.815-2.008-2.205-2.008-3.781
		c0-0.832,0.223-1.614,0.612-2.284c2.226,2.749,5.552,4.557,9.301,4.748c-0.074-0.333-0.115-0.679-0.115-1.036
		c0-2.509,2.02-4.544,4.512-4.544c1.299,0,2.472,0.552,3.294,1.436c1.028-0.205,1.995-0.583,2.866-1.105
		c-0.337,1.063-1.051,1.953-1.984,2.515c0.914-0.11,1.783-0.353,2.592-0.715C28.396,12.043,27.629,12.842,26.748,13.482"/>
</g>
<g id="Facebook">
	<path fill="#FFFFFF" d="M21.6,54.007h-3.082V65h-4.569V54.007h-2.172v-3.882h2.172v-2.514c0-1.799,0.854-4.611,4.611-4.611
		l3.384,0.013v3.77h-2.457c-0.4,0-0.969,0.201-0.969,1.057v2.284H22L21.6,54.007z"/>
</g>
<g id="Email">
	<path fill="#FFFFFF" d="M29,100H7V87.074c0-0.091,0.059-0.21,0.13-0.265l1.305-1.005c0.04-0.03,0.076-0.046,0.112-0.057v-5.631
		h7.293c0.017-0.02,0.03-0.04,0.059-0.061l2.099-1.618l2.102,1.618c0.027,0.021,0.04,0.042,0.059,0.061h7.307v5.636
		c0.033,0.013,0.064,0.025,0.098,0.052l1.305,1.005C28.941,86.865,29,86.985,29,87.076V100z M11.415,83.007h4.4v4.4h-4.4V83.007z
		 M17.089,86.306h3.042v0.812h-3.042V86.306z M17.089,84.658h7.449v0.811h-7.449V84.658z M17.089,83.007h7.449v0.811h-7.449V83.007z
		 M10.059,89.469l7.946,4.276l7.698-4.143c0.138-0.073,0.25-0.261,0.25-0.416v-7.854H10.059V89.469z"/>
</g>
<g id="Print">
	<path fill="#FFFFFF" d="M29,129.652c-0.023,0.096-0.048,0.192-0.071,0.288c-0.288,1.187-1.264,1.958-2.505,1.979
		c-0.269,0.004-0.538,0-0.829,0c0,0.11,0.001,0.193,0,0.279c-0.011,0.856,0.012,1.715-0.044,2.57
		c-0.052,0.806-0.478,1.436-1.175,1.835c-0.331,0.189-0.726,0.268-1.091,0.397H12.714c-0.226-0.056-0.458-0.1-0.681-0.17
		c-0.849-0.268-1.592-1.193-1.629-2.079c-0.034-0.851-0.023-1.703-0.032-2.554c-0.001-0.084,0-0.167,0-0.277
		c-0.281,0-0.537,0.003-0.792,0c-1.243-0.019-2.222-0.79-2.51-1.977c-0.023-0.097-0.048-0.193-0.071-0.29v-5.629
		c0.014-0.031,0.034-0.062,0.041-0.095c0.192-1.117,0.97-1.92,2.086-2.108c0.328-0.055,0.671-0.041,1.006-0.036
		c0.185,0.003,0.246-0.045,0.244-0.239c-0.008-1.295-0.008-2.592-0.004-3.888c0.004-1.027,0.413-1.839,1.334-2.329
		c0.307-0.163,0.67-0.222,1.007-0.329h10.571c0.038,0.014,0.077,0.036,0.118,0.04c0.63,0.082,1.146,0.37,1.564,0.845
		c0.469,0.532,0.631,1.166,0.629,1.862c-0.005,1.252-0.001,2.503-0.001,3.755v0.284c0.338,0,0.65-0.01,0.963,0.001
		c1.139,0.043,2.076,0.807,2.355,1.91c0.027,0.108,0.058,0.217,0.086,0.325V129.652z M23.896,121.748
		c0.007-0.062,0.018-0.111,0.018-0.159c0-1.311,0.001-2.621-0.001-3.932c0-0.121-0.014-0.244-0.047-0.36
		c-0.113-0.405-0.446-0.616-0.968-0.616c-3.273-0.002-6.546-0.002-9.818,0c-0.699,0-1.022,0.328-1.024,1.028
		c-0.001,1.275-0.001,2.55,0,3.825c0,0.069,0.007,0.137,0.011,0.214H23.896z M22.206,131.054h-8.417v-1.64h8.417V131.054z
		 M19.673,133.588H13.8v-1.641h5.872V133.588z M23.894,127.71H12.073c-0.007,0.056-0.015,0.097-0.015,0.14
		c-0.001,2.177-0.004,4.353,0.001,6.53c0.001,0.6,0.344,0.937,0.959,0.939c3.307,0.004,6.615,0.003,9.923,0
		c0.287,0,0.552-0.067,0.753-0.297c0.18-0.202,0.22-0.445,0.22-0.7c0-2.148,0-4.295-0.001-6.443
		C23.913,127.824,23.901,127.769,23.894,127.71 M25.181,123.46c-0.7,0.004-1.263,0.575-1.26,1.276
		c0.003,0.699,0.574,1.268,1.272,1.268c0.694,0,1.271-0.574,1.275-1.268C26.471,124.031,25.891,123.456,25.181,123.46"/>
</g>
</svg>
