<?xml version="1.0" encoding="utf-8"?>
<!-- Generator: Adobe Illustrator 16.0.0, SVG Export Plug-In . SVG Version: 6.00 Build 0)  -->
<!DOCTYPE svg PUBLIC "-//W3C//DTD SVG 1.1//EN" "http://www.w3.org/Graphics/SVG/1.1/DTD/svg11.dtd">
<svg version="1.1" id="Layer_1" xmlns="http://www.w3.org/2000/svg" xmlns:xlink="http://www.w3.org/1999/xlink" x="0px" y="0px"
	 width="80px" height="72px" viewBox="-265.5 431 80 72" enable-background="new -265.5 431 80 72" xml:space="preserve">
<path fill="#008589" d="M-227.707,476.82c0,0.957-0.699,1.736-1.558,1.736h-2.334c-0.86,0-1.559-0.779-1.559-1.736
	c0-0.5,0.195-0.948,0.501-1.266l4.431-0.018C-227.909,475.855-227.707,476.311-227.707,476.82 M-220.301,449.223
	c-0.217-0.684-0.891-1.043-1.504-0.803c-0.611,0.24-0.936,0.989-0.719,1.672l0.433,1.366l-0.13,0.114l2.92,9.242
	c0.111,0.356-0.021,0.742-0.299,0.932l0.103,0.378l-24.025,11.541l-0.428-0.953c-0.105-0.09-0.191-0.21-0.238-0.358l-0.33-1.047
	l-0.269,0.237l-0.324-1.026c-0.203-0.643-0.836-0.979-1.41-0.754c-0.576,0.227-0.879,0.93-0.677,1.57l1.93,6.107
	c0.16,0.508,0.587,0.824,1.043,0.824c0.122,0,0.246-0.021,0.367-0.07c0.576-0.226,0.879-0.928,0.676-1.569l-0.325-1.028l8.659-0.035
	c-0.123,0.396-0.194,0.818-0.194,1.26c0,2.113,1.544,3.834,3.443,3.834h2.334c1.898,0,3.443-1.721,3.443-3.834
	c0-0.454-0.075-0.889-0.206-1.293l11.524-0.045l0.73,2.318c0.17,0.54,0.625,0.877,1.111,0.877c0.13,0,0.262-0.023,0.391-0.074
	c0.613-0.24,0.938-0.988,0.722-1.672L-220.301,449.223z"/>
<polyline fill="#008589" points="-242.854,471.838 -221.842,457.514 -223.393,452.607 -243.349,470.27 -242.855,471.83 
	-242.854,471.838 "/>
<path fill="#008589" d="M-203.773,461.706c-0.014-0.134-0.019-0.235-0.041-0.397l-0.043-0.334c-0.086-0.541-0.203-1.019-0.351-1.507
	c-0.601-1.938-1.813-3.625-3.335-4.688c-1.52-1.066-3.355-1.521-5.014-1.132c1.572,0.67,2.877,1.566,3.928,2.703
	c1.046,1.133,1.818,2.48,2.283,3.95c0.119,0.362,0.217,0.757,0.287,1.101l0.062,0.33c0.014,0.061,0.029,0.184,0.045,0.272
	c0.027,0.194,0.049,0.39,0.07,0.585c0.074,0.784,0.07,1.583-0.02,2.389c-0.177,1.614-0.697,3.229-1.545,4.844
	c1.508-0.857,2.687-2.486,3.271-4.377c0.296-0.945,0.438-1.961,0.434-2.978C-203.736,462.212-203.753,461.958-203.773,461.706"/>
<path fill="#008589" d="M-207.881,462.197l-0.025-0.197c-0.051-0.318-0.119-0.602-0.205-0.889c-0.354-1.143-1.07-2.137-1.968-2.764
	c-0.896-0.628-1.978-0.895-2.956-0.666c0.928,0.396,1.697,0.924,2.316,1.594c0.617,0.668,1.072,1.461,1.346,2.328
	c0.071,0.213,0.127,0.445,0.169,0.648l0.063,0.355l0.041,0.345c0.045,0.463,0.043,0.933-0.01,1.407
	c-0.104,0.953-0.412,1.904-0.912,2.856c0.89-0.506,1.584-1.466,1.929-2.58c0.175-0.558,0.26-1.155,0.257-1.756
	c0.001-0.149-0.01-0.299-0.021-0.448L-207.881,462.197z"/>
</svg>
