<?xml version="1.0" encoding="utf-8"?>
<!-- Generator: Adobe Illustrator 16.0.0, SVG Export Plug-In . SVG Version: 6.00 Build 0)  -->
<!DOCTYPE svg PUBLIC "-//W3C//DTD SVG 1.1//EN" "http://www.w3.org/Graphics/SVG/1.1/DTD/svg11.dtd">
<svg version="1.1" id="Layer_1" xmlns="http://www.w3.org/2000/svg" xmlns:xlink="http://www.w3.org/1999/xlink" x="0px" y="0px"
	 width="80px" height="72px" viewBox="14.5 672.5 80 72" enable-background="new 14.5 672.5 80 72" xml:space="preserve">
<g>
	<path fill="#008589" d="M38.33,698.569c0,2.066,0.729,3.967,1.938,5.461c0.42-3.015,1.817-5.649,4.079-7.643
		c1.605-1.417,3.158-2.074,3.533-2.222c0.383-0.185,1.886-0.823,4.2-0.823c0.665,0,1.338,0.067,2.015,0.17
		c-1.58-2.2-4.154-3.644-7.065-3.644C42.232,689.871,38.33,693.772,38.33,698.569"/>
	<path fill="#008589" d="M45.444,687.447c0.021,0.184,0.427,0.323,0.427,0.323H45.86l2.3-0.024c-0.834-1.38-0.953-3.002-0.951-3.849
		C45.46,685.132,45.355,686.653,45.444,687.447"/>
	<path fill="#008589" d="M40.37,689.876c0.08,0,0.162-0.023,0.233-0.065l1.988-1.176c-1.413-0.777-2.33-2.12-2.754-2.855
		c-0.896,1.945-0.229,3.317,0.245,3.958C40.17,689.856,40.3,689.876,40.37,689.876"/>
	<path fill="#008589" d="M38.219,692.185c-0.099-0.023-0.162-0.022-0.221-0.022c-1.51,0-2.898-0.672-3.592-1.074
		c0.197,2.13,1.461,2.986,2.193,3.306c0.04,0.02,0.084,0.028,0.128,0.028c0.141,0,0.28-0.089,0.358-0.229L38.219,692.185z"/>
	<path fill="#008589" d="M32.375,698.401c1.021,1.48,2.274,1.789,3.135,1.789h0.001c0.146,0,0.278-0.009,0.396-0.021
		c0.186-0.021,0.324-0.199,0.322-0.415l-0.023-2.31C34.83,698.277,33.218,698.401,32.375,698.401"/>
	<path fill="#008589" d="M38.325,705.137c-0.01-0.05-0.029-0.099-0.057-0.142l-1.175-1.989c-0.776,1.412-2.121,2.33-2.855,2.754
		c0.611,0.304,1.238,0.448,1.837,0.448c0.325,0,0.618-0.044,0.883-0.11C37.397,705.73,37.861,705.409,38.325,705.137"/>
	<path fill="#008589" d="M56.967,694.134c0.004,0,0.022-0.001,0.034-0.021c0.738-1.392,2.082-2.311,2.817-2.733
		c-0.611-0.307-1.238-0.449-1.836-0.449c-0.977,0-1.693,0.377-2.122,0.693c-0.151,0.112-0.181,0.336-0.072,0.521L56.967,694.134z"/>
	<path fill="#008589" d="M51.401,688.626l2.012,1.133c-0.035-1.614,0.671-3.078,1.096-3.812c-2.131,0.196-2.987,1.46-3.307,2.191
		C51.127,688.309,51.213,688.52,51.401,688.626"/>
	<path fill="#008589" d="M42.593,719.345H78.74h0.019c0.327,0,5.031-0.138,4.729-5.082c-0.189-3.095-3.121-3.717-5.246-3.717
		c-0.657,0-1.235,0.043-1.634,0.103c-0.016,0.002-0.031-0.004-0.046-0.004c-0.247,0-0.434-0.302-0.395-0.556
		c0.214-1.365,0.313-4.925-3.56-7.679c-1.476-1.048-3.138-1.386-4.66-1.386c-1.912,0-3.604,0.532-4.433,0.846
		c-0.06,0.022-0.124,0.032-0.184,0.032c-0.221,0-0.429-0.139-0.503-0.364c-0.425-1.266-1.91-4.454-6.478-6.088
		c-1.632-0.583-3.077-0.776-4.271-0.776c-2.298,0-3.667,0.714-3.667,0.714s-6.197,2.222-6.893,9.321
		c-0.031,0.335-0.264,0.614-0.583,0.712c-1.451,0.444-5.316,2.304-5.223,5.954C35.88,718.108,40.647,719.345,42.593,719.345"/>
	<path fill="#008589" d="M48.035,727.652c0.071-0.919-1.354-3.018-1.413-3.105l-0.097,0.066l-0.098-0.066
		c-0.059,0.088-1.45,2.17-1.45,3.236c0,0.594,0.36,1.487,1.353,1.508c0.015,0.001,0.03,0.001,0.045,0.001
		C47.309,729.292,47.959,728.652,48.035,727.652"/>
	<path fill="#008589" d="M54.7,725.742c1.023,0,1.735-0.699,1.82-1.795c0.076-1-1.465-3.273-1.53-3.369l-0.128,0.085l-0.127-0.084
		c-0.064,0.095-1.57,2.348-1.57,3.509c0,0.649,0.396,1.628,1.486,1.653C54.668,725.742,54.684,725.742,54.7,725.742"/>
	<path fill="#008589" d="M51.215,731.006c0.901,0,1.527-0.615,1.601-1.577c0.068-0.88-1.278-2.861-1.335-2.946l-0.125,0.087
		l-0.127-0.084c-0.055,0.082-1.37,2.047-1.37,3.061c0,0.576,0.351,1.438,1.312,1.46C51.188,731.006,51.201,731.006,51.215,731.006"
		/>
	<path fill="#008589" d="M50.164,723.596c0.656,0,1.131-0.465,1.184-1.164c0.049-0.629-0.856-1.975-0.958-2.128l-0.124,0.086
		l-0.124-0.085c-0.041,0.061-0.985,1.474-0.985,2.208c0,0.427,0.259,1.068,0.976,1.083
		C50.143,723.596,50.154,723.596,50.164,723.596"/>
	<path fill="#008589" d="M41.46,724.333c0.797,0,1.374-0.562,1.439-1.414c0.058-0.765-1.041-2.4-1.166-2.583l-0.151,0.102
		l-0.151-0.101c-0.049,0.071-1.195,1.787-1.195,2.682c0,0.518,0.316,1.296,1.185,1.315C41.435,724.333,41.447,724.333,41.46,724.333
		"/>
	<path fill="#008589" d="M46.25,723.596c0.655,0,1.131-0.465,1.184-1.164c0.049-0.629-0.856-1.975-0.958-2.128l-0.124,0.086
		l-0.125-0.085c-0.04,0.061-0.983,1.474-0.983,2.208c0,0.427,0.259,1.068,0.976,1.083C46.228,723.596,46.239,723.596,46.25,723.596"
		/>
</g>
</svg>
