<?xml version="1.0" encoding="utf-8"?>
<!-- Generator: Adobe Illustrator 19.0.0, SVG Export Plug-In . SVG Version: 6.00 Build 0)  -->
<svg version="1.1" id="Layer_1" xmlns="http://www.w3.org/2000/svg" xmlns:xlink="http://www.w3.org/1999/xlink" x="0px" y="0px"
	 width="320px" height="120px" viewBox="0 0 320 120" style="enable-background:new 0 0 320 120;" xml:space="preserve">
<style type="text/css">
	.st0{fill:#FFFFFF;}
</style>
<g id="XMLID_1_">
	<g id="XMLID_2_">
		<polygon id="XMLID_47_" class="st0" points="122.4,37.9 122.4,50.1 122.3,50.1 116.4,37.9 112.6,37.9 112.6,54.3 115.6,54.3 
			115.6,42 115.6,42 121.6,54.3 125.4,54.3 125.4,37.9 		"/>
		<path class="st0" d="M132.1,52.2c0.9,0,1.6-0.4,2.1-1.1s0.6-1.5,0.6-2.5h-1.3c-1.3,0-3.3,0.2-3.3,2.1
			C130.2,51.8,131,52.2,132.1,52.2 M128.6,42.8c1.2-0.6,2.7-0.9,4-0.9c3.5,0,4.9,1.5,4.9,5.1v1.5c0,1.2,0,2.1,0,3s0.1,1.8,0.1,2.7
			H135c-0.1-0.6-0.1-1.4-0.1-1.8l0,0c-0.7,1.3-2.2,2.1-3.5,2.1c-2,0-4-1.3-4-3.6c0-1.8,0.8-2.9,2-3.5c1.1-0.6,2.6-0.7,3.9-0.7h1.5
			c0-1.9-0.8-2.6-2.6-2.6c-1.3,0-2.5,0.5-3.5,1.3L128.6,42.8z"/>
		<path id="XMLID_44_" class="st0" d="M140.8,44.5h-2.2v-2.3h2.2v-2.4l3-1v3.4h2.7v2.3h-2.7v5.6c0,1,0.3,2,1.4,2
			c0.5,0,1.1-0.1,1.4-0.3l0.1,2.5c-0.6,0.2-1.3,0.3-2.2,0.3c-2.3,0-3.6-1.5-3.6-3.9L140.8,44.5L140.8,44.5z"/>
		<path id="XMLID_43_" class="st0" d="M158.3,54.3h-2.8v-1.6h-0.1c-0.9,1.2-2.2,1.9-3.8,1.9c-2.7,0-3.9-2-3.9-4.7v-7.6h3v6.4
			c0,1.5,0,3.5,1.9,3.5c2.2,0,2.6-2.5,2.6-4v-5.9h3v12L158.3,54.3L158.3,54.3z"/>
		<path id="XMLID_42_" class="st0" d="M160.8,42.2h2.7v2.7l0,0c0.1-1.1,1.4-3,3.1-3c0.3,0,0.6,0,0.9,0.1v3.2
			c-0.3-0.2-0.8-0.3-1.3-0.3c-2.4,0-2.4,3.2-2.4,4.9v4.4h-3L160.8,42.2z"/>
		<path class="st0" d="M172.5,52.2c0.9,0,1.6-0.4,2.1-1.1s0.6-1.5,0.6-2.5h-1.3c-1.3,0-3.3,0.2-3.3,2.1
			C170.7,51.8,171.5,52.2,172.5,52.2 M169.1,42.8c1.2-0.6,2.7-0.9,4-0.9c3.5,0,4.9,1.5,4.9,5.1v1.5c0,1.2,0,2.1,0,3s0.1,1.8,0.1,2.7
			h-2.6c-0.1-0.6-0.1-1.4-0.1-1.8l0,0c-0.7,1.3-2.2,2.1-3.5,2.1c-2,0-4-1.3-4-3.6c0-1.8,0.8-2.9,2-3.5c1.1-0.6,2.6-0.7,3.8-0.7h1.7
			c0-1.9-0.8-2.6-2.6-2.6c-1.3,0-2.5,0.5-3.5,1.3L169.1,42.8z"/>
		<rect id="XMLID_39_" x="180.4" y="36.7" class="st0" width="3" height="17.6"/>
		<path class="st0" d="M195.2,44.9h1c1.5,0,3.3-0.2,3.3-2.3c0-2-1.7-2.1-3.3-2.1h-1V44.9z M192,37.9h3.4c3.3,0,7.3-0.1,7.3,4.4
			c0,1.9-1.2,3.5-3.2,3.8l0,0c0.9,0.1,1.3,1,1.7,1.7l2.5,6.4h-3.5l-1.9-5.1c-0.4-1.2-0.8-1.7-2.2-1.7h-1v6.8H192V37.9z"/>
		<path class="st0" d="M212.2,47c-0.1-1.5-0.8-2.8-2.4-2.8c-1.7,0-2.5,1.2-2.6,2.8H212.2z M214.2,53.6c-1.1,0.6-2.3,1-3.9,1
			c-3.8,0-6-2.3-6-6.3c0-3.5,1.8-6.4,5.3-6.4c4.3,0,5.5,3.1,5.5,7.3h-7.9c0.1,2,1.4,3.1,3.3,3.1c1.5,0,2.7-0.6,3.8-1.2v2.5H214.2z"
			/>
		<path id="XMLID_34_" class="st0" d="M223.8,44.7c-0.9-0.3-1.6-0.5-2.7-0.5c-0.8,0-1.8,0.3-1.8,1.3c0,1.9,5.2,0.7,5.2,5.1
			c0,2.8-2.4,3.9-4.8,3.9c-1.1,0-2.3-0.2-3.4-0.5l0.2-2.6c0.9,0.5,1.9,0.8,2.9,0.8c0.8,0,2-0.3,2-1.5c0-2.4-5.2-0.8-5.2-5.1
			c0-2.6,2.2-3.8,4.5-3.8c1.4,0,2.3,0.2,3.3,0.4L223.8,44.7z"/>
		<path class="st0" d="M231.6,52.1c2.3,0,2.9-2.2,2.9-4.2c0-1.9-0.9-3.6-2.9-3.6c-1.9,0-2.9,1.8-2.9,3.6
			C228.7,49.9,229.3,52.1,231.6,52.1 M231.6,41.9c3.4,0,6,2.4,6,6.4c0,3.5-2.2,6.2-6,6.2s-6-2.8-6-6.2
			C225.6,44.3,228.2,41.9,231.6,41.9"/>
		<path id="XMLID_31_" class="st0" d="M249.9,54.3h-2.8v-1.6l0,0c-0.9,1.2-2.2,1.9-3.8,1.9c-2.7,0-3.9-2-3.9-4.7v-7.6h3v6.4
			c0,1.5,0,3.5,1.9,3.5c2.2,0,2.6-2.5,2.6-4v-5.9h3V54.3z"/>
		<path id="XMLID_30_" class="st0" d="M252.4,42.2h2.7v2.7l0,0c0.1-1.1,1.4-3,3.1-3c0.3,0,0.6,0,0.9,0.1v3.2
			c-0.3-0.2-0.8-0.3-1.3-0.3c-2.4,0-2.4,3.2-2.4,4.9v4.4h-3V42.2z"/>
		<path id="XMLID_29_" class="st0" d="M267.9,44.8c-0.5-0.3-1.1-0.4-2-0.4c-1.8,0-3,1.5-3,3.8c0,2.2,1,3.9,3.1,3.9
			c0.8,0,1.8-0.3,2.3-0.6l0.1,2.6c-0.9,0.3-1.8,0.4-3,0.4c-3.8,0-5.7-2.7-5.7-6.4c0-3.5,2-6.3,5.5-6.3c1.2,0,2.1,0.1,2.9,0.4
			L267.9,44.8z"/>
		<path class="st0" d="M277,47c-0.1-1.5-0.8-2.8-2.4-2.8c-1.7,0-2.5,1.2-2.7,2.8H277z M279,53.6c-1.1,0.6-2.3,1-3.9,1
			c-3.8,0-6-2.3-6-6.3c0-3.5,1.8-6.4,5.3-6.4c4.2,0,5.5,3.1,5.5,7.3H272c0.1,2,1.4,3.1,3.3,3.1c1.4,0,2.7-0.6,3.8-1.2v2.5H279z"/>
		<path id="XMLID_26_" class="st0" d="M288.5,44.7c-0.9-0.3-1.6-0.5-2.7-0.5c-0.8,0-1.8,0.3-1.8,1.3c0,1.9,5.2,0.7,5.2,5.1
			c0,2.8-2.4,3.9-4.8,3.9c-1.1,0-2.3-0.2-3.4-0.5l0.2-2.6c0.9,0.5,1.9,0.8,2.9,0.8c0.8,0,2-0.3,2-1.5c0-2.4-5.2-0.8-5.2-5.1
			c0-2.6,2.2-3.8,4.5-3.8c1.4,0,2.3,0.2,3.2,0.4L288.5,44.7z"/>
		<polygon id="XMLID_25_" class="st0" points="113,62.7 114.6,62.7 114.6,69.8 121.6,62.7 123.7,62.7 116,70.2 124.3,78.5 
			122.2,78.5 114.6,70.6 114.6,78.5 113,78.5 		"/>
		<path class="st0" d="M132,72.7h-0.4c-2.5,0-5.4,0.3-5.4,2.8c0,1.5,1.1,2.1,2.4,2.1c3.3,0,3.4-2.9,3.4-4.1V72.7z M132.1,76.6
			L132.1,76.6c-0.7,1.4-2.3,2.1-3.7,2.1c-3.3,0-3.8-2.2-3.8-3.2c0-3.9,4.1-4,7.1-4h0.3v-0.6c0-2-0.7-2.9-2.6-2.9
			c-1.2,0-2.3,0.3-3.4,0.9v-1.4c0.9-0.4,2.4-0.8,3.4-0.8c2.8,0,4,1.3,4,4.3v5.1c0,0.9,0,1.6,0.1,2.4h-1.4V76.6z"/>
		<path id="XMLID_22_" class="st0" d="M135.8,69.7c0-0.9,0-1.8-0.1-2.7h1.4v2l0,0c0.5-1,1.3-2.3,3.7-2.3c2.8,0,3.9,1.9,3.9,4.4v7.3
			h-1.4v-7c0-2.2-0.8-3.6-2.7-3.6c-2.6,0-3.4,2.3-3.4,4.2v6.3h-1.4V69.7z"/>
		<path class="st0" d="M151.5,77.2c2.6,0,3.5-2.4,3.5-4.5c0-2.8-0.8-4.8-3.4-4.8c-2.7,0-3.4,2.6-3.4,4.8
			C148.2,75,149.1,77.2,151.5,77.2 M156.4,77.5c0,3.2-1.4,5.8-5.4,5.8c-1.5,0-2.9-0.4-3.5-0.6l0.1-1.4c0.9,0.5,2.1,0.8,3.4,0.8
			c3.6,0,4-2.7,4-5.9l0,0c-0.8,1.7-2,2.2-3.5,2.2c-3.7,0-4.8-3.2-4.8-5.7c0-3.5,1.3-6,4.7-6c1.5,0,2.5,0.2,3.6,1.6l0,0V67h1.4V77.5z
			"/>
		<path class="st0" d="M165.3,72.7h-0.5c-2.5,0-5.4,0.3-5.4,2.8c0,1.5,1.1,2.1,2.4,2.1c3.3,0,3.4-2.9,3.4-4.1L165.3,72.7L165.3,72.7
			z M165.4,76.6L165.4,76.6c-0.7,1.4-2.3,2.1-3.7,2.1c-3.3,0-3.8-2.2-3.8-3.2c0-3.9,4.1-4,7.1-4h0.3v-0.6c0-2-0.7-2.9-2.6-2.9
			c-1.2,0-2.3,0.3-3.4,0.9v-1.4c0.9-0.4,2.4-0.8,3.4-0.8c2.8,0,4,1.3,4,4.3v5.1c0,0.9,0,1.6,0.1,2.4h-1.4V76.6z"/>
		<path id="XMLID_17_" class="st0" d="M169,69.5c0-1.3,0-1.7-0.1-2.6h1.4v2.2l0,0c0.5-1.3,1.5-2.5,3-2.5c0.3,0,0.7,0.1,1,0.1v1.5
			c-0.3-0.1-0.7-0.1-1-0.1c-2.3,0-2.9,2.5-2.9,4.6v5.7H169V69.5z"/>
		<path class="st0" d="M179.9,77.5c2.5,0,3.8-2.1,3.8-4.8c0-2.7-1.3-4.8-3.8-4.8s-3.8,2.1-3.8,4.8S177.4,77.5,179.9,77.5
			 M179.9,66.7c3.7,0,5.4,2.9,5.4,6s-1.6,6-5.4,6c-3.7,0-5.4-2.9-5.4-6C174.6,69.6,176.2,66.7,179.9,66.7"/>
		<path class="st0" d="M191.7,77.5c2.5,0,3.8-2.1,3.8-4.8c0-2.7-1.3-4.8-3.8-4.8s-3.8,2.1-3.8,4.8S189.2,77.5,191.7,77.5
			 M191.7,66.7c3.7,0,5.4,2.9,5.4,6s-1.6,6-5.4,6c-3.7,0-5.4-2.9-5.4-6S188,66.7,191.7,66.7"/>
		<rect id="XMLID_12_" x="204.8" y="62.7" class="st0" width="1.6" height="15.7"/>
		<path id="XMLID_11_" class="st0" d="M208.3,76.8c0.9,0.4,1.9,0.7,3,0.7c1.4,0,2.5-0.7,2.5-2c0-2.7-5.5-2.3-5.5-5.6
			c0-2.3,1.8-3.1,3.7-3.1c0.6,0,1.8,0.1,2.8,0.5l-0.1,1.2c-0.7-0.3-1.8-0.5-2.5-0.5c-1.5,0-2.5,0.5-2.5,1.9c0,2.1,5.7,1.9,5.7,5.6
			c0,2.4-2.3,3.3-4,3.3c-1.1,0-2.2-0.1-3.2-0.5L208.3,76.8z"/>
		<rect id="XMLID_10_" x="216.9" y="61.6" class="st0" width="1.4" height="16.9"/>
		<path class="st0" d="M227.2,72.7h-0.4c-2.5,0-5.4,0.3-5.4,2.8c0,1.5,1.1,2.1,2.4,2.1c3.3,0,3.4-2.9,3.4-4.1V72.7z M227.4,76.6
			L227.4,76.6c-0.7,1.4-2.3,2.1-3.7,2.1c-3.3,0-3.8-2.2-3.8-3.2c0-3.9,4.1-4,7.1-4h0.3v-0.6c0-2-0.7-2.9-2.6-2.9
			c-1.2,0-2.3,0.3-3.4,0.9v-1.4c0.9-0.4,2.4-0.8,3.4-0.8c2.8,0,4,1.3,4,4.3v5.1c0,0.9,0,1.6,0.1,2.4h-1.4L227.4,76.6L227.4,76.6z"/>
		<path id="XMLID_7_" class="st0" d="M231,69.7c0-0.9,0-1.8-0.1-2.7h1.4v2l0,0c0.5-1,1.3-2.3,3.7-2.3c2.8,0,3.9,1.9,3.9,4.4v7.3
			h-1.4v-7c0-2.2-0.8-3.6-2.7-3.6c-2.6,0-3.4,2.3-3.4,4.2v6.3H231V69.7z"/>
		<path class="st0" d="M246.8,77.5c2.5,0,3.4-2.7,3.4-4.8c0-2.1-0.9-4.8-3.4-4.8c-2.7,0-3.4,2.6-3.4,4.8
			C243.5,74.9,244.1,77.5,246.8,77.5 M251.7,78.5h-1.4v-1.8l0,0c-0.8,1.5-1.9,2.1-3.6,2.1c-3.1,0-4.7-2.6-4.7-6c0-3.5,1.3-6,4.7-6
			c2.3,0,3.4,1.6,3.6,2.2l0,0v-7.3h1.4V78.5z"/>
	</g>
	<path class="st0" d="M24,45.3c0.6,1.4,4.9,9.6,22.4,2c0.7-0.3,1.4-0.6,2.1-0.9l0.1-0.1c1.8-0.8,3.3-1.5,4.7-2.1
		c2.6-0.7,5.8-0.8,8.5,1.2c5.4,4,5.8,11.3,5.8,12.4c-0.1,0,0.3,3.2-1.6,9.1c-1.9,5.8,9.1,9.8,9.1,9.8s1,2.3-0.9,2.2
		c-1.9-0.1-2.8-2.7-6.7-4.9c-3.9-2.2-5.2,0.2-4.7-5.8c0.4-6-7.4-17.1-17.2-16.9C36,51.4,27.6,54.3,24,45.3 M48.5,46.3
		c-0.3,0.2-0.4,0.3-0.4,0.3l0.6-0.3H48.5z M57.5,42.3c8.1-3.4,8.3-1.8,23,4.2c0,0,2.2,0.6,3-2.1c0,0-2.1-2.4-1.1-6.3
		c0,0,2.4-0.3,4,5.2c0,0,2.6-0.1,4,1.4s0.8,2.8,4,5.2c0,0,0.6,2-1.5,2.2s-5.4-1.1-6.7-2.6c0,0-0.4,1.7-1.7,3.6
		c-2.2-0.3-6.1-0.4-9.8,1.6c-1.6,0.9-2.9,2.1-3.9,3.4c-0.2,0-0.4,0-0.7,0c-0.4,0-0.7-0.1-1.1-0.2c0-1.8-0.5-6.9-3.7-11
		C62.9,43.9,59.6,42.8,57.5,42.3 M83.3,54.3c-1,0.9-2.3,1.8-4,2.3c-5.7,1.8-5.6,2.1-7.8,4.3c-1,1-1.4,0.9-1.3,0.3
		c0.5-1.3,1.2-2.5,2.3-3.5C76.1,54.3,80.7,54.1,83.3,54.3"/>
</g>
</svg>
