<?xml version="1.0" encoding="utf-8"?>
<!-- Generator: Adobe Illustrator 16.0.0, SVG Export Plug-In . SVG Version: 6.00 Build 0)  -->
<!DOCTYPE svg PUBLIC "-//W3C//DTD SVG 1.1//EN" "http://www.w3.org/Graphics/SVG/1.1/DTD/svg11.dtd">
<svg version="1.1" id="Layer_1" xmlns="http://www.w3.org/2000/svg" xmlns:xlink="http://www.w3.org/1999/xlink" x="0px" y="0px"
	 width="275px" height="44.988px" viewBox="-168 418.994 275 44.988" enable-background="new -168 418.994 275 44.988"
	 xml:space="preserve">
<g id="Layer_1_1_" display="none">
	<polygon display="inline" fill="#FFFFFF" points="71.759,1.175 75.453,1.175 81.167,12.977 81.209,12.977 81.209,1.175 
		84.089,1.175 84.089,16.956 80.415,16.956 74.68,5.154 74.637,5.154 74.637,16.956 71.759,16.956 	"/>
	<g display="inline">
		<g>
			<g>
				<g>
					<defs>
						<rect id="SVGID_1_" y="0" width="275" height="44.988"/>
					</defs>
					<clipPath id="SVGID_2_">
						<use xlink:href="#SVGID_1_"  overflow="visible"/>
					</clipPath>
					<path clip-path="url(#SVGID_2_)" fill="#FFFFFF" d="M90.585,15.01c0.881,0,1.568-0.406,2.019-1.038
						c0.473-0.657,0.602-1.493,0.602-2.396H91.96c-1.289,0-3.201,0.227-3.201,2.012C88.759,14.581,89.555,15.01,90.585,15.01
						 M87.213,5.923c1.117-0.543,2.62-0.882,3.845-0.882c3.372,0,4.768,1.472,4.768,4.905v1.492c0,1.175,0.022,2.059,0.043,2.917
						c0.022,0.881,0.065,1.693,0.129,2.6h-2.534c-0.108-0.608-0.108-1.379-0.129-1.74h-0.043c-0.666,1.288-2.105,2.013-3.416,2.013
						c-1.954,0-3.866-1.243-3.866-3.458c0-1.741,0.795-2.759,1.89-3.324c1.096-0.564,2.513-0.678,3.717-0.678h1.589
						c0-1.876-0.795-2.511-2.492-2.511c-1.224,0-2.449,0.497-3.415,1.268L87.213,5.923z"/>
				</g>
			</g>
		</g>
		<g>
			<g>
				<g>
					<defs>
						<rect id="SVGID_3_" y="0" width="275" height="44.988"/>
					</defs>
					<clipPath id="SVGID_4_">
						<use xlink:href="#SVGID_3_"  overflow="visible"/>
					</clipPath>
					<path clip-path="url(#SVGID_4_)" fill="#FFFFFF" d="M98.965,7.528h-2.127V5.312h2.127V2.984l2.879-0.972v3.3h2.556v2.216
						h-2.556v5.427c0,0.994,0.257,1.922,1.353,1.922c0.515,0,1.01-0.112,1.31-0.315l0.086,2.396
						c-0.602,0.183-1.267,0.271-2.127,0.271c-2.255,0-3.501-1.471-3.501-3.774V7.528z"/>
				</g>
			</g>
		</g>
		<g>
			<g>
				<g>
					<defs>
						<rect id="SVGID_5_" y="0" width="275" height="44.988"/>
					</defs>
					<clipPath id="SVGID_6_">
						<use xlink:href="#SVGID_5_"  overflow="visible"/>
					</clipPath>
					<path clip-path="url(#SVGID_6_)" fill="#FFFFFF" d="M115.873,16.955h-2.728v-1.583h-0.043c-0.881,1.131-2.127,1.854-3.63,1.854
						c-2.621,0-3.76-1.942-3.76-4.565V5.312h2.879v6.218c0,1.425,0.021,3.347,1.868,3.347c2.084,0,2.535-2.374,2.535-3.864v-5.7
						h2.879V16.955z"/>
				</g>
			</g>
		</g>
		<g>
			<g>
				<g>
					<defs>
						<rect id="SVGID_7_" y="0" width="275" height="44.988"/>
					</defs>
					<clipPath id="SVGID_8_">
						<use xlink:href="#SVGID_7_"  overflow="visible"/>
					</clipPath>
					<path clip-path="url(#SVGID_8_)" fill="#FFFFFF" d="M118.3,5.312h2.556v2.646h0.043c0.129-1.085,1.31-2.916,3.028-2.916
						c0.28,0,0.581,0,0.881,0.09v3.055c-0.258-0.159-0.773-0.249-1.288-0.249c-2.342,0-2.342,3.075-2.342,4.747v4.271H118.3V5.312z"
						/>
				</g>
			</g>
		</g>
		<g>
			<g>
				<g>
					<defs>
						<rect id="SVGID_9_" y="0" width="275" height="44.988"/>
					</defs>
					<clipPath id="SVGID_10_">
						<use xlink:href="#SVGID_9_"  overflow="visible"/>
					</clipPath>
					<path clip-path="url(#SVGID_10_)" fill="#FFFFFF" d="M129.592,15.01c0.881,0,1.568-0.406,2.019-1.038
						c0.473-0.657,0.602-1.493,0.602-2.396h-1.246c-1.289,0-3.201,0.227-3.201,2.012C127.766,14.581,128.561,15.01,129.592,15.01
						 M126.22,5.923c1.117-0.543,2.62-0.882,3.845-0.882c3.372,0,4.768,1.472,4.768,4.905v1.492c0,1.175,0.022,2.059,0.043,2.917
						c0.022,0.881,0.065,1.693,0.129,2.6h-2.534c-0.108-0.608-0.108-1.379-0.129-1.74h-0.043c-0.666,1.288-2.105,2.013-3.416,2.013
						c-1.954,0-3.866-1.243-3.866-3.458c0-1.741,0.795-2.759,1.89-3.324c1.095-0.564,2.513-0.678,3.717-0.678h1.589
						c0-1.876-0.795-2.511-2.492-2.511c-1.224,0-2.449,0.497-3.416,1.268L126.22,5.923z"/>
				</g>
			</g>
		</g>
	</g>
	<rect x="137.164" y="0" display="inline" fill="#FFFFFF" width="2.878" height="16.955"/>
	<g display="inline">
		<g>
			<g>
				<g>
					<defs>
						<rect id="SVGID_11_" y="0" width="275" height="44.988"/>
					</defs>
					<clipPath id="SVGID_12_">
						<use xlink:href="#SVGID_11_"  overflow="visible"/>
					</clipPath>
					<path clip-path="url(#SVGID_12_)" fill="#FFFFFF" d="M151.406,7.913h0.986c1.48,0,3.18-0.227,3.18-2.191
						c0-1.899-1.676-2.059-3.18-2.059h-0.986V7.913z M148.396,1.175h3.244c3.223,0,7.065-0.111,7.065,4.272
						c0,1.854-1.185,3.392-3.095,3.662v0.046c0.814,0.068,1.289,0.928,1.591,1.628l2.403,6.172h-3.352l-1.804-4.93
						c-0.431-1.175-0.815-1.627-2.084-1.627H151.4v6.557h-3.01V1.175H148.396z"/>
				</g>
			</g>
		</g>
		<g>
			<g>
				<g>
					<defs>
						<rect id="SVGID_13_" y="0" width="275" height="44.988"/>
					</defs>
					<clipPath id="SVGID_14_">
						<use xlink:href="#SVGID_13_"  overflow="visible"/>
					</clipPath>
					<path clip-path="url(#SVGID_14_)" fill="#FFFFFF" d="M167.84,9.993c-0.086-1.471-0.729-2.735-2.342-2.735
						c-1.611,0-2.428,1.177-2.557,2.735H167.84z M169.771,16.299c-1.051,0.611-2.254,0.929-3.801,0.929
						c-3.652,0-5.777-2.215-5.777-6.036c0-3.369,1.695-6.148,5.134-6.148c4.103,0,5.263,2.961,5.263,7.03h-7.648
						c0.132,1.876,1.375,2.939,3.158,2.939c1.396,0,2.603-0.544,3.674-1.178v2.464H169.771z"/>
				</g>
			</g>
		</g>
		<g>
			<g>
				<g>
					<defs>
						<rect id="SVGID_15_" y="0" width="275" height="44.988"/>
					</defs>
					<clipPath id="SVGID_16_">
						<use xlink:href="#SVGID_15_"  overflow="visible"/>
					</clipPath>
					<path clip-path="url(#SVGID_16_)" fill="#FFFFFF" d="M178.995,7.754c-0.882-0.314-1.524-0.497-2.577-0.497
						c-0.773,0-1.697,0.293-1.697,1.288c0,1.854,5.004,0.681,5.004,4.886c0,2.713-2.297,3.797-4.64,3.797
						c-1.095,0-2.212-0.203-3.265-0.496l0.172-2.487c0.9,0.476,1.848,0.771,2.836,0.771c0.729,0,1.89-0.294,1.89-1.426
						c0-2.282-5.005-0.725-5.005-4.928c0-2.511,2.084-3.618,4.34-3.618c1.354,0,2.233,0.228,3.135,0.432L178.995,7.754z"/>
				</g>
			</g>
		</g>
		<g>
			<g>
				<g>
					<defs>
						<rect id="SVGID_17_" y="0" width="275" height="44.988"/>
					</defs>
					<clipPath id="SVGID_18_">
						<use xlink:href="#SVGID_17_"  overflow="visible"/>
					</clipPath>
					<path clip-path="url(#SVGID_18_)" fill="#FFFFFF" d="M186.498,14.875c2.213,0,2.793-2.08,2.793-4.022
						c0-1.786-0.902-3.459-2.793-3.459c-1.869,0-2.771,1.718-2.771,3.459C183.727,12.773,184.307,14.875,186.498,14.875
						 M186.498,5.042c3.286,0,5.8,2.328,5.8,6.172c0,3.348-2.127,6.015-5.8,6.015c-3.652,0-5.777-2.667-5.777-6.015
						C180.721,7.37,183.232,5.042,186.498,5.042"/>
				</g>
			</g>
		</g>
		<g>
			<g>
				<g>
					<defs>
						<rect id="SVGID_19_" y="0" width="275" height="44.988"/>
					</defs>
					<clipPath id="SVGID_20_">
						<use xlink:href="#SVGID_19_"  overflow="visible"/>
					</clipPath>
					<path clip-path="url(#SVGID_20_)" fill="#FFFFFF" d="M204.163,16.955h-2.728v-1.583h-0.043
						c-0.881,1.131-2.127,1.854-3.631,1.854c-2.621,0-3.763-1.942-3.763-4.565V5.312h2.879v6.218c0,1.425,0.021,3.347,1.869,3.347
						c2.083,0,2.532-2.374,2.532-3.864v-5.7h2.881L204.163,16.955L204.163,16.955z"/>
				</g>
			</g>
		</g>
		<g>
			<g>
				<g>
					<defs>
						<rect id="SVGID_21_" y="0" width="275" height="44.988"/>
					</defs>
					<clipPath id="SVGID_22_">
						<use xlink:href="#SVGID_21_"  overflow="visible"/>
					</clipPath>
					<path clip-path="url(#SVGID_22_)" fill="#FFFFFF" d="M206.591,5.312h2.556v2.646h0.043c0.129-1.085,1.312-2.916,3.029-2.916
						c0.278,0,0.58,0,0.881,0.09v3.055c-0.259-0.159-0.771-0.249-1.289-0.249c-2.342,0-2.342,3.075-2.342,4.747v4.271h-2.878V5.312z
						"/>
				</g>
			</g>
		</g>
		<g>
			<g>
				<g>
					<defs>
						<rect id="SVGID_23_" y="0" width="275" height="44.988"/>
					</defs>
					<clipPath id="SVGID_24_">
						<use xlink:href="#SVGID_23_"  overflow="visible"/>
					</clipPath>
					<path clip-path="url(#SVGID_24_)" fill="#FFFFFF" d="M221.582,7.822c-0.518-0.248-1.074-0.429-1.955-0.429
						c-1.783,0-2.921,1.491-2.921,3.686c0,2.146,0.966,3.798,2.985,3.798c0.813,0,1.719-0.315,2.211-0.543l0.131,2.51
						c-0.84,0.271-1.697,0.386-2.881,0.386c-3.629,0-5.455-2.602-5.455-6.148c0-3.369,1.892-6.036,5.35-6.036
						c1.16,0,1.998,0.137,2.793,0.386L221.582,7.822z"/>
				</g>
			</g>
		</g>
		<g>
			<g>
				<g>
					<defs>
						<rect id="SVGID_25_" y="0" width="275" height="44.988"/>
					</defs>
					<clipPath id="SVGID_26_">
						<use xlink:href="#SVGID_25_"  overflow="visible"/>
					</clipPath>
					<path clip-path="url(#SVGID_26_)" fill="#FFFFFF" d="M230.289,9.993c-0.086-1.471-0.729-2.735-2.342-2.735
						c-1.611,0-2.428,1.177-2.557,2.735H230.289z M232.223,16.299c-1.053,0.611-2.254,0.929-3.803,0.929
						c-3.65,0-5.777-2.215-5.777-6.036c0-3.369,1.696-6.148,5.135-6.148c4.104,0,5.265,2.961,5.265,7.03h-7.646
						c0.129,1.876,1.375,2.939,3.156,2.939c1.396,0,2.602-0.544,3.676-1.178v2.464H232.223z"/>
				</g>
			</g>
		</g>
		<g>
			<g>
				<g>
					<defs>
						<rect id="SVGID_27_" y="0" width="275" height="44.988"/>
					</defs>
					<clipPath id="SVGID_28_">
						<use xlink:href="#SVGID_27_"  overflow="visible"/>
					</clipPath>
					<path clip-path="url(#SVGID_28_)" fill="#FFFFFF" d="M241.443,7.754c-0.881-0.314-1.524-0.497-2.576-0.497
						c-0.774,0-1.697,0.293-1.697,1.288c0,1.854,5.004,0.681,5.004,4.886c0,2.713-2.298,3.797-4.64,3.797
						c-1.097,0-2.212-0.203-3.265-0.496l0.17-2.487c0.9,0.476,1.85,0.771,2.836,0.771c0.729,0,1.892-0.294,1.892-1.426
						c0-2.282-5.005-0.725-5.005-4.928c0-2.511,2.084-3.618,4.339-3.618c1.353,0,2.233,0.228,3.136,0.432L241.443,7.754z"/>
				</g>
			</g>
		</g>
		<g>
			<g>
				<g>
					<defs>
						<rect id="SVGID_29_" y="0" width="275" height="44.988"/>
					</defs>
					<clipPath id="SVGID_30_">
						<use xlink:href="#SVGID_29_"  overflow="visible"/>
					</clipPath>
					<path clip-path="url(#SVGID_30_)" fill="#C6DAF0" d="M71.552,38.366c0.89,0.563,1.933,0.891,3.344,0.891
						c1.868,0,3.41-0.955,3.41-3.104c0-2.976-6.95-3.345-6.95-7.317c0-2.434,2.129-3.952,4.799-3.952c0.739,0,1.934,0.106,2.976,0.5
						l-0.239,1.368c-0.673-0.37-1.737-0.563-2.758-0.563c-1.564,0-3.279,0.65-3.279,2.604c0,3.041,6.949,3.062,6.949,7.493
						c0,3.062-2.628,4.275-4.973,4.275c-1.477,0-2.628-0.305-3.431-0.648L71.552,38.366z"/>
				</g>
			</g>
		</g>
	</g>
	<path display="inline" fill="#C6DAF0" d="M87.322,26.573l-3.301,8.36h6.58L87.322,26.573z M86.583,25.141h1.694l6.016,15.156
		h-1.564l-1.628-4.062h-7.645l-1.629,4.062h-1.455L86.583,25.141z"/>
	<polygon display="inline" fill="#C6DAF0" points="101.397,25.141 103.721,25.141 109.258,38.475 114.818,25.141 116.968,25.141 
		116.968,40.299 115.469,40.299 115.469,26.639 115.426,26.639 109.91,40.299 108.629,40.299 102.938,26.639 102.895,26.639 
		102.895,40.299 101.397,40.299 	"/>
	<g display="inline">
		<g>
			<g>
				<g>
					<defs>
						<rect id="SVGID_31_" y="0" width="275" height="44.988"/>
					</defs>
					<clipPath id="SVGID_32_">
						<use xlink:href="#SVGID_31_"  overflow="visible"/>
					</clipPath>
					<path clip-path="url(#SVGID_32_)" fill="#C6DAF0" d="M128.347,37.693c0,0.847,0,1.716,0.087,2.604h-1.325V38.32h-0.043
						c-0.456,1-1.281,2.237-3.584,2.237c-2.736,0-3.778-1.824-3.778-4.257v-7.079h1.368v6.729c0,2.085,0.738,3.432,2.628,3.432
						c2.497,0,3.279-2.191,3.279-4.038v-6.123h1.368V37.693z"/>
				</g>
			</g>
		</g>
		<g>
			<g>
				<g>
					<defs>
						<rect id="SVGID_33_" y="0" width="275" height="44.988"/>
					</defs>
					<clipPath id="SVGID_34_">
						<use xlink:href="#SVGID_33_"  overflow="visible"/>
					</clipPath>
					<path clip-path="url(#SVGID_34_)" fill="#C6DAF0" d="M130.769,31.698c0-1.216,0-1.672-0.087-2.476h1.368v2.129h0.043
						c0.5-1.238,1.434-2.391,2.846-2.391c0.325,0,0.716,0.063,0.955,0.13v1.436c-0.282-0.087-0.652-0.131-0.999-0.131
						c-2.171,0-2.758,2.434-2.758,4.432V40.3h-1.368V31.698z"/>
				</g>
			</g>
		</g>
		<g>
			<g>
				<g>
					<defs>
						<rect id="SVGID_35_" y="0" width="275" height="44.988"/>
					</defs>
					<clipPath id="SVGID_36_">
						<use xlink:href="#SVGID_35_"  overflow="visible"/>
					</clipPath>
					<path clip-path="url(#SVGID_36_)" fill="#C6DAF0" d="M137.146,31.698c0-1.216,0-1.672-0.087-2.476h1.368v2.129h0.044
						c0.5-1.238,1.434-2.391,2.846-2.391c0.324,0,0.716,0.063,0.955,0.13v1.436c-0.283-0.087-0.65-0.131-1-0.131
						c-2.17,0-2.758,2.434-2.758,4.432V40.3h-1.368V31.698z"/>
				</g>
			</g>
		</g>
		<g>
			<g>
				<g>
					<defs>
						<rect id="SVGID_37_" y="0" width="275" height="44.988"/>
					</defs>
					<clipPath id="SVGID_38_">
						<use xlink:href="#SVGID_37_"  overflow="visible"/>
					</clipPath>
					<path clip-path="url(#SVGID_38_)" fill="#C6DAF0" d="M149.475,34.719h-0.391c-2.367,0-5.191,0.237-5.191,2.673
						c0,1.453,1.043,1.997,2.303,1.997c3.217,0,3.279-2.803,3.279-3.996V34.719z M149.604,38.519h-0.043
						c-0.604,1.323-2.146,2.041-3.518,2.041c-3.15,0-3.648-2.128-3.648-3.127c0-3.715,3.951-3.89,6.818-3.89h0.262V32.98
						c0-1.892-0.674-2.846-2.521-2.846c-1.151,0-2.236,0.262-3.257,0.911v-1.323c0.847-0.412,2.279-0.762,3.257-0.762
						c2.735,0,3.888,1.236,3.888,4.126v4.889c0,0.89,0,1.562,0.108,2.321h-1.347V38.519L149.604,38.519z"/>
				</g>
			</g>
		</g>
		<g>
			<g>
				<g>
					<defs>
						<rect id="SVGID_39_" y="0" width="275" height="44.988"/>
					</defs>
					<clipPath id="SVGID_40_">
						<use xlink:href="#SVGID_39_"  overflow="visible"/>
					</clipPath>
					<path clip-path="url(#SVGID_40_)" fill="#C6DAF0" d="M156.311,41.948c-0.521,1.521-1.304,3.04-2.846,3.04
						c-0.5,0-1.021-0.064-1.477-0.173l0.13-1.174c0.261,0.087,0.521,0.175,1.021,0.175c1.174,0,1.563-0.979,1.998-2.411l0.281-0.979
						l-3.93-11.205h1.498l3.104,9.252l-0.021-0.021h0.043l3.193-9.229h1.435L156.311,41.948z"/>
				</g>
			</g>
		</g>
	</g>
	<rect x="161.039" y="33.697" display="inline" fill="#C6DAF0" width="5.451" height="1.498"/>
	<g display="inline">
		<g>
			<g>
				<g>
					<defs>
						<rect id="SVGID_41_" y="0" width="275" height="44.988"/>
					</defs>
					<clipPath id="SVGID_42_">
						<use xlink:href="#SVGID_41_"  overflow="visible"/>
					</clipPath>
					<path clip-path="url(#SVGID_42_)" fill="#C6DAF0" d="M170.402,38.995h1.238c4.301,0,7.104-1.736,7.104-6.385
						c0-4.626-2.76-6.168-6.146-6.168h-2.193v12.553H170.402z M168.906,25.141h3.756c5.43,0,7.58,3.127,7.58,7.557
						c0,5.495-3.67,7.604-8.688,7.604h-2.648V25.141z"/>
				</g>
			</g>
		</g>
		<g>
			<g>
				<g>
					<defs>
						<rect id="SVGID_43_" y="0" width="275" height="44.988"/>
					</defs>
					<clipPath id="SVGID_44_">
						<use xlink:href="#SVGID_43_"  overflow="visible"/>
					</clipPath>
					<path clip-path="url(#SVGID_44_)" fill="#C6DAF0" d="M188.425,34.719h-0.392c-2.366,0-5.189,0.237-5.189,2.673
						c0,1.453,1.043,1.997,2.301,1.997c3.215,0,3.28-2.803,3.28-3.996V34.719z M188.555,38.519h-0.043
						c-0.607,1.323-2.15,2.041-3.519,2.041c-3.149,0-3.647-2.128-3.647-3.127c0-3.715,3.951-3.89,6.818-3.89h0.261V32.98
						c0-1.892-0.673-2.846-2.521-2.846c-1.15,0-2.235,0.262-3.258,0.911v-1.323c0.848-0.412,2.28-0.762,3.258-0.762
						c2.736,0,3.889,1.236,3.889,4.126v4.889c0,0.89,0,1.562,0.107,2.321h-1.346V38.519L188.555,38.519z"/>
				</g>
			</g>
		</g>
		<g>
			<g>
				<g>
					<defs>
						<rect id="SVGID_45_" y="0" width="275" height="44.988"/>
					</defs>
					<clipPath id="SVGID_46_">
						<use xlink:href="#SVGID_45_"  overflow="visible"/>
					</clipPath>
					<path clip-path="url(#SVGID_46_)" fill="#C6DAF0" d="M192.074,31.698c0-1.216,0-1.672-0.088-2.476h1.369v2.129h0.043
						c0.5-1.238,1.434-2.391,2.846-2.391c0.324,0,0.716,0.063,0.955,0.13v1.436c-0.282-0.087-0.652-0.131-0.999-0.131
						c-2.171,0-2.759,2.434-2.759,4.432V40.3h-1.367V31.698z"/>
				</g>
			</g>
		</g>
	</g>
	<rect x="198.406" y="24.012" display="inline" fill="#C6DAF0" width="1.369" height="16.284"/>
	<path display="inline" fill="#C6DAF0" d="M202.16,29.224h1.367v11.073h-1.367V29.224z M203.527,26.271h-1.367v-1.825h1.367V26.271z
		"/>
	<g display="inline">
		<g>
			<g>
				<g>
					<defs>
						<rect id="SVGID_47_" y="0" width="275" height="44.988"/>
					</defs>
					<clipPath id="SVGID_48_">
						<use xlink:href="#SVGID_47_"  overflow="visible"/>
					</clipPath>
					<path clip-path="url(#SVGID_48_)" fill="#C6DAF0" d="M205.922,31.829c0-0.848,0-1.717-0.087-2.604h1.325V31.2h0.043
						c0.456-0.999,1.281-2.236,3.584-2.236c2.736,0,3.777,1.823,3.777,4.259V40.3h-1.367v-6.73c0-2.085-0.738-3.431-2.629-3.431
						c-2.496,0-3.278,2.19-3.278,4.038V40.3h-1.368V31.829L205.922,31.829z"/>
				</g>
			</g>
		</g>
		<g>
			<g>
				<g>
					<defs>
						<rect id="SVGID_49_" y="0" width="275" height="44.988"/>
					</defs>
					<clipPath id="SVGID_50_">
						<use xlink:href="#SVGID_49_"  overflow="visible"/>
					</clipPath>
					<path clip-path="url(#SVGID_50_)" fill="#C6DAF0" d="M221.057,39.126c2.478,0,3.364-2.347,3.364-4.363
						c0-2.673-0.78-4.625-3.278-4.625c-2.604,0-3.279,2.475-3.279,4.625C217.863,36.933,218.732,39.126,221.057,39.126
						 M225.79,39.387c0,3.084-1.39,5.603-5.19,5.603c-1.455,0-2.779-0.41-3.345-0.586l0.108-1.366
						c0.847,0.436,2.062,0.779,3.258,0.779c3.52,0,3.822-2.562,3.822-5.688H224.4c-0.738,1.605-1.955,2.173-3.366,2.173
						c-3.54,0-4.671-3.085-4.671-5.537c0-3.366,1.305-5.8,4.562-5.8c1.478,0,2.433,0.194,3.452,1.521h0.043v-1.26h1.369
						L225.79,39.387L225.79,39.387z"/>
				</g>
			</g>
		</g>
		<g>
			<g>
				<g>
					<defs>
						<rect id="SVGID_51_" y="0" width="275" height="44.988"/>
					</defs>
					<clipPath id="SVGID_52_">
						<use xlink:href="#SVGID_51_"  overflow="visible"/>
					</clipPath>
					<path clip-path="url(#SVGID_52_)" fill="#C6DAF0" d="M235.607,31.765h1.672c1.587,0,3.691-0.413,3.691-2.824
						c0-2.192-2.021-2.497-3.302-2.497h-2.062V31.765L235.607,31.765z M235.564,38.995h1.562c2.021,0,4.302-0.543,4.302-2.952
						c0-2.692-2.322-2.978-4.539-2.978h-1.324V38.995L235.564,38.995z M234.066,25.141h3.604c2.477,0,4.801,0.823,4.801,3.733
						c0,1.935-0.893,3.084-2.76,3.452v0.044c1.911,0.349,3.214,1.606,3.214,3.604c0,3.301-2.69,4.319-5.842,4.319h-3.021V25.141
						H234.066z"/>
				</g>
			</g>
		</g>
		<g>
			<g>
				<g>
					<defs>
						<rect id="SVGID_53_" y="0" width="275" height="44.988"/>
					</defs>
					<clipPath id="SVGID_54_">
						<use xlink:href="#SVGID_53_"  overflow="visible"/>
					</clipPath>
					<path clip-path="url(#SVGID_54_)" fill="#C6DAF0" d="M251.439,34.719h-0.394c-2.364,0-5.188,0.237-5.188,2.673
						c0,1.453,1.041,1.997,2.303,1.997c3.214,0,3.279-2.803,3.279-3.996V34.719z M251.57,38.519h-0.045
						c-0.606,1.323-2.148,2.041-3.52,2.041c-3.146,0-3.646-2.128-3.646-3.127c0-3.715,3.951-3.89,6.817-3.89h0.263V32.98
						c0-1.892-0.674-2.846-2.521-2.846c-1.15,0-2.234,0.262-3.257,0.911v-1.323c0.847-0.412,2.278-0.762,3.257-0.762
						c2.736,0,3.889,1.236,3.889,4.126v4.889c0,0.89,0,1.562,0.107,2.321h-1.348v-1.777H251.57z"/>
				</g>
			</g>
		</g>
		<g>
			<g>
				<g>
					<defs>
						<rect id="SVGID_55_" y="0" width="275" height="44.988"/>
					</defs>
					<clipPath id="SVGID_56_">
						<use xlink:href="#SVGID_55_"  overflow="visible"/>
					</clipPath>
					<path clip-path="url(#SVGID_56_)" fill="#C6DAF0" d="M254.297,38.691c0.824,0.413,1.823,0.694,2.889,0.694
						c1.304,0,2.453-0.718,2.453-1.977c0-2.629-5.32-2.218-5.32-5.432c0-2.191,1.781-3.02,3.605-3.02c0.586,0,1.76,0.13,2.735,0.499
						l-0.13,1.194c-0.717-0.325-1.694-0.521-2.454-0.521c-1.412,0-2.39,0.436-2.39,1.847c0,2.062,5.45,1.805,5.45,5.432
						c0,2.345-2.192,3.146-3.864,3.146c-1.064,0-2.129-0.13-3.105-0.521L254.297,38.691z"/>
				</g>
			</g>
		</g>
	</g>
	<path display="inline" fill="#C6DAF0" d="M262.596,29.224h1.368v11.073h-1.368V29.224z M263.964,26.271h-1.368v-1.825h1.368V26.271
		z"/>
	<g display="inline">
		<g>
			<g>
				<g>
					<defs>
						<rect id="SVGID_57_" y="0" width="275" height="44.988"/>
					</defs>
					<clipPath id="SVGID_58_">
						<use xlink:href="#SVGID_57_"  overflow="visible"/>
					</clipPath>
					<path clip-path="url(#SVGID_58_)" fill="#C6DAF0" d="M266.357,31.829c0-0.848,0-1.717-0.088-2.604h1.322V31.2h0.044
						c0.455-0.999,1.28-2.236,3.585-2.236c2.734,0,3.776,1.823,3.776,4.259V40.3h-1.368v-6.73c0-2.085-0.734-3.431-2.628-3.431
						c-2.497,0-3.276,2.19-3.276,4.038V40.3h-1.367V31.829L266.357,31.829z"/>
				</g>
			</g>
		</g>
		<g>
			<g>
				<g>
					<defs>
						<rect id="SVGID_59_" y="0" width="275" height="44.988"/>
					</defs>
					<clipPath id="SVGID_60_">
						<use xlink:href="#SVGID_59_"  overflow="visible"/>
					</clipPath>
					<path clip-path="url(#SVGID_60_)" fill="#FFFFFF" d="M23.756,30.265c-3.676,0.55-6.554,2.142-9.767,0.575
						c-2.849-1.387-1.861-3.588-1.132-4.882c1.686,1.396,3.234,2.209,5.456,2.999C22.29,30.371,23.756,30.265,23.756,30.265
						 M41.079,20.568c-0.033-1.844,0.296-3.704,1.108-5.498c0.355-0.771,0.747-1.461,1.168-2.083c0.225,0.082,5.24,2.1,9.425,4.914
						c1.572,1.055,2.056,1.943,1.8,2.595c0.256,0.649-0.235,1.599-1.8,2.646c-4.185,2.816-9.213,4.827-9.436,4.928
						c-0.42-0.631-0.808-1.329-1.157-2.089C41.375,24.188,41.046,22.421,41.079,20.568 M0,20.432c0-3.658,0.849-6.393,1.084-7.205
						c1.082-3.804,6.71,6.3,10.494,4.063c1.29-0.763,5.551-5.712,17.663-5.937c0.62-0.02,1.209-0.02,1.774-0.02
						c-2.182,3.54-3.2,7.822-2.6,12.18c0.312,2.271,1.041,4.359,2.096,6.196c-0.411,0-0.836-0.014-1.27-0.021
						c-12.112-0.227-16.384-5.174-17.67-5.938c-3.78-2.229-9.411,7.858-10.489,4.066C0.846,27.008,0,24.084,0,20.432 M32.417,11.349
						c7.746,0.134,9.882,1.354,9.882,1.354c-0.749,1.095-1.28,2.341-1.678,3.729c-0.387,1.354-0.547,2.708-0.524,4.064
						c-0.023,1.354,0.133,2.771,0.518,4.124c0.384,1.382,0.927,2.635,1.681,3.72l-0.024,0.178c-0.699,1.295-1.273,3.057-2.231,3.228
						c-1.038,0.176-5.333-0.565-3.73-1.832c0.217-0.166,0.417-0.313,0.598-0.446c-1.365,0.133-3.047,0.226-5.093,0.252
						c-1.061-1.817-1.844-3.841-2.168-6.07C29.025,19.26,30.139,14.943,32.417,11.349 M23.589,10.975c0,0-1.456-0.111-5.438,1.299
						c-2.226,0.796-3.768,1.607-5.455,3.005c-0.736-1.29-1.721-3.491,1.134-4.889C17.037,8.828,19.915,10.427,23.589,10.975"/>
				</g>
			</g>
		</g>
	</g>
</g>
<polygon points="-86.816,420.166 -86.816,431.94 -86.86,431.94 -92.56,420.166 -96.245,420.166 -96.245,435.908 -93.374,435.908 
	-93.374,424.138 -93.331,424.138 -87.611,435.908 -83.945,435.908 -83.945,420.166 "/>
<g>
	<g>
		<path d="M-77.463,433.969c0.878,0,1.564-0.405,2.013-1.037c0.472-0.655,0.6-1.489,0.6-2.393h-1.243
			c-1.285,0-3.193,0.229-3.193,2.009C-79.286,433.541-78.493,433.969-77.463,433.969 M-80.828,424.903
			c1.114-0.542,2.614-0.881,3.835-0.881c3.365,0,4.758,1.468,4.758,4.895v1.489c0,1.172,0.021,2.052,0.042,2.908
			c0.021,0.879,0.065,1.693,0.129,2.594h-2.528c-0.108-0.606-0.108-1.375-0.128-1.733h-0.043c-0.666,1.282-2.1,2.007-3.408,2.007
			c-1.95,0-3.857-1.241-3.857-3.451c0-1.736,0.794-2.752,1.885-3.314c1.093-0.562,2.507-0.679,3.708-0.679h1.585
			c0-1.87-0.793-2.501-2.485-2.501c-1.222,0-2.443,0.495-3.407,1.262L-80.828,424.903z"/>
	</g>
	<g>
		<path d="M-69.104,426.505h-2.121v-2.209h2.121v-2.323l2.871-0.973v3.296h2.55v2.209h-2.55v5.411c0,0.991,0.257,1.916,1.35,1.916
			c0.514,0,1.007-0.11,1.307-0.314l0.086,2.392c-0.6,0.182-1.264,0.271-2.121,0.271c-2.25,0-3.493-1.469-3.493-3.769V426.505z"/>
	</g>
	<g>
		<path d="M-52.238,435.909h-2.721v-1.579h-0.043c-0.879,1.127-2.122,1.85-3.621,1.85c-2.615,0-3.75-1.938-3.75-4.557v-7.327h2.871
			v6.2c0,1.421,0.021,3.337,1.864,3.337c2.078,0,2.529-2.365,2.529-3.854v-5.684h2.872L-52.238,435.909L-52.238,435.909z"/>
	</g>
	<g>
		<path d="M-49.816,424.296h2.549v2.639h0.043c0.129-1.083,1.307-2.908,3.021-2.908c0.279,0,0.579,0,0.88,0.09v3.045
			c-0.258-0.159-0.771-0.249-1.285-0.249c-2.336,0-2.336,3.066-2.336,4.735v4.263h-2.871L-49.816,424.296L-49.816,424.296z"/>
	</g>
	<g>
		<path d="M-38.553,433.969c0.879,0,1.563-0.405,2.014-1.037c0.471-0.655,0.6-1.489,0.6-2.393h-1.242
			c-1.285,0-3.193,0.229-3.193,2.009C-40.375,433.541-39.582,433.969-38.553,433.969 M-41.917,424.903
			c1.114-0.542,2.614-0.881,3.835-0.881c3.363,0,4.758,1.468,4.758,4.895v1.489c0,1.172,0.021,2.052,0.043,2.908
			c0.021,0.879,0.064,1.693,0.129,2.594h-2.529c-0.106-0.606-0.106-1.375-0.129-1.733h-0.043c-0.664,1.282-2.1,2.007-3.406,2.007
			c-1.95,0-3.857-1.241-3.857-3.451c0-1.736,0.793-2.752,1.885-3.314c1.094-0.562,2.508-0.679,3.707-0.679h1.586
			c0-1.87-0.793-2.501-2.484-2.501c-1.223,0-2.443,0.495-3.408,1.262L-41.917,424.903z"/>
	</g>
	<g>
		<rect x="-30.999" y="418.994" width="2.871" height="16.915"/>
	</g>
	<g>
		<path d="M-16.793,426.887h0.986c1.479,0,3.17-0.227,3.17-2.188c0-1.896-1.672-2.054-3.17-2.054h-0.986V426.887z M-19.793,420.167
			h3.234c3.217,0,7.051-0.109,7.051,4.265c0,1.85-1.178,3.384-3.084,3.651v0.044c0.812,0.068,1.283,0.928,1.584,1.625l2.4,6.157
			h-3.345l-1.8-4.916c-0.432-1.173-0.814-1.625-2.078-1.625h-0.965v6.541h-3L-19.793,420.167L-19.793,420.167z"/>
	</g>
	<g>
		<path d="M-0.398,428.964c-0.088-1.47-0.729-2.729-2.336-2.729c-1.605,0-2.422,1.173-2.551,2.729H-0.398z M1.529,435.255
			c-1.049,0.606-2.25,0.926-3.793,0.926c-3.644,0-5.764-2.209-5.764-6.021c0-3.359,1.69-6.137,5.123-6.137
			c4.092,0,5.25,2.955,5.25,7.014h-7.633c0.13,1.874,1.373,2.937,3.151,2.937c1.392,0,2.592-0.542,3.661-1.176v2.46h0.004V435.255z"
			/>
	</g>
	<g>
		<path d="M10.729,426.73c-0.879-0.314-1.521-0.495-2.571-0.495c-0.771,0-1.691,0.293-1.691,1.285c0,1.849,4.992,0.677,4.992,4.871
			c0,2.706-2.292,3.789-4.629,3.789c-1.093,0-2.206-0.203-3.256-0.496l0.171-2.481c0.9,0.476,1.843,0.769,2.829,0.769
			c0.729,0,1.885-0.293,1.885-1.421c0-2.277-4.992-0.723-4.992-4.916c0-2.505,2.08-3.609,4.328-3.609
			c1.351,0,2.229,0.228,3.129,0.43L10.729,426.73z"/>
	</g>
	<g>
		<path d="M18.214,433.835c2.206,0,2.786-2.074,2.786-4.015c0-1.782-0.9-3.45-2.786-3.45c-1.864,0-2.765,1.712-2.765,3.45
			C15.449,431.736,16.027,433.835,18.214,433.835 M18.214,424.023c3.278,0,5.786,2.324,5.786,6.156c0,3.34-2.123,6.001-5.786,6.001
			c-3.644,0-5.765-2.661-5.765-6.001C12.449,426.347,14.957,424.023,18.214,424.023"/>
	</g>
	<g>
		<path d="M35.837,435.909h-2.722v-1.579h-0.043c-0.881,1.127-2.123,1.85-3.621,1.85c-2.615,0-3.752-1.938-3.752-4.557v-7.327h2.873
			v6.2c0,1.421,0.021,3.337,1.861,3.337c2.078,0,2.529-2.365,2.529-3.854v-5.684h2.872L35.837,435.909L35.837,435.909z"/>
	</g>
	<g>
		<path d="M38.257,424.296h2.55v2.639h0.043c0.129-1.083,1.309-2.908,3.021-2.908c0.279,0,0.579,0,0.879,0.09v3.045
			c-0.256-0.159-0.771-0.249-1.284-0.249c-2.337,0-2.337,3.066-2.337,4.735v4.263h-2.871L38.257,424.296L38.257,424.296z"/>
	</g>
	<g>
		<path d="M53.211,426.799c-0.514-0.249-1.07-0.432-1.949-0.432c-1.777,0-2.914,1.49-2.914,3.676c0,2.146,0.963,3.791,2.979,3.791
			c0.813,0,1.713-0.314,2.206-0.542l0.129,2.503c-0.836,0.271-1.691,0.386-2.872,0.386c-3.62,0-5.44-2.597-5.44-6.138
			c0-3.357,1.885-6.021,5.334-6.021c1.16,0,1.994,0.137,2.787,0.385L53.211,426.799z"/>
	</g>
	<g>
		<path d="M61.898,428.964c-0.088-1.47-0.729-2.729-2.338-2.729c-1.605,0-2.42,1.173-2.549,2.729H61.898z M63.825,435.255
			c-1.05,0.606-2.248,0.926-3.792,0.926c-3.643,0-5.764-2.209-5.764-6.021c0-3.359,1.689-6.137,5.121-6.137
			c4.092,0,5.252,2.955,5.252,7.014h-7.632c0.13,1.874,1.37,2.937,3.149,2.937c1.395,0,2.592-0.542,3.662-1.176L63.825,435.255
			L63.825,435.255z"/>
	</g>
	<g>
		<path d="M73.025,426.73c-0.881-0.314-1.522-0.495-2.571-0.495c-0.772,0-1.694,0.293-1.694,1.285c0,1.849,4.992,0.677,4.992,4.871
			c0,2.706-2.292,3.789-4.628,3.789c-1.093,0-2.206-0.203-3.255-0.496l0.17-2.481c0.9,0.476,1.844,0.769,2.829,0.769
			c0.728,0,1.885-0.293,1.885-1.421c0-2.277-4.993-0.723-4.993-4.916c0-2.505,2.08-3.609,4.33-3.609c1.348,0,2.229,0.228,3.129,0.43
			L73.025,426.73z"/>
	</g>
	<g>
		<polygon points="-95.845,444.073 -94.35,444.073 -94.35,450.854 -87.548,444.073 -85.598,444.073 -92.919,451.2 -84.969,459.194 
			-87.027,459.194 -94.35,451.634 -94.35,459.194 -95.845,459.194 		"/>
	</g>
	<g>
		<path d="M-77.572,453.627h-0.39c-2.362,0-5.178,0.239-5.178,2.665c0,1.45,1.04,1.992,2.296,1.992c3.206,0,3.272-2.795,3.272-3.983
			V453.627z M-77.441,457.419h-0.043c-0.606,1.321-2.145,2.035-3.51,2.035c-3.141,0-3.64-2.123-3.64-3.119
			c0-3.701,3.943-3.879,6.803-3.879h0.26v-0.562c0-1.883-0.672-2.837-2.513-2.837c-1.148,0-2.231,0.259-3.251,0.909v-1.322
			c0.846-0.411,2.276-0.758,3.251-0.758c2.729,0,3.878,1.232,3.878,4.115v4.873c0,0.89,0,1.562,0.108,2.317h-1.343V457.419z"/>
	</g>
	<g>
		<path d="M-73.931,450.745c0-0.844,0-1.71-0.087-2.599h1.322v1.972h0.042c0.456-0.997,1.279-2.229,3.576-2.229
			c2.729,0,3.769,1.817,3.769,4.245v7.062h-1.365v-6.716c0-2.079-0.736-3.424-2.621-3.424c-2.492,0-3.272,2.188-3.272,4.027v6.11
			h-1.364V450.745z"/>
	</g>
	<g>
		<path d="M-58.833,458.025c2.469,0,3.357-2.339,3.357-4.354c0-2.662-0.779-4.613-3.27-4.613c-2.6,0-3.272,2.47-3.272,4.613
			C-62.019,455.838-61.152,458.025-58.833,458.025 M-54.11,458.284c0,3.076-1.387,5.589-5.178,5.589
			c-1.452,0-2.772-0.409-3.336-0.583l0.108-1.364c0.845,0.434,2.058,0.778,3.249,0.778c3.51,0,3.813-2.558,3.813-5.676h-0.043
			c-0.737,1.604-1.95,2.166-3.357,2.166c-3.533,0-4.66-3.077-4.66-5.523c0-3.358,1.301-5.782,4.551-5.782
			c1.473,0,2.426,0.192,3.444,1.516h0.043v-1.257h1.366V458.284L-54.11,458.284z"/>
	</g>
	<g>
		<path d="M-45.57,453.627h-0.39c-2.362,0-5.178,0.239-5.178,2.665c0,1.45,1.04,1.992,2.296,1.992c3.206,0,3.271-2.795,3.271-3.983
			L-45.57,453.627L-45.57,453.627z M-45.439,457.419h-0.043c-0.607,1.321-2.146,2.035-3.51,2.035c-3.143,0-3.641-2.123-3.641-3.119
			c0-3.701,3.943-3.879,6.805-3.879h0.258v-0.562c0-1.883-0.672-2.837-2.512-2.837c-1.148,0-2.232,0.259-3.252,0.909v-1.322
			c0.846-0.411,2.275-0.758,3.252-0.758c2.727,0,3.877,1.232,3.877,4.115v4.873c0,0.89,0,1.562,0.108,2.317h-1.343L-45.439,457.419
			L-45.439,457.419z"/>
	</g>
	<g>
		<path d="M-41.93,450.617c0-1.215,0-1.67-0.086-2.472h1.363v2.123h0.044c0.499-1.233,1.431-2.383,2.839-2.383
			c0.324,0,0.715,0.064,0.952,0.13v1.43c-0.28-0.087-0.649-0.131-0.995-0.131c-2.167,0-2.752,2.428-2.752,4.422v5.458h-1.365
			V450.617z"/>
	</g>
	<g>
		<path d="M-31.469,458.285c2.382,0,3.66-2.059,3.66-4.614c0-2.557-1.277-4.613-3.66-4.613c-2.384,0-3.661,2.059-3.661,4.613
			C-35.13,456.227-33.853,458.285-31.469,458.285 M-31.469,447.887c3.574,0,5.156,2.771,5.156,5.782
			c0,3.013-1.582,5.784-5.156,5.784c-3.575,0-5.157-2.771-5.157-5.784C-36.626,450.66-35.044,447.887-31.469,447.887"/>
	</g>
	<g>
		<path d="M-20.117,458.285c2.383,0,3.66-2.059,3.66-4.614c0-2.557-1.277-4.613-3.66-4.613c-2.384,0-3.66,2.059-3.66,4.613
			C-23.777,456.227-22.501,458.285-20.117,458.285 M-20.117,447.887c3.574,0,5.155,2.771,5.155,5.782
			c0,3.013-1.581,5.784-5.155,5.784c-3.576,0-5.156-2.771-5.156-5.784C-25.273,450.66-23.693,447.887-20.117,447.887"/>
	</g>
	<g>
		<rect x="-7.484" y="444.072" width="1.494" height="15.121"/>
	</g>
	<g>
		<path d="M-4.193,457.593c0.823,0.409,1.82,0.691,2.883,0.691c1.299,0,2.449-0.716,2.449-1.971c0-2.622-5.309-2.211-5.309-5.416
			c0-2.188,1.777-3.012,3.596-3.012c0.584,0,1.754,0.129,2.73,0.497l-0.131,1.191c-0.715-0.327-1.69-0.521-2.449-0.521
			c-1.407,0-2.381,0.434-2.381,1.843c0,2.057,5.437,1.797,5.437,5.416c0,2.339-2.188,3.14-3.856,3.14
			c-1.062,0-2.123-0.129-3.096-0.52L-4.193,457.593z"/>
	</g>
	<g>
		<rect x="4.087" y="442.946" width="1.364" height="16.248"/>
	</g>
	<g>
		<path d="M14.074,453.627h-0.391c-2.361,0-5.181,0.239-5.181,2.665c0,1.45,1.04,1.992,2.296,1.992c3.207,0,3.271-2.795,3.271-3.983
			v-0.674H14.074z M14.203,457.419H14.16c-0.605,1.321-2.146,2.035-3.51,2.035c-3.143,0-3.642-2.123-3.642-3.119
			c0-3.701,3.942-3.879,6.806-3.879h0.26v-0.562c0-1.883-0.674-2.837-2.514-2.837c-1.148,0-2.232,0.259-3.252,0.909v-1.322
			c0.846-0.411,2.274-0.758,3.252-0.758c2.729,0,3.877,1.232,3.877,4.115v4.873c0,0.89,0,1.562,0.108,2.317h-1.345L14.203,457.419
			L14.203,457.419z"/>
	</g>
	<g>
		<path d="M17.715,450.745c0-0.844,0-1.71-0.088-2.599h1.322v1.972h0.043c0.453-0.997,1.277-2.229,3.576-2.229
			c2.728,0,3.768,1.817,3.768,4.245v7.062h-1.365v-6.716c0-2.079-0.734-3.424-2.619-3.424c-2.494,0-3.271,2.188-3.271,4.027v6.11
			h-1.363L17.715,450.745L17.715,450.745z"/>
	</g>
	<g>
		<path d="M32.934,458.285c2.424,0,3.271-2.6,3.271-4.614c0-2.014-0.848-4.613-3.271-4.613c-2.602,0-3.271,2.471-3.271,4.613
			C29.66,455.815,30.332,458.285,32.934,458.285 M37.568,459.195h-1.365v-1.756H36.16c-0.737,1.407-1.862,2.016-3.445,2.016
			c-3.033,0-4.547-2.514-4.547-5.784c0-3.356,1.298-5.782,4.547-5.782c2.168,0,3.249,1.579,3.445,2.122h0.043v-7.062h1.365V459.195z
			"/>
	</g>
</g>
<g>
	<g>
		<path d="M-168.244,430.353c0.459,1.074,3.839,7.463,17.537,1.522c0.573-0.253,1.12-0.49,1.645-0.725l0.115-0.046
			c1.375-0.605,2.584-1.149,3.647-1.633c2.034-0.56,4.507-0.656,6.653,0.934c4.247,3.164,4.503,8.812,4.517,9.656
			c-0.047,0.036,0.26,2.521-1.269,7.076c-1.524,4.555,7.108,7.625,7.108,7.625s0.771,1.805-0.692,1.743
			c-1.46-0.071-2.147-2.118-5.198-3.859c-3.056-1.742-4.024,0.16-3.699-4.512c0.327-4.684-5.773-13.379-13.397-13.175
			C-158.854,435.155-165.421,437.415-168.244,430.353 M-149.062,431.152c-0.211,0.139-0.33,0.217-0.33,0.217l0.445-0.263
			L-149.062,431.152z M-142.033,428.037c6.365-2.671,6.498-1.366,17.937,3.291c0,0,1.729,0.469,2.359-1.671
			c0,0-1.648-1.886-0.897-4.956c0,0,1.844-0.251,3.118,4.024c0,0,2.028-0.081,3.11,1.062c1.087,1.149,0.648,2.153,3.116,4.09
			c0,0,0.499,1.549-1.147,1.747c-1.654,0.194-4.183-0.864-5.204-2.004c0,0-0.297,1.354-1.364,2.786
			c-1.723-0.224-4.797-0.312-7.666,1.237c-1.277,0.698-2.271,1.668-3.025,2.66c-0.176,0.02-0.35,0.026-0.526,0.023
			c-0.288-0.006-0.582-0.092-0.851-0.173c-0.041-1.388-0.389-5.42-2.929-8.584C-137.846,429.277-140.421,428.384-142.033,428.037
			 M-121.896,437.415c-0.761,0.738-1.766,1.395-3.087,1.82c-4.44,1.409-4.377,1.672-6.093,3.35c-0.8,0.779-1.063,0.668-1.052,0.251
			c0.364-0.986,0.934-1.929,1.788-2.729C-127.511,437.438-123.926,437.249-121.896,437.415"/>
	</g>
</g>
</svg>
