<?xml version="1.0" encoding="utf-8"?>
<!-- Generator: Adobe Illustrator 16.0.0, SVG Export Plug-In . SVG Version: 6.00 Build 0)  -->
<!DOCTYPE svg PUBLIC "-//W3C//DTD SVG 1.1//EN" "http://www.w3.org/Graphics/SVG/1.1/DTD/svg11.dtd">
<svg version="1.1" id="Layer_1" xmlns="http://www.w3.org/2000/svg" xmlns:xlink="http://www.w3.org/1999/xlink" x="0px" y="0px"
	 width="412.582px" height="206.053px" viewBox="0 0 412.582 206.053" enable-background="new 0 0 412.582 206.053"
	 xml:space="preserve">
<linearGradient id="SVGID_1_" gradientUnits="userSpaceOnUse" x1="182.2773" y1="235.8115" x2="11.126" y2="-60.6313">
	<stop  offset="0" style="stop-color:#00939D;stop-opacity:0"/>
	<stop  offset="1" style="stop-color:#00939D"/>
</linearGradient>
<path fill="url(#SVGID_1_)" d="M244.514,7.656c-5.177,9.011-12.884,18.046-24.211,25.704
	c-37.991,25.543-36.656,27.847-48.244,48.393c-5.43,9.589-8.208,9.245-9.269,5.323c0.686-10.38,3.486-20.801,9.343-30.771
	C191.542,23.281,224.884,11.674,244.514,7.656L244.514,7.656z M28.438-25.467c52.764-42.752,57.639-30.845,178.541-18.326
	c0,0,17.596-0.337,17.683-22.297c0,0-20.806-13.233-22.123-44.34c0,0,16.696-7.465,40.491,29.463c0,0,18.96-6.404,32.32,1.415
	c13.438,7.835,12.066,18.562,40.691,30.031c0,0,9.004,13.246-5.996,19.652c-15.083,6.417-41.913,3.386-54.718-4.557
	c0,0,0.976,13.62-5.171,30.107C233.252-1.7,203.94,5.931,181.103,28.466c-10.155,10.12-16.849,22.03-21.229,33.44
	c-1.585,0.684-3.188,1.298-4.877,1.704c-2.736,0.737-5.732,0.75-8.522,0.705C142.261,51.346,127.86,14.21,95.143-8.669
	C71.395-25.299,44.576-26.623,28.438-25.467L28.438-25.467z M-29.346,23.31c-1.643,1.955-2.522,2.987-2.522,2.987l3.478-3.721
	L-29.346,23.31L-29.346,23.31z M-212.765,68.632c7.279,8.894,56.823,59.95,169.803-33.874c4.767-4.021,9.296-7.753,13.616-11.448
	l0.955-0.733C-17.11,13.04-7.208,4.618,1.544-2.892c17.697-10.854,40.803-18.604,65.393-9.5
	c48.849,18.16,66.844,70.822,69.332,78.766c-0.343,0.431,9.355,23.089,7.5,70.33c-1.864,47.23,88.153,52.455,88.153,52.455
	s12.249,14.933-1.754,18.354c-13.962,3.385-26.088-14.062-59.729-22.115c-33.629-8.018-37.575,12.633-47.394-32.439
	C113.243,107.862,31.67,42.506-39.815,65.44C-110.8,88.14-166.697,127.626-212.765,68.632L-212.765,68.632z"/>
</svg>
