<?xml version="1.0" encoding="utf-8"?>
<!-- Generator: Adobe Illustrator 16.0.0, SVG Export Plug-In . SVG Version: 6.00 Build 0)  -->
<!DOCTYPE svg PUBLIC "-//W3C//DTD SVG 1.1//EN" "http://www.w3.org/Graphics/SVG/1.1/DTD/svg11.dtd">
<svg version="1.1" id="Layer_1" xmlns="http://www.w3.org/2000/svg" xmlns:xlink="http://www.w3.org/1999/xlink" x="0px" y="0px"
	 width="27px" height="27px" viewBox="0 0 27 27" enable-background="new 0 0 27 27" xml:space="preserve">
<g>
	<g>
		<g>
			<defs>
				<rect id="SVGID_1_" width="27" height="27"/>
			</defs>
			<clipPath id="SVGID_2_">
				<use xlink:href="#SVGID_1_"  overflow="visible"/>
			</clipPath>
			<path clip-path="url(#SVGID_2_)" fill="#CCE7E8" d="M20.303,10.779c0.006,0.146,0.01,0.292,0.01,0.44
				c0,4.496-3.422,9.679-9.681,9.679c-1.922,0-3.71-0.562-5.216-1.527c0.266,0.031,0.537,0.047,0.811,0.047
				c1.595,0,3.062-0.544,4.226-1.457C8.964,17.934,7.708,16.95,7.275,15.6c0.208,0.039,0.42,0.062,0.64,0.062
				c0.311,0,0.611-0.041,0.897-0.12c-1.557-0.312-2.73-1.688-2.73-3.335c0-0.015,0-0.029,0.001-0.044
				c0.458,0.255,0.983,0.408,1.541,0.427C6.711,11.977,6.11,10.937,6.11,9.756c0-0.623,0.168-1.208,0.461-1.71
				c1.677,2.058,4.185,3.412,7.012,3.554c-0.059-0.249-0.089-0.508-0.089-0.775c0-1.879,1.523-3.402,3.402-3.402
				c0.979,0,1.861,0.413,2.482,1.074c0.773-0.152,1.503-0.436,2.161-0.825c-0.256,0.795-0.794,1.461-1.497,1.882
				C20.732,9.471,21.391,9.287,22,9.017C21.544,9.699,20.967,10.299,20.303,10.779 M13.501,0C6.044,0,0,6.046,0,13.501
				S6.044,27,13.501,27c7.456,0,13.5-6.044,13.5-13.499S20.957,0,13.501,0"/>
		</g>
	</g>
</g>
</svg>
