<?xml version="1.0" encoding="utf-8"?>
<!-- Generator: Adobe Illustrator 16.0.0, SVG Export Plug-In . SVG Version: 6.00 Build 0)  -->
<!DOCTYPE svg PUBLIC "-//W3C//DTD SVG 1.1//EN" "http://www.w3.org/Graphics/SVG/1.1/DTD/svg11.dtd">
<svg version="1.1" id="Layer_1" xmlns="http://www.w3.org/2000/svg" xmlns:xlink="http://www.w3.org/1999/xlink" x="0px" y="0px"
	 width="27px" height="27px" viewBox="0 0 27 27" enable-background="new 0 0 27 27" xml:space="preserve">
<g>
	<g>
		<g>
			<defs>
				<rect id="SVGID_1_" width="27" height="27"/>
			</defs>
			<clipPath id="SVGID_2_">
				<use xlink:href="#SVGID_1_"  overflow="visible"/>
			</clipPath>
			<path clip-path="url(#SVGID_2_)" fill="#CCE7E8" d="M14.059,9.542V7.18c0-0.519-0.157-0.778-0.484-0.778
				c-0.328,0-0.485,0.259-0.485,0.778v2.362c0,0.52,0.157,0.779,0.485,0.779C13.902,10.321,14.059,10.062,14.059,9.542
				 M8.717,14.759h1.206v-1.05h-3.51v1.05h1.184v6.406h1.12V14.759z M11.957,21.165h1.007v-5.558h-1.007v4.248
				c-0.223,0.313-0.434,0.471-0.636,0.471c-0.135,0-0.211-0.079-0.236-0.235c-0.009-0.032-0.009-0.155-0.009-0.392v-4.092h-1.007
				v4.395c0,0.393,0.034,0.657,0.089,0.826c0.101,0.281,0.324,0.413,0.649,0.413c0.37,0,0.75-0.224,1.15-0.683V21.165z
				 M15.782,19.576c0,0.502-0.148,0.75-0.438,0.75c-0.166,0-0.334-0.079-0.502-0.248v-3.387c0.168-0.166,0.336-0.244,0.502-0.244
				c0.289,0,0.438,0.258,0.438,0.759V19.576z M16.688,20.616c0.066-0.234,0.103-0.604,0.103-1.118v-2.213
				c0-0.525-0.035-0.895-0.103-1.116c-0.135-0.416-0.403-0.627-0.807-0.627c-0.369,0-0.715,0.201-1.039,0.603v-2.436h-1.006v7.457
				h1.006v-0.538c0.336,0.416,0.684,0.614,1.039,0.614C16.284,21.241,16.553,21.029,16.688,20.616 M18.575,17.732v-0.517
				c0-0.513,0.168-0.771,0.504-0.771c0.334,0,0.502,0.259,0.502,0.771v0.517H18.575z M20.566,20.035
				c0.009-0.1,0.021-0.323,0.021-0.646V19.24h-1.024c0,0.402-0.015,0.627-0.023,0.683c-0.057,0.269-0.201,0.403-0.449,0.403
				c-0.346,0-0.514-0.258-0.514-0.771V18.57h2.014v-1.15c0-0.594-0.102-1.027-0.312-1.311c-0.28-0.379-0.684-0.567-1.188-0.567
				c-0.514,0-0.916,0.188-1.207,0.567c-0.213,0.281-0.311,0.717-0.311,1.311v1.945c0,0.592,0.107,1.029,0.322,1.308
				c0.291,0.38,0.69,0.568,1.219,0.568c0.525,0,0.939-0.198,1.219-0.603C20.454,20.461,20.532,20.259,20.566,20.035 M21.829,17.561
				c0,1.299-0.002,2.676-0.291,3.938c-0.203,0.886-0.929,1.539-1.802,1.638c-1.938,0.217-3.901,0.229-5.857,0.229
				c-0.126,0-0.253,0-0.38,0c-0.126,0-0.253,0-0.379,0c-1.956,0-3.918-0.015-5.858-0.229c-0.872-0.099-1.597-0.752-1.8-1.638
				c-0.29-1.263-0.29-2.64-0.29-3.938c0-1.297,0.003-2.676,0.293-3.937c0.204-0.886,0.928-1.54,1.8-1.637
				c1.94-0.217,3.902-0.231,5.858-0.231c0.127,0,0.253,0,0.38,0c0.126,0,0.253,0,0.38,0c1.956,0,3.917,0.014,5.858,0.231
				c0.87,0.097,1.596,0.751,1.801,1.637C21.831,14.885,21.829,16.262,21.829,17.561 M18.838,11.167H17.82v-0.612
				c-0.403,0.464-0.791,0.69-1.161,0.69c-0.328,0-0.554-0.133-0.656-0.418c-0.056-0.17-0.09-0.438-0.09-0.834v-4.44h1.015v4.134
				c0,0.238,0,0.362,0.014,0.395c0.021,0.158,0.104,0.238,0.238,0.238c0.202,0,0.416-0.157,0.643-0.476v-4.29h1.018v5.613H18.838z
				 M15.077,9.351c0,0.596-0.104,1.039-0.315,1.32c-0.281,0.383-0.679,0.575-1.189,0.575c-0.507,0-0.903-0.192-1.184-0.575
				c-0.216-0.281-0.319-0.724-0.319-1.32V7.384c0-0.599,0.103-1.038,0.319-1.322c0.281-0.384,0.677-0.575,1.184-0.575
				c0.51,0,0.906,0.191,1.189,0.575c0.213,0.284,0.315,0.723,0.315,1.322V9.351z M12.061,3.634l-1.357,4.483v3.051H9.576V8.117
				c-0.102-0.54-0.328-1.332-0.69-2.383c-0.238-0.699-0.485-1.401-0.723-2.1H9.35l0.801,2.959l0.769-2.959H12.061z M27,13.5
				C27,6.045,20.956,0,13.501,0C6.045,0,0,6.045,0,13.5C0,20.957,6.045,27,13.501,27C20.956,27,27,20.957,27,13.5"/>
		</g>
	</g>
</g>
</svg>
