<?xml version="1.0" encoding="utf-8"?>
<!-- Generator: Adobe Illustrator 17.1.0, SVG Export Plug-In . SVG Version: 6.00 Build 0)  -->
<!DOCTYPE svg PUBLIC "-//W3C//DTD SVG 1.1//EN" "http://www.w3.org/Graphics/SVG/1.1/DTD/svg11.dtd">
<svg version="1.1" id="News" xmlns="http://www.w3.org/2000/svg" xmlns:xlink="http://www.w3.org/1999/xlink" x="0px" y="0px"
	 width="80px" height="69px" viewBox="-243 318.9 80 69" enable-background="new -243 318.9 80 69" xml:space="preserve">
<path fill="#395090" d="M-207.1,366.1h-2.5c-0.9,0-1.6-0.8-1.6-1.8c0-0.6,0.2-1,0.6-1.4h4.7c0.3,0.3,0.6,0.8,0.6,1.4
	C-205.5,365.3-206.2,366.1-207.1,366.1 M-197.7,334.4c-0.2-0.7-0.9-1.1-1.6-0.9c-0.7,0.2-1,1-0.8,1.8l0.5,1.5l-0.1,0.1l3.1,10
	c0.1,0.3,0,0.8-0.3,1l0.1,0.5l-25.9,12.7l-0.8-2.5l-0.3-1.1c-0.2-0.7-0.9-1-1.5-0.8c-0.6,0.2-0.9,1-0.7,1.7l2.1,6.6
	c0.1,0.6,0.6,0.9,1.1,0.9c0.1,0,0.2,0,0.3-0.1c0.6-0.2,0.9-1,0.7-1.7l-0.3-1.1h9.1c-0.1,0.5-0.2,0.9-0.2,1.4c0,2.3,1.6,4.1,3.6,4.1
	h2.5c2.1,0,3.6-1.8,3.6-4.1c0-0.5-0.1-0.9-0.2-1.4h12.2l0.8,2.5c0.2,0.6,0.7,0.9,1.1,0.9c0.1,0,0.2,0,0.5-0.1c0.7-0.2,1-1,0.8-1.8
	L-197.7,334.4z"/>
<polygon fill="#395090" points="-221.5,358.8 -199.4,343.3 -201,338.1 -222.1,357.1 "/>
<path fill="#395090" d="M-180.2,347.9c0-0.1,0-0.2,0-0.5v-0.3c-0.1-0.6-0.2-1.1-0.3-1.6c-0.7-2.1-1.9-3.9-3.5-5
	c-1.6-1.1-3.5-1.6-5.2-1.3c1.7,0.7,3.1,1.7,4.1,3c1.1,1.3,1.9,2.7,2.4,4.2c0.1,0.3,0.2,0.8,0.3,1.1l0.1,0.3c0,0.1,0,0.2,0,0.3
	c0,0.2,0,0.5,0.1,0.7c0.1,0.8,0.1,1.7,0,2.6c-0.2,1.7-0.7,3.5-1.6,5.2c1.6-0.9,2.9-2.7,3.4-4.8c0.3-1,0.5-2.2,0.5-3.2
	C-180.2,348.5-180.2,348.1-180.2,347.9"/>
<path fill="#395090" d="M-184.6,348.5v-0.2c0-0.3-0.1-0.7-0.2-0.9c-0.3-1.3-1.1-2.3-2.1-3c-0.9-0.7-2.1-0.9-3.1-0.7
	c1,0.5,1.8,1,2.4,1.7c0.7,0.7,1.1,1.6,1.4,2.5c0.1,0.2,0.1,0.5,0.2,0.7l0.1,0.3v0.3c0,0.5,0,1,0,1.5c-0.1,1-0.5,2.1-0.9,3.1
	c0.9-0.6,1.7-1.6,2.1-2.7c0.2-0.6,0.2-1.3,0.2-1.9c0-0.1,0-0.3,0-0.5L-184.6,348.5z"/>
</svg>
