<?xml version="1.0" encoding="utf-8"?>
<!-- Generator: Adobe Illustrator 17.1.0, SVG Export Plug-In . SVG Version: 6.00 Build 0)  -->
<!DOCTYPE svg PUBLIC "-//W3C//DTD SVG 1.1//EN" "http://www.w3.org/Graphics/SVG/1.1/DTD/svg11.dtd">
<svg version="1.1" id="FAQs" xmlns="http://www.w3.org/2000/svg" xmlns:xlink="http://www.w3.org/1999/xlink" x="0px" y="0px"
	 width="80px" height="69px" viewBox="-243 318.9 80 69" enable-background="new -243 318.9 80 69" xml:space="preserve">
<path fill="none" stroke="#395090" stroke-width="4" stroke-miterlimit="10" d="M-203,331.9c-11.6,0-21,9.5-21,21
	c0,11.6,9.4,21,21,21s21-9.4,21-21C-182,341.4-191.5,331.9-203,331.9z"/>
<g enable-background="new    ">
	<path fill="#395090" d="M-209.8,343.3c1.1-0.3,2.2-0.6,3.3-0.7c1.1-0.1,2.2-0.2,3.4-0.2c0.9,0,1.8,0.1,2.7,0.3
		c0.9,0.2,1.7,0.5,2.5,0.9c0.7,0.4,1.3,1,1.8,1.6s0.7,1.5,0.7,2.5c0,0.7-0.1,1.4-0.4,1.9c-0.2,0.6-0.5,1.1-0.9,1.6
		c-0.4,0.5-0.8,0.9-1.2,1.4s-0.8,0.9-1.2,1.4s-0.7,1-1,1.6c-0.3,0.5-0.4,1.2-0.5,1.9h-4.6c0-1,0.2-1.9,0.6-2.6s0.9-1.4,1.4-2.1
		c0.5-0.6,1-1.2,1.4-1.9c0.4-0.6,0.6-1.2,0.6-1.9c0-0.4-0.1-0.7-0.3-1c-0.2-0.3-0.5-0.5-0.8-0.7c-0.3-0.2-0.7-0.3-1.1-0.4
		c-0.4-0.1-0.8-0.1-1.2-0.1c-1.8,0-3.4,0.4-5,1.2L-209.8,343.3z M-205.6,359.7h5.3v5.1h-5.3V359.7z"/>
</g>
</svg>
