<?xml version="1.0" encoding="utf-8"?>
<!-- Generator: Adobe Illustrator 17.1.0, SVG Export Plug-In . SVG Version: 6.00 Build 0)  -->
<!DOCTYPE svg PUBLIC "-//W3C//DTD SVG 1.1//EN" "http://www.w3.org/Graphics/SVG/1.1/DTD/svg11.dtd">
<svg version="1.1" id="Apps" xmlns="http://www.w3.org/2000/svg" xmlns:xlink="http://www.w3.org/1999/xlink" x="0px" y="0px"
	 width="80px" height="69px" viewBox="-243 318.9 80 69" enable-background="new -243 318.9 80 69" xml:space="preserve">
<polygon fill="#395090" points="-200,355.9 -200,339.9 -206,339.9 -206,355.9 -209,355.9 -203,361.9 -197,355.9 "/>
<rect x="-217" y="329.9" fill="none" width="28" height="46"/>
<path fill="#395090" d="M-193,329.9h-20c0,0-4,0-4,4v38c0,0,0,4,4,4h21c0,0,3,0,3-4v-38C-189,333.9-189,329.9-193,329.9z
	 M-205.5,331.9h5c0.5,0,0.5,1,0.5,1h-6C-206,331.9-205.5,331.9-205.5,331.9z M-199,372.9c0,0.6-0.4,1-1,1h-6c-0.6,0-1-0.4-1-1v-1
	c0-0.6,0.4-1,1-1h6c0.6,0,1,0.4,1,1V372.9z M-191,366.9c0,2-2,2-2,2h-20c-2,0-2-2-2-2v-31c0-2,2-2,2-2h20c2,0,2,2,2,2V366.9z"/>
</svg>
