<?xml version="1.0" encoding="utf-8"?>
<!-- Generator: Adobe Illustrator 19.0.0, SVG Export Plug-In . SVG Version: 6.00 Build 0)  -->
<svg version="1.1" id="Layer_1" xmlns="http://www.w3.org/2000/svg" xmlns:xlink="http://www.w3.org/1999/xlink" x="0px" y="0px"
	 width="80px" height="72px" viewBox="15 -11 80 72" style="enable-background:new 15 -11 80 72;" xml:space="preserve">
<style type="text/css">
	.st0{fill:#395090;}
</style>
<path class="st0" d="M74.5,34.3"/>
<path class="st0" d="M72.1,10.5h-9.6v4c0,0.8-0.7,1.5-1.5,1.5s-1.5-0.7-1.5-1.5v-4h-11v4c0,0.8-0.7,1.5-1.5,1.5s-1.5-0.7-1.5-1.5v-4
	h-8.6c-1.3,0-2.4,1.1-2.4,2.4v28.3c0,1.3,1.1,2.4,2.4,2.4h35.3c1.3,0,2.4-1.1,2.4-2.4V12.9C74.5,11.6,73.4,10.5,72.1,10.5z
	 M72.5,41.1c0,0.2-0.2,0.4-0.4,0.4H36.9c-0.2,0-0.4-0.2-0.4-0.4V17.5h36V41.1z"/>
<circle class="st0" cx="40.5" cy="22.3" r="1.4"/>
<circle class="st0" cx="40.5" cy="29.9" r="1.4"/>
<circle class="st0" cx="40.5" cy="37.6" r="1.4"/>
<circle class="st0" cx="47.7" cy="22.3" r="1.4"/>
<circle class="st0" cx="47.7" cy="29.9" r="1.4"/>
<circle class="st0" cx="47.7" cy="37.6" r="1.4"/>
<circle class="st0" cx="54.5" cy="22.3" r="1.4"/>
<circle class="st0" cx="54.5" cy="29.9" r="1.4"/>
<circle class="st0" cx="54.5" cy="37.6" r="1.4"/>
<circle class="st0" cx="61.3" cy="22.3" r="1.4"/>
<path class="st0" d="M61.3,33.2c-1.8,0-3.3-1.5-3.3-3.3s1.5-3.3,3.3-3.3c1.8,0,3.3,1.5,3.3,3.3S63.1,33.2,61.3,33.2z M61.3,27.7
	c-1.2,0-2.2,1-2.2,2.2s1,2.2,2.2,2.2s2.2-1,2.2-2.2S62.5,27.7,61.3,27.7z"/>
<circle class="st0" cx="61.3" cy="29.9" r="1.4"/>
<circle class="st0" cx="61.3" cy="37.6" r="1.4"/>
<circle class="st0" cx="68.5" cy="22.3" r="1.4"/>
<circle class="st0" cx="68.5" cy="29.9" r="1.4"/>
<circle class="st0" cx="68.5" cy="37.6" r="1.4"/>
</svg>
