<?xml version="1.0" encoding="utf-8"?>
<!-- Generator: Adobe Illustrator 17.1.0, SVG Export Plug-In . SVG Version: 6.00 Build 0)  -->
<!DOCTYPE svg PUBLIC "-//W3C//DTD SVG 1.1 Tiny//EN" "http://www.w3.org/Graphics/SVG/1.1/DTD/svg11-tiny.dtd">
<svg version="1.1" baseProfile="tiny" id="Layer_1" xmlns="http://www.w3.org/2000/svg" xmlns:xlink="http://www.w3.org/1999/xlink"
	 x="0px" y="0px" viewBox="0 0 400 120" overflow="auto" xml:space="preserve">
<path d="M253.2,48.7L253.2,48.7c0-1.3,0.4-2.4,1.1-3c0.8-0.7,1.9-1,3.3-1c1.5,0,2.6,0.3,3.4,1c0.8,0.7,1.2,1.7,1.2,3
	c0,1.3-0.4,2.4-1.2,3c-0.8,0.7-1.9,1-3.4,1c-1.5,0-2.6-0.3-3.3-1C253.6,51.1,253.2,50,253.2,48.7 M257.7,39.2
	c-3.6,0-6.4,0.8-8.2,2.4c-1.9,1.6-2.8,4-2.8,7.2c0,3.2,0.9,5.6,2.8,7.1c1.9,1.6,4.6,2.3,8.2,2.3c3.6,0,6.4-0.8,8.2-2.3
	c1.9-1.6,2.8-3.9,2.8-7.1c0-3.2-0.9-5.6-2.8-7.2C264.1,40,261.3,39.2,257.7,39.2"/>
<g>
	<path d="M104.7,48.7L104.7,48.7c0-1.3,0.4-2.4,1.1-3c0.8-0.7,1.9-1,3.3-1c1.5,0,2.6,0.3,3.4,1c0.8,0.7,1.2,1.7,1.2,3
		c0,1.3-0.4,2.4-1.2,3c-0.8,0.7-1.9,1-3.4,1c-1.5,0-2.6-0.3-3.3-1C105.1,51.1,104.7,50,104.7,48.7 M109.2,39.2
		c-3.6,0-6.4,0.8-8.2,2.4c-1.9,1.6-2.8,4-2.8,7.2c0,3.2,0.9,5.6,2.8,7.1c1.9,1.6,4.6,2.3,8.2,2.3c3.6,0,6.4-0.8,8.2-2.3
		c1.9-1.6,2.8-3.9,2.8-7.1c0-3.2-0.9-5.6-2.8-7.2C115.6,40,112.8,39.2,109.2,39.2"/>
</g>
<g>
	<path d="M96.5,39.4h-5c-0.2,0-0.4,0.1-0.5,0.2c-0.1,0.1-0.2,0.3-0.2,0.5v10.3c0,1.3-0.7,2-2.2,2c-0.8,0-1.5-0.2-2.2-0.6
		c-0.7-0.4-1.2-0.8-1.5-1.1c-0.1-0.1-0.3-0.2-0.4-0.2c0,0-0.1,0-0.1,0c-0.1,0-0.2,0-0.3,0.1c-0.1,0.1-0.2,0.2-0.3,0.3
		c-0.1,0.1-0.1,0.2-0.1,0.3c0,0,0,0.1,0,0.2l0.7,5.3c0,0.1,0.1,0.2,0.1,0.3c0.1,0.1,0.1,0.2,0.2,0.2c0.2,0.1,0.4,0.2,0.8,0.3
		c0.4,0.1,0.8,0.3,1.4,0.5c1.2,0.4,2.3,0.6,3.4,0.6c2,0,3.7-0.6,5-1.8c1.3-1.2,2-2.8,2-4.7v-12c0-0.2-0.1-0.4-0.2-0.5
		C96.8,39.4,96.6,39.4,96.5,39.4"/>
</g>
<path d="M288,39.5h-4.8c-0.2,0-0.4,0.1-0.5,0.2c-0.1,0.1-0.2,0.3-0.2,0.5v9.6c0,1.1-0.2,1.9-0.7,2.3c-0.5,0.5-1.3,0.7-2.4,0.7
	c-1.2,0-2-0.2-2.5-0.7c-0.5-0.5-0.8-1.2-0.8-2.3v-9.6c0-0.2-0.1-0.4-0.2-0.5c-0.1-0.1-0.3-0.2-0.5-0.2h-4.8c-0.2,0-0.4,0.1-0.5,0.2
	c-0.1,0.1-0.2,0.3-0.2,0.5v11.7c0,2.4,0.8,4.1,2.5,5c1.5,0.8,3.8,1.3,7,1.3c3,0,5.3-0.4,6.9-1.3c1.7-0.9,2.6-2.5,2.6-4.8V40.2
	c0-0.2-0.1-0.4-0.2-0.5C288.4,39.6,288.2,39.5,288,39.5"/>
<path d="M296.8,43.7L296.8,43.7h3.7c0.9,0,1.5,0.1,2,0.4c0.5,0.3,0.7,0.7,0.7,1.3c0,0.7-0.3,1.2-0.9,1.4c-0.6,0.3-1.5,0.4-2.6,0.4
	h-2.8V43.7z M302.7,39.5H291c-0.2,0-0.4,0.1-0.5,0.2c-0.1,0.1-0.2,0.3-0.2,0.5v16.9c0,0.2,0.1,0.4,0.2,0.5c0.1,0.1,0.3,0.2,0.5,0.2
	h5.2c0.2,0,0.4-0.1,0.5-0.2c0.1-0.1,0.2-0.3,0.2-0.5v-5.8h2.3c0.8,0,1.3,0,1.5,0.1c0.1,0,0.2,0.1,0.2,0.2c0.1,0.1,0.1,0.2,0.2,0.2
	l0,0l3,5.6c0.1,0.1,0.2,0.2,0.3,0.3c0.1,0.1,0.2,0.1,0.4,0.1h5.9c0.3,0,0.5-0.1,0.6-0.3c0.1-0.1,0.1-0.2,0.1-0.3
	c0-0.1,0-0.3-0.1-0.4l-3.2-5.4c-0.2-0.3-0.5-0.6-0.9-0.9c-0.4-0.3-0.8-0.6-1.3-0.9c0.4-0.1,0.8-0.3,1.2-0.5c0.4-0.2,0.7-0.4,0.9-0.6
	c1.1-0.8,1.6-2.1,1.6-3.9c0-1.6-0.7-2.8-2-3.8C306.4,40,304.7,39.5,302.7,39.5"/>
<path d="M238.7,39.5h-4.6c-0.2,0-0.4,0.1-0.5,0.2c-0.1,0.1-0.2,0.3-0.2,0.5v8.6c-0.5-0.6-0.9-1.2-1.3-1.8c-0.4-0.6-0.9-1.2-1.3-1.8
	c-0.7-0.9-1.3-1.8-2-2.7c-0.6-0.9-1.3-1.8-2-2.7c0-0.1-0.1-0.1-0.2-0.2c-0.1-0.1-0.2-0.1-0.3-0.1H221c-0.2,0-0.4,0.1-0.5,0.2
	c-0.1,0.1-0.2,0.3-0.2,0.5v16.9c0,0.2,0.1,0.4,0.2,0.5c0.1,0.1,0.3,0.2,0.5,0.2h4.6c0.2,0,0.4-0.1,0.5-0.2c0.1-0.1,0.2-0.3,0.2-0.5
	v-8.5l6.6,8.9c0.1,0.1,0.2,0.1,0.3,0.2s0.2,0.1,0.3,0.1h5.2c0.2,0,0.4-0.1,0.5-0.2c0.1-0.1,0.2-0.3,0.2-0.5V40.3
	c0-0.2-0.1-0.4-0.2-0.5C239.1,39.6,238.9,39.5,238.7,39.5"/>
<path d="M218.1,39.5h-4.4c-0.2,0-0.3,0.1-0.4,0.2c-0.1,0.1-0.2,0.3-0.2,0.5v16.9c0,0.2,0.1,0.4,0.2,0.5c0.1,0.1,0.3,0.2,0.4,0.2h4.4
	c0.2,0,0.3-0.1,0.4-0.2c0.1-0.1,0.2-0.3,0.2-0.5V40.3c0-0.2-0.1-0.4-0.2-0.5C218.4,39.6,218.3,39.5,218.1,39.5"/>
<path d="M204.6,39.5h-13.6c-0.2,0-0.4,0.1-0.5,0.2c-0.1,0.1-0.2,0.3-0.2,0.5v16.9c0,0.2,0.1,0.4,0.2,0.5s0.3,0.2,0.5,0.2h14.3
	c0.2,0,0.4-0.1,0.5-0.2c0.1-0.1,0.2-0.3,0.2-0.5v-3.4c0-0.2-0.1-0.4-0.2-0.5c-0.1-0.1-0.3-0.2-0.5-0.2h-8.5v-2l6.7,0
	c0.2,0,0.3-0.1,0.5-0.2c0.1-0.1,0.2-0.3,0.2-0.5V47c0-0.2-0.1-0.4-0.2-0.5c-0.1-0.1-0.3-0.2-0.5-0.2h-6.7v-1.9h7.9
	c0.2,0,0.4-0.1,0.5-0.2c0.1-0.1,0.2-0.3,0.2-0.5v-3.4c0-0.2-0.1-0.4-0.2-0.5C204.9,39.6,204.7,39.5,204.6,39.5"/>
<path d="M188.8,39.5h-14.4c-0.2,0-0.4,0.1-0.5,0.2c-0.1,0.1-0.2,0.3-0.2,0.5v16.9c0,0.2,0.1,0.4,0.2,0.5c0.1,0.1,0.3,0.2,0.5,0.2
	h5.1c0.2,0,0.4-0.1,0.5-0.2c0.1-0.1,0.2-0.3,0.2-0.5v-5.8h6.3c0.2,0,0.4-0.1,0.5-0.2c0.1-0.1,0.2-0.3,0.2-0.5l0-3.4
	c0-0.2-0.1-0.4-0.2-0.5c-0.1-0.1-0.3-0.2-0.5-0.2h-6.4v-2.2h8.6c0.2,0,0.4-0.1,0.5-0.2c0.1-0.1,0.2-0.3,0.2-0.5v-3.4
	c0-0.2-0.1-0.4-0.2-0.5C189.2,39.6,189,39.5,188.8,39.5"/>
<path d="M171.5,39.5h-4.4c-0.2,0-0.3,0.1-0.4,0.2c-0.1,0.1-0.2,0.3-0.2,0.5v16.9c0,0.2,0.1,0.4,0.2,0.5c0.1,0.1,0.3,0.2,0.4,0.2h4.4
	c0.2,0,0.3-0.1,0.4-0.2c0.1-0.1,0.2-0.3,0.2-0.5V40.3c0-0.2-0.1-0.4-0.2-0.5C171.9,39.6,171.7,39.5,171.5,39.5"/>
<path d="M155.6,39.5h-5.1c-0.2,0-0.4,0.1-0.5,0.2c-0.1,0.1-0.2,0.3-0.2,0.5v16.9c0,0.2,0.1,0.4,0.2,0.5c0.1,0.1,0.3,0.2,0.5,0.2
	h14.6c0.2,0,0.3-0.1,0.5-0.2c0.1-0.1,0.2-0.3,0.2-0.5v-4c0-0.2-0.1-0.4-0.2-0.5c-0.1-0.1-0.3-0.2-0.5-0.2h-8.8l0-12.2
	c0-0.2-0.1-0.4-0.2-0.5C156,39.6,155.8,39.5,155.6,39.5"/>
<g>
	<path d="M141.8,39.5h-5.5c-0.1,0-0.2,0-0.3,0.1c-0.1,0.1-0.2,0.1-0.3,0.2l-4.3,5.8l-4.8-5.9c0-0.1-0.1-0.1-0.3-0.2
		c-0.1-0.1-0.2-0.1-0.3-0.1H120c-0.3,0-0.6,0.1-0.7,0.4c0,0.1-0.1,0.2-0.1,0.3c0,0.2,0.1,0.3,0.2,0.5l8.2,9.8v6.6
		c0,0.2,0.1,0.4,0.2,0.5c0.1,0.1,0.3,0.2,0.5,0.2h5.2c0.2,0,0.4-0.1,0.5-0.2c0.1-0.1,0.2-0.3,0.2-0.5v-6.6l8.1-9.8
		c0.1-0.2,0.2-0.3,0.2-0.5c0-0.1,0-0.2-0.1-0.3C142.4,39.7,142.1,39.5,141.8,39.5"/>
</g>
<g>
	<path d="M82.2,39.5h-4.6c-0.2,0-0.4,0.1-0.5,0.2c-0.1,0.1-0.2,0.3-0.2,0.5v8.6c-0.5-0.6-0.9-1.2-1.3-1.8c-0.4-0.6-0.9-1.2-1.3-1.8
		c-0.7-0.9-1.3-1.8-2-2.7c-0.6-0.9-1.3-1.8-2-2.7c0-0.1-0.1-0.1-0.2-0.2c-0.1-0.1-0.2-0.1-0.3-0.1h-5.2c-0.2,0-0.4,0.1-0.5,0.2
		c-0.1,0.1-0.2,0.3-0.2,0.5v16.9c0,0.2,0.1,0.4,0.2,0.5c0.1,0.1,0.3,0.2,0.5,0.2H69c0.2,0,0.4-0.1,0.5-0.2c0.1-0.1,0.2-0.3,0.2-0.5
		v-8.5l6.6,8.9c0.1,0.1,0.2,0.1,0.3,0.2s0.2,0.1,0.3,0.1h5.2c0.2,0,0.4-0.1,0.5-0.2c0.1-0.1,0.2-0.3,0.2-0.5V40.3
		c0-0.2-0.1-0.4-0.2-0.5C82.5,39.6,82.4,39.5,82.2,39.5"/>
</g>
<g>
	<path d="M61.2,39.5H47.5c-0.2,0-0.4,0.1-0.5,0.2c-0.1,0.1-0.2,0.3-0.2,0.5v16.9c0,0.2,0.1,0.4,0.2,0.5c0.1,0.1,0.3,0.2,0.5,0.2
		h14.3c0.2,0,0.4-0.1,0.5-0.2c0.1-0.1,0.2-0.3,0.2-0.5v-3.4c0-0.2-0.1-0.4-0.2-0.5c-0.1-0.1-0.3-0.2-0.5-0.2h-8.5v-2l6.7,0
		c0.2,0,0.3-0.1,0.5-0.2c0.1-0.1,0.2-0.3,0.2-0.5V47c0-0.2-0.1-0.4-0.2-0.5c-0.1-0.1-0.3-0.2-0.5-0.2h-6.7v-1.9h7.9
		c0.2,0,0.4-0.1,0.5-0.2c0.1-0.1,0.2-0.3,0.2-0.5v-3.4c0-0.2-0.1-0.4-0.2-0.5C61.5,39.6,61.4,39.5,61.2,39.5"/>
</g>
<path d="M260.3,63.2c-2.5,0-4.4,0.5-5.8,1.5c-1.4,1-2.1,2.5-2.1,4.5c0,1.7,0.6,3,1.7,3.9c1,0.9,2.9,1.6,5.6,2.1
	c1.4,0.3,2.4,0.5,2.8,0.8c0.2,0.2,0.4,0.3,0.4,0.5c0,0.3-0.2,0.6-0.6,0.7c-0.4,0.2-1,0.3-1.7,0.3c-1.1,0-2.4-0.2-3.8-0.7
	c-1.4-0.5-2.4-0.9-3.2-1.3c-0.1-0.1-0.2-0.1-0.3-0.1c-0.1,0-0.3,0-0.4,0.1c-0.2,0.1-0.3,0.3-0.3,0.6c0,0,0,0.1,0,0.1l0.4,4.4
	c0,0.1,0.1,0.3,0.2,0.4c0.1,0.1,0.2,0.2,0.4,0.2c0.2,0,0.4,0.1,0.7,0.2c0.3,0.1,0.7,0.1,1.2,0.2v0c0.1,0,0.2,0.1,0.4,0.1
	c0.1,0,0.3,0,0.4,0.1c0.7,0.1,1.3,0.2,2,0.2c0.7,0.1,1.4,0.1,2,0.1c1.3,0,2.4-0.1,3.5-0.4c1-0.3,1.9-0.7,2.6-1.2
	c0.7-0.5,1.3-1.2,1.6-1.9c0.4-0.8,0.6-1.7,0.6-2.7c0-1.6-0.5-2.8-1.6-3.8c-0.9-0.9-2.7-1.7-5.2-2.2c-0.7-0.1-1.3-0.3-1.8-0.4
	c-0.5-0.1-1-0.3-1.3-0.4c-0.4-0.1-0.6-0.3-0.6-0.6c0-0.3,0.2-0.5,0.6-0.6c0.4-0.1,0.9-0.2,1.6-0.2c0.9,0,2,0.2,3.1,0.5
	c0.6,0.2,1.1,0.4,1.7,0.6c0.5,0.2,1,0.4,1.5,0.7c0.1,0.1,0.2,0.1,0.4,0.1c0.1,0,0.3,0,0.4-0.1c0.2-0.1,0.3-0.3,0.3-0.6
	c0,0,0-0.1,0-0.1l-0.5-4.1c0-0.1-0.1-0.2-0.2-0.4c-0.1-0.1-0.2-0.2-0.3-0.2c-0.3-0.1-0.7-0.2-1.1-0.3c-0.4-0.1-1-0.2-1.6-0.3
	C262.5,63.3,261.4,63.2,260.3,63.2"/>
<path d="M248.8,63.5h-5.4c-0.1,0-0.2,0-0.3,0.1c-0.1,0.1-0.2,0.1-0.3,0.2l-5.5,6.3v-5.8c0-0.2-0.1-0.4-0.2-0.5
	c-0.1-0.1-0.3-0.2-0.5-0.2h-5.1c-0.2,0-0.4,0.1-0.5,0.2c-0.1,0.1-0.2,0.3-0.2,0.5v16.9c0,0.2,0.1,0.4,0.2,0.5
	c0.1,0.1,0.3,0.2,0.5,0.2h5.1c0.2,0,0.4-0.1,0.5-0.2c0.1-0.1,0.2-0.3,0.2-0.5v-6.4l7.1,6.9c0,0,0.1,0.1,0.2,0.1
	c0.1,0,0.2,0.1,0.3,0.1h6.3c0.2,0,0.3,0,0.4-0.1c0.1-0.1,0.2-0.2,0.3-0.3c0-0.1,0.1-0.2,0.1-0.2c0,0,0-0.1,0-0.1
	c0-0.1-0.1-0.3-0.2-0.4l-8.9-8.7l6.6-7.2c0.1-0.1,0.2-0.2,0.2-0.4c0,0,0-0.1,0-0.1c0-0.1,0-0.2-0.1-0.3c-0.1-0.1-0.1-0.2-0.3-0.3
	C249.1,63.6,248.9,63.5,248.8,63.5"/>
<path d="M215.5,67.7L215.5,67.7h3.7c0.9,0,1.5,0.1,2,0.4c0.5,0.3,0.7,0.7,0.7,1.3c0,0.7-0.3,1.2-0.9,1.4c-0.6,0.3-1.5,0.4-2.6,0.4
	h-2.8V67.7z M221.5,63.5h-11.8c-0.2,0-0.4,0.1-0.5,0.2c-0.1,0.1-0.2,0.3-0.2,0.5v17c0,0.2,0.1,0.4,0.2,0.5c0.1,0.1,0.3,0.2,0.5,0.2
	h5.2c0.2,0,0.4-0.1,0.5-0.2c0.1-0.1,0.2-0.3,0.2-0.5v-5.8h2.3c0.8,0,1.3,0,1.5,0.1c0.1,0,0.2,0.1,0.2,0.2c0.1,0.1,0.1,0.2,0.2,0.2
	l0,0l3,5.6c0.1,0.1,0.2,0.2,0.3,0.3c0.1,0.1,0.2,0.1,0.4,0.1h5.9c0.3,0,0.5-0.1,0.6-0.3c0.1-0.1,0.1-0.2,0.1-0.3
	c0-0.1,0-0.3-0.1-0.4l-3.2-5.4c-0.2-0.3-0.5-0.6-0.9-0.9c-0.4-0.3-0.8-0.6-1.3-0.9c0.4-0.1,0.8-0.3,1.2-0.5c0.4-0.2,0.7-0.4,0.9-0.6
	c1.1-0.8,1.6-2.1,1.6-3.9c0-1.6-0.7-2.8-2-3.8C225.1,64,223.5,63.5,221.5,63.5"/>
<path d="M194,75.1l2.2-4.1l2.1,4.1H194z M198.8,63.5h-4.1c-0.1,0-0.2,0-0.3,0.1c-0.1,0.1-0.2,0.2-0.3,0.3l-9.6,16.9
	c-0.1,0.1-0.1,0.3-0.1,0.4c0,0.1,0,0.2,0.1,0.3c0.1,0.2,0.4,0.3,0.7,0.3h4.8c0.1,0,0.2,0,0.4-0.1c0.1-0.1,0.2-0.2,0.3-0.3l1.2-2.3
	h8.8l1.2,2.3c0,0.1,0.1,0.2,0.3,0.3c0.1,0.1,0.3,0.1,0.4,0.1h5.5c0.3,0,0.5-0.1,0.7-0.3c0.1-0.1,0.1-0.2,0.1-0.3
	c0-0.1,0-0.2-0.1-0.4l-9.1-16.9c-0.1-0.1-0.2-0.2-0.3-0.3C199,63.6,198.9,63.5,198.8,63.5"/>
<path d="M177.3,67.8L177.3,67.8l1.4-0.1c0.1,0,0.3,0,0.4,0c0.7,0,1.2,0.1,1.6,0.4c0.5,0.3,0.7,0.8,0.7,1.4c0,1.1-0.8,1.7-2.5,1.7
	c-0.1,0-0.2,0-0.3,0l-1.2,0V67.8z M178.5,63.5h-6.9c-0.2,0-0.4,0.1-0.5,0.2c-0.1,0.1-0.2,0.3-0.2,0.5v17c0,0.2,0.1,0.4,0.2,0.5
	c0.1,0.1,0.3,0.2,0.5,0.2h5c0.2,0,0.4-0.1,0.5-0.2c0.1-0.1,0.2-0.3,0.2-0.5v-5.9l2.4,0c0.1,0,0.2,0,0.2,0c2.4,0,4.3-0.5,5.6-1.4
	c1.3-1,2-2.5,2-4.6c0-1-0.2-1.9-0.6-2.7c-0.4-0.7-0.9-1.3-1.7-1.8c-0.7-0.5-1.7-0.8-2.8-1C181.3,63.7,180,63.5,178.5,63.5"/>
<path d="M162.3,63.5h-13.6c-0.2,0-0.4,0.1-0.5,0.2c-0.1,0.1-0.2,0.3-0.2,0.5v16.9c0,0.2,0.1,0.4,0.2,0.5c0.1,0.1,0.3,0.2,0.5,0.2
	h14.3c0.2,0,0.4-0.1,0.5-0.2c0.1-0.1,0.2-0.3,0.2-0.5v-3.4c0-0.2-0.1-0.4-0.2-0.5c-0.1-0.1-0.3-0.2-0.5-0.2h-8.5v-2l6.7,0
	c0.2,0,0.3-0.1,0.5-0.2c0.1-0.1,0.2-0.3,0.2-0.5V71c0-0.2-0.1-0.4-0.2-0.5c-0.1-0.1-0.3-0.2-0.5-0.2h-6.7v-1.9h7.9
	c0.2,0,0.4-0.1,0.5-0.2c0.1-0.1,0.2-0.3,0.2-0.5v-3.4c0-0.2-0.1-0.4-0.2-0.5C162.6,63.6,162.5,63.5,162.3,63.5"/>
<path d="M145.6,63.5h-4.6c-0.2,0-0.4,0.1-0.5,0.2c-0.1,0.1-0.2,0.3-0.2,0.5v8.6c-0.5-0.6-0.9-1.2-1.3-1.8c-0.4-0.6-0.9-1.2-1.3-1.8
	c-0.7-0.9-1.3-1.8-2-2.7c-0.6-0.9-1.3-1.8-2-2.7c0-0.1-0.1-0.1-0.2-0.2c-0.1-0.1-0.2-0.1-0.3-0.1h-5.2c-0.2,0-0.4,0.1-0.5,0.2
	c-0.1,0.1-0.2,0.3-0.2,0.5v16.9c0,0.2,0.1,0.4,0.2,0.5c0.1,0.1,0.3,0.2,0.5,0.2h4.6c0.2,0,0.4-0.1,0.5-0.2c0.1-0.1,0.2-0.3,0.2-0.5
	v-8.5l6.6,8.9c0.1,0.1,0.2,0.1,0.3,0.2c0.1,0.1,0.2,0.1,0.3,0.1h5.2c0.2,0,0.4-0.1,0.5-0.2c0.1-0.1,0.2-0.3,0.2-0.5V64.3
	c0-0.2-0.1-0.4-0.2-0.5C146,63.6,145.9,63.5,145.6,63.5"/>
<path d="M125,63.5h-4.4c-0.2,0-0.3,0.1-0.4,0.2c-0.1,0.1-0.2,0.3-0.2,0.5v16.9c0,0.2,0.1,0.4,0.2,0.5c0.1,0.1,0.3,0.2,0.4,0.2h4.4
	c0.2,0,0.3-0.1,0.4-0.2c0.1-0.1,0.2-0.3,0.2-0.5V64.3c0-0.2-0.1-0.4-0.2-0.5C125.4,63.6,125.2,63.5,125,63.5"/>
<path d="M104.8,67.7L104.8,67.7h3.7c0.9,0,1.5,0.1,2,0.4c0.5,0.3,0.7,0.7,0.7,1.3c0,0.7-0.3,1.2-0.9,1.4c-0.6,0.3-1.5,0.4-2.6,0.4
	h-2.8V67.7z M110.8,63.5H99c-0.2,0-0.4,0.1-0.5,0.2c-0.1,0.1-0.2,0.3-0.2,0.5v17c0,0.2,0.1,0.4,0.2,0.5c0.1,0.1,0.3,0.2,0.5,0.2h5.2
	c0.2,0,0.4-0.1,0.5-0.2c0.1-0.1,0.2-0.3,0.2-0.5v-5.8h2.3c0.8,0,1.3,0,1.5,0.1c0.1,0,0.2,0.1,0.2,0.2c0.1,0.1,0.1,0.2,0.2,0.2l0,0
	l3,5.6c0.1,0.1,0.2,0.2,0.3,0.3c0.1,0.1,0.2,0.1,0.4,0.1h5.9c0.3,0,0.5-0.1,0.6-0.3c0.1-0.1,0.1-0.2,0.1-0.3c0-0.1,0-0.3-0.1-0.4
	l-3.2-5.4c-0.2-0.3-0.5-0.6-0.9-0.9c-0.4-0.3-0.8-0.6-1.3-0.9c0.4-0.1,0.8-0.3,1.2-0.5c0.4-0.2,0.7-0.4,0.9-0.6
	c1.1-0.8,1.6-2.1,1.6-3.9c0-1.6-0.7-2.8-2-3.8C114.4,64,112.8,63.5,110.8,63.5"/>
<path d="M83.3,75.1l2.2-4.1l2.1,4.1H83.3z M88.1,63.5h-4.1c-0.1,0-0.2,0-0.4,0.1c-0.1,0.1-0.2,0.2-0.3,0.3l-9.6,16.9
	c-0.1,0.1-0.1,0.3-0.1,0.4c0,0.1,0,0.2,0.1,0.3c0.1,0.2,0.4,0.3,0.7,0.3h4.8c0.1,0,0.2,0,0.4-0.1c0.1-0.1,0.2-0.2,0.3-0.3l1.2-2.3
	h8.8l1.2,2.3c0,0.1,0.1,0.2,0.3,0.3c0.1,0.1,0.3,0.1,0.4,0.1h5.5c0.3,0,0.5-0.1,0.7-0.3c0.1-0.1,0.1-0.2,0.1-0.3
	c0-0.1,0-0.2-0.1-0.4l-9.1-16.9c-0.1-0.1-0.2-0.2-0.3-0.3C88.3,63.6,88.2,63.5,88.1,63.5"/>
<path d="M72,63.5h-5.5c-0.1,0-0.2,0-0.4,0.1c-0.1,0.1-0.2,0.2-0.3,0.2l-6.1,10l-6.1-10c0-0.1-0.1-0.2-0.3-0.2
	c-0.1-0.1-0.2-0.1-0.3-0.1h-5.5c-0.2,0-0.4,0.1-0.5,0.2c-0.1,0.1-0.2,0.3-0.2,0.5v16.9c0,0.2,0.1,0.4,0.2,0.5
	c0.1,0.1,0.3,0.2,0.5,0.2h4.7c0.2,0,0.4-0.1,0.5-0.2c0.1-0.1,0.2-0.3,0.2-0.5v-9.1l5.1,9.4c0.1,0.1,0.2,0.2,0.3,0.3
	c0.1,0.1,0.2,0.1,0.4,0.1h2.2c0.1,0,0.2,0,0.4-0.1c0.1-0.1,0.2-0.2,0.3-0.3l5.1-9.5v9.2c0,0.2,0.1,0.4,0.2,0.5
	c0.1,0.1,0.3,0.2,0.5,0.2H72c0.2,0,0.4-0.1,0.5-0.2c0.1-0.1,0.2-0.3,0.2-0.5V64.3c0-0.2-0.1-0.4-0.2-0.5
	C72.4,63.6,72.2,63.5,72,63.5"/>
<path d="M272.8,77.3h-2.9c-0.2,0-0.3,0.1-0.4,0.2c-0.1,0.1-0.2,0.2-0.2,0.4v3.4c0,0.2,0.1,0.3,0.2,0.4c0.1,0.1,0.2,0.2,0.4,0.2h2.9
	c0.2,0,0.3-0.1,0.4-0.2c0.1-0.1,0.2-0.2,0.2-0.4v-3.4c0-0.2-0.1-0.3-0.2-0.4C273,77.4,272.9,77.3,272.8,77.3"/>
<g>
	<path d="M317.7,95H39.5c-8.4,0-8.5-8.4-8.5-8.5V32.2c0-8.4,8.4-8.5,8.5-8.5h278.2c8.4,0,8.5,8.4,8.5,8.5v54.3
		C326.1,94.9,317.7,95,317.7,95z M39.5,24.8c-0.3,0-7.4,0.1-7.4,7.4v54.3c0,0.3,0.1,7.4,7.4,7.4h278.2h0c0.3,0,7.4-0.1,7.4-7.4V32.2
		c0-0.3-0.1-7.4-7.4-7.4H39.5z"/>
</g>
</svg>
