<?xml version="1.0" encoding="utf-8"?>
<!-- Generator: Adobe Illustrator 17.1.0, SVG Export Plug-In . SVG Version: 6.00 Build 0)  -->
<!DOCTYPE svg PUBLIC "-//W3C//DTD SVG 1.1//EN" "http://www.w3.org/Graphics/SVG/1.1/DTD/svg11.dtd">
<svg version="1.1" id="Logotype" xmlns="http://www.w3.org/2000/svg" xmlns:xlink="http://www.w3.org/1999/xlink" x="0px" y="0px"
	 width="400px" height="120px" viewBox="0 0 400 120" enable-background="new 0 0 400 120" xml:space="preserve">
<g>
	<path fill="#FFFFFF" d="M255.3,48.2L255.3,48.2c0-1.3,0.4-2.4,1.1-3c0.8-0.7,1.9-1,3.3-1c1.5,0,2.6,0.3,3.4,1
		c0.8,0.7,1.2,1.7,1.2,3s-0.4,2.4-1.2,3c-0.8,0.7-1.9,1-3.4,1c-1.5,0-2.6-0.3-3.3-1C255.7,50.7,255.3,49.6,255.3,48.2 M259.9,38.7
		c-3.6,0-6.5,0.8-8.3,2.4c-1.9,1.6-2.8,4-2.8,7.3c0,3.2,0.9,5.7,2.8,7.2c1.9,1.6,4.6,2.3,8.3,2.3s6.5-0.8,8.3-2.3
		c1.9-1.6,2.8-3.9,2.8-7.2c0-3.2-0.9-5.7-2.8-7.3C266.3,39.5,263.5,38.7,259.9,38.7"/>
</g>
<g>
	<path fill="#FFFFFF" d="M105.4,48.2L105.4,48.2c0-1.3,0.4-2.4,1.1-3c0.8-0.7,1.9-1,3.3-1c1.5,0,2.6,0.3,3.4,1
		c0.8,0.7,1.2,1.7,1.2,3s-0.4,2.4-1.2,3c-0.8,0.7-1.9,1-3.4,1s-2.6-0.3-3.3-1C105.8,50.7,105.4,49.6,105.4,48.2 M109.9,38.7
		c-3.6,0-6.5,0.8-8.3,2.4c-1.9,1.6-2.8,4-2.8,7.3c0,3.2,0.9,5.7,2.8,7.2c1.9,1.6,4.6,2.3,8.3,2.3s6.5-0.8,8.3-2.3
		c1.9-1.6,2.8-3.9,2.8-7.2c0-3.2-0.9-5.7-2.8-7.3C116.4,39.5,113.7,38.7,109.9,38.7"/>
</g>
<g>
	<path fill="#FFFFFF" d="M97.1,38.9h-5c-0.2,0-0.4,0.1-0.5,0.2c-0.1,0.1-0.2,0.3-0.2,0.5V50c0,1.3-0.7,2-2.2,2
		c-0.8,0-1.5-0.2-2.2-0.6c-0.7-0.4-1.2-0.8-1.5-1.1c-0.1-0.1-0.3-0.2-0.4-0.2h-0.1c-0.1,0-0.2,0-0.3,0.1c-0.1,0.1-0.2,0.2-0.3,0.3
		c-0.1,0.1-0.1,0.2-0.1,0.3c0,0,0,0.1,0,0.2l0.7,5.4c0,0.1,0.1,0.2,0.1,0.3c0.1,0.1,0.1,0.2,0.2,0.2c0.2,0.1,0.4,0.2,0.8,0.3
		c0.4,0.1,0.8,0.3,1.4,0.5c1.2,0.4,2.3,0.6,3.4,0.6c2,0,3.7-0.6,5-1.8c1.3-1.2,2-2.8,2-4.7V39.6c0-0.2-0.1-0.4-0.2-0.5
		C97.4,38.9,97.3,38.9,97.1,38.9"/>
</g>
<g>
	<path fill="#FFFFFF" d="M290.5,39h-4.8c-0.2,0-0.4,0.1-0.5,0.2s-0.2,0.3-0.2,0.5v9.7c0,1.1-0.2,1.9-0.7,2.3
		c-0.5,0.5-1.3,0.7-2.4,0.7c-1.2,0-2-0.2-2.5-0.7c-0.5-0.5-0.8-1.2-0.8-2.3v-9.7c0-0.2-0.1-0.4-0.2-0.5c-0.1-0.1-0.3-0.2-0.5-0.2
		H273c-0.2,0-0.4,0.1-0.5,0.2s-0.2,0.3-0.2,0.5v11.8c0,2.4,0.8,4.1,2.5,5c1.5,0.8,3.8,1.3,7.1,1.3c3,0,5.4-0.4,7-1.3
		c1.7-0.9,2.6-2.5,2.6-4.8v-12c0-0.2-0.1-0.4-0.2-0.5C290.8,39.1,290.7,39,290.5,39"/>
</g>
<g>
	<path fill="#FFFFFF" d="M299.3,43.2L299.3,43.2h3.7c0.9,0,1.5,0.1,2,0.4c0.5,0.3,0.7,0.7,0.7,1.3c0,0.7-0.3,1.2-0.9,1.4
		c-0.6,0.3-1.5,0.4-2.6,0.4h-2.8v-3.5H299.3z M305.3,39h-11.9c-0.2,0-0.4,0.1-0.5,0.2s-0.2,0.3-0.2,0.5v17.1c0,0.2,0.1,0.4,0.2,0.5
		c0.1,0.1,0.3,0.2,0.5,0.2h5.2c0.2,0,0.4-0.1,0.5-0.2s0.2-0.3,0.2-0.5v-5.9h2.3c0.8,0,1.3,0,1.5,0.1c0.1,0,0.2,0.1,0.2,0.2
		c0.1,0.1,0.1,0.2,0.2,0.2l0,0l3,5.7c0.1,0.1,0.2,0.2,0.3,0.3c0.1,0.1,0.2,0.1,0.4,0.1h6c0.3,0,0.5-0.1,0.6-0.3
		c0.1-0.1,0.1-0.2,0.1-0.3c0-0.1,0-0.3-0.1-0.4l-3.2-5.5c-0.2-0.3-0.5-0.6-0.9-0.9c-0.4-0.3-0.8-0.6-1.3-0.9
		c0.4-0.1,0.8-0.3,1.2-0.5c0.4-0.2,0.7-0.4,0.9-0.6c1.1-0.8,1.6-2.1,1.6-3.9c0-1.6-0.7-2.8-2-3.8C309,39.5,307.4,39,305.3,39"/>
</g>
<g>
	<path fill="#FFFFFF" d="M240.7,39H236c-0.2,0-0.4,0.1-0.5,0.2c-0.1,0.1-0.2,0.3-0.2,0.5v8.7c-0.5-0.6-0.9-1.2-1.3-1.8
		c-0.4-0.6-0.9-1.2-1.3-1.8c-0.7-0.9-1.3-1.8-2-2.7c-0.6-0.9-1.3-1.8-2-2.7c0-0.1-0.1-0.1-0.2-0.2c-0.1-0.1-0.2-0.1-0.3-0.1h-5.2
		c-0.2,0-0.4,0.1-0.5,0.2c-0.1,0.1-0.2,0.3-0.2,0.5v17.1c0,0.2,0.1,0.4,0.2,0.5c0.1,0.1,0.3,0.2,0.5,0.2h4.6c0.2,0,0.4-0.1,0.5-0.2
		c0.1-0.1,0.2-0.3,0.2-0.5v-8.6l6.7,9c0.1,0.1,0.2,0.1,0.3,0.2s0.2,0.1,0.3,0.1h5.2c0.2,0,0.4-0.1,0.5-0.2c0.1-0.1,0.2-0.3,0.2-0.5
		v-17c0-0.2-0.1-0.4-0.2-0.5C241.1,39.1,240.9,39,240.7,39"/>
</g>
<g>
	<path fill="#FFFFFF" d="M219.9,39h-4.4c-0.2,0-0.3,0.1-0.4,0.2c-0.1,0.1-0.2,0.3-0.2,0.5v17.1c0,0.2,0.1,0.4,0.2,0.5
		c0.1,0.1,0.3,0.2,0.4,0.2h4.4c0.2,0,0.3-0.1,0.4-0.2c0.1-0.1,0.2-0.3,0.2-0.5v-17c0-0.2-0.1-0.4-0.2-0.5
		C220.2,39.1,220.1,39,219.9,39"/>
</g>
<g>
	<path fill="#FFFFFF" d="M206.2,39h-13.7c-0.2,0-0.4,0.1-0.5,0.2s-0.2,0.3-0.2,0.5v17.1c0,0.2,0.1,0.4,0.2,0.5
		c0.1,0.1,0.3,0.2,0.5,0.2H207c0.2,0,0.4-0.1,0.5-0.2c0.1-0.1,0.2-0.3,0.2-0.5v-3.4c0-0.2-0.1-0.4-0.2-0.5c-0.1-0.1-0.3-0.2-0.5-0.2
		h-8.7v-2h6.8c0.2,0,0.3-0.1,0.5-0.2c0.1-0.1,0.2-0.3,0.2-0.5v-3.3c0-0.2-0.1-0.4-0.2-0.5c-0.1-0.1-0.3-0.2-0.5-0.2h-6.8v-1.9h8
		c0.2,0,0.4-0.1,0.5-0.2c0.1-0.1,0.2-0.3,0.2-0.5v-3.4c0-0.2-0.1-0.4-0.2-0.5C206.5,39.1,206.4,39,206.2,39"/>
</g>
<g>
	<path fill="#FFFFFF" d="M190.3,39h-14.5c-0.2,0-0.4,0.1-0.5,0.2s-0.2,0.3-0.2,0.5v17.1c0,0.2,0.1,0.4,0.2,0.5
		c0.1,0.1,0.3,0.2,0.5,0.2h5.1c0.2,0,0.4-0.1,0.5-0.2s0.2-0.3,0.2-0.5v-5.9h6.4c0.2,0,0.4-0.1,0.5-0.2c0.1-0.1,0.2-0.3,0.2-0.5v-3.4
		c0-0.2-0.1-0.4-0.2-0.5c-0.1-0.1-0.3-0.2-0.5-0.2h-6.5v-2.2h8.7c0.2,0,0.4-0.1,0.5-0.2c0.1-0.1,0.2-0.3,0.2-0.5v-3.4
		c0-0.2-0.1-0.4-0.2-0.5C190.7,39.1,190.5,39,190.3,39"/>
</g>
<g>
	<path fill="#FFFFFF" d="M172.9,39h-4.4c-0.2,0-0.3,0.1-0.4,0.2c-0.1,0.1-0.2,0.3-0.2,0.5v17.1c0,0.2,0.1,0.4,0.2,0.5
		c0.1,0.1,0.3,0.2,0.4,0.2h4.4c0.2,0,0.3-0.1,0.4-0.2c0.1-0.1,0.2-0.3,0.2-0.5v-17c0-0.2-0.1-0.4-0.2-0.5
		C173.2,39.1,173,39,172.9,39"/>
</g>
<g>
	<path fill="#FFFFFF" d="M156.8,39h-5.1c-0.2,0-0.4,0.1-0.5,0.2c-0.1,0.1-0.2,0.3-0.2,0.5v17.1c0,0.2,0.1,0.4,0.2,0.5
		c0.1,0.1,0.3,0.2,0.5,0.2h14.7c0.2,0,0.3-0.1,0.5-0.2c0.1-0.1,0.2-0.3,0.2-0.5v-4c0-0.2-0.1-0.4-0.2-0.5c-0.1-0.1-0.3-0.2-0.5-0.2
		h-8.9V39.7c0-0.2-0.1-0.4-0.2-0.5C157.2,39.1,157,39,156.8,39"/>
</g>
<g>
	<path fill="#FFFFFF" d="M142.9,39h-5.6c-0.1,0-0.2,0-0.3,0.1s-0.2,0.1-0.3,0.2l-4.3,5.9l-4.8-6c0-0.1-0.1-0.1-0.3-0.2
		c-0.1-0.1-0.2-0.1-0.3-0.1h-6.2c-0.3,0-0.6,0.1-0.7,0.4c-0.1,0.1-0.1,0.2-0.1,0.3c0,0.2,0.1,0.3,0.2,0.5l8.3,9.9v6.7
		c0,0.2,0.1,0.4,0.2,0.5c0.1,0.1,0.3,0.2,0.5,0.2h5.2c0.2,0,0.4-0.1,0.5-0.2c0.1-0.1,0.2-0.3,0.2-0.5V50l8.2-9.9
		c0.1-0.2,0.2-0.3,0.2-0.5c0-0.1,0-0.2-0.1-0.3C143.5,39.2,143.3,39,142.9,39"/>
</g>
<g>
	<path fill="#FFFFFF" d="M82.7,39H78c-0.2,0-0.4,0.1-0.5,0.2c-0.1,0.1-0.2,0.3-0.2,0.5v8.7c-0.5-0.6-0.9-1.2-1.3-1.8
		c-0.4-0.6-0.9-1.2-1.3-1.8c-0.7-0.9-1.3-1.8-2-2.7c-0.6-0.9-1.3-1.8-2-2.7c0-0.1-0.1-0.1-0.2-0.2C70.4,39,70.3,39,70.2,39h-5.2
		c-0.2,0-0.4,0.1-0.5,0.2s-0.2,0.3-0.2,0.5v17.1c0,0.2,0.1,0.4,0.2,0.5c0.1,0.1,0.3,0.2,0.5,0.2h4.6c0.2,0,0.4-0.1,0.5-0.2
		c0.1-0.1,0.2-0.3,0.2-0.5v-8.6l6.7,9c0.1,0.1,0.2,0.1,0.3,0.2c0.1,0.1,0.2,0.1,0.3,0.1h5.2c0.2,0,0.4-0.1,0.5-0.2
		c0.1-0.1,0.2-0.3,0.2-0.5v-17c0-0.2-0.1-0.4-0.2-0.5C83,39.1,82.9,39,82.7,39"/>
</g>
<g>
	<path fill="#FFFFFF" d="M61.5,39H47.8c-0.2,0-0.4,0.1-0.5,0.2s-0.2,0.3-0.2,0.5v17.1c0,0.2,0.1,0.4,0.2,0.5
		c0.1,0.1,0.3,0.2,0.5,0.2h14.4c0.2,0,0.4-0.1,0.5-0.2c0.1-0.1,0.2-0.3,0.2-0.5v-3.4c0-0.2-0.1-0.4-0.2-0.5
		c-0.1-0.1-0.3-0.2-0.5-0.2h-8.6v-2h6.8c0.2,0,0.4-0.1,0.5-0.2c0.1-0.1,0.2-0.3,0.2-0.5v-3.3c0-0.2-0.1-0.4-0.2-0.5
		c-0.1-0.1-0.3-0.2-0.5-0.2h-6.8v-1.9h8c0.2,0,0.4-0.1,0.5-0.2s0.2-0.3,0.2-0.5v-3.4c0-0.2-0.1-0.4-0.2-0.5
		C61.9,39.1,61.7,39,61.5,39"/>
</g>
<g>
	<path fill="#FFFFFF" d="M262.5,62.9c-2.5,0-4.4,0.5-5.9,1.5c-1.4,1-2.1,2.5-2.1,4.5c0,1.7,0.6,3,1.7,3.9c1,0.9,2.9,1.6,5.7,2.1
		c1.4,0.3,2.4,0.5,2.8,0.8c0.2,0.2,0.4,0.3,0.4,0.5c0,0.3-0.2,0.6-0.6,0.7c-0.4,0.2-1,0.3-1.7,0.3c-1.1,0-2.4-0.2-3.8-0.7
		c-1.4-0.5-2.4-0.9-3.2-1.3c-0.1-0.1-0.2-0.1-0.3-0.1s-0.3,0-0.4,0.1c-0.2,0.1-0.3,0.3-0.3,0.6V76l0.4,4.4c0,0.1,0.1,0.3,0.2,0.4
		c0.1,0.1,0.2,0.2,0.4,0.2c0.2,0,0.4,0.1,0.7,0.2c0.3,0.1,0.7,0.1,1.2,0.2l0,0c0.1,0,0.2,0.1,0.4,0.1c0.1,0,0.3,0,0.4,0.1
		c0.7,0.1,1.3,0.2,2,0.2c0.7,0.1,1.4,0.1,2,0.1c1.3,0,2.4-0.1,3.5-0.4c1-0.3,1.9-0.7,2.6-1.2c0.7-0.5,1.3-1.2,1.6-1.9
		c0.4-0.8,0.6-1.7,0.6-2.7c0-1.6-0.5-2.8-1.6-3.8c-0.9-0.9-2.7-1.7-5.2-2.2c-0.7-0.1-1.3-0.3-1.8-0.4c-0.5-0.1-1-0.3-1.3-0.4
		c-0.4-0.1-0.6-0.3-0.6-0.6c0-0.3,0.2-0.5,0.6-0.6c0.4-0.1,0.9-0.2,1.6-0.2c0.9,0,2,0.2,3.1,0.5c0.6,0.2,1.1,0.4,1.7,0.6
		c0.5,0.2,1,0.4,1.5,0.7c0.1,0.1,0.2,0.1,0.4,0.1c0.1,0,0.3,0,0.4-0.1c0.2-0.1,0.3-0.3,0.3-0.6v-0.1l-0.5-4.1c0-0.1-0.1-0.2-0.2-0.4
		c-0.1-0.1-0.2-0.2-0.3-0.2c-0.3-0.1-0.7-0.2-1.1-0.3c-0.4-0.1-1-0.2-1.6-0.3C264.8,63,263.6,62.9,262.5,62.9"/>
</g>
<g>
	<path fill="#FFFFFF" d="M250.9,63.2h-5.5c-0.1,0-0.2,0-0.3,0.1c-0.1,0.1-0.2,0.1-0.3,0.2l-5.6,6.4V64c0-0.2-0.1-0.4-0.2-0.5
		c-0.1-0.1-0.3-0.2-0.5-0.2h-5.1c-0.2,0-0.4,0.1-0.5,0.2c-0.1,0.1-0.2,0.3-0.2,0.5v17.1c0,0.2,0.1,0.4,0.2,0.5
		c0.1,0.1,0.3,0.2,0.5,0.2h5.1c0.2,0,0.4-0.1,0.5-0.2c0.1-0.1,0.2-0.3,0.2-0.5v-6.5l7.2,7c0,0,0.1,0.1,0.2,0.1
		c0.1,0,0.2,0.1,0.3,0.1h6.4c0.2,0,0.3,0,0.4-0.1s0.2-0.2,0.3-0.3c0-0.1,0.1-0.2,0.1-0.2v-0.1c0-0.1-0.1-0.3-0.2-0.4l-9-8.8l6.7-7.3
		c0.1-0.1,0.2-0.2,0.2-0.4v-0.1c0-0.1,0-0.2-0.1-0.3c-0.1-0.1-0.1-0.2-0.3-0.3C251.2,63.3,251.1,63.2,250.9,63.2"/>
</g>
<g>
	<path fill="#FFFFFF" d="M217.4,67.4L217.4,67.4h3.7c0.9,0,1.5,0.1,2,0.4c0.5,0.3,0.7,0.7,0.7,1.3c0,0.7-0.3,1.2-0.9,1.4
		c-0.6,0.3-1.5,0.4-2.6,0.4h-2.8v-3.5H217.4z M223.3,63.2h-11.9c-0.2,0-0.4,0.1-0.5,0.2c-0.1,0.1-0.2,0.3-0.2,0.5v17.2
		c0,0.2,0.1,0.4,0.2,0.5c0.1,0.1,0.3,0.2,0.5,0.2h5.2c0.2,0,0.4-0.1,0.5-0.2c0.1-0.1,0.2-0.3,0.2-0.5v-5.9h2.3c0.8,0,1.3,0,1.5,0.1
		c0.1,0,0.2,0.1,0.2,0.2c0.1,0.1,0.1,0.2,0.2,0.2l0,0l3,5.7c0.1,0.1,0.2,0.2,0.3,0.3c0.1,0.1,0.2,0.1,0.4,0.1h6
		c0.3,0,0.5-0.1,0.6-0.3c0.1-0.1,0.1-0.2,0.1-0.3c0-0.1,0-0.3-0.1-0.4l-3.2-5.5c-0.2-0.3-0.5-0.6-0.9-0.9s-0.8-0.6-1.3-0.9
		c0.4-0.1,0.8-0.3,1.2-0.5c0.4-0.2,0.7-0.4,0.9-0.6c1.1-0.8,1.6-2.1,1.6-3.9c0-1.6-0.7-2.8-2-3.8C227,63.7,225.3,63.2,223.3,63.2"/>
</g>
<g>
	<path fill="#FFFFFF" d="M195.5,74.9l2.2-4.1l2.1,4.1H195.5z M200.4,63.2h-4.1c-0.1,0-0.2,0-0.3,0.1c-0.1,0.1-0.2,0.2-0.3,0.3
		L186,80.7c-0.1,0.1-0.1,0.3-0.1,0.4s0,0.2,0.1,0.3c0.1,0.2,0.4,0.3,0.7,0.3h4.8c0.1,0,0.2,0,0.4-0.1c0.1-0.1,0.2-0.2,0.3-0.3
		l1.2-2.3h8.9l1.2,2.3c0,0.1,0.1,0.2,0.3,0.3c0.1,0.1,0.3,0.1,0.4,0.1h5.6c0.3,0,0.5-0.1,0.7-0.3c0.1-0.1,0.1-0.2,0.1-0.3
		c0-0.1,0-0.2-0.1-0.4l-9.2-17.1c-0.1-0.1-0.2-0.2-0.3-0.3C200.6,63.3,200.5,63.2,200.4,63.2"/>
</g>
<g>
	<path fill="#FFFFFF" d="M178.7,67.5L178.7,67.5l1.4-0.1c0.1,0,0.3,0,0.4,0c0.7,0,1.2,0.1,1.6,0.4c0.5,0.3,0.7,0.8,0.7,1.4
		c0,1.1-0.8,1.7-2.5,1.7c-0.1,0-0.2,0-0.3,0h-1.2v-3.4H178.7z M179.9,63.2h-7c-0.2,0-0.4,0.1-0.5,0.2c-0.1,0.1-0.2,0.3-0.2,0.5v17.2
		c0,0.2,0.1,0.4,0.2,0.5c0.1,0.1,0.3,0.2,0.5,0.2h5c0.2,0,0.4-0.1,0.5-0.2c0.1-0.1,0.2-0.3,0.2-0.5v-6h2.4c0.1,0,0.2,0,0.2,0
		c2.4,0,4.3-0.5,5.7-1.4c1.3-1,2-2.5,2-4.6c0-1-0.2-1.9-0.6-2.7c-0.4-0.7-0.9-1.3-1.7-1.8c-0.7-0.5-1.7-0.8-2.8-1
		C182.7,63.4,181.4,63.2,179.9,63.2"/>
</g>
<g>
	<path fill="#FFFFFF" d="M163.5,63.2h-13.7c-0.2,0-0.4,0.1-0.5,0.2c-0.1,0.1-0.2,0.3-0.2,0.5V81c0,0.2,0.1,0.4,0.2,0.5
		c0.1,0.1,0.3,0.2,0.5,0.2h14.4c0.2,0,0.4-0.1,0.5-0.2c0.1-0.1,0.2-0.3,0.2-0.5v-3.4c0-0.2-0.1-0.4-0.2-0.5
		c-0.1-0.1-0.3-0.2-0.5-0.2h-8.6v-2h6.8c0.2,0,0.3-0.1,0.5-0.2c0.1-0.1,0.2-0.3,0.2-0.5v-3.3c0-0.2-0.1-0.4-0.2-0.5
		c-0.1-0.1-0.3-0.2-0.5-0.2h-6.8v-1.9h8c0.2,0,0.4-0.1,0.5-0.2s0.2-0.3,0.2-0.5V64c0-0.2-0.1-0.4-0.2-0.5
		C163.9,63.3,163.7,63.2,163.5,63.2"/>
</g>
<g>
	<path fill="#FFFFFF" d="M146.8,63.2h-4.6c-0.2,0-0.4,0.1-0.5,0.2c-0.1,0.1-0.2,0.3-0.2,0.5v8.7c-0.5-0.6-0.9-1.2-1.3-1.8
		c-0.4-0.6-0.9-1.2-1.3-1.8c-0.7-0.9-1.3-1.8-2-2.7c-0.6-0.9-1.3-1.8-2-2.7c0-0.1-0.1-0.1-0.2-0.2c-0.1-0.1-0.2-0.1-0.3-0.1H129
		c-0.2,0-0.4,0.1-0.5,0.2c-0.1,0.1-0.2,0.3-0.2,0.5V81c0,0.2,0.1,0.4,0.2,0.5c0.1,0.1,0.3,0.2,0.5,0.2h4.6c0.2,0,0.4-0.1,0.5-0.2
		c0.1-0.1,0.2-0.3,0.2-0.5v-8.6l6.7,9c0.1,0.1,0.2,0.1,0.3,0.2c0.1,0.1,0.2,0.1,0.3,0.1h5.2c0.2,0,0.4-0.1,0.5-0.2
		c0.1-0.1,0.2-0.3,0.2-0.5V64c0-0.2-0.1-0.4-0.2-0.5C147.1,63.3,147,63.2,146.8,63.2"/>
</g>
<g>
	<path fill="#FFFFFF" d="M126,63.2h-4.4c-0.2,0-0.3,0.1-0.4,0.2c-0.1,0.1-0.2,0.3-0.2,0.5V81c0,0.2,0.1,0.4,0.2,0.5
		c0.1,0.1,0.3,0.2,0.4,0.2h4.4c0.2,0,0.3-0.1,0.4-0.2c0.1-0.1,0.2-0.3,0.2-0.5V64c0-0.2-0.1-0.4-0.2-0.5
		C126.3,63.3,126.1,63.2,126,63.2"/>
</g>
<g>
	<path fill="#FFFFFF" d="M105.5,67.4L105.5,67.4h3.7c0.9,0,1.5,0.1,2,0.4c0.5,0.3,0.7,0.7,0.7,1.3c0,0.7-0.3,1.2-0.9,1.4
		c-0.6,0.3-1.5,0.4-2.6,0.4h-2.8v-3.5H105.5z M111.6,63.2H99.7c-0.2,0-0.4,0.1-0.5,0.2c-0.1,0.1-0.2,0.3-0.2,0.5v17.2
		c0,0.2,0.1,0.4,0.2,0.5c0.1,0.1,0.3,0.2,0.5,0.2h5.2c0.2,0,0.4-0.1,0.5-0.2c0.1-0.1,0.2-0.3,0.2-0.5v-5.9h2.3c0.8,0,1.3,0,1.5,0.1
		c0.1,0,0.2,0.1,0.2,0.2c0.1,0.1,0.1,0.2,0.2,0.2l0,0l3,5.7c0.1,0.1,0.2,0.2,0.3,0.3c0.1,0.1,0.2,0.1,0.4,0.1h6
		c0.3,0,0.5-0.1,0.6-0.3c0.1-0.1,0.1-0.2,0.1-0.3c0-0.1,0-0.3-0.1-0.4l-3.2-5.5c-0.2-0.3-0.5-0.6-0.9-0.9c-0.4-0.3-0.8-0.6-1.3-0.9
		c0.4-0.1,0.8-0.3,1.2-0.5c0.4-0.2,0.7-0.4,0.9-0.6c1.1-0.8,1.6-2.1,1.6-3.9c0-1.6-0.7-2.8-2-3.8C115.2,63.7,113.6,63.2,111.6,63.2"
		/>
</g>
<g>
	<path fill="#FFFFFF" d="M83.8,74.9l2.2-4.1l2.1,4.1H83.8z M88.6,63.2h-4.1c-0.1,0-0.2,0-0.4,0.1c-0.1,0.1-0.2,0.2-0.3,0.3
		l-9.7,17.1C74,80.8,74,81,74,81.1s0,0.2,0.1,0.3c0.1,0.2,0.4,0.3,0.7,0.3h4.8c0.1,0,0.2,0,0.4-0.1c0.1-0.1,0.2-0.2,0.3-0.3l1.2-2.3
		h8.9l1.2,2.3c0,0.1,0.1,0.2,0.3,0.3c0.1,0.1,0.3,0.1,0.4,0.1h5.6c0.3,0,0.5-0.1,0.7-0.3c0.1-0.1,0.1-0.2,0.1-0.3
		c0-0.1,0-0.2-0.1-0.4l-9.4-17.1c-0.1-0.1-0.2-0.2-0.3-0.3C88.8,63.3,88.7,63.2,88.6,63.2"/>
</g>
<g>
	<path fill="#FFFFFF" d="M72.4,63.2h-5.6c-0.1,0-0.2,0-0.4,0.1c-0.1,0.1-0.2,0.2-0.3,0.2L60,73.6l-6.2-10.1c0-0.1-0.1-0.2-0.3-0.2
		c-0.1-0.1-0.2-0.1-0.3-0.1h-5.6c-0.2,0-0.4,0.1-0.5,0.2c-0.1,0.1-0.2,0.3-0.2,0.5V81c0,0.2,0.1,0.4,0.2,0.5
		c0.1,0.1,0.3,0.2,0.5,0.2h4.7c0.2,0,0.4-0.1,0.5-0.2c0.1-0.1,0.2-0.3,0.2-0.5v-9.2l5.1,9.5c0.1,0.1,0.2,0.2,0.3,0.3
		c0.1,0.1,0.2,0.1,0.4,0.1h2.2c0.1,0,0.2,0,0.4-0.1c0.1-0.1,0.2-0.2,0.3-0.3l5.1-9.6V81c0,0.2,0.1,0.4,0.2,0.5
		c0.1,0.1,0.3,0.2,0.5,0.2h4.7c0.2,0,0.4-0.1,0.5-0.2c0.1-0.1,0.2-0.3,0.2-0.5V64c0-0.2-0.1-0.4-0.2-0.5
		C72.8,63.3,72.6,63.2,72.4,63.2"/>
</g>
<g>
	<path fill="#FFFFFF" d="M275.1,77.1h-2.9c-0.2,0-0.3,0.1-0.4,0.2c-0.1,0.1-0.2,0.2-0.2,0.4v3.4c0,0.2,0.1,0.3,0.2,0.4
		c0.1,0.1,0.2,0.2,0.4,0.2h2.9c0.2,0,0.3-0.1,0.4-0.2c0.1-0.1,0.2-0.2,0.2-0.4v-3.4c0-0.2-0.1-0.3-0.2-0.4
		C275.4,77.2,275.2,77.1,275.1,77.1"/>
</g>
<g>
	<path fill="#FFFFFF" d="M320.4,95H39.6c-8.5,0-8.6-8.5-8.6-8.6V31.6c0-8.5,8.5-8.6,8.6-8.6h280.8c8.5,0,8.6,8.5,8.6,8.6v54.8
		C328.9,94.9,320.5,95,320.4,95z M39.6,24.1c-0.3,0-7.5,0.1-7.5,7.5v54.8c0,0.3,0.1,7.5,7.5,7.5h280.8l0,0c0.3,0,7.5-0.1,7.5-7.5
		V31.6c0-0.3-0.1-7.5-7.5-7.5C320.4,24.1,39.6,24.1,39.6,24.1z"/>
</g>
<g>
	<rect x="31" y="23" fill="none" width="297.9" height="72"/>
</g>
</svg>
