<?xml version="1.0" encoding="utf-8"?>
<!-- Generator: Adobe Illustrator 17.1.0, SVG Export Plug-In . SVG Version: 6.00 Build 0)  -->
<!DOCTYPE svg PUBLIC "-//W3C//DTD SVG 1.1//EN" "http://www.w3.org/Graphics/SVG/1.1/DTD/svg11.dtd">
<svg version="1.1" id="Layer_1" xmlns="http://www.w3.org/2000/svg" xmlns:xlink="http://www.w3.org/1999/xlink" x="0px" y="0px"
	 viewBox="0 0 70 70" enable-background="new 0 0 70 70" xml:space="preserve">
<g>
	<defs>
		<rect id="SVGID_1_" x="14" y="20.3" width="40.3" height="30.7"/>
	</defs>
	<clipPath id="SVGID_2_">
		<use xlink:href="#SVGID_1_"  overflow="visible"/>
	</clipPath>
	<path clip-path="url(#SVGID_2_)" fill="#395090" d="M30.7,49h-2.2c-0.8,0-1.4-0.7-1.4-1.6c0-0.5,0.2-0.9,0.5-1.2l4.1,0
		c0.3,0.3,0.5,0.7,0.5,1.2C32.1,48.3,31.5,49,30.7,49 M39,21.2c-0.2-0.6-0.8-1-1.4-0.8c-0.6,0.2-0.9,0.9-0.7,1.6l0.4,1.3l-0.1,0.1
		l2.7,8.8c0.1,0.3,0,0.7-0.3,0.9l0.1,0.4L17,44.6l-0.7-2.2l-0.3-1c-0.2-0.6-0.8-0.9-1.3-0.7c-0.5,0.2-0.8,0.9-0.6,1.5l1.8,5.8
		c0.1,0.5,0.5,0.8,1,0.8c0.1,0,0.2,0,0.3-0.1c0.5-0.2,0.8-0.9,0.6-1.5l-0.3-1l8,0c-0.1,0.4-0.2,0.8-0.2,1.2c0,2,1.4,3.6,3.2,3.6h2.2
		c1.8,0,3.2-1.6,3.2-3.6c0-0.4-0.1-0.8-0.2-1.2l10.7,0l0.7,2.2c0.2,0.5,0.6,0.8,1,0.8c0.1,0,0.2,0,0.4-0.1c0.6-0.2,0.9-0.9,0.7-1.6
		L39,21.2z"/>
</g>
<polygon fill="#395090" points="18.1,42.6 37.5,29 36.1,24.4 17.6,41.1 18.1,42.6 "/>
<g>
	<defs>
		<rect id="SVGID_3_" x="14" y="20.3" width="40.3" height="30.7"/>
	</defs>
	<clipPath id="SVGID_4_">
		<use xlink:href="#SVGID_3_"  overflow="visible"/>
	</clipPath>
	<path clip-path="url(#SVGID_4_)" fill="#395090" d="M54.3,33c0-0.1,0-0.2,0-0.4l0-0.3c-0.1-0.5-0.2-1-0.3-1.4
		c-0.6-1.8-1.7-3.4-3.1-4.4c-1.4-1-3.1-1.4-4.6-1.1c1.5,0.6,2.7,1.5,3.6,2.6c1,1.1,1.7,2.4,2.1,3.7c0.1,0.3,0.2,0.7,0.3,1l0.1,0.3
		c0,0.1,0,0.2,0,0.3c0,0.2,0,0.4,0.1,0.6c0.1,0.7,0.1,1.5,0,2.3c-0.2,1.5-0.6,3.1-1.4,4.6c1.4-0.8,2.5-2.4,3-4.2
		c0.3-0.9,0.4-1.9,0.4-2.8C54.3,33.5,54.3,33.2,54.3,33"/>
	<path clip-path="url(#SVGID_4_)" fill="#395090" d="M50.5,33.5l0-0.2c0-0.3-0.1-0.6-0.2-0.8c-0.3-1.1-1-2-1.8-2.6
		c-0.8-0.6-1.8-0.8-2.7-0.6c0.9,0.4,1.6,0.9,2.1,1.5c0.6,0.6,1,1.4,1.2,2.2c0.1,0.2,0.1,0.4,0.2,0.6l0.1,0.3l0,0.3
		c0,0.4,0,0.9,0,1.3c-0.1,0.9-0.4,1.8-0.8,2.7c0.8-0.5,1.5-1.4,1.8-2.4c0.2-0.5,0.2-1.1,0.2-1.7c0-0.1,0-0.3,0-0.4L50.5,33.5z"/>
</g>
</svg>
