<?xml version="1.0" encoding="utf-8"?>
<!-- Generator: Adobe Illustrator 17.1.0, SVG Export Plug-In . SVG Version: 6.00 Build 0)  -->
<!DOCTYPE svg PUBLIC "-//W3C//DTD SVG 1.1//EN" "http://www.w3.org/Graphics/SVG/1.1/DTD/svg11.dtd">
<svg version="1.1" id="Layer_1" xmlns="http://www.w3.org/2000/svg" xmlns:xlink="http://www.w3.org/1999/xlink" x="0px" y="0px"
	 width="41px" height="41px" viewBox="0 0 41 41" enable-background="new 0 0 41 41" xml:space="preserve">
<path fill="#394F8F" d="M22,22c-2.2,2.2-5.9,2.2-8.1,0c-2.2-2.2-2.2-5.9,0-8.1c2.2-2.2,5.9-2.2,8.1,0S24.3,19.8,22,22 M23.9,12
	c-3.3-3.3-8.7-3.3-12,0s-3.3,8.7,0,12c3,3,7.7,3.3,11,0.8l2.6,2.6l1.8-1.8L24.8,23C27.2,19.7,26.9,15,23.9,12"/>
<rect x="27.9" y="27.1" transform="matrix(0.7071 -0.7071 0.7071 0.7071 -12.077 29.157)" fill="#394F8F" width="2.5" height="4.1"/>
</svg>
