<?xml version="1.0" encoding="utf-8"?>
<!DOCTYPE svg PUBLIC "-//W3C//DTD SVG 1.1//EN" "http://www.w3.org/Graphics/SVG/1.1/DTD/svg11.dtd">
<svg version="1.1" xmlns="http://www.w3.org/2000/svg" xmlns:xlink="http://www.w3.org/1999/xlink" width="71px" height="71px" viewBox="-2.5 55 71 71">
<path fill="#642200" d="M37.5,70c-11.046,0-20,8.954-20,20.001c0,11.045,8.954,19.999,20,19.999c11.047,0,20-8.954,20-19.999
	C57.5,78.954,48.547,70,37.5,70z M43.468,96.78c-0.354,0.744-0.849,1.381-1.478,1.907c-0.631,0.528-1.372,0.93-2.225,1.206
	c-0.069,0.023-0.143,0.031-0.211,0.051v3.33h-2.869v-2.978c-1.094-0.015-2.096-0.106-2.975-0.3
	c-0.966-0.209-1.669-0.383-2.108-0.516l0.258-3.902c0.708,0.267,1.396,0.539,2.066,0.815c0.669,0.278,1.444,0.417,2.324,0.417
	c0.361,0,0.72-0.041,1.075-0.141c0.352-0.093,0.668-0.239,0.945-0.427c0.277-0.191,0.497-0.439,0.659-0.746
	c0.163-0.306,0.245-0.661,0.245-1.062c0-0.651-0.197-1.163-0.589-1.534c-0.392-0.374-0.879-0.699-1.462-0.978
	c-0.583-0.276-1.214-0.556-1.892-0.832c-0.679-0.277-1.311-0.646-1.894-1.105c-0.584-0.458-1.071-1.056-1.464-1.795
	c-0.392-0.735-0.588-1.696-0.588-2.884c0-0.095,0.014-0.306,0.043-0.631s0.115-0.698,0.258-1.119
	c0.144-0.422,0.359-0.867,0.646-1.336c0.287-0.468,0.689-0.893,1.205-1.275c0.517-0.384,1.162-0.703,1.937-0.963
	c0.391-0.131,0.829-0.229,1.311-0.293v-2.239h2.869v2.209c0.36,0.037,0.718,0.082,1.069,0.136c0.373,0.058,0.741,0.129,1.105,0.216
	c0.363,0.086,0.765,0.178,1.204,0.273l-0.2,3.73c-0.555-0.287-1.196-0.532-1.924-0.732c-0.727-0.201-1.406-0.3-2.036-0.3
	c-0.766,0-1.403,0.176-1.909,0.53c-0.507,0.354-0.761,0.905-0.761,1.649c0,0.614,0.196,1.098,0.588,1.451
	c0.393,0.354,0.882,0.67,1.463,0.946c0.584,0.278,1.212,0.561,1.892,0.847c0.678,0.288,1.31,0.667,1.895,1.134
	c0.582,0.47,1.07,1.07,1.462,1.809c0.393,0.737,0.589,1.699,0.595,2.877C43.999,95.184,43.819,96.035,43.468,96.78z"/>
</svg>
