<?xml version="1.0" encoding="utf-8"?>
<!DOCTYPE svg PUBLIC "-//W3C//DTD SVG 1.1//EN" "http://www.w3.org/Graphics/SVG/1.1/DTD/svg11.dtd">
<svg version="1.1" id="Layer_1" xmlns="http://www.w3.org/2000/svg" xmlns:xlink="http://www.w3.org/1999/xlink" width="71px" height="71px" viewBox="-2.5 55 71 71">
<path fill="#642200" d="M37.5,70c-11.045,0-20,8.955-20,19.999c0,11.047,8.955,20.001,20,20.001c11.045,0,20-8.954,20-20.001C57.5,78.955,48.545,70,37.5,70z M39.998,94.592c-1.29,0.896-2.848,1.428-4.53,1.428c-4.394,0-7.968-3.598-7.968-8.02c0-4.424,3.574-8.021,7.968-8.021c4.393,0,7.967,3.6,7.967,8.021c0,1.616-0.48,3.118-1.301,4.378l3.145,3.166l-2.169,2.181L39.998,94.592z M45.711,100.343l-2.166-2.183l2.166-2.179l2.167,2.179L45.711,100.343z M35.469,82.884c-2.803,0-5.083,2.296-5.083,5.116s2.28,5.117,5.083,5.117c2.801,0,5.082-2.297,5.082-5.117S38.271,82.884,35.469,82.884z"/>
</svg>
