<?xml version="1.0" encoding="utf-8"?>
<!DOCTYPE svg PUBLIC "-//W3C//DTD SVG 1.1//EN" "http://www.w3.org/Graphics/SVG/1.1/DTD/svg11.dtd">
<svg version="1.1" id="tickets" xmlns="http://www.w3.org/2000/svg" width="80px" height="69px" viewBox="0 0 71 71" xml:space="preserve"><defs><style>.cls-1{fill:#642200;}</style></defs><title>nc-icon-tickets3</title><path class="cls-1" d="M35.5,14.5a20,20,0,1,0,20,20A20.06,20.06,0,0,0,35.5,14.5Zm-7.9,6.2h0.9a0.4,0.4,0,1,0,.8,0h1a0.4,0.4,0,1,0,.8,0h1a0.4,0.4,0,0,0,.8,0h1a0.43,0.43,0,0,0,.4.4,0.37,0.37,0,0,0,.4-0.4h1a0.4,0.4,0,1,0,.8,0h0.9a2.11,2.11,0,0,0,2.1,2.1v2.4L38.8,25l-0.7-.2H38l-0.9-.2-0.7-.2H36.3l-0.9-.2L34.7,24l-0.2,1a0.85,0.85,0,0,1-.7.7,1.27,1.27,0,0,1-.6.1H32.9l-0.7-.2L28.7,42.8l-0.1.1H28.5a0.1,0.1,0,0,1-.1.1H27.5a2.11,2.11,0,0,0-2.1-2.1V22.8A2.08,2.08,0,0,0,27.6,20.7ZM43.2,47.6H42.8a2,2,0,0,0-2,1.7L39.9,49a0.37,0.37,0,0,0-.1-0.3,0.76,0.76,0,0,0-.4-0.2c-0.1,0-.2,0-0.2.1a0.53,0.53,0,0,0-.2.3l-0.9-.2a0.51,0.51,0,0,0-.4-0.5H37.6a0.43,0.43,0,0,0-.4.4l-0.9-.2a0.38,0.38,0,0,0-.3-0.5H35.9a0.43,0.43,0,0,0-.4.4L34.6,48a0.38,0.38,0,0,0-.3-0.5H34.2a0.43,0.43,0,0,0-.4.4l-0.9-.2a0.37,0.37,0,0,0-.1-0.3,0.52,0.52,0,0,0-.4-0.2c-0.1,0-.2,0-0.2.1a0.53,0.53,0,0,0-.2.3l-0.9-.2A2,2,0,0,0,29.5,45l3.7-18h0.4a2,2,0,0,0,2-1.7l0.9,0.2a0.76,0.76,0,0,0,.1.4,0.53,0.53,0,0,0,.3.2H37c0.1,0,.2,0,0.2-0.1a0.53,0.53,0,0,0,.2-0.3l0.9,0.2a0.51,0.51,0,0,0,.4.5h0.1a0.43,0.43,0,0,0,.4-0.4l0.9,0.2a0.51,0.51,0,0,0,.4.5h0.1a0.43,0.43,0,0,0,.4-0.4l0.9,0.2a0.38,0.38,0,0,0,.3.5h0.1a0.43,0.43,0,0,0,.4-0.4l0.9,0.2a0.37,0.37,0,0,0,.1.3,0.53,0.53,0,0,0,.3.2h0.1c0.1,0,.2,0,0.2-0.1a0.53,0.53,0,0,0,.2-0.3l0.9,0.2A2,2,0,0,0,47,29.5Z"/></svg>