<?xml version="1.0" encoding="utf-8"?>
<!-- Generator: Adobe Illustrator 17.1.0, SVG Export Plug-In . SVG Version: 6.00 Build 0)  -->
<!DOCTYPE svg PUBLIC "-//W3C//DTD SVG 1.1//EN" "http://www.w3.org/Graphics/SVG/1.1/DTD/svg11.dtd">
<svg version="1.1" xmlns="http://www.w3.org/2000/svg" xmlns:xlink="http://www.w3.org/1999/xlink" x="0px" y="0px" width="320px"
	 height="100px" viewBox="0 0 320 100" enable-background="new 0 0 320 100" xml:space="preserve">
<g id="Layer_3">
</g>
<g id="Layer_5">
	<g id="Layer_2">
	</g>
</g>
<g id="Layer_1">
</g>
<g id="Layer_4">
	<g>
		<path fill="#622800" d="M103.8,33.4h4.6l7.1,14h0.1v-14h3.6v18.8h-4.6l-7.2-14h-0.1v14h-3.6V33.4z"/>
		<path fill="#622800" d="M122.7,39.1c1.4-0.6,3.3-1,4.8-1c4.2,0,6,1.7,6,5.8v1.8c0,1.4,0,2.4,0.1,3.5c0,1,0.1,2,0.2,3.1h-3.2
			c-0.1-0.7-0.1-1.6-0.2-2.1h-0.1c-0.8,1.5-2.6,2.4-4.3,2.4c-2.4,0-4.8-1.5-4.8-4.1c0-2.1,1-3.3,2.4-4c1.4-0.7,3.1-0.8,4.6-0.8h2
			c0-2.2-1-3-3.1-3c-1.5,0-3.1,0.6-4.3,1.5L122.7,39.1z M126.9,49.9c1.1,0,2-0.5,2.5-1.2c0.6-0.8,0.8-1.8,0.8-2.8h-1.6
			c-1.6,0-4,0.3-4,2.4C124.6,49.4,125.6,49.9,126.9,49.9z"/>
		<path fill="#622800" d="M136,38.3h3.2v3.1h0.1c0.2-1.3,1.6-3.5,3.8-3.5c0.3,0,0.7,0,1.1,0.1v3.6c-0.3-0.2-1-0.3-1.6-0.3
			c-2.9,0-2.9,3.7-2.9,5.6v5.1H136V38.3z"/>
		<path fill="#622800" d="M145.5,39.1c1.4-0.6,3.3-1,4.8-1c4.2,0,6,1.7,6,5.8v1.8c0,1.4,0,2.4,0.1,3.5c0,1,0.1,2,0.2,3.1h-3.2
			c-0.1-0.7-0.1-1.6-0.2-2.1h-0.1c-0.8,1.5-2.6,2.4-4.3,2.4c-2.4,0-4.8-1.5-4.8-4.1c0-2.1,1-3.3,2.4-4c1.4-0.7,3.1-0.8,4.6-0.8h2
			c0-2.2-1-3-3.1-3c-1.5,0-3.1,0.6-4.3,1.5L145.5,39.1z M149.7,49.9c1.1,0,2-0.5,2.5-1.2c0.6-0.8,0.8-1.8,0.8-2.8h-1.6
			c-1.6,0-4,0.3-4,2.4C147.4,49.4,148.4,49.9,149.7,49.9z"/>
		<path fill="#622800" d="M167.8,41.3c-0.6-0.3-1.3-0.5-2.4-0.5c-2.2,0-3.7,1.8-3.7,4.4c0,2.6,1.2,4.5,3.7,4.5c1,0,2.1-0.4,2.8-0.6
			l0.2,3c-1,0.3-2.1,0.5-3.6,0.5c-4.5,0-6.8-3.1-6.8-7.3c0-4,2.4-7.2,6.7-7.2c1.5,0,2.5,0.2,3.5,0.5L167.8,41.3z"/>
		<path fill="#622800" d="M175.8,38c4.1,0,7.3,2.8,7.3,7.3c0,4-2.7,7.1-7.3,7.1c-4.6,0-7.2-3.2-7.2-7.1
			C168.6,40.8,171.8,38,175.8,38z M175.8,49.7c2.8,0,3.5-2.5,3.5-4.8c0-2.1-1.1-4.1-3.5-4.1c-2.3,0-3.5,2-3.5,4.1
			C172.4,47.2,173.1,49.7,175.8,49.7z"/>
		<path fill="#622800" d="M191.3,38c4.1,0,7.3,2.8,7.3,7.3c0,4-2.7,7.1-7.3,7.1c-4.6,0-7.2-3.2-7.2-7.1
			C184.1,40.8,187.2,38,191.3,38z M191.3,49.7c2.8,0,3.5-2.5,3.5-4.8c0-2.1-1.1-4.1-3.5-4.1c-2.3,0-3.5,2-3.5,4.1
			C187.8,47.2,188.5,49.7,191.3,49.7z"/>
		<path fill="#622800" d="M200.3,38.3h3.2v3.1h0.1c0.2-1.3,1.6-3.5,3.8-3.5c0.3,0,0.7,0,1.1,0.1v3.6c-0.3-0.2-1-0.3-1.6-0.3
			c-2.9,0-2.9,3.7-2.9,5.6v5.1h-3.6V38.3z"/>
		<path fill="#622800" d="M211.5,41h-2.7v-2.6h2.7v-2.8l3.6-1.2v3.9h3.2V41h-3.2v6.4c0,1.2,0.3,2.3,1.7,2.3c0.6,0,1.3-0.1,1.6-0.4
			l0.1,2.8c-0.8,0.2-1.6,0.3-2.7,0.3c-2.8,0-4.4-1.7-4.4-4.5V41z"/>
		<path fill="#622800" d="M230.7,51.4c-1.3,0.7-2.8,1.1-4.8,1.1c-4.6,0-7.2-2.6-7.2-7.2c0-4,2.1-7.3,6.4-7.3c5.1,0,6.6,3.5,6.6,8.4
			h-9.6c0.2,2.2,1.7,3.5,4,3.5c1.7,0,3.3-0.6,4.6-1.4V51.4z M228.3,43.9c-0.1-1.7-0.9-3.3-2.9-3.3s-3,1.4-3.2,3.3H228.3z"/>
	</g>
	<g>
		<path fill="#B7814F" d="M117,58.6c-0.6-0.3-1.3-0.5-2-0.7c-0.8-0.1-1.5-0.1-2.2-0.1c-2.4,0-4.3,0.8-5.6,2.3c-1.3,1.5-2,3.4-2,5.8
			c0,2.4,0.7,4.3,2,5.8c1.3,1.5,3.2,2.3,5.6,2.3c0.6,0,1.4-0.1,2.2-0.2c0.8-0.1,1.5-0.3,2-0.6l0.1,1.6c-0.6,0.3-1.2,0.5-2.1,0.6
			c-0.8,0.1-1.6,0.2-2.2,0.2c-3,0-5.3-0.9-6.9-2.7c-1.7-1.7-2.5-4.1-2.5-7c0-2.9,0.9-5.2,2.6-7c1.7-1.8,4-2.7,6.9-2.7
			c0.6,0,1.4,0,2.2,0.1c0.9,0.1,1.5,0.3,2.1,0.6L117,58.6z"/>
		<path fill="#B7814F" d="M127.9,73L127.9,73c-0.4,0.8-1,1.4-1.9,1.9c-0.8,0.4-1.7,0.7-2.6,0.7c-1,0-1.7-0.2-2.3-0.5
			c-0.6-0.3-1.1-0.6-1.4-1c-0.6-0.9-0.8-1.7-0.8-2.4c0-1.1,0.3-2.1,0.8-2.7c0.5-0.7,1.2-1.1,2.1-1.4c0.8-0.3,1.8-0.5,2.7-0.6
			c1-0.1,1.9-0.1,2.8-0.1h0.3v-0.7c0.1-2.3-1-3.5-3.1-3.5c-1.4,0-2.8,0.4-4,1.1v-1.6c1.3-0.6,2.6-0.9,4-1c3.2,0,4.8,1.7,4.8,5.1v6
			c0,1,0,2,0.1,2.9h-1.7V73z M127.7,68.3h-0.5c-0.7,0-1.5,0-2.2,0.1c-0.8,0.1-1.5,0.2-2.1,0.5c-0.6,0.2-1.1,0.5-1.5,1
			c-0.4,0.4-0.6,1-0.6,1.8c0,0.9,0.3,1.5,0.9,1.9c0.5,0.4,1.2,0.6,2,0.6c1,0,1.8-0.2,2.3-0.6c0.6-0.4,1-0.8,1.2-1.3
			c0.3-0.6,0.4-1.1,0.5-1.6c0-0.6,0.1-1,0.1-1.4V68.3z"/>
		<path fill="#B7814F" d="M136.7,75.2h-2l-4.6-13.7h1.9l3.8,11.9h0.1l4-11.9h1.8L136.7,75.2z"/>
		<path fill="#B7814F" d="M151.6,74.8c-1.3,0.5-2.6,0.7-4,0.8c-2.2,0-3.8-0.7-4.8-2.1c-1-1.3-1.4-3-1.4-5.1c0-2.1,0.6-3.9,1.6-5.2
			c1-1.3,2.4-2,4.2-2c1.9,0,3.3,0.7,4.2,2c0.8,1.3,1.3,2.9,1.3,4.8v0.9h-9.4c0,1.5,0.4,2.7,1.2,3.7c0.8,1,1.9,1.5,3.4,1.6
			c0.7,0,1.4-0.1,2.1-0.3c0.7-0.2,1.3-0.4,1.7-0.7V74.8z M150.8,67.4c0-1.3-0.3-2.3-0.8-3.3c-0.6-0.9-1.5-1.4-2.7-1.5
			c-1.2,0-2.2,0.5-2.9,1.5c-0.7,1-1.1,2.1-1.1,3.3H150.8z"/>
		<path fill="#B7814F" d="M157.2,74.1c0.8,0,1.6-0.2,2.1-0.7c0.6-0.4,0.9-1,0.9-1.8c0-0.8-0.3-1.4-1-1.9c-0.6-0.4-1.4-0.9-2.3-1.2
			c-0.4-0.2-0.8-0.4-1.2-0.6c-0.4-0.2-0.7-0.5-1.1-0.7c-0.3-0.3-0.6-0.6-0.8-1c-0.2-0.4-0.3-0.8-0.3-1.3c0-1.4,0.5-2.3,1.4-2.9
			c0.9-0.6,1.9-0.8,3.1-0.8c0.4,0,0.9,0,1.5,0.1c0.6,0.1,1.2,0.3,1.9,0.5l-0.2,1.5c-1-0.4-2-0.6-3-0.6c-0.9,0-1.6,0.2-2.1,0.5
			c-0.3,0.2-0.5,0.4-0.6,0.7c-0.2,0.3-0.2,0.7-0.2,1.1c0,0.3,0.1,0.6,0.3,0.8c0.2,0.2,0.5,0.4,0.8,0.6c0.3,0.2,0.7,0.4,1.1,0.6
			c0.4,0.2,0.8,0.4,1.2,0.6c0.9,0.4,1.7,0.9,2.3,1.5c0.7,0.6,1,1.5,1,2.6c0,0.7-0.1,1.3-0.4,1.8c-0.3,0.5-0.7,0.9-1.2,1.2
			c-1,0.6-2.1,0.9-3.2,0.9c-1.3,0-2.6-0.2-3.8-0.6l0.2-1.7C154.7,73.8,155.9,74.1,157.2,74.1z"/>
	</g>
	<g>
		<path fill="none" d="M75.8,60.4L76,46l0.1-3.7c-0.1-0.2-0.2-0.5-0.5-0.8L75.8,60.4z"/>
		<path fill="none" d="M67,36l0.5,7.8l0.5-7.5c-0.3-0.2-0.6-0.4-0.9-0.5L67,36z"/>
		<path fill="none" d="M79.2,59l0.2-14.4l0-1.1c-0.1-0.1-0.2-0.2-0.4-0.4L79.2,59z"/>
		<path fill="none" d="M60.3,35c0.6,4.7,1.2,8.5,1.2,8.5c0.1-0.2,0.2-3.8,0.1-8.3C61.3,35.2,60.8,35.2,60.3,35z"/>
		<path fill="none" d="M69.4,39l0.1-1.4c-0.1-0.1-0.2-0.2-0.3-0.3L69.4,39z"/>
		<path fill="none" d="M28.5,38.7C28.5,38.7,28.5,38.7,28.5,38.7C28.5,38.7,28.5,38.7,28.5,38.7C28.5,38.7,28.5,38.7,28.5,38.7z"/>
		<path fill="none" d="M63.2,35c-0.1,0-0.2,0-0.3,0c0,0,0,0-0.1,0c-0.1,0-0.2,0.1-0.4,0.1c-0.1,0-0.2,0.1-0.4,0.1l0.4,6.1l0.3-5.8
			c0.1-0.1,0.1-0.2,0.2-0.2l0.7,6.5l1.1,7.8l-0.1-7.7L64.3,35C64,35,63.6,35,63.2,35C63.3,35,63.3,35,63.2,35z"/>
		<path fill="none" d="M70.7,39c0.3,5.1,0.5,9.6,0.7,11.9c0.3,7.2,0.3,5.8,0.3,5.8l0.3-9c0,0,0-4.3,0-8.7C71.6,39,71.2,39,70.7,39z"
			/>
		<path fill="none" d="M33.3,54.5l0.2,0.1l0.1,0l0.1,0l0,0l0,0l0,0c0,0,0.1,0,0.1,0c0,0,0,0,0.1,0l0.1,0l0.2,0l0,0l0,0l0,0l0.1,0
			c0.1,0,0.1,0,0.2,0l0.5-0.4l0,0l0,0l0.1-0.1l0.1-0.1l0.2-0.2l1.1-1.4c0.1-0.1,0.2-0.3,0.2-0.4l0.2-0.4l0.5-0.8
			c0.2-0.3,0.3-0.5,0.5-0.8l0.5-0.8l0.9-1.6l0.2-0.6l0.2-0.6l0.5-1.3c0.1-0.2,0.1-0.3,0.2-0.5c-0.7,0.1-1.4,0.1-2,0.3
			c0,0-0.1,0.1-0.1,0.1l-1.8,2.8c0,0.1,0,0.2,0,0.2c0,0.3,0,0.5,0,0.8c0.1,0.3,0,0.6,0,0.8c-1,2.7-3.4,2.7-3.5,4.7
			c0.1,0,0.1,0,0.2,0L33.3,54.5z"/>
		<path fill="#622800" d="M83.5,51.5c0.2-0.7,0.4-1.4,0.6-2.2c0-0.1,0-0.1-0.1-0.1c-0.1-0.3-0.3-0.6-0.4-0.9
			c-0.1-0.1-0.1-0.2-0.2-0.3c-0.2-0.3-0.3-0.6-0.5-0.9c-0.2-0.4-0.3-0.8-0.5-1.3c-0.1-0.4-0.3-0.8-0.3-1.2L82,54.2l-0.1-12.3
			l-0.1-0.5c-0.4,0-0.7-0.2-1-0.4l0,1.9l-0.2,14.4l-0.1-16.8c-0.1-0.3-0.2-0.6-0.3-1c-0.1,0.4-0.3,0.5-0.4,0.8
			c-0.1-0.1-0.2-0.2-0.2-0.2l0,0.4c0.4,0.9,0.7,2,0.9,3.1l-0.1,1.2c0,0-0.3-0.6-0.8-1.2l0,1.1L79.2,59L79,43.1
			c-0.7-0.5-1.6-0.9-2.9-0.6c0,0,0-0.1-0.1-0.2L76,46l-0.2,14.4l-0.2-18.8C75,40.6,73.9,39.3,72,39c0,4.4,0,8.7,0,8.7l-0.3,9
			c0,0,0,1.4-0.3-5.8c-0.1-2.3-0.4-6.8-0.7-11.9c0,0-0.1,0-0.1,0c0,0-0.3-0.7-1.1-1.4L69.4,39l-0.2-1.8c-0.3-0.3-0.7-0.7-1.2-1
			l-0.5,7.5L67,36l0-0.2c-0.8-0.4-1.7-0.6-2.7-0.7l0.4,6.9l0.1,7.7l-1.1-7.8l-0.7-6.5c-0.1,0.1-0.1,0.2-0.2,0.2l-0.3,5.8L62,35.2
			c-0.1,0-0.2,0-0.3,0c0,4.5,0,8.1-0.1,8.3c0,0-0.6-3.8-1.2-8.5c-0.1,0-0.2-0.1-0.3-0.1c0,0-0.6-0.5-0.2-2c-0.2,0.1-0.5,0.3-0.7,0.6
			c-0.1,5.3-0.2,12.7-0.6,14.1c0,0-1.8-10.7-2.2-16.6c-0.2,0-0.5,0-0.7,0.1l-0.4,3.8L54.6,40l-0.5-8.3l-0.4,7.1l-0.5-7.8l-0.1-1
			c-0.3,0-0.6,0-0.8,0.2l-0.1,2.7l-0.4,6.8c0.5,0.9,0.6,2-0.1,2.7c0-0.1,0-0.1,0-0.2c0-0.3,0-0.6-0.1-1c-0.1-0.3-0.2-0.7-0.5-1
			c0,0,0,0-0.1-0.1c0,0,0,0,0-0.1L51,39.9l-0.2-0.1c-0.1-0.1-0.2-0.2-0.3-0.3c-0.3-0.2-0.6-0.4-0.9-0.5c-0.6-0.3-1.3-0.4-1.9-0.4
			c-0.7,0-1.3,0.1-1.9,0.3l0.1,0L45.2,39c-0.2,0.1-0.5,0.2-0.7,0.3c-0.2,0.1-0.5,0.2-0.7,0.4c-0.2,0.2-0.4,0.3-0.6,0.5
			c-0.4,0.3-0.7,0.7-1,1.1c-0.2,0.2-0.3,0.4-0.4,0.6c-0.1,0.2-0.2,0.4-0.4,0.6c-0.5,1-1.4,1.5-2.2,1.7c-0.9,0.3-1.8,0.5-2.7,0.3
			c-2.8-0.6-2.8-7.3-5.4-4.2c-0.2-0.9,1.5-2.6-0.2-3.1c-0.6,0-0.6,1.3-2,1.5c-0.1,0-0.2,0-0.3-0.1c0,0,0,0-0.1,0c0,0,0,0,0-0.1
			c-0.4-0.2-1-0.6-2.2,0.4c-1.8,2.2,0.1,4-3.4,4.8c0,0.1,0.1,0.2,0.1,0.3c0.3,0,0.7,0,1.1,0c0.2,0,0.4,0,0.6-0.1
			c0.6-0.1,1.2-0.4,1.9-0.9c0.6,0,0.6,1.7,0.6,2c0,0.2,0,0.3-0.1,0.5c0,0.2,0,0.4-0.1,0.6c0,0.2-0.1,0.4-0.1,0.7c0,0.3,0,0.5,0,0.8
			c0.1,1,0.4,1.9,0.8,2.8c0.1,0.2,0.3,0.5,0.4,0.7c1.8,1.5,0.7,4.3-0.3,5.9c-0.1,0.1-0.2,0.3-0.4,0.4l0,0c0,0,0,0,0,0l0,0l-0.1,0
			L27,57.5l-0.1,0c-0.2-0.1-0.4-0.1-0.6,0c-0.3,0.2-0.3,0.5-0.2,0.8l0.2,0.3l0.1,0.1l0,0.1l0.1,0.1l0,0.1c0,0.1,0,0,0.1,0.1l0.1,0.1
			l0.2,0.2l0,0c-0.2-0.1-0.4-0.2-0.7-0.3c-0.3-0.1-0.6-0.3-0.9-0.5c-0.3-0.2-0.6-0.3-0.9-0.5c0,0-0.1,0-0.1,0
			c-0.1,0-0.1,0.1-0.1,0.1l0.4,1.1l0.6,1.1c0.2,0.4,0.4,0.7,0.7,1l0.2,0.2l0.1,0.1l0.2,0.1l0.4,0.4c0.1,0.1,0.4,0.3,0.6,0.4l0.3,0.2
			l0.3,0.1c0.4,0.2,0.7,0.3,1.2,0.5l0.6,0.2c0.2,0.1,0.4,0.1,0.6,0.2c0.5,0.1,0.9,0.2,1.4,0.2c0.3,0,0.6,0,1-0.1
			c0,0.3,0.2,0.6,0.3,0.9c0.6,1.1,1.9,2.4,1.9,2.4l1.3,2.7c-0.8,1.2-1.6,2.3-2.6,3.3c2.8,0.6,5.6,1,8.3,1.6C41.6,74,42,71.9,42,71.4
			c0.1-1.3-0.2-2.7,0-4c0.1-1.3,1.2-2.3,1.2-3.5c0-1-0.6-1.7-0.2-2.8c0.2-0.7,0.6-1.4,1.1-2c0.5-0.7,1.6-1.1,2-1.9
			c0.6-1,0.2-2.2,1-3.1c0.2-0.2,0.4-0.4,0.6-0.5c0.1-0.4,0.1-0.8,0.2-1.1c-0.5-0.3-0.9-0.6-0.8-1c0,0,0,0,0,0c0,0,0.1-0.1,0.1-0.1
			l1-1.3c0.3-0.5,0.7-0.9,1-1.4c0.3-0.5,0.6-1,0.8-1.5l0.8-1.5c0.1-0.1,0.1-0.2,0.1-0.3c0.5,1.1,1.6,2.2,2.1,3.4
			c0.1,0.2,0.2,0.3,0.3,0.5c0.3,0.6,0.8,0.8,1.4,1.1c0.7-0.7,1.8-1.7,2.6-1.2c0,0-1,0.9-1.5,1.7c0.1,0,0.1,0.1,0.2,0.1
			c0.2,0.1,0.4,0.1,0.6,0.2c0.2,0.1,0.4,0.1,0.6,0.2c0.2,0.1,0.4,0.2,0.6,0.3c0.4-0.6,1.1-1.3,1.9-1.2c0,0-0.6,0.8-0.9,1.6
			c0.1,0,0.1,0,0.2,0.1c0.2,0.1,0.4,0.1,0.6,0.2c0.1,0,0.2,0.1,0.3,0.1c0.3-0.6,0.9-1.4,1.6-1.2c0,0-0.6,0.7-0.9,1.5
			c0.4,0.1,0.7,0.3,1.1,0.4c0.3-0.6,0.8-1.3,1.2-1.2c0,0-0.5,0.6-0.8,1.4c0.9,0.4,1.8,0.9,2.7,1.4c0.4,0.1,0.7,0.3,1,0.6
			c0.4,0.3,0.8,0.8,1,1.3c2.1,0.1,3.3,1.6,3.3,1.6c0.1,0.1,0.1,0.2,0.2,0.3c1.3,0.4,2.1,1.4,2.1,1.4c0.5,0.5,0.8,1,1.1,1.7
			c0.2,0.2,0.3,0.3,0.3,0.3c0.6,0.6,1,1.3,1.3,2.2c0.1,0.1,0.2,0.2,0.3,0.3c1.2,0.4,1.9,1.3,1.9,1.3c0.7,0.7,1.1,1.6,1.4,2.6
			c0,0,0,0,0,0c0.7-2.9,1.6-6,3.4-8.4c0.2-0.3,0.5-0.6,0.8-0.9c1.1-0.7,1.7-1.6,2.1-2.5C83.9,54.5,83,53.1,83.5,51.5
			C83.6,50.8,83,53.1,83.5,51.5z M36.5,49.8c0.1-0.3,0.1-0.5,0-0.8c0-0.3,0-0.5,0-0.8c0-0.1,0-0.2,0-0.2l1.8-2.8
			c0,0,0.1-0.1,0.1-0.1c0.6-0.3,1.4-0.2,2-0.3c-0.1,0.2-0.1,0.3-0.2,0.5l-0.5,1.3l-0.2,0.6l-0.2,0.6l-0.9,1.6l-0.5,0.8
			c-0.2,0.3-0.3,0.5-0.5,0.8l-0.5,0.8L36.9,52c-0.1,0.1-0.2,0.3-0.2,0.4l-1.1,1.4L35.4,54l-0.1,0.1l-0.1,0.1l0,0l0,0l-0.5,0.4
			c-0.1,0-0.1,0-0.2,0l-0.1,0l0,0l0,0l0,0l-0.2,0l-0.1,0c0,0-0.1,0-0.1,0c0,0-0.1,0-0.1,0l0,0l0,0l0,0l-0.1,0l-0.1,0l-0.2-0.1
			l-0.1,0c-0.1,0-0.1,0-0.2,0C33.1,52.5,35.6,52.5,36.5,49.8z M50.5,43.6c-0.1,0.5-0.3,1-0.6,1.5l-0.7,1.5c-0.2,0.5-0.5,1-0.8,1.5
			c-0.3,0.5-0.6,0.9-0.9,1.4l-1,1.4c-0.2,0.2-0.3,0.5-0.5,0.7c-0.2,0.2-0.4,0.4-0.5,0.6c-0.4,0.4-0.7,0.8-1.1,1.3l-1.2,1.2l-0.3,0.3
			l-0.3,0.3L42,55.6c-0.8,0.8-1.6,1.5-2.3,2.3c-0.3,0.2-0.6,0.5-0.9,0.7c-0.3,0.3-0.6,0.5-0.9,0.7c-0.3,0.2-0.6,0.5-0.9,0.7L36,60.8
			c-0.3,0.2-0.7,0.4-1,0.6l-0.3,0.1l-0.1,0l0,0l0,0l-0.1,0l-0.5,0.2L33.7,62l-0.1,0c0,0-0.1,0,0,0l0,0l-0.1,0
			c-0.2,0.1-0.3,0.1-0.5,0.2c-0.3,0.1-0.7,0.2-1,0.2c-0.3,0-0.7,0-1,0c-0.2,0-0.4-0.1-0.6-0.1l-0.6-0.1c-0.3-0.1-0.8-0.2-1.1-0.3
			l-0.3-0.1l-0.2-0.1c-0.2-0.1-0.3-0.1-0.5-0.2L27.2,61l-0.1,0l0,0l0,0l0,0c0,0,0,0,0,0l0,0L27,60.9l-0.2-0.2
			c-0.2-0.2-0.6-0.6-0.8-0.8l-0.7-0.9l-0.2-0.3c0.3,0.3,0.6,0.5,1,0.8c0.3,0.2,0.6,0.4,0.9,0.6c0.2,0.1,0.3,0.2,0.5,0.2
			c0.1,0,0.2,0.1,0.4,0.1c0.1,0,0.2,0,0.3,0c0.1,0,0.2-0.1,0.3-0.3l0,0c0.1-0.1,0.1-0.3,0-0.4c-0.1-0.1-0.1-0.2-0.2-0.3
			c0.2,0,0.3,0.1,0.5,0.1c0.6,0.1,1.2,0.1,1.8,0c0.6-0.1,1.2-0.3,1.7-0.6c0.3-0.2,0.5-0.3,0.8-0.6c0.3-0.2,0.5-0.5,0.7-0.8
			c0,0,0,0,0-0.1l0,0c0-0.1,0.1-0.2,0.1-0.3l0.1-0.2l0-0.1l0-0.1l0,0l0-0.1l0.2,0l0.1,0l0,0l0,0l0.1,0l0.2,0c0.2,0,0.5-0.1,0.7-0.1
			c0,0,0.1,0,0.1-0.1l0.1,0l0.7-0.4l0.1-0.1l0,0l0,0l0.1-0.1l0.2-0.2l0.4-0.3c0,0,0,0,0.1-0.1l0,0l1.3-1.6c0.1-0.1,0.2-0.3,0.3-0.4
			l0.3-0.4l0.5-0.8c0.2-0.3,0.3-0.6,0.5-0.9l0.5-0.9c0.3-0.6,0.6-1.2,0.9-1.7l0,0c0,0,0,0,0-0.1l0.2-0.6l0.2-0.7l0.4-1.3
			c0.3-0.8,0.6-1.7,0.9-2.4c0.1-0.2,0.2-0.4,0.3-0.5c0.1-0.2,0.2-0.4,0.3-0.5c0.2-0.3,0.5-0.6,0.7-0.9c0.1-0.1,0.3-0.3,0.4-0.4
			c0.1-0.1,0.3-0.2,0.5-0.3c0.2-0.1,0.3-0.2,0.5-0.3l0.5-0.2l0,0l0,0c0.2-0.1,0.5-0.2,0.7-0.2l0.3-0.1l0.3,0c0.5,0,1,0,1.4,0.2
			c0.2,0.1,0.4,0.2,0.6,0.3c0.1,0.1,0.2,0.2,0.3,0.2l0.2,0.1l0.1,0.1c0,0,0,0,0,0c0,0,0,0,0,0c0.2,0.2,0.3,0.7,0.3,1.2
			C50.7,42.5,50.6,43,50.5,43.6z"/>
		<path fill="#622800" d="M51.6,38.3l-0.3-5.4c0-0.7-0.2-2.8-1.1-3l-0.8,0.2l-0.7,3.2C50.5,34.5,51.3,36.7,51.6,38.3z"/>
		<path fill="#622800" d="M69.5,71.5c0.1-0.2,0.1-0.5,0.2-0.7c-0.1-0.6-0.1-1.2-0.4-1.7c-0.2-0.5-0.7-1-0.9-1.4
			c0-0.1-0.1-0.1-0.1-0.2c-0.1,0.5-0.1,1-0.3,1.5c-0.1,0.4-0.6,0.7-0.6,1.1c0,0.5,0.4,1,0.3,1.5c-0.1,0.4-0.6,0.7-0.8,0.9
			c-0.6,0.5-1.1,1.2-1,2.1c0.1,0.5,0.4,1.1,0.3,1.6c0,0,0,0,0,0c0,0,0.1,0.1,0.1,0.1c0.5,0.5,0.7,1.2,0.3,1.8c-0.4,0.7-1,1-1.6,1.4
			c0.3,0,0.6-0.1,0.9-0.1c0-0.1,0.1-0.2,0.1-0.2C68.2,76.5,69.5,71.5,69.5,71.5z"/>
		<path fill="#622800" d="M43.1,74.8c-0.1,0-0.1,0.1-0.2,0.1h0c0.3,0.1,0.5,0.1,0.8,0.2c0,0,0,0,0,0C43.5,74.8,43.4,74.7,43.1,74.8z
			"/>
		<path fill="#622800" d="M71.2,73.8c-0.2-0.4-0.6-0.9-0.8-1.4c0,0,0,0,0,0c-0.8,2.8-2.4,5.9-3,7.1c0.8-0.1,1.6-0.2,2.3-0.2
			c0.7-1.5,1.3-3.2,1.7-4.4C71.4,74.5,71.3,74.1,71.2,73.8z"/>
		<path fill="#622800" d="M60,60.2c-0.2-0.3-0.3-0.6-0.4-0.8c-0.1,0.9-0.3,1.8-0.4,2.5c0.3-0.5,0.7-1,1-1.5
			C60.1,60.3,60,60.3,60,60.2z"/>
		<path fill="#622800" d="M66.4,56.6c-0.1,0-0.2,0-0.3-0.1c0.2,0.2,0.5,0.3,0.7,0.6c0.7,0.6,1.1,1.5,1.6,2.3c0,0,0,0,0.1,0
			c0,0,0,0,0,0c0,0,0,0,0,0c0.1,0.1,0.2,0.3,0.3,0.4C67.9,58.2,66.9,57.2,66.4,56.6z"/>
		<path fill="#622800" d="M60.1,78.7c-0.2-0.7-0.5-1.3,0-1.9c0.2-0.2,0.6-0.5,1-0.5c0.5-0.7,1.4-0.7,1.6-1.7
			c0.2-0.8,0.3-1.4,0.2-2.2c-0.1-0.7-0.3-1.4-0.1-2.1c0.3-0.7,0.6-1.5,0.7-2.3c0.2-1.2,0.1-2.6,0.1-3.8c0-0.8-0.2-1.5-0.3-2.2
			c-0.3-0.2-0.7-0.3-1.1-0.4c-0.1,0-0.1,0-0.2-0.1c-0.3,2.5-0.9,5-1.7,7.4c-0.2,0.6-0.5,2.1-1.4,2.1c-0.6,0-0.6-0.6-0.5-1
			c0.4-1.1,0.8-2.2,1.1-3.4c0.3-1.2,0.6-2.5,0.8-3.8c-1.1,1.4-2,3.1-2.7,5c-1.1,3.1-1.9,6.1-1.9,6.1c-0.2,0.6-0.4,0.4-0.4,0.4
			C54.9,74,55,73.6,55,73.6c0.5-3.7,1.7-7,3-9.6c0,0-0.1,0-0.1,0c-0.5-0.1-0.4-0.8-0.4-0.8c0.4-2,0.6-3.6,0.5-4.8
			c-1.6,1.9-2.7,4.7-3.2,7.8c-0.6,3.4-0.8,6.5-0.8,6.5c-0.1,0.6-0.4,0.5-0.4,0.5c-0.4-0.1-0.4-0.5-0.4-0.5c-0.3-6.2,1.5-11.5,3-14.7
			c-0.4-0.2-0.8-0.5-1.2-0.8c-1.2,2-2,4.8-2.2,7.7c-0.3,3.4-0.2,6.6-0.2,6.6c-0.1,0.6-0.3,0.5-0.3,0.5c-0.4,0-0.4-0.5-0.4-0.5
			c-0.8-6.3,0.6-11.9,1.8-15.2c-0.4-0.1-0.8-0.3-1.1-0.6c-0.1-0.1-0.2-0.2-0.2-0.2c0,0,0,0,0,0.1c0.2,0.5,0.2,0.9,0.2,1.5
			c0,0.7-0.7,1-1.3,1.4c-0.4,1.8-0.6,3.7-0.5,5.7c0.1,3.5,0.6,6.6,0.6,6.6c0,0.6-0.2,0.5-0.2,0.5c-0.4,0-0.5-0.4-0.5-0.4
			c-1.1-4.2-1.1-8.2-0.7-11.5c-0.4,0.3-0.8,0.6-1.2,0.9c-0.1,0.1-0.2,0.2-0.3,0.3c0,1.1,0.1,2.2,0.3,3.3c0.5,3.5,1.3,6.5,1.3,6.5
			c0.1,0.6-0.2,0.6-0.2,0.6c-0.4,0.1-0.5-0.4-0.5-0.4c-1.1-3-1.7-6-1.9-8.7c-0.9,1.3-1.8,3-1.9,4.4c-0.1,1.6,0.8,3.3,1.3,4.8
			c0.5,1.7,1.1,3.7,1,5.5c0,0,0,0-0.1,0c0,0,0,0,0,0c0.7,0.3,1.4,0.6,2.1,0.9c1.3,0.6,2.7,1,4.1,1.4c1.4,0.4,2.8,0.7,4.2,1
			c0.7,0.1,1.4,0.2,2.1,0.3c0-0.3-0.1-0.6-0.1-0.9C60.1,79,60.1,78.8,60.1,78.7z"/>
		<path fill="#622800" d="M74.6,76.6c-0.2,0.1-0.4,0.1-0.7,0c-0.2,0.7-0.5,1.4-0.8,2.2c0.3,0,0.6-0.1,0.9-0.1
			c0.3-0.9,0.5-1.6,0.5-1.6C74.6,77,74.6,76.8,74.6,76.6z"/>
		<path fill="#622800" d="M72.2,76c-0.4,1.1-0.9,2.2-1.3,3.1c0.4,0,0.8-0.1,1.1-0.1c0.4-1,0.7-1.9,0.9-2.6
			C72.6,76.3,72.4,76.2,72.2,76z"/>
		<path fill="#622800" d="M76.4,72.7c0.1,0.1,0,0.3-0.1,0.6c0,0,0,0,0,0c0,0.3-0.1,0.6-0.2,0.9c0.3,0,0.6-0.1,0.9-0.1
			c-0.6-0.3-0.4,1-0.8,1.3c-0.1,0.1-0.3,0.2-0.4,0.3c-0.1,0.6-0.2,1.1-0.4,1.6c-0.1,0.3-0.2,0.7-0.3,1.1c0.2,0,0.3,0,0.5-0.1
			c0.1-0.1,0.2-0.3,0.2-0.4c0.2-0.4,0.8-1.6,1-2c0.4-0.8,0.3-0.8,0.5-1.6c0.1-2-0.2-3.7-0.7-5.1C76.7,70.5,76.6,71.6,76.4,72.7z"/>
		<path fill="#622800" d="M71.8,63.3c0,0.5,0,1,0,1.4c0.2,0.4,0.4,0.7,0.6,1.1C72.3,64.9,72.1,64,71.8,63.3z"/>
		<path fill="#622800" d="M79,38.2C79,38.2,79,38.2,79,38.2c-0.1,0.1-0.3,0.2-0.5,0.2c0.2,0.3,0.3,0.6,0.5,0.9L79,38.2z"/>
		<path fill="#3F3E3D" d="M95.9,31.3c-4.4-5.1-11.1-2.6-11.1-2.6c0.3-1.6-0.3-2.2-0.8-2.4c-0.7-0.3-1.7,1.3-1.7,1.3
			c-4.1-5.8-10.7-4-10.7-4c1.5,0.2,2,1.8,2,1.8c1.8-0.4,3.4,2.5,3.4,2.5c3,0.4,4.3,3.9,4.3,3.9c0.2,1.5,0.9,1.6,0.9,1.6
			c0.9,0,1.6-0.9,1.6-0.9c2.8-1.9,5.4-0.3,5.4-0.3c2.1-1.6,4.2,0.1,4.2,0.1c1.2-1.3,2.9-0.2,2.9-0.2L95.9,31.3z"/>
		<path fill="#232222" d="M72.2,11.6c1.1,0.4,1,2.4,1,2.4c1.4,1.2,1.1,3.4,1.1,3.4c-0.4,0.9,0,1.1,0,1.1c0.5,0.3,1.1,0,1.1,0
			c2.1-0.1,3,1.5,3,1.5c1.6-0.2,2.2,1.4,2.2,1.4c1.1-0.3,1.6,0.8,1.6,0.8l0-0.5c-0.8-4.1-5.1-4.9-5.1-4.9c0.7-0.8,0.6-1.3,0.4-1.5
			c-0.3-0.4-1.3,0.2-1.3,0.2c-0.3-4.4-4.4-5.5-4.4-5.5C72.5,10.6,72.2,11.6,72.2,11.6z"/>
		<path fill="#B7814F" d="M47.8,76.3c0.1-1.8-0.4-3.8-1-5.5c-0.5-1.5-1.4-3.2-1.3-4.8c0.1-1.4,1-3.1,1.9-4.4
			c0.2,2.7,0.8,5.7,1.9,8.7c0,0,0.1,0.4,0.5,0.4c0,0,0.3,0.1,0.2-0.6c0,0-0.8-3.1-1.3-6.5c-0.2-1.1-0.3-2.2-0.3-3.3
			c0.1-0.1,0.2-0.2,0.3-0.3c0.4-0.3,0.8-0.6,1.2-0.9c-0.4,3.3-0.4,7.3,0.7,11.5c0,0,0.1,0.4,0.5,0.4c0,0,0.3,0.1,0.2-0.5
			c0,0-0.4-3.1-0.6-6.6c-0.1-2,0.1-4,0.5-5.7c0.6-0.4,1.2-0.6,1.3-1.4c0-0.5-0.1-1-0.2-1.5c0,0,0,0,0-0.1c0.1,0.1,0.1,0.2,0.2,0.2
			c0.3,0.3,0.7,0.5,1.1,0.6c-1.2,3.4-2.6,9-1.8,15.2c0,0,0,0.4,0.4,0.5c0,0,0.2,0.1,0.3-0.5c0,0-0.1-3.1,0.2-6.6
			c0.2-2.9,1-5.7,2.2-7.7c0.4,0.3,0.8,0.6,1.2,0.8c-1.5,3.2-3.3,8.5-3,14.7c0,0,0,0.4,0.4,0.5c0,0,0.2,0.2,0.4-0.5
			c0,0,0.2-3.1,0.8-6.5c0.5-3.1,1.6-5.9,3.2-7.8c-0.2-3.7-2-4.7-3.2-5c-0.7,0-1.4-0.1-2.1-0.1c-0.2,0-0.4,0-0.5-0.1
			c-0.5-0.1-1-0.2-1.6-0.3c-0.2,0-0.4-0.1-0.5-0.1c-0.9-0.2-1.7-0.5-2.5-0.9c-0.1-0.1-0.3-0.2-0.4-0.4c0-0.1-0.1-0.1-0.1-0.2
			c0,0.4,0.4,0.7,0.8,1c-0.1,0.3-0.1,0.7-0.2,1.1c-0.2,0.1-0.4,0.3-0.6,0.5c-0.8,0.9-0.4,2.1-1,3.1c-0.4,0.8-1.5,1.2-2,1.9
			c-0.5,0.6-0.9,1.3-1.1,2c-0.3,1,0.2,1.8,0.2,2.8c0,1.2-1,2.3-1.2,3.5c-0.2,1.3,0.1,2.7,0,4c0,0.5-0.4,2.7,0.2,3.4
			c0.2,0.2,0.4,0.3,0.8,0.2h0c0.1,0,0.1,0,0.2-0.1c0.3-0.1,0.4,0,0.6,0.3c0,0,0,0,0,0c0.3,0.1,0.7,0.2,1,0.3c0,0,0,0,0,0
			c0.3,0.1,0.7,0.2,1,0.3c0,0,0,0,0,0c0.3,0.1,0.7,0.2,1,0.3c0,0,0,0,0,0c0.3,0.1,0.6,0.2,0.9,0.3C47.7,76.3,47.7,76.3,47.8,76.3
			C47.8,76.3,47.8,76.3,47.8,76.3z"/>
		<path fill="#622800" d="M24,33.8c0.2,0,0.3,0,0.3,0c0.8-0.1,0.8-0.8,1.5-1.1c0.7-0.3,1.4,0.3,1.9-0.4c0.4-0.6-0.2-1.3-0.7-1.7
			c-1.1-0.9-3-1.1-4.2,0c-0.3,0.3-0.7,0.8-0.8,1.3c-0.1,0.2-0.1,0.4-0.1,0.5C22.2,33.8,23.5,33.8,24,33.8z"/>
		<path fill="#622800" d="M22.8,34.5c-1.6,0-2.1,3.5-0.9,4.5C23.8,40.5,25.3,34.6,22.8,34.5z"/>
		<path fill="#B7814F" d="M55.3,74.2c0,0,0.2,0.2,0.4-0.4c0,0,0.7-3,1.9-6.1c0.7-1.9,1.6-3.6,2.7-5c0.2-1.4,0.3-2.8,0.1-4.2
			c-0.1-1.4-0.6-3.1-1.4-4.3c0.8,1.4,0.8,3.4,0.6,5.2c0.1,0.2,0.2,0.6,0.4,0.8c0.1,0.1,0.1,0.1,0.2,0.2c-0.3,0.5-0.6,1-1,1.5
			c-0.2,0.8-0.4,1.4-0.5,1.5C58.3,64,58.1,64,58,64c-1.3,2.6-2.5,5.9-3,9.6C55,73.6,54.9,74,55.3,74.2z"/>
		<path fill="#B7814F" d="M63.2,61.8c-0.2-0.9-0.4-1.9-0.4-2.9c0-0.7,0.3-1.4,0.2-2.1c0-0.1,0-0.2-0.1-0.2c-0.2-0.5-0.5-0.8-0.9-1.1
			c-0.1-0.1-0.2-0.2-0.3-0.3c0,0,0,0-0.1,0c0.6,1.4,0.5,3.2,0.3,4.7c0,0.5-0.1,1-0.2,1.4c0.1,0,0.1,0,0.2,0.1
			C62.5,61.6,62.8,61.7,63.2,61.8z"/>
		<path fill="#B7814F" d="M71.2,73.8c0.1,0.3,0.2,0.7,0.2,1.1c0.3-1.1,1.2-2.3,1.2-2.3c0.7-2.9,0.1-7.5-0.2-9.5
			c-0.2-0.3-0.4-0.7-0.6-1.1c-0.2,2.6-0.8,8-1.2,9.8c0,0.2-0.1,0.4-0.1,0.5c0,0,0,0,0,0C70.6,72.9,71,73.4,71.2,73.8z"/>
		<path fill="#B7814F" d="M73.3,75.1c0.6-2.4,0.7-4.5,0.6-6.3c-0.3,1.8-0.6,3.4-0.9,4.7c-0.2,0.8-0.5,1.7-0.8,2.6
			c0.2,0.2,0.5,0.3,0.7,0.4C73.2,75.6,73.3,75.1,73.3,75.1z"/>
		<path fill="#A36F4A" d="M68.4,59.4C68.4,59.4,68.4,59.5,68.4,59.4C68.4,59.5,68.4,59.5,68.4,59.4C68.4,59.4,68.4,59.4,68.4,59.4z"
			/>
		<path fill="#B7814F" d="M74.6,76.6c0.4-1.9,0.6-3.7,0.5-5.2c-0.2,1.5-0.6,2.9-0.8,4c-0.1,0.4-0.2,0.9-0.4,1.3
			C74.2,76.7,74.4,76.7,74.6,76.6z"/>
		<path fill="#A36F4A" d="M76.4,72.7c0,0.2-0.1,0.4-0.1,0.7c0,0,0,0,0,0C76.5,73,76.5,72.9,76.4,72.7z"/>
		<path fill="#B7814F" d="M69.3,69c0.2,0.5,0.2,1.1,0.4,1.7c0.6-2.9,0.6-5.3,0.2-7.3c-0.1,0.5-0.3,0.9-0.5,1.6
			c-0.2,0.7-0.6,1.3-0.9,2c-0.1,0.1-0.1,0.3-0.2,0.4c0,0.1,0,0.1,0.1,0.2C68.7,68.1,69.1,68.5,69.3,69z"/>
		<path fill="#B7814F" d="M78,70.5c-0.3,0-1.9-2.1-2.2-2.1c-0.1,0.6-0.1,7.7-0.3,8.2c0.2-0.1,0.6-0.1,0.7,0C77.4,77.1,78,71,78,70.5
			z"/>
		<path fill="#C89970" d="M26.2,39c1.2-0.9,1.8-0.6,2.2-0.4c0,0,0.1,0,0.1,0c0.1,0,0.2,0.1,0.3,0.1c1.4-0.2,1.5-1.5,2-1.5
			c1.7,0.6,0,2.3,0.2,3.1c2.6-3.1,2.6,3.6,5.4,4.2c0.9,0.2,2,0.1,2.7-0.1c0.8-0.2,1.8-0.8,2.3-1.9c0.1-0.2,0.2-0.4,0.4-0.6
			c0.1-0.2,0.3-0.4,0.4-0.6c0.3-0.4,0.6-0.8,1-1.1c0.2-0.2,0.4-0.3,0.6-0.5c0.2-0.2,0.4-0.3,0.7-0.4c0.2-0.1,0.5-0.2,0.7-0.3
			l0.7-0.2l-0.1,0c0.6-0.2,1.2-0.3,1.9-0.3c0.6,0,1.3,0.1,1.9,0.4c0.3,0.1,0.6,0.3,0.9,0.5c0.1,0.1,0.2,0.2,0.3,0.3l0.2,0.1l0.1,0.1
			c0,0,0,0,0,0.1c0,0,0,0,0.1,0.1c0.3,0.3,0.4,0.7,0.5,1c0.1,0.3,0.1,0.7,0.1,1c0,0.1,0,0.1,0,0.2c0.7-0.7,0.6-1.7,0.1-2.7
			c0,0,0,0,0-0.1c0-0.3-0.1-0.7-0.2-1.2c-0.3-1.6-1-3.8-2.9-5c-0.5-0.3-1-0.5-1.6-0.7c-0.9-0.2-1.9-0.3-3.1-0.1
			c-0.2,0-0.7,0.1-1.1,0c-0.4-0.1-0.7-0.4-0.9-0.7c-2.4-5.6-8.6-3.9-12.9-2.7c-0.4,0.1-0.9,0.1-1.3,0.1c-1.2-0.1-2.6-0.7-3.8-0.4
			c-0.1,0-0.2,0.1-0.3,0.1c-0.5,0.3-0.9,0.7-1.2,1.2c-0.1,0.1-0.1,0.2-0.2,0.3c-0.1,0.2-0.2,0.4-0.3,0.6c0,0.1-0.1,0.2-0.1,0.3
			c-0.2,0.5-0.4,1-0.6,1.5c0,0.1-0.1,0.2-0.1,0.3c-0.1,0.4-0.3,0.9-0.4,1.3c0,0.1,0,0.2-0.1,0.3c-0.1,0.7,0,1.5,0,2.2
			c0,0.1,0,0.2-0.1,0.3c-0.2,0.4-0.3,0.8-0.3,1.2c-0.2,0.5-0.9,3,1.8,6.3c0.3,0.4,0.5-0.1,0.5-0.1c0-0.1-0.1-0.2-0.1-0.3
			c0,0,0.1,0.1,0.1,0.1c0.3,0.4,0.5-0.1,0.5-0.1c0-0.1,0-0.1-0.1-0.2c0-0.1-0.1-0.2-0.1-0.3C26.3,43,24.4,41.2,26.2,39z M35.8,28.7
			c0,0,1-0.9,3.8,0.9c2.1,1.3,1.8,4.3,5.2,3.4c1.6-0.4,5.4,0.9,5.5,3.2c0,0.2,0,0.1,0,0c-0.4-1.7-4.7-1-5.4-0.9
			c-1.1,0.1-2.2,0.3-3.2,0.6C35.6,36,33.7,33.6,35.8,28.7z M21.9,31.9c0.2-0.5,0.6-1,0.8-1.3c1.2-1,3.1-0.9,4.2,0
			c0.5,0.4,1.1,1.1,0.7,1.7c-0.4,0.7-1.2,0.1-1.9,0.4c-0.6,0.3-0.7,1-1.5,1.1c0,0-0.1,0-0.3,0c-0.6,0.1-1.9,0-2.2-1.4
			C21.8,32.3,21.8,32.1,21.9,31.9z M22.2,43.5c-1.1-0.6-0.9-3.8-0.9-3.8l0.4,1.5C21.6,41.3,23.3,44.1,22.2,43.5z M22,39.1
			c-1.2-1-0.8-4.5,0.9-4.5C25.3,34.6,23.8,40.5,22,39.1z"/>
		<path fill="#C89970" d="M50.4,40.8C50.4,40.8,50.4,40.8,50.4,40.8L50.4,40.8l-0.3-0.2c-0.1-0.1-0.2-0.2-0.3-0.2
			c-0.2-0.1-0.4-0.2-0.6-0.3c-0.4-0.2-0.9-0.2-1.4-0.2l-0.3,0L47.1,40c-0.2,0-0.5,0.2-0.7,0.2l0,0l0,0l-0.5,0.2
			c-0.2,0.1-0.3,0.2-0.5,0.3c-0.2,0.1-0.3,0.2-0.5,0.3c-0.1,0.1-0.3,0.2-0.4,0.4c-0.3,0.3-0.5,0.6-0.7,0.9c-0.1,0.2-0.2,0.3-0.3,0.5
			c-0.1,0.2-0.2,0.4-0.3,0.5c-0.3,0.8-0.6,1.6-0.9,2.4l-0.4,1.3l-0.2,0.7l-0.2,0.6c0,0,0,0.1,0,0.1l0,0c-0.3,0.6-0.6,1.2-0.9,1.7
			L40,51.1c-0.2,0.3-0.3,0.6-0.5,0.9L39,52.8l-0.3,0.4c-0.1,0.1-0.2,0.3-0.3,0.4l-1.3,1.6l0,0c0,0,0,0-0.1,0.1l-0.4,0.3l-0.2,0.2
			l-0.1,0.1l0,0l0,0l-0.1,0.1l-0.7,0.4l-0.1,0c0,0-0.1,0-0.1,0.1c-0.2,0.1-0.5,0.1-0.7,0.1l-0.2,0l-0.1,0l0,0l0,0l-0.1,0l-0.2,0
			l0,0.1l0,0l0,0.1l0,0.1l-0.1,0.2c0,0.1-0.1,0.2-0.1,0.3l0,0c0,0,0,0,0,0.1c-0.2,0.3-0.4,0.6-0.7,0.8c-0.3,0.2-0.5,0.4-0.8,0.6
			c-0.6,0.3-1.1,0.5-1.7,0.6c-0.6,0.1-1.2,0.1-1.8,0c-0.2,0-0.3-0.1-0.5-0.1c0.1,0.1,0.1,0.2,0.2,0.3c0.1,0.1,0.1,0.3,0,0.4l0,0
			c-0.1,0.1-0.2,0.2-0.3,0.3c-0.1,0-0.2,0-0.3,0c-0.2,0-0.3,0-0.4-0.1c-0.2-0.1-0.4-0.2-0.5-0.2c-0.3-0.2-0.6-0.4-0.9-0.6
			c-0.3-0.2-0.7-0.5-1-0.8l0.2,0.3l0.7,0.9c0.2,0.3,0.6,0.6,0.8,0.8l0.2,0.2l0.1,0.1l0,0c0,0-0.1-0.1,0,0l0,0l0,0l0,0l0.1,0l0.5,0.3
			c0.2,0.1,0.3,0.1,0.5,0.2l0.2,0.1l0.3,0.1c0.3,0.1,0.8,0.2,1.1,0.3l0.6,0.1c0.2,0,0.4,0.1,0.6,0.1c0.3,0,0.7,0.1,1,0
			c0.3,0,0.7-0.1,1-0.2c0.2-0.1,0.3-0.1,0.5-0.2l0.1,0l0,0c0,0,0,0,0,0l0.1,0l0.3-0.1l0.5-0.2l0.1,0l0,0l0,0l0.1,0l0.3-0.1
			c0.3-0.2,0.7-0.4,1-0.6l0.9-0.6c0.3-0.2,0.6-0.5,0.9-0.7c0.3-0.2,0.6-0.5,0.9-0.7c0.3-0.2,0.6-0.5,0.9-0.7
			c0.8-0.8,1.5-1.6,2.3-2.3l0.6-0.6l0.3-0.3l0.3-0.3l1.2-1.2c0.4-0.4,0.7-0.8,1.1-1.3c0.2-0.2,0.4-0.4,0.5-0.6
			c0.2-0.2,0.3-0.4,0.5-0.7l1-1.4c0.3-0.5,0.6-0.9,0.9-1.4c0.3-0.5,0.6-1,0.8-1.5l0.7-1.5c0.3-0.5,0.4-1,0.6-1.5
			c0.1-0.5,0.2-1,0.3-1.5C50.7,41.5,50.6,41,50.4,40.8C50.4,40.8,50.4,40.8,50.4,40.8z"/>
		<path fill="#622800" d="M41.7,35.9c1.1-0.3,2.1-0.4,3.2-0.6c0.7-0.1,5-0.8,5.4,0.9c0,0.2,0,0.2,0,0c-0.1-2.3-3.9-3.7-5.5-3.2
			c-3.4,0.9-3.2-2.1-5.2-3.4c-2.7-1.8-3.8-0.9-3.8-0.9C33.7,33.6,35.6,36,41.7,35.9z M37.8,33.5c0.6-1,2.4-0.7,3.4-0.7
			c0,0.5,0.4,1.9,0.2,2.2C40.4,36.1,37.1,35.6,37.8,33.5z"/>
		<path fill="#C89970" d="M77.2,65.1c0,0-0.7-0.9-1.9-1.3c-0.1-0.1-0.2-0.2-0.3-0.3c-0.3-0.8-0.7-1.6-1.3-2.2c0,0-0.1-0.1-0.3-0.3
			c-0.3-0.6-0.6-1.2-1.1-1.7c0,0-0.8-0.9-2.1-1.4c-0.1-0.1-0.1-0.2-0.2-0.3c0,0-1.2-1.5-3.3-1.6c-0.3-0.5-0.6-0.9-1-1.3
			c-0.3-0.2-0.6-0.4-1-0.6c-0.9-0.5-1.8-1-2.7-1.4c0.2-0.8,0.8-1.4,0.8-1.4c-0.5-0.1-0.9,0.6-1.2,1.2c-0.4-0.2-0.7-0.3-1.1-0.4
			c0.3-0.8,0.9-1.5,0.9-1.5c-0.7-0.1-1.2,0.6-1.6,1.2c-0.1,0-0.2-0.1-0.3-0.1c-0.2-0.1-0.4-0.1-0.6-0.2c-0.1,0-0.1,0-0.2-0.1
			c0.4-0.8,0.9-1.6,0.9-1.6c-0.7-0.1-1.4,0.6-1.9,1.2c-0.2-0.1-0.4-0.2-0.6-0.3c-0.2-0.1-0.4-0.1-0.6-0.2c-0.2-0.1-0.4-0.1-0.6-0.2
			c-0.1,0-0.1-0.1-0.2-0.1c0.4-0.8,1.5-1.7,1.5-1.7c-0.8-0.5-2,0.5-2.6,1.2c-0.6-0.2-1.1-0.5-1.4-1.1c-0.1-0.1-0.2-0.3-0.3-0.5
			c-0.5-1.2-1.6-2.3-2.1-3.4c0,0.1-0.1,0.2-0.1,0.3L50,47c-0.3,0.5-0.6,1-0.8,1.5c-0.3,0.5-0.7,1-1,1.4l-1,1.3c0,0-0.1,0.1-0.1,0.1
			c0,0,0,0,0,0c0,0.1,0.1,0.1,0.1,0.2c0.1,0.1,0.2,0.3,0.4,0.4c0.8,0.4,1.7,0.7,2.5,0.9c0.2,0,0.4,0.1,0.5,0.1
			c0.5,0.1,1.1,0.2,1.6,0.3c0.2,0,0.4,0,0.5,0.1c0.7,0,1.4,0,2.1,0.1c1.2,0.3,3.1,1.3,3.2,5c0.1,1.3-0.1,2.9-0.5,4.8
			c0,0-0.1,0.6,0.4,0.8c0,0,0,0,0.1,0c0.1,0,0.3,0,0.7-0.6c0.1-0.1,0.3-0.7,0.5-1.5c0.2-0.7,0.3-1.6,0.4-2.5
			c0.2-1.8,0.1-3.8-0.6-5.2c0.9,1.2,1.3,2.9,1.4,4.3c0.1,1.4,0.1,2.8-0.1,4.2c-0.2,1.3-0.5,2.6-0.8,3.8c-0.3,1.1-0.7,2.3-1.1,3.4
			c-0.1,0.4-0.1,1.1,0.5,1c0.8-0.1,1.1-1.5,1.4-2.1c0.9-2.4,1.4-4.9,1.7-7.4c0.1-0.5,0.1-1,0.2-1.4c0.1-1.5,0.2-3.3-0.3-4.7
			c0,0,0,0,0.1,0c0.1,0.1,0.1,0.2,0.3,0.3c0.4,0.3,0.7,0.6,0.9,1.1c0,0.1,0,0.1,0.1,0.2c0.1,0.7-0.1,1.4-0.2,2.1
			c-0.1,1,0.2,2,0.4,2.9c0.2,0.7,0.3,1.5,0.3,2.2c0,1.3,0.1,2.6-0.1,3.8c-0.1,0.9-0.4,1.6-0.7,2.3c-0.3,0.7,0,1.4,0.1,2.1
			c0.1,0.8,0,1.4-0.2,2.2c-0.2,1-1.1,1-1.6,1.7c-0.4,0-0.8,0.3-1,0.5c-0.6,0.7-0.2,1.3,0,1.9c0,0.1,0.1,0.3,0.1,0.4
			c0,0.3,0.1,0.6,0.1,0.9c0.1,0,0.2,0,0.3,0c1.4-0.1,2.9-0.2,4.3-0.3c0.1,0,0.2,0,0.3,0c0,0,0,0,0,0c0.6-0.4,1.2-0.8,1.6-1.4
			c0.3-0.6,0.2-1.3-0.3-1.8c0,0-0.1-0.1-0.1-0.1c0,0,0,0,0,0c0.1-0.6-0.2-1.1-0.3-1.6c-0.1-0.9,0.4-1.6,1-2.1
			c0.3-0.3,0.8-0.5,0.8-0.9c0.1-0.6-0.4-1-0.3-1.5c0-0.5,0.5-0.7,0.6-1.1c0.2-0.5,0.1-1,0.3-1.5c0-0.1,0.1-0.3,0.2-0.4
			c0.3-0.6,0.7-1.3,0.9-2c0.2-0.7,0.4-1.1,0.5-1.6c0.4,2,0.4,4.4-0.2,7.3c-0.1,0.2-0.1,0.5-0.2,0.7c0,0-1.4,5-3.3,7.9
			c0,0-0.1,0.1-0.1,0.2c0,0,0,0,0,0c0.4,0,0.8-0.1,1.2-0.1c0,0,0,0,0,0c0.7-1.2,2.2-4.3,3-7.1c0.1-0.2,0.1-0.4,0.1-0.5
			c0.4-1.8,1.1-4.5,1.2-7.1c0-0.5,0-1,0-1.4c0.3,0.7,0.5,1.6,0.6,2.5c0.3,2,0.3,4.4-0.4,7.3c0,0-0.2,0.7-0.5,1.8
			c-0.4,1.2-1,2.9-1.7,4.4c0,0,0,0,0,0c0.4,0,0.8-0.1,1.1-0.1c0,0,0,0,0,0c0.4-0.9,0.9-2,1.3-3.1c0.3-0.9,0.6-1.7,0.8-2.6
			c0.3-1.2,0.7-2.9,0.9-4.7c0.2,1.8,0,3.9-0.6,6.3c0,0-0.1,0.5-0.4,1.4C72.7,77.1,72.4,78,72,79c0,0,0,0,0,0c0.4,0,0.8-0.1,1.2-0.1
			c0,0,0,0,0,0c0.3-0.7,0.5-1.4,0.8-2.2c0.1-0.4,0.3-0.9,0.4-1.3c0.2-1.1,0.6-2.5,0.8-4c0.1,1.5,0,3.3-0.5,5.2
			c0,0.2-0.1,0.3-0.1,0.5c0,0-0.2,0.6-0.5,1.6c0,0,0,0,0,0c0.4-0.1,0.8-0.1,1.2-0.2c0,0,0,0,0,0c0.1-0.4,0.2-0.7,0.3-1.1
			c0.1-0.5,0.2-1,0.4-1.6c0.1-0.5,0.2-1,0.3-1.6c0.1-0.3,0.1-0.6,0.2-0.9c0-0.2,0.1-0.4,0.1-0.7c0.2-1.1,0.3-2.2,0.3-3.3
			c0.5,1.4,0.7,3.1,0.7,5.1c0,0,0,0,0,0c0-0.1,0-0.2,0.1-0.3c0-0.1,0-0.2,0.1-0.3c0.1-0.3,0.1-0.5,0.2-0.8c0.1-0.4,0.1-0.8,0.2-1.3
			c0.1-0.5,0.1-0.9,0.2-1.4c0.1-0.5,0.1-0.9,0.2-1.4c0.1-0.5,0.2-0.9,0.3-1.4c0,0,0,0,0,0C78.3,66.7,77.8,65.8,77.2,65.1z"/>
		<path fill="#622800" d="M21.3,39.8c0,0-0.2,3.2,0.9,3.8c1.1,0.6-0.5-2.2-0.5-2.2L21.3,39.8z"/>
		<path fill="#5E5D5C" d="M60,34.9c0.1,0.1,0.2,0.1,0.3,0.1c0.5,0.2,0.9,0.2,1.4,0.2c0.1,0,0.2,0,0.3,0c0.1,0,0.3,0,0.4-0.1
			c0.2,0,0.3-0.1,0.4-0.1c0.1,0,0.1,0,0.1,0c0.1,0,0.2,0,0.3,0c0,0,0,0,0,0c0.3,0,0.7,0,1,0c1,0.1,2,0.4,2.7,0.7
			c0.3,0.2,0.7,0.3,0.9,0.5c0.5,0.3,0.9,0.6,1.2,1c0.1,0.1,0.2,0.2,0.3,0.3c0.7,0.8,1.1,1.4,1.1,1.4c0,0,0.1,0,0.1,0
			c0.5,0,0.9,0,1.3,0c1.9,0.3,3,1.6,3.6,2.5c0.2,0.3,0.4,0.6,0.5,0.8c0.1,0.1,0.1,0.2,0.1,0.2c1.2-0.3,2.2,0,2.9,0.6
			c0.1,0.1,0.3,0.2,0.4,0.4c0.6,0.6,0.8,1.2,0.8,1.2l0.1-1.2c-0.2-1.1-0.5-2.2-0.9-3.1c-0.1-0.4-0.3-0.7-0.5-1
			c-0.2-0.3-0.3-0.6-0.5-0.9c-3.7-6.2-11.1-7.7-11.1-7.7c1.7-1.9,1.5-3.2,1-3.9c-0.8-1-3.4,0.4-3.4,0.4C64.2,16,53.7,12.9,53.7,12.9
			c1.9,1.6,1.2,4.1,1.2,4.1c2.7,0.9,2.6,6.2,2.6,6.2c3.7,3.1,2.6,8.8,2.6,8.8c-0.1,0.3-0.2,0.6-0.3,0.9C59.4,34.4,60,34.9,60,34.9z"
			/>
	</g>
	<g>
	</g>
	<g>
	</g>
	<g>
	</g>
	<g>
	</g>
	<g>
	</g>
	<g>
	</g>
</g>
</svg>
