<?xml version="1.0" encoding="utf-8"?>
<!-- Generator: Adobe Illustrator 19.0.0, SVG Export Plug-In . SVG Version: 6.00 Build 0)  -->
<svg version="1.1" id="Layer_1" xmlns="http://www.w3.org/2000/svg" xmlns:xlink="http://www.w3.org/1999/xlink" x="0px" y="0px"
	 width="270px" height="120px" viewBox="0 0 270 120" style="enable-background:new 0 0 270 120;" xml:space="preserve">
<style type="text/css">
	.st0{fill:#FFFFFE;}
	.st1{fill:#FCE6CD;}
</style>
<g>
	<polygon id="XMLID_47_" class="st0" points="84.1,45.5 84.1,57.3 84.1,57.3 78.4,45.5 74.7,45.5 74.7,61.2 77.6,61.2 77.6,49.5 
		77.6,49.5 83.3,61.2 87,61.2 87,45.5 	"/>
	<path class="st0" d="M93.4,59.3c0.9,0,1.6-0.4,2-1c0.5-0.7,0.6-1.5,0.6-2.4h-1.2c-1.3,0-3.2,0.2-3.2,2
		C91.6,58.9,92.4,59.3,93.4,59.3 M90.1,50.2c1.1-0.5,2.6-0.9,3.8-0.9c3.4,0,4.7,1.5,4.7,4.9v1.5c0,1.2,0,2,0,2.9s0.1,1.7,0.1,2.6
		h-2.5c-0.1-0.6-0.1-1.4-0.1-1.7l0,0c-0.7,1.3-2.1,2-3.4,2c-1.9,0-3.8-1.2-3.8-3.4c0-1.7,0.8-2.7,1.9-3.3c1.1-0.6,2.5-0.7,3.7-0.7
		h1.6c0-1.9-0.8-2.5-2.5-2.5c-1.2,0-2.4,0.5-3.4,1.3L90.1,50.2z"/>
	<path id="XMLID_44_" class="st0" d="M101.8,51.8h-2.1v-2.2h2.1v-2.3l2.9-1v3.3h2.5v2.2h-2.5v5.4c0,1,0.3,1.9,1.3,1.9
		c0.5,0,1-0.1,1.3-0.3l0.1,2.4c-0.6,0.2-1.3,0.3-2.1,0.3c-2.2,0-3.5-1.5-3.5-3.8V51.8L101.8,51.8z"/>
	<path id="XMLID_43_" class="st0" d="M118.6,61.2h-2.7v-1.6l0,0c-0.9,1.1-2.1,1.8-3.6,1.8c-2.6,0-3.7-1.9-3.7-4.5v-7.3h2.9v6.2
		c0,1.4,0,3.3,1.9,3.3c2.1,0,2.5-2.4,2.5-3.9v-5.7h2.9C118.6,49.6,118.6,61.2,118.6,61.2z"/>
	<path id="XMLID_42_" class="st0" d="M121,49.6h2.5v2.6l0,0c0.1-1.1,1.3-2.9,3-2.9c0.3,0,0.6,0,0.9,0.1v3c-0.3-0.2-0.8-0.2-1.3-0.2
		c-2.3,0-2.3,3.1-2.3,4.7v4.3H121V49.6L121,49.6z"/>
	<path class="st0" d="M132.3,59.3c0.9,0,1.6-0.4,2-1c0.5-0.7,0.6-1.5,0.6-2.4h-1.2c-1.3,0-3.2,0.2-3.2,2
		C130.5,58.9,131.2,59.3,132.3,59.3 M128.9,50.2c1.1-0.5,2.6-0.9,3.8-0.9c3.4,0,4.7,1.5,4.7,4.9v1.5c0,1.2,0,2,0,2.9
		s0.1,1.7,0.1,2.6H135c-0.1-0.6-0.1-1.4-0.1-1.7l0,0c-0.7,1.3-2.1,2-3.4,2c-1.9,0-3.9-1.2-3.9-3.4c0-1.7,0.8-2.7,1.9-3.3
		c1.1-0.6,2.5-0.7,3.7-0.7h1.6c0-1.9-0.8-2.5-2.5-2.5c-1.2,0-2.4,0.5-3.4,1.3V50.2z"/>
	<rect id="XMLID_39_" x="139.8" y="44.4" class="st0" width="2.9" height="16.9"/>
	<path class="st0" d="M154,52.2h1c1.5,0,3.2-0.2,3.2-2.2c0-1.9-1.7-2-3.2-2h-1C154,48,154,52.2,154,52.2z M151,45.5h3.2
		c3.2,0,7-0.1,7,4.3c0,1.8-1.2,3.4-3.1,3.6l0,0c0.8,0.1,1.3,0.9,1.6,1.6l2.4,6.1h-3.3l-1.8-4.9c-0.4-1.2-0.8-1.6-2.1-1.6h-1v6.5h-3
		C151,61.2,151,45.5,151,45.5z"/>
	<path class="st0" d="M170.4,54.3c-0.1-1.5-0.7-2.7-2.3-2.7c-1.6,0-2.4,1.2-2.5,2.7H170.4z M172.3,60.6c-1,0.6-2.2,0.9-3.8,0.9
		c-3.6,0-5.8-2.2-5.8-6c0-3.4,1.7-6.1,5.1-6.1c4.1,0,5.2,2.9,5.2,7h-7.6c0.1,1.9,1.4,2.9,3.1,2.9c1.4,0,2.6-0.5,3.7-1.2v2.5H172.3z"
		/>
	<path id="XMLID_34_" class="st0" d="M181.5,52.1c-0.9-0.3-1.5-0.5-2.6-0.5c-0.8,0-1.7,0.3-1.7,1.3c0,1.8,5,0.7,5,4.9
		c0,2.7-2.3,3.8-4.6,3.8c-1.1,0-2.2-0.2-3.3-0.5l0.2-2.5c0.9,0.5,1.8,0.8,2.8,0.8c0.7,0,1.9-0.3,1.9-1.4c0-2.3-5-0.7-5-4.9
		c0-2.5,2.1-3.6,4.3-3.6c1.3,0,2.2,0.2,3.1,0.4L181.5,52.1z"/>
	<path class="st0" d="M188.9,59.2c2.2,0,2.8-2.1,2.8-4c0-1.8-0.9-3.4-2.8-3.4c-1.9,0-2.8,1.7-2.8,3.4
		C186.2,57.1,186.8,59.2,188.9,59.2 M188.9,49.4c3.3,0,5.8,2.3,5.8,6.1c0,3.3-2.1,6-5.8,6c-3.6,0-5.8-2.7-5.8-6
		C183.2,51.7,185.7,49.4,188.9,49.4"/>
	<path id="XMLID_31_" class="st0" d="M206.5,61.2h-2.7v-1.6l0,0c-0.9,1.1-2.1,1.8-3.6,1.8c-2.6,0-3.7-1.9-3.7-4.5v-7.3h2.9v6.2
		c0,1.4,0,3.3,1.9,3.3c2.1,0,2.5-2.4,2.5-3.9v-5.7h2.9L206.5,61.2L206.5,61.2z"/>
	<path id="XMLID_30_" class="st0" d="M208.9,49.6h2.6v2.6l0,0c0.1-1.1,1.3-2.9,3-2.9c0.3,0,0.6,0,0.9,0.1v3
		c-0.3-0.2-0.8-0.2-1.3-0.2c-2.3,0-2.3,3.1-2.3,4.7v4.3h-2.9V49.6L208.9,49.6z"/>
	<path id="XMLID_29_" class="st0" d="M223.9,52.1c-0.5-0.2-1.1-0.4-1.9-0.4c-1.8,0-2.9,1.5-2.9,3.7c0,2.1,1,3.8,3,3.8
		c0.8,0,1.7-0.3,2.2-0.5l0.1,2.5c-0.8,0.3-1.7,0.4-2.9,0.4c-3.6,0-5.4-2.6-5.4-6.1c0-3.4,1.9-6,5.3-6c1.2,0,2,0.1,2.8,0.4
		L223.9,52.1z"/>
	<path class="st0" d="M232.5,54.3c-0.1-1.5-0.7-2.7-2.3-2.7c-1.6,0-2.4,1.2-2.5,2.7H232.5z M234.5,60.6c-1,0.6-2.2,0.9-3.8,0.9
		c-3.6,0-5.8-2.2-5.8-6c0-3.4,1.7-6.1,5.1-6.1c4.1,0,5.2,2.9,5.2,7h-7.6c0.1,1.9,1.4,2.9,3.1,2.9c1.4,0,2.6-0.5,3.7-1.2L234.5,60.6
		L234.5,60.6z"/>
	<path id="XMLID_26_" class="st0" d="M243.6,52.1c-0.9-0.3-1.5-0.5-2.6-0.5c-0.8,0-1.7,0.3-1.7,1.3c0,1.8,5,0.7,5,4.9
		c0,2.7-2.3,3.8-4.6,3.8c-1.1,0-2.2-0.2-3.3-0.5l0.2-2.5c0.9,0.5,1.8,0.8,2.8,0.8c0.7,0,1.9-0.3,1.9-1.4c0-2.3-5-0.7-5-4.9
		c0-2.5,2.1-3.6,4.3-3.6c1.3,0,2.2,0.2,3.1,0.4L243.6,52.1z"/>
	<polygon id="XMLID_25_" class="st1" points="74.7,69.4 76.6,69.4 84.3,82.7 84.3,82.7 84.3,69.4 85.8,69.4 85.8,84.5 83.8,84.5 
		76.2,71.5 76.2,71.5 76.2,84.5 74.7,84.5 	"/>
	<path class="st1" d="M92.9,83.6c2.4,0,3.7-2.1,3.7-4.6c0-2.6-1.3-4.6-3.7-4.6s-3.6,2.1-3.6,4.6S90.6,83.6,92.9,83.6 M92.9,73.2
		c3.6,0,5.1,2.8,5.1,5.8s-1.6,5.8-5.1,5.8c-3.6,0-5.1-2.8-5.1-5.8C87.8,76,89.4,73.2,92.9,73.2"/>
	<path id="XMLID_22_" class="st1" d="M99.8,75.9c0-1.2,0-1.7-0.1-2.5h1.4v2.1l0,0c0.5-1.2,1.4-2.4,2.8-2.4c0.3,0,0.7,0.1,0.9,0.1
		v1.4c-0.3-0.1-0.7-0.1-1-0.1c-2.2,0-2.7,2.4-2.7,4.4v5.4h-1.4C99.8,84.5,99.8,75.9,99.8,75.9z"/>
	<path id="XMLID_21_" class="st1" d="M111.5,74.6H109v7.1c0,1,0.4,1.8,1.5,1.8c0.5,0,0.9-0.1,1.3-0.3l0.1,1.1
		c-0.3,0.1-1,0.3-1.7,0.3c-2.4,0-2.5-1.7-2.5-3.7v-6.4h-2.2v-1.2h2.2v-2.7l1.4-0.5v3.1h2.5L111.5,74.6L111.5,74.6z"/>
	<path id="XMLID_20_" class="st1" d="M113,68.3h1.4v7l0,0c0.6-1.2,1.8-2.1,3.4-2.1c3,0,3.8,2,3.8,4.7v6.6h-1.3v-6.6
		c0-1.9-0.4-3.5-2.6-3.5c-2.4,0-3.3,2.3-3.3,4.2v5.9H113V68.3z"/>
	<path class="st1" d="M130.9,78.2c0-1.9-0.8-3.8-2.8-3.8c-2,0-3.2,2-3.2,3.8H130.9z M131.5,84.1c-0.9,0.4-2.2,0.6-3.2,0.6
		c-3.7,0-5-2.5-5-5.8c0-3.4,1.9-5.8,4.7-5.8c3.1,0,4.4,2.5,4.4,5.5v0.7h-7.6c0,2.3,1.3,4.2,3.6,4.2c1,0,2.4-0.4,3.1-0.8V84.1z"/>
	<path id="XMLID_17_" class="st1" d="M134,75.9c0-1.2,0-1.7-0.1-2.5h1.4v2.1l0,0c0.5-1.2,1.4-2.4,2.8-2.4c0.3,0,0.7,0.1,1,0.1v1.4
		c-0.3-0.1-0.7-0.1-1-0.1c-2.2,0-2.7,2.4-2.7,4.4v5.4H134V75.9z"/>
	<path id="XMLID_16_" class="st1" d="M140.4,76c0-0.8,0-1.7-0.1-2.6h1.3v2l0,0c0.5-1,1.3-2.2,3.6-2.2c2.7,0,3.8,1.8,3.8,4.2v7.1
		h-1.4v-6.7c0-2.1-0.7-3.4-2.6-3.4c-2.5,0-3.3,2.2-3.3,4v6.1h-1.4L140.4,76L140.4,76z"/>
	<path class="st1" d="M163.6,78.9h-0.4c-2.4,0-5.2,0.2-5.2,2.7c0,1.5,1,2,2.3,2c3.2,0,3.3-2.8,3.3-4
		C163.6,79.6,163.6,78.9,163.6,78.9z M163.7,82.7L163.7,82.7c-0.6,1.3-2.2,2-3.5,2c-3.1,0-3.6-2.1-3.6-3.1c0-3.7,3.9-3.9,6.8-3.9
		h0.3v-0.6c0-1.9-0.7-2.8-2.5-2.8c-1.1,0-2.2,0.3-3.2,0.9v-1.3c0.8-0.4,2.3-0.8,3.2-0.8c2.7,0,3.9,1.2,3.9,4.1v4.9
		c0,0.9,0,1.6,0.1,2.3h-1.3L163.7,82.7L163.7,82.7z"/>
	<path id="XMLID_13_" class="st1" d="M167.2,76c0-0.8,0-1.7-0.1-2.6h1.3v2l0,0c0.5-1,1.3-2.2,3.6-2.2c2.7,0,3.8,1.8,3.8,4.2v7.1
		h-1.4v-6.7c0-2.1-0.7-3.4-2.6-3.4c-2.5,0-3.3,2.2-3.3,4v6.1h-1.4C167.2,84.5,167.2,76,167.2,76z"/>
	<path class="st1" d="M182.4,83.6c2.4,0,3.3-2.6,3.3-4.6s-0.8-4.6-3.3-4.6c-2.6,0-3.3,2.5-3.3,4.6S179.8,83.6,182.4,83.6 M187,84.5
		h-1.4v-1.8l0,0c-0.7,1.4-1.9,2-3.4,2c-3,0-4.5-2.5-4.5-5.8c0-3.4,1.3-5.8,4.5-5.8c2.2,0,3.2,1.6,3.4,2.1l0,0v-7.1h1.4V84.5z"/>
	<polygon id="XMLID_10_" class="st1" points="199.4,78.1 193.8,69.4 195.5,69.4 200.1,76.8 204.9,69.4 206.5,69.4 200.9,78.1 
		200.9,84.5 199.4,84.5 	"/>
	<path class="st1" d="M210.3,83.6c2.4,0,3.7-2.1,3.7-4.6c0-2.6-1.3-4.6-3.7-4.6c-2.4,0-3.7,2.1-3.7,4.6S207.9,83.6,210.3,83.6
		 M210.3,73.2c3.6,0,5.1,2.8,5.1,5.8s-1.6,5.8-5.1,5.8c-3.6,0-5.2-2.8-5.2-5.8C205.1,76,206.7,73.2,210.3,73.2"/>
	<path id="XMLID_7_" class="st1" d="M217.1,75.9c0-1.2,0-1.7-0.1-2.5h1.4v2.1l0,0c0.5-1.2,1.4-2.4,2.8-2.4c0.3,0,0.7,0.1,1,0.1v1.4
		c-0.3-0.1-0.6-0.1-1-0.1c-2.2,0-2.7,2.4-2.7,4.4v5.4h-1.4C217.1,84.3,217.1,75.9,217.1,75.9z"/>
	<polygon id="XMLID_6_" class="st1" points="223.4,68.3 224.8,68.3 224.8,78 229.7,73.4 231.5,73.4 226.1,78.3 232.1,84.5 
		230.2,84.5 224.8,78.8 224.8,84.5 223.4,84.5 	"/>
	<path class="st1" d="M239.4,78.2c0-1.9-0.8-3.8-2.8-3.8s-3.2,2-3.2,3.8H239.4z M240.1,84.1c-1,0.4-2.2,0.6-3.2,0.6
		c-3.6,0-5-2.5-5-5.8c0-3.4,1.9-5.8,4.7-5.8c3.1,0,4.4,2.5,4.4,5.5v0.7h-7.5c0,2.3,1.3,4.2,3.6,4.2c1,0,2.4-0.4,3.1-0.8L240.1,84.1
		L240.1,84.1z"/>
	<path class="st0" d="M39.1,84c0.8-2.9,0.9-5,0.8-7.6c2.4,3.5,2.7,7.2,2.8,8.4C39.6,84.7,39.1,84,39.1,84 M46,83.9
		c0,0,0,0.7-2.3,0.8c0-5.1-3.4-9.7-3.9-10.3v-0.7c-0.2-2.3-0.5-4.3-0.8-5.9c-0.1,0-0.2,0-0.2,0s-1.1-1.1-0.7-2.9
		c0,0-0.7,0.6-0.5,2.2c0,0-1-1.6-0.9-3.8c0,0-1.2,0.4-0.5,4.3c0,0-1.1-2.2-0.9-4.4c0,0-1,0.3,1.1,7.2c0,0-2.1-4.4-1.9-7.5
		c0,0-1.4,4.1-0.8,6.5c-0.1-0.5-0.8-3.6-0.1-5.7c0,0-2.3,3.7,0.2,9.1c0,0-3.2-4.6-0.5-10.1c0,0-1.7,0.7-2.2,2.9c0,0,0-1.8,1.3-3.4
		c0,0-2.1,0.4-3,3.3c0,0-0.1-2.4,1.5-3.6c0,0-3.3,1.5-4,4.9c0,0-1-5.1,6.7-8.4c0,0-5-1.2-9.6,3.4c0,0,0.9-3.5,7.8-4.5
		c0,0-1.1-0.6-3.3,0c0,0,1.6-1.6,6.6-1c0,0-2-3-9.1-3.2c0,0,6-1.1,10.2,2.9c0,0-1-4-6.1-6c0,0,3.2-0.2,6,4.1l0.1,0.2l-1-7.2
		c-0.4-0.2-0.4-0.8-0.6-2.5l-0.5-6.7c-0.2-2.1-0.1-2.6,0.5-2.6c0.5,0,0.7,0.7,0.9,2.7l0.4,6.1c0.2,1.8,0.2,2.7-0.2,2.9l0.9,7
		c0.3-1.6,1.4-6,6.5-8.6c0,0-5.3,2.9-5.2,10c0,0,1.8-4.1,6.9-4.8c0,0-3.7,0.9-4.9,3.8c0,0,2.8-1.6,6.4-0.2c0,0-3.5-0.6-5.4,0.6
		c0,0,4.4-0.6,7.1,2.9c0,0,0.7-1.1-0.1-2.7c0,0,1,0.7,1.2,3.1l0.8-8.5c-0.4-0.3-0.3-1.3-0.2-3.1l0.8-6.9c0.1-2.1,0.5-2.6,1-2.5
		s0.5,0.8,0.4,2.9L51,46.7c-0.1,1.8-0.3,2.7-0.7,2.9l-0.9,7.9c0.7-1.9,2.7-5.7,6.9-7c0,0-4.4,1.4-6.3,7.7c0,0,1.4-3.6,8.2-4.6
		c0,0-6.7,1.1-7.5,5.2c0,0,4.3-3.3,7.6-2.9c0,0-4.4,0.7-5.7,3.9c0,0,6.4-3.6,10.5-0.7c0,0-4.9-1.9-9.8,1.3c0,0,4.2-0.8,6,3.7
		c0,0-0.4-0.8-1.7-1.5c0,0,2.2,2.7,2.1,5.4c0,0-2.1-4.1-6-4c0,0,3.8,1.1,4.5,3.6c0,0-1.5-1.9-3.7-2.2c0,0,3.1,2.1,3.2,6.2
		c0,0-0.5-3.8-4.2-5.9c0,0,1.7,2,0.8,8.3c0,0,0.1-4.5-1.2-7.4c0,0,0.3,3.3-0.7,5.9c0,0,0.5-2.1-1.3-4.3c0,0-1.2,0.5-0.1,3.6
		c0,0-1.7-2.2-1-5.7c0,0-2.7,2.8-0.7,7.8c0,0-1.7-1.4-1.5-5c0,0-1.1,1.7-1,3.3c0,0-0.2-0.6-0.3-1.4c-0.9,1.8-1.8,3.7-2.1,4.6
		C44,79.8,46,83.9,46,83.9 M41.8,66.4l0.8,7.8c0.3-1.6,1.6-4.3,2.7-6.4c-0.5,0.5-1.2,1.3-1.7,2.6c0,0,0.6-2.9,2.1-4.5
		c0,0-1.6,0.5-2.7,2.2c0,0,0-1.8,1.4-2.7c1.3-0.9,0-0.2,0-0.2s-2,0-2.2,3.5C42.2,68.5,42.1,67.3,41.8,66.4"/>
</g>
</svg>
