<?xml version="1.0" encoding="utf-8"?>
<!-- Generator: Adobe Illustrator 16.0.0, SVG Export Plug-In . SVG Version: 6.00 Build 0)  -->
<!DOCTYPE svg PUBLIC "-//W3C//DTD SVG 1.1//EN" "http://www.w3.org/Graphics/SVG/1.1/DTD/svg11.dtd">
<svg version="1.1" id="Layer_2" xmlns="http://www.w3.org/2000/svg" xmlns:xlink="http://www.w3.org/1999/xlink" x="0px" y="0px"
	 width="434px" height="275px" viewBox="0 0 434 275" enable-background="new 0 0 434 275" xml:space="preserve">
<g id="Layer_1">
	<g>
		<path fill="#FFFFFF" d="M297.36,0.002c-1.429,12.58-2.086,25.512-2.092,38.826c0.027,31.097,4.859,60.721,13.612,89.358
			c7.721,28.812,19.638,57.882,36.021,84.263c14.787,24.069,31.64,45.183,51.156,62.552h18.004
			c-19.73-16.99-36.882-37.745-52.029-61.47c-16.844-26.091-29.268-54.947-37.487-83.622c-9.253-28.479-14.603-58.015-15.174-89.107
			c-0.236-13.998,0.242-27.588,1.599-40.801L297.36,0.002L297.36,0.002z"/>
		<path fill="#FCE6CD" d="M345.771,212.447c-16.386-26.381-28.304-55.451-36.021-84.262c-8.754-28.638-13.586-58.262-13.612-89.358
			c0.006-13.314,0.663-26.247,2.093-38.826H0v274.998h396.925C377.409,257.631,360.556,236.517,345.771,212.447z"/>
	</g>
</g>
</svg>
