<?xml version="1.0" encoding="utf-8"?>
<!-- Generator: Adobe Illustrator 16.0.0, SVG Export Plug-In . SVG Version: 6.00 Build 0)  -->
<!DOCTYPE svg PUBLIC "-//W3C//DTD SVG 1.1//EN" "http://www.w3.org/Graphics/SVG/1.1/DTD/svg11.dtd">
<svg version="1.1" id="Layer_1" xmlns="http://www.w3.org/2000/svg" xmlns:xlink="http://www.w3.org/1999/xlink" x="0px" y="0px"
	 width="412.582px" height="206.053px" viewBox="0 0 412.582 206.053" enable-background="new 0 0 412.582 206.053"
	 xml:space="preserve">
<linearGradient id="SVGID_1_" gradientUnits="userSpaceOnUse" x1="153.0974" y1="36.6772" x2="76.7681" y2="264.6395" gradientTransform="matrix(1 0 0 -1 0.1401 205.1074)">
	<stop  offset="0" style="stop-color:#5B348B;stop-opacity:0"/>
	<stop  offset="1" style="stop-color:#5B348B"/>
</linearGradient>
<path display="none" fill="url(#SVGID_1_)" d="M261.077,0.881c-13.192,3.322-29.903,10.382-45.229,25.462
	c-33.007-42.125-87.211-64.434-141.548-67.281C20.832-43.775-29.307-26.942-65.996,2.317c-1.875,1.425-3.768,3.03-5.488,4.576
	c-4.57,3.955-8.972,8.179-13.108,12.549C-74.911-45.418,1.675-76.99,1.675-76.99c-9.273-10.067-39.021-1.645-39.021-1.645
	c58.095-55.73,155.316-16.723,155.316-16.723c0.947-12.926-23.667-25.826-23.667-25.826c56.039,6.365,67.458,12.378,67.458,12.378
	c24.366,9.7,42.938,21.748,56.974,34.48c6.827,4.101,12.204,11.039,15.686,16.589C252.606-34.975,258.911-12.482,261.077,0.881
	 M207.453,35.375c-34.055,40.247-24.414,71.797-20.277,80.996c2.009,4.762,5.94,7.452,15.07,10.323
	c38.237,11.986,37.24,31.67,37.24,31.67c-26.341-19.521-38.01,0.779-38.01,0.779s-15.483,3.285-34.24-6.865
	c-12.582-6.731-10.245-57.474-90.927-57.474c-12.494,0-23.972,1.365-34.404,3.435c-0.462,1.109-0.96,2.229-1.367,3.481
	c-10.534,28.55-47.521,50.826-66.182,53.125c0,0-6.054-19.398-40.979,1.475c0,0,1.473-32.496,42.775-33.739
	c-32.454-40.506-71.778-2.931-71.778-2.931c-7.054-45.604,5.446-76.547,19.868-96.167C-38.534-11.544,15.67-33.612,74.301-30.532
	C127.982-27.673,170.828-9.27,207.453,35.375 M262.124,14.416c21.787,2.3,32.692,18.767,45.107,42.159
	c12.439,23.259,21.299,22.724,40.843,22.724c19.526,0,12.856,43.574-7.153,28.132c-10.273-7.928-14.459-1.123-58.545,8.154
	c-59.782,12.546-84.272,1.628-86.449-11.689c-2.167-12.268-1.812-34.088,18.231-56.581C232.962,26.087,249.83,17.276,262.124,14.416
	"/>
<linearGradient id="SVGID_2_" gradientUnits="userSpaceOnUse" x1="218.9744" y1="139.7461" x2="105.4379" y2="-72.6985">
	<stop  offset="0" style="stop-color:#D18A00;stop-opacity:0"/>
	<stop  offset="1" style="stop-color:#D18A00"/>
</linearGradient>
<path fill="url(#SVGID_2_)" d="M105.902,264.286c8.205-30.361,9.633-51.815,8.67-78.492c25.382,36.72,28.308,74.676,28.581,86.621
	C110.615,272.173,105.902,264.286,105.902,264.286 M177.347,263.445c0,0,0.384,7.199-23.868,8.728
	c0.379-52.494-35.146-100.289-39.919-106.566l-0.486-7.502c-1.599-23.883-5.047-44.271-8.696-60.946
	c-0.977-0.04-1.696-0.303-1.696-0.303s-11.031-11.693-7.416-30.494c0,0-7.132,5.994-5.432,22.901c0,0-10.2-16.351-8.99-39.039
	c0,0-12.386,4.09-5.517,44.151c0,0-11.405-22.364-9.795-45.994c0,0-10.149,2.642,11.45,74.645c0,0-21.397-45.527-19.681-78.229
	c0,0-14.133,42.785-8.003,67.548c-1.356-5.295-8.782-37.267-0.871-59.569c0,0-23.64,37.883,1.883,94.7
	c0,0-32.898-47.705-5.553-104.886c0,0-17.261,6.996-22.729,30.453c0,0,0.425-18.416,13.46-35.737c0,0-21.392,4.201-30.888,34.3
	c0,0-0.79-24.865,15.727-37.783c0,0-34.639,15.682-41.235,51.258c0,0-10.448-52.422,69.011-86.743c0,0-51.643-12.23-99.048,34.958
	c0,0,9.754-35.935,81.159-47.026c0,0-11.835-6.418-34.335,0.33c0,0,16.654-16.518,68.21-10.707c0,0-21.048-31.212-93.961-33.003
	c0,0,62.415-10.919,106.262,29.917c0,0-10.468-41.22-62.784-62.456c0,0,33.404-1.64,61.762,42.035l0.729,1.807l-10.306-74.396
	c-4.536-2.379-4.415-7.886-6.49-25.781l-5.492-69.339c-2.521-21.488-0.577-26.797,4.925-27.218
	c5.355-0.416,7.203,6.803,9.725,28.291l4.515,63.509c2.141,18.456,1.716,27.745-2.394,30.332l9.369,72.796
	c2.678-16.613,14.72-62.384,67.729-89.415c0,0-54.979,30.362-53.455,103.401c0,0,19.104-42.911,71.845-49.643
	c0,0-38.577,9.608-51.298,39.59c0,0,29.486-16.912,66.789-2.313c0,0-36.684-6.115-55.849,6.05c0,0,45.239-6.516,73.485,30.351
	c0,0,6.955-11.9-1.234-27.623c0,0,10.306,7.709,12.411,32.281l8.586-87.614c-3.969-3.452-2.693-13.667-1.57-31.724l8.707-71.542
	c1.297-21.792,5.417-26.773,10.723-25.816c5.405,0.977,5.284,7.796,3.968,29.558l-9.81,70.767
	c-1.165,18.745-2.805,28.246-7.279,29.81l-8.99,81.903c7.734-19.782,28.205-58.82,71.273-72.194c0,0-45.74,14.588-65.018,80.142
	c0,0,14.154-37.246,84.516-47.897c0,0-69.431,11.734-77.955,53.582c0,0,44.668-34.134,78.807-30.241c0,0-45.295,7.183-59.226,40.243
	c0,0,65.928-37.277,109.258-6.945c0,0-50.711-20.142-101.646,13.202c0,0,43.21-7.876,62.547,38.168c0,0-4.404-8.241-17.757-15.753
	c0,0,22.344,27.618,21.988,56.067c0,0-22.171-42.399-61.807-41.823c0,0,39.595,11.673,46.682,37.318c0,0-15.43-19.245-37.944-22.626
	c0,0,32.173,21.36,33.063,64.682c0,0-5.294-39.373-43.846-60.917c0,0,17.857,20.978,8.695,86.035c0,0,1.438-46.967-12.887-76.285
	c0,0,3.431,34.026-6.936,61.493c0,0,5.346-21.938-13.567-44.07c0,0-12.432,5.234-1.437,37.469c0,0-17.362-22.536-10.671-59.134
	c0,0-27.881,29.097-7.35,80.446c0,0-17.201-14.71-15.278-52.038c0,0-11.491,17.343-10.72,34.271c0,0-2.167-6.46-3.351-14.406
	c-9.538,18.284-19.165,37.863-22.136,48.211C156.076,220.944,177.347,263.445,177.347,263.445 M133.824,82.317l8.251,80.618
	c3.159-16.866,16.244-44.759,27.648-66.626c-5.254,4.749-11.92,13.121-17.728,27.425c0,0,5.847-30.341,21.545-46.974
	c0,0-16.746,5.517-27.628,22.384c0,0,0.445-19.034,14.163-28.307c13.718-9.375,0.082-2.146,0.082-2.146s-20.557,0.517-22.45,35.85
	C137.707,104.54,137.074,91.661,133.824,82.317"/>
</svg>
