<?xml version="1.0" encoding="utf-8"?>
<!-- Generator: Adobe Illustrator 16.0.0, SVG Export Plug-In . SVG Version: 6.00 Build 0)  -->
<!DOCTYPE svg PUBLIC "-//W3C//DTD SVG 1.1//EN" "http://www.w3.org/Graphics/SVG/1.1/DTD/svg11.dtd">
<svg version="1.1" id="Layer_1" xmlns="http://www.w3.org/2000/svg" xmlns:xlink="http://www.w3.org/1999/xlink" x="0px" y="0px"
	 width="216px" height="42px" viewBox="0 0 216 42" enable-background="new 0 0 216 42" xml:space="preserve">
<g>
	<path fill="#D85527" d="M24.709,15.819c1.617-0.373,3.5-0.676,5.671-0.887c5.349-0.517,7.302-0.471,8.25-0.578
		c-1.36,1.072-3.391,2.207-6.156,2.594C29.114,17.414,26.295,16.516,24.709,15.819"/>
	<path fill="#D85527" d="M44.331,12.275c0.115,0.039,0.179,0.072,0.179,0.072s1.783,0.978,2.364,1.134
		c0.583,0.157,0.488,0.955-0.126,1.23c-0.438,0.196-1.37,0.719-1.884,0.988c-0.225-0.553-0.632-1.44-0.646-2.113
		C44.207,13.126,44.246,12.688,44.331,12.275"/>
	<path fill="#D85527" d="M36.502,21.378c0.513-1.148-0.668-2.977-0.668-2.977s-1.494,0.75-3.977,1.061
		c-2.485,0.312-3.766-0.116-3.766-0.116c0.438,1.126,0.036,1.712-0.544,2.032c-0.5,0.271-1.134,0.352-1.493,0.4
		c-0.781,0.102-1.017,0.15-0.497,0.512c0.524,0.363,1.615,0.297,2.336,0.758c0.716,0.461,0.126,0.527,0.126,0.527
		c-0.417-0.42-1.82-0.533-1.82-0.533s0.105,0.119,0.683,0.625c0.582,0.508,0.495,0.801-0.081,0.469
		c-0.574-0.332-1.55-1.213-1.55-1.213s-0.083,0.326-0.404,0.689c-0.324,0.363-0.298-0.037-0.298-0.037
		c0.35-0.971-0.616-0.854-0.422-1.912c0.02-0.096,0.057-0.189,0.107-0.279c0.489-0.839,2.324-1.161,2.324-1.161
		c-0.749-0.503-0.706-1.338-0.706-1.338s-1.212-0.642-4.48-0.05c-1.371,0.254-2.83,1.366-3.173,2.543
		c-0.348,1.201,0.469,2.461,3.706,2.938c6.206,0.908,6.595,1.484,7.104,2.334c0.433,0.812-0.522,2.016-0.522,2.016
		s0.356-0.689,0.419-1.168c0.256-1.977-4.703-2.154-6.58-2.436c-1.884-0.279-5.306-0.279-5.632-3.209
		c-0.019-0.158-0.023-0.316-0.016-0.475h-0.003c0.09-2.032,2.255-4.05,7.176-5.35c1.376,0.712,4.372,1.947,7.897,1.554
		c4.489-0.503,7.211-2.44,9.031-4.569c1.146-0.864,2.194-0.944,2.862-0.856c-0.179,0.759-0.195,1.579,0.033,2.426
		c0.102,0.376,0.374,1.123,0.522,1.455c-0.372,0.165-0.555,0.267-1.521-0.029c-1.581-0.493-4.171,0.517-4.864,2.099
		c-0.335,0.762-0.594,2.116-0.133,2.721c0.375,0.498,0.671,0.391,1.09,0.557c0.097,0.041,0.205,0.09,0.315,0.172
		c0.55,0.373,0.19,0.912,0.027,0.768c-0.162-0.145-0.096-0.418-0.319-0.582c-0.227-0.166-0.9-0.309-0.629-0.055
		c0.27,0.256,0.517,0.695,0.395,0.951c-0.123,0.25-0.497,0.365-0.431-0.164c0.063-0.527-0.525-0.891-0.638-0.764
		c-0.107,0.131-0.138,0.889-0.133,1.17c0,0.281-0.154,0.271-0.311,0.178c-0.153-0.096-0.197-0.326-0.043-0.908
		c0.156-0.582-0.066-0.58-0.066-0.58s-0.804,1.33-1.02,1.141C35.7,22.519,35.969,22.528,36.502,21.378"/>
	<polygon fill="#D85527" points="61,6 63.195,6 66.589,13.011 66.613,13.011 66.613,6 68.324,6 68.324,15.371 66.142,15.371 
		62.733,8.363 62.711,8.363 62.711,15.371 61,15.371 	"/>
	<path fill="#D85527" d="M70.18,8.82c0.663-0.324,1.556-0.523,2.282-0.523c2.005,0,2.834,0.87,2.834,2.914v0.887
		c0,0.695,0.012,1.22,0.026,1.733c0.013,0.523,0.038,1.004,0.075,1.543h-1.506c-0.063-0.363-0.063-0.821-0.074-1.033h-0.027
		c-0.395,0.762-1.248,1.195-2.029,1.195c-1.16,0-2.294-0.74-2.294-2.059c0-1.029,0.471-1.637,1.119-1.973
		c0.652-0.337,1.496-0.403,2.21-0.403h0.943c0-1.115-0.473-1.49-1.479-1.49c-0.729,0-1.455,0.297-2.028,0.753L70.18,8.82z
		 M72.184,14.217c0.521,0,0.931-0.243,1.196-0.617c0.282-0.39,0.359-0.888,0.359-1.424h-0.741c-0.765,0-1.901,0.134-1.901,1.196
		C71.097,13.964,71.572,14.217,72.184,14.217"/>
	<path fill="#D85527" d="M77.161,9.774h-1.264V8.456h1.264V7.073l1.71-0.577v1.96h1.518v1.318h-1.518v3.22
		c0,0.592,0.151,1.141,0.804,1.141c0.306,0,0.6-0.065,0.778-0.187l0.051,1.426c-0.357,0.105-0.752,0.16-1.262,0.16
		c-1.339,0-2.081-0.873-2.081-2.243V9.774z"/>
	<path fill="#D85527" d="M87.205,15.374h-1.621v-0.941h-0.025c-0.523,0.674-1.264,1.1-2.158,1.1c-1.555,0-2.23-1.151-2.23-2.711
		V8.457h1.709v3.692c0,0.846,0.014,1.988,1.109,1.988c1.238,0,1.506-1.413,1.506-2.296V8.457h1.711V15.374z"/>
	<path fill="#D85527" d="M88.646,8.457h1.518v1.572h0.025c0.078-0.646,0.779-1.732,1.799-1.732c0.166,0,0.346,0,0.523,0.053v1.812
		c-0.154-0.093-0.459-0.146-0.764-0.146c-1.391,0-1.391,1.826-1.391,2.817v2.542h-1.711V8.457z"/>
	<path fill="#D85527" d="M93.35,8.82c0.666-0.324,1.557-0.523,2.285-0.523c2.002,0,2.834,0.87,2.834,2.914v0.887
		c0,0.695,0.008,1.22,0.025,1.733c0.012,0.523,0.037,1.004,0.072,1.543h-1.502C97,15.011,97,14.553,96.986,14.341h-0.025
		c-0.396,0.762-1.248,1.195-2.027,1.195c-1.164,0-2.297-0.74-2.297-2.059c0-1.029,0.471-1.637,1.119-1.973
		c0.654-0.337,1.496-0.403,2.209-0.403h0.945c0-1.115-0.473-1.49-1.479-1.49c-0.727,0-1.455,0.297-2.029,0.753L93.35,8.82z
		 M95.354,14.217c0.523,0,0.932-0.243,1.199-0.617c0.281-0.39,0.357-0.888,0.357-1.424h-0.742c-0.762,0-1.9,0.134-1.9,1.196
		C94.268,13.964,94.742,14.217,95.354,14.217"/>
	<rect x="99.852" y="5.3" fill="#D85527" width="1.711" height="10.073"/>
	<path fill="#D85527" d="M106.523,6h1.928c1.914,0,4.199-0.067,4.199,2.535c0,1.102-0.703,2.016-1.84,2.178v0.027
		c0.484,0.039,0.766,0.549,0.945,0.969l1.43,3.662h-1.99l-1.072-2.928c-0.258-0.696-0.486-0.965-1.238-0.965h-0.576v3.893h-1.785V6z
		 M108.309,10h0.592c0.877,0,1.885-0.133,1.885-1.301c0-1.129-0.994-1.223-1.885-1.223h-0.592V10z"/>
	<path fill="#D85527" d="M119.223,14.981c-0.625,0.364-1.342,0.551-2.26,0.551c-2.17,0-3.432-1.312-3.432-3.587
		c0-1.996,1.01-3.65,3.051-3.65c2.436,0,3.125,1.762,3.125,4.179h-4.541c0.074,1.111,0.812,1.746,1.873,1.746
		c0.83,0,1.543-0.322,2.184-0.699V14.981z M118.072,11.236c-0.051-0.872-0.434-1.625-1.389-1.625c-0.959,0-1.443,0.699-1.518,1.625
		H118.072z"/>
	<path fill="#D85527" d="M124.699,9.908c-0.523-0.189-0.906-0.297-1.531-0.297c-0.459,0-1.008,0.174-1.008,0.766
		c0,1.102,2.971,0.402,2.971,2.901c0,1.609-1.363,2.256-2.752,2.256c-0.652,0-1.318-0.121-1.939-0.295l0.1-1.479
		c0.535,0.282,1.098,0.456,1.684,0.456c0.436,0,1.123-0.174,1.123-0.845c0-1.357-2.973-0.428-2.973-2.927
		c0-1.491,1.238-2.148,2.58-2.148c0.803,0,1.324,0.134,1.861,0.254L124.699,9.908z"/>
	<path fill="#D85527" d="M129.156,8.295c1.951,0,3.447,1.385,3.447,3.666c0,1.987-1.266,3.574-3.447,3.574
		c-2.17,0-3.432-1.587-3.432-3.574C125.725,9.68,127.219,8.295,129.156,8.295 M129.156,14.138c1.316,0,1.66-1.236,1.66-2.39
		c0-1.062-0.537-2.055-1.66-2.055c-1.109,0-1.646,1.02-1.646,2.055C127.51,12.888,127.854,14.138,129.156,14.138"/>
	<path fill="#D85527" d="M139.648,15.374h-1.621v-0.941h-0.023c-0.523,0.674-1.264,1.1-2.156,1.1c-1.557,0-2.232-1.151-2.232-2.711
		V8.457h1.709v3.692c0,0.846,0.012,1.988,1.111,1.988c1.234,0,1.504-1.413,1.504-2.296V8.457h1.709V15.374z"/>
	<path fill="#D85527" d="M141.094,8.457h1.516v1.572h0.025c0.078-0.646,0.779-1.732,1.797-1.732c0.168,0,0.346,0,0.527,0.053v1.812
		c-0.154-0.093-0.461-0.146-0.766-0.146c-1.391,0-1.391,1.826-1.391,2.817v2.542h-1.709V8.457z"/>
	<path fill="#D85527" d="M149.996,9.947c-0.307-0.146-0.639-0.254-1.162-0.254c-1.059,0-1.734,0.887-1.734,2.188
		c0,1.275,0.574,2.256,1.771,2.256c0.486,0,1.023-0.186,1.316-0.323l0.076,1.493c-0.496,0.162-1.008,0.227-1.709,0.227
		c-2.156,0-3.242-1.543-3.242-3.652c0-2,1.123-3.587,3.176-3.587c0.689,0,1.191,0.08,1.66,0.229L149.996,9.947z"/>
	<path fill="#D85527" d="M156.316,14.981c-0.627,0.364-1.34,0.551-2.256,0.551c-2.172,0-3.432-1.312-3.432-3.587
		c0-1.996,1.006-3.65,3.047-3.65c2.438,0,3.127,1.762,3.127,4.179h-4.541c0.074,1.111,0.814,1.746,1.873,1.746
		c0.83,0,1.545-0.322,2.182-0.699V14.981z M155.17,11.236c-0.053-0.872-0.434-1.625-1.391-1.625c-0.959,0-1.443,0.699-1.518,1.625
		H155.17z"/>
	<path fill="#D85527" d="M161.795,9.908c-0.523-0.189-0.906-0.297-1.531-0.297c-0.461,0-1.01,0.174-1.01,0.766
		c0,1.102,2.975,0.402,2.975,2.901c0,1.609-1.365,2.256-2.756,2.256c-0.652,0-1.316-0.121-1.941-0.295l0.104-1.479
		c0.537,0.282,1.098,0.456,1.684,0.456c0.432,0,1.123-0.174,1.123-0.845c0-1.357-2.973-0.428-2.973-2.927
		c0-1.491,1.238-2.148,2.576-2.148c0.807,0,1.328,0.134,1.863,0.254L161.795,9.908z"/>
	<path fill="#DF733E" d="M63.87,20.234h1.005l3.574,9.005h-0.928l-0.968-2.412h-4.54l-0.968,2.412h-0.864L63.87,20.234z
		 M64.31,21.087l-1.962,4.967h3.907L64.31,21.087z"/>
	<rect x="69.22" y="19.564" fill="#DF733E" width="0.814" height="9.677"/>
	<path fill="#DF733E" d="M71.451,29.241h0.81v-6.58h-0.81V29.241z M71.451,20.905h0.812V19.82h-0.812V20.905z"/>
	<path fill="#DF733E" d="M73.683,24.208c0-0.504,0-1.02-0.051-1.547h0.788v1.172h0.025c0.272-0.594,0.761-1.33,2.128-1.33
		c1.627,0,2.244,1.088,2.244,2.529v4.205h-0.813v-3.996c0-1.24-0.437-2.039-1.559-2.039c-1.485,0-1.949,1.303-1.949,2.396v3.639
		h-0.813V24.208z"/>
	<path fill="#DF733E" d="M82.092,30.22c-0.309,0.9-0.775,1.807-1.692,1.807c-0.298,0-0.604-0.039-0.878-0.105l0.079-0.695
		c0.156,0.053,0.311,0.104,0.605,0.104c0.697,0,0.93-0.58,1.186-1.434l0.168-0.578l-2.333-6.656h0.888l1.845,5.494l-0.014-0.012
		h0.029l1.893-5.482h0.852L82.092,30.22z"/>
	<path fill="#DF733E" d="M88.623,23.356h-1.496v4.256c0,0.596,0.221,1.084,0.877,1.084c0.311,0,0.518-0.064,0.748-0.152l0.053,0.672
		c-0.195,0.074-0.596,0.178-0.992,0.178c-1.445,0-1.496-0.996-1.496-2.191v-3.846h-1.291v-0.695h1.291v-1.588l0.811-0.283v1.871
		h1.496V23.356z"/>
	<path fill="#DF733E" d="M88.154,31.249c0.117,0.039,0.334,0.08,0.49,0.08c0.826,0,0.889-0.582,0.889-1.264v-7.404h0.812v7.508
		c0,1.059-0.297,1.857-1.48,1.857c-0.35,0-0.582-0.035-0.711-0.066V31.249z M90.346,20.905h-0.811v-1.083h0.811V20.905z"/>
	<path fill="#DF733E" d="M95.539,28.181h-0.027c-0.359,0.787-1.275,1.213-2.088,1.213c-1.871,0-2.168-1.264-2.168-1.857
		c0-2.205,2.35-2.309,4.051-2.309h0.154v-0.336c0-1.121-0.398-1.689-1.496-1.689c-0.684,0-1.328,0.154-1.938,0.541v-0.785
		c0.504-0.246,1.355-0.449,1.938-0.449c1.625,0,2.309,0.732,2.309,2.447v2.904c0,0.529,0,0.928,0.066,1.377h-0.801V28.181z
		 M95.461,25.925h-0.23c-1.408,0-3.086,0.141-3.086,1.588c0,0.861,0.621,1.188,1.369,1.188c1.91,0,1.947-1.666,1.947-2.377V25.925z"
		/>
	<path fill="#DF733E" d="M97.629,24.13c0-0.723,0-0.99-0.051-1.469h0.812v1.266h0.023c0.299-0.738,0.854-1.422,1.693-1.422
		c0.193,0,0.426,0.039,0.566,0.076v0.852c-0.166-0.051-0.385-0.076-0.596-0.076c-1.287,0-1.637,1.443-1.637,2.631v3.254h-0.812
		V24.13z"/>
	<path fill="#DF733E" d="M105.031,28.181h-0.027c-0.359,0.787-1.277,1.213-2.088,1.213c-1.871,0-2.168-1.264-2.168-1.857
		c0-2.205,2.35-2.309,4.051-2.309h0.156v-0.336c0-1.121-0.402-1.689-1.498-1.689c-0.684,0-1.328,0.154-1.936,0.541v-0.785
		c0.504-0.246,1.354-0.449,1.936-0.449c1.625,0,2.309,0.732,2.309,2.447v2.904c0,0.529,0,0.928,0.062,1.377h-0.797V28.181z
		 M104.955,25.925h-0.232c-1.408,0-3.084,0.141-3.084,1.588c0,0.861,0.617,1.188,1.367,1.188c1.91,0,1.949-1.666,1.949-2.377V25.925
		z"/>
	<polygon fill="#DF733E" points="119.08,29.239 118.023,29.239 115.74,21.239 115.713,21.239 113.391,29.239 112.32,29.239 
		109.74,20.235 110.656,20.235 112.877,28.235 112.902,28.235 115.209,20.235 116.279,20.235 118.551,28.235 118.578,28.235 
		120.836,20.235 121.688,20.235 	"/>
	<path fill="#DF733E" d="M122.447,29.241h0.814v-6.58h-0.814V29.241z M122.447,20.905h0.814V19.82h-0.814V20.905z"/>
	<rect x="124.674" y="19.564" fill="#DF733E" width="0.814" height="9.677"/>
	<path fill="#DF733E" d="M132.033,27.69c0,0.502,0,1.02,0.047,1.549h-0.785v-1.174h-0.025c-0.271,0.594-0.762,1.328-2.129,1.328
		c-1.625,0-2.244-1.086-2.244-2.529v-4.203h0.812v3.996c0,1.238,0.438,2.037,1.561,2.037c1.484,0,1.949-1.301,1.949-2.396v-3.637
		h0.814V27.69z"/>
	<path fill="#DF733E" d="M133.471,24.13c0-0.723,0-0.99-0.053-1.469h0.812v1.266h0.025c0.295-0.738,0.85-1.422,1.693-1.422
		c0.191,0,0.422,0.039,0.564,0.076v0.852c-0.168-0.051-0.385-0.076-0.596-0.076c-1.287,0-1.639,1.443-1.639,2.631v3.254h-0.809
		V24.13z"/>
	<path fill="#DF733E" d="M140.873,28.181h-0.029c-0.359,0.787-1.275,1.213-2.09,1.213c-1.869,0-2.166-1.264-2.166-1.857
		c0-2.205,2.348-2.309,4.049-2.309h0.156v-0.336c0-1.121-0.398-1.689-1.496-1.689c-0.686,0-1.328,0.154-1.938,0.541v-0.785
		c0.504-0.246,1.355-0.449,1.938-0.449c1.625,0,2.309,0.732,2.309,2.447v2.904c0,0.529,0,0.928,0.066,1.377h-0.799V28.181z
		 M140.793,25.925h-0.23c-1.408,0-3.086,0.141-3.086,1.588c0,0.861,0.621,1.188,1.369,1.188c1.908,0,1.947-1.666,1.947-2.377V25.925
		z"/>
	<path fill="#DF733E" d="M142.961,24.13c0-0.723,0-0.99-0.051-1.469h0.812v1.266h0.023c0.297-0.738,0.852-1.422,1.693-1.422
		c0.193,0,0.424,0.039,0.564,0.076v0.852c-0.166-0.051-0.387-0.076-0.594-0.076c-1.287,0-1.637,1.443-1.637,2.631v3.254h-0.812
		V24.13z"/>
	<path fill="#DF733E" d="M150.361,28.181h-0.025c-0.359,0.787-1.275,1.213-2.09,1.213c-1.871,0-2.166-1.264-2.166-1.857
		c0-2.205,2.348-2.309,4.051-2.309h0.154v-0.336c0-1.121-0.4-1.689-1.496-1.689c-0.686,0-1.33,0.154-1.936,0.541v-0.785
		c0.502-0.246,1.354-0.449,1.936-0.449c1.625,0,2.309,0.732,2.309,2.447v2.904c0,0.529,0,0.928,0.064,1.377h-0.801V28.181z
		 M150.285,25.925h-0.23c-1.408,0-3.086,0.141-3.086,1.588c0,0.861,0.621,1.188,1.369,1.188c1.908,0,1.947-1.666,1.947-2.377V25.925
		z"/>
	<polygon fill="#F5D1B9" points="122.82,29.093 122.836,29.077 122.803,29.054 	"/>
</g>
</svg>
