<?xml version="1.0" encoding="utf-8"?>
<!-- Generator: Adobe Illustrator 16.0.0, SVG Export Plug-In . SVG Version: 6.00 Build 0)  -->
<!DOCTYPE svg PUBLIC "-//W3C//DTD SVG 1.1//EN" "http://www.w3.org/Graphics/SVG/1.1/DTD/svg11.dtd">
<svg version="1.1" id="Layer_1" xmlns="http://www.w3.org/2000/svg" xmlns:xlink="http://www.w3.org/1999/xlink" x="0px" y="0px"
	 width="216px" height="42px" viewBox="0 0 216 42" enable-background="new 0 0 216 42" xml:space="preserve">
<g>
	<path fill="#4A3291" d="M39.666,16.47c1.16,0.123,1.74,0.999,2.4,2.244c0.661,1.239,1.134,1.211,2.175,1.211
		c1.041,0,0.683,2.319-0.382,1.496c-0.546-0.419-0.769-0.06-3.114,0.435c-3.184,0.668-4.488,0.086-4.604-0.621
		c-0.115-0.654-0.094-1.816,0.971-3.013C38.111,17.091,39.012,16.62,39.666,16.47 M36.754,17.585
		c-1.814,2.141-1.299,3.823-1.081,4.312c0.107,0.253,0.318,0.396,0.803,0.551c2.038,0.637,1.985,1.685,1.985,1.685
		c-1.402-1.04-2.023,0.042-2.023,0.042s-0.826,0.176-1.825-0.365c-0.67-0.359-0.546-3.059-4.839-3.059
		c-0.666,0-1.278,0.069-1.832,0.181l-0.073,0.187c-0.562,1.52-2.531,2.704-3.524,2.829c0,0-0.324-1.033-2.181,0.077
		c0,0,0.078-1.731,2.275-1.796c-1.724-2.156-3.819-0.155-3.819-0.155c-0.378-2.428,0.289-4.076,1.057-5.119
		c1.982-1.866,4.866-3.042,7.989-2.879C32.524,14.229,34.802,15.208,36.754,17.585 M39.61,15.748
		c-0.703,0.178-1.594,0.554-2.41,1.355c-1.755-2.241-4.642-3.431-7.535-3.582c-2.848-0.149-5.516,0.747-7.471,2.304
		c-0.1,0.075-0.199,0.162-0.292,0.243c-0.241,0.212-0.477,0.435-0.696,0.668c0.515-3.453,4.593-5.133,4.593-5.133
		c-0.495-0.537-2.078-0.088-2.078-0.088c3.094-2.969,8.267-0.89,8.267-0.89c0.052-0.688-1.256-1.376-1.256-1.376
		c2.98,0.339,3.588,0.66,3.588,0.66c1.296,0.516,2.288,1.156,3.034,1.833c0.365,0.221,0.652,0.589,0.834,0.886
		C39.158,13.84,39.494,15.038,39.61,15.748"/>
	<polygon fill="#4A3491" points="61,6 63.189,6 66.576,12.995 66.6,12.995 66.6,6 68.307,6 68.307,15.352 66.13,15.352 
		62.729,8.359 62.707,8.359 62.707,15.352 61,15.352 	"/>
	<path fill="#4A3491" d="M70.159,8.813c0.661-0.32,1.553-0.522,2.278-0.522c1.999,0,2.827,0.872,2.827,2.909v0.885
		c0,0.695,0.012,1.22,0.025,1.727c0.014,0.521,0.039,1.006,0.076,1.543h-1.503c-0.063-0.364-0.063-0.818-0.073-1.033h-0.027
		c-0.394,0.764-1.246,1.193-2.025,1.193c-1.158,0-2.29-0.739-2.29-2.053c0-1.03,0.47-1.633,1.117-1.967
		c0.649-0.336,1.492-0.401,2.206-0.401h0.941c0-1.114-0.471-1.49-1.476-1.49c-0.727,0-1.451,0.295-2.023,0.752L70.159,8.813z
		 M72.159,14.2c0.519,0,0.928-0.241,1.194-0.616c0.281-0.389,0.358-0.886,0.358-1.42h-0.74c-0.762,0-1.896,0.134-1.896,1.192
		C71.075,13.946,71.548,14.2,72.159,14.2"/>
	<path fill="#4A3491" d="M77.125,9.767h-1.261V8.451h1.261V7.072l1.706-0.576v1.955h1.514v1.315H78.83v3.214
		c0,0.591,0.152,1.139,0.803,1.139c0.305,0,0.598-0.065,0.775-0.188l0.051,1.423c-0.355,0.105-0.75,0.16-1.258,0.16
		c-1.336,0-2.077-0.871-2.077-2.237V9.767z"/>
	<path fill="#4A3491" d="M87.146,15.353h-1.617v-0.938h-0.025c-0.523,0.67-1.262,1.1-2.152,1.1c-1.553,0-2.229-1.153-2.229-2.707
		V8.453h1.705v3.684c0,0.844,0.014,1.982,1.109,1.982c1.234,0,1.5-1.406,1.5-2.291V8.453h1.709V15.353z"/>
	<path fill="#4A3491" d="M88.584,8.453H90.1v1.566h0.025c0.076-0.642,0.777-1.728,1.795-1.728c0.164,0,0.344,0,0.521,0.054v1.809
		c-0.154-0.093-0.459-0.147-0.764-0.147c-1.387,0-1.387,1.822-1.387,2.813v2.534h-1.707V8.453z"/>
	<path fill="#4A3491" d="M93.277,8.813c0.664-0.32,1.553-0.522,2.281-0.522c1.996,0,2.826,0.872,2.826,2.909v0.885
		c0,0.695,0.01,1.22,0.025,1.727c0.012,0.521,0.035,1.006,0.074,1.543h-1.502c-0.062-0.364-0.062-0.818-0.076-1.033h-0.025
		c-0.396,0.764-1.246,1.193-2.025,1.193c-1.16,0-2.291-0.739-2.291-2.053c0-1.03,0.471-1.633,1.117-1.967
		c0.652-0.336,1.492-0.401,2.205-0.401h0.943c0-1.114-0.473-1.49-1.477-1.49c-0.725,0-1.451,0.295-2.023,0.752L93.277,8.813z
		 M95.277,14.2c0.521,0,0.928-0.241,1.195-0.616c0.281-0.389,0.357-0.886,0.357-1.42h-0.74c-0.762,0-1.896,0.134-1.896,1.192
		C94.193,13.946,94.666,14.2,95.277,14.2"/>
	<rect x="99.766" y="5.305" fill="#4A3491" width="1.705" height="10.05"/>
	<path fill="#4A3491" d="M106.422,6h1.924c1.91,0,4.189-0.066,4.189,2.531c0,1.101-0.701,2.012-1.836,2.172v0.027
		c0.484,0.04,0.766,0.549,0.943,0.964l1.428,3.658h-1.986l-1.07-2.922c-0.256-0.694-0.484-0.964-1.238-0.964h-0.57v3.886h-1.783V6z
		 M108.205,9.994h0.588c0.877,0,1.881-0.135,1.881-1.302c0-1.123-0.992-1.218-1.881-1.218h-0.588V9.994z"/>
	<path fill="#4A3491" d="M119.094,14.965c-0.627,0.361-1.34,0.549-2.256,0.549c-2.164,0-3.424-1.312-3.424-3.578
		c0-1.994,1.008-3.645,3.043-3.645c2.432,0,3.119,1.756,3.119,4.168h-4.533c0.076,1.112,0.812,1.743,1.871,1.743
		c0.828,0,1.541-0.323,2.18-0.698V14.965z M117.945,11.226c-0.049-0.869-0.434-1.62-1.387-1.62c-0.955,0-1.439,0.696-1.516,1.62
		H117.945z"/>
	<path fill="#4A3491" d="M124.557,9.898c-0.521-0.187-0.902-0.295-1.527-0.295c-0.459,0-1.004,0.176-1.004,0.765
		c0,1.099,2.963,0.402,2.963,2.895c0,1.607-1.359,2.249-2.746,2.249c-0.65,0-1.314-0.119-1.938-0.293l0.104-1.475
		c0.533,0.282,1.094,0.456,1.68,0.456c0.434,0,1.119-0.174,1.119-0.844c0-1.353-2.965-0.428-2.965-2.92
		c0-1.488,1.234-2.146,2.572-2.146c0.801,0,1.322,0.135,1.859,0.255L124.557,9.898z"/>
	<path fill="#4A3491" d="M129.006,8.291c1.945,0,3.438,1.382,3.438,3.658c0,1.984-1.262,3.565-3.438,3.565
		c-2.166,0-3.426-1.581-3.426-3.565C125.58,9.673,127.072,8.291,129.006,8.291 M129.006,14.122c1.312,0,1.654-1.233,1.654-2.386
		c0-1.061-0.533-2.052-1.654-2.052c-1.107,0-1.645,1.019-1.645,2.052C127.361,12.875,127.705,14.122,129.006,14.122"/>
	<path fill="#4A3491" d="M139.473,15.353h-1.615v-0.938h-0.023c-0.523,0.67-1.262,1.1-2.152,1.1c-1.555,0-2.229-1.153-2.229-2.707
		V8.453h1.705v3.684c0,0.844,0.012,1.982,1.109,1.982c1.232,0,1.498-1.406,1.498-2.291V8.453h1.707V15.353z"/>
	<path fill="#4A3491" d="M140.916,8.453h1.514v1.566h0.023c0.078-0.642,0.777-1.728,1.795-1.728c0.166,0,0.342,0,0.525,0.054v1.809
		c-0.154-0.093-0.461-0.147-0.764-0.147c-1.389,0-1.389,1.822-1.389,2.813v2.534h-1.705V8.453z"/>
	<path fill="#4A3491" d="M149.797,9.939c-0.303-0.147-0.635-0.256-1.158-0.256c-1.055,0-1.729,0.888-1.729,2.186
		c0,1.272,0.57,2.252,1.768,2.252c0.484,0,1.02-0.188,1.312-0.322l0.076,1.488c-0.496,0.16-1.006,0.227-1.707,0.227
		c-2.152,0-3.232-1.54-3.232-3.645c0-1.995,1.119-3.578,3.168-3.578c0.688,0,1.188,0.081,1.656,0.228L149.797,9.939z"/>
	<path fill="#4A3491" d="M156.105,14.965c-0.625,0.361-1.338,0.549-2.254,0.549c-2.164,0-3.424-1.312-3.424-3.578
		c0-1.994,1.006-3.645,3.041-3.645c2.434,0,3.121,1.756,3.121,4.168h-4.531c0.074,1.112,0.812,1.743,1.869,1.743
		c0.828,0,1.543-0.323,2.178-0.698V14.965z M154.959,11.226c-0.051-0.869-0.432-1.62-1.387-1.62s-1.439,0.696-1.514,1.62H154.959z"
		/>
	<path fill="#4A3491" d="M161.572,9.898c-0.523-0.187-0.906-0.295-1.529-0.295c-0.459,0-1.006,0.176-1.006,0.765
		c0,1.099,2.967,0.402,2.967,2.895c0,1.607-1.361,2.249-2.75,2.249c-0.65,0-1.312-0.119-1.936-0.293l0.102-1.475
		c0.535,0.282,1.096,0.456,1.682,0.456c0.43,0,1.117-0.174,1.117-0.844c0-1.353-2.965-0.428-2.965-2.92
		c0-1.488,1.236-2.146,2.572-2.146c0.803,0,1.324,0.135,1.857,0.255L161.572,9.898z"/>
	<path fill="#6F5BA7" d="M63.863,20.204h1.003l3.566,8.984h-0.926l-0.966-2.407h-4.53l-0.966,2.407h-0.862L63.863,20.204z
		 M64.301,21.054l-1.957,4.956h3.898L64.301,21.054z"/>
	<path fill="#6F5BA7" d="M74.235,29.188h-0.812v-1.041h-0.025c-0.438,0.836-1.107,1.196-2.047,1.196
		c-1.803,0-2.702-1.494-2.702-3.438c0-1.993,0.774-3.438,2.702-3.438c1.288,0,1.932,0.939,2.047,1.264h0.025v-4.198h0.812V29.188z
		 M71.481,28.649c1.438,0,1.942-1.545,1.942-2.743c0-1.195-0.504-2.741-1.942-2.741c-1.545,0-1.944,1.468-1.944,2.741
		C69.538,27.183,69.937,28.649,71.481,28.649"/>
	<path fill="#6F5BA7" d="M80.146,28.983c-0.566,0.23-1.301,0.36-1.904,0.36c-2.175,0-2.988-1.466-2.988-3.435
		c0-2.012,1.108-3.44,2.767-3.44c1.855,0,2.613,1.496,2.613,3.259v0.411h-4.491c0,1.391,0.746,2.511,2.163,2.511
		c0.592,0,1.455-0.245,1.84-0.489V28.983z M79.748,25.443c0-1.145-0.465-2.278-1.674-2.278c-1.197,0-1.93,1.198-1.93,2.278H79.748z"
		/>
	<rect x="81.646" y="19.534" fill="#6F5BA7" width="0.812" height="9.656"/>
	<path fill="#6F5BA7" d="M87.656,28.132h-0.025c-0.359,0.787-1.275,1.212-2.082,1.212c-1.869,0-2.166-1.261-2.166-1.854
		c0-2.2,2.344-2.304,4.041-2.304h0.154v-0.336c0-1.118-0.398-1.686-1.492-1.686c-0.682,0-1.326,0.153-1.93,0.541V22.92
		c0.502-0.244,1.352-0.448,1.93-0.448c1.621,0,2.305,0.732,2.305,2.446v2.896c0,0.525,0,0.927,0.064,1.377h-0.799V28.132z
		 M87.578,25.883h-0.23c-1.4,0-3.074,0.14-3.074,1.581c0,0.862,0.615,1.186,1.361,1.186c1.906,0,1.943-1.659,1.943-2.368V25.883z"/>
	<path fill="#6F5BA7" d="M89.75,29.188h0.811v-6.564H89.75V29.188z M89.75,20.875h0.811v-1.082H89.75V20.875z"/>
	<path fill="#6F5BA7" d="M97.256,29.188h-0.812v-1.041h-0.025c-0.436,0.836-1.105,1.196-2.045,1.196
		c-1.803,0-2.703-1.494-2.703-3.438c0-1.993,0.771-3.438,2.703-3.438c1.287,0,1.93,0.939,2.045,1.264h0.025v-4.198h0.812V29.188z
		 M94.502,28.649c1.441,0,1.941-1.545,1.941-2.743c0-1.195-0.5-2.741-1.941-2.741c-1.545,0-1.943,1.468-1.943,2.741
		C92.559,27.183,92.957,28.649,94.502,28.649"/>
	<path fill="#6F5BA7" d="M103.17,28.983c-0.566,0.23-1.301,0.36-1.906,0.36c-2.174,0-2.984-1.466-2.984-3.435
		c0-2.012,1.107-3.44,2.766-3.44c1.855,0,2.613,1.496,2.613,3.259v0.411h-4.494c0,1.391,0.746,2.511,2.164,2.511
		c0.594,0,1.457-0.245,1.842-0.489V28.983z M102.77,25.443c0-1.145-0.463-2.278-1.674-2.278c-1.195,0-1.932,1.198-1.932,2.278
		H102.77z"/>
	<polygon fill="#6F5BA7" points="132.523,20.204 133.9,20.204 137.184,28.106 140.479,20.204 141.752,20.204 141.752,29.19 
		140.865,29.19 140.865,21.092 140.84,21.092 137.568,29.19 136.811,29.19 133.438,21.092 133.41,21.092 133.41,29.19 
		132.523,29.19 	"/>
	<path fill="#6F5BA7" d="M146.207,23.32h-1.492v4.247c0,0.591,0.219,1.08,0.873,1.08c0.312,0,0.516-0.062,0.748-0.153l0.053,0.671
		c-0.193,0.077-0.592,0.179-0.992,0.179c-1.439,0-1.494-0.992-1.494-2.188V23.32h-1.287v-0.696h1.287V21.04l0.812-0.282v1.866h1.492
		V23.32z"/>
	<polygon fill="#6F5BA7" points="150.609,20.204 151.498,20.204 151.498,28.419 155.105,28.419 155.105,29.19 150.609,29.19 	"/>
	<path fill="#6F5BA7" d="M158.365,22.472c2.125,0,3.064,1.646,3.064,3.435c0,1.791-0.939,3.438-3.064,3.438
		s-3.064-1.646-3.064-3.438C155.301,24.118,156.24,22.472,158.365,22.472 M158.365,28.649c1.414,0,2.176-1.224,2.176-2.743
		c0-1.517-0.762-2.741-2.176-2.741c-1.416,0-2.178,1.225-2.178,2.741C156.188,27.426,156.949,28.649,158.365,28.649"/>
	<path fill="#6F5BA7" d="M162.881,23.32h-1.324v-0.696h1.324v-0.476c0-1.38,0.053-2.767,1.736-2.767
		c0.258,0,0.605,0.036,0.762,0.129l-0.053,0.707c-0.168-0.091-0.41-0.141-0.643-0.141c-1.107,0-0.99,1.196-0.99,1.98v0.566h1.479
		v0.696h-1.479v5.868h-0.812V23.32z"/>
	<path fill="#6F5BA7" d="M169.207,23.32h-1.492v4.247c0,0.591,0.219,1.08,0.875,1.08c0.311,0,0.514-0.062,0.748-0.153l0.049,0.671
		c-0.195,0.077-0.59,0.179-0.988,0.179c-1.445,0-1.498-0.992-1.498-2.188V23.32h-1.285v-0.696h1.285V21.04l0.814-0.282v1.866h1.492
		V23.32z"/>
	<path fill="#6F5BA7" d="M172.447,30.166c-0.309,0.903-0.773,1.805-1.689,1.805c-0.297,0-0.604-0.039-0.875-0.104l0.078-0.696
		c0.156,0.052,0.309,0.104,0.604,0.104c0.699,0,0.93-0.58,1.184-1.427l0.168-0.579l-2.328-6.645h0.887l1.84,5.484l-0.012-0.013
		h0.029l1.889-5.472h0.85L172.447,30.166z"/>
	<path fill="#6F5BA7" d="M179.256,20.204h2.316c1.596,0,2.639,0.684,2.639,2.33c0,1.159-0.887,1.933-1.998,2.073v0.025
		c0.725,0.091,0.879,0.477,1.162,1.082l1.533,3.474h-0.98l-1.297-3.036c-0.516-1.16-0.904-1.196-1.752-1.196h-0.734v4.232h-0.889
		V20.204z M180.145,24.183h0.939c1.045,0,2.24-0.398,2.24-1.648c0-1.465-1.043-1.559-2.266-1.559h-0.914V24.183z"/>
	<path fill="#6F5BA7" d="M189.566,28.132h-0.027c-0.357,0.787-1.273,1.212-2.084,1.212c-1.867,0-2.162-1.261-2.162-1.854
		c0-2.2,2.342-2.304,4.041-2.304h0.154v-0.336c0-1.118-0.398-1.686-1.496-1.686c-0.678,0-1.322,0.153-1.928,0.541V22.92
		c0.502-0.244,1.352-0.448,1.928-0.448c1.627,0,2.305,0.732,2.305,2.446v2.896c0,0.525,0,0.927,0.066,1.377h-0.797V28.132z
		 M189.488,25.883h-0.23c-1.402,0-3.078,0.14-3.078,1.581c0,0.862,0.617,1.186,1.365,1.186c1.906,0,1.943-1.659,1.943-2.368V25.883z
		"/>
	<path fill="#6F5BA7" d="M191.652,24.17c0-0.503,0-1.018-0.053-1.546h0.785v1.173h0.025c0.271-0.593,0.76-1.328,2.125-1.328
		c1.623,0,2.24,1.082,2.24,2.523v4.196h-0.811v-3.989c0-1.234-0.439-2.034-1.561-2.034c-1.48,0-1.941,1.3-1.941,2.395v3.629h-0.811
		V24.17z"/>
	<path fill="#6F5BA7" d="M203.428,28.649c0,1.827-0.822,3.318-3.076,3.318c-0.865,0-1.648-0.243-1.98-0.345l0.061-0.812
		c0.502,0.259,1.225,0.464,1.934,0.464c2.082,0,2.264-1.52,2.264-3.373h-0.023c-0.441,0.953-1.158,1.289-1.996,1.289
		c-2.1,0-2.768-1.83-2.768-3.281c0-1.996,0.771-3.44,2.701-3.44c0.877,0,1.441,0.117,2.047,0.903h0.027v-0.748h0.811V28.649z
		 M200.621,28.494c1.469,0,1.996-1.39,1.996-2.585c0-1.584-0.465-2.744-1.945-2.744c-1.543,0-1.945,1.468-1.945,2.744
		C198.727,27.192,199.246,28.494,200.621,28.494"/>
	<path fill="#6F5BA7" d="M209.34,28.983c-0.566,0.23-1.301,0.36-1.906,0.36c-2.174,0-2.986-1.466-2.986-3.435
		c0-2.012,1.107-3.44,2.77-3.44c1.854,0,2.611,1.496,2.611,3.259v0.411h-4.492c0,1.391,0.748,2.511,2.166,2.511
		c0.588,0,1.453-0.245,1.838-0.489V28.983z M208.941,25.443c0-1.145-0.465-2.278-1.674-2.278c-1.197,0-1.932,1.198-1.932,2.278
		H208.941z"/>
	<path fill="#6F5BA7" d="M210.393,28.235c0.488,0.246,1.082,0.414,1.711,0.414c0.775,0,1.453-0.427,1.453-1.175
		c0-1.556-3.15-1.31-3.15-3.215c0-1.299,1.055-1.788,2.135-1.788c0.35,0,1.043,0.075,1.623,0.295l-0.076,0.707
		c-0.426-0.194-1.006-0.309-1.457-0.309c-0.836,0-1.414,0.257-1.414,1.095c0,1.222,3.23,1.069,3.23,3.215
		c0,1.393-1.301,1.869-2.291,1.869c-0.631,0-1.264-0.078-1.84-0.309L210.393,28.235z"/>
	<path fill="#6F5BA7" d="M112.539,28.067h-0.027c-0.359,0.787-1.273,1.211-2.084,1.211c-1.869,0-2.164-1.263-2.164-1.855
		c0-2.2,2.342-2.304,4.043-2.304h0.154v-0.334c0-1.12-0.402-1.688-1.496-1.688c-0.68,0-1.326,0.155-1.93,0.541v-0.786
		c0.504-0.241,1.352-0.448,1.93-0.448c1.625,0,2.305,0.732,2.305,2.446v2.896c0,0.528,0,0.927,0.064,1.377h-0.795V28.067z
		 M112.461,25.815h-0.232c-1.402,0-3.076,0.143-3.076,1.582c0,0.861,0.617,1.185,1.365,1.185c1.906,0,1.943-1.658,1.943-2.37V25.815
		z"/>
	<path fill="#6F5BA7" d="M114.623,24.103c0-0.502,0-1.018-0.053-1.546h0.787v1.173h0.023c0.271-0.593,0.76-1.328,2.127-1.328
		c1.623,0,2.238,1.085,2.238,2.526v4.195h-0.811v-3.988c0-1.239-0.438-2.034-1.559-2.034c-1.482,0-1.943,1.299-1.943,2.392v3.631
		h-0.811V24.103z"/>
	<path fill="#6F5BA7" d="M126.422,29.123h-0.816V28.08h-0.021c-0.439,0.836-1.107,1.198-2.047,1.198
		c-1.805,0-2.703-1.493-2.703-3.437c0-1.996,0.771-3.438,2.703-3.438c1.285,0,1.932,0.939,2.047,1.261h0.021V19.47h0.816V29.123z
		 M123.664,28.582c1.441,0,1.941-1.545,1.941-2.74c0-1.198-0.5-2.744-1.941-2.744c-1.545,0-1.943,1.471-1.943,2.744
		S122.119,28.582,123.664,28.582"/>
</g>
</svg>
