<?xml version="1.0" encoding="utf-8"?>
<!-- Generator: Adobe Illustrator 16.0.0, SVG Export Plug-In . SVG Version: 6.00 Build 0)  -->
<!DOCTYPE svg PUBLIC "-//W3C//DTD SVG 1.1//EN" "http://www.w3.org/Graphics/SVG/1.1/DTD/svg11.dtd">
<svg version="1.1" id="Layer_1" xmlns="http://www.w3.org/2000/svg" xmlns:xlink="http://www.w3.org/1999/xlink" x="0px" y="0px"
	 width="216px" height="42px" viewBox="0 0 216 42" enable-background="new 0 0 216 42" xml:space="preserve">
<g>
	<path fill="#4F8AAA" d="M24.192,15.609c1.65-5.032,3.909-6.327,4.994-6.656c-0.064,1.102-0.742,5.944-7.525,11.935
		C22.492,19.701,23.407,17.998,24.192,15.609 M19.219,23.557c-0.145,0.008-0.039-0.062,0.236-0.28
		c1.679-1.154,9.375-6.833,10.273-14.356c0.086-0.08,0.642-1.129,1.179-1.764c0,0,1.12-1.361,1.276-1.398
		c0.002,0.026,4.053,5.059,3.895,11.094c-0.126,4.736-2.051,8.155-3.459,10.033c1.662-4.752,1.691-9.383,0.511-13.398
		c-1.23-4.135-0.187-5.391,0.087-5.678c0,0-0.365-0.906-0.939-1.319c-0.1,0.048-0.189,0.093-0.363,0.197
		c-1.049,0.661-1.518,1.522-1.83,2.208c-0.385,0.828,1.346,2.575,0,5.227C27.784,18.66,20.666,23.492,19.219,23.557 M34.041,7.705
		c1.405,0.129,4.007,1.248,3.887,7.77c-0.149,8.699-5.228,12.577-5.899,13.052c0,0,5.287-5.437,4.593-13.445
		C36.372,12.189,35.303,9.701,34.041,7.705"/>
	<polygon fill="#4F8AAA" points="61,6 63.193,6 66.588,13.012 66.611,13.012 66.611,6 68.322,6 68.322,15.373 66.141,15.373 
		62.732,8.364 62.711,8.364 62.711,15.373 61,15.373 	"/>
	<path fill="#4F8AAA" d="M70.18,8.82c0.662-0.322,1.557-0.523,2.283-0.523c2.004,0,2.832,0.872,2.832,2.913v0.886
		c0,0.699,0.012,1.223,0.027,1.734c0.012,0.521,0.037,1.006,0.074,1.542h-1.506c-0.062-0.362-0.062-0.817-0.074-1.032h-0.025
		c-0.395,0.765-1.25,1.194-2.029,1.194c-1.162,0-2.295-0.739-2.295-2.054c0-1.035,0.471-1.641,1.119-1.975
		c0.65-0.338,1.496-0.402,2.209-0.402h0.945c0-1.115-0.473-1.492-1.48-1.492c-0.729,0-1.453,0.296-2.027,0.752L70.18,8.82z
		 M72.184,14.219c0.52,0,0.932-0.24,1.197-0.618c0.281-0.39,0.359-0.889,0.359-1.423h-0.742c-0.764,0-1.9,0.134-1.9,1.194
		C71.098,13.963,71.57,14.219,72.184,14.219"/>
	<path fill="#4F8AAA" d="M77.16,9.773h-1.264V8.457h1.264V7.074l1.711-0.577v1.96h1.516v1.316h-1.516v3.221
		c0,0.594,0.154,1.143,0.803,1.143c0.305,0,0.602-0.066,0.777-0.188l0.051,1.424c-0.357,0.107-0.75,0.161-1.262,0.161
		c-1.338,0-2.08-0.872-2.08-2.241V9.773z"/>
	<path fill="#4F8AAA" d="M87.205,15.373h-1.621v-0.94h-0.027c-0.521,0.673-1.264,1.103-2.156,1.103
		c-1.557,0-2.232-1.156-2.232-2.713V8.457h1.709v3.694c0,0.845,0.014,1.985,1.111,1.985c1.236,0,1.504-1.409,1.504-2.297V8.457
		h1.713V15.373z"/>
	<path fill="#4F8AAA" d="M88.646,8.457h1.518v1.572h0.025c0.076-0.645,0.779-1.734,1.799-1.734c0.164,0,0.344,0,0.523,0.055v1.814
		c-0.154-0.094-0.461-0.148-0.764-0.148c-1.393,0-1.393,1.826-1.393,2.818v2.54h-1.709V8.457z"/>
	<path fill="#4F8AAA" d="M93.35,8.82c0.664-0.322,1.557-0.523,2.285-0.523c2.002,0,2.832,0.872,2.832,2.913v0.886
		c0,0.699,0.01,1.223,0.027,1.734c0.012,0.521,0.035,1.006,0.074,1.542h-1.504C97,15.01,97,14.555,96.986,14.34h-0.025
		c-0.398,0.765-1.25,1.194-2.029,1.194c-1.162,0-2.295-0.739-2.295-2.054c0-1.035,0.471-1.641,1.119-1.975
		c0.652-0.338,1.496-0.402,2.209-0.402h0.945c0-1.115-0.475-1.492-1.48-1.492c-0.727,0-1.453,0.296-2.027,0.752L93.35,8.82z
		 M95.354,14.219c0.523,0,0.93-0.24,1.199-0.618c0.281-0.39,0.357-0.889,0.357-1.423h-0.742c-0.764,0-1.9,0.134-1.9,1.194
		C94.268,13.963,94.74,14.219,95.354,14.219"/>
	<rect x="99.85" y="5.302" fill="#4F8AAA" width="1.711" height="10.072"/>
	<path fill="#4F8AAA" d="M106.523,5.999h1.928c1.914,0,4.199-0.065,4.199,2.538c0,1.103-0.703,2.016-1.84,2.176v0.027
		c0.484,0.039,0.766,0.55,0.945,0.967l1.432,3.666h-1.992l-1.074-2.929c-0.254-0.696-0.484-0.966-1.238-0.966h-0.574v3.895h-1.785
		V5.999z M108.309,10.002h0.59c0.879,0,1.887-0.135,1.887-1.305c0-1.125-0.994-1.22-1.887-1.22h-0.59V10.002z"/>
	<path fill="#4F8AAA" d="M119.223,14.984c-0.627,0.362-1.342,0.549-2.26,0.549c-2.17,0-3.432-1.314-3.432-3.585
		c0-2,1.008-3.652,3.049-3.652c2.438,0,3.127,1.759,3.127,4.177h-4.543c0.076,1.114,0.814,1.746,1.875,1.746
		c0.83,0,1.543-0.322,2.184-0.698V14.984z M118.072,11.237c-0.051-0.872-0.434-1.626-1.391-1.626s-1.441,0.699-1.518,1.626H118.072z
		"/>
	<path fill="#4F8AAA" d="M124.699,9.908c-0.525-0.188-0.906-0.297-1.533-0.297c-0.457,0-1.006,0.176-1.006,0.768
		c0,1.101,2.971,0.401,2.971,2.9c0,1.61-1.363,2.256-2.752,2.256c-0.652,0-1.318-0.121-1.941-0.296l0.102-1.478
		c0.535,0.281,1.098,0.457,1.684,0.457c0.434,0,1.123-0.176,1.123-0.846c0-1.357-2.973-0.429-2.973-2.929
		c0-1.49,1.238-2.148,2.578-2.148c0.803,0,1.326,0.136,1.863,0.257L124.699,9.908z"/>
	<path fill="#4F8AAA" d="M129.156,8.296c1.951,0,3.445,1.384,3.445,3.665c0,1.988-1.266,3.574-3.445,3.574
		c-2.17,0-3.434-1.586-3.434-3.574C125.723,9.68,127.219,8.296,129.156,8.296 M129.156,14.139c1.316,0,1.658-1.237,1.658-2.392
		c0-1.062-0.535-2.054-1.658-2.054c-1.109,0-1.646,1.018-1.646,2.054C127.51,12.889,127.854,14.139,129.156,14.139"/>
	<path fill="#4F8AAA" d="M139.648,15.373h-1.621v-0.94h-0.023c-0.521,0.673-1.264,1.103-2.156,1.103
		c-1.559,0-2.232-1.156-2.232-2.713V8.457h1.709v3.694c0,0.845,0.012,1.985,1.111,1.985c1.234,0,1.502-1.409,1.502-2.297V8.457
		h1.711V15.373z"/>
	<path fill="#4F8AAA" d="M141.092,8.457h1.52v1.572h0.023c0.078-0.645,0.777-1.734,1.797-1.734c0.168,0,0.346,0,0.527,0.055v1.814
		c-0.154-0.094-0.461-0.148-0.766-0.148c-1.391,0-1.391,1.826-1.391,2.818v2.54h-1.711V8.457z"/>
	<path fill="#4F8AAA" d="M149.996,9.948c-0.307-0.147-0.639-0.255-1.162-0.255c-1.057,0-1.734,0.887-1.734,2.188
		c0,1.274,0.574,2.257,1.771,2.257c0.486,0,1.021-0.188,1.316-0.322l0.076,1.49c-0.496,0.16-1.008,0.228-1.709,0.228
		c-2.156,0-3.242-1.544-3.242-3.652c0-2.001,1.123-3.586,3.176-3.586c0.689,0,1.189,0.081,1.66,0.229L149.996,9.948z"/>
	<path fill="#4F8AAA" d="M156.316,14.984c-0.627,0.362-1.34,0.549-2.258,0.549c-2.17,0-3.432-1.314-3.432-3.585
		c0-2,1.008-3.652,3.049-3.652c2.438,0,3.127,1.759,3.127,4.177h-4.543c0.076,1.114,0.814,1.746,1.875,1.746
		c0.83,0,1.545-0.322,2.182-0.698V14.984z M155.17,11.237c-0.053-0.872-0.436-1.626-1.391-1.626c-0.959,0-1.443,0.699-1.52,1.626
		H155.17z"/>
	<path fill="#4F8AAA" d="M161.795,9.908c-0.523-0.188-0.906-0.297-1.531-0.297c-0.461,0-1.01,0.176-1.01,0.768
		c0,1.101,2.973,0.401,2.973,2.9c0,1.61-1.363,2.256-2.756,2.256c-0.652,0-1.314-0.121-1.939-0.296l0.102-1.478
		c0.537,0.281,1.098,0.457,1.686,0.457c0.432,0,1.121-0.176,1.121-0.846c0-1.357-2.973-0.429-2.973-2.929
		c0-1.49,1.24-2.148,2.58-2.148c0.803,0,1.328,0.136,1.859,0.257L161.795,9.908z"/>
	<polygon fill="#70A2BB" points="61.121,20.235 65.535,20.235 65.535,21.01 62.012,21.01 62.012,24.221 65.354,24.221 
		65.354,24.994 62.012,24.994 62.012,28.467 65.688,28.467 65.688,29.241 61.121,29.241 	"/>
	<path fill="#70A2BB" d="M68.75,30.221c-0.307,0.901-0.771,1.807-1.689,1.807c-0.297,0-0.605-0.039-0.877-0.103l0.076-0.699
		c0.156,0.052,0.311,0.105,0.607,0.105c0.697,0,0.93-0.583,1.186-1.434l0.17-0.58l-2.334-6.658h0.891l1.844,5.498l-0.014-0.016
		h0.025l1.896-5.482h0.852L68.75,30.221z"/>
	<path fill="#70A2BB" d="M72.078,24.131c0-0.722,0-0.992-0.053-1.471h0.812v1.265h0.027c0.295-0.736,0.85-1.42,1.689-1.42
		c0.193,0,0.428,0.04,0.568,0.078v0.852c-0.17-0.053-0.387-0.078-0.594-0.078c-1.291,0-1.639,1.446-1.639,2.632v3.252h-0.812V24.131
		z"/>
	<path fill="#70A2BB" d="M80.158,29.032c-0.568,0.231-1.305,0.362-1.91,0.362c-2.18,0-2.992-1.471-2.992-3.443
		c0-2.015,1.109-3.446,2.771-3.446c1.859,0,2.619,1.497,2.619,3.263v0.414h-4.502c0,1.395,0.75,2.515,2.168,2.515
		c0.594,0,1.459-0.243,1.846-0.49V29.032z M79.756,25.485c0-1.149-0.463-2.284-1.674-2.284c-1.201,0-1.938,1.201-1.938,2.284H79.756
		z"/>
	<path fill="#70A2BB" d="M85.23,20.234h2.217c1.689,0,2.789,0.854,2.789,2.556c0,1.677-1.266,2.554-2.879,2.554h-1.238v3.896H85.23
		V20.234z M86.119,24.569h0.619c1.342,0,2.605-0.155,2.605-1.779c0-1.136-0.645-1.781-1.781-1.781h-1.443V24.569z"/>
	<path fill="#70A2BB" d="M95.443,29.032c-0.57,0.231-1.303,0.362-1.91,0.362c-2.18,0-2.994-1.471-2.994-3.443
		c0-2.015,1.111-3.446,2.773-3.446c1.859,0,2.619,1.497,2.619,3.263v0.414H91.43c0,1.395,0.748,2.515,2.166,2.515
		c0.594,0,1.461-0.243,1.848-0.49V29.032z M95.043,25.485c0-1.149-0.467-2.284-1.678-2.284c-1.201,0-1.936,1.201-1.936,2.284H95.043
		z"/>
	<path fill="#70A2BB" d="M96.934,24.209c0-0.505,0-1.021-0.053-1.549h0.787v1.174h0.025c0.271-0.594,0.762-1.329,2.129-1.329
		c1.625,0,2.246,1.084,2.246,2.53v4.203h-0.812V25.24c0-1.237-0.439-2.038-1.562-2.038c-1.484,0-1.949,1.303-1.949,2.398v3.638
		h-0.811V24.209z"/>
	<path fill="#70A2BB" d="M103.486,29.238h0.811V22.66h-0.811V29.238z M103.486,20.906h0.811v-1.083h-0.811V20.906z"/>
	<path fill="#70A2BB" d="M105.721,24.209c0-0.505,0-1.021-0.051-1.549h0.789v1.174h0.023c0.271-0.594,0.762-1.329,2.129-1.329
		c1.627,0,2.244,1.084,2.244,2.53v4.203h-0.812V25.24c0-1.237-0.438-2.038-1.559-2.038c-1.486,0-1.949,1.303-1.949,2.398v3.638
		h-0.814V24.209z"/>
	<path fill="#70A2BB" d="M111.758,28.285c0.488,0.245,1.084,0.413,1.715,0.413c0.775,0,1.455-0.426,1.455-1.174
		c0-1.561-3.158-1.318-3.158-3.225c0-1.305,1.059-1.792,2.143-1.792c0.348,0,1.043,0.076,1.625,0.295l-0.076,0.71
		c-0.426-0.194-1.008-0.311-1.459-0.311c-0.84,0-1.418,0.259-1.418,1.098c0,1.225,3.238,1.07,3.238,3.225
		c0,1.393-1.303,1.871-2.297,1.871c-0.631,0-1.266-0.078-1.844-0.312L111.758,28.285z"/>
	<path fill="#70A2BB" d="M121.766,27.691c0,0.502,0,1.02,0.049,1.549h-0.787v-1.174h-0.021c-0.271,0.594-0.764,1.329-2.131,1.329
		c-1.627,0-2.244-1.087-2.244-2.53V22.66h0.812v3.997c0,1.24,0.438,2.039,1.561,2.039c1.486,0,1.949-1.301,1.949-2.397V22.66h0.812
		V27.691z"/>
	<rect x="123.195" y="19.562" fill="#70A2BB" width="0.811" height="9.676"/>
	<path fill="#70A2BB" d="M129.221,28.181h-0.027c-0.359,0.788-1.275,1.214-2.09,1.214c-1.869,0-2.166-1.265-2.166-1.858
		c0-2.205,2.346-2.308,4.051-2.308h0.154v-0.337c0-1.122-0.398-1.689-1.496-1.689c-0.684,0-1.328,0.153-1.936,0.541v-0.787
		c0.502-0.244,1.354-0.45,1.936-0.45c1.625,0,2.311,0.734,2.311,2.451v2.901c0,0.529,0,0.931,0.062,1.38h-0.799V28.181z
		 M129.143,25.924h-0.23c-1.408,0-3.086,0.143-3.086,1.587c0,0.864,0.617,1.186,1.369,1.186c1.908,0,1.947-1.662,1.947-2.372V25.924
		z"/>
	<polygon fill="#C7D5E1" points="127.711,9.657 127.711,9.66 127.73,9.631 	"/>
</g>
</svg>
