<?xml version="1.0" encoding="utf-8"?>
<!-- Generator: Adobe Illustrator 16.0.0, SVG Export Plug-In . SVG Version: 6.00 Build 0)  -->
<!DOCTYPE svg PUBLIC "-//W3C//DTD SVG 1.1//EN" "http://www.w3.org/Graphics/SVG/1.1/DTD/svg11.dtd">
<svg version="1.1" id="KI" xmlns="http://www.w3.org/2000/svg" xmlns:xlink="http://www.w3.org/1999/xlink" x="0px" y="0px"
	 width="358px" height="409px" viewBox="0 0 358 409" enable-background="new 0 0 358 409" xml:space="preserve">
<g>
	<path fill="#008C99" d="M243.258,337.681c-0.273,0-0.541-0.112-0.734-0.322l-1.886-2.043c-0.262-0.284-0.979-0.384-1.503-0.458
		l-0.358-0.058c-0.113-0.019-0.221-0.037-0.319-0.062c-0.166-0.037-0.347-0.089-0.521-0.141c-0.295-0.09-0.592-0.182-0.838-0.182
		c-0.192,0-0.354,0.055-0.506,0.173c-0.155,0.123-0.319,0.271-0.484,0.424c-0.558,0.497-1.219,1.086-2.068,1.086
		c-0.045,0-0.089-0.003-0.133-0.009c-0.294-0.04-0.576-0.098-0.863-0.159l-0.215-0.046c-0.587-0.128-1.251-0.273-1.828-0.273
		l-0.214,0.008c-0.152,0.009-0.511,0.17-0.798,0.299c-0.619,0.28-0.945,0.415-1.251,0.441c-0.028,0.002-0.058,0.004-0.087,0.004
		c-0.123,0-0.244-0.022-0.359-0.067c-0.27-0.104-0.48-0.217-0.688-0.338c-0.195-0.107-0.773-0.425-1.203-0.425
		c-0.086,0-0.164,0.013-0.225,0.039l-2.577,1.039c-0.12,0.049-0.247,0.073-0.374,0.073c-0.154,0-0.308-0.036-0.448-0.106
		c-0.257-0.129-0.445-0.362-0.519-0.639l-0.524-1.991c-0.098-0.145-0.728-0.352-1.104-0.475l-0.147-0.049
		c-0.472-0.158-0.748-0.255-0.966-0.429c-0.459-0.438-1.254-1.76-1.358-2.01c-0.061-0.145-0.087-0.302-0.075-0.459
		c0.039-0.544,0.309-0.946,0.505-1.24c0.213-0.319,0.434-0.651,0.461-1.062c0.004-0.097-0.002-0.257-0.007-0.422
		c-0.008-0.18-0.014-0.305-0.02-0.392c-0.117-0.25-0.127-0.541-0.021-0.801c0.121-0.298,0.379-0.52,0.691-0.596l0.125-0.03
		l3.291-1.15c1.608-0.558,2.82-0.813,4.633-0.977c0.422-0.041,0.954-0.041,1.517-0.041c1.41-0.008,3.155-0.019,3.899-0.568
		c1.783-1.318,3.382-1.833,5.407-2.484c0.354-0.112,0.686-0.161,1.047-0.161c0.624,0,1.244,0.15,1.826,0.304
		c0.55,0.149,1.063,0.288,1.588,0.288c0.131,0,0.262-0.009,0.397-0.028c0.076-0.012,0.22-0.116,0.325-0.191
		c0.181-0.131,0.457-0.24,0.69-0.24c0.023,0,0.201,0.017,0.201,0.017c0.24,0.025,0.463,0.136,0.628,0.313
		c0.012,0.013,0.022,0.023,0.032,0.034l0.902-0.292c0.102-0.033,0.205-0.048,0.308-0.048c0.303,0,0.597,0.138,0.789,0.386
		c0.259,0.332,0.281,0.79,0.058,1.146c0,0-0.181,0.291-0.207,0.336l0.763,0.282c0.299,0.11,0.526,0.355,0.615,0.66
		c0.088,0.305,0.026,0.634-0.168,0.887l-0.926,1.207c0.896,0.174,1.577,0.245,2.303,0.245c0.56,0,1.168-0.042,1.975-0.138
		l0.131-0.017c0.043-0.005,0.086-0.008,0.129-0.008c0.278,0,0.547,0.117,0.738,0.325c0.22,0.241,0.309,0.573,0.238,0.892
		l-0.031,0.141c-0.028,0.113-0.064,0.241-0.116,0.372c0.822-0.144,1.388-0.289,1.638-0.389l0.098-0.164
		c0.091-0.147,0.159-0.27,0.218-0.374c0.406-0.713,0.705-0.971,1.584-1.021c0.002,0,0.004,0,0.006,0
		c0.645,0,1.299,0.268,1.932,0.526l0.291,0.119c0.192,0.078,0.37,0.152,0.521,0.198c0.067,0.021,0.132,0.048,0.193,0.082
		c0.476,0.263,0.703,0.767,0.973,1.45c0.094,0.237,0.137,0.353,0.186,0.443c0.073,0.148,0.104,0.148,0.188,0.148
		c0,0,0.241-0.01,0.255-0.01c0.445,0,0.831,0.294,0.956,0.711c0.146,0.132,0.254,0.308,0.302,0.511
		c0.107,0.451-0.109,0.917-0.524,1.124l-0.176,0.089c-0.071,0.054-0.152,0.114-0.229,0.168c-0.174,0.112-0.281,0.187-0.404,0.278
		c-0.07,0.054-0.189,0.155-0.329,0.278c-0.328,0.303-0.811,0.715-1.145,0.871c-0.134,0.062-0.278,0.094-0.423,0.094
		c-0.113,0-0.226-0.019-0.334-0.058c-0.372-0.132-0.645-0.264-0.902-0.396c-1.119-0.56-2.182-1.09-3.409-1.194l-0.371-0.031
		c-0.005,0-2.081-0.005-2.786-0.007c-0.037,0.016-0.074,0.029-0.109,0.038c-0.484,0.122-0.974,0.312-1.543,0.599
		c0.001,0-0.38,0.161-0.38,0.161c-0.278,0.115-1.016,0.419-1.234,0.597l-0.284,2.769c-0.016,0.145-0.062,0.285-0.137,0.41
		c-0.34,0.57-1.139,1.032-3.286,1.9l-0.486,0.205C243.521,337.655,243.389,337.681,243.258,337.681z"/>
	<path fill="#FFFFFF" d="M239.611,321.604c0.505,0,1.053,0.134,1.57,0.271c0.584,0.158,1.187,0.321,1.844,0.321
		c0.177,0,0.354-0.012,0.539-0.038c0.324-0.049,0.582-0.235,0.77-0.371l0.07-0.052l0.132,0.014c0.187,0.2,0.421,0.404,0.759,0.404
		l1.215-0.393l-0.144,0.229c-0.04,0.064-0.188,0.322-0.188,0.322c-0.037,0.062-0.076,0.125-0.121,0.188l-0.42,0.638l1.93,0.712
		l-1.889,2.462l0.932,0.204c1.291,0.284,2.166,0.395,3.127,0.395c0.604,0,1.248-0.045,2.092-0.145l0.143-0.019l-0.031,0.141
		c-0.021,0.081-0.072,0.282-0.168,0.402c-0.621,0.625-0.901,0.952-0.979,1.471c2.042-0.214,4.182-0.615,4.4-0.987l0.201-0.338
		c0.092-0.148,0.168-0.284,0.232-0.4c0.266-0.465,0.292-0.48,0.768-0.508c0.392,0,0.98,0.24,1.502,0.453l0.19,0.078
		c0.263,0.106,0.507,0.209,0.71,0.271c0.168,0.093,0.323,0.429,0.525,0.941c0.104,0.26,0.168,0.427,0.238,0.556
		c0.151,0.309,0.461,0.669,1.066,0.669l0.254-0.01l0.012,0.095c0.027,0.215,0.032,0.307,0.035,0.357h0.239l-0.263,0.132
		c-0.041,0.041-0.174,0.134-0.282,0.21c-0.138,0.086-0.265,0.175-0.411,0.283c-0.094,0.071-0.232,0.188-0.395,0.331
		c-0.197,0.182-0.688,0.613-0.907,0.716c-0.322-0.114-0.558-0.229-0.781-0.344c-1.175-0.587-2.36-1.18-3.78-1.3l-0.371-0.031
		c-0.045-0.002-3.164-0.012-3.164-0.012l-0.06,0.069c-0.556,0.14-1.11,0.354-1.749,0.676c-0.031,0.019-0.298,0.124-0.298,0.124
		c-1.212,0.5-1.789,0.794-1.851,1.325l-0.295,2.868c-0.25,0.419-1.629,1.011-2.803,1.485l-0.5,0.211l-1.886-2.043
		c-0.503-0.546-1.388-0.67-2.099-0.77l-0.234-0.038c-0.124-0.021-0.24-0.037-0.344-0.062c-0.172-0.038-0.336-0.087-0.495-0.134
		c-0.319-0.099-0.704-0.218-1.103-0.218c-0.416,0-0.791,0.129-1.119,0.384c-0.181,0.143-0.365,0.309-0.551,0.48
		c-0.445,0.396-0.916,0.819-1.389,0.819c-0.283-0.038-0.555-0.097-0.832-0.155l-0.167-0.036c-0.64-0.14-1.358-0.296-2.04-0.296
		l-0.249,0.009c-0.356,0.021-0.754,0.198-1.173,0.387c-0.426,0.192-0.771,0.344-0.928,0.357c-0.213-0.082-0.379-0.173-0.543-0.269
		c-0.476-0.262-1.1-0.562-1.707-0.562c-0.217,0-0.422,0.038-0.606,0.114l-2.569,1.036l-0.524-1.991
		c-0.171-0.651-0.944-0.903-1.765-1.172l-0.139-0.046c-0.344-0.115-0.574-0.196-0.656-0.262c-0.254-0.245-0.986-1.438-1.061-1.615
		c0.02-0.271,0.173-0.508,0.339-0.756c0.261-0.392,0.583-0.88,0.628-1.551c0.006-0.146,0-0.334-0.006-0.527
		c-0.021-0.521-0.038-0.646-0.047-0.673l-0.066-0.105l0.125-0.03l3.385-1.178c1.513-0.524,2.662-0.769,4.394-0.925
		c0.381-0.037,0.89-0.037,1.427-0.037c1.656-0.01,3.484-0.019,4.493-0.764c1.659-1.227,3.123-1.694,5.147-2.346
		C239.116,321.64,239.35,321.604,239.611,321.604 M246.51,321.761h0.005 M251.971,326.746h0.005 M261.167,329.937h0.005
		 M239.611,319.604c-0.458,0-0.899,0.065-1.312,0.195c-2.154,0.693-3.822,1.229-5.737,2.646c-0.481,0.355-2.248,0.366-3.303,0.372
		c-0.59,0-1.146,0-1.623,0.046c-1.864,0.168-3.184,0.447-4.854,1.026l-3.295,1.146l-0.03,0.008
		c-0.626,0.151-1.141,0.595-1.383,1.191c-0.182,0.449-0.193,0.943-0.041,1.392c0.003,0.061,0.006,0.134,0.01,0.221
		c0.003,0.111,0.009,0.231,0.007,0.33c-0.018,0.132-0.13,0.309-0.296,0.558c-0.227,0.339-0.61,0.913-0.669,1.721
		c-0.022,0.313,0.029,0.628,0.151,0.918c0.141,0.336,0.999,1.781,1.516,2.28c0.045,0.043,0.092,0.085,0.142,0.125
		c0.366,0.292,0.784,0.433,1.268,0.595l0.146,0.048c0.175,0.057,0.398,0.13,0.568,0.196l0.416,1.578
		c0.146,0.555,0.523,1.021,1.037,1.278c0.281,0.141,0.589,0.212,0.896,0.212c0.254,0,0.508-0.048,0.748-0.145l2.475-0.998
		c0.088,0.019,0.292,0.084,0.696,0.306c0.173,0.102,0.441,0.25,0.788,0.383c0.229,0.089,0.474,0.134,0.719,0.134
		c0.059,0,0.116-0.002,0.175-0.008c0.483-0.042,0.914-0.228,1.576-0.527c0.16-0.072,0.399-0.18,0.513-0.214l0.114-0.004
		c0.465,0.005,1.06,0.135,1.585,0.25l0.171,0.037c0.003,0.001,0.049,0.01,0.052,0.011c0.278,0.059,0.594,0.125,0.937,0.172
		c0.089,0.012,0.178,0.018,0.267,0.018c1.229,0,2.119-0.792,2.707-1.315c0.01-0.009,0.031-0.028,0.041-0.037
		c0.123-0.115,0.245-0.227,0.366-0.326c0.118,0.019,0.323,0.083,0.454,0.123c0.241,0.071,0.444,0.129,0.655,0.176
		c0.079,0.02,0.212,0.044,0.353,0.067l0.083,0.014l0.254,0.042c0.313,0.044,0.809,0.114,0.995,0.201l1.841,1.994
		c0.387,0.419,0.923,0.644,1.471,0.644c0.261,0,0.525-0.051,0.776-0.157l0.5-0.211c2.105-0.852,3.215-1.417,3.743-2.303
		c0.149-0.25,0.242-0.53,0.271-0.82l0.231-2.252c0.171-0.079,0.4-0.178,0.688-0.297c0.237-0.094,0.359-0.146,0.466-0.202
		c0.488-0.245,0.903-0.406,1.306-0.507c0.01-0.002,0.02-0.005,0.029-0.007c0.772,0.002,2.273,0.007,2.613,0.009l0.297,0.025
		c1.036,0.087,1.97,0.554,3.052,1.094c0.25,0.128,0.567,0.285,1.01,0.441c0.216,0.077,0.442,0.115,0.668,0.115
		c0.29,0,0.578-0.063,0.846-0.188c0.135-0.063,0.544-0.254,1.416-1.057c0.084-0.073,0.183-0.159,0.251-0.21
		c0.079-0.058,0.165-0.12,0.259-0.178c0.031-0.02,0.062-0.04,0.092-0.061c0.077-0.055,0.146-0.103,0.208-0.148l0.037-0.019
		c0.681-0.319,1.152-1.01,1.152-1.811c0-0.494-0.179-0.945-0.475-1.294c-0.281-0.605-0.854-1.039-1.524-1.137
		c-0.26-0.659-0.59-1.477-1.407-1.928c-0.123-0.067-0.253-0.123-0.387-0.163c-0.127-0.038-0.274-0.103-0.435-0.167l-0.104-0.042
		l-0.183-0.075c-0.693-0.283-1.477-0.603-2.261-0.603c-0.038,0-0.076,0.001-0.115,0.003c-1.164,0.067-1.789,0.462-2.389,1.512
		c-0.009,0.016-0.019,0.032-0.027,0.048c-0.27-0.78-1.008-1.34-1.879-1.344c-0.005,0-0.009,0-0.014,0c-0.021,0-0.044,0-0.065,0.001
		c-0.076,0.002-0.151,0.009-0.225,0.02l-0.11,0.014c-0.742,0.088-1.315,0.128-1.834,0.128c-0.158,0-0.312-0.003-0.468-0.011
		c0.295-0.477,0.377-1.06,0.219-1.605c-0.152-0.529-0.517-0.969-0.999-1.22c0.016-0.102,0.024-0.206,0.024-0.312
		c0-1.092-0.873-1.979-1.96-2c-0.015,0-0.029,0-0.043,0c-0.059,0-0.117,0.002-0.177,0.008c-0.167,0.015-0.329,0.05-0.482,0.104
		l-0.37,0.119c-0.229-0.124-0.481-0.205-0.738-0.231l-0.132-0.014c-0.068-0.007-0.138-0.011-0.206-0.011
		c-0.425,0-0.841,0.135-1.186,0.39l-0.07,0.052c-0.007,0.004-0.015,0.01-0.023,0.017c-0.032,0.001-0.065,0.002-0.1,0.002
		c-0.392,0-0.822-0.117-1.32-0.252C241.075,319.778,240.355,319.604,239.611,319.604L239.611,319.604z"/>
</g>
</svg>
