<?xml version="1.0" encoding="utf-8"?>
<!-- Generator: Adobe Illustrator 16.0.0, SVG Export Plug-In . SVG Version: 6.00 Build 0)  -->
<!DOCTYPE svg PUBLIC "-//W3C//DTD SVG 1.1//EN" "http://www.w3.org/Graphics/SVG/1.1/DTD/svg11.dtd">
<svg version="1.1" id="Layer_1" xmlns="http://www.w3.org/2000/svg" xmlns:xlink="http://www.w3.org/1999/xlink" x="0px" y="0px"
	 width="216px" height="42px" viewBox="0 0 216 42" enable-background="new 0 0 216 42" xml:space="preserve">
<g>
	<path fill="#FCB918" d="M31.366,22.062l0.4,3.914c0.155-0.818,0.788-2.172,1.341-3.234c-0.256,0.232-0.577,0.639-0.858,1.334
		c0,0,0.281-1.473,1.045-2.283c0,0-0.812,0.27-1.343,1.086c0,0,0.021-0.922,0.689-1.375c0.666-0.453,0.002-0.102,0.002-0.102
		s-0.999,0.025-1.088,1.738C31.555,23.141,31.524,22.514,31.366,22.062 M33.478,30.857c0,0,0.021,0.348-1.157,0.422
		c0.019-2.547-1.708-4.865-1.939-5.172l-0.022-0.365c-0.077-1.162-0.246-2.15-0.425-2.957l-0.081-0.014c0,0-0.537-0.568-0.36-1.482
		c0,0-0.348,0.289-0.263,1.113c0,0-0.494-0.795-0.437-1.896c0,0-0.604,0.197-0.268,2.145c0,0-0.552-1.088-0.476-2.236
		c0,0-0.492,0.131,0.557,3.625c0,0-1.038-2.209-0.958-3.799c0,0-0.687,2.078-0.386,3.281c-0.065-0.256-0.425-1.807-0.044-2.893
		c0,0-1.15,1.838,0.092,4.598c0,0-1.597-2.318-0.271-5.094c0,0-0.836,0.342-1.101,1.48c0,0,0.018-0.895,0.654-1.734
		c0,0-1.039,0.203-1.501,1.664c0,0-0.038-1.205,0.765-1.832c0,0-1.684,0.758-2.001,2.486c0,0-0.508-2.543,3.351-4.211
		c0,0-2.509-0.596-4.811,1.695c0,0,0.473-1.744,3.941-2.279c0,0-0.574-0.312-1.667,0.016c0,0,0.809-0.805,3.312-0.523
		c0,0-1.024-1.513-4.563-1.598c0,0,3.031-0.533,5.158,1.45c0,0-0.507-2.003-3.046-3.03c0,0,1.621-0.081,2.999,2.038l0.035,0.089
		l-0.5-3.615c-0.222-0.112-0.214-0.379-0.318-1.25l-0.264-3.365c-0.125-1.045-0.029-1.301,0.236-1.322
		c0.263-0.021,0.354,0.33,0.473,1.373l0.221,3.086c0.104,0.895,0.085,1.346-0.117,1.471l0.457,3.534
		c0.128-0.808,0.713-3.029,3.289-4.341c0,0-2.671,1.475-2.597,5.02c0,0,0.927-2.082,3.488-2.41c0,0-1.873,0.468-2.492,1.924
		c0,0,1.435-0.82,3.245-0.111c0,0-1.784-0.302-2.712,0.293c0,0,2.199-0.319,3.566,1.473c0,0,0.34-0.578-0.061-1.342
		c0,0,0.503,0.375,0.607,1.566l0.417-4.254c-0.194-0.167-0.133-0.662-0.079-1.539l0.424-3.471c0.062-1.061,0.262-1.303,0.521-1.256
		c0.263,0.046,0.257,0.379,0.191,1.436l-0.476,3.437c-0.056,0.909-0.137,1.372-0.354,1.446l-0.436,3.977
		c0.374-0.961,1.368-2.857,3.458-3.503c0,0-2.219,0.704-3.157,3.89c0,0,0.687-1.809,4.104-2.324c0,0-3.372,0.568-3.785,2.6
		c0,0,2.17-1.657,3.827-1.469c0,0-2.202,0.348-2.875,1.955c0,0,3.201-1.812,5.302-0.338c0,0-2.458-0.979-4.934,0.639
		c0,0,2.1-0.381,3.035,1.854c0,0-0.212-0.398-0.858-0.766c0,0,1.085,1.342,1.065,2.725c0,0-1.074-2.059-3-2.031
		c0,0,1.923,0.564,2.266,1.812c0,0-0.748-0.936-1.845-1.1c0,0,1.566,1.039,1.608,3.143c0,0-0.259-1.914-2.129-2.961
		c0,0,0.867,1.02,0.421,4.18c0,0,0.074-2.283-0.627-3.703c0,0,0.168,1.652-0.333,2.986c0,0,0.261-1.068-0.66-2.143
		c0,0-0.602,0.252-0.069,1.818c0,0-0.845-1.092-0.517-2.869c0,0-1.355,1.412-0.356,3.904c0,0-0.835-0.711-0.742-2.525
		c0,0-0.557,0.842-0.523,1.662c0,0-0.104-0.312-0.16-0.699c-0.464,0.889-0.93,1.838-1.076,2.342
		C32.447,28.793,33.478,30.857,33.478,30.857 M30.011,30.898c0.397-1.473,0.469-2.518,0.421-3.812
		c1.231,1.783,1.373,3.625,1.386,4.207C30.24,31.279,30.011,30.898,30.011,30.898"/>
	<polygon fill="#FCB919" points="61,6 63.194,6 66.589,13.01 66.613,13.01 66.613,6 68.323,6 68.323,15.372 66.141,15.372 
		62.733,8.363 62.711,8.363 62.711,15.372 61,15.372 	"/>
	<path fill="#FCB919" d="M70.18,8.819c0.663-0.32,1.556-0.522,2.282-0.522c2.004,0,2.833,0.871,2.833,2.916v0.884
		c0,0.697,0.012,1.221,0.026,1.732c0.013,0.524,0.038,1.007,0.075,1.544h-1.505c-0.064-0.361-0.064-0.819-0.075-1.033h-0.027
		c-0.394,0.764-1.248,1.195-2.029,1.195c-1.161,0-2.295-0.739-2.295-2.057c0-1.031,0.471-1.638,1.119-1.973
		c0.651-0.337,1.496-0.402,2.21-0.402h0.944c0-1.115-0.473-1.492-1.479-1.492c-0.729,0-1.454,0.297-2.028,0.754L70.18,8.819z
		 M72.184,14.218c0.521,0,0.932-0.243,1.197-0.617c0.282-0.388,0.36-0.886,0.36-1.424h-0.742c-0.764,0-1.9,0.136-1.9,1.194
		C71.098,13.965,71.572,14.218,72.184,14.218"/>
	<path fill="#FCB919" d="M77.16,9.773h-1.264V8.457h1.264V7.076l1.711-0.58v1.961h1.517v1.316h-1.517v3.223
		c0,0.592,0.151,1.141,0.804,1.141c0.305,0,0.6-0.066,0.777-0.188l0.051,1.426c-0.357,0.105-0.751,0.159-1.262,0.159
		c-1.339,0-2.081-0.872-2.081-2.242V9.773z"/>
	<path fill="#FCB919" d="M87.205,15.374h-1.62v-0.938h-0.027c-0.522,0.67-1.264,1.1-2.156,1.1c-1.557,0-2.232-1.154-2.232-2.713
		V8.457h1.709v3.693c0,0.846,0.014,1.988,1.11,1.988c1.237,0,1.505-1.41,1.505-2.297V8.457h1.712V15.374z"/>
	<path fill="#FCB919" d="M88.646,8.457h1.518v1.572h0.025c0.077-0.645,0.779-1.732,1.8-1.732c0.164,0,0.344,0,0.523,0.053v1.814
		c-0.156-0.096-0.461-0.15-0.766-0.15c-1.391,0-1.391,1.828-1.391,2.821v2.539h-1.71V8.457z"/>
	<path fill="#FCB919" d="M93.35,8.819c0.665-0.32,1.557-0.522,2.285-0.522c2.002,0,2.833,0.871,2.833,2.916v0.884
		c0,0.697,0.01,1.221,0.026,1.732c0.011,0.524,0.036,1.007,0.073,1.544h-1.503c-0.063-0.361-0.063-0.819-0.077-1.033H96.96
		c-0.396,0.764-1.248,1.195-2.027,1.195c-1.163,0-2.297-0.739-2.297-2.057c0-1.031,0.472-1.638,1.12-1.973
		c0.653-0.337,1.495-0.402,2.21-0.402h0.944c0-1.115-0.474-1.492-1.479-1.492c-0.727,0-1.455,0.297-2.028,0.754L93.35,8.819z
		 M95.354,14.218c0.523,0,0.931-0.243,1.199-0.617c0.282-0.388,0.357-0.886,0.357-1.424h-0.742c-0.763,0-1.9,0.136-1.9,1.194
		C94.268,13.965,94.741,14.218,95.354,14.218"/>
	<rect x="99.852" y="5.301" fill="#FCB919" width="1.71" height="10.072"/>
	<path fill="#FCB919" d="M106.523,5.998h1.928c1.914,0,4.199-0.064,4.199,2.539c0,1.101-0.703,2.016-1.841,2.176v0.029
		c0.485,0.036,0.767,0.549,0.947,0.967l1.429,3.663h-1.99l-1.073-2.929c-0.257-0.695-0.484-0.963-1.238-0.963h-0.574v3.892h-1.786
		V5.998z M108.31,10.003h0.59c0.878,0,1.886-0.136,1.886-1.306c0-1.127-0.995-1.219-1.886-1.219h-0.59V10.003z"/>
	<path fill="#FCB919" d="M119.224,14.984c-0.627,0.363-1.343,0.549-2.261,0.549c-2.17,0-3.432-1.314-3.432-3.586
		c0-1.998,1.009-3.652,3.05-3.652c2.436,0,3.126,1.762,3.126,4.178h-4.542c0.075,1.113,0.813,1.746,1.874,1.746
		c0.83,0,1.544-0.322,2.185-0.699V14.984z M118.073,11.238c-0.051-0.873-0.435-1.625-1.391-1.625c-0.957,0-1.442,0.697-1.518,1.625
		H118.073z"/>
	<path fill="#FCB919" d="M124.699,9.908c-0.524-0.189-0.905-0.298-1.532-0.298c-0.457,0-1.006,0.176-1.006,0.769
		c0,1.101,2.97,0.4,2.97,2.9c0,1.61-1.363,2.255-2.752,2.255c-0.652,0-1.317-0.12-1.94-0.295l0.103-1.479
		c0.533,0.282,1.096,0.457,1.683,0.457c0.434,0,1.123-0.175,1.123-0.847c0-1.355-2.972-0.427-2.972-2.926
		c0-1.49,1.236-2.149,2.577-2.149c0.803,0,1.325,0.134,1.862,0.257L124.699,9.908z"/>
	<path fill="#FCB919" d="M129.156,8.297c1.951,0,3.446,1.383,3.446,3.664c0,1.988-1.266,3.575-3.446,3.575
		c-2.169,0-3.433-1.587-3.433-3.575C125.724,9.68,127.219,8.297,129.156,8.297 M129.156,14.138c1.316,0,1.659-1.235,1.659-2.39
		c0-1.062-0.535-2.056-1.659-2.056c-1.109,0-1.646,1.021-1.646,2.056C127.51,12.889,127.854,14.138,129.156,14.138"/>
	<path fill="#FCB919" d="M139.649,15.374h-1.621v-0.938h-0.023c-0.524,0.67-1.265,1.1-2.157,1.1c-1.558,0-2.232-1.154-2.232-2.713
		V8.457h1.709v3.693c0,0.846,0.012,1.988,1.111,1.988c1.234,0,1.503-1.41,1.503-2.297V8.457h1.711V15.374z"/>
	<path fill="#FCB919" d="M141.093,8.457h1.518v1.572h0.024c0.078-0.645,0.778-1.732,1.798-1.732c0.167,0,0.345,0,0.526,0.053v1.814
		c-0.154-0.096-0.461-0.15-0.766-0.15c-1.39,0-1.39,1.828-1.39,2.821v2.539h-1.711V8.457z"/>
	<path fill="#FCB919" d="M149.996,9.947c-0.306-0.146-0.638-0.253-1.162-0.253c-1.058,0-1.733,0.887-1.733,2.188
		c0,1.273,0.573,2.255,1.771,2.255c0.486,0,1.021-0.186,1.316-0.322l0.075,1.491c-0.497,0.162-1.008,0.227-1.708,0.227
		c-2.157,0-3.243-1.543-3.243-3.65c0-2.002,1.124-3.588,3.176-3.588c0.689,0,1.19,0.082,1.66,0.229L149.996,9.947z"/>
	<path fill="#FCB919" d="M156.316,14.984c-0.626,0.363-1.34,0.549-2.257,0.549c-2.171,0-3.432-1.314-3.432-3.586
		c0-1.998,1.007-3.652,3.048-3.652c2.438,0,3.127,1.762,3.127,4.178h-4.542c0.075,1.113,0.814,1.746,1.874,1.746
		c0.83,0,1.545-0.322,2.182-0.699V14.984z M155.17,11.238c-0.053-0.873-0.435-1.625-1.391-1.625c-0.958,0-1.443,0.697-1.519,1.625
		H155.17z"/>
	<path fill="#FCB919" d="M161.795,9.908c-0.522-0.189-0.906-0.298-1.532-0.298c-0.46,0-1.009,0.176-1.009,0.769
		c0,1.101,2.974,0.4,2.974,2.9c0,1.61-1.364,2.255-2.756,2.255c-0.652,0-1.314-0.12-1.94-0.295l0.103-1.479
		c0.537,0.282,1.098,0.457,1.686,0.457c0.432,0,1.121-0.175,1.121-0.847c0-1.355-2.973-0.427-2.973-2.926
		c0-1.49,1.239-2.149,2.579-2.149c0.804,0,1.328,0.134,1.86,0.257L161.795,9.908z"/>
	<polygon fill="#FCC742" points="61.006,20.236 62.129,20.236 66.708,28.154 66.734,28.154 66.734,20.236 67.624,20.236 
		67.624,29.242 66.423,29.242 61.922,21.473 61.897,21.473 61.897,29.242 61.006,29.242 	"/>
	<path fill="#FCC742" d="M71.876,22.506c2.127,0,3.069,1.65,3.069,3.445c0,1.793-0.941,3.443-3.069,3.443
		c-2.13,0-3.072-1.65-3.072-3.443C68.805,24.156,69.746,22.506,71.876,22.506 M71.876,28.699c1.418,0,2.181-1.227,2.181-2.748
		c0-1.523-0.763-2.75-2.181-2.75c-1.421,0-2.181,1.227-2.181,2.75C69.695,27.473,70.455,28.699,71.876,28.699"/>
	<path fill="#FCC742" d="M75.964,24.131c0-0.723,0-0.99-0.054-1.471h0.812v1.266h0.027c0.298-0.736,0.853-1.422,1.689-1.422
		c0.193,0,0.428,0.041,0.568,0.078v0.854c-0.166-0.053-0.387-0.078-0.594-0.078c-1.288,0-1.641,1.443-1.641,2.631v3.252h-0.81
		V24.131z"/>
	<path fill="#FCC742" d="M82.957,23.357H81.46v4.256c0,0.594,0.222,1.086,0.878,1.086c0.31,0,0.518-0.066,0.748-0.154l0.054,0.67
		c-0.195,0.076-0.596,0.18-0.992,0.18c-1.446,0-1.5-0.992-1.5-2.193v-3.844h-1.288V22.66h1.288v-1.586l0.812-0.285v1.871h1.497
		V23.357z"/>
	<path fill="#FCC742" d="M83.867,19.564h0.812v4.207h0.027c0.347-0.725,1.083-1.266,2.05-1.266c1.768,0,2.245,1.174,2.245,2.801
		v3.934h-0.813v-3.92c0-1.139-0.218-2.117-1.559-2.117c-1.446,0-1.95,1.365-1.95,2.516v3.521h-0.812V19.564z"/>
	<path fill="#FCC742" d="M94.922,29.033c-0.565,0.232-1.301,0.363-1.907,0.363c-2.182,0-2.993-1.473-2.993-3.445
		c0-2.012,1.107-3.447,2.773-3.447c1.856,0,2.619,1.496,2.619,3.266v0.412h-4.503c0,1.393,0.749,2.514,2.167,2.514
		c0.595,0,1.457-0.24,1.844-0.486V29.033z M94.522,25.484c0-1.146-0.464-2.283-1.675-2.283c-1.2,0-1.937,1.201-1.937,2.283H94.522z"
		/>
	<path fill="#FCC742" d="M96.414,24.131c0-0.723,0-0.99-0.051-1.471h0.81v1.266h0.026c0.298-0.736,0.854-1.422,1.692-1.422
		c0.191,0,0.425,0.041,0.566,0.078v0.854c-0.166-0.053-0.387-0.078-0.595-0.078c-1.287,0-1.637,1.443-1.637,2.631v3.252h-0.812
		V24.131z"/>
	<path fill="#FCC742" d="M100.201,24.209c0-0.504,0-1.021-0.051-1.547h0.787v1.172h0.025c0.272-0.594,0.762-1.33,2.128-1.33
		c1.627,0,2.244,1.084,2.244,2.531v4.205h-0.812v-4c0-1.238-0.438-2.039-1.56-2.039c-1.484,0-1.949,1.303-1.949,2.398v3.641h-0.812
		V24.209z"/>
	<path fill="#FCC742" d="M114.097,28.182h-0.027c-0.359,0.787-1.275,1.213-2.088,1.213c-1.873,0-2.168-1.264-2.168-1.857
		c0-2.207,2.35-2.311,4.051-2.311h0.155v-0.334c0-1.123-0.401-1.689-1.496-1.689c-0.684,0-1.331,0.152-1.937,0.539v-0.785
		c0.503-0.244,1.354-0.449,1.937-0.449c1.625,0,2.307,0.732,2.307,2.447v2.906c0,0.527,0,0.928,0.065,1.379h-0.799V28.182z
		 M114.02,25.924h-0.233c-1.405,0-3.083,0.141-3.083,1.59c0,0.861,0.62,1.186,1.369,1.186c1.909,0,1.947-1.664,1.947-2.375V25.924z"
		/>
	<path fill="#FCC742" d="M116.188,24.209c0-0.504,0-1.021-0.054-1.547h0.787v1.172h0.026c0.272-0.594,0.761-1.33,2.13-1.33
		c1.627,0,2.245,1.084,2.245,2.531v4.205h-0.813v-4c0-1.238-0.439-2.039-1.56-2.039c-1.487,0-1.949,1.303-1.949,2.398v3.641h-0.812
		V24.209z"/>
	<path fill="#FCC742" d="M128.01,29.24h-0.812v-1.047h-0.026c-0.439,0.838-1.11,1.203-2.052,1.203c-1.808,0-2.708-1.5-2.708-3.445
		c0-1.998,0.773-3.447,2.708-3.447c1.291,0,1.937,0.941,2.052,1.266h0.026v-4.205h0.812V29.24z M125.248,28.695
		c1.447,0,1.949-1.545,1.949-2.744c0-1.201-0.502-2.75-1.949-2.75c-1.549,0-1.948,1.475-1.948,2.75S123.699,28.695,125.248,28.695"
		/>
	<polygon fill="#FCC742" points="135.39,25.422 132.048,20.236 133.081,20.236 135.83,24.635 138.654,20.236 139.621,20.236 
		136.278,25.422 136.278,29.242 135.39,29.242 	"/>
	<path fill="#FCC742" d="M141.879,22.506c2.128,0,3.067,1.65,3.067,3.445c0,1.793-0.939,3.443-3.067,3.443
		c-2.13,0-3.071-1.65-3.071-3.443C138.808,24.156,139.749,22.506,141.879,22.506 M141.879,28.699c1.419,0,2.182-1.227,2.182-2.748
		c0-1.523-0.763-2.75-2.182-2.75c-1.421,0-2.181,1.227-2.181,2.75C139.698,27.473,140.458,28.699,141.879,28.699"/>
	<path fill="#FCC742" d="M145.967,24.131c0-0.723,0-0.99-0.054-1.471h0.813v1.266h0.026c0.294-0.736,0.85-1.422,1.689-1.422
		c0.193,0,0.427,0.041,0.568,0.078v0.854c-0.169-0.053-0.387-0.078-0.594-0.078c-1.291,0-1.641,1.443-1.641,2.631v3.252h-0.81
		V24.131z"/>
	<polygon fill="#FCC742" points="149.728,19.564 150.541,19.564 150.541,25.355 153.481,22.662 154.526,22.662 151.314,25.572 
		154.913,29.24 153.791,29.24 150.541,25.861 150.541,29.24 149.728,29.24 	"/>
	<path fill="#FCC742" d="M159.691,29.033c-0.567,0.232-1.303,0.363-1.911,0.363c-2.176,0-2.99-1.473-2.99-3.445
		c0-2.012,1.11-3.447,2.772-3.447c1.86,0,2.62,1.496,2.62,3.266v0.412h-4.504c0,1.393,0.751,2.514,2.168,2.514
		c0.594,0,1.461-0.24,1.845-0.486V29.033z M159.29,25.484c0-1.146-0.463-2.283-1.674-2.283c-1.2,0-1.938,1.201-1.938,2.283H159.29z"
		/>
	<polygon fill="#FFE7BC" points="88.646,8.455 88.646,8.908 88.896,8.455 	"/>
</g>
</svg>
