<?xml version="1.0" encoding="utf-8"?>
<!-- Generator: Adobe Illustrator 16.0.0, SVG Export Plug-In . SVG Version: 6.00 Build 0)  -->
<!DOCTYPE svg PUBLIC "-//W3C//DTD SVG 1.1//EN" "http://www.w3.org/Graphics/SVG/1.1/DTD/svg11.dtd">
<svg version="1.1" id="AMLR" xmlns="http://www.w3.org/2000/svg" xmlns:xlink="http://www.w3.org/1999/xlink" x="0px" y="0px"
	 width="358px" height="409px" viewBox="0 0 358 409" enable-background="new 0 0 358 409" xml:space="preserve">
<g>
	<path fill="#4B3291" d="M263.391,324.867c-0.809-0.066-2.634-0.964-2.969-1.895c-0.017-0.046-0.029-0.094-0.039-0.143
		c-0.182-0.907,0.546-1.768,1.515-2.799l0.115-0.123c0.19-0.201,0.365-0.383,0.495-0.545c0.29-0.378,0.737-0.474,1.335-0.565
		c0.462-0.079,0.787-0.148,0.962-0.358c0.25-0.292,0.488-0.62,0.731-0.954c0.579-0.798,1.218-1.677,1.948-2.233
		c0.239-0.154,0.45-0.244,1.014-0.451l0.133-0.052c0.482-0.174,1.233-0.443,1.442-0.612l1.077-7.539
		c0.073-0.432,0.323-0.826,0.792-1.454c0.33-0.44,0.703-0.939,0.656-1.234c-0.086-0.543-0.183-1.088-0.286-1.641l-0.035-0.21
		c-0.181-0.998-0.371-2.043-0.449-3.094c-0.013-0.173,0.02-0.346,0.094-0.503l0.435-0.906c0.14-0.28,0.399-0.474,0.697-0.534
		l0.161-0.29c0.168-0.3,0.478-0.492,0.819-0.51l-0.501-2.017c-0.048-0.192-0.625-0.472-0.97-0.638
		c-0.599-0.286-0.906-0.449-1.124-0.701c-0.42-0.536-0.622-1.301-0.848-2.249l-0.034-0.143c-0.07-0.303-0.136-0.581-0.208-0.803
		c-0.032-0.1-0.068-0.135-0.341-0.25l-0.199-0.086c-0.655-0.343-0.78-0.785-0.9-1.213c-0.033-0.128-0.063-0.233-0.098-0.344
		c-0.319-0.983-0.688-1.274-1.492-1.912l-0.27-0.216c-0.588-0.468-0.699-1.376-0.768-2.344c-0.02-0.233-0.039-0.46-0.068-0.648
		l-0.097-0.623c-0.07-0.495-0.156-1.097-0.301-1.639l-0.033-0.125c-0.079-0.3-0.016-0.62,0.174-0.867
		c0.189-0.246,0.482-0.39,0.793-0.39h5.109c0.107,0,0.215,0.018,0.316,0.052l0.781,0.261l2.789,0.031
		c0.548,0.006,0.988,0.452,0.988,1v0.167c0.132-0.083,0.285-0.137,0.448-0.15c0.184-0.209,0.453-0.341,0.753-0.341h0.478
		c0.299,0,0.566,0.131,0.749,0.338h0.036c0.183-0.207,0.45-0.338,0.749-0.338h0.254c0.068-0.078,0.149-0.146,0.239-0.2
		c0.051-0.083,0.113-0.158,0.186-0.222v-0.615c0-0.552,0.447-1,1-1h0.34v-1.639c0-0.24,0.087-0.473,0.244-0.655l0.624-0.72
		c0.184-0.212,0.448-0.337,0.729-0.344l1.122-0.03l0.771,0c0.553,0,1,0.448,1,1v0.258c0.213,0.19,0.334,0.461,0.334,0.746v0.028
		h0.34c0.553,0,1,0.448,1,1v0.944c0.032,0.029,0.063,0.06,0.092,0.092h0.925c0.553,0,1,0.448,1,1v1.16
		c0,0.298-0.131,0.566-0.338,0.75v0.877c0,0.061-0.006,0.122-0.017,0.182c0.199,0.169,0.332,0.415,0.352,0.691
		c0.076,0.067,0.143,0.146,0.195,0.234c0.285,0.176,0.476,0.492,0.476,0.852v0.484c0,0.297-0.13,0.565-0.336,0.748
		c-0.019,0.274-0.147,0.518-0.343,0.688c-0.026,0.175-0.099,0.34-0.211,0.479l-0.116,0.145c-0.009,0.287-0.138,0.543-0.338,0.72
		v1.29c0,0.552-0.447,1-1,1h-0.591c-0.112,0.127-0.256,0.226-0.42,0.283v1.022c0.39,0.136,0.67,0.508,0.67,0.944v0.604
		c0.208,0.184,0.339,0.452,0.339,0.75v0.484c0,0.364-0.194,0.683-0.485,0.858c-0.052,0.084-0.116,0.16-0.189,0.226v0.266
		c0,0.436-0.279,0.807-0.668,0.943v0.107c0,0.373-0.204,0.698-0.507,0.87c-0.079,0.117-0.182,0.216-0.302,0.29
		c-0.083,0.142-0.2,0.26-0.341,0.346c-0.052,0.086-0.116,0.164-0.19,0.23c-0.019,0.271-0.146,0.513-0.337,0.682v0.605
		c0,0.552-0.447,1-1,1h-0.255c-0.026,0.03-0.055,0.059-0.085,0.085v0.273c0,0.361-0.191,0.677-0.479,0.853
		c-0.082,0.137-0.196,0.253-0.332,0.337c-0.126,0.213-0.329,0.376-0.571,0.449c-0.114,0.389-0.458,0.68-0.875,0.715
		c-0.028,0.031-0.058,0.061-0.089,0.089v0.2c0,0.227-0.077,0.447-0.219,0.625l-0.131,0.163l0.008,0.19
		c0.01,0.238-0.066,0.472-0.213,0.659l-0.126,0.16c-0.038,0.305-0.206,0.594-0.444,0.776c-0.168,0.316-0.501,0.531-0.884,0.531
		h-0.058c-0.133,0.396-0.507,0.682-0.948,0.682h-0.253c-0.183,0.208-0.452,0.34-0.751,0.34h-0.264l-0.304,0.327
		c-0.13,0.14-0.297,0.239-0.479,0.287c-0.052,0.191-0.158,0.36-0.302,0.488c-0.019,0.275-0.149,0.52-0.346,0.689
		c-0.025,0.163-0.09,0.318-0.19,0.451l-0.285,0.377c-0.087,0.114-0.196,0.208-0.319,0.274c-0.083,0.141-0.199,0.26-0.338,0.346
		c-0.053,0.089-0.118,0.169-0.195,0.238v0.606c0,0.299-0.131,0.567-0.339,0.75v0.732c0.208,0.184,0.339,0.452,0.339,0.75v1.157
		c0,0.036-0.002,0.07-0.006,0.105l0.356,0.358c0.175,0.176,0.277,0.41,0.289,0.658c0.088,0.072,0.164,0.16,0.224,0.258
		c0.138,0.085,0.253,0.202,0.335,0.341c0.086,0.053,0.164,0.119,0.23,0.195h1.52c0.221,0,0.436,0.073,0.61,0.208l0.37,0.285
		c0.229,0.176,0.37,0.442,0.388,0.73l0.042,0.684c0.005,0.073,0.001,0.146-0.01,0.217l-0.087,0.552
		c-0.078,0.492-0.503,0.844-0.987,0.844c-0.046,0-0.093-0.003-0.14-0.01c-0.003,0-0.104-0.015-0.107-0.015
		c-0.06-0.009-0.119-0.01-0.176-0.01c-0.371,0-0.691,0.145-1.312,0.491c-0.196,0.112-0.419,0.237-0.662,0.357
		c-0.09,0.08-0.238,0.525-0.317,0.764c-0.069,0.213-0.104,0.31-0.137,0.383c-0.239,0.495-0.563,0.682-0.906,0.88l-0.26,0.149
		c-1.033,0.639-1.545,0.929-2.577,0.929c-0.169,0-0.365-0.008-0.595-0.02l-4.69-0.255c-0.324,0.001-0.756,0.173-1.137,0.325
		c-0.484,0.192-0.951,0.378-1.449,0.378C263.51,324.874,263.391,324.867,263.391,324.867z"/>
	<path fill="#FFFFFF" d="M285.456,275.609v0.707l0.334,0.297v1.028h1.34v1.694h0.339v0.342h1.678v1.16h-0.338v1.627l-0.854,0.945
		h1.191v0.676h0.334v0.338h0.334v0.484h-0.334v0.68h-0.334v0.607l-0.361,0.448l0.023,0.194v0.101h-0.338v2.039h-1.341v0.339h-0.67
		v2.911h0.67v1.354h0.339v0.484h-0.339v0.336h-0.336v1.014h-0.668v1.051h-0.336v0.311h-0.334v0.342h-0.336v0.338h-0.332v0.678
		h-0.339v1.355h-1.004v0.338h-0.336v1.021h-0.336v0.339h-0.336v0.343h-0.67v0.676H281.1v0.338h-0.336v0.947l-0.363,0.454
		l0.022,0.563l-0.354,0.45l0.022,0.198v0.1h-0.336v0.338h-1.006v0.682h-1.004v0.34h-0.699l-0.601,0.646l-0.713,0.026v0.681h-0.334
		v0.68h-0.336v0.605l-0.285,0.377l-0.385,0.028v0.345h-0.336v0.343h-0.334v1.353h-0.339v2.233h0.339v1.157h-0.519l1.159,1.168
		l0.023,0.727h0.342v0.336h0.332v0.342h0.336v0.344h2.274l0.37,0.285l0.042,0.684l-0.087,0.552l-0.098-0.014
		c-0.11-0.017-0.22-0.021-0.324-0.021c-0.645,0-1.15,0.256-1.799,0.617c-0.188,0.106-0.393,0.223-0.617,0.333
		c-0.454,0.229-0.651,0.824-0.826,1.35c-0.051,0.155-0.076,0.234-0.102,0.292c-0.086,0.177-0.187,0.241-0.492,0.418l-0.258,0.148
		c-0.996,0.616-1.317,0.796-2.078,0.796c-0.154,0-0.334-0.008-0.543-0.019l-4.688-0.255c-0.576,0-1.13,0.223-1.574,0.399
		c-0.389,0.154-0.755,0.302-1.066,0.302l-0.077-0.005c-0.558-0.046-1.94-0.817-2.091-1.235c-0.088-0.44,0.576-1.188,1.263-1.918
		l0.114-0.121c0.21-0.222,0.402-0.425,0.547-0.604c0.052-0.067,0.186-0.124,0.707-0.204c0.527-0.09,1.154-0.196,1.579-0.706
		c0.263-0.307,0.522-0.664,0.788-1.028c0.541-0.745,1.123-1.542,1.729-2.003c0.104-0.064,0.377-0.17,0.754-0.309l0.15-0.059
		c1.3-0.467,1.98-0.736,2.061-1.347l1.086-7.595c0.037-0.22,0.305-0.597,0.604-0.997c0.47-0.628,0.954-1.277,0.843-1.987
		c-0.088-0.554-0.187-1.107-0.291-1.669l-0.032-0.192c-0.188-1.038-0.365-2.021-0.438-3.003l0.319-0.673l0.107-0.216l0.148,0.448
		l0.688-1.229l2.18,3.849l-1.764-7.104c-0.16-0.646-0.845-0.979-1.506-1.298c-0.406-0.194-0.708-0.346-0.803-0.455
		c-0.286-0.367-0.479-1.186-0.635-1.844l-0.031-0.129c-0.075-0.324-0.148-0.631-0.229-0.877c-0.185-0.562-0.619-0.742-0.908-0.863
		l-0.185-0.08c-0.192-0.102-0.224-0.166-0.337-0.567c-0.029-0.117-0.064-0.241-0.105-0.372c-0.416-1.28-0.979-1.726-1.826-2.396
		l-0.262-0.211c-0.262-0.208-0.347-0.909-0.398-1.636c-0.022-0.271-0.045-0.524-0.078-0.733l-0.096-0.619
		c-0.08-0.562-0.168-1.163-0.322-1.743l-0.033-0.125h5.109l0.93,0.311l2.945,0.033v0.699l1.533,1.512v-1.198h0.668v-0.338h0.478
		v0.338h1.534v-0.338h1.007v-0.342h0.338v-0.334h0.334v-1.361h1.34v-2.639l0.624-0.72l1.122-0.03H285.456 M285.456,273.609h-0.744
		c-0.018,0-0.036,0-0.054,0.001l-1.122,0.03c-0.562,0.015-1.09,0.265-1.457,0.689l-0.624,0.72c-0.315,0.364-0.489,0.829-0.489,1.31
		v0.75c-0.78,0.273-1.34,1.016-1.34,1.889v0.062c-0.155,0.025-0.305,0.068-0.446,0.127c-0.235-0.098-0.495-0.152-0.767-0.152h-0.478
		c-0.217,0-0.426,0.035-0.621,0.099c-0.361-0.465-0.924-0.766-1.558-0.773l-2.632-0.029l-0.632-0.211
		c-0.204-0.068-0.418-0.103-0.634-0.103h-5.109c-0.621,0-1.207,0.289-1.585,0.781c-0.379,0.492-0.508,1.132-0.348,1.733l0.033,0.125
		c0.129,0.485,0.206,1.03,0.274,1.511l0.1,0.643c0.027,0.175,0.044,0.376,0.062,0.593c0.08,1.128,0.236,2.312,1.147,3.037
		l0.251,0.202c0.771,0.61,0.95,0.752,1.179,1.458c0.022,0.071,0.047,0.157,0.067,0.239c0.005,0.02,0.01,0.039,0.016,0.059
		c0.136,0.479,0.362,1.283,1.328,1.792c0.045,0.024,0.091,0.046,0.138,0.066l0.071,0.031c0.032,0.126,0.065,0.268,0.098,0.406
		l0.036,0.148c0.256,1.078,0.49,1.947,1.001,2.602c0.021,0.027,0.043,0.054,0.065,0.08c0.353,0.407,0.783,0.63,1.451,0.95
		c0.14,0.067,0.354,0.171,0.497,0.253l0.228,0.917c-0.197,0.154-0.367,0.346-0.498,0.569c-0.382,0.19-0.701,0.501-0.899,0.9
		l-0.107,0.216l-0.336,0.707c-0.149,0.313-0.214,0.66-0.188,1.006c0.082,1.103,0.276,2.175,0.465,3.211l0.027,0.166
		c0.097,0.52,0.184,1.006,0.262,1.488c-0.09,0.168-0.306,0.457-0.442,0.639c-0.483,0.648-0.861,1.195-0.974,1.862
		c-0.003,0.017-0.006,0.033-0.008,0.05l-1.005,7.028c-0.265,0.108-0.613,0.234-0.838,0.314c-0.017,0.006-0.033,0.012-0.05,0.019
		l-0.15,0.059c-0.534,0.196-0.832,0.316-1.086,0.474c-0.053,0.033-0.104,0.069-0.154,0.106c-0.847,0.645-1.531,1.587-2.135,2.419
		c-0.237,0.324-0.449,0.615-0.643,0.848c-0.104,0.032-0.303,0.066-0.441,0.09c-0.533,0.082-1.386,0.212-1.958,0.958
		c-0.088,0.109-0.245,0.27-0.413,0.447l-0.117,0.124c-0.921,0.981-2.065,2.198-1.769,3.682c0.019,0.097,0.046,0.192,0.079,0.286
		c0.507,1.408,2.786,2.467,3.809,2.551l0.115,0.008c0.042,0.002,0.084,0.004,0.126,0.004c0.689,0,1.297-0.241,1.785-0.436
		c0.285-0.113,0.629-0.25,0.824-0.265l4.61,0.251c0.254,0.013,0.468,0.021,0.651,0.021c1.349,0,2.09-0.451,3.104-1.078l0.23-0.133
		c0.396-0.229,0.935-0.541,1.293-1.277c0.011-0.022,0.021-0.045,0.031-0.068c0.041-0.093,0.087-0.215,0.163-0.448
		c0.038-0.116,0.085-0.256,0.126-0.364c0.143-0.077,0.282-0.155,0.413-0.229c0.42-0.234,0.666-0.356,0.812-0.356l0.145,0.016
		c0.094,0.014,0.188,0.02,0.279,0.02c0.97,0,1.818-0.705,1.974-1.688l0.087-0.552c0.022-0.144,0.029-0.289,0.021-0.434l-0.042-0.684
		c-0.035-0.577-0.318-1.109-0.775-1.462l-0.37-0.285c-0.35-0.27-0.779-0.416-1.221-0.416h-1.103c-0.08-0.091-0.167-0.174-0.262-0.25
		c-0.003-0.005-0.007-0.01-0.011-0.015c-0.09-0.334-0.266-0.643-0.513-0.892l-0.061-0.061v-0.855c0-0.413-0.125-0.796-0.339-1.114
		v-0.005c0.214-0.318,0.339-0.702,0.339-1.114v-0.202c0.088-0.079,0.169-0.165,0.242-0.257c0.153-0.113,0.29-0.248,0.407-0.403
		l0.285-0.377c0.128-0.169,0.228-0.356,0.296-0.553c0.172-0.213,0.302-0.462,0.376-0.733c0.044-0.059,0.086-0.121,0.124-0.185
		c0.168-0.098,0.322-0.221,0.457-0.366l0.015-0.016c0.347-0.031,0.668-0.15,0.941-0.335c0.589-0.034,1.11-0.323,1.454-0.759
		c0.405-0.119,0.757-0.363,1.011-0.688c0.358-0.284,0.617-0.688,0.716-1.15c0.225-0.312,0.354-0.682,0.373-1.064
		c0.133-0.195,0.229-0.412,0.285-0.638c0.321-0.171,0.59-0.427,0.777-0.738c0.209-0.128,0.393-0.293,0.541-0.487
		c0.122-0.098,0.232-0.209,0.328-0.333c0.321-0.255,0.562-0.607,0.68-1.012c0.82-0.249,1.418-1.012,1.418-1.914v-0.241
		c0.117-0.174,0.208-0.368,0.266-0.575c0.122-0.1,0.232-0.213,0.328-0.338c0.096-0.077,0.184-0.162,0.264-0.254
		c0.369-0.271,0.642-0.665,0.758-1.121c0.408-0.336,0.682-0.832,0.724-1.391c0.417-0.366,0.681-0.904,0.681-1.503v-0.484
		c0-0.413-0.125-0.796-0.339-1.114v-0.24c0-0.478-0.168-0.917-0.447-1.261c1.005-0.105,1.788-0.956,1.788-1.989v-0.926
		c0.136-0.202,0.235-0.43,0.29-0.675c0.12-0.165,0.214-0.345,0.278-0.536c0.171-0.211,0.299-0.458,0.372-0.728
		c0.253-0.335,0.403-0.752,0.403-1.205v-0.484c0-0.628-0.289-1.188-0.742-1.555c-0.058-0.206-0.147-0.398-0.264-0.572v-0.347
		c0.214-0.318,0.338-0.701,0.338-1.113v-1.16c0-1.104-0.896-2-2-2h-0.017v-0.036c0-0.956-0.67-1.755-1.566-1.953
		c-0.033-0.063-0.07-0.126-0.11-0.186C287.397,274.448,286.524,273.609,285.456,273.609L285.456,273.609z"/>
</g>
</svg>
