<?xml version="1.0" encoding="utf-8"?>
<!-- Generator: Adobe Illustrator 16.0.0, SVG Export Plug-In . SVG Version: 6.00 Build 0)  -->
<!DOCTYPE svg PUBLIC "-//W3C//DTD SVG 1.1//EN" "http://www.w3.org/Graphics/SVG/1.1/DTD/svg11.dtd">
<svg version="1.1" id="Layer_1" xmlns="http://www.w3.org/2000/svg" xmlns:xlink="http://www.w3.org/1999/xlink" x="0px" y="0px"
	 width="216px" height="42px" viewBox="0 0 216 42" enable-background="new 0 0 216 42" xml:space="preserve">
<g>
	<path fill="#008D9A" d="M40.566,15.833c-0.437,0.423-1.011,0.797-1.764,1.043c-2.536,0.803-2.499,0.955-3.479,1.912
		c-0.458,0.444-0.609,0.381-0.604,0.144c0.211-0.566,0.538-1.101,1.024-1.56C37.357,15.847,39.406,15.74,40.566,15.833
		 M29.061,10.479c3.635-1.529,3.712-0.783,10.248,1.878c0,0,0.986,0.269,1.35-0.956c0,0-0.945-1.076-0.512-2.83
		c0,0,1.052-0.143,1.78,2.3c0,0,1.157-0.047,1.775,0.606c0.621,0.654,0.372,1.228,1.781,2.335c0,0,0.287,0.885-0.655,1
		c-0.944,0.108-2.388-0.495-2.972-1.146c0,0-0.17,0.775-0.781,1.593c-0.983-0.126-2.74-0.178-4.379,0.707
		c-0.729,0.397-1.298,0.953-1.728,1.519c-0.1,0.012-0.198,0.017-0.3,0.016c-0.166-0.004-0.332-0.052-0.486-0.099
		c-0.025-0.793-0.225-3.098-1.673-4.902C31.451,11.186,29.982,10.674,29.061,10.479 M25.045,12.257
		c-0.122,0.08-0.19,0.124-0.19,0.124l0.256-0.153L25.045,12.257z M14.085,11.799c0.263,0.613,2.194,4.263,10.021,0.873
		c0.329-0.146,0.64-0.283,0.94-0.415l0.066-0.029c0.786-0.345,1.475-0.654,2.082-0.931c1.164-0.318,2.575-0.374,3.802,0.534
		c2.426,1.807,2.571,5.035,2.582,5.518c-0.029,0.018,0.147,1.439-0.726,4.041c-0.871,2.603,4.06,4.357,4.06,4.357
		s0.44,1.03-0.397,0.995c-0.834-0.041-1.226-1.21-2.969-2.206c-1.744-0.995-2.299,0.091-2.112-2.576
		c0.187-2.674-3.297-7.644-7.653-7.527C19.451,14.544,15.7,15.833,14.085,11.799"/>
	<polygon fill="#048E9A" points="61,6 63.194,6 66.589,13.012 66.613,13.012 66.613,6 68.323,6 68.323,15.373 66.141,15.373 
		62.733,8.364 62.711,8.364 62.711,15.373 61,15.373 	"/>
	<path fill="#048E9A" d="M70.179,8.819c0.663-0.319,1.557-0.521,2.283-0.521c2.004,0,2.833,0.874,2.833,2.913v0.888
		c0,0.696,0.013,1.222,0.027,1.731c0.014,0.522,0.039,1.007,0.076,1.544h-1.506c-0.063-0.363-0.063-0.818-0.074-1.033h-0.027
		c-0.394,0.764-1.248,1.194-2.03,1.194c-1.161,0-2.295-0.739-2.295-2.057c0-1.031,0.472-1.637,1.12-1.972
		c0.65-0.337,1.495-0.402,2.21-0.402h0.944c0-1.115-0.473-1.494-1.48-1.494c-0.729,0-1.454,0.299-2.028,0.755L70.179,8.819z
		 M72.184,14.22c0.521,0,0.931-0.243,1.197-0.617c0.281-0.389,0.36-0.887,0.36-1.425h-0.743c-0.763,0-1.901,0.136-1.901,1.196
		C71.097,13.963,71.572,14.22,72.184,14.22"/>
	<path fill="#048E9A" d="M77.16,9.774h-1.263V8.458h1.263V7.075l1.71-0.58v1.963h1.517v1.316H78.87v3.223
		c0,0.59,0.152,1.14,0.804,1.14c0.305,0,0.601-0.064,0.779-0.187l0.05,1.423c-0.357,0.107-0.751,0.162-1.261,0.162
		c-1.339,0-2.081-0.873-2.081-2.242V9.774z"/>
	<path fill="#048E9A" d="M87.205,15.373h-1.621v-0.938h-0.025c-0.523,0.672-1.266,1.1-2.157,1.1c-1.558,0-2.233-1.154-2.233-2.715
		V8.459h1.71v3.692c0,0.845,0.013,1.987,1.11,1.987c1.238,0,1.504-1.41,1.504-2.297V8.459h1.713V15.373z"/>
	<path fill="#048E9A" d="M88.646,8.459h1.518v1.57h0.025c0.076-0.645,0.779-1.732,1.799-1.732c0.166,0,0.344,0,0.523,0.056v1.811
		c-0.154-0.092-0.461-0.146-0.764-0.146c-1.391,0-1.391,1.826-1.391,2.818v2.539h-1.711V8.459z"/>
	<path fill="#048E9A" d="M93.35,8.819c0.664-0.319,1.557-0.521,2.285-0.521c2.002,0,2.832,0.874,2.832,2.913v0.888
		c0,0.696,0.01,1.222,0.027,1.731c0.012,0.522,0.035,1.007,0.072,1.544h-1.502C97,15.011,97,14.556,96.986,14.341h-0.025
		c-0.398,0.764-1.248,1.194-2.029,1.194c-1.164,0-2.297-0.739-2.297-2.057c0-1.031,0.473-1.637,1.121-1.972
		c0.652-0.337,1.494-0.402,2.209-0.402h0.945c0-1.115-0.473-1.494-1.48-1.494c-0.727,0-1.453,0.299-2.027,0.755L93.35,8.819z
		 M95.354,14.22c0.523,0,0.93-0.243,1.199-0.617c0.281-0.389,0.357-0.887,0.357-1.425h-0.742c-0.764,0-1.902,0.136-1.902,1.196
		C94.266,13.963,94.74,14.22,95.354,14.22"/>
	<rect x="99.85" y="5.302" fill="#048E9A" width="1.711" height="10.072"/>
	<path fill="#048E9A" d="M106.523,6h1.926c1.916,0,4.201-0.065,4.201,2.537c0,1.102-0.703,2.017-1.84,2.176v0.028
		c0.484,0.039,0.766,0.55,0.945,0.968l1.432,3.664h-1.992l-1.074-2.929c-0.254-0.696-0.482-0.964-1.238-0.964h-0.572v3.893h-1.787V6
		z M108.311,10.002h0.588c0.879,0,1.887-0.135,1.887-1.302c0-1.128-0.996-1.222-1.887-1.222h-0.588V10.002z"/>
	<path fill="#048E9A" d="M119.223,14.985c-0.627,0.363-1.342,0.549-2.26,0.549c-2.17,0-3.434-1.314-3.434-3.584
		c0-2.001,1.012-3.654,3.051-3.654c2.436,0,3.127,1.761,3.127,4.179h-4.543c0.076,1.112,0.814,1.745,1.875,1.745
		c0.83,0,1.545-0.321,2.184-0.697V14.985z M118.072,11.238c-0.049-0.873-0.434-1.625-1.391-1.625s-1.441,0.697-1.518,1.625H118.072z
		"/>
	<path fill="#048E9A" d="M124.699,9.909c-0.525-0.189-0.906-0.299-1.533-0.299c-0.457,0-1.006,0.178-1.006,0.768
		c0,1.103,2.971,0.402,2.971,2.901c0,1.61-1.363,2.256-2.752,2.256c-0.652,0-1.318-0.119-1.941-0.296l0.104-1.479
		c0.533,0.283,1.096,0.459,1.682,0.459c0.434,0,1.123-0.176,1.123-0.848c0-1.355-2.971-0.429-2.971-2.926
		c0-1.49,1.234-2.149,2.576-2.149c0.803,0,1.326,0.134,1.863,0.256L124.699,9.909z"/>
	<path fill="#048E9A" d="M129.156,8.296c1.951,0,3.445,1.385,3.445,3.667c0,1.987-1.264,3.572-3.445,3.572
		c-2.17,0-3.434-1.585-3.434-3.572C125.723,9.681,127.219,8.296,129.156,8.296 M129.156,14.14c1.316,0,1.658-1.237,1.658-2.391
		c0-1.062-0.533-2.056-1.658-2.056c-1.111,0-1.646,1.02-1.646,2.056C127.51,12.89,127.854,14.14,129.156,14.14"/>
	<path fill="#048E9A" d="M139.648,15.373h-1.619v-0.938h-0.025c-0.523,0.672-1.264,1.1-2.156,1.1c-1.559,0-2.232-1.154-2.232-2.715
		V8.459h1.709v3.692c0,0.845,0.01,1.987,1.111,1.987c1.234,0,1.502-1.41,1.502-2.297V8.459h1.711V15.373z"/>
	<path fill="#048E9A" d="M141.092,8.459h1.52v1.57h0.023c0.076-0.645,0.777-1.732,1.799-1.732c0.166,0,0.344,0,0.525,0.056v1.811
		c-0.154-0.092-0.461-0.146-0.766-0.146c-1.391,0-1.391,1.826-1.391,2.818v2.539h-1.711V8.459z"/>
	<path fill="#048E9A" d="M149.996,9.948c-0.307-0.147-0.639-0.253-1.162-0.253c-1.057,0-1.732,0.887-1.732,2.188
		c0,1.276,0.57,2.256,1.771,2.256c0.484,0,1.02-0.186,1.314-0.323l0.076,1.491c-0.496,0.164-1.008,0.229-1.709,0.229
		c-2.156,0-3.242-1.543-3.242-3.652c0-2.002,1.125-3.587,3.176-3.587c0.689,0,1.189,0.081,1.66,0.229L149.996,9.948z"/>
	<path fill="#048E9A" d="M156.316,14.985c-0.627,0.363-1.34,0.549-2.258,0.549c-2.17,0-3.432-1.314-3.432-3.584
		c0-2.001,1.006-3.654,3.049-3.654c2.438,0,3.127,1.761,3.127,4.179h-4.543c0.076,1.112,0.814,1.745,1.875,1.745
		c0.83,0,1.545-0.321,2.182-0.697V14.985z M155.17,11.238c-0.055-0.873-0.436-1.625-1.391-1.625c-0.959,0-1.443,0.697-1.52,1.625
		H155.17z"/>
	<path fill="#048E9A" d="M161.795,9.909c-0.523-0.189-0.908-0.299-1.531-0.299c-0.461,0-1.01,0.178-1.01,0.768
		c0,1.103,2.973,0.402,2.973,2.901c0,1.61-1.363,2.256-2.756,2.256c-0.65,0-1.312-0.119-1.939-0.296l0.102-1.479
		c0.537,0.283,1.098,0.459,1.688,0.459c0.43,0,1.119-0.176,1.119-0.848c0-1.355-2.973-0.429-2.973-2.926
		c0-1.49,1.24-2.149,2.578-2.149c0.805,0,1.328,0.134,1.861,0.256L161.795,9.909z"/>
	<polygon fill="#37A4AD" points="61.237,20.236 62.128,20.236 62.128,24.274 66.179,20.236 67.338,20.236 62.98,24.479 
		67.712,29.241 66.485,29.241 62.128,24.738 62.128,29.241 61.237,29.241 	"/>
	<path fill="#37A4AD" d="M72.197,28.182h-0.028c-0.36,0.789-1.277,1.213-2.087,1.213c-1.873,0-2.17-1.264-2.17-1.858
		c0-2.204,2.35-2.308,4.051-2.308h0.155v-0.337c0-1.121-0.399-1.688-1.497-1.688c-0.684,0-1.328,0.155-1.934,0.54v-0.787
		c0.504-0.243,1.355-0.448,1.934-0.448c1.628,0,2.311,0.735,2.311,2.45v2.9c0,0.531,0,0.931,0.063,1.381h-0.798V28.182z
		 M72.118,25.924h-0.231c-1.408,0-3.082,0.144-3.082,1.59c0,0.861,0.617,1.185,1.368,1.185c1.91,0,1.945-1.664,1.945-2.374V25.924z"
		/>
	<path fill="#37A4AD" d="M74.285,24.209c0-0.503,0-1.02-0.05-1.548h0.787v1.175h0.025c0.272-0.595,0.761-1.328,2.128-1.328
		c1.627,0,2.246,1.083,2.246,2.527v4.204h-0.814v-3.998c0-1.237-0.437-2.037-1.56-2.037c-1.484,0-1.949,1.301-1.949,2.398v3.637
		h-0.813V24.209z"/>
	<path fill="#37A4AD" d="M86.09,28.699c0,1.831-0.826,3.327-3.083,3.327c-0.866,0-1.655-0.244-1.985-0.347l0.062-0.814
		c0.502,0.26,1.223,0.466,1.934,0.466c2.09,0,2.271-1.524,2.271-3.38h-0.025c-0.439,0.954-1.162,1.289-2,1.289
		c-2.104,0-2.773-1.831-2.773-3.288c0-2,0.773-3.446,2.708-3.446c0.88,0,1.444,0.118,2.052,0.904h0.023v-0.748h0.816V28.699z
		 M83.277,28.544c1.471,0,1.996-1.392,1.996-2.592c0-1.587-0.462-2.748-1.945-2.748c-1.551,0-1.949,1.47-1.949,2.748
		C81.379,27.24,81.896,28.544,83.277,28.544"/>
	<path fill="#37A4AD" d="M91.254,28.182h-0.027c-0.361,0.789-1.279,1.213-2.089,1.213c-1.873,0-2.17-1.264-2.17-1.858
		c0-2.204,2.349-2.308,4.05-2.308h0.156v-0.337c0-1.121-0.4-1.688-1.496-1.688c-0.685,0-1.328,0.155-1.935,0.54v-0.787
		c0.503-0.243,1.354-0.448,1.935-0.448c1.625,0,2.309,0.735,2.309,2.45v2.9c0,0.531,0,0.931,0.064,1.381h-0.797V28.182z
		 M91.174,25.924h-0.232c-1.404,0-3.081,0.144-3.081,1.59c0,0.861,0.617,1.185,1.364,1.185c1.91,0,1.949-1.664,1.949-2.374V25.924z"
		/>
	<path fill="#37A4AD" d="M93.344,24.132c0-0.722,0-0.991-0.053-1.471h0.812v1.263h0.025c0.295-0.734,0.852-1.418,1.689-1.418
		c0.195,0,0.428,0.041,0.568,0.079v0.849c-0.168-0.051-0.385-0.075-0.594-0.075c-1.287,0-1.639,1.445-1.639,2.632v3.251h-0.811
		V24.132z"/>
	<path fill="#37A4AD" d="M99.572,22.506c2.127,0,3.068,1.652,3.068,3.444c0,1.795-0.941,3.444-3.068,3.444
		c-2.131,0-3.07-1.649-3.07-3.444C96.502,24.158,97.441,22.506,99.572,22.506 M99.572,28.698c1.418,0,2.18-1.225,2.18-2.748
		s-0.762-2.747-2.18-2.747c-1.422,0-2.182,1.224-2.182,2.747S98.15,28.698,99.572,28.698"/>
	<path fill="#37A4AD" d="M106.332,22.506c2.127,0,3.068,1.652,3.068,3.444c0,1.795-0.941,3.444-3.068,3.444
		c-2.131,0-3.072-1.649-3.072-3.444C103.26,24.158,104.201,22.506,106.332,22.506 M106.332,28.698c1.418,0,2.18-1.225,2.18-2.748
		s-0.762-2.747-2.18-2.747c-1.422,0-2.182,1.224-2.182,2.747S104.91,28.698,106.332,28.698"/>
	<rect x="113.852" y="20.236" fill="#37A4AD" width="0.891" height="9.003"/>
	<path fill="#37A4AD" d="M115.812,28.285c0.49,0.247,1.084,0.413,1.717,0.413c0.775,0,1.455-0.427,1.455-1.173
		c0-1.562-3.156-1.316-3.156-3.226c0-1.304,1.057-1.792,2.139-1.792c0.35,0,1.047,0.075,1.627,0.296l-0.078,0.709
		c-0.424-0.193-1.006-0.31-1.457-0.31c-0.838,0-1.42,0.259-1.42,1.097c0,1.225,3.238,1.071,3.238,3.226
		c0,1.395-1.301,1.87-2.297,1.87c-0.629,0-1.266-0.077-1.844-0.31L115.812,28.285z"/>
	<rect x="120.744" y="19.562" fill="#37A4AD" width="0.814" height="9.677"/>
	<path fill="#37A4AD" d="M126.768,28.182h-0.027c-0.359,0.789-1.273,1.213-2.088,1.213c-1.873,0-2.17-1.264-2.17-1.858
		c0-2.204,2.35-2.308,4.055-2.308h0.152v-0.337c0-1.121-0.4-1.688-1.496-1.688c-0.682,0-1.328,0.155-1.936,0.54v-0.787
		c0.504-0.243,1.355-0.448,1.936-0.448c1.627,0,2.309,0.735,2.309,2.45v2.9c0,0.531,0,0.931,0.064,1.381h-0.799V28.182z
		 M126.689,25.924h-0.23c-1.408,0-3.084,0.144-3.084,1.59c0,0.861,0.617,1.185,1.369,1.185c1.908,0,1.945-1.664,1.945-2.374V25.924z
		"/>
	<path fill="#37A4AD" d="M128.859,24.209c0-0.503,0-1.02-0.053-1.548h0.787v1.175h0.025c0.271-0.595,0.762-1.328,2.129-1.328
		c1.625,0,2.246,1.083,2.246,2.527v4.204h-0.814v-3.998c0-1.237-0.439-2.037-1.561-2.037c-1.484,0-1.949,1.301-1.949,2.398v3.637
		h-0.811V24.209z"/>
	<path fill="#37A4AD" d="M140.682,29.241h-0.814v-1.047h-0.023c-0.439,0.84-1.111,1.2-2.053,1.2c-1.809,0-2.709-1.497-2.709-3.444
		c0-1.999,0.773-3.444,2.709-3.444c1.289,0,1.938,0.943,2.053,1.265h0.023v-4.206h0.814V29.241z M137.92,28.698
		c1.447,0,1.947-1.548,1.947-2.748c0-1.199-0.5-2.747-1.947-2.747c-1.549,0-1.949,1.471-1.949,2.747
		C135.971,27.229,136.371,28.698,137.92,28.698"/>
	<polygon fill="#C0D5DA" points="61.262,9.413 61.304,9.372 61.221,9.31 	"/>
</g>
</svg>
