<?xml version="1.0" encoding="utf-8"?>
<!-- Generator: Adobe Illustrator 16.0.0, SVG Export Plug-In . SVG Version: 6.00 Build 0)  -->
<!DOCTYPE svg PUBLIC "-//W3C//DTD SVG 1.1//EN" "http://www.w3.org/Graphics/SVG/1.1/DTD/svg11.dtd">
<svg version="1.1" id="NY" xmlns="http://www.w3.org/2000/svg" xmlns:xlink="http://www.w3.org/1999/xlink" x="0px" y="0px"
	 width="358px" height="409px" viewBox="0 0 358 409" enable-background="new 0 0 358 409" xml:space="preserve">
<g>
	<path fill="#D18A00" d="M228.74,311.681c-0.154,0-0.306-0.037-0.443-0.117l-0.152-0.089c-0.321-0.204-0.567-0.523-0.938-1.028
		l-0.077-0.106c-0.073-0.1-0.129-0.182-0.178-0.235l-0.058-0.065c-0.261-0.226-0.434-0.569-0.392-0.899l0.015-0.114
		c0.011-0.083,0.031-0.163,0.062-0.24l0.113-0.271c0.076-0.159,0.129-0.268,0.18-0.401c0.028-0.067,0.047-0.115,0.059-0.148
		c0.025-0.112,0.07-0.217,0.131-0.311c0.107-0.227,0.3-0.412,0.548-0.506c0.072-0.027,0.305-0.08,0.522-0.116l0.252-0.04
		c0.174-0.028,0.489-0.456,0.659-0.686c0.151-0.203,0.214-0.284,0.273-0.348c0.614-0.701,1.197-1.554,0.759-2.448
		c-0.008-0.016-0.016-0.032-0.023-0.047c-0.188-0.108-0.34-0.276-0.427-0.485c-0.155-0.374-0.069-0.804,0.217-1.09l0.188-0.188
		l-0.001,0c-0.004,0,0.1-0.104,0.184-0.18c0.187-0.177,0.405-0.383,0.581-0.808c0.084-0.199,0.158-0.451,0.239-0.725
		c0.441-1.453,0.684-1.922,1.126-2.192c0.159-0.097,0.339-0.146,0.521-0.146c0.089,0,0.178,0.012,0.265,0.036l0.445,0.122
		c0.818,0.297,1.306,0.477,1.917,0.477c0.194,0,0.406-0.017,0.64-0.055c0.19-0.032,0.465-0.101,0.785-0.183l0.108-0.027
		c0.695-0.176,1.487-0.376,2.146-0.376c0.224,0,0.413,0.023,0.579,0.069c0.115,0.033,0.224,0.085,0.319,0.156l2.335,1.706
		c0.47-0.243,1.385-0.949,1.656-1.226c0.127-0.255,0.178-0.733,0.219-1.123c0.021-0.232,0.044-0.457,0.079-0.631l0.792-4.017
		c0.064-0.345,0.167-0.733,0.275-1.137c0.342-1.26,0.692-2.557,0.376-3.509l-0.208-0.582c-0.284-0.782-0.553-1.52-0.431-2.395
		c0.032-0.217,0.072-0.405,0.11-0.583l0.019-0.089c0.204-0.917,0.101-0.957-0.208-1.073l-0.233-0.088
		c-0.381-0.145-0.636-0.507-0.645-0.915c-0.008-0.408,0.232-0.78,0.607-0.94l0.229-0.098c0.469-0.2,0.614-0.756,0.783-1.581
		l0.026-0.126c0.058-0.258,0.108-0.483,0.173-0.708c0.497-1.704-0.009-2.938-0.777-4.497l-0.072-0.149
		c-0.146-0.305-0.128-0.663,0.048-0.952c0.176-0.289,0.485-0.469,0.822-0.48l0.153-0.005c0.635-0.023,0.827-0.181,0.943-0.447
		c0.076-0.176,0.155-0.339,0.229-0.492l0.155-0.321c0.469-0.921,0.623-1.223-0.011-2.01c-0.273-0.34-0.34-0.875-0.098-1.238
		c0.273-0.413,0.701-0.768,1.196-1.163l0.146-0.115c0.217-0.167,0.371-0.283,0.473-0.379l0.198-0.163
		c0.122-0.097,0.349-0.279,0.455-0.407l-0.043-0.077c-0.06-0.097-0.244-0.425-0.375-0.683c-0.005-0.009-0.039-0.082-0.043-0.091
		c-0.17-0.362-0.107-0.792,0.159-1.09l4.588-5.141c0.285-0.327,0.56-0.655,0.828-0.98c0.644-0.777,1.145-1.365,1.747-1.87
		c0.183-0.153,0.411-0.233,0.643-0.233c0.098,0,0.195,0.014,0.291,0.043l0.711,0.216l0.138-0.601
		c0.032-0.14,0.094-0.271,0.181-0.384l0.343-0.448c0.112-0.148,0.263-0.259,0.432-0.325c-0.278-0.208-0.44-0.555-0.395-0.924
		l0.063-0.516c0.048-0.39-0.176-0.78-0.394-1.156c-0.106-0.19-0.172-0.306-0.232-0.424c-0.945-1.898-1.092-2.503-0.844-4.329
		c-0.873-0.089-1.239-0.912-1.42-1.319c-0.087-0.194-0.109-0.41-0.064-0.618l0.048-0.222c0.007-0.033,0.016-0.065,0.026-0.097
		c0.07-0.217,0.215-0.415,0.4-0.555c-0.07-0.202-0.075-0.427-0.002-0.645l0.191-0.568c0.3-0.89,0.924-1.629,0.93-1.636l0.188-0.209
		c0.193-0.216,0.466-0.333,0.745-0.333c0.12,0,0.241,0.021,0.357,0.066c0.18,0.069,0.331,0.186,0.441,0.333
		c0.347-0.412,0.691-0.679,1.174-0.934l0.131-0.069c0.146-0.076,0.305-0.114,0.464-0.114c0.156,0,0.313,0.037,0.457,0.11
		c0.096,0.049,0.183,0.113,0.256,0.188c0.417-0.892,0.615-1.443,0.223-2.432c-0.154-0.385-0.713-0.735-1.206-1.043
		c-0.724-0.455-0.976-0.64-1.146-0.918c-0.07-0.113-0.117-0.24-0.138-0.371c-0.252-1.625-0.489-3.216-0.719-4.806
		c-0.04-0.261-0.091-0.501-0.137-0.715l-0.031-0.153c-0.231-1.076-0.182-1.651,0.586-2.183c-0.077-0.057-0.155-0.113-0.233-0.17
		c-0.979-0.716-2.086-1.524-1.846-2.761c0.17-0.888,0.17-0.888-0.437-1.406l-0.12-0.093c-0.155-0.122-0.271-0.287-0.332-0.475
		c-0.168-0.511,0.001-0.958,0.172-1.356c-0.009,0-0.018,0-0.026,0c-0.25,0-0.492-0.094-0.678-0.265c0,0-0.137-0.127-0.153-0.144
		l-0.294,4.481c-0.002,0.02-0.004,0.058,0.046,0.153c0.253,0.475,0.132,1.15-0.334,1.419l-1.836,1.064l-0.633,0.621
		c-0.03,0.029-0.062,0.057-0.096,0.083l-1.244,0.944c-0.177,0.134-0.39,0.204-0.604,0.204c-0.119,0-0.238-0.021-0.354-0.064
		c-0.321-0.121-0.559-0.4-0.627-0.737l-0.156-0.771c-0.013-0.065-0.02-0.132-0.02-0.198l-0.002-4.502
		c0-0.265,0.105-0.52,0.293-0.708c0.106-0.107,0.235-0.187,0.375-0.236v-9.566c0-0.552,0.447-1,1-1h2.494c0.553,0,1,0.448,1,1v1.033
		h4.123c0.15,0,0.3,0.034,0.436,0.1l0.511,0.248l0.164-0.002v-1.042c0-0.294,0.127-0.56,0.33-0.743v-1.292
		c0-0.161,0.038-0.312,0.105-0.447c-0.048-0.115-0.074-0.239-0.077-0.366l-0.013-0.659c-0.212-0.184-0.346-0.455-0.346-0.757v-0.412
		c0-0.223,0.075-0.44,0.212-0.616l0.138-0.175l-0.019-1.229c-0.003-0.233,0.075-0.46,0.221-0.642l0.117-0.146
		c0.007-0.29,0.137-0.551,0.341-0.729c0.019-0.273,0.148-0.516,0.343-0.685c0.025-0.163,0.091-0.318,0.191-0.451l0.287-0.379
		c0.054-0.071,0.117-0.134,0.187-0.188c0.021-0.266,0.145-0.502,0.331-0.669c0.02-0.273,0.148-0.517,0.343-0.686
		c0.026-0.173,0.099-0.338,0.209-0.476l0.121-0.151c0.019-0.183,0.087-0.358,0.199-0.506l0.285-0.375
		c0.053-0.07,0.114-0.132,0.183-0.185v-5.279c0-0.225,0.076-0.443,0.215-0.62l0.136-0.171l-0.019-1.301
		c-0.004-0.268,0.1-0.526,0.288-0.716c0.188-0.19,0.444-0.298,0.712-0.298h9.796c0.23,0,0.455,0.08,0.634,0.226l0.168,0.138
		c0,0,6.978-0.024,6.979-0.024c0.265,0,0.519,0.105,0.706,0.292c0.188,0.188,0.294,0.443,0.294,0.708v1.088
		c0,0.541-0.43,0.983-0.971,1l-1.601,0.047c-0.034,0.042-0.072,0.081-0.113,0.117c-0.023,0.33-0.207,0.615-0.473,0.779
		c-0.056,0.092-0.126,0.175-0.208,0.245c-0.029,0.197-0.117,0.381-0.254,0.529l-0.163,0.176c0.053,0.11,0.086,0.232,0.095,0.36
		c0.204,0.183,0.332,0.449,0.332,0.745v0.271c0.207,0.183,0.338,0.451,0.338,0.75v0.407c0,0.098-0.015,0.195-0.042,0.287h1.724
		c0.553,0,1,0.448,1,1v5.442h0.678c0.553,0,1,0.448,1,1v7.479h0.676c0.553,0,1,0.448,1,1v3.012c0,0.105-0.017,0.209-0.049,0.309
		l-0.258,0.794l-0.013,0.99h7.032c0.3,0,0.569,0.132,0.753,0.342h4.271c0.553,0,1,0.448,1,1v2.278c0,0.148-0.033,0.295-0.097,0.429
		l-0.247,0.519l0.01,7.354c0,0.225-0.075,0.442-0.214,0.619l-0.142,0.181l0.021,4.305c0.001,0.28-0.115,0.549-0.321,0.739
		c-0.186,0.171-0.428,0.266-0.679,0.266c-0.027,0-0.056-0.001-0.084-0.003l-3.435-0.288l-6.11,0.003
		c-0.149,0-0.298-0.034-0.433-0.098l-0.513-0.246l-2.92,0.007c-0.036,0.085-0.084,0.165-0.144,0.238l-0.131,0.162l0.015,0.534
		c0.006,0.233-0.069,0.461-0.214,0.645l-0.133,0.169l0.015,0.619c0.006,0.269-0.097,0.53-0.284,0.723
		c-0.169,0.172-0.394,0.277-0.632,0.298c-0.183,0.21-0.453,0.343-0.754,0.343h-0.012v0.953c0.164,0.051,0.314,0.145,0.435,0.273
		c0.188,0.203,0.285,0.475,0.267,0.751l-0.033,0.479c-0.023,0.33-0.205,0.614-0.467,0.778c-0.174,0.295-0.495,0.494-0.863,0.494
		h-0.255c-0.035,0.041-0.074,0.078-0.116,0.112c0.001,0.01,0.009,0.32,0.009,0.32c0.03,0.009,0.061,0.02,0.091,0.032
		c0.218,0.088,0.393,0.247,0.501,0.444h1.442c0.553,0,1,0.448,1,1v0.696h0.01c0.553,0,1,0.448,1,1v0.484
		c0,0.296-0.129,0.563-0.334,0.746v2.307c0,0.299-0.131,0.567-0.339,0.75c-0.039,0.517-0.471,0.924-0.997,0.924H283.1v1.163
		c0.129,0.114,0.228,0.261,0.283,0.427h0.061c0.553,0,1,0.448,1,1v0.076c0.389,0.137,0.668,0.507,0.668,0.943v0.479
		c0,0.296-0.129,0.563-0.334,0.746v0.951c0,0.227-0.075,0.436-0.203,0.604c0.111,0.162,0.173,0.354,0.175,0.553l0.003,0.273
		c0.004,0,0.007,0,0.01,0c0.126,0,0.253,0.024,0.374,0.073c0.374,0.151,0.621,0.512,0.626,0.915l0.02,1.565
		c0.001,0.059-0.004,0.116-0.013,0.173l0.028,0.029c0.182,0.182,0.286,0.426,0.293,0.683l0.028,1.185
		c0.001,0.057-0.003,0.114-0.011,0.17c0.211,0.183,0.345,0.454,0.345,0.755v2.058c0.221,0.015,0.431,0.102,0.597,0.249l0.713,0.63
		c0.202,0.179,0.323,0.431,0.337,0.7c0.223,0.184,0.365,0.461,0.365,0.773v0.609c0.205,0.183,0.334,0.45,0.334,0.746v0.271
		c0.189,0.169,0.313,0.409,0.332,0.677c0.209,0.184,0.341,0.453,0.341,0.752v0.287c0.221,0.301,0.259,0.708,0.082,1.05
		c-0.174,0.337-0.521,0.542-0.889,0.542c-0.07,0-0.142-0.007-0.213-0.023l-0.168-0.037h-1.229c-0.22,0-0.434-0.072-0.608-0.206
		l-0.371-0.284c-0.24-0.184-0.384-0.467-0.392-0.771l-0.01-0.433h-0.701c-0.299,0-0.566-0.131-0.749-0.338h-0.707
		c-0.183,0.207-0.45,0.338-0.749,0.338l-0.002,0.021c0,0.296-0.129,0.563-0.334,0.746v0.057c0.205,0.183,0.334,0.45,0.334,0.746
		v0.822c0,0.552-0.447,1-1,1h-0.441c0.111,0.291,0.082,0.619-0.085,0.886c-0.072,0.116-0.166,0.214-0.274,0.291
		c-0.084,0.151-0.206,0.279-0.354,0.37c-0.175,0.292-0.493,0.487-0.858,0.487h-2.825c-0.438,0-0.812-0.283-0.946-0.676h-2.895
		c-0.108,0-0.216-0.018-0.318-0.052l-0.776-0.261l-5.694-0.029c-0.32-0.001-0.62-0.157-0.808-0.417
		c-0.322-0.449-0.622-0.711-0.974-0.85c-0.507-0.2-0.852-0.807-0.659-1.318c0.126-0.343,0.174-0.474-0.137-1.041l-1.113-2.005
		c-0.048,0.056-0.326,0.378-0.326,0.378c-0.655,0.745-1.54,1.753-1.563,2.264c-0.014,0.251-0.001,0.549,0.011,0.865l-0.996,0.143
		l1-0.039c0.048,1.247,0.103,2.659-0.649,3.407l-0.478,0.472c-0.878,0.859-1.631,1.596-2.09,2.773l-0.148,0.352
		c-0.376,0.925-1.169,2.878-0.842,3.639c0.024,0.055,0.045,0.103,0.275,0.234c0.394,0.225,0.652,0.724,0.537,1.162l-0.721,2.731
		c-0.469,1.775-0.923,2.87-1.801,4.339c-0.551,0.921-0.793,1.982-1.027,3.008l-0.189,0.813l-0.604,2.435
		c-0.059,0.234-0.199,0.439-0.396,0.578c-0.14,0.098-0.287,0.174-0.437,0.237l0.018,0.069c0.182,0.238,0.279,0.501,0.319,0.627
		c0.057,0.184,0.216,0.796-0.014,1.289c-0.058,0.123-0.139,0.232-0.239,0.323l-0.449,0.395c-1.355,1.229-2.071,1.372-2.491,1.372
		c-0.229,0-0.452-0.079-0.63-0.223c-1.521-1.234-3.02-2.342-4.605-2.342c-0.484,0-0.966,0.106-1.431,0.315l-0.276,0.12
		c-0.407,0.169-0.586,0.251-0.728,0.503c-0.038,0.067-0.107,0.211-0.118,0.233l-0.04,0.109c-0.034,0.093-0.082,0.18-0.143,0.259
		l-0.096,0.126c-0.189,0.25-0.484,0.395-0.796,0.395c-0.025,0-0.589-0.042-0.589-0.042c-0.32-0.025-0.578-0.044-0.793-0.044
		c-0.558,0-0.782,0.11-1.55,1.118c-0.519,0.676-0.912,1.119-1.653,1.119c-0.197,0-0.421-0.026-0.708-0.073l-0.659-0.09
		c-0.293-0.034-0.594-0.089-0.87-0.143c-0.418-0.078-0.699-0.126-0.974-0.126c-0.449,0-0.773,0.153-1.119,0.528l-0.182,0.21
		c-0.54,0.615-1.252,1.428-2.162,1.602C229.043,311.646,228.891,311.681,228.74,311.681z"/>
	<path fill="#FFFFFF" d="M274.657,193.186l0.446,0.365l7.334-0.025v1.088l-2.346,0.069v0.345h-0.336v0.677h-0.334v0.338h-0.338
		v0.609l-1.188,1.284h0.855v0.676h0.33v1.021h0.338v0.407l-1.193,1.287h3.875v6.442h1.678v8.479h1.676v3.012l-0.305,0.938
		l-0.027,2.154h8.045v0.342h5.023v2.278l-0.344,0.724l0.01,7.58l-0.357,0.455l0.023,4.653l-3.435-0.288h-6.194l-0.719-0.345
		l-4.066,0.01v0.605l-0.364,0.449l0.024,0.903l-0.355,0.452l0.023,0.979h-0.67v0.34h-1.012v2.908h0.703l-0.033,0.479h-0.332v0.342
		h-1.004v0.338h-1.188l0.822,0.828l0.027,1.088l0.436,0.407l0.261-0.271v0.517h2.317v1.696h1.01v0.484h-0.334v3.053h-0.336v0.674
		H282.1v2.91h0.336v0.68h1.008v1.02h0.668v0.479h-0.334v1.697h-1.185l1.156,1.168l0.026,2.26l0.986-0.998l0.02,1.565l-0.254,0.334
		l0.562,0.562l0.028,1.185l-0.863,0.901h1.197v3.056h0.935l0.713,0.63l0.026,0.724h0.338v1.355h0.334v1.018h0.334v0.684h0.339v0.702
		l0.193,0.176l-0.273-0.06h-1.336l-0.371-0.284l-0.033-1.409h-1.678v-0.338h-2.205v0.338h-1.002v1.021h-0.334v1.549h0.334v0.822
		h-2.043l0.668,1.357h-0.302v0.336h-0.336v0.34h-2.825v-0.676h-3.841l-0.929-0.312l-5.855-0.03
		c-0.429-0.597-0.875-0.981-1.418-1.196l-0.092-0.036l0.034-0.091c0.198-0.541,0.219-0.966-0.229-1.783l-1.863-3.356l-0.547,0.766
		c-0.113,0.154-0.283,0.354-0.479,0.576l-0.187,0.218c-1.031,1.174-1.766,2.065-1.803,2.868c-0.016,0.295,0,0.66,0.014,1.045
		c0.037,0.957,0.088,2.229-0.354,2.668l-0.476,0.47c-0.915,0.896-1.78,1.741-2.318,3.121l-0.138,0.325
		c-0.675,1.661-1.292,3.373-0.839,4.425c0.148,0.345,0.388,0.53,0.697,0.707l0.066,0.038l-0.721,2.73
		c-0.446,1.69-0.857,2.685-1.692,4.082c-0.63,1.053-0.892,2.194-1.144,3.299l-0.188,0.809l-0.601,2.421
		c-0.199,0.14-0.479,0.22-0.663,0.271c-0.177,0.051-0.308,0.084-0.404,0.116l0.325,1.263c0.003-0.002,0.006-0.002,0.01-0.002
		c0.049,0,0.182,0.18,0.254,0.407c0.081,0.263,0.067,0.49,0.033,0.563c-0.102,0.091-0.441,0.389-0.441,0.389
		c-0.564,0.512-1.346,1.124-1.832,1.124c-1.545-1.253-3.271-2.565-5.235-2.565c-0.634,0-1.251,0.138-1.841,0.403l-0.264,0.114
		c-0.426,0.177-0.884,0.366-1.201,0.93c-0.062,0.106-0.113,0.221-0.168,0.331l-0.058,0.156l-0.096,0.126l-0.513-0.039
		c-0.35-0.027-0.633-0.047-0.869-0.047c-1.072,0-1.562,0.482-2.346,1.512c-0.529,0.691-0.658,0.725-0.857,0.725
		c-0.152,0-0.325-0.023-0.547-0.06l-0.685-0.094c-0.286-0.033-0.56-0.084-0.812-0.134c-0.434-0.08-0.795-0.145-1.168-0.145
		c-0.732,0-1.321,0.271-1.854,0.85l-0.202,0.233c-0.48,0.548-1.135,1.29-1.76,1.29l-0.031-0.001v0.085l-0.152-0.089
		c-0.146-0.093-0.403-0.439-0.637-0.757c-0.142-0.193-0.248-0.346-0.332-0.435l-0.101-0.114l-0.085-0.038l0.015-0.114
		c0.015-0.037,0.104-0.25,0.104-0.25c0.062-0.125,0.127-0.262,0.191-0.428c0.059-0.142,0.098-0.257,0.1-0.283l0.074-0.01l-0.014-0.1
		c0.049-0.019,0.217-0.046,0.362-0.07l0.212-0.033c0.581-0.094,0.984-0.641,1.309-1.08c0.104-0.139,0.156-0.212,0.207-0.268
		c0.469-0.534,1.709-1.95,0.918-3.562c-0.115-0.233-0.178-0.389-0.211-0.475h-0.213l0.188-0.188
		c0.029-0.035,0.095-0.099,0.146-0.146c0.229-0.216,0.572-0.535,0.834-1.166c0.094-0.222,0.182-0.511,0.274-0.826
		c0.319-1.049,0.521-1.519,0.688-1.621l0.445,0.122c0.79,0.291,1.393,0.513,2.182,0.513c0.243,0,0.508-0.021,0.799-0.067
		c0.219-0.037,0.522-0.111,0.875-0.202l0.102-0.025c0.645-0.163,1.372-0.347,1.904-0.347c0.188,0,0.277,0.023,0.309,0.032
		l2.707,1.979l0.169-0.02c0.567,0,2.374-1.464,2.53-1.713c0.265-0.431,0.33-1.046,0.388-1.591c0.019-0.205,0.036-0.393,0.065-0.537
		l0.793-4.022c0.062-0.332,0.158-0.693,0.26-1.069c0.375-1.385,0.771-2.846,0.359-4.085l-0.215-0.603
		c-0.258-0.708-0.471-1.29-0.383-1.921c0.027-0.185,0.063-0.352,0.098-0.509l0.021-0.1c0.155-0.696,0.392-1.747-0.834-2.21
		l-0.231-0.088l0.229-0.098c0.986-0.42,1.199-1.463,1.371-2.302l0.025-0.123c0.047-0.211,0.094-0.424,0.154-0.635
		c0.596-2.041-0.029-3.568-0.842-5.215l-0.066-0.139l0.153-0.005c0.597-0.021,1.435-0.147,1.827-1.046
		c0.085-0.195,0.172-0.371,0.251-0.535l0.117-0.242c0.487-0.957,0.909-1.779-0.132-3.072l-0.045-0.057l0.041-0.062
		c0.174-0.263,0.685-0.665,0.986-0.906l0.098-0.076c0.223-0.172,0.418-0.321,0.545-0.441l0.134-0.106
		c0.444-0.355,1.103-0.879,0.786-1.529l-0.12-0.219c-0.073-0.121-0.241-0.42-0.36-0.654l-0.029-0.062l4.588-5.141
		c0.299-0.343,0.58-0.679,0.854-1.011c0.604-0.729,1.07-1.28,1.618-1.739l1.737,0.528l0.377-1.646l0.343-0.448l0.128,0.003
		c0.242,0,0.701-0.101,1.059-0.774l0.385-0.741l-1.021-0.179l-0.315-0.043l0.063-0.516c0.089-0.717-0.247-1.306-0.519-1.777
		c-0.07-0.125-0.144-0.252-0.211-0.383c-0.932-1.871-0.98-2.186-0.674-4.207l0.144-0.953l-0.908,0.275
		c-0.047,0.014-0.092,0.021-0.138,0.021c-0.311,0-0.484-0.332-0.663-0.733l0.048-0.222l0.021-0.066h3.574l-3.201-1.121l0.191-0.568
		c0.211-0.625,0.661-1.211,0.74-1.303l0.175-0.195v0.264c0.002,0,0.003,0,0.004,0c0.034,0,0.093,0.09,0.151,0.21l0.451,0.97
		l0.58-0.89c0.428-0.64,0.721-0.923,1.254-1.205l0.127-0.066l0.365,2.591l0.838-1.957c0.108-0.257,0.219-0.487,0.316-0.7
		c0.499-1.056,0.93-1.963,0.346-3.436c-0.275-0.687-0.981-1.132-1.605-1.522c-0.547-0.344-0.77-0.504-0.826-0.596
		c-0.252-1.621-0.488-3.209-0.717-4.795c-0.045-0.291-0.1-0.55-0.148-0.78l-0.029-0.145c-0.207-0.959-0.186-1.011,0.574-1.394
		l0.809-0.403l-0.688-0.601c-0.215-0.188-0.476-0.377-0.736-0.566c-0.965-0.705-1.562-1.188-1.451-1.761
		c0.252-1.312,0.173-1.554-0.77-2.357l-0.15-0.118c-0.057-0.173,0.02-0.371,0.174-0.728c0.096-0.223,0.168-0.394,0.223-0.56
		l0.262-0.799h-0.826c-0.2,0-0.377,0.018-0.537,0.032l-0.1,0.01l-0.101-0.093l-0.298-2.786l-1.209,0.027l-0.516,7.858
		c-0.017,0.229,0.036,0.452,0.161,0.688l0.048,0.085l-1.945,1.127l-0.723,0.709l-1.244,0.944l-0.156-0.771l-0.002-4.502h0.668
		v-10.51h2.494v2.033h5.123l0.721,0.349l1.39-0.01v-2.035h0.33v-2.034h0.854l-0.826-0.832l-0.026-1.396h-0.332v-0.412l0.354-0.453
		l-0.023-1.582l0.361-0.449l-0.023-0.199v-0.102h0.338v-0.68h0.334v-0.604l0.287-0.379l0.387-0.027v-0.688h0.332v-0.677h0.334
		v-0.606l0.36-0.449l-0.024-0.228l0.285-0.375l0.387-0.026v-6.043l0.355-0.45l-0.023-1.656H274.657 M281.459,244.397h0.005
		 M274.657,191.186h-9.796c-0.535,0-1.049,0.215-1.424,0.596c-0.376,0.381-0.584,0.897-0.576,1.433l0.014,0.954
		c-0.225,0.331-0.346,0.722-0.346,1.124v4.887l-0.264,0.347c-0.155,0.204-0.269,0.433-0.335,0.676
		c-0.131,0.171-0.232,0.362-0.302,0.564c-0.17,0.212-0.298,0.458-0.371,0.728c-0.142,0.187-0.25,0.399-0.319,0.629
		c-0.021,0.026-0.043,0.053-0.063,0.08l-0.287,0.379c-0.129,0.169-0.229,0.357-0.297,0.556c-0.17,0.21-0.298,0.455-0.371,0.723
		c-0.175,0.228-0.301,0.495-0.364,0.785c-0.255,0.35-0.39,0.773-0.384,1.208l0.014,0.883c-0.225,0.33-0.345,0.721-0.345,1.122v0.412
		c0,0.421,0.131,0.812,0.354,1.135l0.005,0.299c0.002,0.105,0.013,0.208,0.03,0.311c-0.038,0.155-0.059,0.316-0.059,0.483v0.933
		c-0.156,0.237-0.264,0.509-0.308,0.802c-0.044-0.003-0.089-0.004-0.133-0.004h-3.123v-0.033c0-1.104-0.896-2-2-2h-2.494
		c-1.104,0-2,0.896-2,2v9.018c-0.028,0.025-0.056,0.051-0.082,0.078c-0.376,0.375-0.586,0.884-0.586,1.415l0.002,4.502
		c0,0.133,0.014,0.266,0.04,0.396l0.156,0.771c0.137,0.674,0.61,1.231,1.254,1.474c0.229,0.086,0.468,0.129,0.706,0.129
		c0.431,0,0.856-0.139,1.209-0.407l1.244-0.944c0.067-0.051,0.132-0.106,0.191-0.165l0.543-0.532l1.728-1.001
		c0.562-0.326,0.907-0.885,0.982-1.484c0.318,0.554,0.805,1.008,1.293,1.395c-0.323,0.643-0.289,1.381-0.103,2.246l0.024,0.12
		c0.045,0.216,0.093,0.438,0.132,0.688c0.227,1.573,0.464,3.168,0.717,4.797c0.041,0.264,0.135,0.516,0.274,0.743
		c0.306,0.495,0.756,0.793,1.464,1.239c0.257,0.161,0.729,0.457,0.831,0.609c0.112,0.286,0.15,0.488,0.109,0.727
		c-0.045-0.003-0.091-0.005-0.136-0.005c-0.318,0-0.637,0.076-0.927,0.228l-0.127,0.066c-0.323,0.171-0.595,0.351-0.834,0.543
		c-0.222-0.08-0.451-0.119-0.68-0.119c-0.558,0-1.104,0.234-1.49,0.666l-0.175,0.195c-0.032,0.037-0.778,0.91-1.145,1.997
		l-0.192,0.57c-0.066,0.197-0.101,0.398-0.104,0.596c-0.117,0.164-0.211,0.348-0.275,0.547l-0.021,0.066
		c-0.021,0.064-0.038,0.129-0.053,0.194l-0.048,0.222c-0.09,0.415-0.045,0.848,0.128,1.235c0.146,0.33,0.502,1.127,1.253,1.584
		c-0.121,1.489,0.133,2.302,1.023,4.091c0.079,0.154,0.15,0.281,0.221,0.406l0.037,0.065c0.1,0.173,0.266,0.462,0.276,0.566
		l-0.063,0.502c-0.037,0.301-0.005,0.595,0.084,0.865l-0.266,0.347c-0.085,0.111-0.158,0.231-0.218,0.357
		c-0.103-0.016-0.205-0.024-0.308-0.024c-0.464,0-0.92,0.161-1.284,0.467c-0.668,0.56-1.198,1.181-1.874,1.997
		c-0.266,0.322-0.535,0.644-0.821,0.972l-4.572,5.124c-0.533,0.597-0.658,1.456-0.318,2.181l0.029,0.062
		c0.009,0.019,0.018,0.038,0.027,0.057c0.014,0.027,0.028,0.055,0.043,0.083c-0.025,0.021-0.05,0.044-0.073,0.066
		c-0.085,0.079-0.214,0.173-0.356,0.283c-0.003,0.002-0.042,0.032-0.044,0.034l-0.098,0.076l-0.059,0.046
		c-0.562,0.448-1.052,0.858-1.366,1.334l-0.037,0.056c-0.481,0.722-0.442,1.672,0.097,2.352l0.045,0.057
		c0.127,0.158,0.182,0.256,0.204,0.302c-0.039,0.133-0.18,0.408-0.284,0.614l-0.139,0.284l-0.037,0.077
		c-0.056,0.116-0.115,0.238-0.174,0.368c-0.036,0.003-0.082,0.006-0.139,0.009l-0.145,0.004c-0.676,0.021-1.295,0.383-1.646,0.96
		c-0.352,0.578-0.387,1.293-0.095,1.903l0.066,0.139c0.799,1.619,1.09,2.543,0.726,3.79c-0.072,0.253-0.129,0.499-0.183,0.744
		l-0.036,0.17c-0.053,0.259-0.146,0.718-0.242,0.886l-0.185,0.079c-0.75,0.32-1.23,1.064-1.214,1.88
		c0.016,0.756,0.456,1.433,1.127,1.759c-0.004,0.021-0.009,0.041-0.013,0.06l-0.028,0.135c-0.038,0.176-0.083,0.387-0.117,0.619
		c-0.158,1.139,0.181,2.07,0.479,2.892l0.213,0.597c0.207,0.625-0.118,1.826-0.405,2.886c-0.103,0.383-0.219,0.81-0.297,1.232
		l-0.788,4c-0.047,0.229-0.07,0.462-0.096,0.744c-0.018,0.167-0.048,0.45-0.086,0.633c-0.195,0.167-0.485,0.393-0.751,0.581
		l-1.785-1.304c-0.192-0.141-0.408-0.246-0.638-0.31c-0.256-0.072-0.534-0.107-0.851-0.107c-0.783,0-1.64,0.217-2.395,0.408
		l-0.097,0.024c-0.158,0.041-0.543,0.14-0.724,0.171c-0.157,0.025-0.318,0.039-0.465,0.039c-0.416,0-0.757-0.119-1.49-0.39
		c-0.054-0.02-0.107-0.037-0.162-0.052l-0.445-0.122c-0.175-0.048-0.353-0.071-0.529-0.071c-0.364,0-0.726,0.1-1.042,0.293
		c-0.827,0.505-1.154,1.415-1.56,2.746c-0.055,0.183-0.145,0.491-0.203,0.629c-0.1,0.241-0.191,0.327-0.355,0.482
		c-0.056,0.05-0.146,0.135-0.234,0.231l-0.15,0.15c-0.572,0.572-0.743,1.432-0.434,2.18c0.118,0.285,0.297,0.532,0.519,0.729
		c0.037,0.278-0.172,0.658-0.668,1.223c-0.05,0.054-0.132,0.155-0.263,0.332l-0.044,0.059c-0.075,0.102-0.18,0.244-0.262,0.339
		c-0.008,0.001-0.015,0.002-0.018,0.003c-0.269,0.045-0.481,0.081-0.712,0.168c-0.475,0.181-0.848,0.527-1.067,0.955
		c-0.092,0.154-0.164,0.322-0.212,0.499c-0.006,0.014-0.012,0.028-0.018,0.044c-0.056,0.141-0.095,0.223-0.133,0.298
		c-0.02,0.039-0.036,0.077-0.054,0.117c0,0-0.104,0.25-0.122,0.293c-0.061,0.154-0.103,0.315-0.123,0.48l-0.015,0.114
		c-0.091,0.707,0.201,1.395,0.741,1.822c0.021,0.029,0.044,0.06,0.067,0.093l0.079,0.107c0.429,0.584,0.741,0.985,1.175,1.262
		c0.022,0.014,0.045,0.028,0.067,0.041l0.152,0.089c0.312,0.182,0.659,0.272,1.008,0.272c0.317,0,0.636-0.076,0.926-0.227
		c1.069-0.346,1.856-1.244,2.369-1.828l0.187-0.215c0.176-0.187,0.249-0.187,0.366-0.187c0.188,0,0.44,0.044,0.805,0.111
		c0.269,0.053,0.588,0.112,0.944,0.154l0.618,0.085c0.248,0.04,0.537,0.082,0.844,0.082c1.29,0,1.958-0.872,2.445-1.509
		c0.392-0.515,0.558-0.678,0.629-0.723c0,0,0.001,0,0.003,0c0.012,0,0.054-0.005,0.126-0.005c0.177,0,0.449,0.02,0.713,0.041
		l0.517,0.039c0.052,0.004,0.103,0.006,0.152,0.006c0.622,0,1.213-0.29,1.593-0.79l0.096-0.126c0.119-0.158,0.215-0.332,0.283-0.518
		l0.023-0.062l0.001-0.003c0.015-0.029,0.028-0.059,0.043-0.088c0.062-0.031,0.167-0.074,0.248-0.108l0.294-0.127
		c0.365-0.164,0.699-0.238,1.046-0.238c1.259,0,2.599,1.002,3.976,2.119c0.356,0.289,0.801,0.447,1.26,0.447
		c0.942,0,1.922-0.506,3.174-1.641l0,0c0.001,0,0.331-0.29,0.433-0.381c0.202-0.18,0.365-0.4,0.479-0.645
		c0.37-0.794,0.169-1.663,0.065-1.999c-0.006-0.018-0.012-0.035-0.017-0.052c0.255-0.256,0.438-0.577,0.525-0.932l0.601-2.421
		l0.195-0.836c0.229-1.003,0.442-1.942,0.911-2.726c0.933-1.56,1.414-2.72,1.91-4.598l0.721-2.731
		c0.224-0.847-0.131-1.738-0.866-2.202c0.02-0.334,0.201-1.102,0.86-2.726l0.127-0.298c0.008-0.018,0.015-0.035,0.021-0.053
		c0.381-0.977,1.029-1.611,1.851-2.415l0.485-0.479c1.068-1.061,1.002-2.779,0.948-4.159l-0.004-0.102
		c-0.01-0.266-0.02-0.54-0.014-0.723c0.081-0.215,0.396-0.625,0.716-1.009l0.419,0.756c0.039,0.07,0.066,0.125,0.085,0.167
		l-0.013,0.032c-0.385,1.023,0.123,2.166,1.14,2.566l0.092,0.036c0.061,0.024,0.231,0.091,0.526,0.502
		c0.373,0.52,0.974,0.83,1.613,0.833l5.535,0.028l0.624,0.209c0.205,0.069,0.42,0.104,0.636,0.104h2.342
		c0.366,0.415,0.902,0.676,1.499,0.676h2.825c0.643,0,1.215-0.303,1.58-0.774c0.146-0.117,0.276-0.253,0.386-0.406
		c0.142-0.126,0.267-0.273,0.37-0.439c0.096-0.154,0.169-0.318,0.22-0.488c0.841-0.237,1.457-1.009,1.457-1.926v-0.822
		c0-0.269-0.053-0.524-0.148-0.758c0.088-0.042,0.173-0.089,0.253-0.142c0.263,0.174,0.569,0.288,0.899,0.321
		c0.12,0.396,0.362,0.75,0.698,1.007l0.371,0.284c0.349,0.268,0.776,0.412,1.216,0.412h1.12l0.063,0.014
		c0.143,0.031,0.285,0.046,0.427,0.046c0.736,0,1.429-0.408,1.776-1.083c0.293-0.568,0.291-1.224,0.029-1.775v-0.02
		c0-0.456-0.152-0.876-0.41-1.213c-0.057-0.209-0.147-0.405-0.265-0.58c-0.018-0.375-0.137-0.722-0.332-1.015v-0.249
		c0-0.47-0.162-0.901-0.433-1.243c-0.102-0.376-0.311-0.718-0.607-0.98l-0.713-0.63c-0.081-0.072-0.168-0.136-0.259-0.193v-1.363
		c0-0.412-0.125-0.795-0.339-1.114l-0.024-1.02c-0.009-0.365-0.117-0.719-0.31-1.022l-0.018-1.417
		c-0.01-0.743-0.429-1.414-1.08-1.751c-0.002-0.007-0.004-0.015-0.006-0.022c0.065-0.199,0.102-0.411,0.102-0.631v-0.59
		c0.211-0.317,0.334-0.698,0.334-1.107v-0.479c0-0.627-0.288-1.187-0.74-1.553c-0.171-0.621-0.635-1.121-1.233-1.342
		c0.431-0.261,0.756-0.679,0.895-1.175c0.257-0.336,0.409-0.756,0.409-1.212v-1.946c0.211-0.317,0.334-0.698,0.334-1.107v-0.484
		c0-0.745-0.407-1.394-1.01-1.738c-0.021-1.014-0.796-1.842-1.787-1.947c0.252-0.31,0.413-0.696,0.442-1.122l0.026-0.377
		c0.01-0.079,0.015-0.159,0.015-0.241c0-0.502-0.185-0.96-0.489-1.312c0.006-0.005,0.013-0.01,0.019-0.015
		c0.33-0.095,0.633-0.274,0.877-0.524c0.377-0.386,0.582-0.907,0.568-1.445l-0.006-0.269c0.214-0.318,0.331-0.692,0.339-1.076
		l1.954-0.005l0.306,0.147c0.271,0.129,0.565,0.197,0.865,0.197h6.11l3.352,0.281c0.056,0.004,0.111,0.007,0.167,0.007
		c0.501,0,0.986-0.188,1.357-0.531c0.412-0.381,0.646-0.917,0.643-1.479l-0.02-3.962c0.23-0.333,0.354-0.73,0.354-1.138
		l-0.009-7.128l0.149-0.315c0.127-0.269,0.193-0.562,0.193-0.858v-2.278c0-1.104-0.896-2-2-2h-3.905
		c-0.319-0.216-0.704-0.342-1.118-0.342h-5.965l0.154-0.475c0.064-0.2,0.098-0.408,0.098-0.618v-3.012
		c0-0.994-0.726-1.819-1.676-1.974v-6.505c0-0.995-0.727-1.82-1.678-1.974v-4.468c0-1.104-0.896-2-2-2h-0.705
		c-0.045-0.297-0.156-0.572-0.316-0.811c-0.016-0.319-0.105-0.62-0.254-0.883c0.06-0.105,0.109-0.217,0.149-0.331
		c0.009-0.011,0.018-0.021,0.025-0.033c0.215-0.17,0.393-0.384,0.522-0.628l0.973-0.029c1.082-0.032,1.941-0.917,1.941-1.999v-1.088
		c0-0.532-0.212-1.042-0.588-1.417c-0.375-0.374-0.883-0.583-1.412-0.583c-0.002,0-0.005,0-0.007,0l-6.625,0.023
		C275.471,191.313,275.069,191.186,274.657,191.186L274.657,191.186z"/>
</g>
<g>
	<path d="M288.76,279.363c-0.553,0-1-0.448-1-1v-0.961c0-0.552,0.447-1,1-1h0.277c0.553,0,1,0.448,1,1v0.961c0,0.552-0.447,1-1,1
		H288.76z"/>
	<path fill="#FFFFFF" d="M289.037,277.402v0.961h-0.277v-0.961H289.037 M289.037,275.402h-0.277c-1.104,0-2,0.896-2,2v0.961
		c0,1.104,0.896,2,2,2h0.277c1.104,0,2-0.896,2-2v-0.961C291.037,276.298,290.142,275.402,289.037,275.402L289.037,275.402z"/>
</g>
</svg>
