<?xml version="1.0" encoding="utf-8"?>
<!-- Generator: Adobe Illustrator 16.0.0, SVG Export Plug-In . SVG Version: 6.00 Build 0)  -->
<!DOCTYPE svg PUBLIC "-//W3C//DTD SVG 1.1//EN" "http://www.w3.org/Graphics/SVG/1.1/DTD/svg11.dtd">
<svg version="1.1" id="SAMDB" xmlns="http://www.w3.org/2000/svg" xmlns:xlink="http://www.w3.org/1999/xlink" x="0px" y="0px"
	 width="358px" height="409px" viewBox="0 0 358 409" enable-background="new 0 0 358 409" xml:space="preserve">
<g>
	<path fill="#1B80C4" d="M292.85,329.999c-0.045,0-0.09-0.003-0.135-0.009l-1.076-0.146c-0.218-0.029-0.42-0.13-0.575-0.287
		c-3.28-3.307-8.105-6.931-9.037-7.477c-0.743-0.433-1.56-0.693-2.35-0.944l-0.846-0.282c-0.461-0.153-0.745-0.616-0.674-1.097
		l0.082-0.549c0.039-0.261,0.177-0.486,0.372-0.639v-0.829c-0.168-0.058-0.316-0.159-0.431-0.29h-0.172
		c-0.165,0-0.326-0.041-0.469-0.117c-0.141,0.074-0.3,0.117-0.47,0.117h-0.815c-0.366,0-0.687-0.197-0.861-0.491
		c-0.133-0.084-0.244-0.198-0.325-0.333c-0.289-0.175-0.481-0.493-0.481-0.855v-0.274c-0.188-0.167-0.312-0.404-0.331-0.67
		c-0.209-0.183-0.341-0.452-0.341-0.752v-1.496c0-0.298,0.131-0.566,0.338-0.75v-0.612c0-0.36,0.19-0.676,0.476-0.852
		c0.057-0.093,0.127-0.177,0.21-0.247c0.024-0.16,0.089-0.311,0.186-0.442l0.281-0.377c0.056-0.074,0.12-0.139,0.191-0.194
		c0.021-0.267,0.147-0.505,0.338-0.671c0.029-0.419,0.316-0.767,0.704-0.885c0.12-0.417,0.505-0.723,0.961-0.723h0.583
		c0.168-0.191,0.407-0.319,0.677-0.339c0.064-0.074,0.141-0.138,0.225-0.19c0.174-0.294,0.494-0.492,0.861-0.492h0.258
		c0.027-0.031,0.056-0.06,0.087-0.087v-0.194c0-0.225,0.075-0.443,0.215-0.619l0.128-0.162l-0.008-0.197
		c-0.01-0.237,0.065-0.47,0.213-0.657l0.128-0.164c0.038-0.305,0.206-0.595,0.444-0.777c0.124-0.233,0.337-0.411,0.594-0.489
		c0.114-0.389,0.458-0.68,0.875-0.715c0.067-0.078,0.146-0.145,0.235-0.199c0.053-0.088,0.119-0.167,0.196-0.235v-0.269
		c0-0.357,0.188-0.671,0.47-0.848c0.175-0.293,0.494-0.49,0.86-0.49h0.006v-0.357c0-0.299,0.132-0.568,0.34-0.751
		c0.023-0.329,0.205-0.614,0.47-0.779c0.083-0.139,0.199-0.256,0.337-0.34c0.054-0.089,0.12-0.17,0.198-0.239v-0.267
		c0-0.36,0.19-0.676,0.476-0.852c0.119-0.197,0.304-0.351,0.524-0.429v-0.075c0-0.361,0.191-0.678,0.479-0.854
		c0.084-0.139,0.2-0.256,0.339-0.34c0.052-0.087,0.117-0.165,0.191-0.232v-0.197c0-0.23,0.079-0.453,0.224-0.63
		c-0.504-0.051-0.897-0.477-0.897-0.995v-0.41c-0.389-0.137-0.668-0.507-0.668-0.943v-0.488c0-0.552,0.447-1,1-1h0.15
		c0.036-0.022,0.074-0.042,0.114-0.06c0.13-0.057,0.267-0.085,0.403-0.085c0.117,0,0.233,0.021,0.344,0.061
		c0.001-0.001,0.002-0.002,0.002-0.002c0.019-0.266,0.142-0.503,0.327-0.672v-1.633c0-0.365,0.195-0.684,0.487-0.859
		c0.083-0.134,0.196-0.248,0.331-0.331c0.125-0.21,0.326-0.371,0.564-0.444c0.054-0.184,0.157-0.346,0.297-0.469v-0.397
		c-0.076-0.067-0.142-0.146-0.194-0.233c-0.14-0.086-0.257-0.207-0.34-0.349c-0.101-0.063-0.188-0.144-0.261-0.237
		c-0.266-0.089-0.487-0.289-0.601-0.556c-0.145-0.339-0.09-0.728,0.137-1.013c-0.053-0.122-0.082-0.256-0.082-0.396v-1.16
		c0-0.299,0.131-0.567,0.339-0.75v-0.208c0-0.146,0.032-0.29,0.094-0.422c0.029-0.064,0.077-0.149,0.128-0.223
		c-0.029-0.036-0.057-0.074-0.081-0.114c-0.288-0.175-0.481-0.493-0.481-0.855v-1.502c0-0.032,0.002-0.063,0.005-0.095l-0.016-0.015
		c-0.075-0.073-0.137-0.157-0.185-0.248c-0.286-0.176-0.477-0.492-0.477-0.852v-0.611c-0.19-0.17-0.314-0.412-0.332-0.682
		c-0.207-0.183-0.338-0.451-0.338-0.75v-0.271c-0.204-0.183-0.332-0.449-0.332-0.744v-1.158c0-0.147,0.032-0.287,0.089-0.413
		c-0.02-0.015-0.392-0.337-0.392-0.337c-0.051-0.044-0.097-0.092-0.137-0.145h-0.575c-0.553,0-1-0.448-1-1v-2.639
		c-0.207-0.183-0.338-0.451-0.338-0.75v-0.367c-0.167-0.288-0.181-0.643-0.031-0.944c-0.169-0.181-0.266-0.419-0.27-0.668
		l-0.015-0.992c-0.038-0.033-0.074-0.068-0.106-0.106c-0.512-0.044-0.912-0.474-0.912-0.996v-1.5c0-0.296,0.129-0.563,0.334-0.746
		v-1.418c-0.205-0.183-0.334-0.45-0.334-0.746v-0.014h-0.345c-0.553,0-1-0.448-1-1v-0.781c0-0.231,0.08-0.455,0.227-0.634
		l0.288-0.352c0.135-0.164,0.316-0.28,0.518-0.333l-0.025-1.763c-0.004-0.268,0.1-0.526,0.288-0.717
		c0.016-0.016,0.032-0.032,0.05-0.047v-0.583c0-0.515,0.39-0.94,0.893-0.994c0.152-0.186,0.369-0.316,0.617-0.355
		c-0.06-0.087-0.105-0.184-0.135-0.287c-0.179-0.055-0.336-0.158-0.456-0.294h-0.257c-0.553,0-1-0.448-1-1v-0.412
		c0-0.227,0.077-0.447,0.219-0.625l0.128-0.159c0.038-0.303,0.204-0.592,0.442-0.773c0.124-0.233,0.337-0.411,0.595-0.489
		c0.068-0.236,0.222-0.436,0.424-0.564c0.013-0.021,0.026-0.042,0.04-0.062c-0.234-0.037-0.441-0.155-0.591-0.325h-0.369
		c-0.183,0.207-0.45,0.338-0.749,0.338h-0.152c-0.036,0.022-0.073,0.042-0.112,0.059c-0.131,0.058-0.269,0.085-0.405,0.085
		c-0.244,0-0.484-0.089-0.672-0.26l-0.17-0.154l-0.989-0.997c-0.17-0.171-0.272-0.397-0.288-0.638l-0.028-0.431l-0.002-0.166
		c0-0.552,0.447-1,1-1h0.259c0.126-0.142,0.292-0.247,0.479-0.299c-0.043-0.059-0.08-0.123-0.109-0.191
		c-0.159-0.365-0.086-0.79,0.186-1.081l0.212-0.228l-0.015-0.492c-0.006-0.227,0.064-0.448,0.2-0.63l0.282-0.375
		c0.187-0.248,0.477-0.396,0.787-0.4c0,0,2.649-0.034,2.653-0.034c0.151,0,0.301,0.034,0.438,0.101l0.509,0.248l6.199-0.01
		l3.569,0.296c0.515,0.043,0.912,0.472,0.916,0.988l1.607-0.518c0.1-0.032,0.203-0.048,0.307-0.048c0.092,0,0.184,0.013,0.273,0.038
		l0.371,0.105c0.019,0.005,0.104,0.035,0.122,0.041c0.076,0.026,0.146,0.061,0.212,0.103l-0.004-0.126
		c-0.004-0.116,0.012-0.231,0.048-0.341l0.278-0.861l-0.007-0.083c-0.007-0.088-0.002-0.176,0.015-0.263l0.332-1.75
		c0.069-0.365,0.335-0.662,0.69-0.77c0.097-0.029,0.194-0.043,0.292-0.043c0.264,0,0.521,0.104,0.711,0.297
		c0,0,0.555,0.559,0.556,0.559c0.151,0,0.302,0.035,0.438,0.102l0.47,0.229c0.1,0.048,0.189,0.113,0.268,0.19l0.185,0.184
		l1.754-0.015v-1.044c0-0.552,0.447-1,1-1h0.457c0.304,0,0.577,0.136,0.761,0.351c0.172,0.023,0.335,0.091,0.473,0.197l0.369,0.283
		c0.117,0.089,0.211,0.202,0.277,0.329c0.144,0.086,0.263,0.206,0.349,0.35c0.262,0.165,0.441,0.448,0.465,0.774
		c0.034,0.029,0.065,0.061,0.095,0.094h0.024c0.184-0.209,0.453-0.342,0.753-0.342h0.291c0.171-0.122,0.374-0.185,0.579-0.185
		c0.158,0,0.316,0.037,0.463,0.114c0.398,0.208,0.609,0.656,0.515,1.096l-0.034,0.161v0.089l0.092,0.087l0.251-0.007
		c0.528,0,0.96,0.409,0.997,0.928c0.078,0.068,0.145,0.149,0.197,0.238c0.148,0.092,0.271,0.221,0.354,0.375
		c0.032,0.022,0.063,0.046,0.093,0.073l0.332,0.295c0.2,0.178,0.321,0.429,0.335,0.696c0.042,0.035,0.081,0.073,0.117,0.114h4.14
		v-4.432c0-0.297,0.13-0.564,0.336-0.748v-0.606c0-0.552,0.447-1,1-1h2.422c0.092,0,0.182,0.013,0.269,0.037v-1.207
		c0-0.4,0.239-0.763,0.608-0.92c0.126-0.054,0.259-0.08,0.392-0.08c0.253,0,0.503,0.096,0.692,0.279l0.229,0.22l7.374-0.022
		c0.183-0.208,0.451-0.34,0.751-0.34h6.44c0.229,0,0.45,0.079,0.628,0.222l0.165,0.133c0,0,0.954-0.017,0.96-0.017
		c0.262,0,0.513,0.103,0.7,0.286c0.191,0.188,0.299,0.444,0.3,0.712l0.008,4.365c0,0.054-0.004,0.108-0.013,0.161l-0.335,2.081
		l-0.336,9.055l-0.67,8.884l-0.336,7.796l0.005,1.388l-0.203,3.021l-2.147,22.382l-0.676,7.822l-0.331,7.779l0.007,2.566
		c0,0.047-0.003,0.094-0.01,0.14l-0.335,2.418l-0.006,5.232l-0.665,8.006l0.008,1.132l-0.09,1.292
		c-0.037,0.523-0.473,0.929-0.997,0.929h-1.217c-0.106,0-0.212-0.017-0.313-0.05l-0.888-0.293c0,0-5.873,0.009-5.874,0.009
		c-0.037,0-0.074-0.002-0.11-0.006l-3.049-0.339l-3.557,0.004c-0.033,0-0.067-0.001-0.101-0.005l-2.817-0.284
		c-0.511-0.052-0.899-0.481-0.899-0.995v-2.178l-1.394-0.274l-1.633,0.002c-0.265,0-0.52-0.105-0.707-0.292
		s-0.293-0.442-0.293-0.708v-1.131c0-0.258,0.1-0.505,0.277-0.692l0.749-0.782c-0.015-0.069-0.022-0.14-0.022-0.212v-1.607h-6.637
		c-0.231,0-0.455-0.08-0.634-0.227l-0.165-0.135l-5.502,0.02v1.192c0,0.105-0.017,0.209-0.049,0.309l-0.28,0.865l-0.032,0.192
		c-0.079,0.483-0.497,0.837-0.986,0.837h-2.004v5.604c0,0.105-0.017,0.21-0.049,0.31l-0.17,0.521
		c-0.135,0.412-0.519,0.69-0.951,0.69h-3.254c-0.232,0-0.457-0.081-0.636-0.228c-0.17,0.139-0.387,0.224-0.623,0.227
		C293.511,329.992,292.854,329.999,292.85,329.999z"/>
	<path fill="#FFFFFF" d="M326.212,232.728l0.521,0.5l8.526-0.025v-0.338h6.44l0.447,0.361l1.306-0.023l0.008,4.365l-0.345,2.142
		l-0.338,9.116l-0.668,8.846l-0.338,7.828l0.004,1.434l-0.201,2.95l-2.145,22.354l-0.677,7.832l-0.334,7.822l0.006,2.611
		l-0.345,2.486l-0.006,5.301l-0.661,7.924l0.004,1.219l-0.087,1.217h-1.217l-1.041-0.344l-6.034,0.01l-3.104-0.346l-3.611,0.004
		l-2.817-0.284v-3.001l-2.297-0.451l-1.729,0.002v-1.131l1.418-1.48l-0.414-0.205v-2.607h-7.637l-0.443-0.363l-6.857,0.024v2.188
		l-0.304,0.937l-0.044,0.267h-3.004v6.604l-0.17,0.521h-3.254l-1.27-1.206v1.205l-0.65,0.007l-1.076-0.146
		c-3.346-3.373-8.276-7.07-9.242-7.636c-0.836-0.487-1.707-0.766-2.551-1.034l-0.834-0.277l0.082-0.549h0.383v-2.562h-0.676v-0.344
		h-0.927l-0.938-0.868v0.868h-0.815v-0.338h-0.329v-0.341h-0.339v-1.021h-0.334v-0.676h-0.338v-1.496h0.338v-1.361h0.334v-0.338
		h0.339v-0.604l0.281-0.377l0.387-0.028v-0.685h0.338v-0.68h0.668v-0.68h1.336v-0.342h0.676v-0.338h0.334v-0.342h1.007v-0.338h0.338
		v-0.943l0.356-0.452l-0.022-0.565l0.356-0.454l-0.022-0.198v-0.1h0.336v-0.338h0.67v-0.676h0.671v-0.342h0.336v-0.338h0.34v-1.02
		h0.33v-0.338h1.006v-1.357h0.338v-0.682h0.33v-0.336h0.338v-0.342h0.339v-1.018h0.334v-0.338h0.666v-1.018h0.336v-0.338h0.342
		v-0.344h0.332v-0.941l1.192-1.291h-1.192v-0.334h-0.674v-1.354h-0.668v-0.488h0.668v-0.145l0.171,0.156l0.839,0.846v-1.195h0.334
		v-0.678H290v-2.375h0.34v-0.336h0.338v-0.342h0.666v-0.678h0.336v-1.893h-0.336v-0.338h-0.334v-0.344h-0.332v-0.338h-0.474
		l0.979-1.018h-0.845v-1.16h0.339v-0.958l0.026-0.057l1.153-1.218h-1.182v-0.34h-0.339v-1.502h0.513l-0.513-0.52v-0.03l-0.043-0.012
		l-0.269-0.263l-0.022-0.385h-0.338v-1.357h-0.334v-0.686h-0.336v-1.016h-0.332v-1.158h0.854l-0.826-0.83l-0.022-0.385h-0.319
		l-0.334-0.29l-0.022-0.39h-1.345v-3.389h-0.338V265.2l-0.135-0.163l0.217,0.042h0.764l-0.428-0.436l0.428-0.439h-0.817
		l-0.329-0.293l-0.025-1.738h-0.34v-0.342h-0.668v-1.5h0.334v-2.91h-0.334v-1.014h-1.345v-0.781l0.288-0.352l1.575-0.027
		l-0.829-0.836l-0.027-1.881h0.338v-1.333l0.668-0.021v-0.342h1.006v-1.238l-0.076-0.07l0.059-0.043l0.197-0.199h-0.518v-0.68
		h-0.668v-0.338h-1.006v-0.412l0.361-0.452l-0.023-0.2v-0.1h0.334v-0.336h0.672v-0.678h0.33v-0.344h0.338v-1.551h-1.006v-0.338
		h-1.867v0.338h-0.67v0.145l-0.17-0.154l-0.951-0.96l-0.028-0.431v-0.101h1.006v-0.335h1.006v-1.554h-0.466l0.492-0.528
		l-0.026-0.902l0.282-0.376l2.641-0.034l0.717,0.349l6.431-0.011l3.483,0.293v1.063h0.935l1.979-0.638l0.371,0.105l0.067,0.023
		v1.364l1.562-1.582l-0.026-0.784l0.339-1.049l-0.021-0.28l0.332-1.75l0.875,0.886l0.392-0.029l0.47,0.229l0.48,0.479l3.164-0.026
		v-2.036h0.457l0.02,0.342h0.605l0.369,0.283l0.027,0.395h0.346v0.338h0.329v0.68h0.339v0.342h1.53v-0.342h0.697l0.173-0.185
		l-0.057,0.265v0.623l0.715,0.682l0.527-0.029h0.101v0.676h0.334v0.342h0.336v0.344h0.308l0.332,0.295l0.025,0.722h0.339v0.341
		h5.892v-5.432h0.336v-1.354h2.422l1.269,1.213V232.728 M313.334,237.424h0.005 M326.212,230.728c-0.265,0-0.531,0.052-0.784,0.16
		c-0.737,0.314-1.216,1.038-1.216,1.84v0.17h-1.69c-1.104,0-2,0.896-2,2v0.244c-0.212,0.318-0.336,0.699-0.336,1.11v3.432h-2.489
		c-0.11-0.208-0.259-0.398-0.438-0.558l-0.332-0.295l-0.001-0.001c-0.106-0.151-0.234-0.287-0.378-0.403
		c-0.173-0.621-0.639-1.121-1.239-1.34c-0.158-0.935-0.964-1.648-1.94-1.662c-0.011,0-0.021,0-0.032,0c-0.031,0-0.062,0-0.093,0.002
		c-0.267,0.012-0.52,0.076-0.748,0.183h-0.03c-0.116,0-0.23,0.01-0.342,0.029c-0.081-0.096-0.171-0.185-0.269-0.264
		c-0.098-0.127-0.21-0.242-0.335-0.342c-0.113-0.159-0.251-0.302-0.408-0.423l-0.369-0.283c-0.178-0.136-0.376-0.241-0.586-0.311
		c-0.344-0.278-0.782-0.444-1.257-0.444h-0.457c-1.104,0-2,0.896-2,2v0.053l-0.354,0.003c-0.126-0.106-0.265-0.197-0.413-0.27
		l-0.47-0.229c-0.131-0.064-0.268-0.113-0.407-0.147l-0.314-0.318c-0.382-0.386-0.896-0.595-1.423-0.595
		c-0.195,0-0.392,0.028-0.583,0.087c-0.711,0.217-1.243,0.81-1.382,1.54l-0.332,1.75c-0.025,0.133-0.037,0.269-0.035,0.404
		l-0.06,0.185c-0.077-0.009-0.154-0.014-0.231-0.014c-0.207,0-0.414,0.032-0.613,0.096l-0.733,0.236
		c-0.332-0.419-0.829-0.703-1.399-0.751l-3.483-0.293c-0.056-0.004-0.112-0.007-0.168-0.007c-0.001,0-0.002,0-0.003,0l-5.969,0.01
		l-0.301-0.146c-0.272-0.132-0.572-0.201-0.875-0.201c-0.009,0-0.018,0-0.025,0l-2.641,0.034c-0.62,0.008-1.202,0.304-1.574,0.799
		l-0.282,0.376c-0.271,0.362-0.413,0.806-0.399,1.259l0.002,0.085c-0.294,0.35-0.455,0.784-0.468,1.228
		c-0.887,0.205-1.547,1-1.547,1.948v0.101c0,0.044,0.001,0.088,0.004,0.131l0.028,0.431c0.032,0.481,0.236,0.934,0.575,1.276
		l0.951,0.96c0.025,0.025,0.051,0.049,0.076,0.073l0.17,0.154c0.376,0.341,0.857,0.52,1.345,0.52c0.007,0,0.014,0,0.021,0
		c-0.045,0.108-0.081,0.222-0.106,0.338c-0.248,0.341-0.383,0.753-0.383,1.177v0.412c0,0.667,0.326,1.257,0.827,1.62
		c-0.305,0.352-0.489,0.81-0.489,1.311v0.221c-0.225,0.335-0.344,0.732-0.338,1.142l0.018,1.165
		c-0.104,0.083-0.198,0.178-0.283,0.282l-0.288,0.352c-0.293,0.357-0.453,0.806-0.453,1.268v0.781c0,0.96,0.677,1.763,1.58,1.956
		c0.03,0.057,0.063,0.111,0.099,0.165v0.696c-0.211,0.317-0.334,0.698-0.334,1.107v1.5c0,0.752,0.415,1.407,1.028,1.749l0.005,0.361
		c0.004,0.284,0.069,0.561,0.187,0.813c-0.049,0.338-0.01,0.685,0.114,1.005v0.146c0,0.412,0.124,0.795,0.338,1.113v2.276
		c0,1.104,0.896,2,2,2h0.015v1.053c0,0.409,0.123,0.79,0.334,1.107c0.019,0.417,0.166,0.802,0.402,1.115
		c0.057,0.211,0.147,0.409,0.266,0.586v0.25c0,0.595,0.26,1.129,0.672,1.495v1.216c0,0.443,0.144,0.853,0.388,1.184
		c-0.02,0.087-0.032,0.175-0.04,0.264c-0.218,0.32-0.346,0.708-0.346,1.125v1.16c0,0.087,0.006,0.172,0.017,0.255
		c-0.201,0.486-0.205,1.042,0.008,1.545c0.188,0.439,0.521,0.787,0.929,0.997c0.039,0.038,0.081,0.075,0.123,0.109
		c0.024,0.031,0.049,0.062,0.074,0.092c-0.147,0.109-0.28,0.239-0.393,0.384c-0.119,0.095-0.228,0.203-0.322,0.323
		c-0.472,0.366-0.774,0.938-0.774,1.58v1.273c-0.144,0.024-0.285,0.063-0.424,0.12c-1.065,0.043-1.917,0.921-1.917,1.998v0.488
		c0,0.595,0.26,1.13,0.673,1.496c0.036,0.517,0.269,0.979,0.623,1.312c-0.073,0.069-0.142,0.144-0.204,0.224
		c-0.328,0.26-0.573,0.62-0.688,1.035c-0.118,0.096-0.225,0.205-0.317,0.325c-0.425,0.338-0.709,0.846-0.75,1.42
		c-0.097,0.085-0.185,0.179-0.264,0.28c-0.323,0.26-0.564,0.618-0.677,1.03c-0.18,0.235-0.308,0.511-0.369,0.811
		c-0.246,0.134-0.462,0.318-0.632,0.54c-0.406,0.328-0.682,0.812-0.734,1.362c-0.451,0.153-0.83,0.463-1.071,0.864
		c-0.204,0.125-0.384,0.286-0.531,0.474c-0.358,0.284-0.617,0.688-0.716,1.151c-0.228,0.316-0.358,0.69-0.376,1.078
		c-0.097,0.146-0.174,0.303-0.229,0.467c-0.408,0.116-0.763,0.359-1.02,0.683c-0.201,0.059-0.39,0.148-0.56,0.263H277.6
		c-0.731,0-1.371,0.393-1.72,0.978c-0.423,0.262-0.741,0.677-0.876,1.168c-0.145,0.188-0.256,0.403-0.326,0.637
		c-0.025,0.03-0.05,0.061-0.073,0.093l-0.281,0.377c-0.123,0.164-0.219,0.345-0.285,0.535c-0.011,0.013-0.021,0.025-0.03,0.039
		c-0.46,0.367-0.755,0.931-0.755,1.565v0.249c-0.214,0.318-0.338,0.701-0.338,1.113v1.496c0,0.457,0.153,0.878,0.411,1.215
		c0.058,0.206,0.147,0.397,0.263,0.57c0.026,0.6,0.317,1.132,0.76,1.481c0.094,0.12,0.2,0.229,0.318,0.325
		c0.366,0.476,0.941,0.783,1.588,0.783h0.815c0.135,0,0.268-0.014,0.395-0.039c-0.105,0.198-0.18,0.416-0.215,0.648l-0.082,0.549
		c-0.144,0.961,0.425,1.887,1.348,2.194l0.834,0.277c0.796,0.253,1.525,0.485,2.175,0.864c0.8,0.468,5.599,4.06,8.829,7.316
		c0.31,0.312,0.714,0.514,1.15,0.573l1.076,0.146c0.089,0.013,0.18,0.019,0.27,0.019c0.007,0,0.014,0,0.021,0l0.65-0.007
		c0.214-0.002,0.42-0.038,0.612-0.103c0.203,0.068,0.418,0.104,0.636,0.104h3.254c0.866,0,1.634-0.557,1.901-1.38l0.17-0.521
		c0.065-0.2,0.099-0.409,0.099-0.62v-4.604h1.004c0.979,0,1.814-0.709,1.974-1.675l0.02-0.118l0.257-0.793
		c0.064-0.2,0.098-0.408,0.098-0.617v-0.195l4.155-0.015c0.335,0.234,0.734,0.361,1.146,0.361h5.637v0.441l-0.448,0.468
		c-0.356,0.372-0.556,0.868-0.556,1.383v1.131c0,0.531,0.211,1.04,0.587,1.415c0.375,0.375,0.883,0.585,1.413,0.585
		c0.001,0,0.002,0,0.002,0l1.534-0.002l0.49,0.097v1.355c0,1.027,0.777,1.887,1.799,1.99l2.817,0.284
		c0.067,0.007,0.135,0.01,0.201,0.01h0.002l3.499-0.004l2.993,0.333c0.074,0.008,0.147,0.012,0.222,0.012c0.001,0,0.002,0,0.003,0
		l5.711-0.009l0.734,0.243c0.202,0.066,0.414,0.101,0.627,0.101h1.217c1.049,0,1.92-0.811,1.995-1.857l0.087-1.217
		c0.003-0.05,0.005-0.1,0.005-0.149l-0.004-1.132l0.654-7.838c0.005-0.054,0.007-0.109,0.007-0.164l0.006-5.164l0.326-2.351
		c0.013-0.092,0.019-0.186,0.019-0.279l-0.006-2.566l0.33-7.734l0.673-7.789l2.144-22.335c0.001-0.018,0.003-0.037,0.004-0.055
		l0.201-2.95c0.004-0.047,0.005-0.094,0.005-0.142l-0.004-1.388l0.335-7.75l0.665-8.814c0.002-0.025,0.004-0.051,0.005-0.076
		l0.333-8.994l0.325-2.021c0.017-0.106,0.025-0.214,0.025-0.321l-0.008-4.365c-0.001-0.536-0.217-1.049-0.6-1.425
		c-0.374-0.367-0.877-0.572-1.4-0.572c-0.012,0-0.023,0-0.036,0l-0.588,0.01c-0.332-0.227-0.725-0.349-1.129-0.349h-6.44
		c-0.414,0-0.799,0.126-1.118,0.341l-6.608,0.02C327.161,230.899,326.689,230.728,326.212,230.728L326.212,230.728z"/>
</g>
</svg>
