<?xml version="1.0" encoding="utf-8"?>
<!-- Generator: Adobe Illustrator 16.0.0, SVG Export Plug-In . SVG Version: 6.00 Build 0)  -->
<!DOCTYPE svg PUBLIC "-//W3C//DTD SVG 1.1//EN" "http://www.w3.org/Graphics/SVG/1.1/DTD/svg11.dtd">
<svg version="1.1" id="AW" xmlns="http://www.w3.org/2000/svg" xmlns:xlink="http://www.w3.org/1999/xlink" x="0px" y="0px"
	 width="358px" height="409px" viewBox="0 0 358 409" enable-background="new 0 0 358 409" xml:space="preserve">
<g>
	<path fill="#C33B32" d="M152.035,199.183c-0.106,0-0.212-0.017-0.315-0.051l-0.347-0.115c-0.108,0.04-0.226,0.062-0.348,0.062
		h-0.406c-0.2,0-0.396-0.06-0.561-0.172l-1.373-0.931l-1.544-0.936l-0.624-0.228c-0.228-0.083-0.412-0.244-0.527-0.445h-0.471
		c-0.552,0-1-0.448-1-1v-0.012l-0.967,0.009l-1.423,0.299c-0.067,0.014-0.135,0.021-0.203,0.021c0,0-1.099,0.003-1.1,0.003
		c-0.265,0-0.519-0.105-0.706-0.292c-0.017-0.017-0.032-0.033-0.048-0.051h-1.259c-0.552,0-1-0.448-1-1v-0.011
		c0,0-3.842,0.007-3.843,0.007c-0.054,0-0.107-0.004-0.16-0.013l-1.918-0.312c-0.055-0.009-0.108-0.022-0.161-0.041l-0.883-0.299
		l-0.879-0.026c-0.144-0.004-0.284-0.039-0.413-0.103l-0.488-0.24c0,0-0.114,0.003-0.124,0.003c-0.108,0-0.215-0.018-0.317-0.052
		L127.854,193c-0.14-0.047-0.268-0.124-0.374-0.226l-0.403-0.386c-0.184-0.176-0.294-0.416-0.307-0.669l-0.328-6.208h-5.537
		l-1.292,0.309c-0.076,0.018-0.154,0.027-0.231,0.027l-2.712,0.002c-0.538,0-0.979-0.426-1-0.963l-0.299-8.192h-9.354l-9.972,0.326
		v7.992l2.492-0.283c0.038-0.004,0.075-0.006,0.113-0.006h7.125c0.552,0,1,0.448,1,1v4.555c0,0.552-0.448,1-1,1h-0.258l0.099,0.501
		c0.058,0.293-0.018,0.598-0.208,0.829c-0.065,0.08-0.142,0.147-0.226,0.203c0.048,0.266-0.013,0.542-0.174,0.765
		c-0.188,0.26-0.489,0.414-0.81,0.414h-0.441v0.354c0,0.552-0.448,1-1,1h-0.007v0.021c0,0.552-0.448,1-1,1h-0.816
		c-0.552,0-1-0.448-1-1v-0.106c-0.071-0.031-0.138-0.071-0.201-0.119l-0.373-0.283c-0.236-0.179-0.38-0.454-0.395-0.75l-0.036-0.773
		l-0.001-0.148c0-0.552,0.448-1,1-1h0.677v-1.268c0-0.378,0.213-0.724,0.552-0.894l0.208-0.104h-6.8c-0.552,0-1-0.448-1-1v-0.354
		h-3.89v0.371c0,0.507-0.379,0.933-0.882,0.993l-2.609,0.31c-0.039,0.004-0.079,0.007-0.118,0.007c-0.154,0-0.307-0.036-0.446-0.105
		l-1.315-0.656c-0.032,0.298-0.197,0.569-0.453,0.733c-0.164,0.105-0.353,0.159-0.542,0.159c-0.141,0-0.282-0.03-0.414-0.089
		l-13.379-6.074c-0.424,0.011-1.872,1.103-2.567,1.627c-0.933,0.701-1.48,1.104-1.894,1.271c-0.447,0.187-0.937,0.427-1.437,0.672
		c-1.54,0.757-3.049,1.499-4.557,1.499l-2.691-0.133c-3.297-0.174-6.703-0.355-10.148-0.355c-3.907,0-7.199,0.231-10.36,0.729
		l-26.077,4.07c-0.051,0.008-0.103,0.012-0.154,0.012c-0.228,0-0.451-0.078-0.63-0.224c-0.22-0.178-0.354-0.441-0.369-0.724
		l-0.006-0.111c-0.463-9.365-0.821-18.735-1.168-27.796c-0.181-4.74-0.363-9.448-0.556-14.155L0.906,5.159
		C0.895,4.894,0.991,4.633,1.172,4.438c0.182-0.196,0.434-0.311,0.7-0.319l62.947-2.072c3.362-0.107,6.736-0.203,10.116-0.285
		c9.95-0.232,19.974-0.354,29.667-0.473l4.405-0.055c3.709-0.046,7.415-0.092,11.122-0.149c0.005,0,0.01,0,0.016,0
		c0.542,0,1.083,0.428,1.098,0.969l0.261,9.11c0.008,0.263-0.089,0.519-0.269,0.711l-0.437,0.468l-0.936,3.846l-0.018,5.046
		l1.189,2.387l14.551-0.003c0,0,3.865-0.283,3.889-0.283c0.288,0,0.563,0.124,0.753,0.343c0.207,0.237,0.29,0.557,0.225,0.865
		l-1.826,8.613l-0.011,0.675c-0.005,0.314-0.158,0.607-0.412,0.792l-0.691,0.503l-0.233,0.484l0.325,1.489
		c0.064,0.295-0.008,0.604-0.198,0.84c-0.19,0.235-0.476,0.373-0.779,0.373h-3.376v3.408c0,0.552-0.448,1-1,1h-0.339v9.048h1.319
		c0,0,4.388-0.298,4.41-0.298c0.247,0,0.486,0.091,0.67,0.258c0.201,0.181,0.32,0.437,0.33,0.707l0.289,8.265
		c0.019,0.552-0.412,1.014-0.963,1.035l-8.4,0.307v6.687h13.087c0.546,0,0.992,0.438,1,0.985l0.326,21.773l0.005,1.952
		c0,0.047-0.003,0.095-0.01,0.142l-0.664,4.705l0.309,1.492c0.013,0.06,0.02,0.122,0.021,0.183l0.328,16.744
		c0.006,0.339-0.159,0.658-0.44,0.848c-0.168,0.113-0.363,0.171-0.56,0.171c-0.132,0-0.266-0.026-0.391-0.08l-0.75-0.319
		l-0.089,0.001l-0.015,0.018c-0.15,0.174-0.355,0.291-0.582,0.331l-1.721,0.307c-0.058,0.01-0.117,0.016-0.175,0.016
		c-0.065,0-0.13-0.006-0.194-0.019l-1.623-0.32l-2.357-0.333l-7.502-0.316c-0.048-0.002-0.096-0.007-0.143-0.017l-4.893-0.927
		c-0.293-0.055-0.536-0.235-0.678-0.479c-0.048-0.01-0.096-0.023-0.143-0.04l-0.105,0.106c-0.184,0.185-0.431,0.291-0.691,0.296
		l-0.4,0.007l0.005,17.632l0.301,2.455l1.986,3.768l0.411,0.832c0.222,0.45,0.076,0.995-0.342,1.274l-2.069,1.381l0.038,9.206h0.447
		l0.088-0.1c0.082-0.093,0.18-0.169,0.29-0.226l0.447-0.231c0.141-0.073,0.297-0.111,0.457-0.112l2.746-0.008
		c0.183-0.208,0.452-0.34,0.751-0.34h8.341c0.106,0,0.211,0.017,0.312,0.05l0.798,0.262l0.631,0.027
		c0.079,0.003,0.157,0.016,0.233,0.038l2.148,0.617l1.469,0.023c0.53,0.008,0.961,0.428,0.983,0.957l0.294,6.843h12.851
		c0.187-0.197,0.446-0.31,0.719-0.312c0,0,4.65-0.029,4.652-0.029c0.154,0,0.305,0.036,0.443,0.104l0.501,0.248
		c0,0,0.605-0.009,0.61-0.009c0.26,0,0.511,0.102,0.698,0.284l0.764,0.744c0,0,0.208-0.009,0.223-0.009
		c0.206,0,0.408,0.064,0.577,0.183l1.194,0.843c0.146,0.022,0.285,0.077,0.409,0.16l1.367,0.923l0.272,0.136
		c0.339,0.169,0.553,0.516,0.553,0.895v3.589l1.416,1.688c0.15,0.179,0.233,0.405,0.234,0.638l0.023,5.406
		c0,0.153-0.034,0.304-0.101,0.442l-0.891,1.832c-0.047,0.097-0.11,0.185-0.185,0.262l-0.498,0.511
		c0.008,0.128-0.008,0.256-0.048,0.378l-0.984,2.994l-0.957,3.236l-0.014,0.492l2.596,5.681c0.025,0.055,0.045,0.113,0.06,0.172
		l0.18,0.715c0.08,0.318-0.001,0.654-0.217,0.901l-0.32,0.366l-0.205,1.115c-0.084,0.461-0.479,0.802-0.947,0.819l-8.892,0.322
		l-4.33,0v2.156c0,0.321-0.154,0.623-0.415,0.811C152.448,199.118,152.243,199.183,152.035,199.183z"/>
	<path fill="#FFFFFF" d="M120.244,2.084l0.261,9.11l-0.616,0.659l-1.025,4.216l-0.02,5.401l1.571,3.153l15.17-0.003l3.889-0.283
		l-1.845,8.708l-0.013,0.771l-0.895,0.651l-0.491,1.021l0.398,1.825h-4.376v4.408h-1.339v11.048h2.319l4.41-0.298l0.289,8.265
		l-9.363,0.342v8.651h14.087l0.326,21.773l0.005,1.939l-0.688,4.877l0.344,1.662l0.328,16.744l-0.942-0.4l-0.75,0.008l-0.31,0.359
		l-1.721,0.307l-1.623-0.32l-2.41-0.343l-7.6-0.325l-4.893-0.927v-0.818l-0.669,0.341v-0.819l-1.153,1.163l-1.382,0.026
		l0.006,18.675l0.331,2.697l2.072,3.93l0.398,0.808l-2.516,1.68l0.044,10.739h1.894l0.387-0.438l0.447-0.231l3.494-0.011v-0.338
		h8.341l0.929,0.305l0.769,0.033l2.275,0.653l1.602,0.025l0.335,7.8h14.27l0.264-0.312l4.646-0.029l0.717,0.354l0.837-0.013
		l1.075,1.047l0.61-0.028l1.466,1.035l0.154-0.021l1.421,0.96l0.33,0.165v3.953l1.65,1.967l0.023,5.406l-0.891,1.832l-0.811,0.828
		l0.029,0.448l-0.984,2.994l-1.002,3.39l-0.025,0.854l2.693,5.893l0.179,0.715l-0.501,0.573l-0.254,1.386l-8.892,0.322h-5.294v3.156
		l-1.01-0.336v0.231h-0.406l-1.373-0.931l-1.671-1.015l-0.716-0.261v-0.506h-1.34v-1.021l-2.075,0.02l-1.52,0.319l-1.098,0.003
		v-0.343h-2.013v-1.013l-4.843,0.009l-1.918-0.312l-1.025-0.348l-1.029-0.03l-0.712-0.351l-0.342,0.011l-0.773-0.259l-0.403-0.386
		l-0.378-7.155h-6.603l-1.407,0.336l-2.711,0.002l-0.335-9.155h-10.318l-10.972,0.358v10.08l3.605-0.409h7.125v4.555h-1.476
		l0.336,1.695h-0.771l0.334,1.016h-1.441v1.354h-1.007v1.021h-0.816v-1.021h-0.596l-0.373-0.283l-0.036-0.773v-0.102h1.677v-2.268
		l0.549-0.275l0.826-1.723h-8.416v-1.354h-5.89v1.371l-2.609,0.31l-2.756-1.374v1.506l-13.379-6.074
		c-0.116-0.053-0.24-0.078-0.377-0.078c-0.735,0-1.839,0.787-3.206,1.817c-0.702,0.527-1.354,1.017-1.665,1.142
		c-0.5,0.209-1.035,0.473-1.58,0.739c-1.359,0.668-2.764,1.359-4.04,1.359l-2.641-0.132c-3.501-0.186-6.809-0.356-10.198-0.356
		c-3.959,0-7.3,0.235-10.515,0.741l-26.076,4.07l-0.006-0.111c-0.463-9.368-0.822-18.746-1.169-27.815
		c-0.18-4.707-0.362-9.416-0.555-14.124L1.905,5.118l62.947-2.071c3.359-0.107,6.73-0.203,10.108-0.285
		C85,2.527,95.115,2.405,104.898,2.286l2.587-0.032c4.223-0.053,8.441-0.104,12.66-0.168L120.244,2.084 M139.474,24.338h0.005
		 M120.245,0.084c-0.013,0-0.027,0-0.04,0l-0.099,0.002c-3.698,0.056-7.404,0.103-11.113,0.149l-1.532,0.019l-2.587,0.032
		l-0.292,0.004c-9.693,0.118-19.717,0.24-29.668,0.472c-3.292,0.081-6.699,0.176-10.125,0.286L1.839,3.119
		c-0.533,0.018-1.037,0.247-1.4,0.638C0.076,4.148-0.115,4.668-0.094,5.201l5.997,145.436c0.193,4.706,0.375,9.413,0.555,14.118
		c0.348,9.094,0.707,18.468,1.17,27.837l0.006,0.118c0.03,0.565,0.297,1.091,0.737,1.448c0.359,0.291,0.805,0.447,1.26,0.447
		c0.103,0,0.206-0.008,0.309-0.024l26.076-4.07c3.111-0.49,6.353-0.718,10.207-0.718c3.42,0,6.812,0.18,10.092,0.354l2.647,0.132
		c0.033,0.001,0.066,0.002,0.1,0.002c1.74,0,3.428-0.83,4.918-1.562l0.077-0.038c0.501-0.245,0.974-0.477,1.396-0.653
		c0.505-0.203,1.096-0.637,2.095-1.388c0.451-0.34,1.419-1.07,1.945-1.34l12.989,5.897c0.264,0.12,0.545,0.179,0.827,0.179
		c0.378,0,0.755-0.107,1.083-0.319c0.116-0.074,0.222-0.16,0.318-0.254l0.462,0.231c0.278,0.139,0.584,0.21,0.893,0.21
		c0.079,0,0.157-0.005,0.236-0.014l2.609-0.31c0.789-0.094,1.425-0.638,1.663-1.357h2.098c0.269,0.788,1.015,1.354,1.894,1.354
		h5.041v0.292c-0.951,0.154-1.677,0.979-1.677,1.974v0.102c0,0.031,0.001,0.062,0.002,0.093l0.036,0.774
		c0.028,0.592,0.317,1.141,0.789,1.499l0.233,0.177c0.21,0.88,1.001,1.535,1.946,1.535h0.816c0.82,0,1.525-0.494,1.833-1.2
		c0.517-0.235,0.916-0.683,1.085-1.231c0.458-0.111,0.867-0.381,1.149-0.771c0.199-0.275,0.322-0.593,0.364-0.921
		c0.271-0.331,0.426-0.736,0.45-1.155c0.676-0.321,1.143-1.01,1.143-1.808v-4.555c0-1.104-0.896-2-2-2h-7.125
		c-0.075,0-0.151,0.005-0.226,0.013l-1.379,0.157v-5.905l9.005-0.294h8.357l0.265,7.229c0.039,1.075,0.922,1.927,1.999,1.927
		c0,0,0.001,0,0.001,0l2.711-0.002c0.156,0,0.311-0.019,0.463-0.055l1.178-0.281h4.471l0.278,5.261
		c0.027,0.508,0.246,0.987,0.614,1.339l0.403,0.386c0.213,0.204,0.469,0.358,0.749,0.452l0.773,0.259
		c0.17,0.057,0.348,0.091,0.527,0.101l0.278,0.137c0.257,0.127,0.539,0.197,0.825,0.205l0.729,0.021l0.741,0.251
		c0.105,0.036,0.213,0.062,0.322,0.08l1.918,0.312c0.106,0.017,0.213,0.026,0.321,0.026c0.001,0,0.002,0,0.003,0l3.102-0.006
		c0.344,0.604,0.994,1.01,1.738,1.01h0.894c0.328,0.222,0.718,0.343,1.12,0.343c0.002,0,0.003,0,0.005,0l1.098-0.003
		c0.136,0,0.272-0.015,0.406-0.043l1.326-0.278l0.123-0.001c0.345,0.601,0.993,1.005,1.735,1.005h0.01
		c0.185,0.165,0.403,0.297,0.646,0.385l0.531,0.193l1.46,0.886l1.332,0.902c0.331,0.225,0.722,0.345,1.122,0.345h0.406
		c0.103,0,0.205-0.008,0.303-0.023l0.076,0.025c0.206,0.068,0.419,0.102,0.631,0.102c0.415,0,0.825-0.129,1.17-0.378
		c0.521-0.376,0.83-0.979,0.83-1.622v-1.156h3.294c0.024,0,0.048,0,0.072-0.001l8.892-0.322c0.938-0.034,1.726-0.715,1.895-1.638
		l0.155-0.844l0.139-0.159c0.431-0.493,0.593-1.167,0.434-1.802l-0.179-0.715c-0.03-0.118-0.07-0.234-0.121-0.345l-2.499-5.469
		l0.004-0.129l0.92-3.112l0.975-2.965c0.027-0.082,0.049-0.166,0.065-0.25l0.246-0.251c0.151-0.153,0.276-0.331,0.37-0.524
		l0.891-1.832c0.134-0.275,0.203-0.578,0.202-0.884l-0.023-5.406c-0.002-0.467-0.167-0.919-0.468-1.276l-1.182-1.409v-3.226
		c0-0.758-0.428-1.45-1.105-1.789l-0.213-0.106l-1.313-0.887c-0.17-0.115-0.356-0.202-0.55-0.26l-1.035-0.731
		c-0.288-0.203-0.624-0.326-0.972-0.358l-0.472-0.459c-0.374-0.364-0.875-0.567-1.396-0.567c-0.01,0-0.02,0-0.03,0l-0.354,0.006
		l-0.284-0.141c-0.276-0.136-0.579-0.207-0.886-0.207c-0.004,0-0.008,0-0.013,0l-4.646,0.029c-0.379,0.002-0.746,0.112-1.059,0.312
		h-11.546l-0.253-5.886c-0.045-1.058-0.908-1.897-1.966-1.914l-1.336-0.021l-2.021-0.58c-0.151-0.043-0.308-0.069-0.465-0.076
		l-0.494-0.021l-0.667-0.219c-0.201-0.066-0.411-0.1-0.623-0.1h-8.341c-0.414,0-0.799,0.126-1.118,0.341l-2.383,0.007
		c-0.251,0.001-0.5,0.049-0.732,0.141l-0.029-7.145l1.622-1.082c0.835-0.558,1.127-1.648,0.683-2.549l-0.398-0.808
		c-0.008-0.016-0.016-0.032-0.024-0.048l-1.9-3.605l-0.271-2.212l-0.005-16.677c0.055-0.018,0.109-0.038,0.162-0.06
		c0.201,0.122,0.426,0.211,0.669,0.257l4.893,0.927c0.095,0.018,0.19,0.029,0.287,0.033l7.501,0.321l2.26,0.321l1.57,0.31
		c0.128,0.025,0.257,0.038,0.387,0.038c0.117,0,0.235-0.01,0.351-0.031l1.721-0.307c0.211-0.038,0.414-0.108,0.6-0.209l0.27,0.114
		c0.251,0.106,0.517,0.159,0.782,0.159c0.393,0,0.784-0.116,1.12-0.343c0.562-0.38,0.893-1.019,0.88-1.696l-0.328-16.744
		c-0.002-0.123-0.016-0.246-0.041-0.367l-0.274-1.321l0.64-4.533c0.013-0.094,0.02-0.189,0.02-0.284l-0.005-1.939l-0.327-21.798
		c-0.016-1.093-0.907-1.97-2-1.97h-12.087v-4.723l7.436-0.271c1.103-0.04,1.965-0.966,1.926-2.068l-0.289-8.265
		c-0.019-0.542-0.256-1.052-0.659-1.415c-0.369-0.333-0.846-0.515-1.34-0.515c-0.045,0-0.09,0.001-0.135,0.004l-4.343,0.293h-0.251
		v-7.16c0.78-0.273,1.339-1.015,1.339-1.888v-2.408h2.376c0.605,0,1.178-0.274,1.558-0.746c0.38-0.471,0.525-1.089,0.396-1.68
		l-0.245-1.124l0.456-0.332c0.508-0.37,0.812-0.956,0.823-1.584l0.01-0.579l1.784-8.417c0.044-0.165,0.067-0.338,0.067-0.517
		c0-1.104-0.893-2-1.998-2h-0.005h-0.001c-0.001,0-0.002,0-0.003,0c-0.001,0-0.002,0-0.003,0h-0.001
		c-0.053,0-0.105,0.002-0.158,0.007l-3.794,0.276l-13.859,0.003l-0.807-1.621l0.017-4.691l0.846-3.477l0.258-0.276
		c0.36-0.385,0.553-0.896,0.538-1.422l-0.261-9.11C122.212,0.943,121.324,0.084,120.245,0.084L120.245,0.084z"/>
</g>
</svg>
