<?xml version="1.0" encoding="utf-8"?>
<!-- Generator: Adobe Illustrator 16.0.0, SVG Export Plug-In . SVG Version: 6.00 Build 0)  -->
<!DOCTYPE svg PUBLIC "-//W3C//DTD SVG 1.1//EN" "http://www.w3.org/Graphics/SVG/1.1/DTD/svg11.dtd">
<svg version="1.1" id="SE" xmlns="http://www.w3.org/2000/svg" xmlns:xlink="http://www.w3.org/1999/xlink" x="0px" y="0px"
	 width="358px" height="409px" viewBox="0 0 358 409" enable-background="new 0 0 358 409" xml:space="preserve">
<g>
	<path fill="#65B560" d="M325.09,407.524c-0.36,0-0.646-0.039-0.871-0.12c-0.092-0.033-0.179-0.079-0.257-0.137
		c-0.521-0.384-1.028-0.737-1.536-1.09l-0.323-0.229c-0.489-0.341-0.979-0.687-1.467-1.038c-0.164-0.119-0.287-0.283-0.355-0.47
		c-0.071-0.049-0.136-0.107-0.192-0.172c-0.32-0.023-0.602-0.197-0.768-0.453c-0.062-0.033-0.119-0.072-0.173-0.117
		c-0.905-0.761-1.6-1.515-2.124-2.303l-0.068-0.103c-0.164-0.246-0.21-0.553-0.126-0.836s0.289-0.516,0.561-0.633l0.069-0.03
		c0.01-0.064,0.019-0.181,0.003-0.372l-0.023-0.475c-0.015-0.403-0.028-0.796-0.143-1.107c-0.032-0.091-0.22-0.705-0.22-0.705
		c-0.2-0.688-0.714-2.446-1.037-2.836c-0.039,0.009-0.05,0.025-0.056,0.033c-0.071,0.104-0.162,0.193-0.268,0.263
		c-0.186,0.124-0.448,0.209-0.689,0.209c-0.086,0-0.17-0.011-0.246-0.035l-0.096-0.03c-0.204-0.065-0.382-0.193-0.508-0.366
		c-0.085-0.117-0.177-0.227-0.265-0.333l-0.155-0.167c-0.077-0.084-0.14-0.18-0.185-0.283c-0.137-0.093-0.249-0.219-0.325-0.367
		c-0.034-0.025-0.065-0.052-0.097-0.082l-0.354-0.34c-0.139-0.134-0.235-0.304-0.279-0.489c-0.116-0.053-0.222-0.127-0.312-0.221
		l-1.272-1.335c-0.101-0.105-0.177-0.231-0.224-0.369c-0.141-0.417-0.062-0.849,0.009-1.23l0.019-0.101
		c0.03-0.146,0.054-0.254,0.062-0.338c-0.052-0.196-0.646-0.696-0.87-0.884l-0.067-0.055c-0.12-0.099-0.217-0.185-0.282-0.251
		c-0.147-0.147-0.268-0.168-0.364-0.168c-0.102,0-0.223,0.026-0.34,0.051c-0.125,0.045-0.263,0.071-0.396,0.071
		c-0.089,0-0.176-0.011-0.257-0.036c-0.259-0.077-0.519-0.232-0.643-0.471l-5.063-8.682l-0.279-0.445
		c-0.208-0.318-0.386-0.6-0.495-0.902l-0.057-0.157c-0.121-0.331-0.059-0.701,0.164-0.974c0.191-0.235,0.478-0.369,0.775-0.369
		c0.048,0,0.097,0.003,0.145,0.011l0.167,0.024c0.026,0.001,0.05,0.002,0.071,0.002c0.149,0,0.208-0.029,0.223-0.041l0,0
		c-0.006,0,0.037-0.135-0.011-0.449c-0.032-0.218-0.302-0.502-0.54-0.754c-0.363-0.376-0.596-0.657-0.707-0.976
		c-0.111-0.346-0.075-0.678-0.049-0.919c0.054-0.458,0.065-0.684-0.054-0.839l-1.23-1.614c-0.179-0.233-0.245-0.534-0.182-0.82
		c0.062-0.287,0.248-0.531,0.508-0.669l0.316-0.168c1.399-0.764,3.53-1.927,3.796-3.213l0.828-4.002
		c0.101-0.5-0.113-1.236-0.302-1.885c-0.101-0.345-0.171-0.59-0.222-0.825c-0.923-4.449-1.964-9.469-4.17-13.516l-3.993-7.346
		c-0.769-1.412-1.883-2.768-2.867-3.963l-0.063-0.078c-0.48-0.585-0.958-1.172-1.397-1.759c-0.147-0.191-0.313-0.399-0.506-0.623
		l-0.143-0.166c-0.255-0.297-0.312-0.714-0.149-1.069s0.518-0.583,0.908-0.583h5.161l0.196-0.595l0.03-5.533
		c0.003-0.55,0.45-0.995,1-0.995h2.021v-0.17c0-0.104,0.017-0.208,0.049-0.308l0.259-0.8l0.029-1.137
		c0.015-0.542,0.458-0.974,1-0.974h5.101c0.232,0,0.458,0.081,0.637,0.229l0.166,0.137c0,0,6.64-0.024,6.641-0.024
		c0.265,0,0.519,0.105,0.706,0.292c0.188,0.188,0.294,0.443,0.294,0.708v0.816c0,0.352-0.182,0.661-0.456,0.839
		c0.011,0.037,0.02,0.075,0.025,0.113c0.053,0.315-0.049,0.636-0.272,0.863l-0.327,0.333l0.014,1.449c0,0,1.817-0.008,1.819-0.008
		c0.066,0,0.132,0.006,0.196,0.02l1.219,0.244c0.468,0.094,0.804,0.504,0.804,0.98v2.198l3.006,0.304c0,0,3.554-0.008,3.555-0.008
		c0.037,0,0.074,0.002,0.11,0.006l3.047,0.339h5.856c0.107,0,0.215,0.018,0.317,0.052l0.781,0.261l1.282,0.027
		c0.273,0.006,0.533,0.124,0.718,0.326c0.185,0.203,0.277,0.472,0.258,0.745l-0.365,5.097c-0.002,0.035-0.007,0.07-0.013,0.105
		l-0.12,0.668l0.005,0.898l-5.051,69.806c-0.021,0.297-0.174,0.569-0.416,0.742c-0.171,0.122-0.375,0.186-0.581,0.186
		c-0.086,0-0.171-0.011-0.256-0.033l-0.118-0.031c-0.922-0.258-2.119-0.315-2.465-0.327c-0.003,0-0.005,0-0.008,0
		c-0.072,0-0.137,0-0.195,0.006c-0.247,0.021-0.601,0.083-1.009,0.153C326.673,407.382,325.803,407.524,325.09,407.524z"/>
	<path fill="#FFFFFF" d="M307.848,319.698l0.444,0.367l6.999-0.025v0.816h-2.627l2.21,1.115l-0.617,0.629l0.027,2.858l2.81-0.013
		l1.219,0.244v3.103l3.957,0.399l3.604-0.008l3.102,0.346h5.912l0.926,0.31l1.434,0.03l-0.365,5.097l-0.136,0.758l0.005,0.989
		l-5.048,69.729l-0.118-0.031c-1.172-0.328-2.695-0.358-2.71-0.36c-0.118,0-0.224,0.002-0.317,0.012
		c-0.246,0.021-0.631,0.086-1.074,0.162c-0.818,0.144-1.729,0.3-2.393,0.3c-0.232,0-0.423-0.021-0.535-0.062
		c-0.529-0.39-1.043-0.748-1.559-1.106l-0.316-0.224c-0.49-0.342-0.977-0.685-1.459-1.032l-0.033-0.485h-0.344v-0.343h-0.685
		l-0.021-0.338h-0.348c-0.857-0.722-1.473-1.396-1.936-2.092l-0.067-0.102l0.112-0.049c0.318-0.131,0.634-0.394,0.559-1.349
		l-0.021-0.444c-0.016-0.44-0.032-0.939-0.203-1.404c-0.025-0.071-0.061-0.184-0.102-0.319l-0.099-0.328
		c-0.778-2.667-1.166-3.555-1.927-3.555c-0.4,0-0.736,0.167-0.946,0.471l-0.079,0.053l-0.096-0.03
		c-0.104-0.143-0.215-0.275-0.321-0.403l-0.175-0.188l-0.041-0.43h-0.314v-0.342h-0.291l-0.354-0.34l-0.021-0.68h-0.539
		l-1.272-1.335c-0.056-0.164-0.011-0.426,0.045-0.729l0.019-0.102c0.035-0.167,0.064-0.317,0.074-0.435
		c0.07-0.594-0.463-1.094-1.223-1.732l-0.079-0.064c-0.083-0.068-0.153-0.128-0.2-0.176c-0.311-0.312-0.673-0.469-1.078-0.469
		c-0.209,0-0.398,0.041-0.552,0.074c-0.042,0.011-0.092,0.021-0.112,0.03l-0.086,0.048l-0.045-0.086l-5.041-8.637l-0.294-0.471
		c-0.19-0.291-0.331-0.514-0.403-0.713l-0.058-0.158l0.167,0.024c0.084,0.015,0.165,0.021,0.243,0.021
		c0.427,0,0.772-0.188,0.926-0.37c0.253-0.292,0.333-0.709,0.248-1.276c-0.079-0.532-0.467-0.938-0.81-1.3
		c-0.291-0.302-0.439-0.488-0.482-0.611c-0.037-0.115-0.02-0.294,0.001-0.48c0.058-0.488,0.127-1.06-0.254-1.557l-1.229-1.612
		l0.316-0.168c1.666-0.909,3.948-2.157,4.307-3.895l0.828-4.002c0.15-0.747-0.101-1.608-0.322-2.371
		c-0.09-0.308-0.156-0.534-0.203-0.752c-0.934-4.502-1.99-9.604-4.27-13.784l-3.992-7.345c-0.811-1.489-1.959-2.888-2.974-4.121
		l-0.063-0.077c-0.471-0.573-0.938-1.148-1.369-1.724c-0.166-0.216-0.344-0.438-0.549-0.676l-0.142-0.165h5.884l0.473-1.432
		l0.031-5.691h3.021v-1.17l0.304-0.938l0.033-1.281H307.848 M307.848,317.698h-5.101c-1.084,0-1.972,0.864-1.999,1.948l-0.026,0.992
		l-0.145,0.449h-1.188c-1.101,0-1.994,0.889-2,1.989l-0.028,5.134h-4.359c-0.781,0-1.491,0.455-1.817,1.165
		c-0.326,0.71-0.209,1.545,0.3,2.138l0.142,0.165c0.181,0.21,0.336,0.404,0.481,0.593c0.449,0.601,0.943,1.206,1.408,1.773
		l0.065,0.079c0.955,1.161,2.037,2.477,2.761,3.806l3.992,7.344c2.136,3.918,3.161,8.861,4.065,13.223
		c0.061,0.282,0.136,0.549,0.24,0.906c0.13,0.444,0.339,1.164,0.285,1.429l-0.826,3.991c-0.172,0.834-2.288,1.989-3.306,2.544
		l-0.296,0.157c-0.52,0.275-0.891,0.765-1.017,1.339c-0.125,0.573,0.008,1.173,0.363,1.641l1.115,1.462
		c-0.006,0.079-0.018,0.178-0.026,0.253c-0.035,0.316-0.089,0.807,0.081,1.334c0.149,0.43,0.38,0.764,0.697,1.12
		c-0.242,0.124-0.46,0.298-0.637,0.516c-0.444,0.546-0.569,1.285-0.328,1.947l0.058,0.158c0.145,0.4,0.361,0.746,0.608,1.124
		l0.255,0.408l5.003,8.572l0.023,0.045c0.25,0.478,0.683,0.835,1.199,0.989c0.188,0.056,0.381,0.084,0.573,0.084
		c0.204,0,0.408-0.031,0.604-0.093c0.047,0.041,0.099,0.084,0.153,0.129l0.087,0.071c0.072,0.061,0.268,0.225,0.424,0.371
		c-0.082,0.448-0.192,1.062,0.031,1.718c0.093,0.275,0.245,0.527,0.446,0.737l1.272,1.335c0.069,0.073,0.144,0.14,0.223,0.201
		c0.101,0.2,0.235,0.383,0.399,0.541l0.354,0.34c0.006,0.005,0.012,0.011,0.018,0.017c0.089,0.132,0.193,0.253,0.311,0.361
		c0.068,0.111,0.148,0.216,0.237,0.312l0.14,0.149c0.075,0.091,0.143,0.171,0.205,0.257c0.251,0.346,0.607,0.603,1.015,0.731
		l0.096,0.03c0.197,0.062,0.401,0.093,0.604,0.093c0.174,0,0.347-0.022,0.515-0.067c0.143,0.414,0.315,0.968,0.518,1.659
		l0.104,0.343c0.054,0.178,0.1,0.323,0.133,0.415c0.066,0.18,0.077,0.506,0.088,0.794l0.014,0.292
		c-0.272,0.244-0.476,0.562-0.582,0.921c-0.168,0.567-0.075,1.18,0.251,1.673l0.067,0.102c0.58,0.871,1.337,1.693,2.314,2.517
		c0.042,0.035,0.086,0.069,0.13,0.101c0.236,0.278,0.546,0.49,0.899,0.606c0.135,0.213,0.31,0.4,0.52,0.551
		c0.49,0.354,0.985,0.703,1.484,1.05l0.306,0.216c0.514,0.357,1.013,0.705,1.527,1.083c0.157,0.116,0.33,0.208,0.514,0.273
		c0.336,0.12,0.73,0.178,1.207,0.178c0.793,0,1.709-0.149,2.738-0.33c0.303-0.052,0.728-0.125,0.895-0.139
		c0.049-0.004,0.083-0.005,0.115-0.005c0.653,0.022,1.574,0.109,2.207,0.286l0.146,0.039c0.169,0.044,0.341,0.066,0.512,0.066
		c0.412,0,0.819-0.128,1.162-0.372c0.484-0.346,0.79-0.89,0.833-1.483l5.048-69.729c0.003-0.052,0.005-0.103,0.005-0.154
		l-0.004-0.807l0.104-0.578c0.013-0.069,0.021-0.139,0.026-0.209l0.365-5.097c0.039-0.546-0.147-1.085-0.517-1.49
		s-0.889-0.641-1.437-0.652l-1.13-0.024l-0.637-0.213c-0.205-0.068-0.419-0.104-0.635-0.104h-5.801l-2.991-0.333
		c-0.074-0.008-0.147-0.012-0.222-0.012c-0.002,0-0.003,0-0.004,0l-3.501,0.008l-2.056-0.208v-1.294
		c0-0.953-0.673-1.774-1.607-1.961l-1.219-0.244c-0.129-0.026-0.261-0.039-0.393-0.039c-0.003,0-0.006,0-0.009,0l-0.82,0.004v-0.04
		l0.037-0.038c0.343-0.35,0.542-0.81,0.569-1.29c0.263-0.339,0.42-0.764,0.42-1.227v-0.816c0-0.532-0.212-1.042-0.588-1.417
		c-0.375-0.373-0.883-0.583-1.412-0.583c-0.002,0-0.005,0-0.007,0l-6.285,0.023C308.663,317.826,308.261,317.698,307.848,317.698
		L307.848,317.698z"/>
</g>
</svg>
