<?xml version="1.0" encoding="utf-8"?>
<!-- Generator: Adobe Illustrator 16.0.0, SVG Export Plug-In . SVG Version: 6.00 Build 0)  -->
<!DOCTYPE svg PUBLIC "-//W3C//DTD SVG 1.1//EN" "http://www.w3.org/Graphics/SVG/1.1/DTD/svg11.dtd">
<svg version="1.1" id="Layer_1" xmlns="http://www.w3.org/2000/svg" xmlns:xlink="http://www.w3.org/1999/xlink" x="0px" y="0px"
	 width="216px" height="42px" viewBox="0 0 216 42" enable-background="new 0 0 216 42" xml:space="preserve">
<g>
	<path fill="#E47127" d="M41.376,16.984c-0.179,0.158-0.526,0.401-0.968,0.451c-0.582,0.068-1.525-0.461-1.871-0.438
		c-0.226,0.013-0.467,0.23-0.467,0.23c-1.236,1.319-1.992,0.838-2.408,1.446c-0.743,1.101-2.503,3.533-2.423,5.668
		c0.049,1.258,0.299,2.466,0.299,2.466s-0.621,0.194-1.375,0.194c-0.761,0-1.09-0.272-1.09-0.272s0.744-2.09,0.125-2.943
		c-0.668-0.918-2.462-3.271-3.911-5.137c-0.262-0.223-0.566-0.469-0.879-0.664c-0.467-0.295-1.323-0.261-1.609-0.252
		c-0.492,0.013-1.123,0.064-2.169-0.207l-0.192-0.053c-0.437,0.089-0.872,0.176-0.872,0.176c-1.38-0.074-1.977-0.791-2.197-1.444
		c-0.223-0.664,0.771-0.926,1.166-1.631c0.389-0.702,0.726-1.142,1.252-1.771c0.53-0.632,1.521-0.878,2.063-1.094
		c0.542-0.215,0.945-1.514,1.745-1.444c0.452,0.036,0.586,0.114,1.104,0.237c0.825,0.195,2.988,1.921,2.141,4.227
		c-0.162,0.105-0.371,0.18-0.585,0.336c0.024,0.596,0.047,1.58-0.086,3.496c-0.046,0.662,1.48,0.516,1.715-0.397
		c0.569-2.171,0.664-3.89,1.087-4.304c-0.08,0.078-0.251,0.02-0.476,0.064c-0.206,0.047-0.439,0.096-0.998,0.472l0.083-0.304
		c0.164-0.787-0.176-2.469-1.747-3.561c-0.008-0.004,0.792-0.412,1.699-0.238c0.616,0.121,0.578,0.053,1.086-0.113
		c0.507-0.17,1.439,0.062,1.903-0.377c0.477-0.436,0.889-0.875,1.933-0.981c1.04-0.108,2.047,0.739,2.971,1.386
		c0.927,0.649,1.052,0.142,2.1,0.445c0.836,0.24,0.844,0.637,0.995,0.928c0.121,0.904,0.025,2.455-1.687,3.463
		c-0.67,0.104-1.609,0.938-2.394,0.684l-0.079-0.046c-0.229,1.044-0.479,2.084-0.507,2.166c0,0,1.497-0.248,2.288-1.335
		c0.369-0.504,1.288-0.609,1.849-0.75c-0.218-0.234-0.258-0.384-0.454-0.514c0.616-0.396,1.64-1.408,1.55-3.35
		c0.685,0.103,1.968-0.136,3.036,0.889c1.162,1.122,1.689,2.273,1.352,2.781c-0.461,0.69-2.597,1.672-3.651,1.551
		C41.667,17.104,41.521,17.057,41.376,16.984 M26.41,17.534c-0.465-0.593-0.834-1.05-1.031-1.276
		c-0.821,0.178-0.971,0.039-1.276,0.343c-0.333,0.332-0.42,0.544-0.929,0.7v0.002c0.514,0.145,0.941,0.023,1.571,0.023
		C25.283,17.326,26.025,17.459,26.41,17.534 M41.073,16.801c-0.261-0.187-0.507-0.432-0.73-0.668
		c-0.424,0.086-0.942-0.08-1.679,0.506c0.075,0.016,0.164,0.033,0.255,0.044c0.298,0.036,1.231,0.456,1.462,0.442
		C40.74,17.103,40.963,16.918,41.073,16.801 M33.154,21.098c0.919-0.969,1.989-2.326,2.32-3.68c0.24-0.969,0.499-1.479,0.577-1.962
		c-0.555-0.097-0.936-0.544-1.359-0.942c-0.492,0.605-1.252,1.567-1.494,1.963c-1.041,1.7-0.767,2.814-0.042,4.62L33.154,21.098z
		 M32.135,13.911l-0.659-0.017c-0.579,0.561-0.69,1.27-0.832,3.179c-0.174,2.35-1.531,2.14-1.438,2.729
		c0.081,0.514,1.891,2.147,2.369,2.574v-0.003l0.174-1.648c0,0-0.081-3.017-0.066-3.56C31.713,16.35,31.915,14.727,32.135,13.911
		 M32.085,17.186c0.098,0.027,0.316-0.066,0.74-0.873c0.289-0.543,1.078-1.471,1.585-2.047c-0.174-0.139-0.361-0.258-0.571-0.336
		c-0.29-0.107-0.818,0.052-1.015,0l-0.225-0.007c-0.154,0.626-0.484,2.436-0.51,2.856C32.083,16.874,32.083,17.016,32.085,17.186
		 M25.923,16.135c0.276,0.523,1.014,1.346,1.889,2.35c0,0,0.221-1.588-0.05-3.082c-0.234,0.146-0.476,0.28-0.747,0.395
		C26.696,15.937,26.31,16.041,25.923,16.135"/>
	<polygon fill="#E47127" points="61,6 63.194,6 66.589,13.01 66.613,13.01 66.613,6 68.324,6 68.324,15.372 66.141,15.372 
		62.733,8.364 62.711,8.364 62.711,15.372 61,15.372 	"/>
	<path fill="#E47127" d="M70.179,8.819c0.663-0.321,1.558-0.524,2.283-0.524c2.004,0,2.833,0.874,2.833,2.914v0.887
		c0,0.699,0.012,1.222,0.026,1.732c0.014,0.523,0.039,1.008,0.076,1.544h-1.507c-0.063-0.362-0.063-0.818-0.074-1.034h-0.026
		c-0.395,0.766-1.248,1.196-2.029,1.196c-1.16,0-2.295-0.739-2.295-2.055c0-1.034,0.472-1.639,1.119-1.974
		c0.651-0.337,1.496-0.402,2.211-0.402h0.943c0-1.115-0.473-1.492-1.479-1.492c-0.729,0-1.455,0.295-2.028,0.753L70.179,8.819z
		 M72.184,14.218c0.521,0,0.931-0.243,1.196-0.617c0.281-0.39,0.359-0.888,0.359-1.424h-0.742c-0.763,0-1.9,0.134-1.9,1.194
		C71.097,13.963,71.572,14.218,72.184,14.218"/>
	<path fill="#E47127" d="M77.161,9.773h-1.264V8.457h1.264V7.076l1.71-0.58v1.961h1.517v1.316h-1.517v3.222
		c0,0.592,0.151,1.142,0.803,1.142c0.307,0,0.601-0.066,0.779-0.187l0.05,1.423c-0.356,0.107-0.752,0.161-1.262,0.161
		c-1.339,0-2.08-0.872-2.08-2.241V9.773z"/>
	<path fill="#E47127" d="M87.205,15.373h-1.621v-0.939h-0.025c-0.523,0.672-1.266,1.102-2.158,1.102
		c-1.555,0-2.232-1.155-2.232-2.713V8.458h1.709v3.693c0,0.845,0.014,1.987,1.111,1.987c1.238,0,1.506-1.411,1.506-2.298V8.458
		h1.711V15.373z"/>
	<path fill="#E47127" d="M88.646,8.457h1.518v1.571h0.025c0.078-0.644,0.779-1.731,1.799-1.731c0.166,0,0.344,0,0.523,0.053v1.814
		c-0.154-0.094-0.461-0.148-0.764-0.148c-1.391,0-1.391,1.826-1.391,2.819v2.539h-1.711V8.457z"/>
	<path fill="#E47127" d="M93.35,8.819c0.664-0.321,1.555-0.524,2.285-0.524c2.002,0,2.834,0.874,2.834,2.914v0.887
		c0,0.699,0.008,1.222,0.025,1.732c0.01,0.523,0.037,1.008,0.072,1.544h-1.504C97,15.01,97,14.554,96.986,14.338h-0.027
		c-0.396,0.766-1.246,1.196-2.027,1.196c-1.162,0-2.295-0.739-2.295-2.055c0-1.034,0.471-1.639,1.119-1.974
		c0.652-0.337,1.496-0.402,2.209-0.402h0.945c0-1.115-0.473-1.492-1.48-1.492c-0.725,0-1.453,0.295-2.027,0.753L93.35,8.819z
		 M95.354,14.218c0.523,0,0.93-0.243,1.199-0.617c0.281-0.39,0.357-0.888,0.357-1.424h-0.742c-0.764,0-1.9,0.134-1.9,1.194
		C94.268,13.963,94.74,14.218,95.354,14.218"/>
	<rect x="99.852" y="5.301" fill="#E47127" width="1.709" height="10.072"/>
	<path fill="#E47127" d="M106.523,6h1.928c1.914,0,4.199-0.066,4.199,2.538c0,1.102-0.703,2.015-1.84,2.175v0.027
		c0.484,0.041,0.766,0.551,0.945,0.967l1.43,3.666h-1.99l-1.072-2.928c-0.258-0.697-0.486-0.966-1.24-0.966h-0.574v3.894h-1.785V6z
		 M108.309,10.002h0.592c0.877,0,1.885-0.135,1.885-1.304c0-1.126-0.994-1.221-1.885-1.221h-0.592V10.002z"/>
	<path fill="#E47127" d="M119.223,14.984c-0.627,0.361-1.344,0.549-2.26,0.549c-2.17,0-3.432-1.314-3.432-3.586
		c0-1.998,1.008-3.652,3.051-3.652c2.436,0,3.123,1.76,3.123,4.178h-4.541c0.076,1.114,0.814,1.746,1.873,1.746
		c0.83,0,1.545-0.322,2.186-0.699V14.984z M118.072,11.237c-0.051-0.872-0.434-1.624-1.391-1.624s-1.441,0.697-1.518,1.624H118.072z
		"/>
	<path fill="#E47127" d="M124.697,9.908c-0.521-0.188-0.904-0.297-1.529-0.297c-0.459,0-1.008,0.176-1.008,0.766
		c0,1.102,2.971,0.403,2.971,2.901c0,1.61-1.363,2.257-2.752,2.257c-0.652,0-1.318-0.121-1.941-0.297l0.102-1.477
		c0.535,0.281,1.098,0.457,1.684,0.457c0.436,0,1.123-0.176,1.123-0.846c0-1.355-2.973-0.43-2.973-2.928
		c0-1.491,1.238-2.15,2.578-2.15c0.803,0,1.326,0.136,1.863,0.256L124.697,9.908z"/>
	<path fill="#E47127" d="M129.156,8.296c1.951,0,3.447,1.384,3.447,3.665c0,1.989-1.266,3.574-3.447,3.574
		c-2.17,0-3.432-1.585-3.432-3.574C125.725,9.68,127.219,8.296,129.156,8.296 M129.156,14.139c1.316,0,1.66-1.236,1.66-2.391
		c0-1.062-0.537-2.055-1.66-2.055c-1.109,0-1.646,1.02-1.646,2.055C127.51,12.889,127.854,14.139,129.156,14.139"/>
	<path fill="#E47127" d="M139.648,15.373h-1.621v-0.939h-0.023c-0.523,0.672-1.264,1.102-2.156,1.102
		c-1.557,0-2.232-1.155-2.232-2.713V8.458h1.709v3.693c0,0.845,0.01,1.987,1.109,1.987c1.236,0,1.506-1.411,1.506-2.298V8.458h1.709
		V15.373z"/>
	<path fill="#E47127" d="M141.092,8.457h1.518v1.571h0.025c0.078-0.644,0.777-1.731,1.797-1.731c0.168,0,0.344,0,0.527,0.053v1.814
		c-0.154-0.094-0.461-0.148-0.766-0.148c-1.391,0-1.391,1.826-1.391,2.819v2.539h-1.711V8.457z"/>
	<path fill="#E47127" d="M149.994,9.947c-0.305-0.148-0.637-0.256-1.162-0.256c-1.057,0-1.732,0.889-1.732,2.189
		c0,1.275,0.572,2.258,1.771,2.258c0.486,0,1.023-0.188,1.316-0.323l0.076,1.491c-0.496,0.161-1.008,0.227-1.709,0.227
		c-2.158,0-3.242-1.543-3.242-3.652c0-2,1.123-3.585,3.176-3.585c0.689,0,1.189,0.081,1.66,0.229L149.994,9.947z"/>
	<path fill="#E47127" d="M156.316,14.984c-0.627,0.361-1.34,0.549-2.258,0.549c-2.17,0-3.432-1.314-3.432-3.586
		c0-1.998,1.008-3.652,3.049-3.652c2.438,0,3.127,1.76,3.127,4.178h-4.541c0.074,1.114,0.814,1.746,1.873,1.746
		c0.83,0,1.545-0.322,2.182-0.699V14.984z M155.17,11.237c-0.053-0.872-0.434-1.624-1.393-1.624c-0.957,0-1.441,0.697-1.516,1.624
		H155.17z"/>
	<path fill="#E47127" d="M161.795,9.908c-0.523-0.188-0.906-0.297-1.531-0.297c-0.461,0-1.01,0.176-1.01,0.766
		c0,1.102,2.975,0.403,2.975,2.901c0,1.61-1.365,2.257-2.756,2.257c-0.652,0-1.316-0.121-1.941-0.297l0.104-1.477
		c0.535,0.281,1.096,0.457,1.684,0.457c0.432,0,1.121-0.176,1.121-0.846c0-1.355-2.971-0.43-2.971-2.928
		c0-1.491,1.238-2.15,2.576-2.15c0.807,0,1.328,0.136,1.863,0.256L161.795,9.908z"/>
	<path fill="#E98D4A" d="M60.876,28.092c0.528,0.336,1.15,0.528,1.987,0.528c1.109,0,2.025-0.566,2.025-1.845
		c0-1.768-4.127-1.985-4.127-4.349c0-1.443,1.266-2.346,2.85-2.346c0.437,0,1.148,0.064,1.769,0.297l-0.143,0.812
		c-0.4-0.219-1.033-0.334-1.639-0.334c-0.928,0-1.949,0.386-1.949,1.547c0,1.806,4.131,1.819,4.131,4.45
		c0,1.819-1.564,2.542-2.956,2.542c-0.878,0-1.562-0.181-2.037-0.387L60.876,28.092z"/>
	<path fill="#E98D4A" d="M69.806,20.236h1.005l3.573,9.004h-0.928l-0.968-2.414h-4.54l-0.968,2.414h-0.865L69.806,20.236z
		 M70.246,21.087l-1.962,4.967h3.907L70.246,21.087z"/>
	<path fill="#E98D4A" d="M81.352,20.236h1.01l3.57,9.004h-0.928l-0.967-2.414h-4.542l-0.969,2.414h-0.864L81.352,20.236z
		 M81.791,21.087l-1.958,4.967h3.906L81.791,21.087z"/>
	<path fill="#E98D4A" d="M86.705,24.131c0-0.721,0-0.992-0.053-1.471h0.812v1.265h0.025c0.297-0.736,0.852-1.419,1.689-1.419
		c0.195,0,0.426,0.039,0.57,0.077v0.852c-0.17-0.053-0.387-0.077-0.598-0.077c-1.289,0-1.637,1.444-1.637,2.631v3.252h-0.811V24.131
		z"/>
	<path fill="#E98D4A" d="M90.467,29.24h0.812v-6.58h-0.812V29.24z M90.467,20.905h0.812v-1.084h-0.812V20.905z"/>
	<path fill="#E98D4A" d="M97.992,29.24h-0.816v-1.046h-0.023c-0.439,0.841-1.109,1.198-2.051,1.198
		c-1.809,0-2.709-1.495-2.709-3.443c0-1.998,0.771-3.443,2.709-3.443c1.287,0,1.936,0.942,2.051,1.265h0.023v-4.206h0.816V29.24z
		 M95.23,28.698c1.443,0,1.945-1.548,1.945-2.749c0-1.199-0.502-2.748-1.945-2.748c-1.549,0-1.949,1.471-1.949,2.748
		C93.281,27.228,93.682,28.698,95.23,28.698"/>
	<polygon fill="#E98D4A" points="102.908,20.235 103.797,20.235 103.797,28.465 107.41,28.465 107.41,29.24 102.908,29.24 	"/>
	<path fill="#E98D4A" d="M112.166,28.181h-0.027c-0.359,0.788-1.275,1.214-2.088,1.214c-1.873,0-2.168-1.265-2.168-1.857
		c0-2.206,2.35-2.31,4.051-2.31h0.154v-0.336c0-1.121-0.398-1.688-1.498-1.688c-0.682,0-1.326,0.152-1.934,0.54v-0.787
		c0.502-0.242,1.355-0.448,1.934-0.448c1.629,0,2.312,0.732,2.312,2.449v2.903c0,0.527,0,0.927,0.062,1.378h-0.799V28.181z
		 M112.088,25.925h-0.23c-1.406,0-3.086,0.142-3.086,1.585c0,0.865,0.619,1.189,1.369,1.189c1.91,0,1.947-1.664,1.947-2.375V25.925z
		"/>
	<path fill="#E98D4A" d="M114.256,24.208c0-0.504,0-1.02-0.051-1.549h0.789v1.175h0.021c0.273-0.594,0.764-1.329,2.131-1.329
		c1.627,0,2.244,1.084,2.244,2.529v4.204h-0.812V25.24c0-1.237-0.439-2.037-1.561-2.037c-1.486,0-1.949,1.302-1.949,2.397v3.638
		h-0.812V24.208z"/>
	<path fill="#E98D4A" d="M126.08,29.24h-0.814v-1.046h-0.025c-0.436,0.841-1.111,1.198-2.053,1.198
		c-1.807,0-2.709-1.495-2.709-3.443c0-1.998,0.777-3.443,2.709-3.443c1.293,0,1.938,0.942,2.053,1.265h0.025v-4.206h0.814V29.24z
		 M123.318,28.698c1.445,0,1.947-1.548,1.947-2.749c0-1.199-0.502-2.748-1.947-2.748c-1.547,0-1.945,1.471-1.945,2.748
		C121.373,27.228,121.771,28.698,123.318,28.698"/>
	<path fill="#E98D4A" d="M126.971,28.285c0.492,0.245,1.084,0.413,1.715,0.413c0.777,0,1.457-0.427,1.457-1.176
		c0-1.559-3.158-1.316-3.158-3.223c0-1.305,1.057-1.794,2.141-1.794c0.348,0,1.047,0.078,1.625,0.297l-0.076,0.709
		c-0.426-0.193-1.008-0.309-1.457-0.309c-0.838,0-1.42,0.256-1.42,1.097c0,1.225,3.238,1.07,3.238,3.223
		c0,1.395-1.301,1.873-2.297,1.873c-0.631,0-1.266-0.079-1.846-0.312L126.971,28.285z"/>
</g>
</svg>
