<?xml version="1.0" encoding="utf-8"?>
<!-- Generator: Adobe Illustrator 16.0.0, SVG Export Plug-In . SVG Version: 6.00 Build 0)  -->
<!DOCTYPE svg PUBLIC "-//W3C//DTD SVG 1.1//EN" "http://www.w3.org/Graphics/SVG/1.1/DTD/svg11.dtd">
<svg version="1.1" id="Base_map" xmlns="http://www.w3.org/2000/svg" xmlns:xlink="http://www.w3.org/1999/xlink" x="0px" y="0px"
	 width="358px" height="409px" viewBox="0 0 358 409" enable-background="new 0 0 358 409" xml:space="preserve">
<g id="BG">
	<path fill="#EBE9E7" d="M121.546,2.166l0.291,10.349h-0.761l-0.934,3.79v4.834l1.075,2.172h14.317l5.571-0.404l-2.188,10.346v1.318
		l-1.164,0.785l-0.146,0.295l0.288,1.455l0.013,1.523h-4.357v4.411h-1.339v8.423h0.977l5.703-0.387l0.383,10.93l-9.409,0.342v6.072
		h14.07l0.346,25.127l-0.662,4.727l0.314,1.578l0.36,18.145h-1.881l-0.593-0.301l-0.25,0.254l-2.358,0.397l-1.8-0.366l-2.308-0.331
		l-7.644-0.332l-5.719-1.08l-0.929,0.47v16.863l0.314,2.488l2.944,5.625l-1.296,0.656l-1.626,1.102v8.415h0.479l0.669-0.342h2.483
		v-0.335h1.345v-0.342h2.083l0.29-0.293l0.623,0.635l5.631,0.035l0.9,0.3l0.747,0.028l2.254,0.65h2.582l0.336,7.805h12.451
		l0.332-0.342h5.485l0.672,0.342h1.128l1.004,1.014h0.672l0.538,0.545l0.719,0.473h0.362l1.526,1.16l0.95,0.467v4.252l1.678,2.035
		v6.188l-1.211,2.365l-0.466,0.521l-0.034,0.225l-1.007,3.052l-0.97,3.272v0.415l2.618,5.622l0.594,2.365h-0.925l-0.396,2.014
		l-9.264,0.335v5.732h6.369v4.751h9.721v9.493h7.711v3.735h4.692v4.748h5.028v4.745h7.985v-4.745h6.427v2.715h0.692l0.33-0.342
		h1.992v0.342h2.631v-0.314v-0.367h0.694h1.849l0.672-0.34h1.195v0.34h0.266l0.543,0.555l0.867-0.883v1.35h0.334l0.072,1.012h0.604
		v0.679h0.332v0.343h0.336v0.75l0.334,0.341v0.338l0.338,0.342v1.959h0.276v-0.679h0.338v-0.338h1.73v1.768l0.651,0.66h-0.651v1.979
		h5.696v6.787h8.185l0.668,0.338h2.826v-5.771h1.006v-4.332l0.672-0.676v-0.416h0.33v-0.338h0.338v-0.338h0.746l0.26-0.268v-0.416
		h0.339v-0.334h0.743l0.263-0.267v-0.413h0.334v-0.341h0.744l0.598-0.602v-0.417h3.199l-0.168-0.848l-0.019-3.84h-1.312l1.026-1.049
		l-1.026-1.045h1.987v-10.516h5.414v2.035h3.828l0.478,0.241v-3.312l-0.994-0.999h0.994v-1.621l0.336-0.385v-1.646l0.334-0.388
		v-1.046h0.334v-0.678h0.41l0.26-0.314v-0.704h0.341v-0.68h0.334v-0.675h0.409l0.263-0.312v-0.298l0.33-0.381v-0.707h0.338v-5.354
		l0.336-0.385v-2.034v-0.37h0.697h11.016l0.384,0.342h8.071v3.178l-1.205,0.609h-1.139v0.338h-0.339v0.68h-0.338v0.339h-0.334v0.964
		h0.334v1.693h2.687v6.445h1.679v8.479h1.674l-0.032,4.661l-0.306,0.907v0.536h8.051v0.338h5.024v3.928l-0.334,0.68v7.922
		l-0.334,0.389v4.097v0.802l1.646-0.56l0.664,0.225l0.312-0.948v-0.225l0.351-1.835l-0.011-1.784l2.736,0.691v0.863h0.137
		l1.127,0.68h1.359v-1.283l0.744-0.752h0.336l0.338-0.34h1.317v0.34h0.338v0.418l0.308,0.26h0.697v0.337h0.336v0.341h0.334v0.68
		h0.688l0.336-0.341h1.323v0.755l0.336,0.262v0.078v0.264h1.003v0.751l0.267,0.263h0.403v0.342h0.334v0.338h0.338v0.754l0.261,0.267
		h0.412v0.337h3.297v-5.426h0.334v-1.356h3.688v-2.038h1.991l0.382,0.342h6.68v-0.342h8.361l0.381,0.342h0.707l0.61-6.482
		l-0.006-5.363l0.338-5.467l0.34-3.086l0.332-4.387l-0.004-2.66l0.338-4.126l-0.002-4.013l0.338-4.465l1.003-19.654l1.682-28.832
		l1.673-32.219l0.34-2.433l-0.004-3.972l1.676-29.547l0.341-4.091l0.331-8.11l1.005-17.981l0.336-7.122l0.334-4.092l1.478-25.607
		l-73.213-3.582c-14.33-0.701-28.912-1.039-43.009-1.361l-7.457-0.172c-14.729-0.352-34.116-0.765-53.446-0.873
		c-4.042-0.023-8.085-0.051-12.127-0.078C158.568,2.06,150.499,2,142.435,2c-7.021,0-13.257,0.047-19.068,0.142L121.546,2.166z"/>
	<path fill="#EBE9E7" d="M83.209,189.225v-1.512l2.845,1.436l2.521-0.297v-1.383h6.09v1.355h8.474l-0.94,1.912l-0.494,0.247v2.306
		h-1.677v0.699l0.308,0.26h0.696v1.021h0.616v-1.021h1.007v-1.355h1.403l-0.334-1.014h0.788l-0.336-1.697h1.498v-4.354H98.66
		l-3.716,0.422v-10.289l11.072-0.363h10.415l0.335,9.157h2.592l1.43-0.338h6.697l0.354,7.184l0.365,0.362l0.741,0.254h0.387
		l0.671,0.338l1.058,0.037l1.009,0.342l1.902,0.311l4.943-0.01v1.014h2.013v0.342h0.977l1.54-0.323l2.176-0.019v1.021h1.34v0.535
		l0.668,0.245l1.677,1.017l1.315,0.913h0.306v-0.271l1.007,0.342v-3.117h5.391l8.812-0.32l0.266-1.358l0.475-0.479l-0.173-0.697
		l-2.702-5.936l0.03-0.882l1.003-3.391l0.979-2.964v-0.518v-0.002l0.792-0.802l0.88-1.788v-5.343l-1.673-2.03v-3.892l-0.286-0.145
		l-1.364-0.942h-0.212l-1.407-1.017h-0.681l-1.004-1.017h-0.882l-0.671-0.342h-4.575l-0.335,0.342h-14.366l-0.335-7.801
		l-1.534-0.029l-2.252-0.65l-0.795-0.038l-0.897-0.3h-8.241v0.338h-3.549l-0.421,0.213l-0.458,0.467h-1.994v-10.922l2.443-1.631
		l-0.358-0.727l-2.083-3.963l-0.332-2.711l-0.006-18.771h1.412l1.324-1.336v0.9l0.669-0.34v0.897l4.797,0.91l7.61,0.326l2.416,0.344
		l1.587,0.319l1.667-0.278l0.381-0.389h0.789l0.8,0.342l-0.323-16.574l-0.345-1.695l0.687-4.863l-0.005-1.938l-0.324-21.677h-14.089
		v-8.849l9.36-0.342l-0.281-8.06l-4.313,0.29h-2.419V41.629h1.339v-4.41h4.354l-0.365-1.77l0.525-1.061l0.85-0.572l0.015-0.789
		l1.817-8.578l-3.764,0.273l-15.232,0.003l-1.609-3.253l0.022-5.428l1.052-4.26l0.586-0.588l-0.258-9.012
		c-4.988,0.075-9.976,0.135-14.971,0.197C95.267,2.5,85.099,2.621,74.966,2.86c-3.378,0.082-6.749,0.176-10.107,0.285l-62.85,2.07
		l5.995,145.339c0.193,4.708,0.375,9.417,0.555,14.124c0.349,9.117,0.71,18.539,1.169,27.814l25.966-4.053
		c3.229-0.508,6.577-0.742,10.531-0.742c3.438,0,6.793,0.178,10.346,0.363l2.493,0.125c1.252,0,2.646-0.687,3.996-1.351
		c0.547-0.27,1.084-0.532,1.587-0.742c0.311-0.125,1.018-0.66,1.642-1.129c1.841-1.387,2.917-2.098,3.684-1.75L83.209,189.225z"/>
	<path fill="#EBE9E7" d="M264.686,275.648c0.461,0.84,0.445,1.299,0.236,1.865c0.562,0.223,1.025,0.621,1.381,1.189l5.889,0.037
		l0.896,0.305h3.939v0.676h2.627v-0.34h0.336v-0.336h0.238l-0.668-1.357h2.104v-0.623h-0.334v-1.748h0.334v-1.021h1.002v-0.338
		h2.402v0.338h1.678v1.434l0.309,0.262h1.336l-0.021-0.018v-0.604h-0.338v-0.682h-0.334v-1.018h-0.336v-1.355h-0.334v-0.75
		l-0.645-0.604h-1.033v-3.055h-1.332l0.998-1.002v-1.113l-0.621-0.625l0.285-0.342l-0.018-1.326l-0.988,0.998v-2.43l-1.324-1.337
		h1.324v-1.698h0.334v-0.281h-0.668v-1.018h-1.008v-0.68H282v-3.109h1.008v-0.674h0.336v-3.053h0.334v-0.285h-1.01v-1.697h-2.271
		h-0.047v-0.367l-0.156,0.162l-0.539-0.549v-1.018l-0.988-0.998h1.326v-0.338h1.004v-0.342h0.338l0.021-0.281h-0.695v-3.108h1.01
		v-0.339h0.67v-0.943l0.332-0.387v-0.97l0.34-0.385v-0.705h4.213l0.672,0.335h6.205l3.324,0.279v-4.611l0.334-0.389v-7.624
		l0.334-0.68v-2.179h-5.023v-0.342h-8.047l0.035-2.285l0.299-0.906v-2.912h-1.676v-8.479H282v-6.442h-4.004l1.324-1.387v-0.309
		h-0.338v-1.021h-0.33v-0.676h-0.986l1.316-1.384v-0.71h0.338v-0.338h0.334v-0.676h0.336v-0.342l2.346-0.069v-0.892h-7.301
		l-0.381-0.34h-9.695v1.622l-0.332,0.386v6.135h-0.41l-0.262,0.312v0.291l-0.336,0.385v0.707h-0.334v0.677h-0.332v0.679h-0.41
		l-0.264,0.314v0.703h-0.334v0.68h-0.338v0.267l-0.338,0.384v1.646l-0.33,0.389v0.312h0.33v1.428l0.996,1.001h-0.996v2.035h-0.33
		v2.035h-1.533l-0.676-0.339h-5.225v-2.033h-2.295v10.51h-0.668v4.383l0.125,0.613l1.105-0.84l0.742-0.725l1.861-1.078
		c-0.117-0.219-0.193-0.465-0.174-0.741l0.521-7.95l1.393-0.031l0.307,2.877c0.027-0.004,0.059-0.006,0.09-0.006
		c0.164-0.017,0.342-0.032,0.547-0.032h0.965l-0.305,0.929c-0.057,0.174-0.133,0.352-0.211,0.535
		c-0.086,0.197-0.236,0.533-0.217,0.64l0.154,0.122c0.973,0.832,1.059,1.108,0.801,2.453c-0.102,0.521,0.506,0.999,1.369,1.629
		c0.279,0.203,0.559,0.404,0.787,0.604l0.803,0.697l-0.943,0.47c-0.719,0.363-0.719,0.363-0.521,1.283
		c0.057,0.27,0.127,0.576,0.18,0.93c0.229,1.587,0.466,3.174,0.703,4.758c0.062,0.101,0.519,0.389,0.795,0.562
		c0.64,0.402,1.358,0.859,1.646,1.572c0.603,1.512,0.162,2.439-0.346,3.513c-0.101,0.213-0.207,0.444-0.316,0.698l-0.979,2.285
		l-0.396-2.803c-0.514,0.273-0.793,0.537-1.217,1.172l-0.681,1.041l-0.524-1.132c-0.101-0.201-0.166-0.251-0.166-0.254
		c-0.069,0.079-0.517,0.661-0.721,1.268l-0.16,0.476l3.664,1.281h-4.093l-0.051,0.148c0.192,0.436,0.366,0.752,0.681,0.658
		l1.061-0.322l-0.165,1.109c-0.304,1.986-0.259,2.297,0.663,4.146c0.066,0.129,0.138,0.254,0.209,0.379
		c0.277,0.486,0.621,1.099,0.529,1.84l-0.022,0.191c-0.011,0.072-0.019,0.15-0.027,0.223c0.07,0.008,0.146,0.021,0.222,0.033
		l1.156,0.201l-0.447,0.863c-0.399,0.758-0.937,0.85-1.228,0.826l-0.293,0.371l-0.401,1.752l-1.746-0.58
		c-0.56,0.469-1.053,1.059-1.604,1.729c-0.274,0.332-0.558,0.67-0.856,1.012l-4.541,5.09c0.117,0.234,0.283,0.529,0.356,0.652
		l0.125,0.223c0.353,0.729-0.379,1.303-0.813,1.65l-0.127,0.104c-0.129,0.121-0.328,0.275-0.552,0.447
		c-0.271,0.217-0.879,0.682-1.063,0.961c1.078,1.34,0.646,2.195,0.144,3.178c-0.106,0.229-0.237,0.48-0.366,0.775
		c-0.418,0.951-1.295,1.086-1.916,1.105c0.797,1.615,1.455,3.199,0.848,5.287c-0.073,0.248-0.125,0.5-0.18,0.748
		c-0.17,0.832-0.396,1.934-1.431,2.373c1.308,0.494,1.054,1.625,0.896,2.324c-0.039,0.186-0.084,0.383-0.116,0.6
		c-0.087,0.617,0.131,1.197,0.377,1.873c0.071,0.199,0.144,0.398,0.215,0.605c0.42,1.264,0.021,2.742-0.332,4.047
		c-0.108,0.408-0.217,0.799-0.283,1.158l-0.793,4.023c-0.028,0.143-0.047,0.324-0.063,0.523c-0.06,0.553-0.125,1.187-0.401,1.637
		c-0.164,0.264-2.002,1.762-2.614,1.762h-0.229l-2.663-1.965v0.003c-0.01,0-0.085-0.03-0.291-0.03c-0.551,0-1.34,0.207-1.979,0.369
		c-0.355,0.092-0.664,0.168-0.887,0.204c-1.271,0.204-2.013-0.073-3.027-0.448l-0.359-0.131c-0.203,0.125-0.514,1.137-0.646,1.562
		c-0.096,0.32-0.184,0.613-0.275,0.836c-0.271,0.654-0.625,0.982-0.859,1.201c-0.049,0.045-0.109,0.104-0.137,0.137
		c0.018,0,0.057,0.162,0.25,0.554c0.82,1.673-0.453,3.123-0.934,3.673c-0.062,0.064-0.129,0.159-0.201,0.26
		c-0.334,0.453-0.756,1.02-1.373,1.119l-0.211,0.032c-0.143,0.022-0.303,0.052-0.35,0.065c0.035,0.002-0.062,0.246-0.102,0.334
		c-0.064,0.17-0.131,0.308-0.189,0.429c-0.033,0.086-0.082,0.187-0.104,0.245c0.019,0.009,0.06,0.068,0.147,0.166
		c0.087,0.093,0.197,0.246,0.324,0.423c0.156,0.214,0.479,0.657,0.625,0.752c0-0.005,0.006-0.005,0.017-0.005
		c0.022,0,0.067,0.005,0.116,0.005c0.582,0,1.218-0.726,1.685-1.257l0.205-0.234c0.551-0.602,1.16-0.882,1.928-0.882
		c0.395,0,0.777,0.067,1.188,0.146c0.252,0.049,0.521,0.101,0.809,0.133l0.601,0.08c0.257,0.039,0.449,0.072,0.617,0.072
		c0.149,0,0.254,0,0.776-0.688c0.808-1.055,1.312-1.551,2.427-1.551c0.237,0,0.524,0.021,0.877,0.047l0.512,0.039
		c-0.034-0.02,0.017-0.123,0.045-0.203c0.058-0.118,0.115-0.243,0.183-0.357c0.34-0.604,0.824-0.797,1.248-0.975l0.262-0.111
		c0.605-0.275,1.236-0.412,1.882-0.412c1.991,0,3.743,1.323,5.224,2.562c0.493,0.016,1.375-0.73,1.78-1.1
		c0.17-0.146,0.312-0.275,0.416-0.355c0.019-0.036,0.041-0.234-0.037-0.488c-0.079-0.248-0.217-0.393-0.267-0.41l-0.348-1.354
		c0.104-0.041,0.26-0.084,0.432-0.131c0.171-0.049,0.496-0.137,0.658-0.219l0.601-2.42c0.063-0.27,0.125-0.539,0.188-0.806
		c0.254-1.112,0.517-2.263,1.154-3.329c0.825-1.385,1.235-2.369,1.682-4.057c0.231-0.887,0.467-1.773,0.701-2.658
		c-0.287-0.162-0.57-0.363-0.74-0.754c-0.469-1.084,0.154-2.814,0.838-4.502l0.138-0.324c0.545-1.396,1.42-2.254,2.343-3.156
		l0.476-0.467c0.409-0.41,0.362-1.652,0.327-2.564c-0.016-0.398-0.03-0.779-0.016-1.084c0.038-0.834,0.78-1.74,1.825-2.93
		c0.269-0.312,0.513-0.584,0.657-0.787l0.64-0.893L264.686,275.648z"/>
	<rect x="288.76" y="277.402" fill="#EBE9E7" width="0.277" height="0.96"/>
	<path fill="#EBE9E7" d="M185.252,285.332c0.018,0.02,0.035,0.033,0.051,0.053c0.012-0.215,0.082-0.41,0.148-0.547"/>
	<path fill="#EBE9E7" d="M252.686,229.035l-1.602,1.224h-0.279l-0.334,0.337h-2.945v0.342h-0.738l-0.6,0.604v0.414h-0.336v0.342
		h-0.746l-0.262,0.262v0.414h-0.334v0.338h-0.744l-0.26,0.263v0.417h-0.338v0.338h-0.332v0.34h-0.672v5.086h-1.008v5.77h-4.549
		l-0.67-0.34h-9.248v-6.784h-5.699v-3.395h-2.346v-2.785l-0.334-0.338v-0.342l-0.27-0.266h-0.408v-0.338H217.3l-0.067-0.679
		l-0.43-0.868l-0.845,0.858v-1.347h-0.332v-0.68h-1.006v-0.071l-0.144,0.071H213v1.021h-1.324l-0.336-0.342h-3.764l-0.014-0.338
		l-0.338,0.338h-2.664v-2.713h-3.629v4.748h-10.787v-4.748h-5.029v-4.746h-4.691v-3.734h-7.711v-9.497h-9.718v-4.747h-6.371v-7.123
		h-3.296v3.666l-1.007-0.338v0.062h-2.066v-0.334h-0.206l-1.527-1.163l-1.549-0.935l-1.41-0.479v-0.14h-1.344v-1.015h-0.639
		l-1.542,0.322l-2.513,0.016v-0.338h-2.007v-1.021h-3.663l-2.127-0.351l-1.001-0.325h-1.06l-0.669-0.341l-0.389-0.037l-1.164-0.393
		l-0.98-0.984l-0.313-6.387h-5.286l-1.425,0.338h-4.027l-0.336-9.156h-9.047l-9.694,0.316v7.344l2.243-0.25l8.483-0.008v7.182
		h-1.188l0.335,1.695h-0.554l0.063,0.312v2.064h-2.68v2.035h-1.077l-0.627,0.632l-1.034-1.046v-0.606h-0.667v-1.093l-1.008-1.017
		v-2.696h1.675v-1.637h-7.04v-1.355h-3.2l0.621,1.259l-4.584,0.419c2.509,1.293,4.822,3.121,7.065,4.891
		c1.011,0.797,2.012,1.588,3.02,2.318c0.573,0.414,1.102,1.024,1.612,1.609c0.834,0.961,1.692,1.947,2.597,1.947
		c0.299,0,0.603,0.012,0.908,0.024c0.291,0.013,0.583,0.025,0.87,0.025c0.701,0,1.194-0.082,1.602-0.271l0.231-0.104
		c0.693-0.323,1.126-0.523,1.602-0.549c0.036-0.237,0.139-0.507,0.333-0.808c0.202-0.322,1.749-1.59,2.43-1.59
		c0.536,0.081,0.931,0.166,1.331,0.248c1.288,0.266,2.475,0.522,3.681,0.334c1.856-0.291,2.947,0.479,4.136,1.302
		c0.276,0.188,0.566,0.389,0.884,0.589c0.301,0.19,0.604,0.363,0.9,0.528c0.929,0.529,1.881,1.07,2.503,2.041
		c0.252-0.119,0.493-0.154,0.692-0.154c0.85,0,1.6,0.655,2.092,1.146l1.805,1.803c0.004,0.003,0.009,0.01,0.013,0.012
		c0.394-0.087,0.812,0.07,1.414,0.367l0.465,0.229c0.07,0.031,0.181,0.092,0.305,0.166c0.091,0.05,0.272,0.156,0.411,0.223
		c0.475-0.473,0.846-0.808,1.298-0.808l0.142,0.012c0.284,0.047,0.632,0.138,1.003,0.235c0.257,0.068,0.529,0.141,0.796,0.199
		l0.731-0.926c0.016-0.022,0.051-0.113,0.072-0.168c0.063-0.166,0.142-0.367,0.294-0.553v-0.263h0.543
		c0.134,0.005,0.225,0,0.281-0.003c0.037-0.162,0.076-0.438,0.108-0.67l0.158-1.15l0.938,0.672c0.101,0.074,0.217,0.144,0.335,0.212
		c0.393,0.239,0.871,0.53,1.088,1.019c0.36,0.062,0.617,0.291,0.814,0.554h0.01c0.315-0.419,0.364-0.751,0.465-1.655l0.09-0.752
		l0.73,0.138c0.102,0.022,0.266,0.032,0.456,0.048c0.929,0.074,1.565,0.156,1.918,0.531c0.386,0.423,0.512,0.992,0.338,1.527
		c-0.021,0.057-0.042,0.112-0.066,0.163c0.449,0.278,0.598,0.67,0.459,1.427l1.446,0.111c0.581,0.043,0.753,0.535,0.829,1.367
		l0.974-0.732l3.195,4.334c0.996,1.354,1.028,1.601,0.387,3.285l-0.275,0.723l-1.569-0.789l-0.215,3.053
		c0.017-0.035,0.028-0.078,0.045-0.119c0.27-0.698,0.475-1.174,0.875-1.375c0.444-0.228,1.21-0.031,1.895,0.16
		c0.061,0.015,0.116,0.031,0.171,0.047c0.057-0.082,0.12-0.18,0.158-0.234c0.068-0.1,0.122-0.188,0.165-0.242
		c0.29-0.369,0.754-0.863,1.451-0.863c0.154,0,0.308,0.028,0.466,0.059c0.145,0.025,0.208,0.167,0.628-0.09
		c0.875-0.543,2.595-0.01,3.225,0.877l2.186,3.059c0.472,0.65,0.576,1.593,0.669,2.418c0.027,0.273,0.056,0.529,0.1,0.745
		c0.258,1.353,0.068,1.72-0.575,2.674l-0.175,0.26c-0.084,0.131-0.174,0.298-0.272,0.481c-0.419,0.774-0.992,1.832-2.041,1.832
		l-0.242-0.021l-0.662-0.11l0.142-1.114c0.03-0.209,0.063-0.451,0.048-0.52c-0.009-0.01-0.098-0.101-0.504-0.344l-0.084-0.057
		l-1.37-0.107l1.173,2.058c0.729,1.283-0.224,2.141-0.858,2.71c-0.052,0.048-0.102,0.094-0.153,0.139l0.167-0.014
		c0.586,0,0.849,0.518,1.021,0.896c0.073-0.044,0.146-0.091,0.197-0.123c0.133-0.088,0.25-0.156,0.324-0.191l0.623-0.312
		l0.387,0.788c0.4,0.806,0.568,1.202,0.339,2.23c-0.054,0.243-0.117,0.481-0.218,0.691c0.488,0.101,0.82,0.495,1.065,0.981
		c0.019-0.105,0.042-0.222,0.064-0.344l0.7-3.831l0.747,3.374c0.282,1.262,0.379,1.504,1.234,2.364
		c0.636,0.644,0.89,1.104,1.083,1.718c0.599-0.301,1.268-0.623,1.854-0.623c0.675,0.031,1.351,0.473,1.943,0.864
		c0.052,0.034,0.104,0.069,0.157,0.101l0.45-0.301c1.209-0.811,1.833-0.786,2.972-0.264l0.431,0.197
		c1.479,0.652,1.653,1.027,2.095,2.369l0.357,1.094l-0.988,0.093l2.629,2.163c0.401,0.332,0.538,0.961,0.686,1.812
		c0.028,0.16,0.05,0.297,0.073,0.389l0.847,3.111c0.397,1.463,0.072,2.672-0.272,3.951c-0.052,0.199-0.106,0.404-0.16,0.613
		c0.308,0.047,0.625,0.145,0.902,0.416l5.918,5.693c0.229,0.219,0.506,0.451,0.793,0.689c0.742,0.619,1.584,1.318,2.01,2.141
		c0.182,0.348,0.443,0.758,0.729,1.199c0.73,1.15,1.564,2.451,1.629,3.557l0.152,2.848c0.043,0.738-0.258,1.164-0.604,1.473
		c1.176,0.938,1.506,1.611,2.123,3.344c0.383,1.09,0.395,2.332,0.414,3.541c0.006,0.473,0.006,0.939,0.041,1.371
		c0.01,0.182,0.229,0.551,0.402,0.855c0.354,0.596,0.844,1.439,0.637,2.291l0.068,0.268c0.043,0.158,0.08,0.305,0.113,0.441
		c0.02,0.078,0.035,0.172,0.062,0.248c0.039-0.014,0.086-0.031,0.146-0.057l1.141-0.475l-0.317,2.168
		c0.498,0.037,0.918,0.365,1.289,0.654c0.119,0.094,0.229,0.182,0.342,0.25l1.439,0.912l-0.953,0.215l4.051,2.416l-5.922-1.984
		l-2.877,0.662c-0.019,0.07-0.039,0.143-0.062,0.213c1.502,0.365,2.891,1.379,4.059,2.982c0.295,0.399,0.629,0.798,0.969,1.207
		c1.084,1.289,2.295,2.727,2.371,4.455c0.217,0.021,0.479,0.045,0.645,0.031c0.088-0.268,0.182-0.795,0.23-1.043
		c0.047-0.23,0.084-0.432,0.111-0.541c0.227-0.809,0.949-1.266,1.986-1.266c0.557,0,1.227,0.133,1.795,0.357
		c0.146,0.061,0.273,0.104,0.383,0.145c0.801,0.281,1.156,0.588,1.156,1.686v0.221c0,0.014,0,0.027,0,0.041
		c0.039,0.016,0.086,0.033,0.137,0.057c1.549,0.646,1.904,0.947,2.314,2.176c0.094-0.041,0.174-0.082,0.225-0.109
		c-0.021-0.021-0.031-0.156-0.102-0.436l-0.82-3.428c-0.154-0.635,0.203-1.129,0.605-1.543l-0.311-0.639
		c-0.465,0.531-1.021,1.064-1.703,1.105l-4.514,0.26l3.232-3.613c-0.162-0.35-0.24-0.773-0.182-1.367
		c0.102-0.918,0.359-1.619,0.662-2.436l0.111-0.291l-3.59-2.068l4.475,0.99c-0.004-0.023,0.07-0.365,0.117-0.566
		c0.096-0.414,0.191-0.844,0.459-1.186c0.643-0.809,1.617-0.998,2.545-0.795c0.172-0.584,0.518-1.197,1.281-1.197
		c0.207,0,0.418,0.053,0.637,0.148c0.24,0.117,0.424,0.328,0.588,0.643c0.027-0.131,0.049-0.252,0.049-0.354
		c-0.006-0.271-0.107-0.467-0.213-0.676c-0.139-0.271-0.324-0.637-0.164-1.08c0.104-0.279,0.314-0.471,0.559-0.621
		c-0.191-0.367-0.658-1.318,0.18-1.812l2.842-1.66c0.783-0.467,1.453-1.631,2.045-2.648c0.256-0.447,0.5-0.869,0.744-1.223
		c0.199-0.289,0.271-0.865,0.346-1.42c0.127-0.926,0.268-1.98,1.066-2.537l5.186-3.629c0.318-0.227,0.463-0.498,0.65-0.836
		c0.26-0.486,0.584-1.094,1.441-1.475l6.299-2.834c0.186-0.082,0.416-0.166,0.67-0.256c-0.254-0.379-0.396-0.783-0.414-0.887
		c-0.154-0.791,0.617-1.18,1.076-1.412c0.152-0.074,0.408-0.201,0.471-0.271c0.154-0.51,0.404-1.256,1.287-1.256
		c0.15,0,0.34,0.029,0.588,0.07l1.879,0.271l-0.727,0.674c0.068,0.064,0.139,0.139,0.195,0.229c0.072,0.109,0.123,0.227,0.152,0.346
		c0.197-0.039,0.4-0.072,0.607-0.111c1.043-0.188,2.125-0.375,3.002-0.75c1.148-0.486,1.537-1.355,2.076-2.559
		c0.117-0.266,0.242-0.545,0.377-0.822l0.311-0.648c0.666-1.416,1.238-2.637,2.574-3.785c0.328-0.281,0.605-1.748,0.738-2.453
		c0.084-0.426,0.154-0.803,0.232-1.059l1.713-5.91c0.27-0.924,1.121-1.256,1.809-1.521c0.393-0.15,0.797-0.309,0.922-0.506
		l3.07-4.809l0.414-0.014c0.283,0,0.754,0.157,2.701,1.053l-0.285-1.015c-0.189-0.702,0.449-1.079,0.869-1.33
		c0.117-0.065,0.293-0.173,0.383-0.247c0.043-0.251,0.107-0.592,0.184-0.979c0.154-0.776,0.566-2.837,0.291-3.247
		c-0.062-0.059-0.18-0.14-0.303-0.232l-0.084-0.03l-2.104,1.218L252.686,229.035z"/>
	<polygon fill="#EBE9E7" points="133.886,205.324 133.886,205.324 133.886,205.33 	"/>
	<path fill="#EBE9E7" d="M260.805,329.674c0-0.031-0.01-0.057-0.012-0.078l-0.164,0.006c-0.658,0-0.992-0.393-1.156-0.721
		c-0.08-0.146-0.154-0.342-0.234-0.545c-0.104-0.262-0.318-0.818-0.471-0.904c-0.236-0.07-0.523-0.193-0.834-0.32
		c-0.514-0.209-1.148-0.479-1.535-0.479c-0.438,0.023-0.438,0.023-0.674,0.439c-0.068,0.121-0.146,0.264-0.244,0.42l-0.201,0.338
		c-0.286,0.484-3.014,0.889-4.602,1.049c0.051-0.617,0.338-0.966,1.012-1.643c0.064-0.082,0.117-0.229,0.148-0.365
		c-2.096,0.248-3.262,0.186-5.25-0.252l-1.086-0.238l1.902-2.479l-1.922-0.709l0.492-0.742c0.07-0.105,0.129-0.209,0.188-0.303
		c0.035-0.068,0.074-0.141,0.115-0.205l-0.984,0.312c-0.393,0-0.648-0.24-0.832-0.436c-0.023,0.016-0.043,0.034-0.068,0.051
		c-0.207,0.149-0.473,0.338-0.812,0.389c-0.889,0.129-1.674-0.082-2.424-0.285c-0.803-0.213-1.559-0.385-2.229-0.168
		c-2.033,0.652-3.479,1.117-5.117,2.33c-1.045,0.771-2.906,0.773-4.555,0.781c-0.545,0-1.041,0-1.418,0.037
		c-1.729,0.158-2.871,0.399-4.369,0.92l-3.385,1.178c0.029,0.049,0.049,0.496,0.059,0.713c0.006,0.195,0.01,0.387,0.006,0.537
		c-0.047,0.695-0.377,1.195-0.646,1.602c-0.168,0.252-0.311,0.467-0.33,0.66c0.07,0.168,0.797,1.352,1.025,1.574
		c0.092,0.068,0.498,0.199,0.768,0.291c0.848,0.275,1.646,0.539,1.83,1.24l0.496,1.883l2.465-0.994
		c0.812-0.332,1.717,0.074,2.4,0.453c0.162,0.093,0.324,0.184,0.484,0.254c0.154-0.014,0.572-0.201,0.879-0.342
		c0.434-0.191,0.842-0.379,1.229-0.4l0.252-0.01c0.684,0,1.385,0.15,2.062,0.297c0.338,0.072,0.662,0.146,0.965,0.191h0.014
		c0.441,0,0.902-0.422,1.318-0.795c0.188-0.176,0.377-0.344,0.559-0.486c0.35-0.271,0.746-0.402,1.18-0.402
		c0.398,0,0.768,0.107,1.121,0.219c0.16,0.047,0.326,0.096,0.5,0.135c0.162,0.037,0.359,0.062,0.568,0.098
		c0.725,0.104,1.633,0.23,2.158,0.803l1.842,2c0.133-0.059,0.281-0.117,0.438-0.186c0.682-0.273,2.492-1.008,2.74-1.4l0.295-2.869
		c0.066-0.588,0.664-0.895,1.91-1.406c0.131-0.055,0.24-0.096,0.291-0.121c0.65-0.328,1.217-0.545,1.77-0.684
		c-0.004-0.027-0.004-0.047-0.008-0.074c1.227,0.005,3.217,0.008,3.264,0.012l0.371,0.033c1.449,0.123,2.654,0.729,3.818,1.309
		c0.225,0.115,0.457,0.229,0.693,0.344c0.203-0.096,0.678-0.514,0.885-0.699c0.16-0.145,0.303-0.262,0.4-0.338
		c0.148-0.109,0.279-0.199,0.396-0.273c0.106-0.074,0.244-0.168,0.285-0.209C260.822,330.006,260.836,329.918,260.805,329.674z"/>
	<path fill="#EBE9E7" d="M263.535,323.773c0.291,0,0.648-0.145,1.029-0.297c0.479-0.189,1.023-0.404,1.617-0.404l4.688,0.254
		c1.17,0.059,1.32,0.006,2.566-0.768l0.258-0.146c0.311-0.18,0.381-0.229,0.449-0.369c0.027-0.07,0.061-0.172,0.098-0.285
		c0.182-0.547,0.391-1.162,0.879-1.408c0.223-0.107,0.424-0.223,0.611-0.328c0.703-0.395,1.334-0.723,2.186-0.607l0.07-0.438
		l-0.008-0.605l-0.307-0.262h-2.375v-0.346h-0.336v-0.342h-0.332v-0.336h-0.338v-0.754l-1.328-1.338h0.658v-0.959h-0.338V311.6
		h0.338v-1.352h0.334v-0.342h0.336v-0.338h0.408l0.262-0.312v-0.707h0.336v-0.678h0.334v-0.678h0.742l0.67-0.68h0.602v-0.34h0.666
		h0.338v-0.338v-0.342h1.006v-0.338h0.336v-0.266l0.332-0.385v-0.631l0.34-0.389v-1.049h0.336V302.1h0.668v-0.676h0.67v-0.342h0.336
		v-0.338h0.336v-1.021h0.336v-0.338h1.004v-1.354h0.338v-0.678h0.332v-0.338h0.336v-0.342h0.334v-0.309h0.336v-0.711v-0.34h0.668
		v-1.014h0.336v-0.336h0.34v-0.285h-0.34v-1.355h-0.67v-3.111h0.67v-0.338h0.674h0.668v-0.322v-1.717h0.338v-0.262l0.338-0.383
		v-0.707h0.334v-0.68h0.334v-0.285h-0.334v-0.338h-0.334v-0.676h-1.316l0.979-1.045v-1.727h0.338v-0.961h-1.678v-0.342h-0.339
		v-1.695h-1.341v-1.016v-0.072l-0.334-0.338v-0.607h-0.645h-1.049l-0.598,0.65v2.738h-1.34v1.361h-0.334v0.334h-0.338v0.342h-1.008
		v0.338h-1.732v-0.338h-0.277v0.338h-0.668v1.338l-1.732-1.75v-0.602l-2.879-0.037l-0.896-0.305h-4.979
		c0.156,0.59,0.246,1.193,0.324,1.754l0.096,0.619c0.033,0.211,0.059,0.467,0.08,0.742c0.037,0.51,0.11,1.365,0.36,1.564
		l0.255,0.205c0.863,0.684,1.438,1.135,1.865,2.449c0.041,0.133,0.078,0.258,0.107,0.375c0.115,0.408,0.135,0.428,0.281,0.504
		l0.18,0.08c0.309,0.129,0.771,0.324,0.967,0.924c0.093,0.281,0.174,0.639,0.266,1.014c0.15,0.648,0.342,1.455,0.613,1.803
		c0.091,0.107,0.51,0.305,0.752,0.422c0.689,0.334,1.4,0.674,1.574,1.371l1.939,7.812l-2.451-4.328l-0.711,1.271l-0.145-0.434
		l-0.312,0.621c0.076,1.037,0.271,2.09,0.473,3.184c0.104,0.562,0.203,1.117,0.291,1.672c0.119,0.75-0.379,1.418-0.861,2.062
		c-0.234,0.316-0.549,0.744-0.584,0.951l-1.084,7.594c-0.088,0.664-0.793,0.949-2.125,1.428c-0.303,0.113-0.766,0.279-0.879,0.354
		c-0.584,0.441-1.146,1.207-1.678,1.938c-0.277,0.381-0.551,0.756-0.822,1.076c-0.457,0.547-1.113,0.65-1.641,0.74
		c-0.203,0.031-0.59,0.094-0.646,0.168c-0.164,0.207-0.393,0.439-0.637,0.699c-0.471,0.5-1.354,1.428-1.271,1.85
		c0.127,0.352,1.438,1.123,2.002,1.17L263.535,323.773z"/>
	<path fill="#EBE9E7" d="M313.566,391.307v0.711l0.279,0.309h0.391v0.342h0.307l0.023,0.461l0.178,0.191
		c0.109,0.129,0.221,0.266,0.326,0.407c0.006-0.005,0.01-0.013,0.012-0.019c0.23-0.334,0.596-0.514,1.029-0.514
		c0.822,0,1.227,0.9,2.021,3.625c0.091,0.289,0.152,0.521,0.197,0.645c0.176,0.479,0.192,0.986,0.209,1.436
		c0.008,0.148,0.015,0.297,0.021,0.439c0.068,0.867-0.16,1.26-0.619,1.449c0.465,0.695,1.07,1.361,1.854,2.047h0.439l0.021,0.338
		h0.688v0.342h0.336v0.506c0.482,0.35,0.969,0.689,1.457,1.031c0.621,0.438,1.244,0.865,1.85,1.316c0.004,0,0.127,0.057,0.506,0.057
		c0.668,0,1.592-0.162,2.334-0.291c0.465-0.08,0.865-0.148,1.119-0.17c0.1-0.01,0.205-0.012,0.328-0.012
		c0.02,0,1.562,0.035,2.734,0.363l5.039-69.602l-0.004-1.008l0.135-0.746l0.357-4.992l-1.357-0.031l-0.895-0.307h-5.922l-3.09-0.344
		l-3.615,0.006l-4.047-0.408v-3.109l-1.119-0.229l-2.906,0.016v-3.031l0.521-0.531l-2.463-1.242h2.947v-0.616h-6.967l-0.381-0.343
		h-5.002l-0.033,1.213l-0.301,0.908v1.271h-3.021l-0.037,5.623l-0.492,1.5h-5.738c0.205,0.236,0.387,0.463,0.555,0.682
		c0.445,0.598,0.938,1.197,1.43,1.797c1.076,1.31,2.184,2.664,2.984,4.137l3.99,7.346c2.281,4.188,3.346,9.303,4.279,13.812
		c0.049,0.232,0.123,0.479,0.199,0.744c0.229,0.777,0.479,1.656,0.324,2.42l-0.828,4.002c-0.365,1.779-2.674,3.041-4.355,3.961
		c-0.072,0.039-0.145,0.082-0.211,0.115l1.154,1.516c0.404,0.529,0.336,1.123,0.281,1.559c-0.02,0.195-0.047,0.402-0.014,0.51
		c0.049,0.137,0.271,0.379,0.457,0.57c0.354,0.37,0.756,0.791,0.84,1.357c0.09,0.6,0.002,1.041-0.27,1.355
		c-0.189,0.227-0.662,0.479-1.262,0.385c0.064,0.184,0.196,0.394,0.395,0.693c0.1,0.156,0.199,0.312,0.295,0.473
		c0.881,1.508,1.764,3.018,2.643,4.525l2.398,4.109c0.018-0.01,0.08-0.023,0.135-0.039c0.154-0.031,0.354-0.075,0.574-0.075
		c0.436,0,0.818,0.165,1.148,0.495c0.061,0.062,0.16,0.143,0.272,0.236c0.782,0.66,1.334,1.176,1.259,1.816
		c-0.012,0.118-0.041,0.273-0.076,0.445c-0.035,0.199-0.121,0.613-0.088,0.742l1.198,1.303L313.566,391.307L313.566,391.307z"/>
	<rect x="288.76" y="277.402" fill="#EBE9E7" width="0.277" height="0.96"/>
	<path fill="#EBE9E7" d="M185.252,285.332c0.018,0.02,0.035,0.033,0.051,0.053c0.012-0.215,0.082-0.41,0.148-0.547"/>
	<path fill="#EBE9E7" d="M121.546,2.166l0.291,10.349h-0.761l-0.934,3.79v4.834l1.075,2.172h14.317l5.571-0.404l-2.188,10.346v1.318
		l-1.164,0.785l-0.146,0.295l0.288,1.455l0.013,1.523h-4.357v4.411h-1.339v8.423h0.977l5.703-0.387l0.383,10.93l-9.409,0.342v6.072
		h14.07l0.346,25.127l-0.662,4.727l0.314,1.578l0.36,18.145h-1.881l-0.593-0.301l-0.25,0.254l-2.358,0.397l-1.8-0.366l-2.308-0.331
		l-7.644-0.332l-5.719-1.08l-0.929,0.47v16.863l0.314,2.488l2.944,5.625l-1.296,0.656l-1.626,1.102v8.415h0.479l0.669-0.342h2.483
		v-0.335h1.345v-0.342h2.083l0.29-0.293l0.623,0.635l5.631,0.035l0.9,0.3l0.747,0.028l2.254,0.65h2.582l0.336,7.805h12.451
		l0.332-0.342h5.485l0.672,0.342h1.128l1.004,1.014h0.672l0.538,0.545l0.719,0.473h0.362l1.526,1.16l0.95,0.467v4.252l1.678,2.035
		v6.188l-1.211,2.365l-0.466,0.521l-0.034,0.225l-1.007,3.052l-0.97,3.272v0.415l2.618,5.622l0.594,2.365h-0.925l-0.396,2.014
		l-9.264,0.335v5.732h6.369v4.751h9.721v9.493h7.711v3.735h4.692v4.748h5.028v4.745h7.985v-4.745h6.427v2.715h0.692l0.33-0.342
		h1.992v0.342h2.631v-0.314v-0.367h0.694h1.849l0.672-0.34h1.195v0.34h0.266l0.543,0.555l0.867-0.883v1.35h0.334l0.072,1.012h0.604
		v0.679h0.332v0.343h0.336v0.75l0.334,0.341v0.338l0.338,0.342v1.959h0.276v-0.679h0.338v-0.338h1.73v1.768l0.651,0.66h-0.651v1.979
		h5.696v6.787h8.185l0.668,0.338h2.826v-5.771h1.006v-4.332l0.672-0.676v-0.416h0.33v-0.338h0.338v-0.338h0.746l0.26-0.268v-0.416
		h0.339v-0.334h0.743l0.263-0.267v-0.413h0.334v-0.341h0.744l0.598-0.602v-0.417h3.199l-0.168-0.848l-0.019-3.84h-1.312l1.026-1.049
		l-1.026-1.045h1.987v-10.516h5.414v2.035h3.828l0.478,0.241v-3.312l-0.994-0.999h0.994v-1.621l0.336-0.385v-1.646l0.334-0.388
		v-1.046h0.334v-0.678h0.41l0.26-0.314v-0.704h0.341v-0.68h0.334v-0.675h0.409l0.263-0.312v-0.298l0.33-0.381v-0.707h0.338v-5.354
		l0.336-0.385v-2.034v-0.37h0.697h11.016l0.384,0.342h8.071v3.178l-1.205,0.609h-1.139v0.338h-0.339v0.68h-0.338v0.339h-0.334v0.964
		h0.334v1.693h2.687v6.445h1.679v8.479h1.674l-0.032,4.661l-0.306,0.907v0.536h8.051v0.338h5.024v3.928l-0.334,0.68v7.922
		l-0.334,0.389v4.097v0.802l1.646-0.56l0.664,0.225l0.312-0.948v-0.225l0.351-1.835l-0.011-1.784l2.736,0.691v0.863h0.137
		l1.127,0.68h1.359v-1.283l0.744-0.752h0.336l0.338-0.34h1.317v0.34h0.338v0.418l0.308,0.26h0.697v0.337h0.336v0.341h0.334v0.68
		h0.688l0.336-0.341h1.323v0.755l0.336,0.262v0.078v0.264h1.003v0.751l0.267,0.263h0.403v0.342h0.334v0.338h0.338v0.754l0.261,0.267
		h0.412v0.337h3.297v-5.426h0.334v-1.356h3.688v-2.038h1.991l0.382,0.342h6.68v-0.342h8.361l0.381,0.342h0.707l0.61-6.482
		l-0.006-5.363l0.338-5.467l0.34-3.086l0.332-4.387l-0.004-2.66l0.338-4.126l-0.002-4.013l0.338-4.465l1.003-19.654l1.682-28.832
		l1.673-32.219l0.34-2.433l-0.004-3.972l1.676-29.547l0.341-4.091l0.331-8.11l1.005-17.981l0.336-7.122l0.334-4.092l1.478-25.607
		l-73.213-3.582c-14.33-0.701-28.912-1.039-43.009-1.361l-7.457-0.172c-14.729-0.352-34.116-0.765-53.446-0.873
		c-4.042-0.023-8.085-0.051-12.127-0.078C158.568,2.06,150.499,2,142.435,2c-7.021,0-13.257,0.047-19.068,0.142L121.546,2.166z"/>
	<path fill="#EBE9E7" d="M83.209,189.225v-1.512l2.845,1.436l2.521-0.297v-1.383h6.09v1.355h8.474l-0.94,1.912l-0.494,0.247v2.306
		h-1.677v0.699l0.308,0.26h0.696v1.021h0.616v-1.021h1.007v-1.355h1.403l-0.334-1.014h0.788l-0.336-1.697h1.498v-4.354H98.66
		l-3.716,0.422v-10.289l11.072-0.363h10.415l0.335,9.157h2.592l1.43-0.338h6.697l0.354,7.184l0.365,0.362l0.741,0.254h0.387
		l0.671,0.338l1.058,0.037l1.009,0.342l1.902,0.311l4.943-0.01v1.014h2.013v0.342h0.977l1.54-0.323l2.176-0.019v1.021h1.34v0.535
		l0.668,0.245l1.677,1.017l1.315,0.913h0.306v-0.271l1.007,0.342v-3.117h5.391l8.812-0.32l0.266-1.358l0.475-0.479l-0.173-0.697
		l-2.702-5.936l0.03-0.882l1.003-3.391l0.979-2.964v-0.518v-0.002l0.792-0.802l0.88-1.788v-5.343l-1.673-2.03v-3.892l-0.286-0.145
		l-1.364-0.942h-0.212l-1.407-1.017h-0.681l-1.004-1.017h-0.882l-0.671-0.342h-4.575l-0.335,0.342h-14.366l-0.335-7.801
		l-1.534-0.029l-2.252-0.65l-0.795-0.038l-0.897-0.3h-8.241v0.338h-3.549l-0.421,0.213l-0.458,0.467h-1.994v-10.922l2.443-1.631
		l-0.358-0.727l-2.083-3.963l-0.332-2.711l-0.006-18.771h1.412l1.324-1.336v0.9l0.669-0.34v0.897l4.797,0.91l7.61,0.326l2.416,0.344
		l1.587,0.319l1.667-0.278l0.381-0.389h0.789l0.8,0.342l-0.323-16.574l-0.345-1.695l0.687-4.863l-0.005-1.938l-0.324-21.677h-14.089
		v-8.849l9.36-0.342l-0.281-8.06l-4.313,0.29h-2.419V41.629h1.339v-4.41h4.354l-0.365-1.77l0.525-1.061l0.85-0.572l0.015-0.789
		l1.817-8.578l-3.764,0.273l-15.232,0.003l-1.609-3.253l0.022-5.428l1.052-4.26l0.586-0.588l-0.258-9.012
		c-4.988,0.075-9.976,0.135-14.971,0.197C95.267,2.5,85.099,2.621,74.966,2.86c-3.378,0.082-6.749,0.176-10.107,0.285l-62.85,2.07
		l5.995,145.339c0.193,4.708,0.375,9.417,0.555,14.124c0.349,9.117,0.71,18.539,1.169,27.814l25.966-4.053
		c3.229-0.508,6.577-0.742,10.531-0.742c3.438,0,6.793,0.178,10.346,0.363l2.493,0.125c1.252,0,2.646-0.687,3.996-1.351
		c0.547-0.27,1.084-0.532,1.587-0.742c0.311-0.125,1.018-0.66,1.642-1.129c1.841-1.387,2.917-2.098,3.684-1.75L83.209,189.225z"/>
	<path fill="#EBE9E7" d="M342.01,257.672l0.668-8.842l0.338-9.128l0.344-2.126l-0.008-4.266h-1.271l-0.381-0.338h-6.343v0.338
		h-8.694l-0.354-0.338v3.381l-1.367-1.348h-2.32v1.355h-0.336v5.432h-6.092v-0.341h-0.336V240.7l-0.262-0.266h-0.406v-0.342h-0.336
		v-0.342h-0.334v-0.676h-0.6l-0.742-0.751V237.7l-0.018,0.019h-0.598v0.342h-1.73v-0.342h-0.338v-0.68h-0.33v-0.338h-0.338v-0.416
		l-0.305-0.26h-0.701l-0.02-0.342h-0.264v2.035h-3.334l-0.457-0.463l-0.426-0.217h-0.461l-0.74-0.751l-0.297,1.54l0.018,0.316
		l-0.334,1.018v0.854l-1.73,1.755v-1.536l-0.311-0.106l-2.012,0.642h-1.033v-1.073l-3.385-0.285h-6.477l-0.672-0.338h-2.562
		l-0.26,0.312v0.971l-0.336,0.36h0.336v1.753h-1.006v0.335h-1.006v0.359l0.951,0.96v-0.018h0.67v-0.338h2.066v0.338h1.006v1.75
		h-0.338v0.342h-0.33v0.678h-0.672v0.336h-0.334v0.266l-0.338,0.387v0.312h1.006v0.338h0.668v0.68h0.656l-0.365,0.369l0.047,0.043
		v1.34h-1.006v0.338l-0.668,0.02v1.336h-0.338v1.711l0.994,1.002h-1.738l-0.262,0.283v0.682h1.344v1.014h0.334v3.109h-0.334v1.301
		h0.668v0.342h0.338v1.768l0.258,0.264h1.057l-0.525,0.539l0.525,0.535h-1.002l0.018,0.021v0.605h0.34v3.389h1.338v0.416
		l0.266,0.262h0.414v0.414l0.994,1h-0.994v0.959h0.33v1.016h0.338v0.684h0.334v1.359h0.332v0.412l0.268,0.262h0.072v0.072l0.65,0.66
		h-0.65v1.303h0.338v0.34h1.314l-1.314,1.385v0.027v1.018h-0.338v0.961h0.979l-0.979,1.018h0.338v0.338h0.332v0.342h0.334v0.338
		h0.336v1.047v1.045h-0.336v0.678h-0.666v0.342h-0.338v0.336h-0.34v2.375h-0.332v0.676h-0.334v1.34l-1.012-1.018v0.016h-0.668v0.289
		h0.668v1.355h0.676v0.334h1.32l-1.32,1.391v1.041h-0.332v0.344h-0.344v0.338h-0.336v1.018h-0.666v0.338h-0.334v1.016h-0.338v0.344
		h-0.339v0.336h-0.329v0.68h-0.34v1.359h-1.006v0.338h-0.33v1.018h-0.34v0.338h-0.336v0.342h-0.67v0.678h-0.67v0.338h-0.336v0.264
		l-0.334,0.39v0.632l-0.334,0.387v1.045h-0.338v0.338h-1.006v0.34h-0.334v0.338h-0.676v0.344h-1.336v0.68h-0.668v0.68h-0.338v0.677
		h-0.408l-0.26,0.313v0.703h-0.34v0.338h-0.334v1.361h-0.338v1.297h0.338v0.676h0.334v1.021h0.34v0.341h0.33v0.338h0.615v-0.998
		l1.037,0.998h1.023v0.344h0.676v2.762h-0.395l-0.058,0.382c0.248,0.087,0.502,0.165,0.754,0.25
		c0.854,0.272,1.733,0.558,2.569,1.046c0.988,0.574,5.899,4.26,9.205,7.622l1.067,0.151l0.545-0.006v-1.34l1.369,1.34h3.183
		l0.144-0.424v-6.701h3.019l0.032-0.197l0.3-0.902v-2.289h7.024l0.377,0.338h7.735v2.646l0.479,0.238l-1.483,1.51v1.031h1.647
		l2.377,0.467v2.992l2.72,0.275l3.621-0.005l3.096,0.347l6.067-0.004l1.009,0.338h1.123l0.08-1.117l-0.005-1.227l0.662-7.914
		l0.006-5.314l0.345-2.473l-0.006-2.615l0.334-7.828l0.676-7.834l2.146-22.352l0.201-2.943l-0.005-1.438L342.01,257.672z"/>
	<path fill="#EBE9E7" d="M264.686,275.648c0.461,0.84,0.445,1.299,0.236,1.865c0.562,0.223,1.025,0.621,1.381,1.189l5.889,0.037
		l0.896,0.305h3.939v0.676h2.627v-0.34h0.336v-0.336h0.238l-0.668-1.357h2.104v-0.623h-0.334v-1.748h0.334v-1.021h1.002v-0.338
		h2.402v0.338h1.678v1.434l0.309,0.262h1.336l-0.021-0.018v-0.604h-0.338v-0.682h-0.334v-1.018h-0.336v-1.355h-0.334v-0.75
		l-0.645-0.604h-1.033v-3.055h-1.332l0.998-1.002v-1.113l-0.621-0.625l0.285-0.342l-0.018-1.326l-0.988,0.998v-2.43l-1.324-1.337
		h1.324v-1.698h0.334v-0.281h-0.668v-1.018h-1.008v-0.68H282v-3.109h1.008v-0.674h0.336v-3.053h0.334v-0.285h-1.01v-1.697h-2.271
		h-0.047v-0.367l-0.156,0.162l-0.539-0.549v-1.018l-0.988-0.998h1.326v-0.338h1.004v-0.342h0.338l0.021-0.281h-0.695v-3.108h1.01
		v-0.339h0.67v-0.943l0.332-0.387v-0.97l0.34-0.385v-0.705h4.213l0.672,0.335h6.205l3.324,0.279v-4.611l0.334-0.389v-7.624
		l0.334-0.68v-2.179h-5.023v-0.342h-8.047l0.035-2.285l0.299-0.906v-2.912h-1.676v-8.479H282v-6.442h-4.004l1.324-1.387v-0.309
		h-0.338v-1.021h-0.33v-0.676h-0.986l1.316-1.384v-0.71h0.338v-0.338h0.334v-0.676h0.336v-0.342l2.346-0.069v-0.892h-7.301
		l-0.381-0.34h-9.695v1.622l-0.332,0.386v6.135h-0.41l-0.262,0.312v0.291l-0.336,0.385v0.707h-0.334v0.677h-0.332v0.679h-0.41
		l-0.264,0.314v0.703h-0.334v0.68h-0.338v0.267l-0.338,0.384v1.646l-0.33,0.389v0.312h0.33v1.428l0.996,1.001h-0.996v2.035h-0.33
		v2.035h-1.533l-0.676-0.339h-5.225v-2.033h-2.295v10.51h-0.668v4.383l0.125,0.613l1.105-0.84l0.742-0.725l1.861-1.078
		c-0.117-0.219-0.193-0.465-0.174-0.741l0.521-7.95l1.393-0.031l0.307,2.877c0.027-0.004,0.059-0.006,0.09-0.006
		c0.164-0.017,0.342-0.032,0.547-0.032h0.965l-0.305,0.929c-0.057,0.174-0.133,0.352-0.211,0.535
		c-0.086,0.197-0.236,0.533-0.217,0.64l0.154,0.122c0.973,0.832,1.059,1.108,0.801,2.453c-0.102,0.521,0.506,0.999,1.369,1.629
		c0.279,0.203,0.559,0.404,0.787,0.604l0.803,0.697l-0.943,0.47c-0.719,0.363-0.719,0.363-0.521,1.283
		c0.057,0.27,0.127,0.576,0.18,0.93c0.229,1.587,0.466,3.174,0.703,4.758c0.062,0.101,0.519,0.389,0.795,0.562
		c0.64,0.402,1.358,0.859,1.646,1.572c0.603,1.512,0.162,2.439-0.346,3.513c-0.101,0.213-0.207,0.444-0.316,0.698l-0.979,2.285
		l-0.396-2.803c-0.514,0.273-0.793,0.537-1.217,1.172l-0.681,1.041l-0.524-1.132c-0.101-0.201-0.166-0.251-0.166-0.254
		c-0.069,0.079-0.517,0.661-0.721,1.268l-0.16,0.476l3.664,1.281h-4.093l-0.051,0.148c0.192,0.436,0.366,0.752,0.681,0.658
		l1.061-0.322l-0.165,1.109c-0.304,1.986-0.259,2.297,0.663,4.146c0.066,0.129,0.138,0.254,0.209,0.379
		c0.277,0.486,0.621,1.099,0.529,1.84l-0.022,0.191c-0.011,0.072-0.019,0.15-0.027,0.223c0.07,0.008,0.146,0.021,0.222,0.033
		l1.156,0.201l-0.447,0.863c-0.399,0.758-0.937,0.85-1.228,0.826l-0.293,0.371l-0.401,1.752l-1.746-0.58
		c-0.56,0.469-1.053,1.059-1.604,1.729c-0.274,0.332-0.558,0.67-0.856,1.012l-4.541,5.09c0.117,0.234,0.283,0.529,0.356,0.652
		l0.125,0.223c0.353,0.729-0.379,1.303-0.813,1.65l-0.127,0.104c-0.129,0.121-0.328,0.275-0.552,0.447
		c-0.271,0.217-0.879,0.682-1.063,0.961c1.078,1.34,0.646,2.195,0.144,3.178c-0.106,0.229-0.237,0.48-0.366,0.775
		c-0.418,0.951-1.295,1.086-1.916,1.105c0.797,1.615,1.455,3.199,0.848,5.287c-0.073,0.248-0.125,0.5-0.18,0.748
		c-0.17,0.832-0.396,1.934-1.431,2.373c1.308,0.494,1.054,1.625,0.896,2.324c-0.039,0.186-0.084,0.383-0.116,0.6
		c-0.087,0.617,0.131,1.197,0.377,1.873c0.071,0.199,0.144,0.398,0.215,0.605c0.42,1.264,0.021,2.742-0.332,4.047
		c-0.108,0.408-0.217,0.799-0.283,1.158l-0.793,4.023c-0.028,0.143-0.047,0.324-0.063,0.523c-0.06,0.553-0.125,1.187-0.401,1.637
		c-0.164,0.264-2.002,1.762-2.614,1.762h-0.229l-2.663-1.965v0.003c-0.01,0-0.085-0.03-0.291-0.03c-0.551,0-1.34,0.207-1.979,0.369
		c-0.355,0.092-0.664,0.168-0.887,0.204c-1.271,0.204-2.013-0.073-3.027-0.448l-0.359-0.131c-0.203,0.125-0.514,1.137-0.646,1.562
		c-0.096,0.32-0.184,0.613-0.275,0.836c-0.271,0.654-0.625,0.982-0.859,1.201c-0.049,0.045-0.109,0.104-0.137,0.137
		c0.018,0,0.057,0.162,0.25,0.554c0.82,1.673-0.453,3.123-0.934,3.673c-0.062,0.064-0.129,0.159-0.201,0.26
		c-0.334,0.453-0.756,1.02-1.373,1.119l-0.211,0.032c-0.143,0.022-0.303,0.052-0.35,0.065c0.035,0.002-0.062,0.246-0.102,0.334
		c-0.064,0.17-0.131,0.308-0.189,0.429c-0.033,0.086-0.082,0.187-0.104,0.245c0.019,0.009,0.06,0.068,0.147,0.166
		c0.087,0.093,0.197,0.246,0.324,0.423c0.156,0.214,0.479,0.657,0.625,0.752c0-0.005,0.006-0.005,0.017-0.005
		c0.022,0,0.067,0.005,0.116,0.005c0.582,0,1.218-0.726,1.685-1.257l0.205-0.234c0.551-0.602,1.16-0.882,1.928-0.882
		c0.395,0,0.777,0.067,1.188,0.146c0.252,0.049,0.521,0.101,0.809,0.133l0.601,0.08c0.257,0.039,0.449,0.072,0.617,0.072
		c0.149,0,0.254,0,0.776-0.688c0.808-1.055,1.312-1.551,2.427-1.551c0.237,0,0.524,0.021,0.877,0.047l0.512,0.039
		c-0.034-0.02,0.017-0.123,0.045-0.203c0.058-0.118,0.115-0.243,0.183-0.357c0.34-0.604,0.824-0.797,1.248-0.975l0.262-0.111
		c0.605-0.275,1.236-0.412,1.882-0.412c1.991,0,3.743,1.323,5.224,2.562c0.493,0.016,1.375-0.73,1.78-1.1
		c0.17-0.146,0.312-0.275,0.416-0.355c0.019-0.036,0.041-0.234-0.037-0.488c-0.079-0.248-0.217-0.393-0.267-0.41l-0.348-1.354
		c0.104-0.041,0.26-0.084,0.432-0.131c0.171-0.049,0.496-0.137,0.658-0.219l0.601-2.42c0.063-0.27,0.125-0.539,0.188-0.806
		c0.254-1.112,0.517-2.263,1.154-3.329c0.825-1.385,1.235-2.369,1.682-4.057c0.231-0.887,0.467-1.773,0.701-2.658
		c-0.287-0.162-0.57-0.363-0.74-0.754c-0.469-1.084,0.154-2.814,0.838-4.502l0.138-0.324c0.545-1.396,1.42-2.254,2.343-3.156
		l0.476-0.467c0.409-0.41,0.362-1.652,0.327-2.564c-0.016-0.398-0.03-0.779-0.016-1.084c0.038-0.834,0.78-1.74,1.825-2.93
		c0.269-0.312,0.513-0.584,0.657-0.787l0.64-0.893L264.686,275.648z"/>
	<rect x="288.76" y="277.402" fill="#EBE9E7" width="0.277" height="0.96"/>
	<path fill="#EBE9E7" d="M185.252,285.332c0.018,0.02,0.035,0.033,0.051,0.053c0.012-0.215,0.082-0.41,0.148-0.547"/>
	<path fill="#EBE9E7" d="M252.686,229.035l-1.602,1.224h-0.279l-0.334,0.337h-2.945v0.342h-0.738l-0.6,0.604v0.414h-0.336v0.342
		h-0.746l-0.262,0.262v0.414h-0.334v0.338h-0.744l-0.26,0.263v0.417h-0.338v0.338h-0.332v0.34h-0.672v5.086h-1.008v5.77h-4.549
		l-0.67-0.34h-9.248v-6.784h-5.699v-3.395h-2.346v-2.785l-0.334-0.338v-0.342l-0.27-0.266h-0.408v-0.338H217.3l-0.067-0.679
		l-0.43-0.868l-0.845,0.858v-1.347h-0.332v-0.68h-1.006v-0.071l-0.144,0.071H213v1.021h-1.324l-0.336-0.342h-3.764l-0.014-0.338
		l-0.338,0.338h-2.664v-2.713h-3.629v4.748h-10.787v-4.748h-5.029v-4.746h-4.691v-3.734h-7.711v-9.497h-9.718v-4.747h-6.371v-7.123
		h-3.296v3.666l-1.007-0.338v0.062h-2.066v-0.334h-0.206l-1.527-1.163l-1.549-0.935l-1.41-0.479v-0.14h-1.344v-1.015h-0.639
		l-1.542,0.322l-2.513,0.016v-0.338h-2.007v-1.021h-3.663l-2.127-0.351l-1.001-0.325h-1.06l-0.669-0.341l-0.389-0.037l-1.164-0.393
		l-0.98-0.984l-0.313-6.387h-5.286l-1.425,0.338h-4.027l-0.336-9.156h-9.047l-9.694,0.316v7.344l2.243-0.25l8.483-0.008v7.182
		h-1.188l0.335,1.695h-0.554l0.063,0.312v2.064h-2.68v2.035h-1.077l-0.627,0.632l-1.034-1.046v-0.606h-0.667v-1.093l-1.008-1.017
		v-2.696h1.675v-1.637h-7.04v-1.355h-3.2l0.621,1.259l-4.584,0.419c2.509,1.293,4.822,3.121,7.065,4.891
		c1.011,0.797,2.012,1.588,3.02,2.318c0.573,0.414,1.102,1.024,1.612,1.609c0.834,0.961,1.692,1.947,2.597,1.947
		c0.299,0,0.603,0.012,0.908,0.024c0.291,0.013,0.583,0.025,0.87,0.025c0.701,0,1.194-0.082,1.602-0.271l0.231-0.104
		c0.693-0.323,1.126-0.523,1.602-0.549c0.036-0.237,0.139-0.507,0.333-0.808c0.202-0.322,1.749-1.59,2.43-1.59
		c0.536,0.081,0.931,0.166,1.331,0.248c1.288,0.266,2.475,0.522,3.681,0.334c1.856-0.291,2.947,0.479,4.136,1.302
		c0.276,0.188,0.566,0.389,0.884,0.589c0.301,0.19,0.604,0.363,0.9,0.528c0.929,0.529,1.881,1.07,2.503,2.041
		c0.252-0.119,0.493-0.154,0.692-0.154c0.85,0,1.6,0.655,2.092,1.146l1.805,1.803c0.004,0.003,0.009,0.01,0.013,0.012
		c0.394-0.087,0.812,0.07,1.414,0.367l0.465,0.229c0.07,0.031,0.181,0.092,0.305,0.166c0.091,0.05,0.272,0.156,0.411,0.223
		c0.475-0.473,0.846-0.808,1.298-0.808l0.142,0.012c0.284,0.047,0.632,0.138,1.003,0.235c0.257,0.068,0.529,0.141,0.796,0.199
		l0.731-0.926c0.016-0.022,0.051-0.113,0.072-0.168c0.063-0.166,0.142-0.367,0.294-0.553v-0.263h0.543
		c0.134,0.005,0.225,0,0.281-0.003c0.037-0.162,0.076-0.438,0.108-0.67l0.158-1.15l0.938,0.672c0.101,0.074,0.217,0.144,0.335,0.212
		c0.393,0.239,0.871,0.53,1.088,1.019c0.36,0.062,0.617,0.291,0.814,0.554h0.01c0.315-0.419,0.364-0.751,0.465-1.655l0.09-0.752
		l0.73,0.138c0.102,0.022,0.266,0.032,0.456,0.048c0.929,0.074,1.565,0.156,1.918,0.531c0.386,0.423,0.512,0.992,0.338,1.527
		c-0.021,0.057-0.042,0.112-0.066,0.163c0.449,0.278,0.598,0.67,0.459,1.427l1.446,0.111c0.581,0.043,0.753,0.535,0.829,1.367
		l0.974-0.732l3.195,4.334c0.996,1.354,1.028,1.601,0.387,3.285l-0.275,0.723l-1.569-0.789l-0.215,3.053
		c0.017-0.035,0.028-0.078,0.045-0.119c0.27-0.698,0.475-1.174,0.875-1.375c0.444-0.228,1.21-0.031,1.895,0.16
		c0.061,0.015,0.116,0.031,0.171,0.047c0.057-0.082,0.12-0.18,0.158-0.234c0.068-0.1,0.122-0.188,0.165-0.242
		c0.29-0.369,0.754-0.863,1.451-0.863c0.154,0,0.308,0.028,0.466,0.059c0.145,0.025,0.208,0.167,0.628-0.09
		c0.875-0.543,2.595-0.01,3.225,0.877l2.186,3.059c0.472,0.65,0.576,1.593,0.669,2.418c0.027,0.273,0.056,0.529,0.1,0.745
		c0.258,1.353,0.068,1.72-0.575,2.674l-0.175,0.26c-0.084,0.131-0.174,0.298-0.272,0.481c-0.419,0.774-0.992,1.832-2.041,1.832
		l-0.242-0.021l-0.662-0.11l0.142-1.114c0.03-0.209,0.063-0.451,0.048-0.52c-0.009-0.01-0.098-0.101-0.504-0.344l-0.084-0.057
		l-1.37-0.107l1.173,2.058c0.729,1.283-0.224,2.141-0.858,2.71c-0.052,0.048-0.102,0.094-0.153,0.139l0.167-0.014
		c0.586,0,0.849,0.518,1.021,0.896c0.073-0.044,0.146-0.091,0.197-0.123c0.133-0.088,0.25-0.156,0.324-0.191l0.623-0.312
		l0.387,0.788c0.4,0.806,0.568,1.202,0.339,2.23c-0.054,0.243-0.117,0.481-0.218,0.691c0.488,0.101,0.82,0.495,1.065,0.981
		c0.019-0.105,0.042-0.222,0.064-0.344l0.7-3.831l0.747,3.374c0.282,1.262,0.379,1.504,1.234,2.364
		c0.636,0.644,0.89,1.104,1.083,1.718c0.599-0.301,1.268-0.623,1.854-0.623c0.675,0.031,1.351,0.473,1.943,0.864
		c0.052,0.034,0.104,0.069,0.157,0.101l0.45-0.301c1.209-0.811,1.833-0.786,2.972-0.264l0.431,0.197
		c1.479,0.652,1.653,1.027,2.095,2.369l0.357,1.094l-0.988,0.093l2.629,2.163c0.401,0.332,0.538,0.961,0.686,1.812
		c0.028,0.16,0.05,0.297,0.073,0.389l0.847,3.111c0.397,1.463,0.072,2.672-0.272,3.951c-0.052,0.199-0.106,0.404-0.16,0.613
		c0.308,0.047,0.625,0.145,0.902,0.416l5.918,5.693c0.229,0.219,0.506,0.451,0.793,0.689c0.742,0.619,1.584,1.318,2.01,2.141
		c0.182,0.348,0.443,0.758,0.729,1.199c0.73,1.15,1.564,2.451,1.629,3.557l0.152,2.848c0.043,0.738-0.258,1.164-0.604,1.473
		c1.176,0.938,1.506,1.611,2.123,3.344c0.383,1.09,0.395,2.332,0.414,3.541c0.006,0.473,0.006,0.939,0.041,1.371
		c0.01,0.182,0.229,0.551,0.402,0.855c0.354,0.596,0.844,1.439,0.637,2.291l0.068,0.268c0.043,0.158,0.08,0.305,0.113,0.441
		c0.02,0.078,0.035,0.172,0.062,0.248c0.039-0.014,0.086-0.031,0.146-0.057l1.141-0.475l-0.317,2.168
		c0.498,0.037,0.918,0.365,1.289,0.654c0.119,0.094,0.229,0.182,0.342,0.25l1.439,0.912l-0.953,0.215l4.051,2.416l-5.922-1.984
		l-2.877,0.662c-0.019,0.07-0.039,0.143-0.062,0.213c1.502,0.365,2.891,1.379,4.059,2.982c0.295,0.399,0.629,0.798,0.969,1.207
		c1.084,1.289,2.295,2.727,2.371,4.455c0.217,0.021,0.479,0.045,0.645,0.031c0.088-0.268,0.182-0.795,0.23-1.043
		c0.047-0.23,0.084-0.432,0.111-0.541c0.227-0.809,0.949-1.266,1.986-1.266c0.557,0,1.227,0.133,1.795,0.357
		c0.146,0.061,0.273,0.104,0.383,0.145c0.801,0.281,1.156,0.588,1.156,1.686v0.221c0,0.014,0,0.027,0,0.041
		c0.039,0.016,0.086,0.033,0.137,0.057c1.549,0.646,1.904,0.947,2.314,2.176c0.094-0.041,0.174-0.082,0.225-0.109
		c-0.021-0.021-0.031-0.156-0.102-0.436l-0.82-3.428c-0.154-0.635,0.203-1.129,0.605-1.543l-0.311-0.639
		c-0.465,0.531-1.021,1.064-1.703,1.105l-4.514,0.26l3.232-3.613c-0.162-0.35-0.24-0.773-0.182-1.367
		c0.102-0.918,0.359-1.619,0.662-2.436l0.111-0.291l-3.59-2.068l4.475,0.99c-0.004-0.023,0.07-0.365,0.117-0.566
		c0.096-0.414,0.191-0.844,0.459-1.186c0.643-0.809,1.617-0.998,2.545-0.795c0.172-0.584,0.518-1.197,1.281-1.197
		c0.207,0,0.418,0.053,0.637,0.148c0.24,0.117,0.424,0.328,0.588,0.643c0.027-0.131,0.049-0.252,0.049-0.354
		c-0.006-0.271-0.107-0.467-0.213-0.676c-0.139-0.271-0.324-0.637-0.164-1.08c0.104-0.279,0.314-0.471,0.559-0.621
		c-0.191-0.367-0.658-1.318,0.18-1.812l2.842-1.66c0.783-0.467,1.453-1.631,2.045-2.648c0.256-0.447,0.5-0.869,0.744-1.223
		c0.199-0.289,0.271-0.865,0.346-1.42c0.127-0.926,0.268-1.98,1.066-2.537l5.186-3.629c0.318-0.227,0.463-0.498,0.65-0.836
		c0.26-0.486,0.584-1.094,1.441-1.475l6.299-2.834c0.186-0.082,0.416-0.166,0.67-0.256c-0.254-0.379-0.396-0.783-0.414-0.887
		c-0.154-0.791,0.617-1.18,1.076-1.412c0.152-0.074,0.408-0.201,0.471-0.271c0.154-0.51,0.404-1.256,1.287-1.256
		c0.15,0,0.34,0.029,0.588,0.07l1.879,0.271l-0.727,0.674c0.068,0.064,0.139,0.139,0.195,0.229c0.072,0.109,0.123,0.227,0.152,0.346
		c0.197-0.039,0.4-0.072,0.607-0.111c1.043-0.188,2.125-0.375,3.002-0.75c1.148-0.486,1.537-1.355,2.076-2.559
		c0.117-0.266,0.242-0.545,0.377-0.822l0.311-0.648c0.666-1.416,1.238-2.637,2.574-3.785c0.328-0.281,0.605-1.748,0.738-2.453
		c0.084-0.426,0.154-0.803,0.232-1.059l1.713-5.91c0.27-0.924,1.121-1.256,1.809-1.521c0.393-0.15,0.797-0.309,0.922-0.506
		l3.07-4.809l0.414-0.014c0.283,0,0.754,0.157,2.701,1.053l-0.285-1.015c-0.189-0.702,0.449-1.079,0.869-1.33
		c0.117-0.065,0.293-0.173,0.383-0.247c0.043-0.251,0.107-0.592,0.184-0.979c0.154-0.776,0.566-2.837,0.291-3.247
		c-0.062-0.059-0.18-0.14-0.303-0.232l-0.084-0.03l-2.104,1.218L252.686,229.035z"/>
	<polygon fill="#EBE9E7" points="133.886,205.324 133.886,205.324 133.886,205.33 	"/>
	<path fill="#EBE9E7" d="M260.805,329.674c0-0.031-0.01-0.057-0.012-0.078l-0.164,0.006c-0.658,0-0.992-0.393-1.156-0.721
		c-0.08-0.146-0.154-0.342-0.234-0.545c-0.104-0.262-0.318-0.818-0.471-0.904c-0.236-0.07-0.523-0.193-0.834-0.32
		c-0.514-0.209-1.148-0.479-1.535-0.479c-0.438,0.023-0.438,0.023-0.674,0.439c-0.068,0.121-0.146,0.264-0.244,0.42l-0.201,0.338
		c-0.286,0.484-3.014,0.889-4.602,1.049c0.051-0.617,0.338-0.966,1.012-1.643c0.064-0.082,0.117-0.229,0.148-0.365
		c-2.096,0.248-3.262,0.186-5.25-0.252l-1.086-0.238l1.902-2.479l-1.922-0.709l0.492-0.742c0.07-0.105,0.129-0.209,0.188-0.303
		c0.035-0.068,0.074-0.141,0.115-0.205l-0.984,0.312c-0.393,0-0.648-0.24-0.832-0.436c-0.023,0.016-0.043,0.034-0.068,0.051
		c-0.207,0.149-0.473,0.338-0.812,0.389c-0.889,0.129-1.674-0.082-2.424-0.285c-0.803-0.213-1.559-0.385-2.229-0.168
		c-2.033,0.652-3.479,1.117-5.117,2.33c-1.045,0.771-2.906,0.773-4.555,0.781c-0.545,0-1.041,0-1.418,0.037
		c-1.729,0.158-2.871,0.399-4.369,0.92l-3.385,1.178c0.029,0.049,0.049,0.496,0.059,0.713c0.006,0.195,0.01,0.387,0.006,0.537
		c-0.047,0.695-0.377,1.195-0.646,1.602c-0.168,0.252-0.311,0.467-0.33,0.66c0.07,0.168,0.797,1.352,1.025,1.574
		c0.092,0.068,0.498,0.199,0.768,0.291c0.848,0.275,1.646,0.539,1.83,1.24l0.496,1.883l2.465-0.994
		c0.812-0.332,1.717,0.074,2.4,0.453c0.162,0.093,0.324,0.184,0.484,0.254c0.154-0.014,0.572-0.201,0.879-0.342
		c0.434-0.191,0.842-0.379,1.229-0.4l0.252-0.01c0.684,0,1.385,0.15,2.062,0.297c0.338,0.072,0.662,0.146,0.965,0.191h0.014
		c0.441,0,0.902-0.422,1.318-0.795c0.188-0.176,0.377-0.344,0.559-0.486c0.35-0.271,0.746-0.402,1.18-0.402
		c0.398,0,0.768,0.107,1.121,0.219c0.16,0.047,0.326,0.096,0.5,0.135c0.162,0.037,0.359,0.062,0.568,0.098
		c0.725,0.104,1.633,0.23,2.158,0.803l1.842,2c0.133-0.059,0.281-0.117,0.438-0.186c0.682-0.273,2.492-1.008,2.74-1.4l0.295-2.869
		c0.066-0.588,0.664-0.895,1.91-1.406c0.131-0.055,0.24-0.096,0.291-0.121c0.65-0.328,1.217-0.545,1.77-0.684
		c-0.004-0.027-0.004-0.047-0.008-0.074c1.227,0.005,3.217,0.008,3.264,0.012l0.371,0.033c1.449,0.123,2.654,0.729,3.818,1.309
		c0.225,0.115,0.457,0.229,0.693,0.344c0.203-0.096,0.678-0.514,0.885-0.699c0.16-0.145,0.303-0.262,0.4-0.338
		c0.148-0.109,0.279-0.199,0.396-0.273c0.106-0.074,0.244-0.168,0.285-0.209C260.822,330.006,260.836,329.918,260.805,329.674z"/>
	<path fill="#EBE9E7" d="M263.535,323.773c0.291,0,0.648-0.145,1.029-0.297c0.479-0.189,1.023-0.404,1.617-0.404l4.688,0.254
		c1.17,0.059,1.32,0.006,2.566-0.768l0.258-0.146c0.311-0.18,0.381-0.229,0.449-0.369c0.027-0.07,0.061-0.172,0.098-0.285
		c0.182-0.547,0.391-1.162,0.879-1.408c0.223-0.107,0.424-0.223,0.611-0.328c0.703-0.395,1.334-0.723,2.186-0.607l0.07-0.438
		l-0.008-0.605l-0.307-0.262h-2.375v-0.346h-0.336v-0.342h-0.332v-0.336h-0.338v-0.754l-1.328-1.338h0.658v-0.959h-0.338V311.6
		h0.338v-1.352h0.334v-0.342h0.336v-0.338h0.408l0.262-0.312v-0.707h0.336v-0.678h0.334v-0.678h0.742l0.67-0.68h0.602v-0.34h0.666
		h0.338v-0.338v-0.342h1.006v-0.338h0.336v-0.266l0.332-0.385v-0.631l0.34-0.389v-1.049h0.336V302.1h0.668v-0.676h0.67v-0.342h0.336
		v-0.338h0.336v-1.021h0.336v-0.338h1.004v-1.354h0.338v-0.678h0.332v-0.338h0.336v-0.342h0.334v-0.309h0.336v-0.711v-0.34h0.668
		v-1.014h0.336v-0.336h0.34v-0.285h-0.34v-1.355h-0.67v-3.111h0.67v-0.338h0.674h0.668v-0.322v-1.717h0.338v-0.262l0.338-0.383
		v-0.707h0.334v-0.68h0.334v-0.285h-0.334v-0.338h-0.334v-0.676h-1.316l0.979-1.045v-1.727h0.338v-0.961h-1.678v-0.342h-0.339
		v-1.695h-1.341v-1.016v-0.072l-0.334-0.338v-0.607h-0.645h-1.049l-0.598,0.65v2.738h-1.34v1.361h-0.334v0.334h-0.338v0.342h-1.008
		v0.338h-1.732v-0.338h-0.277v0.338h-0.668v1.338l-1.732-1.75v-0.602l-2.879-0.037l-0.896-0.305h-4.979
		c0.156,0.59,0.246,1.193,0.324,1.754l0.096,0.619c0.033,0.211,0.059,0.467,0.08,0.742c0.037,0.51,0.11,1.365,0.36,1.564
		l0.255,0.205c0.863,0.684,1.438,1.135,1.865,2.449c0.041,0.133,0.078,0.258,0.107,0.375c0.115,0.408,0.135,0.428,0.281,0.504
		l0.18,0.08c0.309,0.129,0.771,0.324,0.967,0.924c0.093,0.281,0.174,0.639,0.266,1.014c0.15,0.648,0.342,1.455,0.613,1.803
		c0.091,0.107,0.51,0.305,0.752,0.422c0.689,0.334,1.4,0.674,1.574,1.371l1.939,7.812l-2.451-4.328l-0.711,1.271l-0.145-0.434
		l-0.312,0.621c0.076,1.037,0.271,2.09,0.473,3.184c0.104,0.562,0.203,1.117,0.291,1.672c0.119,0.75-0.379,1.418-0.861,2.062
		c-0.234,0.316-0.549,0.744-0.584,0.951l-1.084,7.594c-0.088,0.664-0.793,0.949-2.125,1.428c-0.303,0.113-0.766,0.279-0.879,0.354
		c-0.584,0.441-1.146,1.207-1.678,1.938c-0.277,0.381-0.551,0.756-0.822,1.076c-0.457,0.547-1.113,0.65-1.641,0.74
		c-0.203,0.031-0.59,0.094-0.646,0.168c-0.164,0.207-0.393,0.439-0.637,0.699c-0.471,0.5-1.354,1.428-1.271,1.85
		c0.127,0.352,1.438,1.123,2.002,1.17L263.535,323.773z"/>
	<rect x="288.76" y="277.402" fill="#EBE9E7" width="0.277" height="0.96"/>
	<path fill="#EBE9E7" d="M185.252,285.332c0.018,0.02,0.035,0.033,0.051,0.053c0.012-0.215,0.082-0.41,0.148-0.547"/>
</g>
</svg>
