<?xml version="1.0" encoding="utf-8"?>
<!-- Generator: Adobe Illustrator 16.0.0, SVG Export Plug-In . SVG Version: 6.00 Build 0)  -->
<!DOCTYPE svg PUBLIC "-//W3C//DTD SVG 1.1//EN" "http://www.w3.org/Graphics/SVG/1.1/DTD/svg11.dtd">
<svg version="1.1" id="SAAL" xmlns="http://www.w3.org/2000/svg" xmlns:xlink="http://www.w3.org/1999/xlink" x="0px" y="0px"
	 width="358px" height="409px" viewBox="0 0 358 409" enable-background="new 0 0 358 409" xml:space="preserve">
<g>
	<path fill="#E47127" d="M236.926,245.209c-0.191,0-0.37-0.054-0.521-0.147l-0.412-0.201l-8.008,0.01
		c-0.265,0-0.52-0.105-0.707-0.292s-0.293-0.442-0.293-0.708v-5.787h-4.695c-0.553,0-1-0.448-1-1v-2.179
		c0-0.105,0.017-0.208,0.047-0.303c-0.011-0.056-0.017-0.113-0.018-0.171l-0.004-0.285c-0.165,0.325-0.503,0.548-0.893,0.548h-0.477
		c-0.553,0-1-0.448-1-1v-1.605c-0.181-0.172-0.292-0.406-0.31-0.656c-0.2-0.178-0.321-0.43-0.335-0.697
		c-0.09-0.075-0.167-0.165-0.227-0.267c-0.214-0.134-0.373-0.348-0.438-0.599c-0.347-0.138-0.6-0.465-0.627-0.859l-0.021-0.285
		c-0.082-0.062-0.154-0.138-0.214-0.222c-0.25-0.013-0.487-0.119-0.663-0.299l-0.298-0.303c-0.258-0.027-0.486-0.151-0.648-0.336
		h-0.1l-0.408,0.214c-0.142,0.075-0.3,0.114-0.46,0.115l-1.541,0.007c-0.132,0.399-0.507,0.687-0.95,0.687h-2.83
		c-0.301,0-0.57-0.133-0.754-0.343h-0.672c-0.179,0.189-0.426,0.301-0.688,0.312l-0.766,0.03c-0.013,0-0.125,0.001-0.139,0.001
		c-0.553,0-1-0.448-1-1v-1.716h-4.229v3.744c0,0.552-0.447,1-1,1h-8.188c-0.553,0-1-0.448-1-1v-3.744h-4.027c-0.553,0-1-0.448-1-1
		v-3.748h-3.691c-0.553,0-1-0.448-1-1v-2.734h-6.711c-0.552,0-1-0.448-1-1v-8.493h-8.721c-0.552,0-1-0.448-1-1v-3.751h-5.369
		c-0.552,0-1-0.448-1-1v-5.929c0-0.538,0.426-0.98,0.964-1l8.489-0.306l0.244-1.241c0.066-0.336,0.296-0.605,0.597-0.73
		l-0.246-0.982l-2.571-5.517c-0.059-0.126-0.091-0.263-0.094-0.402l-0.009-0.457c-0.002-0.103,0.012-0.205,0.041-0.304l0.975-3.301
		l0.989-3.001l0.018-0.123c0.027-0.187,0.107-0.363,0.23-0.507l0.413-0.482l1.034-2.025l-0.01-5.538l-1.421-1.693
		c-0.15-0.18-0.232-0.405-0.234-0.638l-0.019-3.634l-0.338-0.167c-0.058-0.028-0.112-0.062-0.163-0.101l-1.247-0.945
		c-0.186-0.001-0.369-0.054-0.527-0.154l-0.774-0.488c-0.063-0.04-0.123-0.087-0.176-0.141l-0.243-0.244
		c0,0-0.188,0.008-0.204,0.008c-0.259,0-0.509-0.101-0.696-0.282l-0.772-0.75c0,0-0.654,0.018-0.664,0.018
		c-0.153,0-0.305-0.035-0.442-0.103l-0.506-0.25l-4.742,0.01c-0.188,0.198-0.449,0.312-0.724,0.312c0,0-12.62,0.03-12.621,0.03
		c-0.536,0-0.976-0.422-0.999-0.957l-0.295-6.848h-1.528c-0.093,0-0.186-0.013-0.275-0.039l-2.163-0.62l-0.599-0.019
		c-0.096-0.003-0.19-0.021-0.281-0.05l-0.778-0.256l-5.441-0.027c-0.257-0.001-0.503-0.101-0.688-0.279l-0.097-0.094
		c-0.013,0.001-1.342,0.019-1.342,0.019c-0.184,0.217-0.457,0.354-0.763,0.354h-0.599c-0.183,0.205-0.45,0.334-0.746,0.334h-2.333
		l-0.404,0.215c-0.14,0.074-0.294,0.114-0.453,0.117c0,0-0.636,0.011-0.642,0.011c-0.262,0-0.514-0.103-0.701-0.287
		c-0.191-0.188-0.299-0.445-0.299-0.713v-8.515c0-0.324,0.157-0.627,0.421-0.815l1.67-1.187c0.041-0.029,0.083-0.055,0.127-0.077
		l0.312-0.159l-2.426-4.635c-0.055-0.105-0.09-0.219-0.105-0.336l-0.325-2.522c-0.005-0.042-0.008-0.085-0.008-0.128l-0.001-16.938
		c0-0.377,0.212-0.723,0.55-0.893l0.984-0.496c0.14-0.071,0.295-0.107,0.45-0.107c0.061,0,0.122,0.006,0.182,0.017l5.715,1.057
		l7.559,0.327l2.416,0.341l1.68,0.34l1.788-0.306c0.021-0.022,0.043-0.044,0.051-0.053c0.192-0.196,0.452-0.3,0.714-0.3
		c0.153,0,0.308,0.035,0.452,0.108l0.443,0.225l0.477-0.004l-0.336-16.941l-0.294-1.475c-0.022-0.11-0.025-0.222-0.01-0.333
		l0.651-4.685l-0.331-23.951h-13.084c-0.552,0-1-0.448-1-1v-6.271c0-0.538,0.426-0.98,0.964-1l8.408-0.305l-0.305-8.698
		l-4.569,0.311l-1.151,0.002c-0.552,0-1-0.448-1-1v-8.623c0-0.552,0.448-1,1-1h0.339v-3.41c0-0.552,0.448-1,1-1h3.347l-0.002-0.321
		l-0.268-1.344c-0.04-0.199-0.018-0.405,0.063-0.591l0.155-0.358c0.075-0.173,0.196-0.321,0.352-0.428l0.744-0.511l-0.024-0.687
		c-0.003-0.082,0.004-0.163,0.021-0.242l1.888-8.936l-4.112,0.3l-14.458,0.002c-0.38,0-0.728-0.216-0.896-0.557l-1.103-2.229
		c-0.068-0.137-0.103-0.288-0.104-0.441l-0.01-4.878c0-0.081,0.01-0.162,0.029-0.241l0.956-3.89c0.086-0.349,0.349-0.617,0.68-0.718
		l-0.262-9.363c-0.008-0.268,0.093-0.527,0.278-0.72c0.186-0.193,0.441-0.304,0.708-0.308l1.922-0.025
		c5.862-0.096,12.104-0.143,19.082-0.143c7.741,0,15.227,0.053,24.21,0.123c0,0,8.661,0.059,12.124,0.078
		c19.646,0.109,39.923,0.551,53.465,0.874l7.64,0.175c13.313,0.305,28.403,0.65,42.854,1.358l73.312,3.586
		c0.267,0.013,0.517,0.133,0.695,0.331c0.178,0.198,0.27,0.46,0.254,0.726l-1.482,25.709l-0.335,4.118l-0.334,7.083l-1.005,17.992
		l-0.331,8.092l-0.342,4.138l-1.675,29.519l0.006,3.908c0,0.046-0.003,0.093-0.01,0.139l-0.342,2.446l-1.661,32.123l-1.685,28.84
		l-1.001,19.644l-0.34,4.494l0.005,3.928l-0.341,4.217l0.007,2.569l-0.335,4.471l-0.343,3.123l-0.336,5.416l0.01,5.293l-0.625,6.677
		c-0.048,0.514-0.479,0.906-0.995,0.906h-0.798c-0.231,0-0.456-0.08-0.635-0.227l-0.169-0.139l-7.082,0.022
		c-0.184,0.211-0.453,0.344-0.755,0.344h-6.779c-0.231,0-0.456-0.08-0.635-0.227l-0.165-0.136l-0.474,0.006v1.052
		c0,0.552-0.447,1-1,1h-2.688v0.355c0,0.296-0.129,0.563-0.334,0.746v4.681c0,0.552-0.447,1-1,1h-3.496
		c-0.374,0-0.699-0.205-0.871-0.508c-0.038-0.026-0.075-0.055-0.11-0.086l-0.33-0.297c-0.197-0.178-0.316-0.427-0.33-0.693
		c-0.09-0.073-0.166-0.162-0.227-0.261c-0.148-0.092-0.271-0.221-0.354-0.375c-0.028-0.02-0.055-0.04-0.081-0.062l-0.336-0.291
		c-0.147-0.128-0.253-0.295-0.306-0.479h-0.07c-0.521,0-0.95-0.399-0.996-0.909c-0.099-0.097-0.176-0.212-0.228-0.338
		c-0.161,0.122-0.358,0.193-0.564,0.202l-0.76,0.029l-0.14,0c-0.529,0-0.963-0.412-0.998-0.933
		c-0.077-0.069-0.144-0.149-0.196-0.238c-0.088-0.054-0.167-0.122-0.234-0.2c-0.162-0.026-0.315-0.092-0.447-0.192l-0.371-0.283
		c-0.118-0.09-0.213-0.204-0.28-0.332c-0.089-0.054-0.169-0.121-0.237-0.198h-0.009c-0.172,0.181-0.406,0.292-0.656,0.309
		l-0.014,0.001l-0.127,0.137l0.02,0.906c0.006,0.269-0.098,0.529-0.285,0.721c-0.188,0.192-0.446,0.301-0.715,0.301h-1.459
		c-0.178,0-0.354-0.047-0.507-0.138l-0.924-0.543c-0.521-0.034-0.935-0.468-0.935-0.998v-0.107l-0.528-0.133l0.002,0.361
		c0,0.064-0.006,0.129-0.018,0.193l-0.334,1.756l0.001,0.107c0.001,0.108-0.016,0.216-0.049,0.318l-0.35,1.075
		c-0.083,0.254-0.264,0.465-0.503,0.585c-0.141,0.07-0.294,0.106-0.448,0.106c-0.108,0-0.217-0.018-0.321-0.053l-0.433-0.146
		l-1.389,0.489c-0.108,0.038-0.221,0.057-0.332,0.057c-0.204,0-0.406-0.062-0.578-0.184c-0.265-0.188-0.422-0.492-0.422-0.816
		v-5.038c0-0.224,0.075-0.442,0.214-0.619l0.143-0.181l-0.022-7.507c0-0.149,0.032-0.297,0.097-0.432l0.246-0.52l-0.006-2.56h-4.028
		c-0.299,0-0.566-0.131-0.749-0.338h-7.302c-0.553,0-1-0.448-1-1v-0.636c0-0.106,0.017-0.212,0.051-0.314l0.261-0.79l0.021-3.363
		h-0.668c-0.553,0-1-0.448-1-1v-7.479h-0.678c-0.553,0-1-0.448-1-1v-5.444h-1.686c-0.553,0-1-0.448-1-1v-0.946
		c-0.205-0.183-0.334-0.45-0.334-0.746v-1.164c0-0.36,0.19-0.675,0.476-0.852c0.054-0.089,0.121-0.17,0.199-0.239
		c0.023-0.333,0.21-0.62,0.479-0.784c0.175-0.289,0.493-0.482,0.855-0.482h0.995l0.347-0.179v-1.41h-6.975
		c-0.231,0-0.455-0.08-0.634-0.226l-0.17-0.139l-10.19,0.021v1.308c0,0.227-0.077,0.448-0.22,0.625l-0.139,0.174l0.021,5.034
		c0.001,0.266-0.104,0.522-0.291,0.71c-0.02,0.019-0.039,0.037-0.059,0.054c-0.026,0.17-0.097,0.332-0.205,0.468l-0.117,0.148
		c-0.018,0.184-0.086,0.361-0.198,0.51l-0.285,0.377c-0.055,0.072-0.118,0.135-0.188,0.189c-0.021,0.264-0.146,0.499-0.332,0.665
		c-0.019,0.278-0.151,0.526-0.352,0.695c-0.025,0.158-0.088,0.308-0.185,0.438l-0.279,0.378c-0.057,0.076-0.123,0.143-0.196,0.199
		c-0.021,0.265-0.145,0.5-0.331,0.667v0.199c0,0.224-0.075,0.442-0.214,0.618l-0.138,0.175l0.018,1.226
		c0.003,0.231-0.073,0.456-0.218,0.637l-0.136,0.171l0.018,1.297c0.002,0.162-0.035,0.32-0.106,0.462
		c0.049,0.118,0.075,0.244,0.076,0.374l0.028,3.545c0.003,0.349-0.177,0.674-0.473,0.857c-0.161,0.1-0.344,0.15-0.527,0.15
		c-0.154,0-0.309-0.036-0.451-0.107l-0.406-0.206c0,0-3.646,0.01-3.646,0.01c-0.265,0-0.519-0.105-0.706-0.292
		c-0.188-0.188-0.294-0.442-0.294-0.708v-1.034h-3.216v9.516c0,0.526-0.405,0.957-0.921,0.997c-0.004,0.069-0.015,0.138-0.032,0.206
		c0.171,0.178,0.276,0.42,0.277,0.687l0.019,3.84l0.171,0.852c0.059,0.294-0.017,0.599-0.207,0.831
		c-0.189,0.232-0.474,0.366-0.773,0.366h-2.494l-0.622,0.67c-0.175,0.188-0.416,0.302-0.672,0.317
		c-0.077,0.096-0.172,0.177-0.279,0.238c-0.022,0.034-0.048,0.066-0.074,0.098l-0.29,0.337c-0.178,0.207-0.432,0.331-0.703,0.346
		c-0.077,0.093-0.171,0.172-0.276,0.233c-0.022,0.033-0.046,0.064-0.072,0.095l-0.287,0.337c-0.177,0.208-0.431,0.334-0.703,0.35
		c-0.072,0.089-0.16,0.166-0.259,0.225c-0.086,0.142-0.205,0.26-0.348,0.344c-0.032,0.049-0.068,0.095-0.108,0.137l-0.426,0.455
		l0.024,3.961c0.002,0.267-0.103,0.522-0.291,0.711c-0.188,0.188-0.442,0.295-0.709,0.295h-0.006v4.771c0,0.552-0.447,1-1,1h-2.691
		c-0.069,0.016-0.142,0.023-0.215,0.023H236.926z"/>
	<path fill="#FFFFFF" d="M142.434,1.892c7.919,0,15.646,0.057,24.202,0.123c4.041,0.027,8.085,0.056,12.126,0.078
		c19.82,0.11,39.996,0.553,53.447,0.873l7.457,0.172c13.361,0.306,28.507,0.65,43.012,1.361l73.312,3.586l-1.482,25.709
		l-0.334,4.094l-0.336,7.117l-1.004,17.983l-0.332,8.106l-0.34,4.097l-1.676,29.545l0.004,3.966l-0.342,2.446l-1.67,32.209
		l-1.684,28.834l-1.002,19.651l-0.338,4.47l0.002,4.004l-0.338,4.135l0.004,2.652l-0.332,4.395l-0.34,3.089l-0.34,5.463l0.008,5.356
		l-0.62,6.582h-0.798l-0.447-0.367l-8.193,0.025v0.342h-6.779l-0.447-0.367l-1.826,0.023v2.039h-3.688v1.355h-0.334v5.427h-3.496
		v-0.338h-0.312l-0.33-0.297l-0.024-0.725h-0.343v-0.338h-0.334v-0.342h-0.305l-0.336-0.291l-0.025-0.724h-1.006v-0.362
		l-0.297-0.262l-0.035-0.732h-1.229l-0.266,0.312l-0.76,0.029h-0.102v-0.681h-0.334v-0.342h-0.336v-0.336h-0.6l-0.371-0.283
		l-0.026-0.396h-0.347v-0.34h-1.219l-0.267,0.312l-0.407,0.028l-0.673,0.724l0.028,1.312h-1.459l-1.18-0.693l-0.084,0.015h-0.102
		v-0.886l-2.536-0.641l0.01,1.653l-0.353,1.854l0.002,0.206l-0.35,1.075l-0.76-0.258l-1.715,0.604v-5.038l0.357-0.454l-0.023-7.855
		l0.344-0.725l-0.01-3.784h-5.025v-0.338h-8.051v-0.636l0.311-0.939l0.027-4.527h-1.674v-8.479h-1.678v-6.444h-2.686v-1.692h-0.334
		v-1.164h0.334v-0.339h0.338v-0.68h0.338v-0.338h1.238l1.104-0.57v-3.019h-7.975l-0.447-0.366l-11.547,0.023v2.306l-0.36,0.45
		l0.022,5.388h-0.338v0.606l-0.354,0.445l0.023,0.231l-0.285,0.377l-0.387,0.027v0.682h-0.334v0.681H261.3v0.604l-0.28,0.378
		l-0.39,0.029v0.686h-0.334v0.945l-0.356,0.453l0.022,1.58l-0.358,0.45l0.022,1.654h-0.854l0.824,0.83l0.028,3.545l-0.62-0.313
		l-3.884,0.011v-2.034h-5.216v10.516h-1.85l0.93,0.945l-0.93,0.949h1.174l0.019,3.938l0.19,0.947h-3.224v0.316l-0.625,0.673
		l-0.717,0.024v0.345h-0.334v0.312l-0.29,0.337l-0.717,0.025v0.337h-0.338v0.315l-0.287,0.337l-0.719,0.027v0.341h-0.338v0.338
		h-0.33v0.315l-0.699,0.746l0.027,4.36h-1.006v5.771h-2.916v0.019l-0.703-0.344l-8.238,0.011v-6.787h-5.695v-2.179h0.514
		l-0.484-0.489l-0.026-1.738h-1.532v0.338h-0.338v0.679h-0.477v-2.059l-0.312-0.271l-0.026-0.408l-0.308-0.271l-0.024-0.721h-0.338
		v-0.343h-0.332v-0.681h-0.599l-0.071-1.012h-0.342v-1.205l-0.768,0.781l-0.614-0.627l-0.192,0.028h-0.102v-0.341h-1.098
		l-0.627,0.329l-2.486,0.012v0.683h-2.83v-0.343h-1.895l-0.258,0.312l-0.766,0.03h-0.1v-2.716h-6.229v4.744h-8.188v-4.744h-5.027
		v-4.748h-4.691v-3.734h-7.711v-9.493h-9.721v-4.751h-6.369v-5.929l9.281-0.335l0.397-2.019h0.878l-0.562-2.241l-2.612-5.604
		l-0.009-0.457l0.975-3.301l1.007-3.055l0.03-0.209l0.49-0.572l1.197-2.346l-0.011-6.143l-1.655-1.972l-0.022-4.253l-0.894-0.439
		l-1.543-1.17l-0.301,0.021l-0.774-0.488l-0.555-0.559l-0.601,0.027l-1.075-1.043l-1.057,0.029l-0.717-0.354l-5.44,0.012
		l-0.26,0.312l-12.619,0.03l-0.336-7.805h-2.486l-2.282-0.654l-0.723-0.023l-0.928-0.306l-5.6-0.028l-0.62-0.596l-0.221,0.225
		l-2.054,0.027v0.344h-1.345v0.334h-2.583l-0.624,0.332l-0.625,0.011v-8.515l1.67-1.187l1.216-0.616l-2.896-5.533l-0.325-2.522
		l-0.001-16.938l0.984-0.496l5.783,1.069l7.629,0.33l2.318,0.332l1.806,0.367l2.322-0.397l0.195-0.227l0.051-0.052l0.659,0.334
		l1.733-0.012l-0.358-18.043l-0.312-1.562l0.661-4.76l-0.345-25.014h-14.071v-6.271l9.406-0.342l-0.376-10.729l-5.6,0.381h-1.083
		v-8.623h1.339v-4.41h4.356l-0.012-1.424l-0.286-1.437l0.155-0.358l1.197-0.822l-0.044-1.235l2.163-10.236l-5.438,0.396h-14.386
		l-1.103-2.229l-0.01-4.878l0.956-3.89h0.736l-0.29-10.348l1.922-0.025C129.209,1.938,135.447,1.892,142.434,1.892 M236.926,244.204
		l0.01,0.005h-0.01V244.204 M142.434-0.108c-6.985,0-13.233,0.047-19.102,0.143l-1.916,0.025c-0.536,0.007-1.046,0.229-1.417,0.615
		c-0.371,0.387-0.571,0.905-0.556,1.441l0.246,8.778c-0.306,0.264-0.533,0.622-0.635,1.036l-0.956,3.89
		c-0.039,0.158-0.058,0.319-0.058,0.481l0.01,4.878c0,0.307,0.072,0.608,0.208,0.883l1.103,2.229
		c0.337,0.682,1.032,1.113,1.792,1.113h14.386c0.048,0,0.097-0.002,0.146-0.005l2.786-0.203l-1.613,7.635
		c-0.034,0.159-0.048,0.322-0.042,0.485l0.005,0.138l-0.292,0.2c-0.311,0.213-0.554,0.51-0.704,0.855l-0.155,0.358
		c-0.161,0.373-0.205,0.785-0.125,1.183l0.093,0.47h-2.19c-1.104,0-2,0.896-2,2v2.522c-0.78,0.273-1.339,1.015-1.339,1.888v8.623
		c0,1.104,0.896,2,2,2h1.083c0.045,0,0.09-0.001,0.136-0.005l3.538-0.24l0.233,6.667l-7.41,0.27
		c-1.076,0.039-1.927,0.922-1.927,1.999v6.271c0,1.104,0.896,2,2,2h12.098l0.316,22.889l-0.64,4.609
		c-0.031,0.222-0.024,0.448,0.02,0.667l0.277,1.387l0.308,15.534c-0.115-0.021-0.23-0.03-0.346-0.03
		c-0.436,0-0.868,0.143-1.222,0.416l-1.314,0.226l-1.439-0.293c-0.038-0.008-0.076-0.014-0.115-0.02l-2.318-0.332
		c-0.065-0.01-0.131-0.016-0.197-0.019l-7.489-0.324l-5.646-1.044c-0.121-0.022-0.242-0.033-0.364-0.033
		c-0.311,0-0.62,0.073-0.9,0.214l-0.984,0.497c-0.674,0.34-1.1,1.031-1.1,1.786l0.001,16.938c0,0.085,0.005,0.171,0.017,0.256
		l0.325,2.522c0.03,0.234,0.102,0.462,0.211,0.672l1.992,3.806l-1.368,0.972c-0.528,0.375-0.842,0.983-0.842,1.63v8.515
		c0,0.536,0.215,1.05,0.598,1.426c0.374,0.368,0.878,0.574,1.402,0.574c0.011,0,0.023,0,0.034,0l0.625-0.011
		c0.316-0.006,0.626-0.086,0.905-0.234l0.184-0.098h2.084c0.409,0,0.79-0.123,1.107-0.334h0.238c0.425,0,0.819-0.133,1.144-0.359
		l0.597-0.008c0.333,0.235,0.732,0.365,1.144,0.367l5.284,0.027l0.628,0.207c0.181,0.06,0.37,0.093,0.561,0.1l0.475,0.016
		l2.043,0.585c0.179,0.051,0.365,0.078,0.551,0.078h0.571l0.253,5.891c0.046,1.07,0.927,1.914,1.998,1.914c0.001,0,0.003,0,0.005,0
		l12.619-0.03c0.383-0.001,0.753-0.112,1.07-0.313l4.161-0.009l0.296,0.146c0.275,0.136,0.578,0.206,0.885,0.206
		c0.019,0,0.037,0,0.055-0.001l0.214-0.006l0.47,0.456c0.322,0.312,0.738,0.505,1.179,0.553c0.093,0.088,0.194,0.166,0.302,0.234
		l0.774,0.488c0.208,0.131,0.436,0.222,0.672,0.269l1.031,0.782c0.036,0.027,0.072,0.052,0.109,0.077l0.016,3.033
		c0.002,0.466,0.168,0.917,0.468,1.275l1.188,1.416l0.009,4.934l-0.87,1.705l-0.335,0.392c-0.246,0.288-0.406,0.639-0.46,1.014
		l-0.005,0.036l-0.952,2.889c-0.006,0.02-0.013,0.04-0.019,0.06l-0.975,3.301c-0.058,0.197-0.086,0.401-0.082,0.607l0.009,0.457
		c0.005,0.278,0.069,0.552,0.187,0.804l2.531,5.431l0.065,0.26c-0.222,0.256-0.381,0.571-0.45,0.923l-0.091,0.463l-7.697,0.278
		c-1.076,0.039-1.928,0.922-1.928,1.999v5.929c0,1.104,0.896,2,2,2h4.369v2.751c0,1.104,0.896,2,2,2h7.721v7.493
		c0,1.104,0.896,2,2,2h5.711v1.734c0,1.104,0.896,2,2,2h2.691v2.748c0,1.104,0.896,2,2,2h3.027v2.744c0,1.104,0.896,2,2,2h8.188
		c1.104,0,2-0.896,2-2v-2.744h2.229v0.716c0,1.104,0.896,2,2,2h0.1c0.026,0,0.053,0,0.079-0.001l0.766-0.03
		c0.349-0.014,0.683-0.118,0.974-0.297c0.315,0.208,0.693,0.329,1.1,0.329h2.83c0.604,0,1.145-0.267,1.511-0.689l0.985-0.005
		c0.29-0.001,0.577-0.066,0.84-0.189c0.084,0.041,0.172,0.077,0.263,0.105l0.092,0.094c0.188,0.191,0.409,0.341,0.651,0.443
		c0.104,0.502,0.395,0.933,0.794,1.219c0.126,0.234,0.297,0.44,0.502,0.607c0.008,0.011,0.016,0.021,0.023,0.03
		c0.067,0.249,0.182,0.481,0.337,0.687c0.053,0.193,0.134,0.376,0.24,0.544v1.258c0,1.104,0.896,2,2,2h0.344v1.39
		c0,1.104,0.896,2,2,2h3.695v4.787c0,0.531,0.211,1.04,0.587,1.415c0.375,0.375,0.883,0.585,1.413,0.585c0.001,0,0.002,0,0.003,0
		l7.773-0.01l0.166,0.081c0.294,0.17,0.635,0.267,0.999,0.267c0.104,0,0.206-0.008,0.307-0.023h2.609c1.104,0,2-0.896,2-2v-4.035
		c0.154-0.088,0.297-0.197,0.425-0.326c0.375-0.377,0.584-0.889,0.581-1.422l-0.022-3.562l0.153-0.164
		c0.027-0.029,0.054-0.058,0.078-0.088c0.137-0.104,0.26-0.225,0.366-0.359c0.006-0.005,0.012-0.009,0.018-0.014
		c0.381-0.106,0.727-0.324,0.988-0.63l0.287-0.337c0.001,0,0.001-0.001,0.002-0.002c0.019-0.014,0.037-0.028,0.056-0.043
		c0.382-0.104,0.728-0.32,0.99-0.625l0.29-0.337c0.003-0.003,0.006-0.006,0.009-0.01c0.021-0.017,0.044-0.033,0.065-0.05
		c0.352-0.099,0.673-0.292,0.927-0.565l0.325-0.351h2.058c0.6,0,1.168-0.269,1.547-0.733c0.381-0.464,0.532-1.074,0.414-1.662
		l-0.152-0.756l-0.018-3.743c-0.001-0.122-0.012-0.242-0.033-0.357c0.434-0.367,0.709-0.915,0.709-1.528v-8.516h1.216v0.034
		c0,0.531,0.212,1.041,0.588,1.416c0.375,0.374,0.883,0.584,1.412,0.584c0.002,0,0.004,0,0.006,0l3.403-0.009l0.192,0.097
		c0.284,0.144,0.594,0.215,0.902,0.215c0.367,0,0.732-0.101,1.055-0.301c0.593-0.368,0.951-1.018,0.945-1.715l-0.028-3.545
		c-0.001-0.11-0.011-0.22-0.029-0.328c0.041-0.167,0.062-0.339,0.06-0.514l-0.013-0.948c0.231-0.34,0.354-0.744,0.349-1.157
		l-0.013-0.879c0.193-0.284,0.31-0.612,0.339-0.953c0.111-0.164,0.198-0.346,0.257-0.54c0.028-0.033,0.055-0.067,0.081-0.102
		l0.28-0.378c0.12-0.162,0.214-0.339,0.279-0.526c0.178-0.215,0.311-0.469,0.386-0.746c0.14-0.185,0.248-0.395,0.317-0.622
		c0.023-0.028,0.046-0.056,0.067-0.084l0.285-0.377c0.156-0.206,0.27-0.438,0.336-0.684c0.124-0.166,0.222-0.35,0.289-0.544
		c0.29-0.357,0.45-0.806,0.448-1.27l-0.02-4.688c0.232-0.334,0.357-0.732,0.357-1.141v-0.31l8.843-0.018
		c0.336,0.237,0.738,0.365,1.151,0.365h4.418c-0.134,0.103-0.254,0.221-0.358,0.354c-0.329,0.259-0.575,0.62-0.691,1.034
		c-0.454,0.367-0.745,0.928-0.745,1.558v1.164c0,0.409,0.123,0.79,0.334,1.107v0.585c0,1.104,0.896,2,2,2h0.686v4.444
		c0,0.995,0.727,1.82,1.678,1.974v6.505c0,0.989,0.719,1.811,1.662,1.972l-0.014,2.228l-0.211,0.64
		c-0.067,0.203-0.102,0.415-0.102,0.628v0.636c0,1.104,0.896,2,2,2h6.938c0.317,0.213,0.7,0.338,1.112,0.338h3.03l0.004,1.336
		l-0.149,0.315c-0.128,0.27-0.194,0.565-0.193,0.863l0.021,7.166c-0.23,0.333-0.355,0.73-0.355,1.138v5.038
		c0,0.649,0.314,1.257,0.844,1.632c0.343,0.242,0.748,0.368,1.156,0.368c0.224,0,0.448-0.037,0.664-0.113l1.062-0.374l0.105,0.036
		c0.209,0.071,0.426,0.106,0.643,0.106c0.309,0,0.615-0.071,0.896-0.212c0.478-0.24,0.84-0.661,1.006-1.17l0.35-1.075
		c0.066-0.206,0.1-0.421,0.098-0.637v-0.008l0.063-0.333c0.13,0.059,0.268,0.103,0.41,0.132l0.755,0.444
		c0.308,0.18,0.657,0.275,1.014,0.275h1.459c0.538,0,1.053-0.217,1.43-0.601c0.324-0.333,0.522-0.766,0.562-1.224l0.076,0.058
		c0.167,0.128,0.354,0.228,0.55,0.297c0.001,0.001,0.003,0.002,0.004,0.004c0.233,0.846,1.009,1.468,1.929,1.468h0.102
		c0.025,0,0.052,0,0.077-0.001l0.751-0.029c0.249,0.459,0.674,0.81,1.184,0.962c0.086,0.116,0.186,0.223,0.296,0.319l0.314,0.272
		c0.11,0.156,0.241,0.295,0.391,0.414c0.005,0.007,0.011,0.014,0.016,0.021c0.101,0.369,0.305,0.705,0.593,0.964l0.33,0.297
		c0.012,0.01,0.023,0.021,0.035,0.031c0.364,0.497,0.952,0.82,1.615,0.82h3.496c1.104,0,2-0.896,2-2v-4.32
		c0.095-0.142,0.172-0.297,0.228-0.462h1.794c1.009,0,1.843-0.746,1.98-1.717c0.097,0.014,0.194,0.021,0.293,0.021h6.779
		c0.417,0,0.804-0.127,1.124-0.345l6.364-0.02c0.337,0.237,0.738,0.365,1.152,0.365h0.798c1.032,0,1.895-0.785,1.991-1.812
		l0.62-6.582c0.006-0.063,0.009-0.127,0.009-0.19l-0.008-5.293l0.333-5.352l0.335-3.042c0.002-0.022,0.004-0.045,0.006-0.068
		l0.332-4.395c0.004-0.051,0.006-0.102,0.006-0.153l-0.004-2.569l0.331-4.052c0.005-0.055,0.007-0.109,0.007-0.164l-0.002-3.928
		l0.332-4.394l1.005-19.701l1.684-28.819l1.666-32.135l0.329-2.36c0.014-0.092,0.02-0.185,0.02-0.279l-0.004-3.908l1.671-29.461
		l0.338-4.071c0.002-0.027,0.004-0.055,0.005-0.083l0.332-8.106l1.003-17.954l0.335-7.1l0.331-4.06L357.987,8.2
		c0.03-0.533-0.153-1.056-0.51-1.452c-0.356-0.397-0.856-0.635-1.39-0.661l-73.312-3.585c-14.463-0.709-29.559-1.055-42.877-1.359
		l-0.187-0.004l-7.457-0.171c-13.546-0.323-33.83-0.765-53.481-0.874c-3.48-0.02-6.963-0.043-10.444-0.066l-1.679-0.012
		C157.664-0.055,150.173-0.108,142.434-0.108L142.434-0.108z"/>
</g>
</svg>
