<?xml version="1.0" encoding="utf-8"?>
<!-- Generator: Adobe Illustrator 16.0.0, SVG Export Plug-In . SVG Version: 6.00 Build 0)  -->
<!DOCTYPE svg PUBLIC "-//W3C//DTD SVG 1.1//EN" "http://www.w3.org/Graphics/SVG/1.1/DTD/svg11.dtd">
<svg version="1.1" id="Layer_1" xmlns="http://www.w3.org/2000/svg" xmlns:xlink="http://www.w3.org/1999/xlink" x="0px" y="0px"
	 width="216px" height="42px" viewBox="0 0 216 42" enable-background="new 0 0 216 42" xml:space="preserve">
<g>
	<path fill="#64B460" d="M36.73,20.222c-0.473,1.717-4.091,3.211-4.091,3.211c5.792-0.27,6.973,0.811,6.973,0.811
		c-0.489,2.195-2.746,3.643-3.695,4.17c-0.168,0.711-0.471,1.779-0.748,1.689c-0.405-0.127-1.984-1.955-1.162-2.051
		c0.494-0.061,1.01-0.156,1.342-0.227c3.146-2.096,2.605-2.783,2.605-2.783s-4.35,0.861-6.549,0.805
		c-2.197-0.055-1.82-1.236-1.82-1.236c0.156-1.943,0.796-3.023,1.489-3.627c0.592-0.26,1.235-0.471,1.942-0.611
		C34.372,20.097,35.613,20.077,36.73,20.222 M31.957,12.451c-0.083-0.372-0.227-1.245,0.153-1.706
		c0.483-0.596,1.236-0.54,4.286,3.969c2.003,2.963,1.862,3.889,1.529,4.168C37.228,17.419,35.227,13.819,31.957,12.451
		 M22.165,15.038c-1.28-1.258-2.609-2.761-2.34-3.697c0.483-1.715,2.944-1.026,2.944-1.026s0.005-1.018,1.131-1.126
		c0.976-0.092,1.554,1.017,1.554,1.017c1.339-0.107,1.774,0.81,2.791,1.452c0.138,0.083,0.298,0.162,0.482,0.233
		C25.379,11.983,23.181,13.909,22.165,15.038 M22.157,20.286c-0.453,0.307-1.926,1.275-2.103,0.953
		c-0.199-0.371-0.07-2.787,0.592-2.285c0.473,0.357,1.006,0.703,1.267,0.869c0.94-0.105,1.899-0.355,2.304-0.494
		c0.482-0.164,0.271-1.611,0.111-2.145c-0.063-0.201-0.805-0.852-1.67-1.671c0.914-1.01,4.201-4.151,8.493-2.657
		c4.339,1.514,5.903,5.592,6.229,6.607l-0.171,0.203c-1.773-0.332-3.764-0.314-5.728,0.494c-0.33,0.139-0.643,0.281-0.942,0.432
		c-0.694,0.021-1.479-0.008-2.295-0.139c-1.769-0.283-2.419-1.541-2.66-2.342c0.126,0.789,0.186,2.012-0.558,2.18
		C24.185,20.483,22.938,20.382,22.157,20.286"/>
	<polygon fill="#61B45F" points="61,6 63.194,6 66.588,13.011 66.613,13.011 66.613,6 68.323,6 68.323,15.372 66.141,15.372 
		62.733,8.364 62.71,8.364 62.71,15.372 61,15.372 	"/>
	<path fill="#61B45F" d="M70.179,8.82c0.663-0.321,1.556-0.524,2.283-0.524c2.004,0,2.833,0.873,2.833,2.914v0.887
		c0,0.699,0.013,1.221,0.027,1.731c0.014,0.523,0.038,1.008,0.076,1.545h-1.506c-0.063-0.362-0.063-0.818-0.074-1.034h-0.027
		c-0.395,0.766-1.248,1.196-2.03,1.196c-1.161,0-2.295-0.739-2.295-2.056c0-1.033,0.472-1.639,1.12-1.973
		c0.65-0.338,1.495-0.404,2.21-0.404h0.944c0-1.113-0.473-1.49-1.48-1.49c-0.729,0-1.454,0.295-2.028,0.751L70.179,8.82z
		 M72.184,14.219c0.52,0,0.931-0.243,1.196-0.617c0.282-0.39,0.36-0.889,0.36-1.425h-0.743c-0.764,0-1.901,0.135-1.901,1.195
		C71.097,13.964,71.571,14.219,72.184,14.219"/>
	<path fill="#61B45F" d="M77.16,9.773h-1.263V8.458h1.263V7.075l1.71-0.579v1.962h1.517v1.315H78.87v3.222
		c0,0.593,0.154,1.143,0.804,1.143c0.305,0,0.6-0.066,0.777-0.189l0.051,1.425c-0.357,0.107-0.751,0.162-1.261,0.162
		c-1.339,0-2.081-0.873-2.081-2.241V9.773z"/>
	<path fill="#61B45F" d="M87.205,15.374h-1.621v-0.939h-0.025c-0.523,0.67-1.266,1.101-2.158,1.101
		c-1.555,0-2.232-1.155-2.232-2.714V8.458h1.709v3.693c0,0.846,0.014,1.986,1.111,1.986c1.238,0,1.504-1.41,1.504-2.297V8.458h1.713
		V15.374z"/>
	<path fill="#61B45F" d="M88.646,8.458h1.518v1.57h0.025c0.076-0.643,0.779-1.731,1.799-1.731c0.166,0,0.344,0,0.523,0.054v1.812
		c-0.154-0.094-0.461-0.148-0.766-0.148c-1.389,0-1.389,1.826-1.389,2.82v2.539h-1.711V8.458z"/>
	<path fill="#61B45F" d="M93.35,8.82c0.664-0.321,1.555-0.524,2.285-0.524c2.002,0,2.832,0.873,2.832,2.914v0.887
		c0,0.699,0.01,1.221,0.027,1.731c0.01,0.523,0.035,1.008,0.072,1.545h-1.504C97,15.011,97,14.555,96.986,14.339h-0.025
		c-0.398,0.766-1.25,1.196-2.029,1.196c-1.164,0-2.297-0.739-2.297-2.056c0-1.033,0.473-1.639,1.121-1.973
		c0.652-0.338,1.494-0.404,2.209-0.404h0.945c0-1.113-0.473-1.49-1.48-1.49c-0.727,0-1.453,0.295-2.027,0.751L93.35,8.82z
		 M95.354,14.219c0.523,0,0.93-0.243,1.199-0.617c0.281-0.39,0.357-0.889,0.357-1.425h-0.742c-0.764,0-1.902,0.135-1.902,1.195
		C94.266,13.964,94.74,14.219,95.354,14.219"/>
	<rect x="99.852" y="5.302" fill="#61B45F" width="1.709" height="10.072"/>
	<path fill="#61B45F" d="M106.523,5.999h1.928c1.914,0,4.197-0.065,4.197,2.537c0,1.104-0.701,2.017-1.838,2.176v0.028
		c0.484,0.04,0.766,0.55,0.945,0.967l1.43,3.665h-1.99l-1.072-2.928c-0.258-0.697-0.486-0.965-1.24-0.965h-0.574v3.893h-1.785V5.999
		z M108.309,10.001h0.59c0.879,0,1.887-0.133,1.887-1.303c0-1.127-0.994-1.221-1.887-1.221h-0.59V10.001z"/>
	<path fill="#61B45F" d="M119.223,14.983c-0.627,0.363-1.344,0.551-2.26,0.551c-2.17,0-3.432-1.315-3.432-3.586
		c0-2,1.008-3.652,3.051-3.652c2.436,0,3.123,1.76,3.123,4.178h-4.541c0.076,1.113,0.814,1.745,1.873,1.745
		c0.83,0,1.545-0.322,2.186-0.698V14.983z M118.072,11.237c-0.051-0.873-0.434-1.625-1.391-1.625s-1.441,0.698-1.518,1.625H118.072z
		"/>
	<path fill="#61B45F" d="M124.697,9.907c-0.521-0.188-0.904-0.295-1.529-0.295c-0.459,0-1.008,0.175-1.008,0.766
		c0,1.102,2.971,0.402,2.971,2.9c0,1.611-1.363,2.256-2.754,2.256c-0.65,0-1.316-0.12-1.939-0.295l0.102-1.477
		c0.535,0.281,1.098,0.456,1.684,0.456c0.436,0,1.123-0.175,1.123-0.847c0-1.357-2.973-0.428-2.973-2.928
		c0-1.49,1.238-2.148,2.578-2.148c0.803,0,1.326,0.135,1.863,0.256L124.697,9.907z"/>
	<path fill="#61B45F" d="M129.156,8.296c1.951,0,3.447,1.385,3.447,3.666c0,1.988-1.268,3.574-3.447,3.574
		c-2.17,0-3.434-1.586-3.434-3.574C125.723,9.681,127.219,8.296,129.156,8.296 M129.156,14.138c1.316,0,1.66-1.235,1.66-2.39
		c0-1.062-0.537-2.054-1.66-2.054c-1.109,0-1.646,1.018-1.646,2.054C127.51,12.889,127.854,14.138,129.156,14.138"/>
	<path fill="#61B45F" d="M139.648,15.374h-1.621v-0.939h-0.023c-0.523,0.67-1.264,1.101-2.156,1.101
		c-1.559,0-2.232-1.155-2.232-2.714V8.458h1.709v3.693c0,0.846,0.01,1.986,1.109,1.986c1.236,0,1.504-1.41,1.504-2.297V8.458h1.711
		V15.374z"/>
	<path fill="#61B45F" d="M141.092,8.458h1.518v1.57h0.025c0.078-0.643,0.777-1.731,1.797-1.731c0.168,0,0.344,0,0.527,0.054v1.812
		c-0.154-0.094-0.461-0.148-0.766-0.148c-1.391,0-1.391,1.826-1.391,2.82v2.539h-1.711V8.458z"/>
	<path fill="#61B45F" d="M149.994,9.948c-0.305-0.147-0.637-0.256-1.162-0.256c-1.057,0-1.732,0.888-1.732,2.189
		c0,1.275,0.572,2.258,1.771,2.258c0.486,0,1.023-0.189,1.316-0.324l0.076,1.492c-0.496,0.16-1.008,0.227-1.709,0.227
		c-2.158,0-3.242-1.544-3.242-3.652c0-2,1.123-3.586,3.176-3.586c0.689,0,1.189,0.08,1.66,0.23L149.994,9.948z"/>
	<path fill="#61B45F" d="M156.316,14.983c-0.627,0.363-1.34,0.551-2.258,0.551c-2.17,0-3.432-1.315-3.432-3.586
		c0-2,1.008-3.652,3.047-3.652c2.439,0,3.129,1.76,3.129,4.178h-4.543c0.076,1.113,0.816,1.745,1.875,1.745
		c0.83,0,1.545-0.322,2.182-0.698V14.983z M155.168,11.237c-0.051-0.873-0.434-1.625-1.391-1.625s-1.441,0.698-1.518,1.625H155.168z
		"/>
	<path fill="#61B45F" d="M161.795,9.907c-0.523-0.188-0.908-0.295-1.531-0.295c-0.461,0-1.01,0.175-1.01,0.766
		c0,1.102,2.975,0.402,2.975,2.9c0,1.611-1.365,2.256-2.756,2.256c-0.652,0-1.316-0.12-1.941-0.295l0.104-1.477
		c0.535,0.281,1.096,0.456,1.684,0.456c0.432,0,1.121-0.175,1.121-0.847c0-1.357-2.971-0.428-2.971-2.928
		c0-1.49,1.238-2.148,2.576-2.148c0.805,0,1.328,0.135,1.863,0.256L161.795,9.907z"/>
	<path fill="#85C380" d="M60.876,28.091c0.529,0.336,1.15,0.529,1.987,0.529c1.109,0,2.025-0.566,2.025-1.846
		c0-1.768-4.127-1.984-4.127-4.346c0-1.445,1.266-2.348,2.85-2.348c0.437,0,1.147,0.064,1.769,0.297l-0.144,0.811
		c-0.4-0.219-1.034-0.334-1.639-0.334c-0.927,0-1.949,0.387-1.949,1.547c0,1.807,4.13,1.82,4.13,4.451
		c0,1.82-1.563,2.543-2.955,2.543c-0.878,0-1.562-0.18-2.038-0.387L60.876,28.091z"/>
	<path fill="#85C380" d="M69.598,22.505c2.128,0,3.069,1.652,3.069,3.443c0,1.795-0.941,3.445-3.069,3.445
		c-2.13,0-3.072-1.65-3.072-3.445C66.526,24.157,67.468,22.505,69.598,22.505 M69.598,28.698c1.418,0,2.181-1.227,2.181-2.75
		c0-1.52-0.762-2.746-2.181-2.746c-1.421,0-2.181,1.227-2.181,2.746C67.417,27.472,68.177,28.698,69.598,28.698"/>
	<path fill="#85C380" d="M78.793,27.692c0,0.502,0,1.02,0.052,1.549h-0.786v-1.176h-0.025c-0.271,0.594-0.761,1.33-2.13,1.33
		c-1.627,0-2.244-1.086-2.244-2.529v-4.205h0.812v3.998c0,1.24,0.439,2.039,1.562,2.039c1.484,0,1.947-1.303,1.947-2.398v-3.639
		h0.812V27.692z"/>
	<path fill="#85C380" d="M83.129,23.358h-1.494v4.256c0,0.594,0.219,1.084,0.875,1.084c0.311,0,0.516-0.066,0.75-0.154l0.051,0.67
		c-0.195,0.078-0.596,0.182-0.992,0.182c-1.447,0-1.5-0.996-1.5-2.195v-3.842H79.53v-0.699h1.288v-1.586l0.816-0.283v1.869h1.494
		V23.358z"/>
	<path fill="#85C380" d="M84.041,19.563h0.809v4.207h0.027c0.35-0.723,1.084-1.266,2.053-1.266c1.766,0,2.246,1.174,2.246,2.801
		v3.936h-0.814v-3.922c0-1.137-0.221-2.115-1.561-2.115c-1.443,0-1.951,1.365-1.951,2.514v3.523h-0.809V19.563z"/>
	<polygon fill="#85C380" points="94.246,20.235 98.656,20.235 98.656,21.011 95.135,21.011 95.135,24.222 98.477,24.222 
		98.477,24.995 95.135,24.995 95.135,28.466 98.812,28.466 98.812,29.241 94.246,29.241 	"/>
	<path fill="#85C380" d="M103.846,28.181h-0.027c-0.359,0.789-1.275,1.213-2.088,1.213c-1.869,0-2.166-1.264-2.166-1.857
		c0-2.205,2.35-2.309,4.051-2.309h0.154v-0.336c0-1.121-0.4-1.689-1.496-1.689c-0.684,0-1.328,0.152-1.934,0.541v-0.787
		c0.5-0.242,1.352-0.449,1.934-0.449c1.625,0,2.309,0.732,2.309,2.449v2.904c0,0.529,0,0.928,0.062,1.377h-0.799V28.181z
		 M103.77,25.925h-0.23c-1.408,0-3.086,0.143-3.086,1.588c0,0.861,0.621,1.186,1.367,1.186c1.91,0,1.949-1.664,1.949-2.375V25.925z"
		/>
	<path fill="#85C380" d="M105.467,28.284c0.488,0.248,1.082,0.414,1.715,0.414c0.775,0,1.455-0.426,1.455-1.174
		c0-1.561-3.158-1.316-3.158-3.225c0-1.305,1.059-1.793,2.143-1.793c0.348,0,1.047,0.076,1.625,0.295l-0.076,0.711
		c-0.426-0.195-1.004-0.311-1.459-0.311c-0.838,0-1.418,0.258-1.418,1.098c0,1.225,3.236,1.07,3.236,3.225
		c0,1.393-1.301,1.871-2.295,1.871c-0.633,0-1.264-0.078-1.846-0.311L105.467,28.284z"/>
	<path fill="#85C380" d="M113.434,23.358h-1.498v4.256c0,0.594,0.223,1.084,0.875,1.084c0.312,0,0.521-0.066,0.752-0.154l0.053,0.67
		c-0.195,0.078-0.596,0.182-0.994,0.182c-1.443,0-1.498-0.996-1.498-2.195v-3.842h-1.291v-0.699h1.291v-1.586l0.812-0.283v1.869
		h1.498V23.358z"/>
	<path fill="#CFE2C9" d="M97.387,14.423l0.057-0.028L97.387,14.423z"/>
	<path fill="#CFE2C9" d="M154.738,15.167l0.012-0.006L154.738,15.167z"/>
</g>
</svg>
