<?xml version="1.0" encoding="utf-8"?>
<!-- Generator: Adobe Illustrator 16.0.0, SVG Export Plug-In . SVG Version: 6.00 Build 0)  -->
<!DOCTYPE svg PUBLIC "-//W3C//DTD SVG 1.1//EN" "http://www.w3.org/Graphics/SVG/1.1/DTD/svg11.dtd">
<svg version="1.1" id="EP" xmlns="http://www.w3.org/2000/svg" xmlns:xlink="http://www.w3.org/1999/xlink" x="0px" y="0px"
	 width="358px" height="409px" viewBox="0 0 358 409" enable-background="new 0 0 358 409" xml:space="preserve">
<g>
	<path fill="#518AAA" d="M203.802,301.146c-0.146,0-0.293-0.032-0.429-0.097c-0.262-0.124-0.457-0.355-0.534-0.634l-0.03-0.108
		c-0.256-0.758-0.298-0.882-1.684-1.463l-0.157-0.062c-0.286-0.114-0.505-0.354-0.591-0.65c-0.026-0.091-0.062-0.262-0.062-0.357
		v-0.264c0-0.382-0.056-0.482-0.057-0.483c-0.006-0.004-0.07-0.06-0.367-0.165c-0.006-0.002-0.323-0.117-0.434-0.162
		c-0.432-0.17-0.964-0.278-1.379-0.278c-0.365,0-0.822,0.08-0.927,0.459c-0.014,0.054-0.119,0.596-0.119,0.596
		c-0.076,0.396-0.151,0.775-0.24,1.042c-0.128,0.385-0.489,0.717-0.895,0.745c0,0-0.199,0.014-0.264,0.014
		c-0.166,0-0.373-0.017-0.563-0.034c-0.498-0.045-1.04-0.466-1.062-0.966c-0.062-1.441-1.151-2.736-2.113-3.879
		c-0.399-0.478-0.726-0.872-1.018-1.267c-1.007-1.38-2.191-2.266-3.432-2.567l-0.096-0.022c-0.271-0.063-0.503-0.236-0.641-0.478
		c-0.138-0.242-0.169-0.529-0.086-0.795l0.086-0.282c0.1-0.352,0.398-0.682,0.754-0.764l2.938-0.676
		c0.074-0.017,0.149-0.025,0.225-0.025c0.074,0,0.148,0.008,0.221,0.024c-0.196-0.146-0.4-0.284-0.524-0.293l-0.104-0.008
		c-0.276-0.021-0.532-0.155-0.706-0.372c-0.174-0.217-0.249-0.496-0.209-0.771l0.066-0.454c-0.151,0-0.302-0.035-0.44-0.104
		c-0.249-0.124-0.436-0.345-0.515-0.61l-0.03-0.102c-0.017-0.051-0.036-0.13-0.054-0.208c-0.055-0.232-0.199-0.786-0.199-0.787
		c-0.04-0.155-0.043-0.316-0.008-0.472c0.11-0.486-0.247-1.09-0.508-1.531c-0.314-0.548-0.536-0.934-0.559-1.364
		c-0.029-0.363-0.036-0.787-0.04-1.218l-0.002-0.198c-0.021-1.195-0.039-2.298-0.352-3.187c-0.581-1.626-0.813-2.085-1.771-2.848
		l-0.092-0.072c-0.232-0.184-0.371-0.462-0.379-0.758s0.117-0.581,0.34-0.777l0.089-0.078c0.15-0.134,0.251-0.251,0.232-0.584
		l-0.152-2.854c-0.047-0.809-0.815-2.014-1.433-2.983c-0.343-0.532-0.604-0.941-0.803-1.322c-0.323-0.625-1.068-1.245-1.726-1.793
		c-0.323-0.269-0.62-0.519-0.865-0.754l-5.918-5.693c-0.067-0.065-0.15-0.098-0.307-0.122l-0.116-0.019
		c-0.278-0.045-0.524-0.205-0.679-0.441c-0.154-0.236-0.201-0.526-0.13-0.799l0.188-0.721c0.32-1.189,0.595-2.209,0.275-3.384
		l-0.847-3.11c-0.03-0.119-0.056-0.254-0.083-0.416c-0.056-0.321-0.189-1.086-0.32-1.229l-2.81-2.311
		c-0.313-0.257-0.439-0.678-0.321-1.065c0.104-0.342,0.383-0.599,0.725-0.68c-0.326-0.98-0.401-1.049-1.426-1.5l-0.445-0.205
		c-0.521-0.24-0.737-0.272-0.879-0.272c-0.15,0-0.419,0.047-1.023,0.45l-0.501,0.336c-0.168,0.112-0.362,0.169-0.556,0.169
		c-0.181,0-0.363-0.049-0.523-0.148l-0.181-0.111c-0.467-0.309-1.068-0.706-1.449-0.723c-0.304,0.001-0.935,0.317-1.312,0.506
		l-0.104,0.052c-0.141,0.071-0.295,0.106-0.449,0.106c-0.132,0-0.264-0.026-0.388-0.078c-0.27-0.114-0.476-0.339-0.564-0.618
		l-0.035-0.11c-0.119-0.378-0.253-0.709-0.817-1.277c-0.574-0.578-0.883-0.97-1.1-1.451c-0.155,0.22-0.396,0.374-0.675,0.414
		c-0.048,0.007-0.096,0.01-0.143,0.01c-0.374,0-0.721-0.209-0.893-0.55l-0.135-0.268c-0.155-0.307-0.273-0.394-0.303-0.399
		l-0.117-0.023c-0.304-0.06-0.562-0.256-0.702-0.532c-0.139-0.277-0.142-0.602-0.008-0.881l0.055-0.115
		c0.065-0.136,0.114-0.353,0.137-0.457c0.134-0.601,0.104-0.771-0.135-1.266l-0.175,0.11c-0.161,0.1-0.344,0.152-0.53,0.152
		c-0.098,0-0.197-0.015-0.293-0.044c-0.277-0.085-0.503-0.285-0.621-0.55l-0.046-0.104c-0.053-0.116-0.091-0.188-0.119-0.234
		l-0.273,0.025c-0.028,0.002-0.055,0.003-0.083,0.003c-0.396,0-0.759-0.236-0.918-0.605c-0.17-0.395-0.068-0.854,0.252-1.141
		l0.376-0.336c0.818-0.735,0.869-0.937,0.636-1.348l-1.266-2.223c-0.183-0.322-0.173-0.718,0.025-1.031
		c0.185-0.29,0.504-0.464,0.844-0.464c0.026,0,1.636,0.125,1.636,0.125c0.143,0.011,0.282,0.053,0.408,0.123l0.132,0.073
		c0.493,0.294,0.659,0.438,0.752,0.533c0.104,0.107,0.184,0.235,0.231,0.376c0.106,0.312,0.083,0.603,0.04,0.927
		c0.249-0.241,0.526-0.752,0.726-1.123c0.111-0.208,0.216-0.399,0.314-0.552l0.187-0.279c0.549-0.812,0.594-0.878,0.408-1.855
		c-0.048-0.236-0.083-0.532-0.113-0.843c-0.077-0.68-0.165-1.466-0.465-1.88l-2.19-3.063c-0.215-0.304-0.859-0.638-1.445-0.638
		c-0.173,0-0.274,0.035-0.303,0.053c-0.226,0.139-0.565,0.318-0.976,0.318c-0.206,0-0.373-0.045-0.479-0.083
		c-0.092-0.021-0.18-0.038-0.222-0.038c-0.162,0-0.349,0.141-0.587,0.444c-0.031,0.045-0.315,0.468-0.315,0.468
		c-0.189,0.282-0.503,0.443-0.831,0.443c-0.087,0-0.176-0.011-0.263-0.035l-0.236-0.064c-0.304-0.085-0.802-0.225-1.095-0.225
		c-0.084,0.06-0.279,0.562-0.362,0.775c-0.109,0.281-0.34,0.498-0.627,0.59l-0.238,0.076c-0.1,0.032-0.203,0.048-0.305,0.048
		c-0.221,0-0.439-0.073-0.617-0.213c-0.261-0.205-0.404-0.526-0.38-0.856l0.225-3.203c0.023-0.334,0.212-0.634,0.503-0.799
		c0.153-0.087,0.324-0.131,0.495-0.131c0.154,0,0.308,0.036,0.45,0.107l0.613,0.309c0.311-0.854,0.231-0.962-0.402-1.823
		l-2.536-3.44l-0.23,0.172c-0.176,0.132-0.387,0.2-0.6,0.2c-0.138,0-0.276-0.028-0.407-0.086c-0.331-0.147-0.557-0.462-0.589-0.824
		l-0.016-0.179c-0.016-0.176-0.035-0.3-0.051-0.386l-1.323-0.102c-0.284-0.022-0.545-0.164-0.718-0.391
		c-0.173-0.227-0.241-0.517-0.187-0.797l0.021-0.108c0.046-0.248,0.024-0.341,0.024-0.342c-0.438-0.271-0.658-0.82-0.43-1.282
		l0.056-0.125c0.042-0.13,0.004-0.289-0.116-0.421c-0.136-0.089-0.876-0.148-1.192-0.174c-0.051-0.004-0.098-0.007-0.142-0.011
		c-0.087,0.701-0.201,1.224-0.632,1.798c-0.189,0.252-0.485,0.4-0.8,0.4c-0.004,0-0.182-0.002-0.182-0.002
		c-0.311-0.003-0.603-0.151-0.789-0.4c-0.082-0.109-0.129-0.132-0.129-0.132c-0.302-0.054-0.558-0.241-0.703-0.51
		c-0.128-0.238-0.363-0.404-0.625-0.567c-0.011,0.061-0.022,0.116-0.033,0.162c-0.102,0.438-0.5,0.827-0.948,0.845l-0.171,0.007
		c-0.014,0.033-0.026,0.067-0.041,0.103c-0.067,0.178-0.118,0.292-0.195,0.405l-0.814,1.032c-0.192,0.243-0.482,0.38-0.784,0.38
		c-0.073,0-0.146-0.008-0.218-0.024c-0.342-0.076-0.629-0.151-0.901-0.224c-0.306-0.08-0.597-0.158-0.841-0.202
		c-0.141,0.081-0.428,0.367-0.542,0.479c-0.205,0.204-0.505,0.328-0.797,0.328c-0.136,0-0.27-0.027-0.392-0.085
		c-0.183-0.087-0.335-0.171-0.451-0.237l-0.088-0.05c-0.09-0.053-0.159-0.094-0.208-0.118l-0.503-0.244
		c-0.471-0.232-0.646-0.281-0.709-0.281c-0.078,0.019-0.159,0.027-0.24,0.027c-0.267,0-0.534-0.098-0.722-0.286l-1.856-1.854
		c-0.548-0.547-0.99-0.825-1.314-0.825c-0.079,0-0.15,0.016-0.217,0.048c-0.004,0.001-0.087,0.041-0.091,0.042
		c-0.135,0.063-0.279,0.093-0.42,0.093c-0.332,0-0.654-0.166-0.843-0.461c-0.52-0.811-1.314-1.265-2.155-1.745
		c-0.314-0.173-0.635-0.358-0.955-0.559c-0.307-0.195-0.584-0.384-0.846-0.563l-0.112-0.078c-0.924-0.639-1.654-1.144-2.702-1.144
		c-0.189,0-0.39,0.017-0.604,0.05c-0.33,0.052-0.669,0.078-1.037,0.078c-0.998,0-1.94-0.196-2.938-0.403l-0.222-0.045
		c-0.312-0.064-0.629-0.129-1.024-0.193c-0.293,0.111-1.27,0.847-1.494,1.116c-0.106,0.168-0.136,0.294-0.143,0.338
		c-0.07,0.467-0.469,0.901-0.94,0.93c-0.354,0.019-0.723,0.191-1.28,0.452l-0.248,0.112c-0.548,0.252-1.184,0.366-2.053,0.366
		c-0.283,0-0.57-0.011-0.855-0.023c-0.354-0.016-0.64-0.025-0.923-0.025c-1.407,0-2.477-1.231-3.421-2.317
		c-0.477-0.548-0.965-1.107-1.433-1.447c-0.965-0.7-1.918-1.448-2.976-2.283l-0.074-0.058c-2.212-1.745-4.493-3.544-6.895-4.781
		l-0.305-0.157c-0.395-0.204-0.608-0.644-0.523-1.08c0.085-0.437,0.448-0.765,0.891-0.805l3.333-0.304
		c-0.136-0.303-0.113-0.654,0.063-0.937c0.183-0.293,0.503-0.472,0.849-0.472h3.46c0.552,0,1,0.448,1,1v0.354h6.04
		c0.552,0,1,0.448,1,1v1.837c0,0.552-0.448,1-1,1H99.73v1.172l0.674,0.651c0.189,0.183,0.298,0.432,0.305,0.694l0.003,0.136
		c0.403,0.129,0.694,0.507,0.694,0.952v0.177c0.141-0.08,0.301-0.125,0.466-0.128l0.072-0.002v-1.062c0-0.552,0.448-1,1-1h1.68
		v-0.862l-0.065-0.311c-0.062-0.294,0.013-0.602,0.203-0.835c0.047-0.058,0.099-0.109,0.156-0.154l-0.142-0.715
		c-0.058-0.294,0.019-0.598,0.208-0.829c0.19-0.231,0.473-0.365,0.772-0.365h0.209v-4.98l-7.327,0.007l-2.288,0.256
		c-0.037,0.004-0.074,0.006-0.111,0.006c-0.245,0-0.482-0.09-0.667-0.254c-0.212-0.19-0.333-0.461-0.333-0.746v-7.553
		c0-0.54,0.428-0.982,0.967-1L106,175.91l9.179,0c0.538,0,0.979,0.426,1,0.963l0.3,8.192h2.849l1.288-0.309
		c0.076-0.018,0.154-0.027,0.232-0.027l5.404-0.002c0.534,0,0.973,0.418,1,0.951l0.298,6.086l0.501,0.483l0.798,0.261l0.251,0.022
		c0.125,0.011,0.247,0.045,0.358,0.101l0.49,0.244c0,0,0.781-0.009,0.785-0.009c0.104,0,0.207,0.016,0.305,0.048l0.962,0.309
		l1.959,0.322l3.665-0.001c0.266,0,0.52,0.105,0.708,0.293s0.293,0.442,0.293,0.707v0.021h1.007c0.296,0,0.562,0.128,0.745,0.333
		l1.56-0.01l1.422-0.298c0.067-0.014,0.135-0.021,0.203-0.021c0,0,0.76-0.002,0.761-0.002c0.265,0,0.519,0.105,0.706,0.292
		c0.188,0.188,0.294,0.442,0.294,0.708v0.016h0.344c0.317,0,0.6,0.148,0.783,0.378l0.881,0.3c0.067,0.023,0.132,0.053,0.193,0.09
		l1.568,0.942c0.031,0.019,0.062,0.039,0.091,0.062l1.243,0.947c0.27,0.018,0.509,0.142,0.679,0.332h0.846
		c0.042-0.012,0.084-0.021,0.127-0.028c0,0,0.146-0.021,0.153-0.022v-2.34c0-0.552,0.448-1,1-1h3.496c0.552,0,1,0.448,1,1v6.123
		h5.371c0.552,0,1,0.448,1,1v3.746h8.718c0.552,0,1,0.448,1,1v8.497h6.71c0.553,0,1,0.448,1,1v2.733h3.689c0.553,0,1,0.448,1,1
		v3.746h4.029c0.553,0,1,0.448,1,1v3.748h8.588v-3.748c0-0.552,0.447-1,1-1h3.828c0.553,0,1,0.448,1,1v1.713h1.111l0.17-0.173
		c0.191-0.194,0.448-0.297,0.711-0.297c0.121,0,0.243,0.022,0.36,0.067c0.207,0.08,0.376,0.223,0.488,0.403h2.839
		c0.204,0,0.402,0.062,0.569,0.178c0.069-0.484,0.486-0.855,0.989-0.855h1.317l0.067-0.033c0.139-0.068,0.288-0.101,0.438-0.101
		c0.174,0,0.347,0.045,0.501,0.135h0.505c0.53,0,0.964,0.412,0.998,0.934c0.055,0.049,0.104,0.104,0.147,0.165
		c0.039,0.001,0.077,0.006,0.115,0.012c0.319,0.051,0.595,0.254,0.738,0.544l0.491,0.994c0.038,0.077,0.066,0.159,0.083,0.243
		c0.126,0.086,0.23,0.201,0.306,0.335c0.032,0.022,0.063,0.046,0.093,0.072l0.338,0.294c0.2,0.174,0.322,0.419,0.341,0.684
		l0.001,0.003c0.212,0.188,0.334,0.456,0.337,0.739l0.018,1.766h1.356c0.553,0,1,0.448,1,1v2.395h4.699c0.553,0,1,0.448,1,1v5.784
		h8.147c0.152,0,0.304,0.035,0.44,0.102l0.505,0.248l3.174-0.008v-4.773c0-0.552,0.447-1,1-1h0.008v-4.086
		c0-0.524,0.403-0.955,0.917-0.997c0.065-0.076,0.143-0.141,0.228-0.194c0.089-0.148,0.215-0.271,0.364-0.357
		c0.023-0.035,0.049-0.069,0.077-0.101l0.289-0.334c0.177-0.204,0.428-0.328,0.696-0.344c0.077-0.094,0.171-0.174,0.276-0.235
		c0.024-0.037,0.052-0.072,0.081-0.106l0.291-0.332c0.176-0.201,0.424-0.322,0.689-0.339c0.078-0.097,0.175-0.179,0.283-0.242
		c0.029-0.044,0.062-0.086,0.1-0.125l0.626-0.674c0.173-0.187,0.411-0.3,0.665-0.317c0.184-0.228,0.464-0.374,0.779-0.374h2.586
		c0.168-0.175,0.396-0.284,0.639-0.304l0.056-0.004l1.256-0.981l0.554-0.558c0.062-0.062,0.132-0.116,0.207-0.161l2.164-1.258
		c0.155-0.089,0.328-0.135,0.503-0.135c0.115,0,0.23,0.021,0.342,0.06l0.129,0.047c0.084,0.031,0.164,0.073,0.237,0.125l0.125,0.089
		c0.126,0.089,0.23,0.172,0.301,0.234c0.061,0.055,0.114,0.116,0.159,0.184c0.416,0.615,0.392,1.568-0.104,4.078l-0.021,0.103
		c-0.067,0.348-0.125,0.644-0.163,0.866c-0.032,0.191-0.121,0.369-0.253,0.511c-0.174,0.188-0.398,0.355-0.686,0.513
		c-0.067,0.041-0.212,0.127-0.304,0.2l0.309,1.093c0.106,0.376-0.016,0.78-0.313,1.033c-0.185,0.157-0.415,0.239-0.648,0.239
		c-0.144,0-0.287-0.031-0.422-0.093l-0.197-0.092c-1.075-0.495-1.783-0.8-2.11-0.909l-2.679,4.269
		c-0.319,0.507-0.892,0.729-1.445,0.943c-0.635,0.245-1.051,0.43-1.161,0.808l-1.712,5.908c-0.063,0.209-0.118,0.495-0.181,0.816
		l-0.028,0.145c-0.36,1.923-0.628,2.672-1.101,3.078c-1.162,1-1.664,2.067-2.299,3.419l-0.312,0.653
		c-0.133,0.271-0.251,0.536-0.359,0.786c-0.578,1.286-1.115,2.48-2.658,3.133c-0.968,0.415-2.124,0.621-3.144,0.803l-0.791,0.145
		c-0.061,0.011-0.121,0.016-0.181,0.016c-0.45,0-0.856-0.306-0.969-0.757c-0.002-0.006-0.026-0.105-0.027-0.11l-0.102-0.085
		c-0.165-0.15-0.273-0.351-0.311-0.567l-0.177-0.025c-0.194-0.032-0.326-0.058-0.431-0.058c-0.054,0.014-0.122,0.105-0.232,0.473
		c-0.033,0.113-0.087,0.218-0.157,0.312c-0.201,0.269-0.457,0.424-0.889,0.633c-0.101,0.051-0.341,0.172-0.452,0.266
		c0.037,0.091,0.118,0.271,0.227,0.433l0.075,0.116c0.167,0.257,0.208,0.576,0.109,0.866c-0.099,0.291-0.324,0.52-0.613,0.622
		l-0.121,0.043c-0.225,0.08-0.431,0.155-0.597,0.227l-6.288,2.83c-0.515,0.228-0.694,0.563-0.92,0.987
		c-0.232,0.417-0.479,0.858-0.99,1.219l-5.189,3.632c-0.399,0.278-0.507,1.068-0.603,1.765c-0.099,0.732-0.19,1.418-0.533,1.916
		c-0.228,0.331-0.455,0.726-0.695,1.145c-0.663,1.144-1.411,2.435-2.436,3.046l-2.772,1.62c0.018,0.076,0.062,0.207,0.163,0.403
		c0.24,0.462,0.127,1.114-0.314,1.391c-0.171,0.107-0.196,0.141-0.196,0.141c0.001-0.001,0.003-0.002,0.006-0.002
		c0.025,0,0.079,0.106,0.112,0.172c0.149,0.3,0.326,0.655,0.337,1.16c0,0.191-0.021,0.366-0.072,0.605L208.597,284
		c-0.094,0.409-0.432,0.715-0.847,0.769c-0.043,0.005-0.086,0.008-0.128,0.008c-0.369,0-0.713-0.204-0.887-0.537l-0.127-0.243
		c-0.071-0.138-0.112-0.174-0.112-0.174c-0.055-0.021-0.112-0.028-0.137-0.028c-0.033,0-0.13,0.076-0.228,0.409
		c-0.131,0.445-0.566,0.803-1.02,0.803c-0.062,0-0.123-0.006-0.184-0.02c-0.237-0.053-0.383-0.07-0.526-0.07
		c-0.646,0-0.919,0.343-1.009,0.456c-0.111,0.142-0.179,0.446-0.243,0.739c-0.024,0.104-0.056,0.241-0.078,0.345
		c0.045,0.34-0.088,0.679-0.352,0.899c-0.152,0.126-0.337,0.203-0.527,0.225c-0.01,0.085-0.03,0.171-0.062,0.254l-0.145,0.371
		c-0.282,0.765-0.511,1.382-0.594,2.153c-0.044,0.446,0.026,0.661,0.083,0.783c0.17,0.363,0.135,0.854-0.133,1.152l-1.5,1.676
		l1.853-0.107c0.209-0.012,0.526-0.258,0.942-0.732l0.1-0.113c0.191-0.218,0.466-0.34,0.751-0.34c0.045,0,0.09,0.003,0.135,0.009
		c0.332,0.045,0.619,0.253,0.765,0.554l0.406,0.838c0.183,0.377,0.111,0.828-0.179,1.129c-0.415,0.427-0.39,0.533-0.381,0.567
		l0.823,3.435c0.019,0.077,0.033,0.145,0.045,0.204c0.148,0.233,0.194,0.521,0.121,0.792c-0.087,0.327-0.333,0.587-0.654,0.692
		l-0.047,0.016c-0.06,0.03-0.319,0.148-0.319,0.148C204.075,301.119,203.938,301.146,203.802,301.146z"/>
	<path fill="#FFFFFF" d="M115.178,176.909l0.336,9.155h3.931l1.402-0.336l5.404-0.002l0.318,6.481l0.951,0.918l1.125,0.368
		l0.366,0.032l0.706,0.352l1.015-0.012l1.032,0.331l2.113,0.348l3.747-0.001v1.021h2.007v0.338l2.412-0.016l1.521-0.319l0.759-0.002
		v1.016h1.344v0.168l1.342,0.457l1.568,0.942l1.536,1.17l0.146-0.021h0.1v0.334h1.866v-0.039l0.132-0.02l0.875,0.295v-3.627h3.496
		v7.123h6.371v4.746h9.718v9.497h7.71v3.733h4.689v4.746h5.029v4.748h10.588v-4.748h3.828v2.713h2.562l0.27-0.309l0.16-0.162
		l0.02,0.471h3.668l0.407,0.371l1.151-0.026v-1.022h1.576l0.1-0.062l0.146-0.071v0.135h1.006v0.68h0.332v1.202l0.771-0.784
		l0.491,0.994l0.068,0.623h0.344v0.338h0.31l0.338,0.294l0.029,0.413l0.306,0.269l0.027,2.756h2.347v3.395h5.699v6.784h9.147
		l0.715,0.351l4.404-0.011v-5.771h1.008v-5.086h0.672v-0.341h0.332v-0.338h0.338v-0.315l0.289-0.334l0.716-0.025v-0.341h0.334
		v-0.313l0.291-0.332l0.717-0.025v-0.346h0.336v-0.313l0.626-0.674l0.712-0.026V230.5h3.046l0.262-0.308l0.353-0.029l1.541-1.203
		l0.599-0.604l2.164-1.258l0.129,0.047l0.125,0.089c0.088,0.062,0.162,0.119,0.211,0.163c0.275,0.407,0.022,1.907-0.258,3.323
		c-0.078,0.403-0.145,0.743-0.188,0.993c-0.129,0.139-0.312,0.25-0.434,0.316c-0.422,0.252-0.99,0.593-0.822,1.218l0.346,1.224
		l-0.197-0.092c-1.93-0.888-2.396-1.044-2.658-1.044l-0.41,0.015l-2.989,4.764c-0.144,0.228-0.563,0.389-0.97,0.546
		c-0.666,0.257-1.492,0.575-1.75,1.456l-1.713,5.91c-0.067,0.225-0.131,0.543-0.201,0.903l-0.028,0.146
		c-0.215,1.146-0.458,2.241-0.771,2.51c-1.32,1.136-1.893,2.348-2.553,3.752l-0.31,0.647c-0.136,0.277-0.261,0.556-0.375,0.819
		c-0.552,1.228-0.945,2.108-2.13,2.609c-0.859,0.368-1.911,0.558-2.93,0.739l-0.795,0.146l-0.023-0.094
		c-0.025-0.109-0.072-0.216-0.139-0.313c-0.048-0.072-0.105-0.143-0.182-0.21l-0.08-0.073l0.652-0.604l-1.672-0.241
		c-0.243-0.04-0.428-0.068-0.573-0.068c-0.769,0-1.019,0.611-1.19,1.187c-0.061,0.081-0.152,0.152-0.523,0.332
		c-0.463,0.233-1.159,0.588-1.02,1.303c0.018,0.101,0.158,0.493,0.397,0.852l0.069,0.106l-0.121,0.043
		c-0.25,0.089-0.479,0.173-0.662,0.253l-6.299,2.834c-0.826,0.366-1.141,0.957-1.394,1.431c-0.198,0.355-0.354,0.639-0.683,0.87
		l-5.187,3.63c-0.759,0.528-0.897,1.552-1.021,2.453c-0.082,0.61-0.158,1.179-0.365,1.479c-0.242,0.353-0.484,0.771-0.739,1.216
		c-0.614,1.06-1.286,2.211-2.081,2.686l-2.842,1.66c-0.523,0.31-0.57,0.857-0.143,1.682l0.043,0.082l-0.078,0.049
		c-0.268,0.168-0.432,0.351-0.516,0.57c-0.146,0.396,0.021,0.729,0.154,0.992c0.118,0.237,0.223,0.444,0.229,0.728
		c0,0.103-0.018,0.221-0.051,0.377l-0.062,0.269l-0.127-0.243c-0.162-0.312-0.329-0.495-0.543-0.6
		c-0.21-0.093-0.404-0.14-0.593-0.14c-0.574,0-0.965,0.368-1.188,1.127l-0.025,0.089l-0.092-0.021
		c-0.221-0.05-0.438-0.073-0.652-0.073c-0.516,0-1.244,0.146-1.791,0.833c-0.254,0.324-0.348,0.74-0.438,1.146
		c-0.043,0.187-0.111,0.492-0.115,0.545l0.022,0.146l-0.146-0.051l-3.836-0.851l3.1,1.786l-0.145,0.371
		c-0.307,0.829-0.561,1.518-0.656,2.409c-0.053,0.527,0,0.946,0.172,1.313l0.027,0.062l-3.115,3.48l4.271-0.246
		c0.646-0.038,1.188-0.562,1.636-1.07l0.1-0.113l0.406,0.838l-0.049,0.051c-0.369,0.379-0.73,0.849-0.582,1.449l0.821,3.428
		c0.031,0.131,0.051,0.231,0.063,0.304c0.012,0.056,0.019,0.09,0.023,0.106l0.086,0.096l-0.125,0.041
		c-0.053,0.028-0.135,0.07-0.229,0.112l-0.103,0.045l-0.03-0.108c-0.393-1.169-0.709-1.466-2.26-2.116l-0.175-0.069l-0.022-0.077
		v-0.264c0-1.04-0.321-1.318-1.09-1.591c0,0-0.289-0.104-0.39-0.146c-0.558-0.22-1.213-0.353-1.757-0.353
		c-0.99,0-1.682,0.437-1.891,1.192c-0.021,0.077-0.047,0.203-0.076,0.354l-0.062,0.32c-0.053,0.275-0.132,0.688-0.207,0.915
		l-0.021,0.062c0,0-0.143,0.011-0.188,0.011c-0.159,0-0.364-0.021-0.541-0.036l-0.086-0.009l-0.004-0.087
		c-0.073-1.691-1.278-3.125-2.343-4.391c-0.383-0.458-0.697-0.837-0.979-1.218c-1.144-1.567-2.524-2.586-4-2.944l-0.104-0.024
		c0,0,0.075-0.24,0.095-0.31l0.016-0.061l2.938-0.676l5.104,1.696l-3.477-2.073l0.963-0.218l-1.234-0.782
		c-0.104-0.063-0.211-0.146-0.321-0.234c-0.39-0.303-0.796-0.619-1.263-0.654l-0.105-0.008l0.309-2.1l-0.979,0.405l-0.25,0.095
		l-0.03-0.102c-0.021-0.064-0.036-0.145-0.054-0.216c-0.041-0.174-0.189-0.745-0.189-0.745c0.198-0.876-0.298-1.712-0.625-2.266
		c-0.226-0.393-0.408-0.711-0.418-0.901c-0.029-0.369-0.035-0.77-0.039-1.177l-0.002-0.198c-0.021-1.249-0.039-2.458-0.408-3.509
		c-0.603-1.688-0.916-2.362-2.092-3.299l-0.094-0.074l0.089-0.078c0.288-0.258,0.613-0.646,0.57-1.393l-0.151-2.85
		c-0.062-1.064-0.871-2.342-1.588-3.467c-0.312-0.484-0.576-0.896-0.76-1.248c-0.414-0.8-1.241-1.489-1.973-2.099
		c-0.303-0.252-0.582-0.485-0.812-0.706l-5.918-5.693c-0.28-0.271-0.6-0.352-0.848-0.39l-0.109-0.018l0.188-0.721
		c0.341-1.268,0.663-2.463,0.272-3.899l-0.847-3.11c-0.02-0.08-0.04-0.189-0.062-0.319c-0.158-0.908-0.289-1.521-0.665-1.83
		l-2.816-2.316l1.105-0.104l-0.318-0.976c-0.438-1.333-0.597-1.672-2.04-2.309l-0.432-0.198c-0.562-0.259-0.938-0.363-1.296-0.363
		c-0.459,0-0.932,0.187-1.579,0.619l-0.502,0.336l-0.181-0.111c-0.586-0.388-1.272-0.841-1.928-0.87
		c-0.54,0-1.162,0.289-1.805,0.611l-0.105,0.053l-0.035-0.11c-0.177-0.562-0.407-1.02-1.059-1.678
		c-0.867-0.872-0.976-1.142-1.26-2.413l-0.64-2.892l-0.728,3.981l-0.135-0.268c-0.273-0.543-0.599-0.849-0.996-0.93l-0.125-0.024
		l0.055-0.115c0.103-0.213,0.164-0.458,0.211-0.67c0.222-0.994,0.068-1.36-0.331-2.164l-0.343-0.698l-0.532,0.27
		c-0.073,0.033-0.186,0.101-0.313,0.185l-0.297,0.186l-0.046-0.104c-0.184-0.405-0.422-0.838-0.93-0.838l-0.459,0.038l0.376-0.336
		c0.646-0.58,1.529-1.372,0.839-2.587l-1.266-2.224l1.558,0.122l0.132,0.073c0.399,0.238,0.501,0.336,0.523,0.358
		c0.041,0.12,0.022,0.284-0.023,0.602l-0.13,1.018l0.567,0.096l0.234,0.021c0.981,0,1.538-1.029,1.944-1.78
		c0.099-0.186,0.19-0.354,0.276-0.487l0.176-0.262c0.639-0.945,0.812-1.277,0.56-2.6c-0.044-0.218-0.074-0.479-0.101-0.754
		c-0.092-0.82-0.196-1.742-0.65-2.369l-2.187-3.059c-0.427-0.604-1.398-1.057-2.259-1.057c-0.33,0-0.617,0.07-0.832,0.204
		c-0.186,0.114-0.328,0.167-0.447,0.167c-0.08,0-0.137-0.021-0.184-0.042c-0.221-0.051-0.369-0.079-0.517-0.079
		c-0.65,0-1.095,0.473-1.373,0.825c-0.026,0.033-0.36,0.53-0.36,0.53l-0.236-0.064c-0.471-0.132-0.961-0.26-1.358-0.26
		c-0.192,0-0.349,0.03-0.467,0.091c-0.365,0.187-0.564,0.646-0.827,1.322l-0.238,0.076l0.225-3.203l1.604,0.808l0.236-0.619
		c0.629-1.65,0.604-1.858-0.374-3.188l-3.135-4.253l-1.037,0.777l-0.016-0.179c-0.083-0.907-0.275-1.241-0.736-1.275l-1.557-0.12
		l0.021-0.108c0.146-0.795-0.06-1.104-0.414-1.323l-0.077-0.048l0.04-0.081c0.023-0.047,0.042-0.099,0.062-0.15
		c0.162-0.498,0.043-1.031-0.317-1.429c-0.332-0.353-0.977-0.429-1.853-0.499c-0.253-0.02-0.383-0.029-0.47-0.05l-0.623-0.117
		l-0.077,0.646c-0.104,0.926-0.156,1.268-0.484,1.704l-0.17-0.002c-0.223-0.297-0.469-0.466-0.751-0.516
		c-0.279-0.519-0.747-0.803-1.123-1.031c-0.119-0.067-0.239-0.141-0.342-0.217l-0.802-0.574l-0.136,0.985
		c-0.033,0.235-0.072,0.516-0.11,0.68l-0.017,0.072l-0.25,0.011l-0.554-0.004v0.163c-0.168,0.24-0.242,0.436-0.301,0.589
		c-0.055,0.145-0.072,0.173-0.083,0.188l-0.774,0.979l-0.061-0.014c-0.268-0.06-0.541-0.131-0.799-0.2
		c-0.369-0.097-0.714-0.187-0.995-0.232l-0.134-0.011c-0.405,0-0.761,0.322-1.219,0.778l-0.05,0.05l-0.063-0.03
		c-0.103-0.049-0.229-0.119-0.325-0.174l-0.091-0.052c-0.124-0.072-0.23-0.133-0.298-0.162l-0.469-0.229
		c-0.477-0.235-0.834-0.382-1.147-0.382c-0.07,0-0.136,0.008-0.201,0.021l-0.054,0.013l-1.856-1.854
		c-0.48-0.479-1.213-1.117-2.021-1.117c-0.228,0-0.447,0.049-0.649,0.146l-0.08,0.037l-0.047-0.073
		c-0.608-0.947-1.55-1.484-2.461-2.005c-0.304-0.168-0.609-0.343-0.912-0.533c-0.291-0.186-0.559-0.368-0.813-0.542l-0.109-0.075
		c-0.983-0.68-1.911-1.321-3.27-1.321c-0.238,0-0.49,0.021-0.758,0.062c-0.285,0.045-0.573,0.065-0.882,0.065
		c-0.895,0-1.789-0.186-2.735-0.382l-0.226-0.046c-0.357-0.073-0.723-0.148-1.2-0.222c-0.611,0.001-2.141,1.243-2.33,1.544
		c-0.176,0.271-0.283,0.53-0.319,0.771l-0.012,0.08l-0.081,0.005c-0.46,0.023-0.9,0.229-1.565,0.54l-0.232,0.104
		c-0.418,0.192-0.925,0.278-1.643,0.278c-0.289,0-0.583-0.013-0.875-0.024c-0.304-0.014-0.605-0.023-0.903-0.023
		c-0.953,0-1.827-1.008-2.673-1.98c-0.524-0.602-1.041-1.192-1.595-1.594c-0.983-0.713-1.979-1.497-2.942-2.258l-0.082-0.063
		c-2.262-1.784-4.562-3.599-7.049-4.88l-0.305-0.157l4.781-0.437l-0.627-1.272h3.46v1.354h7.04v1.837H98.73v2.597l0.979,0.946
		l0.027,1.062h0.67v0.706l0.933,0.904l0.558-0.562l1.047-0.026v-2.037h2.68v-1.965l-0.086-0.412h0.555l-0.335-1.694h1.209v-6.981
		l-8.383,0.008l-2.343,0.263v-7.553l9.791-0.318H115.178 M115.178,174.909h-9.146c-0.021,0-0.043,0-0.065,0.001l-9.791,0.318
		c-1.079,0.035-1.935,0.92-1.935,1.999v7.553c0,0.569,0.243,1.111,0.667,1.491c0.369,0.329,0.844,0.509,1.333,0.509
		c0.074,0,0.148-0.004,0.223-0.013l2.233-0.25l6.27-0.006v3.143c-0.29,0.125-0.549,0.317-0.754,0.567
		c-0.38,0.462-0.533,1.07-0.417,1.657l0.048,0.244c-0.268,0.426-0.366,0.94-0.27,1.44h-0.63c-0.654,0-1.236,0.314-1.601,0.8
		c-0.072-0.102-0.153-0.197-0.244-0.285l-0.178-0.172c0.854-0.227,1.484-1.006,1.484-1.933v-1.837c0-1.104-0.896-2-2-2h-5.146
		c-0.269-0.788-1.015-1.354-1.894-1.354h-3.46c-0.691,0-1.333,0.357-1.698,0.943c-0.108,0.174-0.188,0.361-0.238,0.555l-2.4,0.219
		c-0.886,0.081-1.611,0.737-1.781,1.609c-0.17,0.873,0.256,1.753,1.047,2.16l0.305,0.157c2.316,1.194,4.558,2.962,6.726,4.672
		l0.097,0.075c1.05,0.83,2.012,1.584,2.992,2.295c0.377,0.273,0.827,0.789,1.261,1.288c1.036,1.191,2.319,2.667,4.181,2.667
		c0.268,0,0.54,0.009,0.813,0.021l0.066,0.002c0.3,0.012,0.602,0.024,0.899,0.024c1.021,0,1.785-0.143,2.479-0.461l0.216-0.097
		c0.347-0.162,0.742-0.347,0.867-0.368l0.08-0.005c0.938-0.057,1.709-0.758,1.855-1.685c0.208-0.191,0.591-0.479,0.863-0.648
		c0.223,0.041,0.421,0.082,0.618,0.122l0.233,0.047c0.995,0.207,2.032,0.422,3.133,0.422c0.42,0,0.81-0.029,1.193-0.09
		c0.161-0.025,0.312-0.038,0.447-0.038c0.702,0,1.214,0.331,2.132,0.966l0.11,0.076c0.278,0.19,0.564,0.385,0.875,0.583
		c0.347,0.218,0.684,0.412,1.021,0.598c0.744,0.426,1.403,0.802,1.745,1.334l0.045,0.071c0.378,0.591,1.022,0.922,1.686,0.922
		c0.25,0,0.502-0.047,0.745-0.145c0.104,0.062,0.293,0.196,0.591,0.494l1.856,1.854c0.379,0.379,0.889,0.585,1.413,0.585
		c0.064,0,0.129-0.003,0.194-0.009c0.067,0.028,0.17,0.075,0.323,0.15l0.477,0.233c0.012,0.006,0.024,0.012,0.037,0.018
		c0.038,0.02,0.082,0.046,0.131,0.075l0.112,0.063c0.13,0.074,0.309,0.172,0.455,0.242l0.053,0.025
		c0.276,0.133,0.572,0.198,0.866,0.198c0.516,0,1.025-0.2,1.408-0.579l0.05-0.05c0.039-0.039,0.074-0.074,0.107-0.106
		c0.108,0.027,0.22,0.057,0.326,0.084c0.274,0.074,0.576,0.152,0.873,0.218l0.059,0.013c0.145,0.033,0.292,0.048,0.437,0.048
		c0.604,0,1.185-0.273,1.569-0.759l0.774-0.979c0.027-0.035,0.054-0.071,0.079-0.107c0.038-0.054,0.071-0.107,0.101-0.161
		c0.237-0.069,0.457-0.181,0.65-0.328c0.174,0.153,0.375,0.274,0.595,0.358c0.372,0.406,0.897,0.644,1.453,0.65l0.17,0.002
		c0.008,0,0.016,0,0.023,0c0.629,0,1.222-0.296,1.6-0.799c0.11-0.147,0.204-0.291,0.286-0.433c0.079,0.182,0.184,0.353,0.315,0.506
		c-0.045,0.496,0.096,0.993,0.401,1.393c0.346,0.454,0.869,0.738,1.437,0.782l0.517,0.04c0.142,0.602,0.558,1.111,1.133,1.367
		c0.261,0.116,0.538,0.173,0.813,0.173c0.184,0,0.367-0.025,0.544-0.075l1.894,2.569c-0.25,0.034-0.495,0.115-0.721,0.244
		c-0.582,0.331-0.959,0.931-1.006,1.599l-0.225,3.203c-0.046,0.662,0.238,1.303,0.76,1.713c0.357,0.28,0.793,0.427,1.235,0.427
		c0.205,0,0.41-0.031,0.61-0.095l0.238-0.076c0.575-0.184,1.036-0.618,1.254-1.18c0.002-0.005,0.004-0.012,0.007-0.018
		c0.101,0.027,0.188,0.051,0.241,0.066l0.25,0.068c0.174,0.047,0.352,0.07,0.526,0.07c0.655,0,1.282-0.322,1.66-0.885
		c0-0.001,0.173-0.258,0.271-0.402c0.165,0.035,0.331,0.053,0.502,0.053c0.444,0,0.881-0.121,1.33-0.368
		c0.238,0.021,0.514,0.151,0.598,0.238l2.169,3.037c0.153,0.218,0.242,1.006,0.29,1.43c0.027,0.28,0.063,0.61,0.127,0.926
		c0.083,0.434,0.072,0.566,0.07,0.58c-0.028,0.062-0.237,0.372-0.327,0.504l-0.179,0.267c-0.007,0.01-0.013,0.021-0.02,0.031
		c-0.174-0.139-0.394-0.286-0.686-0.46c-0.018-0.011-0.036-0.021-0.054-0.032l-0.132-0.073c-0.251-0.139-0.529-0.223-0.815-0.246
		l-1.558-0.122c-0.052-0.004-0.104-0.006-0.157-0.006c-0.681,0-1.319,0.347-1.688,0.928c-0.397,0.625-0.416,1.418-0.049,2.062
		l1.155,2.029c-0.103,0.104-0.232,0.22-0.325,0.303l-0.373,0.333c-0.641,0.573-0.844,1.491-0.505,2.281
		c0.284,0.661,0.896,1.108,1.589,1.195c0.254,0.396,0.642,0.692,1.097,0.832c0.131,0.04,0.265,0.066,0.399,0.079
		c-0.007,0.023-0.012,0.037-0.015,0.044l-0.052,0.108c-0.268,0.558-0.261,1.208,0.017,1.762c0.237,0.472,0.649,0.827,1.142,0.995
		l0.115,0.228c0.343,0.682,1.039,1.101,1.786,1.101c0.094,0,0.189-0.007,0.285-0.021c0.071-0.01,0.14-0.024,0.208-0.041
		c0.194,0.247,0.428,0.504,0.717,0.794c0.435,0.439,0.491,0.619,0.569,0.868l0.038,0.118c0.178,0.557,0.591,1.009,1.13,1.236
		c0.249,0.105,0.512,0.157,0.776,0.157c0.308,0,0.616-0.071,0.898-0.213l0.105-0.053c0.163-0.082,0.628-0.315,0.868-0.383
		c0.192,0.079,0.623,0.363,0.864,0.523c0.019,0.012,0.037,0.024,0.056,0.036l0.181,0.111c0.322,0.197,0.685,0.296,1.047,0.296
		c0.388,0,0.776-0.113,1.112-0.338l0.502-0.336c0.279-0.187,0.427-0.253,0.487-0.275c0.046,0.013,0.177,0.053,0.439,0.174l0.435,0.2
		c0.289,0.127,0.461,0.216,0.564,0.274c-0.174,0.204-0.308,0.444-0.39,0.711c-0.237,0.774,0.017,1.616,0.642,2.13l2.622,2.157
		c0.061,0.223,0.13,0.62,0.159,0.788c0.031,0.182,0.062,0.343,0.092,0.461l0.857,3.15c0.237,0.872,0.06,1.615-0.273,2.854
		l-0.192,0.736c-0.143,0.545-0.048,1.125,0.26,1.597s0.8,0.792,1.356,0.882l0.024,0.004l5.783,5.563
		c0.289,0.277,0.624,0.556,0.919,0.802c0.555,0.463,1.247,1.039,1.476,1.481c0.222,0.425,0.494,0.854,0.855,1.413
		c0.46,0.722,1.239,1.945,1.272,2.5l0.145,2.722c-0.431,0.391-0.671,0.95-0.655,1.533c0.015,0.593,0.293,1.148,0.758,1.517
		l0.094,0.074c0.741,0.59,0.891,0.838,1.449,2.403c0.256,0.727,0.273,1.751,0.292,2.837l0.002,0.217
		c0.004,0.441,0.011,0.873,0.044,1.3c0.045,0.651,0.353,1.188,0.679,1.755c0.141,0.238,0.402,0.68,0.404,0.857
		c-0.07,0.312-0.061,0.606,0.02,0.915c0,0.002,0.14,0.538,0.179,0.701l0.013,0.058c0.024,0.106,0.052,0.213,0.081,0.306l0.02,0.067
		c0.138,0.461,0.437,0.856,0.839,1.113c0.009,0.22,0.055,0.437,0.135,0.642l-1.188,0.273c-0.728,0.167-1.302,0.726-1.488,1.449
		l-0.016,0.061c-0.007,0.022-0.066,0.21-0.067,0.212c-0.166,0.53-0.104,1.106,0.173,1.589c0.275,0.482,0.739,0.829,1.281,0.955
		l0.104,0.024c0.989,0.241,1.978,0.995,2.84,2.176c0.316,0.429,0.652,0.834,1.06,1.322c0.862,1.025,1.835,2.182,1.879,3.194
		l0.004,0.09c0.045,0.991,0.809,1.799,1.795,1.9l0.086,0.009l0.091,0.008c0.221,0.02,0.461,0.038,0.653,0.038
		c0.082,0,0.339-0.017,0.339-0.017c0.815-0.052,1.495-0.594,1.75-1.37l0.021-0.062c0.105-0.318,0.188-0.732,0.271-1.163l0.047-0.242
		c0.006,0,0.012,0,0.018,0c0.288,0,0.7,0.086,1.023,0.213c0.042,0.017,0.128,0.049,0.213,0.081v0.058c0,0.189,0.027,0.377,0.08,0.56
		l0.022,0.077c0.172,0.592,0.608,1.072,1.183,1.299l0.175,0.069c0.687,0.289,0.882,0.416,0.935,0.464
		c-0.003,0,0.047,0.079,0.15,0.383l0.016,0.056c0.156,0.558,0.546,1.021,1.07,1.269c0.271,0.128,0.563,0.193,0.856,0.193
		c0.273,0,0.547-0.056,0.803-0.168l0.103-0.045c0.073-0.033,0.139-0.064,0.197-0.093c0.631-0.215,1.113-0.731,1.286-1.376
		c0.127-0.476,0.072-0.975-0.142-1.406c-0.006-0.026-0.012-0.053-0.019-0.081l-0.729-3.042l0.035-0.036
		c0.58-0.604,0.723-1.505,0.357-2.258l-0.406-0.838c-0.292-0.603-0.867-1.019-1.531-1.109c-0.09-0.012-0.18-0.018-0.269-0.018
		c-0.318,0-0.629,0.076-0.909,0.218c0.05-0.361,0-0.735-0.154-1.082l-0.027-0.062c-0.011-0.022-0.029-0.096-0.009-0.302
		c0.067-0.633,0.267-1.17,0.542-1.915l0.067-0.172c0.127-0.066,0.249-0.146,0.361-0.24c0.476-0.396,0.738-0.985,0.721-1.594
		c0.015-0.065,0.03-0.132,0.043-0.186c0.027-0.124,0.066-0.299,0.096-0.394c0.029-0.018,0.08-0.034,0.184-0.034
		c0.07,0,0.14,0.008,0.212,0.024l0.097,0.021c0.146,0.032,0.293,0.049,0.437,0.049c0.522,0,1.017-0.206,1.384-0.558
		c0.32,0.208,0.698,0.323,1.09,0.323c0.085,0,0.171-0.005,0.256-0.017c0.831-0.106,1.508-0.72,1.694-1.537l0.062-0.269
		c0.051-0.238,0.102-0.515,0.102-0.824c-0.009-0.452-0.103-0.819-0.211-1.11c0.382-0.49,0.518-1.138,0.354-1.747l2.019-1.179
		c1.264-0.754,2.081-2.165,2.803-3.41c0.257-0.448,0.465-0.806,0.657-1.086c0.477-0.69,0.59-1.53,0.698-2.343
		c0.048-0.348,0.126-0.917,0.23-1.114l5.142-3.599c0.704-0.496,1.036-1.091,1.278-1.526c0.239-0.448,0.288-0.508,0.462-0.585
		l6.309-2.838c0.127-0.055,0.311-0.121,0.512-0.192l0.12-0.043c0.577-0.205,1.029-0.663,1.226-1.244
		c0.148-0.439,0.139-0.911-0.02-1.337c0.229-0.134,0.452-0.296,0.654-0.518c0.348,0.635,1.021,1.038,1.752,1.038
		c0.119,0,0.24-0.011,0.362-0.033l0.795-0.146c1.063-0.19,2.279-0.407,3.356-0.868c1.896-0.802,2.569-2.298,3.163-3.619
		c0.117-0.271,0.229-0.521,0.351-0.769l0.318-0.664c0.612-1.304,1.052-2.238,2.053-3.099c0.756-0.65,1.063-1.697,1.432-3.657
		l0.026-0.135c0.043-0.223,0.11-0.565,0.153-0.708l1.688-5.823c0.132-0.08,0.405-0.185,0.578-0.252
		c0.618-0.239,1.447-0.56,1.942-1.345l2.237-3.565c0.305,0.132,0.722,0.318,1.293,0.581l0.189,0.088
		c0.27,0.125,0.558,0.187,0.844,0.187c0.466,0,0.928-0.163,1.297-0.477c0.595-0.507,0.841-1.314,0.628-2.067l-0.106-0.376
		c0.213-0.146,0.396-0.304,0.557-0.476c0.265-0.284,0.44-0.64,0.506-1.022c0.038-0.218,0.094-0.507,0.16-0.849l0.021-0.103
		c0.502-2.54,0.615-3.841-0.05-4.824c-0.091-0.135-0.197-0.258-0.318-0.367c-0.091-0.082-0.227-0.19-0.39-0.306l-0.125-0.089
		c-0.146-0.104-0.307-0.188-0.476-0.25l-0.129-0.047c-0.222-0.081-0.453-0.121-0.684-0.121c-0.349,0-0.696,0.091-1.005,0.271
		l-2.164,1.258c-0.152,0.088-0.291,0.196-0.415,0.321l-0.51,0.513l-0.997,0.779c-0.225,0.05-0.438,0.138-0.631,0.26h-2.242
		c-0.479,0-0.918,0.168-1.262,0.448c-0.348,0.1-0.665,0.292-0.915,0.562l-0.626,0.674c-0.021,0.021-0.039,0.043-0.059,0.065
		c-0.024,0.018-0.048,0.037-0.071,0.056c-0.37,0.104-0.705,0.313-0.962,0.606l-0.291,0.332c-0.008,0.009-0.015,0.018-0.022,0.026
		c-0.02,0.015-0.039,0.03-0.058,0.045c-0.377,0.104-0.718,0.318-0.979,0.619l-0.289,0.334c-0.004,0.004-0.008,0.009-0.012,0.014
		c-0.144,0.106-0.272,0.23-0.383,0.37c-0.829,0.244-1.435,1.011-1.435,1.919v3.349c-0.603,0.345-1.008,0.993-1.008,1.737v3.775
		l-1.942,0.005l-0.296-0.146c-0.274-0.134-0.575-0.204-0.881-0.204h-7.147v-4.784c0-1.104-0.896-2-2-2h-3.699v-1.395
		c0-1.104-0.896-2-2-2h-0.366l-0.008-0.776c-0.004-0.432-0.148-0.848-0.405-1.187c-0.103-0.379-0.316-0.722-0.617-0.983
		l-0.338-0.294c-0.001-0.001-0.001-0.001-0.002-0.002c-0.057-0.079-0.12-0.153-0.188-0.223c-0.016-0.038-0.033-0.076-0.052-0.113
		l-0.491-0.994c-0.22-0.445-0.594-0.787-1.044-0.969c-0.298-0.729-1.015-1.243-1.852-1.243h-0.284
		c-0.231-0.09-0.477-0.135-0.722-0.135c-0.243,0-0.487,0.044-0.719,0.134H212.9c-0.598,0-1.135,0.263-1.501,0.679
		c-0.02-0.001-0.038-0.001-0.058-0.001h-2.398c-0.167-0.141-0.357-0.255-0.568-0.336c-0.233-0.091-0.479-0.135-0.721-0.135
		c-0.347,0-0.689,0.09-0.992,0.263v-0.505c0-1.104-0.896-2-2-2h-3.828c-1.104,0-2,0.896-2,2v2.748h-6.588v-2.748
		c0-1.104-0.896-2-2-2h-3.029v-2.746c0-1.104-0.896-2-2-2h-2.689v-1.733c0-1.104-0.896-2-2-2h-5.71v-7.497c0-1.104-0.896-2-2-2
		h-7.718v-2.746c0-1.104-0.896-2-2-2h-4.371v-5.123c0-1.104-0.896-2-2-2h-3.496c-1.104,0-2,0.896-2,2v1.257
		c-0.125-0.061-0.258-0.109-0.396-0.143l-1.047-0.797c-0.058-0.044-0.119-0.086-0.182-0.124l-1.568-0.942
		c-0.122-0.073-0.251-0.133-0.385-0.179L147,195.09c-0.254-0.227-0.567-0.391-0.913-0.465c-0.092-0.174-0.211-0.334-0.353-0.476
		c-0.375-0.374-0.883-0.584-1.413-0.584c-0.001,0-0.003,0-0.005,0l-0.759,0.002c-0.136,0-0.272,0.015-0.406,0.043l-1.324,0.278
		l-1.096,0.007c-0.316-0.209-0.695-0.331-1.102-0.331h-0.263c-0.089-0.158-0.199-0.305-0.33-0.435
		c-0.375-0.375-0.884-0.585-1.414-0.585h0l-3.583,0.001l-1.806-0.297l-0.892-0.286c-0.197-0.063-0.404-0.096-0.611-0.096
		c-0.008,0-0.016,0-0.023,0l-0.532,0.006l-0.273-0.136c-0.224-0.112-0.467-0.18-0.717-0.202l-0.138-0.012l-0.47-0.154l-0.051-0.049
		l-0.279-5.69c-0.052-1.065-0.931-1.902-1.998-1.902h0l-5.404,0.002c-0.157,0-0.313,0.019-0.465,0.055l-1.173,0.281h-1.767
		l-0.265-7.229C117.138,175.761,116.254,174.909,115.178,174.909L115.178,174.909z"/>
</g>
</svg>
