<?xml version="1.0" encoding="utf-8"?>
<!-- Generator: Adobe Illustrator 16.0.0, SVG Export Plug-In . SVG Version: 6.00 Build 0)  -->
<!DOCTYPE svg PUBLIC "-//W3C//DTD SVG 1.1//EN" "http://www.w3.org/Graphics/SVG/1.1/DTD/svg11.dtd">
<svg version="1.1" id="Layer_1" xmlns="http://www.w3.org/2000/svg" xmlns:xlink="http://www.w3.org/1999/xlink" x="0px" y="0px"
	 width="216px" height="42px" viewBox="0 0 216 42" enable-background="new 0 0 216 42" xml:space="preserve">
<g>
	<path fill="#1680C4" d="M31.052,12.623c0,0-0.676-0.052-2.53,0.604c-1.033,0.371-1.75,0.749-2.536,1.398
		c-0.343-0.6-0.801-1.624,0.527-2.273C28.005,11.623,29.342,12.367,31.052,12.623 M35.161,12.797
		c3.606,0.061,4.598,0.629,4.598,0.629c-0.348,0.508-0.595,1.088-0.783,1.734c-0.177,0.631-0.25,1.262-0.241,1.893
		c-0.009,0.629,0.064,1.289,0.239,1.92c0.182,0.641,0.435,1.223,0.785,1.73l-0.012,0.082c-0.325,0.602-0.591,1.422-1.037,1.5
		c-0.484,0.082-2.484-0.266-1.736-0.852c0.103-0.078,0.194-0.146,0.279-0.209c-0.637,0.062-1.418,0.105-2.371,0.117
		c-0.494-0.844-0.858-1.787-1.01-2.824C33.582,16.477,34.101,14.47,35.161,12.797 M20.079,17.023c0-1.703,0.395-2.973,0.502-3.352
		c0.506-1.771,3.122,2.928,4.885,1.891c0.599-0.355,2.583-2.658,8.218-2.762c0.287-0.009,0.562-0.009,0.825-0.009
		c-1.015,1.647-1.489,3.638-1.211,5.665c0.146,1.059,0.486,2.031,0.978,2.885c-0.193,0-0.389-0.006-0.591-0.008
		c-5.635-0.105-7.625-2.41-8.224-2.764c-1.76-1.039-4.378,3.658-4.879,1.893C20.471,20.082,20.079,18.723,20.079,17.023
		 M39.19,17.086c-0.012-0.857,0.139-1.725,0.516-2.557c0.166-0.359,0.35-0.68,0.544-0.973c0.106,0.041,2.438,0.98,4.384,2.291
		c0.731,0.49,0.957,0.902,0.839,1.205c0.118,0.303-0.11,0.744-0.839,1.23c-1.946,1.311-4.283,2.248-4.388,2.293
		c-0.195-0.295-0.377-0.617-0.54-0.971C39.33,18.771,39.179,17.949,39.19,17.086 M31.132,21.6c-1.711,0.254-3.053,0.996-4.545,0.268
		c-1.325-0.646-0.866-1.672-0.528-2.273c0.784,0.652,1.506,1.029,2.54,1.398C30.447,21.65,31.132,21.6,31.132,21.6"/>
	<polygon fill="#1680C4" points="61,6 63.194,6 66.589,13.012 66.613,13.012 66.613,6 68.323,6 68.323,15.373 66.141,15.373 
		62.733,8.365 62.711,8.365 62.711,15.373 61,15.373 	"/>
	<path fill="#1680C4" d="M70.179,8.82c0.663-0.322,1.557-0.523,2.284-0.523c2.004,0,2.832,0.872,2.832,2.914v0.885
		c0,0.699,0.013,1.224,0.026,1.733c0.014,0.522,0.039,1.007,0.076,1.544h-1.506c-0.063-0.363-0.063-0.816-0.074-1.033h-0.026
		c-0.395,0.764-1.249,1.195-2.03,1.195c-1.161,0-2.295-0.74-2.295-2.054c0-1.035,0.472-1.641,1.12-1.976
		c0.65-0.337,1.495-0.402,2.21-0.402h0.944c0-1.115-0.473-1.491-1.48-1.491c-0.729,0-1.454,0.296-2.028,0.753L70.179,8.82z
		 M72.184,14.218c0.521,0,0.931-0.241,1.196-0.617c0.282-0.39,0.36-0.888,0.36-1.423h-0.742c-0.764,0-1.901,0.133-1.901,1.195
		C71.097,13.963,71.572,14.218,72.184,14.218"/>
	<path fill="#1680C4" d="M77.16,9.773h-1.264V8.457h1.264V7.076l1.71-0.579v1.96h1.517v1.316H78.87v3.223
		c0,0.592,0.151,1.142,0.804,1.142c0.306,0,0.601-0.067,0.778-0.188l0.051,1.423c-0.357,0.107-0.752,0.162-1.262,0.162
		c-1.339,0-2.081-0.871-2.081-2.242V9.773z"/>
	<path fill="#1680C4" d="M87.204,15.373h-1.619v-0.939h-0.027c-0.522,0.672-1.264,1.102-2.156,1.102
		c-1.557,0-2.233-1.153-2.233-2.712V8.456h1.71v3.694c0,0.846,0.013,1.986,1.11,1.986c1.237,0,1.505-1.408,1.505-2.297V8.456h1.711
		V15.373z"/>
	<path fill="#1680C4" d="M88.646,8.457h1.518v1.572h0.025c0.077-0.645,0.779-1.734,1.8-1.734c0.164,0,0.344,0,0.523,0.057v1.811
		c-0.156-0.092-0.462-0.146-0.766-0.146c-1.391,0-1.391,1.826-1.391,2.818v2.539h-1.71V8.457z"/>
	<path fill="#1680C4" d="M93.349,8.82c0.666-0.322,1.558-0.523,2.286-0.523c2.001,0,2.833,0.872,2.833,2.914v0.885
		c0,0.699,0.01,1.224,0.026,1.733c0.011,0.522,0.035,1.007,0.073,1.544h-1.503C97,15.01,97,14.557,96.987,14.34H96.96
		c-0.397,0.764-1.248,1.195-2.028,1.195c-1.163,0-2.296-0.74-2.296-2.054c0-1.035,0.472-1.641,1.12-1.976
		c0.653-0.337,1.495-0.402,2.21-0.402h0.944c0-1.115-0.474-1.491-1.48-1.491c-0.727,0-1.454,0.296-2.027,0.753L93.349,8.82z
		 M95.354,14.218c0.523,0,0.931-0.241,1.199-0.617c0.281-0.39,0.357-0.888,0.357-1.423h-0.743c-0.762,0-1.9,0.133-1.9,1.195
		C94.267,13.963,94.741,14.218,95.354,14.218"/>
	<rect x="99.85" y="5.302" fill="#1680C4" width="1.711" height="10.071"/>
	<path fill="#1680C4" d="M106.522,5.999h1.928c1.915,0,4.199-0.065,4.199,2.538c0,1.102-0.703,2.016-1.839,2.176v0.028
		c0.485,0.039,0.767,0.549,0.945,0.966l1.431,3.666h-1.991l-1.073-2.929c-0.256-0.696-0.484-0.964-1.239-0.964h-0.573v3.893h-1.787
		V5.999z M108.31,10.002h0.589c0.878,0,1.886-0.134,1.886-1.305c0-1.125-0.994-1.221-1.886-1.221h-0.589V10.002z"/>
	<path fill="#1680C4" d="M119.223,14.982c-0.627,0.365-1.343,0.551-2.261,0.551c-2.17,0-3.432-1.314-3.432-3.584
		c0-2.002,1.011-3.654,3.052-3.654c2.436,0,3.124,1.76,3.124,4.178h-4.542c0.075,1.113,0.814,1.746,1.874,1.746
		c0.83,0,1.545-0.322,2.185-0.699V14.982z M118.073,11.238c-0.051-0.872-0.435-1.626-1.392-1.626s-1.442,0.699-1.518,1.626H118.073z
		"/>
	<path fill="#1680C4" d="M124.698,9.908c-0.523-0.188-0.904-0.296-1.531-0.296c-0.458,0-1.007,0.174-1.007,0.767
		c0,1.101,2.972,0.4,2.972,2.9c0,1.611-1.364,2.254-2.754,2.254c-0.652,0-1.317-0.117-1.94-0.295l0.103-1.477
		c0.533,0.281,1.098,0.456,1.683,0.456c0.435,0,1.124-0.175,1.124-0.845c0-1.357-2.973-0.43-2.973-2.928
		c0-1.492,1.236-2.15,2.577-2.15c0.803,0,1.326,0.135,1.862,0.257L124.698,9.908z"/>
	<path fill="#1680C4" d="M129.156,8.297c1.952,0,3.447,1.383,3.447,3.664c0,1.988-1.266,3.576-3.447,3.576
		c-2.17,0-3.434-1.588-3.434-3.576C125.723,9.68,127.219,8.297,129.156,8.297 M129.156,14.14c1.316,0,1.658-1.237,1.658-2.392
		c0-1.062-0.534-2.055-1.658-2.055c-1.11,0-1.646,1.018-1.646,2.055C127.51,12.889,127.854,14.14,129.156,14.14"/>
	<path fill="#1680C4" d="M139.648,15.373h-1.62v-0.939h-0.024c-0.522,0.672-1.265,1.102-2.157,1.102
		c-1.558,0-2.231-1.153-2.231-2.712V8.456h1.709v3.694c0,0.846,0.011,1.986,1.11,1.986c1.234,0,1.503-1.408,1.503-2.297V8.456h1.711
		V15.373z"/>
	<path fill="#1680C4" d="M141.092,8.457h1.519v1.572h0.023c0.079-0.645,0.778-1.734,1.799-1.734c0.168,0,0.344,0,0.525,0.057v1.811
		c-0.154-0.092-0.46-0.146-0.765-0.146c-1.391,0-1.391,1.826-1.391,2.818v2.539h-1.711V8.457z"/>
	<path fill="#1680C4" d="M149.996,9.948c-0.307-0.149-0.639-0.254-1.162-0.254c-1.058,0-1.733,0.886-1.733,2.188
		c0,1.274,0.572,2.254,1.771,2.254c0.485,0,1.021-0.186,1.315-0.321l0.076,1.491c-0.496,0.162-1.007,0.227-1.709,0.227
		c-2.157,0-3.242-1.542-3.242-3.65c0-2.002,1.124-3.587,3.176-3.587c0.689,0,1.189,0.081,1.66,0.229L149.996,9.948z"/>
	<path fill="#1680C4" d="M156.317,14.982c-0.628,0.365-1.34,0.551-2.259,0.551c-2.169,0-3.432-1.314-3.432-3.584
		c0-2.002,1.007-3.654,3.048-3.654c2.438,0,3.129,1.76,3.129,4.178h-4.544c0.077,1.113,0.814,1.746,1.874,1.746
		c0.83,0,1.545-0.322,2.184-0.699V14.982z M155.169,11.238c-0.053-0.872-0.435-1.626-1.39-1.626c-0.958,0-1.442,0.699-1.52,1.626
		H155.169z"/>
	<path fill="#1680C4" d="M161.794,9.908c-0.522-0.188-0.906-0.296-1.53-0.296c-0.462,0-1.011,0.174-1.011,0.767
		c0,1.101,2.975,0.4,2.975,2.9c0,1.611-1.363,2.254-2.756,2.254c-0.651,0-1.314-0.117-1.94-0.295l0.103-1.477
		c0.536,0.281,1.097,0.456,1.686,0.456c0.431,0,1.121-0.175,1.121-0.845c0-1.357-2.973-0.43-2.973-2.928
		c0-1.492,1.239-2.15,2.578-2.15c0.804,0,1.328,0.135,1.861,0.257L161.794,9.908z"/>
	<path fill="#3399D1" d="M60.876,28.092c0.529,0.336,1.15,0.529,1.987,0.529c1.109,0,2.025-0.566,2.025-1.846
		c0-1.768-4.127-1.986-4.127-4.35c0-1.441,1.266-2.344,2.85-2.344c0.437,0,1.148,0.062,1.769,0.295l-0.144,0.812
		c-0.399-0.219-1.033-0.334-1.639-0.334c-0.927,0-1.949,0.385-1.949,1.547c0,1.807,4.131,1.818,4.131,4.451
		c0,1.818-1.563,2.543-2.955,2.543c-0.878,0-1.562-0.184-2.038-0.389L60.876,28.092z"/>
	<path fill="#3399D1" d="M69.806,20.236h1.005l3.574,9.004h-0.928l-0.969-2.412h-4.539l-0.968,2.412h-0.864L69.806,20.236z
		 M70.246,21.086l-1.962,4.969h3.907L70.246,21.086z"/>
	<polygon fill="#3399D1" points="78.604,20.234 79.983,20.234 83.276,28.154 86.579,20.234 87.854,20.234 87.854,29.242 
		86.963,29.242 86.963,21.125 86.939,21.125 83.662,29.242 82.901,29.242 79.521,21.125 79.495,21.125 79.495,29.242 78.604,29.242 
			"/>
	<path fill="#3399D1" d="M94.614,27.691c0,0.502,0,1.02,0.051,1.547h-0.788v-1.174h-0.022c-0.272,0.596-0.764,1.33-2.13,1.33
		c-1.627,0-2.245-1.086-2.245-2.529v-4.203h0.813v3.996c0,1.238,0.437,2.039,1.559,2.039c1.487,0,1.95-1.303,1.95-2.398v-3.637
		h0.812V27.691z"/>
	<path fill="#3399D1" d="M96.053,24.133c0-0.723,0-0.992-0.053-1.471h0.812v1.264h0.026c0.295-0.736,0.851-1.42,1.689-1.42
		c0.194,0,0.428,0.039,0.568,0.078v0.85c-0.169-0.053-0.386-0.076-0.594-0.076c-1.288,0-1.64,1.445-1.64,2.631v3.252h-0.811V24.133z
		"/>
	<path fill="#3399D1" d="M99.841,24.133c0-0.723,0-0.992-0.053-1.471h0.812v1.264h0.027c0.297-0.736,0.852-1.42,1.688-1.42
		c0.194,0,0.428,0.039,0.572,0.078v0.85c-0.169-0.053-0.387-0.076-0.597-0.076c-1.288,0-1.639,1.445-1.639,2.631v3.252h-0.812
		V24.133z"/>
	<path fill="#3399D1" d="M107.242,28.182h-0.028c-0.359,0.787-1.274,1.213-2.087,1.213c-1.872,0-2.171-1.264-2.171-1.857
		c0-2.205,2.351-2.309,4.055-2.309h0.151v-0.336c0-1.121-0.399-1.689-1.497-1.689c-0.681,0-1.328,0.152-1.936,0.541v-0.787
		c0.506-0.244,1.354-0.449,1.936-0.449c1.63,0,2.312,0.732,2.312,2.449v2.902c0,0.529,0,0.928,0.063,1.381h-0.798V28.182z
		 M107.162,25.924h-0.23c-1.407,0-3.083,0.143-3.083,1.586c0,0.865,0.618,1.189,1.368,1.189c1.91,0,1.945-1.664,1.945-2.375V25.924z
		"/>
	<path fill="#3399D1" d="M111.225,30.221c-0.311,0.902-0.773,1.807-1.69,1.807c-0.297,0-0.606-0.039-0.878-0.104l0.076-0.697
		c0.156,0.051,0.311,0.102,0.608,0.102c0.696,0,0.928-0.578,1.186-1.428l0.169-0.582l-2.336-6.656h0.893l1.843,5.496l-0.013-0.016
		h0.026l1.896-5.48h0.852L111.225,30.221z"/>
	<rect x="114.033" y="25.316" fill="#3399D1" width="3.236" height="0.893"/>
	<path fill="#3399D1" d="M118.708,20.236h2.229c3.224,0,4.503,1.857,4.503,4.488c0,3.264-2.181,4.516-5.161,4.516h-1.571V20.236z
		 M119.596,28.467h0.737c2.552,0,4.218-1.033,4.218-3.793c0-2.75-1.639-3.664-3.653-3.664h-1.302V28.467z"/>
	<path fill="#3399D1" d="M130.378,28.182h-0.027c-0.359,0.787-1.276,1.213-2.088,1.213c-1.87,0-2.169-1.264-2.169-1.857
		c0-2.205,2.351-2.309,4.052-2.309h0.154v-0.336c0-1.121-0.399-1.689-1.496-1.689c-0.684,0-1.328,0.152-1.937,0.541v-0.787
		c0.504-0.244,1.355-0.449,1.937-0.449c1.626,0,2.31,0.732,2.31,2.449v2.902c0,0.529,0,0.928,0.062,1.381h-0.798V28.182z
		 M130.3,25.924h-0.23c-1.407,0-3.084,0.143-3.084,1.586c0,0.865,0.617,1.189,1.366,1.189c1.911,0,1.948-1.664,1.948-2.375V25.924z"
		/>
	<path fill="#3399D1" d="M132.469,24.133c0-0.723,0-0.992-0.051-1.471h0.81v1.264h0.027c0.297-0.736,0.852-1.42,1.69-1.42
		c0.192,0,0.426,0.039,0.569,0.078v0.85c-0.168-0.053-0.389-0.076-0.597-0.076c-1.287,0-1.638,1.445-1.638,2.631v3.252h-0.812
		V24.133z"/>
	<rect x="136.231" y="19.564" fill="#3399D1" width="0.811" height="9.676"/>
	<path fill="#3399D1" d="M138.459,29.24h0.814v-6.576h-0.814V29.24z M138.459,20.904h0.814v-1.082h-0.814V20.904z"/>
	<path fill="#3399D1" d="M140.695,24.209c0-0.504,0-1.02-0.054-1.549h0.788v1.174h0.025c0.272-0.594,0.76-1.33,2.128-1.33
		c1.627,0,2.247,1.086,2.247,2.531v4.203h-0.813V25.24c0-1.238-0.439-2.037-1.562-2.037c-1.485,0-1.949,1.303-1.949,2.398v3.637
		h-0.811V24.209z"/>
	<path fill="#3399D1" d="M152.496,28.699c0,1.83-0.825,3.326-3.081,3.326c-0.867,0-1.655-0.246-1.988-0.346l0.062-0.814
		c0.505,0.258,1.226,0.463,1.937,0.463c2.091,0,2.27-1.521,2.27-3.377h-0.023c-0.439,0.953-1.163,1.289-1.999,1.289
		c-2.104,0-2.774-1.832-2.774-3.289c0-2,0.772-3.447,2.708-3.447c0.879,0,1.444,0.119,2.052,0.906h0.024v-0.75h0.814V28.699z
		 M149.686,28.545c1.47,0,1.996-1.395,1.996-2.594c0-1.588-0.463-2.748-1.946-2.748c-1.55,0-1.947,1.471-1.947,2.748
		C147.788,27.24,148.306,28.545,149.686,28.545"/>
	<path fill="#3399D1" d="M157.412,20.234h2.143c1.469,0,2.849,0.49,2.849,2.219c0,1.148-0.526,1.834-1.637,2.053v0.027
		c1.133,0.205,1.909,0.953,1.909,2.139c0,1.961-1.599,2.57-3.473,2.57h-1.791V20.234z M158.302,28.467h0.929
		c1.2,0,2.556-0.324,2.556-1.756c0-1.6-1.38-1.768-2.699-1.768h-0.785V28.467z M158.329,24.17h0.989
		c0.946,0,2.197-0.246,2.197-1.676c0-1.305-1.201-1.484-1.961-1.484h-1.226V24.17z"/>
	<path fill="#3399D1" d="M167.811,28.182h-0.027c-0.36,0.787-1.276,1.213-2.088,1.213c-1.873,0-2.17-1.264-2.17-1.857
		c0-2.205,2.349-2.309,4.053-2.309h0.153v-0.336c0-1.121-0.4-1.689-1.494-1.689c-0.685,0-1.33,0.152-1.937,0.541v-0.787
		c0.504-0.244,1.354-0.449,1.937-0.449c1.625,0,2.307,0.732,2.307,2.449v2.902c0,0.529,0,0.928,0.064,1.381h-0.798V28.182z
		 M167.731,25.924h-0.232c-1.404,0-3.081,0.143-3.081,1.586c0,0.865,0.617,1.189,1.367,1.189c1.91,0,1.946-1.664,1.946-2.375V25.924
		z"/>
	<path fill="#3399D1" d="M169.431,28.285c0.487,0.246,1.08,0.414,1.715,0.414c0.774,0,1.456-0.428,1.456-1.174
		c0-1.562-3.158-1.318-3.158-3.227c0-1.305,1.055-1.793,2.142-1.793c0.347,0,1.043,0.078,1.625,0.297l-0.078,0.709
		c-0.427-0.193-1.006-0.309-1.459-0.309c-0.838,0-1.42,0.258-1.42,1.096c0,1.225,3.238,1.072,3.238,3.227
		c0,1.393-1.302,1.869-2.297,1.869c-0.63,0-1.262-0.076-1.844-0.309L169.431,28.285z"/>
	<path fill="#3399D1" d="M174.36,29.24h0.812v-6.576h-0.812V29.24z M174.36,20.904h0.812v-1.082h-0.812V20.904z"/>
	<path fill="#3399D1" d="M176.593,24.209c0-0.504,0-1.02-0.051-1.549h0.787v1.174h0.026c0.271-0.594,0.76-1.33,2.127-1.33
		c1.626,0,2.246,1.086,2.246,2.531v4.203h-0.814V25.24c0-1.238-0.438-2.037-1.559-2.037c-1.485,0-1.95,1.303-1.95,2.398v3.637
		h-0.812V24.209z"/>
	<path fill="#FFFFFF" d="M135.83,31.82l0.094-0.041L135.83,31.82z"/>
</g>
</svg>
