<?xml version="1.0" encoding="utf-8"?>
<!-- Generator: Adobe Illustrator 16.0.0, SVG Export Plug-In . SVG Version: 6.00 Build 0)  -->
<!DOCTYPE svg PUBLIC "-//W3C//DTD SVG 1.1//EN" "http://www.w3.org/Graphics/SVG/1.1/DTD/svg11.dtd">
<svg version="1.1" id="Layer_1" xmlns="http://www.w3.org/2000/svg" xmlns:xlink="http://www.w3.org/1999/xlink" x="0px" y="0px"
	 width="146px" height="61px" viewBox="0 0 146 61" enable-background="new 0 0 146 61" xml:space="preserve">
<path fill="#FFFFFF" d="M54.543,32.373c-0.728-0.244-1.527-0.357-2.383-0.357c-1.754,0-3.481,0.812-3.481,3.039
	c0,3.295,4.366,2.51,4.366,4.408c0,0.898-1.013,1.283-1.77,1.283c-0.785,0-1.569-0.242-2.254-0.613l-0.185,1.799
	c0.984,0.242,1.469,0.385,2.553,0.385c2.012,0,3.738-0.828,3.738-3.01c0-3.34-4.366-2.611-4.366-4.338
	c0-1.084,0.884-1.383,1.569-1.383c0.699,0,1.398,0.156,2.026,0.428L54.543,32.373L54.543,32.373z"/>
<path fill-rule="evenodd" clip-rule="evenodd" fill="#FFFFFF" d="M55.944,38.521c0,2.111,1.412,3.795,3.838,3.795
	c2.439,0,3.852-1.684,3.852-3.795c0-2.426-1.669-3.895-3.852-3.895C57.613,34.627,55.944,36.096,55.944,38.521L55.944,38.521z
	 M57.942,38.293c0-1.1,0.599-2.184,1.84-2.184c1.255,0,1.854,1.055,1.854,2.184c0,1.227-0.385,2.539-1.854,2.539
	C58.327,40.832,57.942,39.506,57.942,38.293L57.942,38.293z"/>
<path fill="#FFFFFF" d="M71.527,34.799h-1.912v3.594c0,0.941-0.3,2.439-1.684,2.439c-1.227,0-1.241-1.213-1.241-2.111v-3.922h-1.912
	v4.635c0,1.656,0.756,2.883,2.497,2.883c0.999,0,1.826-0.457,2.412-1.17h0.028v0.998h1.812V34.799L71.527,34.799z"/>
<path fill="#FFFFFF" d="M73.771,39.934c0,1.455,0.828,2.383,2.325,2.383c0.571,0,1.013-0.059,1.412-0.172l-0.056-1.512
	c-0.201,0.129-0.528,0.199-0.871,0.199c-0.728,0-0.899-0.584-0.899-1.213v-3.424h1.698v-1.396h-1.698v-2.086l-1.911,0.615v1.471
	h-1.413v1.396h1.413V39.934L73.771,39.934z"/>
<path fill="#FFFFFF" d="M78.337,42.145h1.912v-3.596c0-0.941,0.299-2.439,1.684-2.439c1.227,0,1.241,1.213,1.241,2.111v3.924h1.913
	v-4.637c0-1.654-0.757-2.881-2.497-2.881c-1,0-1.826,0.455-2.312,1.17h-0.029v-4.352h-1.912V42.145L78.337,42.145z"/>
<path fill-rule="evenodd" clip-rule="evenodd" fill="#FFFFFF" d="M95.874,38.293h-2.911l1.441-4.109h0.029L95.874,38.293
	L95.874,38.293z M89.455,42.145h2.068l0.87-2.281h4.037l0.856,2.281h2.212l-3.909-9.957h-2.254L89.455,42.145L89.455,42.145z"/>
<path fill="#FFFFFF" d="M107.007,34.799h-1.912v3.594c0,0.941-0.299,2.439-1.684,2.439c-1.227,0-1.241-1.213-1.241-2.111v-3.922
	h-1.913v4.635c0,1.656,0.757,2.883,2.497,2.883c1,0,1.826-0.457,2.412-1.17h0.029v0.998h1.811V34.799L107.007,34.799z"/>
<path fill="#FFFFFF" d="M113.117,34.896c-0.6-0.127-1.185-0.27-2.083-0.27c-1.499,0-2.883,0.697-2.883,2.281
	c0,2.654,3.325,1.67,3.325,3.109c0,0.715-0.771,0.9-1.256,0.9c-0.655,0-1.284-0.186-1.883-0.486l-0.113,1.57
	c0.698,0.186,1.44,0.314,2.167,0.314c1.556,0,3.083-0.686,3.083-2.396c0-2.654-3.325-1.912-3.325-3.082
	c0-0.627,0.613-0.812,1.127-0.812c0.699,0,1.126,0.113,1.712,0.312L113.117,34.896L113.117,34.896z"/>
<path fill="#FFFFFF" d="M115.23,39.934c0,1.455,0.828,2.383,2.325,2.383c0.572,0,1.014-0.059,1.412-0.172l-0.057-1.512
	c-0.199,0.129-0.527,0.199-0.87,0.199c-0.728,0-0.899-0.584-0.899-1.213v-3.424h1.698v-1.396h-1.698v-2.086l-1.911,0.615v1.471
	h-1.412v1.396h1.412V39.934L115.23,39.934z"/>
<path fill="#FFFFFF" d="M119.838,42.145h1.913v-2.695c0-1.057,0-2.996,1.555-2.996c0.343,0,0.686,0.057,0.856,0.156v-1.926
	c-0.2-0.057-0.399-0.057-0.584-0.057c-1.142,0-1.926,1.154-2.011,1.84h-0.029v-1.668h-1.698V42.145L119.838,42.145z"/>
<path fill-rule="evenodd" clip-rule="evenodd" fill="#FFFFFF" d="M125.375,36.824c0.643-0.486,1.456-0.799,2.268-0.799
	c1.128,0,1.656,0.398,1.656,1.582h-1.057c-0.799,0-1.74,0.072-2.467,0.43c-0.728,0.355-1.256,0.998-1.256,2.096
	c0,1.398,1.27,2.184,2.568,2.184c0.872,0,1.826-0.457,2.27-1.27h0.028c0.014,0.229,0.014,0.713,0.085,1.098h1.684
	c-0.043-0.57-0.071-1.084-0.085-1.641c-0.015-0.543-0.029-1.1-0.029-1.84v-0.941c0-2.17-0.927-3.096-3.167-3.096
	c-0.813,0-1.812,0.213-2.554,0.557L125.375,36.824L125.375,36.824z M126.346,40.018c0-1.125,1.27-1.268,2.126-1.268h0.828
	c0,0.57-0.086,1.098-0.4,1.512c-0.3,0.4-0.756,0.656-1.341,0.656C126.874,40.918,126.346,40.646,126.346,40.018L126.346,40.018z"/>
<polygon fill="#FFFFFF" points="132.612,42.145 134.523,42.145 134.523,31.445 132.612,31.445 132.612,42.145 "/>
<path fill-rule="evenodd" clip-rule="evenodd" fill="#FFFFFF" d="M136.221,42.145h1.913v-7.346h-1.913V42.145L136.221,42.145z
	 M136.221,33.457h1.913v-1.826h-1.913V33.457L136.221,33.457z"/>
<path fill-rule="evenodd" clip-rule="evenodd" fill="#FFFFFF" d="M140.173,36.824c0.643-0.486,1.455-0.799,2.27-0.799
	c1.126,0,1.654,0.398,1.654,1.582h-1.057c-0.798,0-1.74,0.072-2.467,0.43c-0.728,0.355-1.256,0.998-1.256,2.096
	c0,1.398,1.27,2.184,2.568,2.184c0.871,0,1.826-0.457,2.27-1.27h0.028c0.014,0.229,0.014,0.713,0.086,1.098h1.683
	c-0.042-0.57-0.071-1.084-0.085-1.641c-0.014-0.543-0.029-1.1-0.029-1.84v-0.941c0-2.17-0.927-3.096-3.167-3.096
	c-0.812,0-1.811,0.213-2.554,0.557L140.173,36.824L140.173,36.824z M141.144,40.018c0-1.125,1.27-1.268,2.126-1.268h0.828
	c0,0.57-0.086,1.098-0.4,1.512c-0.3,0.4-0.755,0.656-1.341,0.656C141.672,40.918,141.144,40.646,141.144,40.018L141.144,40.018z"/>
<path fill="#FFFFFF" d="M56.912,18.154c-0.856-0.258-1.769-0.414-2.925-0.414c-3.381,0-5.464,1.912-5.464,5.322
	c0,3.367,2.24,4.979,5.464,4.979c1.07,0,2.169-0.229,3.225-0.514v-5.363h-4.023v1.568h2.111v2.598
	c-0.342,0.084-0.77,0.141-1.312,0.141c-2.125,0-3.381-1.525-3.381-3.551c0-2.041,1.284-3.609,3.609-3.609
	c0.799,0,1.797,0.17,2.568,0.527L56.912,18.154L56.912,18.154z"/>
<path fill-rule="evenodd" clip-rule="evenodd" fill="#FFFFFF" d="M58.314,24.246c0,2.111,1.413,3.795,3.838,3.795
	c2.439,0,3.852-1.684,3.852-3.795c0-2.426-1.669-3.895-3.852-3.895C59.984,20.352,58.314,21.82,58.314,24.246L58.314,24.246z
	 M60.312,24.018c0-1.098,0.6-2.184,1.841-2.184c1.255,0,1.854,1.057,1.854,2.184c0,1.227-0.385,2.541-1.854,2.541
	C60.697,26.559,60.312,25.23,60.312,24.018L60.312,24.018z"/>
<polygon fill="#FFFFFF" points="69.061,27.869 71.215,27.869 73.925,20.523 72.014,20.523 70.245,25.873 70.216,25.873 
	68.39,20.523 66.335,20.523 69.061,27.869 "/>
<path fill-rule="evenodd" clip-rule="evenodd" fill="#FFFFFF" d="M76.083,23.477c0.085-0.984,0.627-1.727,1.698-1.727
	c1.069,0,1.497,0.799,1.555,1.727H76.083L76.083,23.477z M80.619,25.9c-0.712,0.4-1.511,0.742-2.439,0.742
	c-1.184,0-2.012-0.67-2.097-1.854h5.079c0-2.568-0.77-4.438-3.495-4.438c-2.283,0-3.41,1.754-3.41,3.881
	c0,2.41,1.412,3.809,3.838,3.809c1.027,0,1.826-0.199,2.524-0.584V25.9L80.619,25.9z"/>
<path fill="#FFFFFF" d="M82.349,27.869h1.911v-2.695c0-1.055,0-2.996,1.556-2.996c0.342,0,0.685,0.057,0.856,0.156v-1.926
	c-0.201-0.057-0.4-0.057-0.585-0.057c-1.142,0-1.926,1.156-2.012,1.84h-0.028v-1.668h-1.698V27.869L82.349,27.869z"/>
<path fill="#FFFFFF" d="M87.756,27.869h1.913v-3.596c0-0.939,0.3-2.439,1.683-2.439c1.229,0,1.242,1.213,1.242,2.113v3.922h1.911
	v-4.637c0-1.654-0.755-2.881-2.497-2.881c-0.998,0-1.812,0.328-2.41,1.17h-0.029v-0.998h-1.812V27.869L87.756,27.869z"/>
<path fill="#FFFFFF" d="M96.093,27.869h1.911v-3.566c0-0.955,0.156-2.469,1.426-2.469c1.098,0,1.098,0.971,1.098,1.656v4.379h1.913
	v-3.566c0-0.955,0.156-2.469,1.426-2.469c1.099,0,1.099,0.971,1.099,1.656v4.379h1.913v-4.637c0-1.641-0.515-2.881-2.325-2.881
	c-0.899,0-1.855,0.414-2.297,1.299c-0.414-0.914-1.142-1.299-2.169-1.299c-0.713,0-1.583,0.299-2.183,1.197h-0.028v-1.025h-1.783
	V27.869L96.093,27.869z"/>
<path fill-rule="evenodd" clip-rule="evenodd" fill="#FFFFFF" d="M109.809,23.477c0.085-0.984,0.627-1.727,1.698-1.727
	c1.069,0,1.498,0.799,1.555,1.727H109.809L109.809,23.477z M114.346,25.9c-0.714,0.4-1.513,0.742-2.441,0.742
	c-1.184,0-2.012-0.67-2.097-1.854h5.079c0-2.568-0.77-4.438-3.495-4.438c-2.283,0-3.41,1.754-3.41,3.881
	c0,2.41,1.412,3.809,3.838,3.809c1.027,0,1.826-0.199,2.526-0.584V25.9L114.346,25.9z"/>
<path fill="#FFFFFF" d="M116.032,27.869h1.911v-3.596c0-0.939,0.299-2.439,1.684-2.439c1.227,0,1.242,1.213,1.242,2.113v3.922h1.911
	v-4.637c0-1.654-0.755-2.881-2.497-2.881c-0.998,0-1.812,0.328-2.412,1.17h-0.028v-0.998h-1.812V27.869L116.032,27.869z"/>
<path fill="#FFFFFF" d="M125.023,25.658c0,1.455,0.828,2.383,2.325,2.383c0.572,0,1.014-0.057,1.414-0.172l-0.057-1.512
	c-0.201,0.129-0.528,0.201-0.871,0.201c-0.728,0-0.898-0.586-0.898-1.213V21.92h1.697v-1.396h-1.697v-2.084l-1.913,0.613v1.471
	h-1.412v1.396h1.412V25.658L125.023,25.658z"/>
<path fill-rule="evenodd" clip-rule="evenodd" fill="#FFFFFF" d="M132.729,24.246c0,2.111,1.412,3.795,3.838,3.795
	c2.439,0,3.852-1.684,3.852-3.795c0-2.426-1.67-3.895-3.852-3.895C134.398,20.352,132.729,21.82,132.729,24.246L132.729,24.246z
	 M134.726,24.018c0-1.098,0.599-2.184,1.841-2.184c1.254,0,1.854,1.057,1.854,2.184c0,1.227-0.385,2.541-1.854,2.541
	C135.111,26.559,134.726,25.23,134.726,24.018L134.726,24.018z"/>
<path fill="#FFFFFF" d="M142.262,27.869h1.912V21.92h1.669v-1.396h-1.669v-0.914c0-0.57,0.2-1.127,0.842-1.127
	c0.413,0,0.655,0.156,0.827,0.256L146,17.154c-0.371-0.084-0.913-0.156-1.398-0.156c-1.513,0-2.34,1.027-2.34,2.498v1.027h-1.413
	v1.396h1.413V27.869L142.262,27.869z"/>
<g>
	<path fill-rule="evenodd" clip-rule="evenodd" fill="#FFFFFF" d="M30.067,25.307c1.885,3.635,1.162,8.703-1.55,11.725
		c-2.821,3.201-6.863,4.461-11.053,3.459c-3.739-0.742-7.161-4.402-7.903-8.082c-1.046-4.494,0.768-8.781,4.468-11.389
		c3.106-2.268,8.123-2.475,11.441-0.518C27.369,21.496,29.164,23.402,30.067,25.307L30.067,25.307z M30.351,25.486
		c1.847,3.863,0.943,8.955-2.014,12.01c-2.841,2.994-6.921,4.178-11.002,3.15c-3.984-0.865-7.535-4.816-8.083-8.832
		c-0.743-4.371,1.071-8.316,4.571-10.873c3.202-2.422,8.522-2.588,11.931-0.49C27.691,21.529,29.486,23.512,30.351,25.486
		L30.351,25.486z"/>
	<path fill-rule="evenodd" clip-rule="evenodd" fill="#FFFFFF" d="M8.27,34.141c0.277,0.494,0.606,0.973,0.826,1.494
		c-0.194,0.084-0.22-0.213-0.388-0.258L8.451,35.43l-2.402,1.342c-0.284,0.207-0.394,0.486-0.413,0.803
		c0.025,0.49,0.291,0.998,0.774,1.188c1.072,0.09,1.886-0.764,2.815-1.188c0.22-0.143,0.369-0.369,0.388-0.621l-0.052-0.361h0.104
		l0.723,1.316l-0.052,0.053c-0.232-0.24-0.536-0.387-0.878-0.285l-2.35,1.24c-0.433,0.078-0.937,0.025-1.24-0.361
		c-0.426-0.523-0.73-1.137-0.594-1.859c0.058-0.311,0.362-0.543,0.62-0.699l2.272-1.264c0.239-0.168-0.02-0.414,0.026-0.592H8.27
		L8.27,34.141z"/>
	<path fill="#FFFFFF" d="M31.901,34.525c0.013,0.232-0.174,0.568,0.181,0.646l3.073,1.395c0.245,0,0.245-0.414,0.465-0.311
		c-0.239,0.516-0.446,1.072-0.723,1.549h-0.078c0-0.18,0.116-0.373,0-0.543l-3.202-1.496c-0.246-0.039-0.291,0.303-0.491,0.336
		c0.181-0.549,0.433-1.066,0.697-1.576H31.901L31.901,34.525z"/>
	<path fill="#FFFFFF" d="M29.292,38.527c0.039,0.195-0.284,0.33-0.129,0.57l2.531,2.35c0.323,0.148,0.529-0.246,0.697-0.439
		c0.4-0.541,0.258-1.439-0.078-1.963c0.02-0.045,0.071-0.02,0.104-0.025l0.904,1.238c-0.736,0.795-1.459,1.57-2.248,2.299
		c-0.025,0.008-0.039-0.012-0.051-0.025c0.026-0.18,0.232-0.322,0.155-0.516l-2.557-2.402c-0.226-0.162-0.433,0.355-0.542,0.078
		l1.137-1.164H29.292L29.292,38.527z"/>
	<path fill-rule="evenodd" clip-rule="evenodd" fill="#FFFFFF" d="M12.634,39.846c0.058,0.143,0.116,0.285,0.259,0.387l0.232-0.051
		v0.154c-0.265,0.361-0.503,0.736-0.801,1.084h-0.077c0.148-0.555,0.523-1.336-0.026-1.859c-0.155-0.193-0.374-0.238-0.594-0.283
		c-0.264,0.02-0.516,0.221-0.62,0.465c-0.129,1.084,1.388,2.002,0.361,3.047c-0.271,0.258-0.6,0.381-0.981,0.361
		C9.716,43.1,9.18,42.525,8.864,41.963c-0.103-0.129-0.226-0.076-0.361-0.051v-0.131c0.368-0.418,0.755-0.857,1.11-1.264H9.69
		c-0.258,0.574-0.71,1.26-0.31,1.912c0.213,0.23,0.465,0.482,0.801,0.49c0.323,0.018,0.594-0.201,0.749-0.467
		c0.297-1.154-1.614-2.246-0.155-3.229C11.44,38.857,12.273,39.174,12.634,39.846L12.634,39.846z"/>
	<path fill="#FFFFFF" d="M14.985,41.266c0.936,0.322,1.847,0.717,2.841,0.904c-0.039,0.504-0.117,0.994-0.232,1.471
		c-0.129-0.141-0.064-0.412-0.155-0.594c-0.109-0.432-0.438-0.93-0.904-1.057l-1.239,3.434c0.039,0.252,0.348,0.238,0.464,0.414
		l-0.052,0.051c-0.6-0.213-1.22-0.393-1.808-0.645v-0.053c0.181-0.039,0.394,0.076,0.594,0c0.51-1.104,0.858-2.271,1.292-3.41
		c0.019-0.082-0.078-0.102-0.129-0.127c-0.697-0.072-1.233,0.25-1.705,0.723c-0.116-0.02,0-0.123,0-0.182l0.723-1.135L14.985,41.266
		L14.985,41.266z"/>
	<path fill-rule="evenodd" clip-rule="evenodd" fill="#FFFFFF" d="M6.668,31.143c-0.387,0.311-0.865,0.529-1.317,0.75l-0.104-1.111
		L6.668,31.143L6.668,31.143z M3.699,30.006c0.949,0.613,2.118,0.691,3.176,1.033c0.323-0.381,0.633,0.209,1.007,0.156l0.052,0.053
		c-1.259,0.701-2.531,1.477-3.796,2.221c-0.22,0.09-0.071,0.406-0.258,0.438c-0.09-0.529-0.142-1.109-0.181-1.625
		c-0.007-0.047,0.071-0.02,0.103-0.027c0.078,0.129,0.032,0.387,0.258,0.387c0.388-0.174,0.794-0.355,1.111-0.645L5.042,30.73
		c-0.355-0.111-0.788-0.342-1.162-0.104c-0.226,0.104-0.084,0.426-0.31,0.465c-0.064-0.477-0.155-0.975-0.155-1.445
		C3.602,29.658,3.576,29.896,3.699,30.006L3.699,30.006z"/>
	<path fill-rule="evenodd" clip-rule="evenodd" fill="#FFFFFF" d="M21.416,42.635c0.355,0.369,0.316,0.963,0.129,1.395
		c-0.258,0.342-0.671,0.305-1.059,0.336c-0.058-0.613-0.11-1.26-0.052-1.885C20.776,42.492,21.151,42.43,21.416,42.635
		L21.416,42.635z M22.293,42.738c0.187,0.238,0.291,0.535,0.207,0.852c-0.174,0.498-0.704,0.691-1.136,0.826
		c0.329,0.117,0.755,0.344,0.904,0.725c0.278,0.406,0.426,1.154,1.085,1.109v0.078c-0.388,0.02-0.762,0.07-1.162,0.051
		c-0.433-0.6-0.633-1.369-1.292-1.807c-0.116-0.045-0.258-0.02-0.387-0.025l-0.052,0.076l0.078,1.523
		c0.116,0.174,0.316,0.143,0.49,0.182c0.039,0.104-0.077,0.143-0.155,0.129l-1.549,0.053l-0.052-0.053
		c0.11-0.182,0.413-0.051,0.491-0.311l-0.129-3.436c-0.083-0.25-0.381-0.146-0.517-0.281l0.078-0.053
		C20.228,42.422,21.487,41.996,22.293,42.738L22.293,42.738z"/>
	<path fill-rule="evenodd" clip-rule="evenodd" fill="#FFFFFF" d="M26.813,43.281l-1.007,0.49c-0.123-0.459-0.084-0.982-0.129-1.473
		C26.064,42.596,26.465,42.945,26.813,43.281L26.813,43.281z M29.164,43.977v0.053c-0.498,0.232-0.988,0.484-1.498,0.672
		c-0.045-0.182,0.394-0.238,0.232-0.49l-0.904-0.801c-0.426,0.174-0.872,0.361-1.24,0.619c0.071,0.406,0.014,0.938,0.491,1.111
		h0.362v0.076c-0.445,0.188-0.897,0.459-1.343,0.568c0.368-0.289,0.413-0.779,0.413-1.213l-0.155-2.377
		c-0.497-0.154-0.02-0.672-0.207-1.033l0.052-0.051l3.409,2.865H29.164L29.164,43.977z"/>
	<path fill-rule="evenodd" clip-rule="evenodd" fill="#FFFFFF" d="M35,32.461c-0.471-0.137-0.878-0.434-1.317-0.646
		c0.433-0.193,0.93-0.348,1.42-0.465L35,32.461L35,32.461z M36.937,29.723c-0.006,0.518-0.083,1.066-0.129,1.602L36.73,31.35
		c-0.096-0.129-0.005-0.342-0.18-0.439c-0.453,0.053-0.898,0.182-1.266,0.389l-0.129,1.264c0.33,0.201,0.665,0.459,1.085,0.363
		c0.239-0.051,0.226-0.367,0.438-0.414c-0.051,0.498-0.025,1.02-0.18,1.473c-0.078-0.33-0.316-0.666-0.646-0.852l-2.402-1.266
		c-0.394,0.355-0.607-0.35-0.982-0.361v-0.078c1.421-0.428,2.835-0.887,4.236-1.369C36.86,29.982,36.763,29.748,36.937,29.723
		L36.937,29.723z"/>
	<path fill="#FFFFFF" d="M22.139,13.322c-0.058,0.162-0.297,0.117-0.413,0.258c-0.342,0.316-0.239,0.814-0.258,1.266
		c-0.078,0.854,0.394,2.26-0.749,2.635c-0.633,0.193-1.401,0.117-1.937-0.232c-0.316-0.252-0.42-0.58-0.439-0.955l-0.078-2.635
		c-0.097-0.238-0.419-0.059-0.491-0.258c0.555-0.098,1.201-0.033,1.756-0.053c0.026,0.227-0.271,0.098-0.388,0.207l-0.103,0.156
		l0.077,2.893c0.045,0.277,0.284,0.547,0.543,0.67c0.381,0.135,0.891,0.201,1.239-0.051c0.323-0.252,0.458-0.619,0.439-1.033
		c-0.116-0.82,0.155-1.801-0.232-2.506c-0.136-0.193-0.4-0.199-0.517-0.336l0.181-0.051C21.229,13.381,21.68,13.238,22.139,13.322
		L22.139,13.322z"/>
	<path fill="#FFFFFF" d="M27.794,15.027h0.181c-0.065,0.504-0.168,0.994-0.31,1.471c-0.064-0.219-0.097-0.502-0.155-0.748
		c-0.129-0.375-0.394-0.807-0.801-0.955c-0.517,1.117-0.942,2.266-1.395,3.408c0.052,0.24,0.31,0.285,0.465,0.439
		c-0.026,0.084-0.168,0.059-0.232,0.027c-0.523-0.254-1.085-0.428-1.602-0.699c0.084-0.115,0.31,0,0.465,0
		c0.258,0.033,0.271-0.264,0.362-0.412c0.355-1.033,0.833-2.016,1.188-3.049c-0.697-0.283-1.35,0.162-1.885,0.568
		c0.213-0.445,0.478-0.865,0.801-1.266l0.335,0.232L27.794,15.027L27.794,15.027z"/>
	<path fill="#FFFFFF" d="M31.72,17.842c-0.006,0.033,0.02,0.084-0.026,0.104c-0.2-0.006-0.31-0.303-0.542-0.154l-1.059,1.084
		c0.349,0.471,0.8,0.781,1.188,1.215h0.078c0.29-0.525,1.504-0.924,0.878-1.576c0.058-0.123,0.142,0.006,0.207,0.025l1.085,1.111
		l-0.052,0.076c-0.194-0.012-0.317-0.297-0.542-0.154l-2.479,2.531c-0.052,0.199,0.188,0.283,0.181,0.465h-0.129
		c-0.381-0.393-0.813-0.768-1.136-1.188c0.207-0.111,0.458,0.387,0.671,0.025l1.136-1.137c-0.342-0.439-0.794-0.826-1.188-1.24
		h-0.077l-1.24,1.266c-0.136,0.207,0.355,0.414,0.078,0.518c-0.375-0.375-0.788-0.787-1.163-1.162v-0.078
		c0.2-0.025,0.394,0.348,0.62,0.104l2.427-2.453c0.129-0.246-0.361-0.434-0.077-0.543L31.72,17.842L31.72,17.842z"/>
	<path fill-rule="evenodd" clip-rule="evenodd" fill="#FFFFFF" d="M9.793,18.643v0.104c-0.549-0.207-1.272-0.607-1.833-0.154
		c-0.239,0.18-0.342,0.412-0.387,0.672c0.025,0.244,0.207,0.443,0.413,0.594c1.04,0.18,1.867-0.994,2.918-0.389
		c0.33,0.232,0.472,0.594,0.543,0.955c0.051,0.621-0.336,1.1-0.827,1.447c-0.2,0.104-0.433,0.193-0.568,0.387
		c-0.02,0.084,0.033,0.137,0.052,0.207l-0.052,0.051c-0.471-0.359-0.923-0.812-1.343-1.238l0.052-0.051
		c0.523,0.314,1.091,0.676,1.756,0.49c0.349-0.17,0.665-0.529,0.672-0.93c-0.02-0.291-0.207-0.557-0.465-0.697
		c-1.124-0.266-2.654,1.607-3.332-0.207c-0.116-0.523,0.039-1.059,0.465-1.422c0.239-0.27,0.866-0.225,0.749-0.723h0.078
		L9.793,18.643L9.793,18.643z"/>
	<path fill-rule="evenodd" clip-rule="evenodd" fill="#FFFFFF" d="M15.321,16.629c0.187,0.484,0.226,1.232-0.129,1.652
		c-0.271,0.291-0.607,0.42-0.981,0.465c-1.091-0.064-1.595-1.279-1.86-2.143c-0.103-0.486-0.077-1.041,0.284-1.396
		c0.349-0.322,0.853-0.49,1.317-0.309C14.655,15.188,15.068,15.969,15.321,16.629L15.321,16.629z M15.889,15.777
		c0.329,0.6,0.278,1.457-0.052,2.039c-0.381,0.645-1.065,1.111-1.808,1.162c-0.768,0.02-1.446-0.238-1.937-0.852
		c-0.394-0.543-0.549-1.279-0.361-1.963c0.246-0.801,1.046-1.498,1.886-1.576C14.565,14.516,15.456,14.93,15.889,15.777
		L15.889,15.777z"/>
	<path fill="#FFFFFF" d="M1.376,22.795C4.279,15.178,11.647,9.768,20.284,9.768c8.642,0,16.017,5.416,18.917,13.041l-2.048,0.76
		c-2.588-6.789-9.172-11.6-16.869-11.6c-7.693,0-14.261,4.816-16.852,11.6L1.376,22.795L1.376,22.795z"/>
	<path fill="#FFFFFF" d="M2.545,33.25c1.529,8.406,8.888,14.783,17.739,14.783s16.214-6.377,17.744-14.783l2.163,0.406
		c-1.721,9.428-9.98,16.576-19.906,16.576c-9.925,0-18.181-7.146-19.903-16.572L2.545,33.25L2.545,33.25z"/>
	<path fill-rule="evenodd" clip-rule="evenodd" fill="#FFFFFF" d="M20.279,36.205c0.219,0.527,0.323,1.135,0.31,1.729
		c-0.762-0.322-0.29-1.174-0.387-1.729H20.279L20.279,36.205z M19.943,36.205c0.006,0.555,0.277,1.342-0.336,1.703H19.53
		C19.498,37.27,19.756,36.727,19.943,36.205L19.943,36.205z M20.512,36.074c0.219,0.551,0.652,1.014,0.774,1.602
		c0.026,0.092-0.084,0.199-0.155,0.18c-0.174-0.613-0.568-1.135-0.671-1.781H20.512L20.512,36.074z M16.379,36.049
		c0.006,0.123-0.129,0.227-0.232,0.258c-0.226,0.014-0.581,0.111-0.723-0.102c0.084-0.383,0.601-0.137,0.904-0.209L16.379,36.049
		L16.379,36.049z M19.143,37.883c-0.077,0.07-0.174-0.031-0.207-0.104c0.142-0.652,0.517-1.207,0.775-1.809
		C19.66,36.629,19.33,37.242,19.143,37.883L19.143,37.883z M19.53,35.971c-0.181,0.588-0.691,1.047-0.956,1.604
		c-0.045,0.018-0.071-0.027-0.104-0.053C18.762,36.979,19.104,36.41,19.53,35.971L19.53,35.971z M18.135,37.289h-0.051
		c0.161-0.529,0.749-0.904,1.136-1.318C19.072,36.469,18.374,36.779,18.135,37.289L18.135,37.289z M18.239,35.996
		c-0.148,0.086-0.297,0.467-0.568,0.285c-0.019-0.129,0.117-0.219,0.207-0.285C17.981,35.959,18.135,35.959,18.239,35.996
		L18.239,35.996z M17.18,35.996c0.071,0.111,0,0.273-0.129,0.285c-0.188-0.02-0.31,0.045-0.465-0.051
		c0.026-0.092,0.078-0.168,0.155-0.234C16.87,35.959,17.051,35.959,17.18,35.996L17.18,35.996z M24.721,36.049
		c-0.077,0.426-0.62,0.156-0.93,0.232c0.02-0.174,0.213-0.252,0.336-0.336C24.327,35.979,24.611,35.861,24.721,36.049L24.721,36.049
		z M23.637,35.996c0.006,0.123-0.129,0.229-0.232,0.26c-0.123,0.051-0.297,0.025-0.362-0.078c-0.032-0.143,0.084-0.193,0.181-0.232
		C23.359,35.965,23.533,35.9,23.637,35.996L23.637,35.996z M22.655,36.049c-0.026,0.084-0.039,0.176-0.129,0.232
		c-0.245,0.098-0.413-0.154-0.594-0.285C22.119,35.939,22.5,35.875,22.655,36.049L22.655,36.049z M21.829,37.496
		c-0.013,0.062,0.032,0.148-0.052,0.18c-0.31-0.594-0.981-1.109-1.084-1.781L21.829,37.496L21.829,37.496z M22.423,36.926v0.078
		c-0.472-0.359-0.872-0.852-1.266-1.291C21.628,36.049,22.009,36.494,22.423,36.926L22.423,36.926z M20.873,35.713
		c0.53,0.518,0.923,1.02,1.369,1.576c0.006,0.084,0,0.162-0.077,0.207c-0.446-0.621-0.981-1.137-1.369-1.783H20.873L20.873,35.713z
		 M17.955,36.875h-0.077c0.039-0.361,0.497-0.535,0.749-0.801l0.517-0.361C18.813,36.152,18.329,36.436,17.955,36.875L17.955,36.875
		z M19.246,35.197c-0.278,0.58-1.001,0.502-1.576,0.465c0.033-0.188,0.316-0.355,0.491-0.49
		C18.562,35.268,19.207,34.236,19.246,35.197L19.246,35.197z M21.932,34.939c0.245,0.199,0.497,0.418,0.697,0.672
		c-0.536-0.047-1.279,0.264-1.602-0.363l0.207-0.619C21.422,34.848,21.7,34.836,21.932,34.939L21.932,34.939z M21.257,33.646
		c0.046-0.174-0.125-0.51,0.185-0.463l0.103-0.645c-0.407-0.801-0.536-1.873-0.284-2.791c-0.006-0.375-0.136-0.768-0.491-0.93
		c-0.252,0.117-0.148,0.467-0.284,0.672c-0.239,0.395-0.633,0.633-1.085,0.619c-0.323-0.025-0.084,0.271-0.155,0.439
		c0.064,0.957-0.813,1.744-0.31,2.662l0.052-0.053c0.272-0.006,0.103,0.279,0.122,0.488c0.003,0.039,0.013,0.074,0.033,0.105
		c0.11,0.258,0.304,0.516,0.336,0.773h-0.181c0.148,0.529,0.342,1.109,0.853,1.42c0.445-0.354,0.645-0.852,0.8-1.342l-0.129-0.078
		c0.162-0.264,0.342-0.521,0.414-0.824C21.245,33.686,21.252,33.668,21.257,33.646L21.257,33.646 M22.203,33.646
		c-0.111-0.291-0.096-0.633-0.271-0.875c-0.11-0.053-0.194,0.076-0.207,0.154c-0.06,0.221-0.135,0.475-0.152,0.723
		c-0.022,0.312,0.048,0.613,0.359,0.824l1.084,1.033c0.659-0.115,1.091,0.311,1.73,0.232c0.123,0.02,0.188,0.156,0.232,0.258
		c0.039,0.229-0.142,0.428-0.335,0.492c-0.426-0.143-0.755,0.561-1.085,0.051c-0.181,0.059-0.303,0.26-0.542,0.182
		c-0.11-0.084-0.232-0.219-0.387-0.129c0.109,0.393,0.517,0.658,0.491,1.109c-0.381-0.006-0.323,0.549-0.723,0.49
		c-0.104,0.123-0.078,0.389-0.31,0.363c-0.336-0.109-0.465,0.42-0.827,0.154l-0.31,0.361l-0.465-0.182
		c-0.187,0.123-0.284,0.467-0.542,0.26c-0.09-0.117-0.207-0.291-0.362-0.311c-0.123,0.039-0.226,0.129-0.361,0.129
		c-0.123-0.541-0.762,0.117-0.827-0.463c-0.207-0.092-0.581,0-0.594-0.336c-0.116-0.104-0.329-0.033-0.387-0.234
		c0.103-0.271-0.278-0.205-0.258-0.438c0.064-0.33,0.265-0.594,0.439-0.879c-0.174-0.123-0.33,0.109-0.517,0.104
		c-0.181-0.033-0.355-0.277-0.517-0.025c-0.187,0.031-0.323-0.047-0.465-0.129c-0.207,0.025-0.594,0.062-0.827-0.078
		c-0.123-0.129-0.161-0.322-0.103-0.492c0.297-0.496,1.007-0.096,1.395-0.438c0.956,0.303,1.395-0.691,2.015-1.137
		c0.192-0.248,0.229-0.512,0.196-0.775c-0.041-0.35-0.194-0.699-0.274-1.029c-0.104-0.008-0.129,0.107-0.155,0.18
		c-0.022,0.287-0.011,0.592-0.113,0.848v0.002l0,0c-0.046,0.113-0.116,0.221-0.223,0.312c-0.31-0.111-0.581-0.047-0.827,0.154
		c-0.213-0.051-0.31-0.445-0.568-0.309c-0.136,0.102-0.246,0.34-0.439,0.23c-0.097-0.104-0.148-0.246-0.284-0.309
		c-0.181,0-0.394,0.232-0.542,0c-0.016-0.023-0.032-0.051-0.049-0.078v-0.002c-0.075-0.119-0.17-0.258-0.338-0.154
		c-0.116,0.066-0.246,0.092-0.387,0.078l-0.258-0.438c-0.233-0.092-0.594,0.205-0.646-0.156c-0.02-0.109-0.039-0.297-0.207-0.258
		c-0.284-0.006-0.601,0.137-0.852-0.025c0.019-0.238,0.161-0.465,0.181-0.672c-0.265-0.064-0.685,0.045-0.878-0.207
		c0.032-0.227,0.097-0.439,0.181-0.645c-0.322-0.072-0.69-0.053-0.981-0.207c-0.065-0.24,0.148-0.422,0.258-0.621
		c-0.219-0.168-0.516-0.18-0.697-0.387c0.013-0.344,0.381-0.496,0.568-0.748c-0.142-0.246-0.439-0.344-0.62-0.594
		c0.168-0.266,0.445-0.486,0.697-0.648c-0.148-0.295-0.536-0.463-0.568-0.773c0.22-0.137,0.426-0.311,0.698-0.311l0.077-0.076
		c-0.136-0.227-0.381-0.4-0.465-0.646c0.342-0.143,0.781-0.033,1.111-0.207c-0.097-0.303-0.472-0.49-0.543-0.801
		c0.349-0.199,0.736,0.045,1.085,0c-0.278-0.271-0.542-0.594-0.542-1.008c0.226-0.154,0.432,0.059,0.646,0.105
		c0.323,0.205,0.658,0.387,1.007,0.541l0.051-0.053c-0.284-0.463-0.917-0.818-0.852-1.393c0.697,0.129,1.227,0.633,1.833,1.059
		c0.02-0.221-0.219-0.4-0.284-0.619c-0.168-0.447-0.498-0.828-0.439-1.369c0.284-0.008,0.523,0.322,0.723,0.541l0.594,0.828
		c0.181-0.293-0.104-0.518-0.155-0.775c0.006-0.459-0.252-0.963,0.026-1.369c0.419,0.096,0.484,0.613,0.645,0.955
		c0.091,0.324,0.123,0.666,0.285,0.955c0.006-0.631,0.155-1.266,0.026-1.885c0.051-0.264,0.206-0.549,0.439-0.672l0.103,0.207
		c0.064,0.383,0.09,0.775,0.078,1.188l0.051,0.053c0.168-0.064,0.194-0.299,0.388-0.311c0.465,1.377-0.174,2.744-0.335,4.08
		c0.019,0.75,0.226,1.416,0.542,2.041c-0.168,0.633,0.581,0.885,0.646,1.42c0.136,0.215,0.362,0.035,0.542,0.053
		c0.181,0.014,0.277,0.299,0.491,0.156c0.31-0.193,0.271-0.568,0.232-0.879c-0.258-0.344-0.774-0.395-0.93-0.826
		c0.258-0.027,0.536,0.045,0.775,0.129l0.051-0.053c-0.193-0.289-0.491-0.451-0.774-0.594c0.129-0.135,0.413-0.07,0.594-0.051
		c0.826,0.33,1.892,0.588,2.247,1.574c0.071,0.213,0.058,0.467,0.207,0.646c0.271-0.059,0.549,0.121,0.775-0.051
		c0.994-0.846,0.71-2.215,1.24-3.256c-0.097-1.479-0.213-2.893-0.129-4.416c0.026-0.064,0.116-0.064,0.155-0.025
		c0.071,0.07,0.09,0.205,0.207,0.205c0.129-0.361,0.013-0.818,0.31-1.109c0.291,0.078,0.388,0.42,0.414,0.697v1.033l0.052,0.051
		c0.181-0.42,0.291-0.885,0.697-1.188c0.097-0.064,0.187,0.053,0.181,0.154c-0.058,0.607-0.045,1.254-0.413,1.732
		c0.013,0.109,0,0.225,0.077,0.309c0.407-0.504,0.755-1.266,1.446-1.471c0.232,0.367-0.077,0.773-0.232,1.109
		c-0.291,0.252-0.368,0.588-0.568,0.877l0.051,0.053c0.465-0.568,1.084-1.092,1.782-1.266c0.135,0.148-0.032,0.291-0.052,0.439
		c-0.284,0.213-0.245,0.561-0.465,0.801c-0.232,0.297-0.568,0.457-0.775,0.723c0.284-0.051,0.529-0.361,0.827-0.465
		c0.407-0.221,0.82-0.414,1.317-0.414c0.11,0.299-0.291,0.484-0.49,0.672c-0.213,0.137-0.381,0.305-0.517,0.516
		c0.458-0.07,0.968-0.406,1.472-0.205c-0.078,0.33-0.433,0.477-0.594,0.773c0.123,0.104,0.291,0,0.439,0
		c0.22,0.033,0.458,0.02,0.62,0.209c-0.052,0.309-0.465,0.4-0.594,0.67c0.258,0.148,0.601,0.109,0.827,0.336v0.129l-0.568,0.516
		l0.026,0.078c0.316,0.143,0.633,0.33,0.878,0.594l-0.026,0.131c-0.245,0.162-0.51,0.264-0.749,0.439
		c0.11,0.23,0.478,0.328,0.491,0.619l-0.801,0.387c0.065,0.26,0.4,0.504,0.31,0.826c-0.277,0.092-0.62,0.027-0.878,0.156
		c0.09,0.219,0.226,0.465,0.207,0.697c-0.304,0.096-0.685,0.006-0.956,0.18c0.007,0.221,0.013,0.439-0.129,0.596l-0.542,0.025
		l-0.336,0.49c-0.258,0.045-0.516-0.213-0.723,0.027l-0.207,0.359c-0.194,0.014-0.329-0.109-0.517-0.102
		c-0.056,0.039-0.094,0.107-0.129,0.178l0,0c-0.069,0.139-0.125,0.281-0.284,0.234c-0.129-0.045-0.232-0.219-0.387-0.129
		c-0.084,0.104-0.162,0.232-0.258,0.311c-0.181-0.033-0.349-0.266-0.542-0.104c-0.09,0.09-0.174,0.199-0.31,0.182
		c-0.09-0.137-0.271-0.336-0.439-0.182c-0.103,0.123-0.239,0.096-0.361,0.025c-0.124-0.094-0.197-0.211-0.246-0.34 M20.098,28.406
		c0.007,0.051-0.006,0.135-0.077,0.104h-0.078v-0.154C19.995,28.373,20.098,28.309,20.098,28.406L20.098,28.406z M23.533,28.457
		c0.142-0.014,0.142-0.193,0.31-0.154c0.129,0.271-0.426,0.373-0.181,0.568c0.142-0.053,0.31-0.215,0.465-0.078
		c-0.007,0.213-0.284,0.213-0.336,0.387c0.226,0.014,0.439,0.098,0.568,0.285c0.039,0.104-0.078,0.143-0.155,0.129
		c-0.194,0.039-0.394-0.078-0.542,0c0.116,0.199,0.419,0.232,0.387,0.516c-0.265,0.104-0.433-0.174-0.671-0.205
		c-0.065,0.186,0.245,0.283,0.207,0.49c-0.239,0.078-0.413-0.162-0.594-0.258c-0.045,0.123,0.039,0.252,0.104,0.361
		c-0.188,0.09-0.375-0.045-0.465-0.207c-0.259-0.367,0.226-0.621,0.335-0.93c0.342-0.336,0.336-0.82,0.542-1.215
		C23.553,28.264,23.411,28.367,23.533,28.457L23.533,28.457z M17.645,29.258c0.258,0.168,0.33,0.459,0.414,0.725
		c0.02,0.238-0.11,0.443-0.31,0.566c-0.109,0.008-0.188-0.07-0.181-0.18c-0.045-0.086,0.097-0.156-0.026-0.207
		c-0.135,0.09-0.258,0.277-0.439,0.18c-0.064-0.18,0.104-0.328,0.155-0.49c-0.207-0.025-0.355,0.316-0.62,0.154
		c-0.058-0.219,0.129-0.336,0.232-0.49c-0.207-0.115-0.362,0.117-0.568,0c0.013-0.186,0.329-0.25,0.491-0.387
		c-0.142-0.098-0.368-0.227-0.387-0.439c0.239-0.129,0.4,0.246,0.62,0.078c0.006-0.193-0.226-0.361-0.104-0.543
		c0.09,0.039,0.155,0.135,0.233,0.207c0.161-0.045,0.019-0.207,0.025-0.311C17.413,28.443,17.219,28.994,17.645,29.258
		L17.645,29.258z M19.607,28.25c-0.058,0.129,0.033,0.369-0.181,0.387c-0.181-0.012-0.323-0.107-0.465-0.205
		c0.174-0.084,0.433,0.174,0.594-0.025c0.032-0.266-0.232-0.406-0.387-0.594C19.427,27.799,19.621,27.992,19.607,28.25L19.607,28.25
		z M24.566,27.58c0.013,0.244-0.271,0.127-0.388,0.232c-0.071-0.148,0.174-0.232,0.284-0.285
		C24.501,27.527,24.573,27.521,24.566,27.58L24.566,27.58z M24.721,27.191c-0.116,0.18-0.355,0.174-0.542,0.232
		c0.064-0.174,0.33-0.355,0.542-0.414C24.837,27.055,24.721,27.133,24.721,27.191L24.721,27.191z M24.695,26.52
		c-0.051,0.252-0.368,0.426-0.568,0.594c-0.084-0.283,0.258-0.521,0.465-0.748C24.676,26.352,24.715,26.449,24.695,26.52
		L24.695,26.52z M16.56,26.441c-0.104,0.512-0.187,0.996-0.078,1.523c-0.174,0.008-0.303-0.096-0.438-0.18
		c-0.065-0.09-0.091-0.193-0.078-0.309c0.129-0.059,0.246,0.219,0.388,0.051c-0.032-0.252-0.355-0.336-0.439-0.568
		c0.187-0.129,0.368,0.271,0.491,0c-0.078-0.221-0.51-0.303-0.388-0.594l0.259,0.129c0.012-0.213-0.194-0.369-0.129-0.568
		C16.321,26.035,16.425,26.268,16.56,26.441L16.56,26.441z M24.541,25.9c-0.032,0.244-0.245,0.479-0.413,0.697h-0.026
		C24.121,26.346,24.34,26.066,24.541,25.9L24.541,25.9z M16.638,26.158c-0.142-0.213-0.381-0.529-0.207-0.801
		C16.592,25.564,16.566,25.893,16.638,26.158L16.638,26.158z M24.05,25.307c-0.058,0.213-0.213,0.451-0.104,0.672
		c0.143-0.092,0.129-0.336,0.31-0.389c-0.026,0.277-0.129,0.582-0.31,0.826c-0.194-0.393-0.181-0.93-0.103-1.369
		C23.992,25.053,23.979,25.223,24.05,25.307L24.05,25.307z M16.921,24.736c0.013,0.389,0.104,0.775-0.077,1.111
		C16.902,25.48,16.308,24.963,16.921,24.736L16.921,24.736z"/>
	<polygon fill="#FFFFFF" points="0,29.838 2.186,29.838 2.186,30.389 0,30.389 0,29.838 	"/>
	<polygon fill="#FFFFFF" points="0.027,29.441 0.048,28.895 2.222,28.98 2.2,29.529 0.027,29.441 	"/>
	<polygon fill="#FFFFFF" points="0.09,28.531 0.133,27.986 2.294,28.158 2.251,28.703 0.09,28.531 	"/>
	<polygon fill="#FFFFFF" points="0.19,27.621 0.255,27.078 2.404,27.338 2.339,27.879 0.19,27.621 	"/>
	<polygon fill="#FFFFFF" points="0.327,26.709 0.413,26.172 2.55,26.516 2.463,27.055 0.327,26.709 	"/>
	<polygon fill="#FFFFFF" points="0.463,25.799 0.571,25.264 2.696,25.695 2.588,26.23 0.463,25.799 	"/>
	<polygon fill="#FFFFFF" points="0.673,24.908 0.803,24.375 2.916,24.893 2.786,25.424 0.673,24.908 	"/>
	<polygon fill="#FFFFFF" points="1.072,23.486 3.172,24.09 3.021,24.617 0.919,24.016 1.072,23.486 	"/>
	<polygon fill="#FFFFFF" points="40.508,29.838 38.322,29.838 38.322,30.389 40.508,30.389 40.508,29.838 	"/>
	<polygon fill="#FFFFFF" points="40.481,29.441 40.459,28.895 38.286,28.98 38.308,29.529 40.481,29.441 	"/>
	<polygon fill="#FFFFFF" points="40.418,28.531 40.375,27.986 38.213,28.158 38.256,28.703 40.418,28.531 	"/>
	<polygon fill="#FFFFFF" points="40.318,27.621 40.253,27.078 38.104,27.338 38.168,27.879 40.318,27.621 	"/>
	<polygon fill="#FFFFFF" points="40.182,26.709 40.095,26.172 37.958,26.516 38.044,27.055 40.182,26.709 	"/>
	<polygon fill="#FFFFFF" points="40.045,25.799 39.936,25.264 37.812,25.695 37.92,26.23 40.045,25.799 	"/>
	<polygon fill="#FFFFFF" points="39.834,24.908 39.705,24.375 37.591,24.893 37.723,25.424 39.834,24.908 	"/>
	<polygon fill="#FFFFFF" points="39.436,23.486 37.336,24.09 37.487,24.617 39.588,24.016 39.436,23.486 	"/>
</g>
</svg>
