<?xml version="1.0" encoding="utf-8"?>
<!-- Generator: Adobe Illustrator 16.0.0, SVG Export Plug-In . SVG Version: 6.00 Build 0)  -->
<!DOCTYPE svg PUBLIC "-//W3C//DTD SVG 1.1//EN" "http://www.w3.org/Graphics/SVG/1.1/DTD/svg11.dtd">
<svg version="1.1" id="Layer_1" xmlns="http://www.w3.org/2000/svg" xmlns:xlink="http://www.w3.org/1999/xlink" x="0px" y="0px"
	 width="40px" height="40px" viewBox="-341.5 275.5 40 40" enable-background="new -341.5 275.5 40 40" xml:space="preserve">
<g>
	<g>
		<path fill="#FFFFFF" d="M-322,284.5c5.8,0,10.5,4.7,10.5,10.5s-4.7,10.5-10.5,10.5s-10.5-4.7-10.5-10.5S-327.8,284.5-322,284.5
			 M-322,282.5c-6.893,0-12.5,5.607-12.5,12.5s5.607,12.5,12.5,12.5s12.5-5.607,12.5-12.5S-315.107,282.5-322,282.5L-322,282.5z"/>
	</g>
	<g>
		<path fill="#FFFFFF" d="M-325.868,291.589c0.198-0.51,0.476-0.952,0.833-1.326s0.788-0.665,1.292-0.875s1.068-0.314,1.691-0.314
			c0.805,0,1.476,0.11,2.015,0.331c0.538,0.222,0.972,0.496,1.301,0.824c0.328,0.329,0.563,0.684,0.705,1.062
			c0.142,0.38,0.213,0.734,0.213,1.062c0,0.545-0.071,0.992-0.213,1.344s-0.317,0.651-0.527,0.9c-0.21,0.25-0.442,0.462-0.697,0.638
			c-0.255,0.176-0.496,0.352-0.723,0.527c-0.227,0.176-0.428,0.377-0.604,0.604s-0.286,0.51-0.332,0.85v0.646h-2.295v-0.766
			c0.034-0.487,0.127-0.895,0.28-1.224c0.153-0.329,0.332-0.609,0.536-0.842c0.204-0.231,0.419-0.434,0.646-0.604
			s0.436-0.34,0.629-0.51s0.349-0.357,0.468-0.561c0.119-0.204,0.172-0.459,0.161-0.766c0-0.521-0.127-0.906-0.382-1.156
			c-0.255-0.249-0.609-0.374-1.062-0.374c-0.306,0-0.569,0.06-0.791,0.179c-0.221,0.119-0.402,0.278-0.544,0.477
			s-0.247,0.431-0.314,0.696c-0.068,0.267-0.102,0.553-0.102,0.859h-2.499C-326.171,292.66-326.066,292.099-325.868,291.589z
			 M-320.776,298.882v2.618h-2.669v-2.618H-320.776z"/>
	</g>
</g>
</svg>
