<?xml version="1.0" encoding="utf-8"?>
<!-- Generator: Adobe Illustrator 15.1.0, SVG Export Plug-In . SVG Version: 6.00 Build 0)  -->
<!DOCTYPE svg PUBLIC "-//W3C//DTD SVG 1.1//EN" "http://www.w3.org/Graphics/SVG/1.1/DTD/svg11.dtd">
<svg version="1.1" id="Layer_1" xmlns="http://www.w3.org/2000/svg" xmlns:xlink="http://www.w3.org/1999/xlink" x="0px" y="0px"
	 width="87px" height="92px" viewBox="0 0 87 92" enable-background="new 0 0 87 92" xml:space="preserve">
<g>
	<defs>
		<rect id="SVGID_1_" y="13.738" width="87" height="65.262"/>
	</defs>
	<clipPath id="SVGID_2_">
		<use xlink:href="#SVGID_1_"  overflow="visible"/>
	</clipPath>
	<path clip-path="url(#SVGID_2_)" fill="#FFFFFF" d="M20.031,65.925h-2.61v1.018h1.371v1.688c-0.222,0.053-0.503,0.091-0.853,0.091
		c-1.379,0-2.195-0.995-2.195-2.304c0-1.326,0.834-2.346,2.344-2.346c0.519,0,1.168,0.114,1.667,0.343l0.082-1.09
		c-0.554-0.167-1.145-0.27-1.897-0.27c-2.195,0-3.547,1.242-3.547,3.451c0,2.184,1.455,3.232,3.547,3.232
		c0.693,0,1.411-0.146,2.092-0.329V65.925z"/>
	<path clip-path="url(#SVGID_2_)" fill="#FFFFFF" d="M23.975,65.714c0.816,0,1.203,0.684,1.203,1.414
		c0,0.798-0.247,1.651-1.203,1.651c-0.946,0-1.194-0.861-1.194-1.651C22.781,66.417,23.168,65.714,23.975,65.714 M23.975,69.738
		c1.583,0,2.502-1.092,2.502-2.461c0-1.573-1.088-2.529-2.502-2.529c-1.411,0-2.492,0.956-2.492,2.529
		C21.483,68.646,22.402,69.738,23.975,69.738"/>
</g>
<polygon fill="#FFFFFF" points="31.103,64.861 29.953,68.331 29.936,68.331 28.75,64.861 27.415,64.861 29.187,69.627 
	30.584,69.627 32.346,64.861 "/>
<g>
	<defs>
		<rect id="SVGID_3_" y="13.738" width="87" height="65.262"/>
	</defs>
	<clipPath id="SVGID_4_">
		<use xlink:href="#SVGID_3_"  overflow="visible"/>
	</clipPath>
	<path clip-path="url(#SVGID_4_)" fill="#FFFFFF" d="M34.479,66.776c0.054-0.636,0.411-1.118,1.1-1.118
		c0.7,0,0.974,0.514,1.015,1.118H34.479z M35.507,64.748c-1.483,0-2.213,1.141-2.213,2.521c0,1.563,0.915,2.469,2.493,2.469
		c0.668,0,1.186-0.131,1.636-0.379v-1.01c-0.46,0.264-0.979,0.483-1.582,0.483c-0.771,0-1.308-0.433-1.361-1.204h3.296
		C37.775,65.96,37.279,64.748,35.507,64.748"/>
	<path clip-path="url(#SVGID_4_)" fill="#FFFFFF" d="M40.403,65.943h-0.018v-1.082h-1.1v4.767h1.24v-1.747
		c0-0.689,0-1.947,1.011-1.947c0.22,0,0.44,0.036,0.553,0.104v-1.249c-0.13-0.04-0.261-0.04-0.378-0.04
		C40.968,64.748,40.457,65.496,40.403,65.943"/>
	<path clip-path="url(#SVGID_4_)" fill="#FFFFFF" d="M44.78,67.295c0-0.609,0.199-1.581,1.096-1.581c0.798,0,0.801,0.784,0.801,1.37
		v2.543h1.247v-3.008c0-1.072-0.491-1.871-1.624-1.871c-0.645,0-1.177,0.211-1.564,0.763h-0.017v-0.649h-1.178v4.766h1.239V67.295z"
		/>
	<path clip-path="url(#SVGID_4_)" fill="#FFFFFF" d="M55.181,64.748c-0.585,0-1.203,0.27-1.491,0.844
		c-0.271-0.59-0.741-0.844-1.406-0.844c-0.465,0-1.028,0.198-1.42,0.781h-0.02v-0.668h-1.158v4.766h1.24v-2.312
		c0-0.617,0.104-1.601,0.929-1.601c0.712,0,0.712,0.625,0.712,1.072v2.841h1.244v-2.312c0-0.617,0.099-1.601,0.924-1.601
		c0.717,0,0.717,0.625,0.717,1.072v2.841h1.241V66.62C56.692,65.555,56.357,64.748,55.181,64.748"/>
	<path clip-path="url(#SVGID_4_)" fill="#FFFFFF" d="M60.424,65.658c0.695,0,0.975,0.514,1.011,1.118h-2.11
		C59.378,66.141,59.73,65.658,60.424,65.658 M59.324,67.629h3.296c0-1.669-0.496-2.881-2.268-2.881
		c-1.482,0-2.214,1.141-2.214,2.521c0,1.562,0.916,2.469,2.493,2.469c0.663,0,1.182-0.131,1.636-0.379v-1.01
		c-0.465,0.263-0.981,0.482-1.582,0.482C59.915,68.832,59.378,68.4,59.324,67.629"/>
	<path clip-path="url(#SVGID_4_)" fill="#FFFFFF" d="M67.239,69.627h1.239V66.62c0-1.073-0.489-1.872-1.617-1.872
		c-0.648,0-1.175,0.211-1.568,0.763h-0.019v-0.649h-1.176v4.766h1.244v-2.332c0-0.608,0.193-1.581,1.092-1.581
		c0.797,0,0.805,0.784,0.805,1.37V69.627z"/>
	<path clip-path="url(#SVGID_4_)" fill="#FFFFFF" d="M72.182,69.738c0.371,0,0.658-0.036,0.914-0.111l-0.033-0.98
		c-0.134,0.087-0.343,0.133-0.568,0.133c-0.471,0-0.579-0.381-0.579-0.789v-2.224h1.103v-0.905h-1.103v-1.353l-1.244,0.396v0.957
		h-0.914v0.905h0.914v2.43C70.671,69.138,71.209,69.738,72.182,69.738"/>
	<path clip-path="url(#SVGID_4_)" fill="#FFFFFF" d="M2.488,78.034c-0.942,0-1.194-0.863-1.194-1.646
		c0-0.716,0.392-1.422,1.194-1.422c0.816,0,1.204,0.688,1.204,1.422C3.692,77.183,3.443,78.034,2.488,78.034 M2.488,74.002
		C1.082,74.002,0,74.959,0,76.533C0,77.902,0.917,79,2.488,79c1.583,0,2.501-1.098,2.501-2.467
		C4.99,74.959,3.909,74.002,2.488,74.002"/>
	<path clip-path="url(#SVGID_4_)" fill="#FFFFFF" d="M6.925,73.451v0.665H6.005v0.908h0.919v3.862h1.239v-3.862h1.083v-0.908H8.164
		v-0.595c0-0.366,0.132-0.73,0.545-0.73c0.272,0,0.424,0.104,0.537,0.167l0.099-1.027c-0.238-0.053-0.59-0.099-0.906-0.099
		C7.462,71.832,6.925,72.494,6.925,73.451"/>
	<path clip-path="url(#SVGID_4_)" fill="#FFFFFF" d="M14.908,74.228c0-0.707,0.578-0.894,1.024-0.894
		c0.451,0,0.905,0.097,1.312,0.271l0.122-1.061c-0.473-0.157-0.992-0.236-1.547-0.236c-1.139,0-2.258,0.533-2.258,1.976
		c0,2.141,2.831,1.627,2.831,2.861c0,0.582-0.659,0.835-1.15,0.835c-0.509,0-1.019-0.159-1.459-0.396l-0.122,1.16
		c0.639,0.159,0.955,0.256,1.659,0.256c1.307,0,2.425-0.543,2.425-1.958C17.745,74.878,14.908,75.346,14.908,74.228"/>
	<path clip-path="url(#SVGID_4_)" fill="#FFFFFF" d="M21.5,78.034c-0.943,0-1.196-0.863-1.196-1.646
		c0-0.716,0.393-1.422,1.196-1.422c0.816,0,1.208,0.688,1.208,1.422C22.708,77.183,22.461,78.034,21.5,78.034 M21.5,74.002
		c-1.407,0-2.489,0.957-2.489,2.531c0,1.369,0.916,2.467,2.489,2.467c1.586,0,2.502-1.098,2.502-2.467
		C24.003,74.959,22.92,74.002,21.5,74.002"/>
	<path clip-path="url(#SVGID_4_)" fill="#FFFFFF" d="M28.62,76.452c0,0.607-0.195,1.581-1.092,1.581c-0.797,0-0.8-0.783-0.8-1.37
		v-2.547h-1.246v3.012c0,1.072,0.491,1.872,1.623,1.872c0.645,0,1.181-0.3,1.564-0.765h0.017v0.65h1.178v-4.77H28.62V76.452z"/>
	<path clip-path="url(#SVGID_4_)" fill="#FFFFFF" d="M33.871,78.033c-0.474,0-0.586-0.379-0.586-0.786v-2.223h1.105v-0.908h-1.105
		v-1.354l-1.24,0.397v0.956h-0.916v0.908h0.916v2.428c0,0.942,0.538,1.548,1.511,1.548c0.369,0,0.658-0.044,0.915-0.114
		l-0.036-0.983C34.307,77.988,34.091,78.033,33.871,78.033"/>
	<path clip-path="url(#SVGID_4_)" fill="#FFFFFF" d="M38.506,74.002c-0.645,0-1.186,0.298-1.502,0.764H36.99v-2.826h-1.243v6.947
		h1.243v-2.335c0-0.61,0.195-1.585,1.092-1.585c0.797,0,0.805,0.789,0.805,1.373v2.547h1.24v-3.013
		C40.127,74.8,39.637,74.002,38.506,74.002"/>
</g>
<path fill="#FFFFFF" d="M46.706,76.389l0.938-2.67h0.018l0.936,2.67H46.706z M46.949,72.421l-2.521,6.466h1.344l0.563-1.483h2.624
	l0.555,1.483h1.438l-2.542-6.466H46.949z"/>
<g>
	<defs>
		<rect id="SVGID_5_" y="13.738" width="87" height="65.262"/>
	</defs>
	<clipPath id="SVGID_6_">
		<use xlink:href="#SVGID_5_"  overflow="visible"/>
	</clipPath>
	<path clip-path="url(#SVGID_6_)" fill="#FFFFFF" d="M55.317,76.452c0,0.607-0.195,1.581-1.096,1.581
		c-0.795,0-0.802-0.787-0.802-1.37v-2.547h-1.241v3.012c0,1.072,0.492,1.872,1.62,1.872c0.646,0,1.186-0.3,1.563-0.765h0.018v0.65
		h1.177v-4.77h-1.239V76.452z"/>
	<path clip-path="url(#SVGID_6_)" fill="#FFFFFF" d="M59.334,75.441c0-0.405,0.397-0.527,0.734-0.527
		c0.451,0,0.726,0.071,1.104,0.201l0.085-0.934c-0.388-0.084-0.766-0.178-1.353-0.178c-0.974,0-1.869,0.455-1.869,1.482
		c0,1.724,2.158,1.087,2.158,2.02c0,0.466-0.501,0.581-0.815,0.581c-0.424,0-0.835-0.115-1.223-0.314l-0.072,1.023
		c0.452,0.116,0.934,0.203,1.407,0.203c1.01,0,1.996-0.448,1.996-1.557C61.487,75.719,59.334,76.2,59.334,75.441"/>
	<path clip-path="url(#SVGID_6_)" fill="#FFFFFF" d="M65.19,78.033c-0.469,0-0.582-0.379-0.582-0.786v-2.223h1.104v-0.908h-1.104
		v-1.354l-1.239,0.397v0.956h-0.917v0.908h0.917v2.428c0,0.942,0.536,1.548,1.508,1.548c0.371,0,0.66-0.044,0.917-0.114
		l-0.036-0.983C65.627,77.988,65.415,78.033,65.19,78.033"/>
	<path clip-path="url(#SVGID_6_)" fill="#FFFFFF" d="M68.22,75.199H68.2v-1.083h-1.104v4.77h1.244v-1.748
		c0-0.687,0-1.946,1.006-1.946c0.226,0,0.446,0.038,0.56,0.101V74.04c-0.132-0.037-0.263-0.037-0.379-0.037
		C68.782,74.003,68.273,74.757,68.22,75.199"/>
	<path clip-path="url(#SVGID_6_)" fill="#FFFFFF" d="M73.715,77.664c-0.194,0.258-0.487,0.425-0.865,0.425
		c-0.446,0-0.789-0.172-0.789-0.585c0-0.727,0.823-0.822,1.379-0.822h0.541C73.98,77.054,73.923,77.393,73.715,77.664
		 M75.108,76.624v-0.609c0-1.406-0.604-2.013-2.058-2.013c-0.525,0-1.175,0.143-1.658,0.368l0.037,1.06
		c0.419-0.312,0.94-0.516,1.475-0.516c0.729,0,1.076,0.258,1.076,1.029h-0.688c-0.521,0-1.128,0.044-1.605,0.276
		c-0.468,0.232-0.812,0.647-0.812,1.363c0,0.906,0.823,1.417,1.668,1.417c0.562,0,1.185-0.301,1.475-0.826h0.013
		c0.014,0.147,0.014,0.458,0.06,0.712h1.089c-0.025-0.372-0.045-0.702-0.058-1.064C75.117,77.472,75.108,77.11,75.108,76.624"/>
</g>
<rect x="76.867" y="71.938" fill="#FFFFFF" width="1.239" height="6.947"/>
<rect x="79.945" y="72.061" fill="#FFFFFF" width="1.244" height="1.185"/>
<rect x="79.945" y="74.117" fill="#FFFFFF" width="1.244" height="4.769"/>
<g>
	<defs>
		<rect id="SVGID_7_" y="13.738" width="87" height="65.262"/>
	</defs>
	<clipPath id="SVGID_8_">
		<use xlink:href="#SVGID_7_"  overflow="visible"/>
	</clipPath>
	<path clip-path="url(#SVGID_8_)" fill="#FFFFFF" d="M85.535,77.663c-0.188,0.259-0.487,0.426-0.865,0.426
		c-0.446,0-0.79-0.172-0.79-0.585c0-0.728,0.821-0.821,1.381-0.821h0.541C85.802,77.054,85.742,77.393,85.535,77.663 M86.947,77.821
		c-0.01-0.35-0.019-0.712-0.019-1.197v-0.609c0-1.407-0.604-2.012-2.061-2.012c-0.527,0-1.173,0.142-1.653,0.366l0.034,1.06
		c0.42-0.312,0.947-0.516,1.475-0.516c0.731,0,1.078,0.259,1.078,1.03h-0.69c-0.518,0-1.127,0.044-1.604,0.275
		c-0.469,0.233-0.812,0.648-0.812,1.364c0,0.906,0.827,1.417,1.669,1.417c0.562,0,1.186-0.3,1.47-0.827h0.023
		c0.009,0.149,0.009,0.46,0.053,0.713H87C86.979,78.514,86.955,78.182,86.947,77.821"/>
	<path clip-path="url(#SVGID_8_)" fill="#FFFFFF" d="M36.878,25.742c3.313-2.417,8.669-2.642,12.209-0.548
		c2.023,1.059,3.94,3.091,4.904,5.124c2.011,3.877,1.239,9.288-1.654,12.512c-3.012,3.417-7.322,4.76-11.794,3.695
		c-3.989-0.792-7.641-4.703-8.435-8.627C30.989,33.099,32.928,28.524,36.878,25.742 M31.78,37.262
		c0.584,4.287,4.372,8.501,8.624,9.426c4.354,1.095,8.711-0.163,11.739-3.363c3.155-3.256,4.125-8.698,2.151-12.812
		c-0.921-2.111-2.842-4.225-4.905-5.375c-3.64-2.241-9.314-2.061-12.732,0.524C32.918,28.389,30.986,32.6,31.78,37.262"/>
	<path clip-path="url(#SVGID_8_)" fill="#FFFFFF" d="M28.195,41.729c-0.275,0.163-0.6,0.411-0.662,0.743
		c-0.146,0.771,0.179,1.426,0.634,1.984c0.324,0.415,0.861,0.467,1.322,0.388L32,43.517c0.365-0.107,0.684,0.05,0.938,0.303
		l0.05-0.053l-0.77-1.406h-0.109l0.055,0.387c-0.02,0.27-0.176,0.51-0.416,0.663c-0.988,0.455-1.858,1.361-3.003,1.267
		c-0.518-0.204-0.797-0.743-0.824-1.267c0.022-0.337,0.135-0.637,0.442-0.857l2.561-1.431l0.274-0.055
		c0.181,0.049,0.208,0.363,0.414,0.274c-0.233-0.56-0.585-1.067-0.882-1.594h-0.081c-0.051,0.187,0.229,0.455-0.028,0.63
		L28.195,41.729z"/>
	<path clip-path="url(#SVGID_8_)" fill="#FFFFFF" d="M59.144,43.659c0.299-0.51,0.519-1.105,0.771-1.66
		c-0.229-0.109-0.229,0.333-0.495,0.333l-3.277-1.485c-0.379-0.086-0.177-0.443-0.193-0.689h-0.082
		c-0.284,0.543-0.548,1.094-0.743,1.679c0.211-0.03,0.261-0.396,0.522-0.355l3.416,1.594c0.128,0.183,0,0.39,0,0.584H59.144z"/>
	<path clip-path="url(#SVGID_8_)" fill="#FFFFFF" d="M55.063,48.729c0.844-0.784,1.614-1.604,2.404-2.456l-0.97-1.322
		c-0.032,0.005-0.091-0.021-0.109,0.027c0.362,0.56,0.51,1.515,0.081,2.098c-0.18,0.208-0.396,0.625-0.743,0.462l-2.7-2.505
		c-0.167-0.253,0.18-0.398,0.141-0.604h-0.086l-1.212,1.24c0.116,0.297,0.342-0.251,0.58-0.084l2.728,2.564
		c0.082,0.208-0.141,0.36-0.167,0.554C55.028,48.716,55.036,48.734,55.063,48.729"/>
	<path clip-path="url(#SVGID_8_)" fill="#FFFFFF" d="M35.056,47.517c0.315-0.375,0.572-0.775,0.857-1.16v-0.164l-0.248,0.054
		c-0.154-0.108-0.218-0.263-0.28-0.412c-0.384-0.717-1.272-1.055-1.982-0.661c-1.557,1.044,0.481,2.211,0.166,3.443
		c-0.166,0.283-0.456,0.519-0.799,0.495c-0.36-0.005-0.626-0.275-0.856-0.524c-0.424-0.691,0.059-1.423,0.334-2.038h-0.085
		c-0.38,0.436-0.793,0.904-1.186,1.349v0.141c0.148-0.026,0.279-0.085,0.386,0.053c0.339,0.602,0.912,1.215,1.628,1.27
		c0.405,0.021,0.756-0.107,1.045-0.389c1.096-1.114-0.521-2.091-0.388-3.252c0.108-0.259,0.38-0.476,0.664-0.495
		c0.234,0.05,0.469,0.099,0.636,0.307c0.585,0.555,0.185,1.388,0.027,1.983H35.056z"/>
	<path clip-path="url(#SVGID_8_)" fill="#FFFFFF" d="M40.516,49.253c0.094,0.194,0.027,0.478,0.163,0.63
		c0.126-0.508,0.208-1.032,0.247-1.568c-1.058-0.197-2.032-0.621-3.033-0.964l-0.324-0.222l-0.776,1.213
		c0,0.063-0.121,0.173,0,0.193c0.505-0.504,1.078-0.848,1.823-0.77c0.051,0.025,0.156,0.043,0.138,0.134
		c-0.464,1.215-0.837,2.462-1.379,3.639c-0.217,0.086-0.441-0.04-0.636,0v0.055c0.627,0.27,1.291,0.464,1.928,0.69l0.054-0.054
		c-0.121-0.187-0.455-0.173-0.494-0.442l1.326-3.666C40.042,48.26,40.399,48.789,40.516,49.253"/>
	<path clip-path="url(#SVGID_8_)" fill="#FFFFFF" d="M27.613,37.348l-0.108-1.186l1.515,0.386
		C28.605,36.877,28.101,37.111,27.613,37.348 M29.246,36.438c-1.132-0.368-2.381-0.448-3.395-1.102
		c-0.131-0.12-0.103-0.375-0.303-0.388c0,0.5,0.1,1.033,0.164,1.542c0.242-0.039,0.093-0.381,0.332-0.494
		c0.402-0.252,0.862-0.005,1.239,0.113l0.141,1.347c-0.338,0.31-0.771,0.504-1.186,0.691c-0.238,0-0.194-0.276-0.274-0.417
		c-0.036,0.005-0.118-0.019-0.113,0.032c0.044,0.552,0.098,1.169,0.193,1.735c0.199-0.037,0.045-0.375,0.276-0.47
		c1.352-0.792,2.708-1.621,4.052-2.37l-0.054-0.053C29.916,36.656,29.587,36.03,29.246,36.438"/>
	<path clip-path="url(#SVGID_8_)" fill="#FFFFFF" d="M43.713,48.644c0.363,0.016,0.766-0.054,1.045,0.167
		c0.378,0.393,0.339,1.022,0.136,1.489c-0.271,0.363-0.712,0.323-1.127,0.354C43.709,50,43.65,49.315,43.713,48.644 M44.209,50.875
		c0.702,0.469,0.915,1.291,1.379,1.933c0.424,0.021,0.82-0.032,1.239-0.058v-0.079c-0.704,0.049-0.86-0.755-1.159-1.186
		c-0.161-0.406-0.611-0.65-0.965-0.772c0.461-0.149,1.024-0.352,1.21-0.884c0.095-0.338-0.02-0.65-0.219-0.905
		c-0.858-0.794-2.203-0.344-3.307-0.388l-0.082,0.054c0.144,0.145,0.459,0.036,0.551,0.304l0.14,3.664
		c-0.081,0.276-0.407,0.14-0.523,0.328l0.05,0.061l1.659-0.061c0.082,0.019,0.208-0.021,0.16-0.136
		c-0.183-0.04-0.396-0.004-0.521-0.192l-0.082-1.623l0.055-0.087C43.93,50.858,44.08,50.83,44.209,50.875"/>
	<path clip-path="url(#SVGID_8_)" fill="#FFFFFF" d="M49.443,50.025c-0.127-0.494-0.091-1.053-0.137-1.571
		c0.41,0.319,0.839,0.686,1.214,1.045L49.443,50.025z M51.427,51.015c0.544-0.197,1.068-0.469,1.6-0.715v-0.054h-0.41l-3.643-3.061
		l-0.054,0.052c0.202,0.388-0.307,0.938,0.221,1.105l0.166,2.533c0,0.463-0.05,0.986-0.441,1.299
		c0.474-0.118,0.955-0.41,1.434-0.609v-0.08h-0.387c-0.51-0.188-0.447-0.755-0.522-1.186c0.391-0.274,0.869-0.479,1.319-0.664
		l0.97,0.856C51.85,50.765,51.382,50.822,51.427,51.015"/>
	<path clip-path="url(#SVGID_8_)" fill="#FFFFFF" d="M59.257,37.952c-0.505-0.145-0.938-0.461-1.406-0.692
		c0.46-0.205,0.99-0.367,1.515-0.493L59.257,37.952z M60.911,36.296c0.185,0.103,0.086,0.329,0.189,0.47l0.086-0.028
		c0.045-0.571,0.13-1.154,0.134-1.708c-0.184,0.025-0.081,0.274-0.247,0.359c-1.496,0.514-3.002,1.006-4.521,1.459v0.083
		c0.401,0.013,0.63,0.764,1.049,0.386l2.562,1.348c0.352,0.2,0.609,0.559,0.69,0.911c0.167-0.48,0.139-1.04,0.192-1.572
		c-0.226,0.049-0.216,0.386-0.469,0.446c-0.446,0.099-0.803-0.176-1.157-0.387l0.139-1.353
		C59.951,36.49,60.425,36.354,60.911,36.296"/>
	<path clip-path="url(#SVGID_8_)" fill="#FFFFFF" d="M42.748,17.556c-0.591,0.022-1.286-0.045-1.875,0.058
		c0.078,0.213,0.423,0.018,0.522,0.276l0.086,2.812c0.018,0.397,0.13,0.748,0.464,1.016c0.573,0.373,1.394,0.458,2.069,0.251
		c1.221-0.402,0.717-1.902,0.798-2.814c0.022-0.482-0.091-1.009,0.279-1.353c0.122-0.147,0.375-0.103,0.437-0.273
		c-0.486-0.091-0.968,0.062-1.46-0.03l-0.193,0.056c0.127,0.145,0.41,0.154,0.553,0.36c0.416,0.752,0.128,1.798,0.249,2.672
		c0.019,0.442-0.121,0.835-0.469,1.105c-0.375,0.267-0.92,0.193-1.319,0.05c-0.279-0.127-0.533-0.419-0.582-0.712l-0.086-3.088
		l0.112-0.167C42.46,17.665,42.774,17.8,42.748,17.556"/>
	<path clip-path="url(#SVGID_8_)" fill="#FFFFFF" d="M47.96,22.491c-0.167,0-0.41-0.123-0.501,0
		c0.555,0.289,1.154,0.474,1.709,0.744c0.072,0.033,0.221,0.064,0.248-0.025c-0.167-0.167-0.441-0.219-0.496-0.47
		c0.482-1.22,0.937-2.448,1.491-3.637c0.434,0.157,0.712,0.617,0.848,1.017c0.068,0.263,0.104,0.564,0.173,0.798
		c0.147-0.51,0.261-1.031,0.328-1.573h-0.194l-2.754-1.041l-0.361-0.249c-0.342,0.424-0.626,0.875-0.852,1.349
		c0.573-0.433,1.267-0.911,2.01-0.603c-0.377,1.098-0.886,2.146-1.265,3.249C48.243,22.207,48.23,22.522,47.96,22.491"/>
	<path clip-path="url(#SVGID_8_)" fill="#FFFFFF" d="M52.008,24.308c-0.242,0.263-0.451-0.134-0.658-0.109v0.083
		c0.396,0.402,0.839,0.838,1.235,1.239c0.298-0.107-0.225-0.327-0.081-0.55l1.321-1.351h0.086c0.418,0.441,0.902,0.854,1.266,1.323
		l-1.211,1.214c-0.227,0.383-0.497-0.149-0.719-0.033c0.343,0.45,0.808,0.848,1.212,1.272h0.137c0.008-0.194-0.244-0.284-0.19-0.496
		l2.643-2.702c0.242-0.152,0.374,0.151,0.581,0.163l0.06-0.08l-1.16-1.186c-0.07-0.019-0.162-0.156-0.225-0.028
		c0.672,0.699-0.622,1.123-0.938,1.683H55.29c-0.419-0.461-0.901-0.79-1.271-1.295l1.132-1.16c0.246-0.154,0.362,0.159,0.575,0.163
		c0.051-0.017,0.023-0.072,0.026-0.108l-1.239-1.238c-0.302,0.119,0.221,0.316,0.082,0.577L52.008,24.308z"/>
	<path clip-path="url(#SVGID_8_)" fill="#FFFFFF" d="M32.356,23.317v-0.109l-1.187-0.964H31.09c0.122,0.528-0.546,0.483-0.798,0.77
		c-0.456,0.385-0.623,0.957-0.5,1.516c0.726,1.936,2.357-0.062,3.556,0.221c0.28,0.152,0.478,0.431,0.497,0.745
		c-0.005,0.425-0.343,0.809-0.716,0.989c-0.708,0.201-1.316-0.186-1.872-0.521l-0.058,0.052c0.45,0.456,0.929,0.938,1.434,1.328
		l0.054-0.055c-0.02-0.078-0.078-0.136-0.054-0.221c0.143-0.21,0.392-0.308,0.604-0.417c0.527-0.371,0.942-0.882,0.883-1.547
		c-0.073-0.382-0.226-0.77-0.577-1.017c-1.122-0.644-2.006,0.609-3.115,0.414c-0.22-0.156-0.416-0.373-0.437-0.636
		c0.044-0.274,0.153-0.521,0.41-0.71C31,22.672,31.771,23.094,32.356,23.317"/>
	<path clip-path="url(#SVGID_8_)" fill="#FFFFFF" d="M35.084,21.031c-0.108-0.518-0.082-1.11,0.308-1.49
		c0.368-0.345,0.905-0.525,1.4-0.329c0.753,0.31,1.195,1.144,1.461,1.846c0.201,0.514,0.244,1.314-0.137,1.763
		c-0.289,0.312-0.648,0.447-1.049,0.497C35.905,23.249,35.368,21.95,35.084,21.031 M38.808,22.326
		c0.351-0.623,0.405-1.538,0.054-2.179c-0.465-0.901-1.417-1.344-2.425-1.266c-0.897,0.08-1.75,0.824-2.016,1.675
		c-0.198,0.736-0.031,1.52,0.389,2.098c0.522,0.656,1.248,0.932,2.068,0.909C37.671,23.512,38.396,23.016,38.808,22.326"/>
	<path clip-path="url(#SVGID_8_)" fill="#FFFFFF" d="M43.551,16.084c8.215,0,15.24,5.138,18.001,12.38l2.186-0.81
		c-3.091-8.139-10.964-13.916-20.187-13.916c-9.22,0-17.078,5.772-20.175,13.902l2.189,0.819
		C28.329,21.226,35.34,16.084,43.551,16.084"/>
	<path clip-path="url(#SVGID_8_)" fill="#FFFFFF" d="M64.793,39.226l-2.308-0.431c-1.633,8.969-9.49,15.779-18.936,15.779
		c-9.444,0-17.293-6.811-18.93-15.779l-2.308,0.436C24.15,49.293,32.961,56.919,43.55,56.919
		C54.145,56.919,62.959,49.288,64.793,39.226"/>
	<path clip-path="url(#SVGID_8_)" fill="#FFFFFF" d="M45.776,42.663c0.023,0.021,0.037,0.036,0.054,0.058v0.081
		c-0.058-0.042-0.112-0.09-0.171-0.139H45.28c0.118,0.142,0.235,0.289,0.356,0.445c0.01,0.086,0,0.173-0.082,0.223
		c-0.165-0.236-0.347-0.456-0.521-0.667h-0.307L45.2,43.33c-0.014,0.066,0.035,0.155-0.055,0.188
		c-0.153-0.297-0.392-0.572-0.613-0.856h-0.279c0.157,0.27,0.302,0.55,0.369,0.856c0.026,0.099-0.09,0.211-0.166,0.192
		c-0.104-0.367-0.284-0.706-0.438-1.048h-0.252c0.08,0.367,0.116,0.752,0.107,1.131c-0.523-0.221-0.499-0.676-0.441-1.131h-0.185
		c0.031,0.426,0,0.856-0.42,1.103h-0.081c-0.022-0.397,0.063-0.761,0.182-1.103h-0.217c-0.123,0.36-0.271,0.716-0.379,1.077
		c-0.082,0.077-0.189-0.036-0.221-0.106c0.075-0.346,0.207-0.66,0.36-0.97h-0.271c-0.171,0.238-0.346,0.48-0.473,0.747
		c-0.049,0.017-0.08-0.026-0.113-0.053c0.122-0.237,0.257-0.47,0.402-0.694h-0.429c-0.131,0.135-0.253,0.278-0.329,0.445h-0.059
		c0.05-0.161,0.134-0.306,0.243-0.445h-0.374c-0.004,0-0.004,0-0.004,0.004h-0.082v-0.004h-0.478
		c-0.131,0.207-0.249,0.418-0.298,0.667c-0.017,0.243,0.388,0.175,0.279,0.464c0.06,0.216,0.289,0.14,0.412,0.248
		c0.013,0.356,0.414,0.26,0.635,0.356c0.069,0.623,0.749-0.077,0.879,0.5c0.149,0,0.257-0.095,0.388-0.139
		c0.166,0.022,0.288,0.206,0.383,0.328c0.275,0.226,0.383-0.139,0.582-0.274l0.497,0.195l0.327-0.384
		c0.388,0.284,0.528-0.283,0.886-0.167c0.245,0.027,0.219-0.256,0.327-0.387c0.428,0.062,0.364-0.532,0.776-0.524
		c0.017-0.36-0.217-0.607-0.389-0.882H45.776z"/>
	<path clip-path="url(#SVGID_8_)" fill="#FFFFFF" d="M47.291,42.03c0.023-0.184,0.229-0.269,0.361-0.355
		c0.21,0.032,0.518-0.091,0.636,0.109C48.201,42.238,47.626,41.95,47.291,42.03 M46.882,42.003c-0.13,0.055-0.316,0.026-0.385-0.086
		c-0.034-0.146,0.086-0.206,0.19-0.243c0.146,0.018,0.333-0.049,0.442,0.054C47.139,41.859,46.991,41.969,46.882,42.003
		 M45.944,42.03c-0.262,0.106-0.441-0.167-0.636-0.301c0.202-0.062,0.603-0.13,0.77,0.055C46.058,41.873,46.039,41.969,45.944,42.03
		 M44.344,40.928l0.221-0.66c0.202,0.234,0.495,0.221,0.744,0.33c0.266,0.211,0.531,0.45,0.749,0.716
		C45.482,41.265,44.689,41.598,44.344,40.928 M40.765,41.368c0.03-0.199,0.338-0.378,0.518-0.524c0.433,0.104,1.118-1,1.159,0.027
		C42.144,41.495,41.372,41.408,40.765,41.368 M40.765,42.03c-0.024-0.138,0.121-0.233,0.216-0.301c0.112-0.042,0.278-0.042,0.387,0
		C41.211,41.814,41.052,42.225,40.765,42.03 M40.101,42.03c-0.197-0.017-0.329,0.05-0.496-0.054
		c0.027-0.093,0.083-0.179,0.167-0.247c0.136-0.042,0.329-0.042,0.47,0C40.313,41.846,40.242,42.017,40.101,42.03 M39.138,42.058
		c-0.243,0.014-0.623,0.117-0.772-0.108c0.092-0.406,0.642-0.149,0.966-0.222l0.054,0.055
		C39.394,41.913,39.246,42.021,39.138,42.058 M48.314,41.455c-0.686,0.08-1.144-0.376-1.848-0.249l-1.158-1.104
		c-0.037-0.021-0.068-0.05-0.099-0.077l-1.001-0.004c-0.028,0.047-0.055,0.091-0.086,0.138l0.14,0.078
		c-0.167,0.529-0.379,1.059-0.853,1.439c-0.544-0.334-0.753-0.952-0.91-1.517h0.189c-0.005-0.047-0.014-0.091-0.022-0.138h-0.92
		c-0.008,0.011-0.014,0.02-0.019,0.029c-0.661,0.472-1.13,1.535-2.151,1.212c-0.414,0.365-1.171-0.063-1.486,0.468
		c-0.064,0.182-0.024,0.384,0.107,0.524c0.248,0.154,0.663,0.108,0.884,0.081c0.154,0.093,0.297,0.171,0.495,0.139
		c0.173-0.271,0.362-0.008,0.551,0.027c0.204,0.004,0.364-0.244,0.548-0.107c-0.054,0.089-0.116,0.18-0.171,0.27h0.479
		c0.039-0.382,0.532-0.573,0.798-0.854l0.549-0.381c-0.348,0.465-0.862,0.767-1.262,1.234h0.373c0.271-0.353,0.677-0.645,0.97-0.962
		c-0.107,0.373-0.509,0.647-0.821,0.962h0.425c0.215-0.347,0.454-0.681,0.729-0.962c-0.108,0.348-0.324,0.655-0.547,0.962h0.271
		c0.152-0.319,0.329-0.636,0.469-0.962c-0.027,0.33-0.118,0.647-0.231,0.962h0.219c0.081-0.249,0.176-0.481,0.257-0.711
		c0.004,0.211,0.045,0.463,0.062,0.711h0.186c0.025-0.252,0.066-0.5,0.03-0.711h0.081c0.095,0.225,0.172,0.463,0.228,0.711h0.246
		c-0.121-0.27-0.235-0.549-0.279-0.854h0.053c0.119,0.3,0.299,0.574,0.461,0.854h0.275c-0.251-0.329-0.482-0.661-0.541-1.045
		l0.739,1.045h0.306c-0.333-0.403-0.666-0.789-0.937-1.234h0.085c0.42,0.406,0.759,0.811,1.101,1.234h0.377
		c-0.428-0.364-0.806-0.824-1.176-1.234c0.484,0.343,0.876,0.793,1.295,1.234h0.414c-0.059-0.095-0.107-0.192-0.134-0.297
		c0.16-0.101,0.293,0.044,0.409,0.135c0.256,0.081,0.388-0.132,0.582-0.194c0.347,0.545,0.697-0.207,1.152-0.053
		c0.209-0.072,0.403-0.284,0.361-0.524C48.514,41.616,48.445,41.471,48.314,41.455"/>
	<path clip-path="url(#SVGID_8_)" fill="#FFFFFF" d="M38.887,32.082c0.068-0.045,0.139-0.025,0.203,0.004
		c0.118,0.067,0.235,0.181,0.317,0.004c0.004-0.004,0.004-0.004,0.004-0.008c-0.081-0.234-0.545-0.326-0.411-0.636l0.271,0.141
		c0.019-0.23-0.203-0.392-0.136-0.603c0.19,0.111,0.299,0.359,0.443,0.546c-0.042,0.188-0.076,0.371-0.1,0.556h0.001
		c-0.049,0.351-0.064,0.699,0.013,1.069c-0.185,0.008-0.324-0.1-0.464-0.189c-0.072-0.1-0.1-0.208-0.085-0.334
		c0.141-0.059,0.261,0.234,0.415,0.06c-0.037-0.271-0.375-0.356-0.464-0.605h-0.006V32.082z M39.438,30.373
		c0.176,0.22,0.144,0.572,0.222,0.856C39.51,31,39.253,30.662,39.438,30.373 M39.959,29.71c0.015,0.414,0.113,0.83-0.081,1.185
		C39.938,30.503,39.307,29.955,39.959,29.71 M40.209,33.654c0.176-0.049,0.023-0.22,0.033-0.333
		c0.246,0.347,0.039,0.934,0.491,1.213c0.085,0.053,0.153,0.122,0.202,0.197h0.001c0.122,0.171,0.18,0.379,0.238,0.573
		c0.024,0.256-0.116,0.477-0.327,0.608c-0.119,0.01-0.2-0.076-0.194-0.192c-0.05-0.092,0.103-0.168-0.026-0.221
		c-0.145,0.096-0.276,0.296-0.471,0.193c-0.067-0.193,0.113-0.352,0.167-0.523c-0.221-0.027-0.381,0.338-0.661,0.167
		c-0.06-0.235,0.14-0.359,0.246-0.525c-0.219-0.123-0.381,0.124-0.604,0c0-0.03,0.009-0.054,0.022-0.079
		c0.082-0.145,0.351-0.212,0.501-0.334c-0.153-0.103-0.392-0.242-0.416-0.468c0.257-0.139,0.429,0.256,0.664,0.081
		c0.004-0.206-0.244-0.387-0.113-0.576C40.062,33.475,40.128,33.58,40.209,33.654 M42.64,33.87
		c-0.198-0.014-0.348-0.118-0.501-0.216c0.19-0.089,0.46,0.185,0.635-0.031c0.037-0.281-0.246-0.434-0.41-0.631
		c0.276-0.015,0.479,0.19,0.464,0.468C42.766,33.596,42.865,33.854,42.64,33.87 M43.185,33.568c0.058,0.023,0.167-0.042,0.167,0.055
		c0.009,0.058-0.004,0.149-0.081,0.113h-0.086V33.568z M46.369,34.731h0.004c0.018-0.027,0.032-0.059,0.04-0.089
		c0.364-0.356,0.355-0.87,0.577-1.288c0.051,0.12-0.104,0.229,0.03,0.326c0.15-0.013,0.15-0.206,0.33-0.166
		c0.141,0.29-0.456,0.403-0.193,0.604c0.149-0.053,0.334-0.226,0.496-0.082c-0.009,0.226-0.303,0.226-0.36,0.416
		c0.234,0.013,0.454,0.094,0.589,0.279c0.007,0.004,0.016,0.015,0.018,0.024c0.042,0.112-0.079,0.151-0.165,0.139
		c-0.209,0.039-0.421-0.084-0.578,0c0.126,0.212,0.451,0.248,0.415,0.548c-0.285,0.109-0.46-0.186-0.717-0.22
		c-0.072,0.201,0.261,0.302,0.215,0.522c-0.252,0.083-0.437-0.17-0.631-0.274c-0.05,0.132,0.041,0.271,0.114,0.388
		c-0.203,0.096-0.401-0.051-0.497-0.222C45.8,35.279,46.205,35.028,46.369,34.731 M48.147,31.445
		c0.091-0.009,0.132,0.097,0.112,0.167c-0.04,0.189-0.219,0.342-0.396,0.473c-0.075,0.054-0.147,0.109-0.211,0.163
		c-0.014-0.058-0.019-0.109-0.009-0.163h-0.001C47.688,31.85,47.967,31.644,48.147,31.445 M47.351,30.044
		c0.158,0.004,0.144,0.185,0.221,0.275c-0.062,0.225-0.229,0.481-0.112,0.718c0.153-0.1,0.141-0.356,0.332-0.417
		c-0.03,0.299-0.139,0.619-0.332,0.883C47.257,31.08,47.266,30.513,47.351,30.044 M48.094,30.954
		c-0.035,0.257-0.266,0.505-0.441,0.744h-0.027C47.644,31.428,47.878,31.13,48.094,30.954 M47.708,32.577
		c0.071-0.184,0.352-0.379,0.58-0.442c0.122,0.05,0,0.132,0,0.194C48.163,32.524,47.909,32.513,47.708,32.577 M48.009,32.691
		c0.044,0,0.118-0.011,0.112,0.047c0.013,0.268-0.292,0.146-0.413,0.254C47.629,32.833,47.896,32.738,48.009,32.691 M33.236,33.843
		c0.198,0.27,0.514,0.375,0.667,0.637c-0.072,0.093-0.163,0.176-0.253,0.251h-0.001c-0.175,0.152-0.347,0.307-0.355,0.546
		c0.192,0.221,0.508,0.234,0.743,0.414c-0.117,0.211-0.343,0.406-0.279,0.662c0.314,0.161,0.706,0.146,1.049,0.221
		c-0.085,0.221-0.157,0.447-0.192,0.685c0.206,0.27,0.653,0.155,0.938,0.221c-0.017,0.222-0.172,0.465-0.194,0.719
		c0.271,0.176,0.609,0.022,0.911,0.03c0.181-0.046,0.203,0.157,0.221,0.275c0.059,0.382,0.442,0.066,0.689,0.167l0.275,0.464
		c0.153,0.014,0.29-0.013,0.415-0.08c0.222-0.141,0.321,0.116,0.415,0.247c0.158,0.25,0.382,0,0.577,0
		c0.145,0.067,0.198,0.221,0.303,0.329c0.207,0.118,0.325-0.134,0.469-0.246c0.273-0.147,0.378,0.278,0.603,0.329
		c0.262-0.213,0.556-0.281,0.884-0.162c0.366-0.314,0.324-0.794,0.36-1.239c0.027-0.079,0.055-0.206,0.163-0.196
		c0.154,0.617,0.542,1.301,0.103,1.901h0.92c-0.073-0.229-0.233-0.458-0.334-0.688c-0.135-0.217,0.183-0.641-0.161-0.637
		l-0.059,0.062c-0.538-0.984,0.402-1.823,0.328-2.842c0.078-0.181-0.176-0.496,0.167-0.47c0.482,0.016,0.905-0.237,1.158-0.663
		c0.01-0.013,0.02-0.03,0.027-0.048c0.103-0.221,0.027-0.55,0.273-0.666c0.276,0.124,0.425,0.38,0.488,0.666h0.001
		c0.023,0.108,0.034,0.215,0.034,0.324c-0.263,0.978-0.124,2.125,0.304,2.982l-0.109,0.684c-0.364-0.049-0.104,0.389-0.22,0.551
		c-0.063,0.276-0.212,0.514-0.355,0.747h0.999c-0.463-0.413-0.257-1.068-0.117-1.568c0.009-0.084,0.101-0.221,0.218-0.167
		c0.27,0.371,0.118,0.964,0.554,1.295c0.131,0.076,0.274,0.102,0.385-0.026c0.179-0.167,0.372,0.043,0.467,0.192
		c0.145,0.016,0.234-0.101,0.334-0.192c0.208-0.172,0.385,0.074,0.577,0.111c0.104-0.085,0.185-0.225,0.274-0.334
		c0.169-0.095,0.276,0.088,0.413,0.134c0.256,0.076,0.266-0.305,0.445-0.438c0.199-0.008,0.342,0.123,0.55,0.109l0.221-0.381
		c0.221-0.259,0.497,0.017,0.771-0.033l0.357-0.521l0.581-0.029c0.148-0.167,0.144-0.401,0.135-0.63
		c0.289-0.188,0.698-0.095,1.019-0.193c0.022-0.249-0.12-0.51-0.216-0.745c0.275-0.14,0.635-0.072,0.939-0.165
		c0.093-0.349-0.268-0.609-0.336-0.886l0.852-0.41c-0.004-0.185-0.147-0.298-0.283-0.411h-0.001
		c-0.098-0.076-0.188-0.152-0.233-0.251c0.252-0.186,0.535-0.298,0.799-0.47l0.025-0.14c-0.261-0.279-0.599-0.478-0.938-0.629
		l-0.028-0.086l0.606-0.551v-0.136c-0.239-0.242-0.606-0.201-0.88-0.354c0.004-0.01,0.004-0.019,0.009-0.028h-0.001
		c0.153-0.271,0.568-0.368,0.623-0.694c-0.171-0.197-0.425-0.183-0.658-0.221c-0.162,0-0.338,0.113-0.47,0
		c0.171-0.315,0.551-0.472,0.632-0.824c-0.536-0.21-1.082,0.143-1.572,0.22c0.147-0.23,0.328-0.405,0.554-0.548
		c0.216-0.204,0.644-0.403,0.522-0.717c-0.527,0-0.973,0.202-1.406,0.437c-0.315,0.113-0.576,0.442-0.878,0.495
		c0.22-0.278,0.575-0.451,0.824-0.771c0.234-0.251,0.194-0.625,0.496-0.851c0.021-0.157,0.202-0.311,0.059-0.469
		c-0.75,0.185-1.411,0.744-1.903,1.349l-0.058-0.055c0.216-0.307,0.297-0.667,0.606-0.938c0.169-0.356,0.497-0.79,0.25-1.181
		c-0.74,0.218-1.109,1.033-1.547,1.569c-0.08-0.091-0.066-0.215-0.08-0.332c0.392-0.51,0.378-1.197,0.441-1.845
		c0.008-0.109-0.09-0.235-0.193-0.167c-0.435,0.325-0.551,0.821-0.745,1.267l-0.055-0.056v-1.099
		c-0.026-0.296-0.129-0.663-0.441-0.744c-0.314,0.312-0.193,0.798-0.334,1.187c-0.115,0-0.14-0.146-0.216-0.221
		c-0.041-0.046-0.136-0.046-0.167,0.028c-0.09,1.621,0.036,3.131,0.14,4.709c-0.075,0.154-0.14,0.31-0.189,0.473h0.002
		c-0.275,0.879-0.239,1.89-0.803,2.646h-0.002c-0.094,0.127-0.201,0.245-0.333,0.358c-0.237,0.185-0.537-0.009-0.825,0.053
		c-0.1-0.117-0.13-0.261-0.158-0.411c-0.018-0.094-0.03-0.188-0.062-0.279c-0.378-1.055-1.516-1.329-2.395-1.683
		c-0.193-0.021-0.5-0.09-0.635,0.055c0.301,0.152,0.619,0.324,0.825,0.635L42.5,33.515c-0.258-0.09-0.555-0.16-0.831-0.136
		c0.167,0.46,0.717,0.514,0.998,0.881c0.013,0.152,0.034,0.319,0.018,0.471h0.001c-0.02,0.186-0.093,0.352-0.272,0.466
		c-0.225,0.153-0.328-0.154-0.522-0.166c-0.189-0.02-0.432,0.174-0.578-0.055c-0.009-0.087-0.035-0.166-0.075-0.245h-0.001
		c-0.212-0.418-0.767-0.696-0.613-1.271c-0.22-0.438-0.387-0.889-0.486-1.375c-0.054-0.255-0.085-0.523-0.096-0.802
		c0.177-1.424,0.859-2.89,0.361-4.354c-0.208,0.013-0.234,0.262-0.409,0.334l-0.061-0.058c0.019-0.443-0.012-0.861-0.081-1.268
		l-0.112-0.221c-0.248,0.131-0.41,0.432-0.469,0.717c0.14,0.663-0.018,1.333-0.027,2.01c-0.171-0.306-0.203-0.677-0.301-1.019
		c-0.173-0.366-0.244-0.916-0.689-1.019c-0.293,0.433-0.019,0.968-0.028,1.462c0.054,0.273,0.361,0.516,0.167,0.822l-0.637-0.882
		c-0.21-0.229-0.467-0.582-0.769-0.577c-0.059,0.577,0.288,0.986,0.468,1.459c0.067,0.236,0.325,0.43,0.301,0.663
		c-0.643-0.455-1.207-0.991-1.955-1.131c-0.068,0.614,0.607,0.996,0.91,1.488l-0.054,0.059c-0.37-0.167-0.729-0.36-1.077-0.582
		c-0.225-0.046-0.446-0.276-0.69-0.109c0,0.438,0.285,0.786,0.582,1.074c-0.374,0.049-0.783-0.212-1.158,0
		c0.078,0.334,0.473,0.53,0.576,0.857c-0.347,0.185-0.815,0.067-1.18,0.22c0.086,0.264,0.346,0.448,0.495,0.686l-0.085,0.086
		c-0.126,0-0.243,0.036-0.347,0.084c-0.134,0.067-0.265,0.163-0.396,0.243c0.035,0.33,0.451,0.51,0.608,0.826
		C33.714,33.325,33.416,33.565,33.236,33.843"/>
</g>
<rect x="21.904" y="35.155" fill="#FFFFFF" width="2.332" height="0.588"/>
<polygon fill="#FFFFFF" points="21.934,34.731 24.254,34.822 24.278,34.241 21.956,34.145 "/>
<rect x="22.02" y="33.266" transform="matrix(-0.9967 -0.0808 0.0808 -0.9967 43.5662 68.8822)" fill="#FFFFFF" width="2.314" height="0.586"/>
<polygon fill="#FFFFFF" points="22.109,32.783 24.399,33.064 24.471,32.481 22.177,32.21 "/>
<polygon fill="#FFFFFF" points="22.254,31.815 24.535,32.185 24.623,31.614 22.349,31.242 "/>
<polygon fill="#FFFFFF" points="24.782,30.733 22.515,30.272 22.401,30.842 24.669,31.305 "/>
<rect x="22.663" y="29.591" transform="matrix(0.9719 0.2354 -0.2354 0.9719 7.7035 -4.7676)" fill="#FFFFFF" width="2.317" height="0.584"/>
<rect x="22.925" y="28.686" transform="matrix(0.9609 0.277 -0.277 0.9609 8.9718 -5.5395)" fill="#FFFFFF" width="2.33" height="0.588"/>
<rect x="62.801" y="35.152" fill="#FFFFFF" width="2.33" height="0.591"/>
<polygon fill="#FFFFFF" points="62.76,34.241 62.787,34.822 65.104,34.732 65.08,34.146 "/>
<rect x="63.567" y="32.402" transform="matrix(-0.0768 -0.997 0.997 -0.0768 35.3049 99.8084)" fill="#FFFFFF" width="0.585" height="2.316"/>
<polygon fill="#FFFFFF" points="62.57,32.481 62.638,33.064 64.933,32.783 64.861,32.21 "/>
<polygon fill="#FFFFFF" points="62.413,31.614 62.502,32.185 64.783,31.815 64.694,31.242 "/>
<rect x="62.291" y="30.499" transform="matrix(-0.9797 0.2006 -0.2006 -0.9797 131.7818 48.226)" fill="#FFFFFF" width="2.313" height="0.58"/>
<rect x="62.058" y="29.594" transform="matrix(-0.9715 0.2369 -0.2369 -0.9715 131.7176 43.9446)" fill="#FFFFFF" width="2.321" height="0.584"/>
<rect x="61.781" y="28.686" transform="matrix(-0.9612 0.2759 -0.2759 -0.9612 131.451 39.4639)" fill="#FFFFFF" width="2.336" height="0.587"/>
</svg>
