<?xml version="1.0" encoding="UTF-8"?>
<!-- Generator: Adobe Illustrator 16.0.0, SVG Export Plug-In . SVG Version: 6.00 Build 0)  -->
<!DOCTYPE svg PUBLIC "-//W3C//DTD SVG 1.1//EN" "http://www.w3.org/Graphics/SVG/1.1/DTD/svg11.dtd">
<svg version="1.1" id="Layer_1" xmlns="http://www.w3.org/2000/svg" xmlns:xlink="http://www.w3.org/1999/xlink" x="0px" y="0px" width="41px" height="41px" viewBox="0 0 41 41" enable-background="new 0 0 41 41" xml:space="preserve">
<g>
	<defs>
		<rect id="SVGID_1_" x="9.51" y="9.51" width="21.98" height="21.98"/>
	</defs>
	<clipPath id="SVGID_2_">
		<use xlink:href="#SVGID_1_" overflow="visible"/>
	</clipPath>
	<path clip-path="url(#SVGID_2_)" fill="#FFFFFF" d="M22.033,22.033c-2.245,2.244-5.898,2.244-8.143,0   c-2.244-2.245-2.244-5.898,0-8.143c2.245-2.245,5.898-2.245,8.143,0C24.278,16.135,24.278,19.789,22.033,22.033 M23.941,11.982   c-3.297-3.297-8.662-3.297-11.959,0s-3.297,8.662,0,11.959c2.996,2.996,7.7,3.269,11.008,0.819l2.591,2.591l1.771-1.771   l-2.591-2.591C27.21,19.683,26.938,14.979,23.941,11.982"/>
</g>
<rect x="27.904" y="27.108" transform="matrix(-0.7071 0.7071 -0.7071 -0.7071 70.3898 29.1571)" fill="#FFFFFF" width="2.504" height="4.097"/>
</svg>