<?xml version="1.0" encoding="utf-8"?>
<!-- Generator: Adobe Illustrator 16.0.0, SVG Export Plug-In . SVG Version: 6.00 Build 0)  -->
<!DOCTYPE svg PUBLIC "-//W3C//DTD SVG 1.1//EN" "http://www.w3.org/Graphics/SVG/1.1/DTD/svg11.dtd">
<svg version="1.1" id="Map_icon" xmlns="http://www.w3.org/2000/svg" xmlns:xlink="http://www.w3.org/1999/xlink" x="0px" y="0px"
	 width="60px" height="40px" viewBox="-341.5 275.5 60 40" enable-background="new -341.5 275.5 60 40" xml:space="preserve">
<g>
	<path fill="none" stroke="#FFFFFF" stroke-width="2" stroke-linecap="round" stroke-miterlimit="10" d="M-317.961,288.327
		c-4.118-0.966-7.965-1.464-10.292,0.672c2.502,4.334,5.004,8.667,7.506,13c5.664-5.2,20.334,5.199,25.999,0
		c-2.502-4.333-5.003-8.666-7.506-13c-1.098,1.008-2.536,1.426-4.179,1.488"/>
	<path fill="#FFFFFF" d="M-312,282.5c-2.297,0-4.159,1.711-4.159,3.82c0,4.256,4.159,9.944,4.159,9.944s4.159-5.2,4.159-9.944
		C-307.841,284.211-309.704,282.5-312,282.5"/>
</g>
</svg>
