<?xml version="1.0" encoding="utf-8"?>
<!-- Generator: Adobe Illustrator 15.1.0, SVG Export Plug-In . SVG Version: 6.00 Build 0)  -->
<!DOCTYPE svg PUBLIC "-//W3C//DTD SVG 1.1//EN" "http://www.w3.org/Graphics/SVG/1.1/DTD/svg11.dtd">
<svg version="1.1" id="Layer_1" xmlns="http://www.w3.org/2000/svg" xmlns:xlink="http://www.w3.org/1999/xlink" x="0px" y="0px"
	 width="66px" height="92px" viewBox="0 0 66 92" enable-background="new 0 0 66 92" xml:space="preserve">
<g>
	<defs>
		<rect id="SVGID_1_" y="10.297" width="66" height="68.703"/>
	</defs>
	<clipPath id="SVGID_2_">
		<use xlink:href="#SVGID_1_"  overflow="visible"/>
	</clipPath>
	<rect x="47.521" y="74.496" clip-path="url(#SVGID_2_)" fill="#FFFFFF" width="0.58" height="4.432"/>
	<polygon clip-path="url(#SVGID_2_)" fill="#FFFFFF" points="25.565,74.986 26.913,74.986 26.913,78.928 27.49,78.928 27.49,74.986 
		28.842,74.986 28.842,74.496 25.565,74.496 	"/>
	<g clip-path="url(#SVGID_2_)">
		<defs>
			<rect id="SVGID_3_" y="10.296" width="66.001" height="68.704"/>
		</defs>
		<clipPath id="SVGID_4_">
			<use xlink:href="#SVGID_3_"  overflow="visible"/>
		</clipPath>
		<path clip-path="url(#SVGID_4_)" fill="#FFFFFF" d="M21.424,70.547h-0.033c-1.352,0-2.196-1.309-2.179-3.191
			c0-1.82,0.828-3.189,2.179-3.189c1.37,0,2.177,1.369,2.177,3.172C23.568,69.238,22.776,70.547,21.424,70.547 M21.454,61.943
			c-3.22,0-5.213,2.428-5.213,5.473c0,2.914,1.792,5.354,5.04,5.354h0.015c3.221,0,5.243-2.146,5.243-5.523
			C26.539,64.449,24.829,61.943,21.454,61.943"/>
	</g>
	<polygon clip-path="url(#SVGID_2_)" fill="#FFFFFF" points="51.502,66.002 48.097,66.002 48.097,62.111 45.281,62.111 45.281,72.6 
		48.097,72.6 48.097,68.463 51.502,68.463 51.502,72.6 54.319,72.6 54.319,62.111 51.502,62.111 	"/>
	<g clip-path="url(#SVGID_2_)">
		<defs>
			<rect id="SVGID_5_" y="10.296" width="66.001" height="68.704"/>
		</defs>
		<clipPath id="SVGID_6_">
			<use xlink:href="#SVGID_5_"  overflow="visible"/>
		</clipPath>
		<path clip-path="url(#SVGID_6_)" fill="#FFFFFF" d="M22.177,76.416c-0.612-0.236-0.883-0.441-0.883-0.848
			c0-0.301,0.232-0.664,0.836-0.664c0.403,0,0.695,0.127,0.835,0.209l0.156-0.473c-0.19-0.104-0.522-0.209-0.972-0.209
			c-0.862,0-1.429,0.512-1.429,1.203c0,0.617,0.446,0.998,1.167,1.248c0.599,0.227,0.835,0.465,0.835,0.877
			c0,0.451-0.343,0.754-0.927,0.754c-0.395,0-0.763-0.127-1.018-0.285l-0.15,0.473c0.236,0.16,0.704,0.291,1.129,0.291
			c1.043,0,1.542-0.6,1.542-1.277C23.298,77.064,22.924,76.713,22.177,76.416"/>
	</g>
	<polygon clip-path="url(#SVGID_2_)" fill="#FFFFFF" points="44.821,62.113 36.608,62.113 36.608,64.479 39.284,64.479 
		39.284,72.602 42.1,72.602 42.1,64.479 44.821,64.479 	"/>
	<g clip-path="url(#SVGID_2_)">
		<defs>
			<rect id="SVGID_7_" y="10.296" width="66.001" height="68.704"/>
		</defs>
		<clipPath id="SVGID_8_">
			<use xlink:href="#SVGID_7_"  overflow="visible"/>
		</clipPath>
		<path clip-path="url(#SVGID_8_)" fill="#FFFFFF" d="M37.605,77.088l0.432-1.285c0.086-0.27,0.16-0.543,0.218-0.799h0.02
			c0.066,0.256,0.132,0.518,0.225,0.809l0.44,1.275H37.605z M37.941,74.496l-1.508,4.432h0.592l0.46-1.395h1.57l0.472,1.395h0.61
			l-1.507-4.432H37.941z"/>
		<path clip-path="url(#SVGID_8_)" fill="#FFFFFF" d="M17.427,77.123c0,0.975-0.429,1.406-1.079,1.406
			c-0.587,0-1.028-0.416-1.028-1.406v-2.627H14.74v2.613c0,1.375,0.685,1.891,1.59,1.891c0.959,0,1.674-0.555,1.674-1.914v-2.59
			h-0.577V77.123z"/>
	</g>
	<polygon clip-path="url(#SVGID_2_)" fill="#FFFFFF" points="43.213,74.496 42.637,74.496 42.637,78.928 45.107,78.928 
		45.107,78.445 43.213,78.445 	"/>
	<g clip-path="url(#SVGID_2_)">
		<defs>
			<rect id="SVGID_9_" y="10.296" width="66.001" height="68.704"/>
		</defs>
		<clipPath id="SVGID_10_">
			<use xlink:href="#SVGID_9_"  overflow="visible"/>
		</clipPath>
		<path clip-path="url(#SVGID_10_)" fill="#FFFFFF" d="M32.476,76.574h-0.585v-1.609c0.097-0.027,0.289-0.055,0.564-0.055
			c0.603,0,1.017,0.254,1.017,0.82C33.472,76.238,33.086,76.574,32.476,76.574 M33.217,76.818v-0.023
			c0.459-0.154,0.836-0.541,0.836-1.121c0-0.35-0.132-0.648-0.348-0.842c-0.275-0.248-0.678-0.363-1.289-0.363
			c-0.385,0-0.808,0.037-1.097,0.094v4.365h0.572v-1.92h0.538c0.522,0.018,0.762,0.248,0.894,0.863
			c0.118,0.549,0.216,0.924,0.289,1.057h0.591c-0.086-0.172-0.188-0.598-0.336-1.219C33.754,77.252,33.554,76.938,33.217,76.818"/>
		<path clip-path="url(#SVGID_10_)" fill="#FFFFFF" d="M51.785,77.088l0.433-1.285c0.086-0.27,0.159-0.543,0.217-0.799h0.021
			c0.064,0.256,0.132,0.518,0.225,0.809l0.441,1.275H51.785z M52.122,74.496l-1.505,4.432h0.589l0.459-1.395h1.57l0.473,1.395h0.611
			l-1.508-4.432H52.122z"/>
		<path clip-path="url(#SVGID_10_)" fill="#FFFFFF" d="M33.334,68.07c0,1.666-0.546,2.477-1.664,2.477
			c-1.105,0-1.651-0.889-1.651-2.477v-5.957h-2.815v5.727c0,3.361,1.522,4.93,4.386,4.93c2.942,0,4.558-1.633,4.558-4.869v-5.787
			h-2.813V68.07z"/>
		<path clip-path="url(#SVGID_10_)" fill="#FFFFFF" d="M9.907,77.088l0.433-1.285c0.086-0.27,0.159-0.543,0.222-0.799h0.016
			c0.064,0.256,0.131,0.518,0.224,0.809l0.44,1.275H9.907z M10.243,74.496l-1.504,4.432H9.33l0.457-1.395h1.57l0.476,1.395h0.61
			l-1.51-4.432H10.243z"/>
		<path clip-path="url(#SVGID_10_)" fill="#FFFFFF" d="M13.032,66.25c-1.322-0.498-1.88-0.701-1.88-1.227
			c0-0.467,0.464-0.781,1.323-0.781c1.04,0,1.817,0.297,2.27,0.5l0.592-2.254c-0.685-0.299-1.586-0.531-2.832-0.531
			c-2.645,0-4.219,1.432-4.219,3.281c0,1.557,1.185,2.523,2.958,3.162c1.179,0.402,1.647,0.686,1.647,1.193
			c0,0.531-0.468,0.859-1.431,0.859c-1.056,0-2.085-0.328-2.722-0.652l-0.53,2.316c0.591,0.312,1.821,0.637,3.083,0.637
			c3.061,0,4.46-1.541,4.46-3.344C15.753,67.947,14.915,66.953,13.032,66.25"/>
	</g>
	<polygon clip-path="url(#SVGID_2_)" fill="#FFFFFF" points="0,29.715 8.74,56.605 23.413,47.434 23.413,31.975 42.586,31.975 
		42.586,54.793 54.318,59.297 66,34.248 29.373,11.359 	"/>
	<polygon clip-path="url(#SVGID_2_)" fill="#FFFFFF" points="41.082,54.215 41.082,33.481 24.922,33.481 24.922,48.012 
		25.886,48.381 25.886,35.635 37.633,35.635 37.633,52.895 	"/>
	<polygon clip-path="url(#SVGID_2_)" fill="#FFFFFF" points="36.129,52.312 36.129,37.144 27.388,37.144 27.388,39.293 
		33.328,39.293 33.328,51.238 	"/>
	<g clip-path="url(#SVGID_2_)">
		<defs>
			<rect id="SVGID_11_" y="10.296" width="66.001" height="68.704"/>
		</defs>
		<clipPath id="SVGID_12_">
			<use xlink:href="#SVGID_11_"  overflow="visible"/>
		</clipPath>
		<g opacity="0.8" clip-path="url(#SVGID_12_)">
			<g>
				<defs>
					<rect id="SVGID_13_" x="38.382" y="9.274" width="36.822" height="25.996"/>
				</defs>
				<clipPath id="SVGID_14_">
					<use xlink:href="#SVGID_13_"  overflow="visible"/>
				</clipPath>
				<polygon opacity="0.5" clip-path="url(#SVGID_14_)" fill="#FFFFFF" points="47.586,22.739 66,34.247 54.318,10.296 				"/>
			</g>
		</g>
	</g>
</g>
<g>
	<polygon fill="#FFFFFF" points="65.343,35.354 29.084,12.702 0,30.875 8.658,57.491 23.183,48.415 23.183,33.109 42.16,33.109 
		42.16,55.697 53.763,60.161 	"/>
	<polygon fill="#FFFFFF" points="40.672,34.605 24.675,34.605 24.675,48.98 25.621,49.354 25.621,36.731 37.262,36.731 
		37.262,53.812 40.672,55.122 	"/>
	<polygon fill="#FFFFFF" points="27.116,38.222 27.116,40.353 32.989,40.353 32.989,52.178 35.767,53.238 35.767,38.222 	"/>
	<polygon opacity="0.75" fill="#FFFFFF" points="53.763,11.649 47.106,23.963 65.343,35.354 	"/>
</g>
</svg>
