<?xml version="1.0" encoding="utf-8"?>
<!-- Generator: Adobe Illustrator 15.1.0, SVG Export Plug-In . SVG Version: 6.00 Build 0)  -->
<!DOCTYPE svg PUBLIC "-//W3C//DTD SVG 1.1//EN" "http://www.w3.org/Graphics/SVG/1.1/DTD/svg11.dtd">
<svg version="1.1" id="Layer_1" xmlns="http://www.w3.org/2000/svg" xmlns:xlink="http://www.w3.org/1999/xlink" x="0px" y="0px"
	 width="123px" height="55px" viewBox="0 0 123 55" enable-background="new 0 0 123 55" xml:space="preserve">
<g>
	<path fill="#FFFFFF" d="M113.558,42.724h0.822v-6.317h-0.822V42.724z M119.634,40.103l0.622-1.832
		c0.118-0.382,0.225-0.775,0.305-1.141h0.03c0.091,0.365,0.186,0.738,0.314,1.15l0.632,1.822H119.634z M121.095,36.407h-0.981
		l-2.141,6.317h0.838l0.656-1.987h2.24l0.676,1.987h0.867L121.095,36.407z M82.229,37.103h1.925v5.621h0.824v-5.621h1.928v-0.696
		h-4.677V37.103z M107.409,36.407h-0.825v6.317h3.521V42.04h-2.695V36.407z M99.408,40.103l0.616-1.832
		c0.121-0.382,0.226-0.775,0.306-1.141h0.034c0.093,0.365,0.188,0.738,0.315,1.15l0.628,1.822H99.408z M99.884,36.407l-2.148,6.317
		h0.846l0.654-1.987h2.239l0.678,1.987h0.866l-2.151-6.317H99.884z M92.089,39.368h-0.836v-2.294
		c0.144-0.037,0.411-0.075,0.807-0.075c0.858,0,1.452,0.357,1.452,1.172C93.512,38.893,92.961,39.368,92.089,39.368 M93.142,39.715
		v-0.027c0.661-0.227,1.195-0.777,1.195-1.603c0-0.497-0.189-0.93-0.498-1.197c-0.394-0.359-0.965-0.527-1.84-0.527
		c-0.552,0-1.147,0.056-1.56,0.141v6.223h0.813v-2.74h0.77c0.737,0.033,1.086,0.355,1.272,1.231c0.167,0.786,0.312,1.32,0.411,1.509
		h0.848c-0.126-0.247-0.274-0.851-0.478-1.731C93.913,40.333,93.623,39.884,93.142,39.715 M77.392,39.145
		c-0.868-0.339-1.253-0.625-1.253-1.21c0-0.432,0.327-0.949,1.188-0.949c0.573,0,0.994,0.18,1.195,0.304l0.222-0.676
		c-0.274-0.15-0.751-0.297-1.383-0.297c-1.228,0-2.043,0.727-2.043,1.709c0,0.885,0.639,1.426,1.662,1.782
		c0.859,0.319,1.193,0.669,1.193,1.257c0,0.64-0.489,1.071-1.32,1.071c-0.562,0-1.087-0.18-1.454-0.405l-0.213,0.674
		c0.335,0.228,0.999,0.414,1.611,0.414c1.485,0,2.2-0.853,2.2-1.817C78.997,40.072,78.463,39.568,77.392,39.145 M70.616,40.155
		c0,1.389-0.604,2.008-1.535,2.008c-0.841,0-1.472-0.6-1.472-2.008v-3.748h-0.822v3.721c0,1.971,0.974,2.701,2.271,2.701
		c1.363,0,2.384-0.789,2.384-2.726v-3.696h-0.825V40.155z M59.892,40.103l0.615-1.832c0.123-0.382,0.23-0.775,0.312-1.141h0.028
		c0.093,0.365,0.188,0.738,0.318,1.15l0.625,1.822H59.892z M60.37,36.407l-2.145,6.317h0.84l0.656-1.987h2.241l0.669,1.987h0.877
		l-2.155-6.317H60.37z M62.109,30.636c-1.51,0-2.98-0.467-3.884-0.935l-0.757,3.308c0.841,0.443,2.598,0.912,4.39,0.912
		c4.375,0,6.373-2.196,6.373-4.775c0-2.086-1.197-3.507-3.882-4.505c-1.891-0.709-2.687-0.998-2.687-1.75
		c0-0.667,0.67-1.11,1.889-1.11c1.484,0,2.592,0.418,3.239,0.709l0.843-3.221c-0.978-0.421-2.264-0.753-4.04-0.753
		c-3.772,0-6.013,2.041-6.013,4.682c0,2.222,1.687,3.596,4.218,4.509c1.684,0.577,2.347,0.978,2.347,1.71
		C64.146,30.169,63.482,30.636,62.109,30.636 M93.313,27.239c0,2.375-0.777,3.527-2.379,3.527c-1.573,0-2.353-1.263-2.353-3.527
		v-8.501h-4.019v8.167c0,4.798,2.178,7.035,6.264,7.035c4.195,0,6.503-2.329,6.503-6.944v-8.258h-4.017V27.239z M76.32,30.766
		h-0.044c-1.933,0-3.136-1.864-3.113-4.549c0-2.595,1.181-4.551,3.113-4.551c1.947,0,3.103,1.956,3.103,4.528
		C79.379,28.902,78.247,30.766,76.32,30.766 M76.359,18.493c-4.593,0-7.433,3.466-7.433,7.816c0,4.151,2.552,7.63,7.19,7.63h0.021
		c4.597,0,7.48-3.061,7.48-7.877C83.619,22.066,81.177,18.493,76.359,18.493 M109.701,18.737H97.984v3.374h3.816v11.588h4.018
		V22.111h3.883V18.737z M114.369,33.699v-5.907h4.864v5.907h4.017V18.737h-4.017v5.547h-4.864v-5.547h-4.015v14.961"/>
</g>
<g>
	<polygon fill="#FFFFFF" points="42.874,27.582 19.222,12.805 0.25,24.66 5.898,42.022 15.373,36.1 15.373,26.117 27.752,26.117 
		27.752,40.852 35.321,43.764 	"/>
	<polygon fill="#FFFFFF" points="26.781,27.094 16.346,27.094 16.346,36.469 16.963,36.714 16.963,28.48 24.556,28.48 
		24.556,39.623 26.781,40.477 	"/>
	<polygon fill="#FFFFFF" points="17.938,29.453 17.938,30.843 21.769,30.843 21.769,38.556 23.581,39.249 23.581,29.453 	"/>
	<polygon opacity="0.75" fill="#FFFFFF" points="35.321,12.118 30.979,20.15 42.874,27.582 	"/>
</g>
</svg>
