<?xml version="1.0" encoding="utf-8"?>
<!-- Generator: Adobe Illustrator 16.0.0, SVG Export Plug-In . SVG Version: 6.00 Build 0)  -->
<!DOCTYPE svg PUBLIC "-//W3C//DTD SVG 1.1//EN" "http://www.w3.org/Graphics/SVG/1.1/DTD/svg11.dtd">
<svg version="1.1" id="Layer_3" xmlns="http://www.w3.org/2000/svg" xmlns:xlink="http://www.w3.org/1999/xlink" x="0px" y="0px"
	 width="333.014px" height="46.244px" viewBox="0 0 333.014 46.244" enable-background="new 0 0 333.014 46.244"
	 xml:space="preserve">
<polygon fill="#1D1D1B" points="72.084,2.896 75.665,2.896 81.204,14.336 81.246,14.336 81.246,2.896 84.037,2.896 84.037,18.194 
	80.475,18.194 74.915,6.753 74.874,6.753 74.874,18.194 72.084,18.194 "/>
<path fill="#1D1D1B" d="M90.334,16.309c0.854,0,1.52-0.395,1.957-1.008c0.458-0.635,0.583-1.447,0.583-2.325h-1.208
	c-1.249,0-3.104,0.221-3.104,1.952C88.563,15.894,89.334,16.309,90.334,16.309 M87.065,7.5c1.083-0.527,2.541-0.855,3.728-0.855
	c3.27,0,4.623,1.424,4.623,4.755v1.447c0,1.14,0.02,1.994,0.042,2.828c0.021,0.854,0.062,1.643,0.125,2.519h-2.458
	C93.02,17.602,93.02,16.856,93,16.505h-0.042c-0.646,1.25-2.041,1.952-3.312,1.952c-1.895,0-3.748-1.206-3.748-3.353
	c0-1.688,0.771-2.674,1.832-3.222c1.062-0.548,2.438-0.657,3.604-0.657h1.54c0-1.819-0.771-2.432-2.416-2.432
	c-1.188,0-2.374,0.48-3.312,1.226L87.065,7.5z"/>
<path fill="#1D1D1B" d="M98.457,9.055h-2.062V6.906h2.062V4.649l2.79-0.943v3.2h2.478v2.149h-2.478v5.259
	c0,0.964,0.25,1.861,1.312,1.861c0.499,0,0.979-0.107,1.271-0.305l0.084,2.323c-0.584,0.173-1.229,0.262-2.062,0.262
	c-2.186,0-3.395-1.424-3.395-3.658L98.457,9.055L98.457,9.055z"/>
<path fill="#1D1D1B" d="M114.847,18.192h-2.645v-1.534h-0.042c-0.854,1.096-2.062,1.797-3.519,1.797
	c-2.542,0-3.645-1.884-3.645-4.427V6.907h2.791v6.026c0,1.381,0.02,3.242,1.811,3.242c2.02,0,2.458-2.3,2.458-3.746V6.907h2.791
	L114.847,18.192L114.847,18.192z"/>
<path fill="#1D1D1B" d="M117.2,6.906h2.477v2.565h0.041c0.125-1.052,1.271-2.827,2.936-2.827c0.271,0,0.562,0,0.854,0.086v2.961
	c-0.25-0.156-0.749-0.242-1.248-0.242c-2.271,0-2.271,2.98-2.271,4.601v4.142h-2.789L117.2,6.906L117.2,6.906z"/>
<path fill="#1D1D1B" d="M128.146,16.309c0.854,0,1.521-0.395,1.957-1.008c0.458-0.635,0.583-1.448,0.583-2.324h-1.208
	c-1.249,0-3.103,0.221-3.103,1.952C126.375,15.894,127.146,16.309,128.146,16.309 M124.876,7.5c1.083-0.527,2.541-0.855,3.728-0.855
	c3.27,0,4.622,1.424,4.622,4.755v1.447c0,1.14,0.021,1.994,0.042,2.828c0.021,0.854,0.062,1.643,0.125,2.519h-2.456
	c-0.104-0.591-0.104-1.336-0.126-1.688h-0.041c-0.646,1.25-2.041,1.952-3.311,1.952c-1.896,0-3.749-1.206-3.749-3.353
	c0-1.688,0.771-2.674,1.831-3.222c1.062-0.548,2.437-0.657,3.603-0.657h1.542c0-1.819-0.771-2.432-2.415-2.432
	c-1.187,0-2.375,0.48-3.312,1.226L124.876,7.5z"/>
<rect x="135.486" y="1.758" fill="#1D1D1B" width="2.79" height="16.436"/>
<path fill="#1D1D1B" d="M149.291,9.427h0.958c1.437,0,3.082-0.22,3.082-2.125c0-1.841-1.625-1.995-3.082-1.995h-0.958V9.427z
	 M146.376,2.896h3.145c3.124,0,6.851-0.108,6.851,4.143c0,1.797-1.145,3.286-2.998,3.549v0.044c0.792,0.066,1.249,0.897,1.541,1.579
	l2.331,5.983h-3.247l-1.75-4.776c-0.416-1.14-0.792-1.579-2.021-1.579h-0.937v6.355h-2.915V2.896L146.376,2.896z"/>
<path fill="#1D1D1B" d="M165.22,11.444c-0.081-1.425-0.708-2.651-2.27-2.651s-2.353,1.14-2.478,2.651H165.22z M167.096,17.557
	c-1.021,0.594-2.188,0.899-3.686,0.899c-3.54,0-5.602-2.147-5.602-5.851c0-3.265,1.646-5.96,4.978-5.96
	c3.974,0,5.103,2.87,5.103,6.816h-7.414c0.125,1.818,1.334,2.848,3.062,2.848c1.352,0,2.519-0.526,3.56-1.14L167.096,17.557
	L167.096,17.557z"/>
<path fill="#1D1D1B" d="M176.035,9.275c-0.854-0.307-1.477-0.482-2.499-0.482c-0.749,0-1.646,0.284-1.646,1.25
	c0,1.796,4.854,0.656,4.854,4.733c0,2.629-2.229,3.682-4.498,3.682c-1.062,0-2.146-0.197-3.163-0.482l0.163-2.412
	c0.876,0.461,1.792,0.746,2.749,0.746c0.708,0,1.834-0.285,1.834-1.381c0-2.212-4.854-0.701-4.854-4.777
	c0-2.432,2.021-3.505,4.206-3.505c1.312,0,2.167,0.219,3.04,0.416L176.035,9.275z"/>
<path fill="#1D1D1B" d="M183.308,16.178c2.145,0,2.707-2.018,2.707-3.902c0-1.731-0.873-3.354-2.707-3.354
	c-1.811,0-2.685,1.666-2.685,3.354C180.623,14.139,181.186,16.178,183.308,16.178 M183.308,6.644c3.188,0,5.623,2.257,5.623,5.982
	c0,3.245-2.061,5.831-5.623,5.831c-3.54,0-5.602-2.586-5.602-5.831C177.706,8.901,180.143,6.644,183.308,6.644"/>
<path fill="#1D1D1B" d="M200.433,18.192h-2.644v-1.533h-0.042c-0.854,1.096-2.062,1.796-3.521,1.796
	c-2.54,0-3.644-1.884-3.644-4.427V6.907h2.791v6.026c0,1.381,0.02,3.242,1.812,3.242c2.02,0,2.456-2.3,2.456-3.746V6.907h2.791
	L200.433,18.192L200.433,18.192z"/>
<path fill="#1D1D1B" d="M202.786,6.906h2.478v2.565h0.039c0.128-1.052,1.273-2.827,2.938-2.827c0.271,0,0.561,0,0.853,0.086v2.961
	c-0.249-0.155-0.749-0.242-1.249-0.242c-2.268,0-2.268,2.98-2.268,4.601v4.142h-2.791V6.906z"/>
<path fill="#1D1D1B" d="M217.317,9.34c-0.498-0.242-1.04-0.417-1.893-0.417c-1.73,0-2.832,1.446-2.832,3.573
	c0,2.082,0.936,3.68,2.893,3.68c0.792,0,1.667-0.305,2.146-0.524l0.126,2.432c-0.814,0.263-1.647,0.372-2.793,0.372
	c-3.515,0-5.288-2.52-5.288-5.96c0-3.265,1.834-5.852,5.184-5.852c1.126,0,1.94,0.132,2.709,0.372L217.317,9.34z"/>
<path fill="#1D1D1B" d="M225.758,11.444c-0.082-1.425-0.71-2.651-2.27-2.651c-1.562,0-2.354,1.14-2.479,2.651H225.758z
	 M227.633,17.557c-1.021,0.594-2.186,0.899-3.686,0.899c-3.543,0-5.603-2.147-5.603-5.851c0-3.265,1.644-5.96,4.977-5.96
	c3.977,0,5.103,2.87,5.103,6.816h-7.414c0.125,1.818,1.334,2.848,3.062,2.848c1.354,0,2.521-0.526,3.562-1.14L227.633,17.557
	L227.633,17.557z"/>
<path fill="#1D1D1B" d="M236.572,9.275c-0.854-0.307-1.477-0.482-2.498-0.482c-0.749,0-1.646,0.284-1.646,1.25
	c0,1.796,4.851,0.656,4.851,4.733c0,2.629-2.225,3.682-4.494,3.682c-1.063,0-2.146-0.197-3.164-0.482l0.165-2.412
	c0.874,0.461,1.787,0.746,2.75,0.746c0.706,0,1.831-0.285,1.831-1.381c0-2.212-4.853-0.701-4.853-4.777
	c0-2.432,2.021-3.505,4.205-3.505c1.312,0,2.165,0.219,3.042,0.416L236.572,9.275z"/>
<path fill="#575756" d="M71.883,38.948c0.863,0.549,1.874,0.863,3.242,0.863c1.812,0,3.305-0.928,3.305-3.011
	c0-2.885-6.737-3.243-6.737-7.094c0-2.358,2.063-3.833,4.652-3.833c0.716,0,1.876,0.104,2.884,0.482l-0.23,1.328
	c-0.651-0.358-1.684-0.549-2.672-0.549c-1.517,0-3.18,0.633-3.18,2.527c0,2.947,6.736,2.967,6.736,7.264
	c0,2.967-2.546,4.146-4.821,4.146c-1.431,0-2.547-0.295-3.325-0.631L71.883,38.948z"/>
<path fill="#575756" d="M87.171,27.519l-3.201,8.104h6.378L87.171,27.519z M86.454,26.128h1.643l5.832,14.693h-1.517l-1.578-3.938
	h-7.41l-1.579,3.938h-1.411L86.454,26.128z"/>
<path fill="#575756" d="M106.013,27.519l-3.198,8.104h6.378L106.013,27.519z M105.299,26.128h1.642l5.832,14.693h-1.517
	l-1.577-3.938h-7.412l-1.578,3.938h-1.412L105.299,26.128z"/>
<path fill="#575756" d="M114.031,32.485c0-1.18,0-1.621-0.084-2.399h1.325v2.063h0.043c0.484-1.2,1.391-2.316,2.758-2.316
	c0.315,0,0.695,0.062,0.927,0.126v1.392c-0.272-0.086-0.63-0.129-0.967-0.129c-2.105,0-2.675,2.358-2.675,4.297v5.306h-1.325v-8.339
	H114.031z"/>
<path fill="#575756" d="M120.17,30.086h1.326v10.735h-1.326V30.086z M121.496,27.224h-1.326v-1.769h1.326V27.224z"/>
<path fill="#575756" d="M127.945,39.938c2.356,0,3.179-2.526,3.179-4.483c0-1.959-0.821-4.483-3.179-4.483
	c-2.526,0-3.179,2.399-3.179,4.483S125.418,39.938,127.945,39.938 M132.45,40.823h-1.327v-1.705h-0.042
	c-0.717,1.367-1.812,1.956-3.349,1.956c-2.947,0-4.421-2.441-4.421-5.62c0-3.266,1.265-5.621,4.421-5.621
	c2.105,0,3.158,1.537,3.349,2.062h0.042v-6.862h1.327V40.823z"/>
<polygon fill="#575756" points="140.472,26.128 141.925,26.128 141.925,39.562 147.819,39.562 147.819,40.821 140.472,40.821 "/>
<path fill="#575756" d="M155.455,35.411h-0.379c-2.293,0-5.032,0.232-5.032,2.589c0,1.411,1.011,1.938,2.231,1.938
	c3.115,0,3.18-2.715,3.18-3.875V35.411z M155.582,39.097h-0.042c-0.589,1.284-2.084,1.979-3.411,1.979
	c-3.053,0-3.537-2.061-3.537-3.029c0-3.604,3.833-3.77,6.611-3.77h0.253v-0.549c0-1.83-0.653-2.758-2.441-2.758
	c-1.117,0-2.17,0.252-3.159,0.885v-1.285c0.821-0.399,2.211-0.736,3.159-0.736c2.651,0,3.769,1.199,3.769,4.001v4.738
	c0,0.86,0,1.512,0.104,2.249h-1.304L155.582,39.097L155.582,39.097z"/>
<path fill="#575756" d="M158.992,32.612c0-0.82,0-1.663-0.083-2.526h1.282v1.913h0.042c0.443-0.967,1.242-2.166,3.475-2.166
	c2.653,0,3.663,1.768,3.663,4.127v6.863h-1.326v-6.527c0-2.021-0.717-3.326-2.548-3.326c-2.419,0-3.179,2.127-3.179,3.916v5.938
	h-1.326V32.612L158.992,32.612z"/>
<path fill="#575756" d="M173.781,39.938c2.357,0,3.179-2.526,3.179-4.483c0-1.959-0.82-4.483-3.179-4.483
	c-2.525,0-3.18,2.399-3.18,4.483S171.255,39.938,173.781,39.938 M178.287,40.823h-1.328v-1.705h-0.041
	c-0.716,1.367-1.812,1.956-3.348,1.956c-2.946,0-4.423-2.441-4.423-5.62c0-3.266,1.267-5.621,4.423-5.621
	c2.104,0,3.158,1.537,3.348,2.062h0.041v-6.862h1.328V40.823z"/>
<path fill="#575756" d="M179.742,39.263c0.8,0.403,1.771,0.676,2.799,0.676c1.265,0,2.381-0.694,2.381-1.918
	c0-2.545-5.158-2.145-5.158-5.261c0-2.127,1.726-2.927,3.493-2.927c0.57,0,1.708,0.126,2.653,0.484l-0.125,1.156
	c-0.696-0.314-1.643-0.505-2.38-0.505c-1.368,0-2.313,0.421-2.313,1.79c0,1.999,5.283,1.746,5.283,5.262
	c0,2.274-2.128,3.054-3.75,3.054c-1.031,0-2.062-0.126-3.009-0.505L179.742,39.263z"/>
<path fill="#1D1D1B" d="M20.673,17.338c0.587,1.117,2.155,2.869,4.021,5.005c0,0,0.472-3.382-0.105-6.562
	c-0.5,0.31-1.014,0.599-1.591,0.839C22.317,16.917,21.497,17.14,20.673,17.338 M33.791,19.575c0.208,0.06,0.67-0.143,1.572-1.856
	c0.613-1.159,2.292-3.134,3.375-4.358c-0.367-0.295-0.766-0.55-1.213-0.716c-0.622-0.226-1.739,0.11-2.16,0l-0.479-0.012
	c-0.328,1.331-1.027,5.184-1.086,6.076C33.783,18.911,33.781,19.214,33.791,19.575 M33.895,12.608l-1.407-0.037
	c-1.225,1.19-1.462,2.702-1.765,6.767c-0.368,5-3.26,4.55-3.063,5.81c0.173,1.093,4.025,4.57,5.043,5.474v-0.006l0.37-3.505
	c0,0-0.176-6.42-0.137-7.576C32.994,17.798,33.427,14.345,33.895,12.608 M36.063,27.899c1.957-2.061,4.232-4.949,4.939-7.832
	c0.508-2.059,1.062-3.146,1.229-4.175c-1.179-0.204-1.993-1.154-2.895-2.004c-1.047,1.286-2.664,3.336-3.175,4.172
	c-2.221,3.622-1.642,5.997-0.096,9.834L36.063,27.899z M52.917,18.757c-0.56-0.399-1.081-0.918-1.556-1.422
	c-0.897,0.185-2.008-0.169-3.572,1.08c0.159,0.033,0.345,0.064,0.542,0.09c0.635,0.078,2.626,0.971,3.118,0.942
	C52.203,19.397,52.685,19.005,52.917,18.757 M21.714,20.315c-0.995-1.258-1.778-2.232-2.199-2.714
	c-1.745,0.379-2.064,0.081-2.715,0.728c-0.71,0.71-0.893,1.156-1.975,1.495v0.002c1.092,0.303,2.003,0.05,3.344,0.05
	C19.313,19.876,20.889,20.154,21.714,20.315 M53.561,19.146c-0.377,0.337-1.117,0.854-2.062,0.961
	c-1.239,0.145-3.245-0.98-3.978-0.932c-0.482,0.031-0.997,0.493-0.997,0.493c-2.628,2.808-4.232,1.783-5.119,3.079
	c-1.587,2.342-5.329,7.516-5.165,12.062c0.107,2.678,0.641,5.246,0.641,5.246s-1.321,0.413-2.929,0.413
	c-1.617,0-2.32-0.581-2.32-0.581s1.584-4.447,0.262-6.265c-1.42-1.953-5.234-6.964-8.323-10.932
	c-0.553-0.472-1.201-0.994-1.865-1.411c-0.999-0.63-2.815-0.558-3.43-0.538c-1.047,0.026-2.389,0.139-4.616-0.438
	c-0.138-0.034-0.273-0.075-0.408-0.117h0.001c-0.931,0.194-1.856,0.375-1.856,0.375c-2.937-0.154-4.206-1.684-4.68-3.072
	c-0.473-1.412,1.645-1.97,2.484-3.469c0.825-1.5,1.542-2.431,2.665-3.769c1.13-1.347,3.234-1.867,4.392-2.326
	c1.154-0.46,2.01-3.224,3.71-3.074c0.964,0.076,1.252,0.243,2.35,0.501c1.754,0.418,6.364,4.092,4.562,8.998
	c-0.35,0.222-0.792,0.381-1.247,0.715c0.05,1.268,0.101,3.366-0.183,7.441c-0.104,1.409,3.146,1.094,3.65-0.845
	c1.208-4.621,1.411-8.283,2.314-9.161c-0.173,0.164-0.543,0.039-1.016,0.137c-0.438,0.097-0.934,0.203-2.122,1l0.176-0.647
	c0.345-1.672-0.376-5.25-3.722-7.573c-0.013-0.012,1.687-0.88,3.619-0.509c1.309,0.255,1.231,0.112,2.31-0.238
	C31.74,4.31,33.722,4.8,34.718,3.867c1.007-0.929,1.881-1.862,4.102-2.09c2.221-0.233,4.358,1.57,6.33,2.952
	c1.972,1.38,2.237,0.3,4.468,0.946c1.779,0.51,1.795,1.352,2.114,1.972c0.257,1.924,0.062,5.229-3.591,7.372
	c-1.424,0.22-3.424,2-5.089,1.452c-0.114-0.036-0.062-0.069-0.174-0.091c-0.481,2.219-1.017,4.43-1.076,4.608
	c0,0,3.184-0.53,4.871-2.842c0.784-1.074,2.745-1.298,3.934-1.596c-0.464-0.5-0.551-0.817-0.959-1.095
	c1.298-0.839,3.481-2.996,3.294-7.127c1.452,0.218,4.188-0.292,6.46,1.892c2.477,2.389,3.598,4.836,2.875,5.92
	c-0.98,1.471-5.524,3.555-7.77,3.3C54.182,19.402,53.867,19.297,53.561,19.146"/>
</svg>
