<?xml version="1.0" encoding="utf-8"?>
<!-- Generator: Adobe Illustrator 16.0.0, SVG Export Plug-In . SVG Version: 6.00 Build 0)  -->
<!DOCTYPE svg PUBLIC "-//W3C//DTD SVG 1.1//EN" "http://www.w3.org/Graphics/SVG/1.1/DTD/svg11.dtd">
<svg version="1.1" id="Layer_1" xmlns="http://www.w3.org/2000/svg" xmlns:xlink="http://www.w3.org/1999/xlink" x="0px" y="0px"
	 width="80px" height="69px" viewBox="0 0 80 69" enable-background="new 0 0 80 69" xml:space="preserve">
<g>
	<path fill-rule="evenodd" clip-rule="evenodd" fill="#E4701E" d="M50.861,21.906c-0.117,1.67,0.203,3.53,1.168,5.271
		c0.145,0.258,0.105,0.738-0.041,1.015c-0.732,1.39-1.535,2.741-2.299,4.114c-0.453,0.818-1.07,1.343-2.047,1.467
		c-0.301,0.038-0.578,0.379-0.831,0.619c-0.102,0.096-0.103,0.297-0.158,0.446c-0.217,0.583-0.424,1.207-1.221,1.142
		c-0.652-0.052-1.185-0.777-1.213-1.569c-0.002-0.026,0.001-0.053,0-0.08c-0.024-0.596,0.156-1.331-0.13-1.75
		c-0.271-0.396-1.025-0.468-1.574-0.666c-2.367-0.854-4.736-1.711-7.112-2.548c-1.2-0.423-1.37-0.323-1.896,0.934
		c-0.481,1.15-1.077,1.326-2.105,0.661c-0.62-0.402-0.523-0.964-0.325-1.49c0.279-0.741,0.428-1.342-0.521-1.735
		c-0.21-0.086-0.387-0.608-0.343-0.894c0.294-1.918,0.615-3.835,1.011-5.736c0.154-0.743,0.725-1.186,1.501-1.382
		c0.41-0.104,0.866-0.305,1.142-0.606c1.167-1.274,2.281-2.597,3.398-3.917c0.307-0.361,0.549-0.59,1.108-0.387
		c2.341,0.85,4.706,1.63,7.058,2.447c1.603,0.557,3.187,1.167,4.802,1.679c0.535,0.168,0.654,0.429,0.633,0.913
		C50.842,20.441,50.861,21.029,50.861,21.906z M48.85,22.811c-0.041-0.557-0.121-1.063-0.105-1.566
		c0.016-0.529-0.254-0.76-0.699-0.917c-2.969-1.043-5.936-2.095-8.901-3.145c-0.438-0.156-0.821-0.166-1.107,0.295
		c-0.166,0.268-0.392,0.499-0.581,0.755c-0.778,1.061-0.721,1.246,0.521,1.73c0.049,0.02,0.104,0.022,0.154,0.041
		c1.903,0.715,3.801,1.445,5.712,2.143c1.34,0.488,2.681,0.978,4.047,1.381C48.656,23.755,48.861,23.527,48.85,22.811z"/>
	<path fill-rule="evenodd" clip-rule="evenodd" fill="#E4701E" d="M51.576,48.957c1.16-0.256,2.27-0.475,3.363-0.75
		c0.613-0.155,1.217-0.378,1.799-0.63c0.168-0.074,0.369-0.383,0.336-0.534c-0.037-0.167-0.312-0.368-0.508-0.402
		c-2.619-0.465-5.238-0.913-7.863-1.342c-3.18-0.52-6.361-1.023-9.543-1.521c-1.574-0.243-3.151-0.457-4.921-0.711
		c0.805-0.681,1.568-0.975,2.386-0.932c1.435,0.073,2.87,0.213,4.292,0.407c2.636,0.363,5.269,0.753,7.894,1.191
		c2.807,0.47,5.602,1.005,8.402,1.514c0.811,0.147,1.639,0.24,2.422,0.482c0.432,0.131,0.994,0.443,1.121,0.806
		c0.221,0.635-0.123,1.283-0.723,1.627c-0.662,0.381-1.375,0.688-2.09,0.959c-0.895,0.337-1.82,0.583-2.719,0.908
		C54.268,50.376,52.242,49.815,51.576,48.957z"/>
	<path fill-rule="evenodd" clip-rule="evenodd" fill="#E4701E" d="M24.971,49.303c2.215-0.491,4.293-0.935,6.361-1.422
		c0.576-0.136,1.385-0.255,1.375-0.958c-0.005-0.359-0.682-0.774-1.127-1.046c-0.965-0.589-2.083-0.96-2.337-2.301
		c-0.233-1.222-0.031-1.944,1.116-2.41c1.791-0.726,3.632-1.329,5.467-1.942c1.836-0.611,3.702-1.138,5.527-1.774
		c0.739-0.259,1.325-0.188,2.092,0.418c-0.793,0.373-1.445,0.746-2.139,0.998c-2.743,0.999-5.507,1.939-8.247,2.947
		c-0.62,0.227-1.553,0.42-1.489,1.202c0.042,0.516,0.7,1.048,1.187,1.445c0.675,0.547,1.467,0.947,2.176,1.457
		c1.197,0.86,1.083,2.287-0.287,2.896c-0.938,0.416-4.374,1.169-5.054,1.386C27.9,50.737,26.495,50.019,24.971,49.303z"/>
	<path fill-rule="evenodd" clip-rule="evenodd" fill="#E4701E" d="M40.417,34.194c-2.149,0.173-4.3,0.329-6.446,0.524
		c-3.271,0.299-6.165,0.786-9.28,1.849c-0.345,0.118-0.991,0.423-1.3,0.623c-0.861,0.562-0.968,1.141-0.125,1.739
		c0.779,0.554,1.72,0.901,2.623,1.254c0.75,0.292,1.549,0.46,2.326,0.684c0.015,0.114,0.03,0.229,0.045,0.346
		c-0.43,0.168-0.847,0.438-1.29,0.486c-2.332,0.254-4.448-0.297-6.19-1.93c-1.406-1.317-1.229-2.839,0.523-3.708
		c1.323-0.657,2.736-1.193,4.165-1.57c3.414-0.895,6.907-1.295,10.44-1.236c1.065,0.018,2.133,0.101,3.191,0.23
		c0.474,0.059,0.925,0.309,1.385,0.472C40.46,34.037,40.438,34.115,40.417,34.194z"/>
</g>
</svg>
