<?xml version="1.0" encoding="utf-8"?>
<!-- Generator: Adobe Illustrator 16.0.0, SVG Export Plug-In . SVG Version: 6.00 Build 0)  -->
<!DOCTYPE svg PUBLIC "-//W3C//DTD SVG 1.1//EN" "http://www.w3.org/Graphics/SVG/1.1/DTD/svg11.dtd">
<svg version="1.1" id="Layer_1" xmlns="http://www.w3.org/2000/svg" xmlns:xlink="http://www.w3.org/1999/xlink" x="0px" y="0px"
	 width="412.582px" height="206.053px" viewBox="0 0 412.582 206.053" enable-background="new 0 0 412.582 206.053"
	 xml:space="preserve">
<linearGradient id="SVGID_1_" gradientUnits="userSpaceOnUse" x1="103.8567" y1="202.9983" x2="97.2735" y2="-176.0559">
	<stop  offset="0" style="stop-color:#D35E13;stop-opacity:0"/>
	<stop  offset="1" style="stop-color:#D35E13"/>
</linearGradient>
<path fill="url(#SVGID_1_)" d="M6.977,64.961c3.987,7.591,14.637,19.479,27.3,33.986c0,0,3.2-22.961-0.723-44.551
	c-3.382,2.102-6.878,4.063-10.799,5.696C18.143,62.109,12.579,63.619,6.977,64.961 M96.035,80.152
	c1.413,0.403,4.546-0.966,10.679-12.602c4.165-7.863,15.556-21.28,22.912-29.584c-2.505-2.008-5.198-3.734-8.238-4.86
	c-4.223-1.539-11.813,0.75-14.674,0l-3.251-0.084c-2.229,9.036-6.972,35.195-7.375,41.248
	C95.978,75.648,95.969,77.703,96.035,80.152 M96.748,32.852l-9.552-0.244c-8.318,8.069-9.931,18.334-11.981,45.93
	c-2.505,33.948-22.135,30.898-20.802,39.436c1.172,7.422,27.327,31.029,34.233,37.156v-0.038l2.52-23.804
	c0,0-1.201-43.573-0.934-51.418C90.626,68.085,93.567,44.637,96.748,32.852 M111.456,136.656
	c13.281-13.971,28.735-33.59,33.538-53.154c3.444-13.98,7.208-21.365,8.334-28.345c-7.996-1.38-13.531-7.835-19.649-13.606
	c-7.112,8.736-18.09,22.66-21.557,28.327c-15.069,24.593-11.137,40.704-0.647,66.77L111.456,136.656z M225.876,74.597
	c-3.791-2.712-7.337-6.23-10.557-9.655c-6.098,1.257-13.623-1.144-24.254,7.329c1.08,0.225,2.347,0.441,3.678,0.619
	c4.316,0.525,17.828,6.587,21.168,6.391C221.036,78.951,224.301,76.286,225.876,74.597 M14.042,85.181
	C7.296,76.633,1.97,70.028-0.882,66.753c-11.845,2.571-14.018,0.553-18.427,4.936c-4.824,4.822-6.062,7.853-13.404,10.152v0.009
	c7.408,2.064,13.597,0.347,22.697,0.347C-2.246,82.197,8.449,84.083,14.042,85.181 M230.249,77.242
	c-2.562,2.29-7.581,5.799-14,6.521c-8.407,0.985-22.03-6.652-27.003-6.324c-3.275,0.207-6.765,3.35-6.765,3.35
	c-17.838,19.056-28.739,12.095-34.746,20.895c-10.772,15.896-36.189,51.024-35.069,81.877c0.733,18.193,4.35,35.626,4.35,35.626
	s-8.971,2.806-19.883,2.806c-10.982,0-15.749-3.94-15.749-3.94s10.752-30.186,1.778-42.523
	c-9.637-13.259-35.542-47.271-56.504-74.22c-3.749-3.199-8.159-6.745-12.667-9.579c-6.779-4.278-19.109-3.791-23.28-3.65
	c-7.106,0.179-16.218,0.948-31.348-2.975c-0.925-0.234-1.849-0.507-2.768-0.798h0.01c-6.316,1.313-12.606,2.543-12.606,2.543
	c-19.93-1.041-28.548-11.428-31.766-20.858c-3.209-9.579,11.166-13.371,16.861-23.551c5.612-10.18,10.467-16.505,18.095-25.587
	C-45.145,7.715-30.85,4.188-22.997,1.063c7.831-3.125,13.643-21.881,25.194-20.868c6.54,0.517,8.491,1.643,15.946,3.406
	c11.916,2.833,43.199,27.783,30.969,61.083c-2.375,1.51-5.382,2.599-8.473,4.851c0.342,8.614,0.689,22.857-1.234,50.518
	c-0.699,9.571,21.36,7.432,24.78-5.732c8.206-31.368,9.58-56.224,15.711-62.191c-1.173,1.117-3.683,0.263-6.891,0.929
	c-2.979,0.657-6.338,1.38-14.404,6.793l1.192-4.391c2.346-11.363-2.552-35.646-25.258-51.409
	c-0.085-0.085,11.442-5.977,24.569-3.454c8.876,1.727,8.351,0.76,15.67-1.623c7.342-2.449,20.801,0.882,27.558-5.452
	c6.831-6.305,12.77-12.647,27.838-14.187c15.079-1.586,29.594,10.659,42.975,20.032c13.381,9.375,15.182,2.037,30.326,6.428
	c12.084,3.462,12.188,9.176,14.356,13.379c1.744,13.071,0.413,35.505-24.378,50.049c-9.665,1.492-23.25,13.577-34.547,9.852
	c-0.77-0.244-0.423-0.46-1.183-0.619c-3.265,15.069-6.896,30.082-7.3,31.283c0,0,21.61-3.594,33.066-19.292
	c5.321-7.29,18.635-8.811,26.704-10.837c-3.152-3.387-3.743-5.545-6.511-7.432c8.811-5.705,23.635-20.342,22.368-48.388
	c9.851,1.483,28.421-1.979,43.854,12.845c16.798,16.214,24.416,32.831,19.519,40.187c-6.663,9.983-37.514,24.133-52.752,22.407
	C234.47,78.979,232.332,78.266,230.249,77.242"/>
</svg>
