<?xml version="1.0" encoding="utf-8"?>
<!-- Generator: Adobe Illustrator 16.0.0, SVG Export Plug-In . SVG Version: 6.00 Build 0)  -->
<!DOCTYPE svg PUBLIC "-//W3C//DTD SVG 1.1//EN" "http://www.w3.org/Graphics/SVG/1.1/DTD/svg11.dtd">
<svg version="1.1" id="Layer_1" xmlns="http://www.w3.org/2000/svg" xmlns:xlink="http://www.w3.org/1999/xlink" x="0px" y="0px"
	 width="593px" height="242px" viewBox="0 0 593 242" enable-background="new 0 0 593 242" xml:space="preserve">
<path fill="none" stroke="#D35E13" stroke-width="3" stroke-linecap="round" stroke-linejoin="bevel" stroke-miterlimit="10" stroke-dasharray="0,7.7591" d="
	M205.545,97.466c3.608,6.87,13.247,17.628,24.707,30.757c0,0,2.896-20.78-0.654-40.319c-3.061,1.901-6.225,3.677-9.773,5.155
	C215.65,94.885,210.615,96.251,205.545,97.466 M286.146,111.214c1.278,0.365,4.114-0.875,9.664-11.404
	c3.769-7.118,14.078-19.26,20.736-26.775c-2.267-1.817-4.704-3.379-7.457-4.398c-3.821-1.393-10.69,0.679-13.279,0l-2.943-0.077
	c-2.017,8.178-6.309,31.853-6.675,37.331C286.094,107.137,286.085,108.997,286.146,111.214 M286.79,68.407l-8.645-0.223
	c-7.528,7.303-8.988,16.595-10.844,41.569c-2.267,30.723-20.032,27.963-18.826,35.69c1.062,6.718,24.732,28.083,30.981,33.628
	v-0.033l2.281-21.545c0,0-1.087-39.435-0.846-46.535C281.25,100.293,283.911,79.072,286.79,68.407 M300.102,162.351
	c12.021-12.644,26.007-30.399,30.354-48.106c3.116-12.652,6.522-19.335,7.542-25.653c-7.236-1.249-12.246-7.091-17.782-12.314
	c-6.438,7.907-16.372,20.509-19.511,25.637c-13.638,22.257-10.081,36.838-0.586,60.429L300.102,162.351z M403.655,106.188
	c-3.431-2.456-6.64-5.641-9.553-8.739c-5.52,1.138-12.33-1.036-21.952,6.632c0.978,0.204,2.125,0.399,3.329,0.561
	c3.906,0.475,16.134,5.961,19.157,5.783C399.274,110.127,402.229,107.715,403.655,106.188 M211.939,115.765
	c-6.106-7.736-10.925-13.715-13.506-16.677c-10.72,2.326-12.687,0.5-16.678,4.467c-4.365,4.364-5.486,7.107-12.131,9.188v0.009
	c6.705,1.868,12.306,0.314,20.542,0.314C197.198,113.065,206.878,114.772,211.939,115.765 M407.613,108.582
	c-2.318,2.071-6.861,5.247-12.671,5.901c-7.608,0.892-19.938-6.02-24.438-5.724c-2.964,0.187-6.123,3.033-6.123,3.033
	c-16.143,17.245-26.01,10.945-31.444,18.91c-9.75,14.386-32.754,46.179-31.739,74.101c0.663,16.465,3.936,32.242,3.936,32.242
	s-8.118,2.54-17.994,2.54c-9.939,0-14.253-3.567-14.253-3.567s9.731-27.317,1.609-38.484c-8.722-12-32.168-42.783-51.138-67.171
	c-3.393-2.896-7.384-6.104-11.464-8.67c-6.135-3.872-17.293-3.431-21.068-3.304c-6.432,0.162-14.677,0.857-28.371-2.692
	c-0.837-0.212-1.673-0.458-2.505-0.721h0.009c-5.716,1.188-11.409,2.301-11.409,2.301c-18.037-0.942-25.837-10.343-28.75-18.877
	c-2.905-8.669,10.105-12.101,15.26-21.313c5.078-9.213,9.472-14.938,16.376-23.158c6.938-8.271,19.875-11.463,26.983-14.291
	c7.087-2.829,12.347-19.803,22.801-18.886c5.919,0.467,7.685,1.486,14.431,3.083c10.785,2.563,39.097,25.144,28.028,55.281
	c-2.149,1.368-4.869,2.353-7.667,4.391c0.309,7.796,0.623,20.687-1.117,45.72c-0.634,8.662,19.331,6.726,22.426-5.188
	c7.425-28.389,8.671-50.883,14.22-56.283c-1.062,1.01-3.334,0.237-6.237,0.84c-2.696,0.595-5.736,1.249-13.036,6.149l1.079-3.976
	c2.123-10.282-2.31-32.259-22.859-46.525c-0.077-0.077,10.355-5.409,22.235-3.126c8.033,1.563,7.559,0.688,14.181-1.468
	c6.646-2.217,18.827,0.797,24.941-4.934c6.181-5.706,11.557-11.447,25.195-12.84c13.646-1.435,26.783,9.647,38.893,18.13
	c12.11,8.484,13.74,1.843,27.445,5.818c10.937,3.132,11.031,8.305,12.993,12.108c1.578,11.83,0.374,32.133-22.062,45.295
	c-8.746,1.35-21.042,12.288-31.267,8.917c-0.696-0.222-0.383-0.417-1.07-0.561c-2.955,13.638-6.241,27.225-6.606,28.311
	c0,0,19.558-3.252,29.925-17.459c4.815-6.598,16.866-7.974,24.169-9.808c-2.854-3.065-3.389-5.019-5.894-6.726
	c7.974-5.163,21.391-18.41,20.243-43.793c8.917,1.343,25.724-1.791,39.692,11.626c15.2,14.674,22.096,29.713,17.663,36.371
	c-6.03,9.035-33.951,21.84-47.741,20.278C411.433,110.152,409.497,109.506,407.613,108.582"/>
</svg>
