<?xml version="1.0" encoding="utf-8"?>
<!-- Generator: Adobe Illustrator 16.0.0, SVG Export Plug-In . SVG Version: 6.00 Build 0)  -->
<!DOCTYPE svg PUBLIC "-//W3C//DTD SVG 1.1//EN" "http://www.w3.org/Graphics/SVG/1.1/DTD/svg11.dtd">
<svg version="1.1" id="Layer_1" xmlns="http://www.w3.org/2000/svg" xmlns:xlink="http://www.w3.org/1999/xlink" x="0px" y="0px"
	 width="25.512px" height="45.354px" viewBox="0 0 25.512 45.354" enable-background="new 0 0 25.512 45.354" xml:space="preserve">
<path fill="#E70095" d="M12.428,45.144"/>
<path fill="#E70095" d="M12.428,45.144"/>
<path fill="#EE9F72" d="M13.246,23.854c5.829,0,10.554-4.725,10.554-10.554S19.074,2.746,13.246,2.746
	C7.416,2.746,2.69,7.47,2.69,13.299S7.416,23.854,13.246,23.854"/>
<g>
	<path fill="#FFFFFF" d="M13.117,13.697c1.753,0,3.172-1.417,3.172-3.167c0-1.751-1.419-3.168-3.172-3.168
		c-1.749,0-3.167,1.417-3.167,3.168C9.95,12.28,11.368,13.697,13.117,13.697"/>
	<path fill="#FFFFFF" d="M6.572,14.605c1.319,0,2.388-1.065,2.388-2.383S7.892,9.838,6.572,9.838c-1.314,0-2.382,1.065-2.382,2.384
		C4.19,13.539,5.257,14.605,6.572,14.605"/>
	<path fill="#FFFFFF" d="M19.452,15.059c1.319,0,2.388-1.065,2.388-2.382c0-1.317-1.067-2.384-2.388-2.384
		c-1.314,0-2.383,1.065-2.383,2.384C17.071,13.993,18.138,15.059,19.452,15.059"/>
	<path fill="#FFFFFF" d="M20.677,16.677l-2.397-0.081v0.073c-0.323,0.012-0.629,0.131-0.896,0.334
		c-0.464-1.266-1.354-2.142-2.396-2.218l-3.467-0.122v0.109c-0.951,0.036-1.783,0.743-2.289,1.812
		c-0.354-0.477-0.836-0.779-1.376-0.817l-2.515-0.08v0.074c-0.71,0.022-1.328,0.518-1.691,1.258c1.343,3.729,4.91,6.394,9.1,6.394
		c4.112,0,7.625-2.566,9.021-6.185C21.463,16.906,21.087,16.707,20.677,16.677"/>
</g>
<path fill="#D35E13" d="M12.755,23.099c-5.354,0-9.693-4.34-9.693-9.689c0-5.354,4.34-9.694,9.693-9.694
	c5.353,0,9.692,4.34,9.692,9.694C22.448,18.759,18.109,23.099,12.755,23.099 M12.755,0.123c-6.916,0-12.521,5.604-12.521,12.52
	c0,13.946,12.521,32.589,12.521,32.589S25.276,28.19,25.276,12.643C25.276,5.728,19.67,0.123,12.755,0.123"/>
</svg>
