<?xml version="1.0" encoding="utf-8"?>
<!-- Generator: Adobe Illustrator 16.0.0, SVG Export Plug-In . SVG Version: 6.00 Build 0)  -->
<!DOCTYPE svg PUBLIC "-//W3C//DTD SVG 1.1//EN" "http://www.w3.org/Graphics/SVG/1.1/DTD/svg11.dtd">
<svg version="1.1" id="Layer_1" xmlns="http://www.w3.org/2000/svg" xmlns:xlink="http://www.w3.org/1999/xlink" x="0px" y="0px"
	 width="80px" height="69px" viewBox="0 0 80 69" enable-background="new 0 0 80 69" xml:space="preserve">
<g>
	<g>
		<g>
			<g>
				<g>
					<g>
						<g>
							<g>
								<g>
									<defs>
										<rect id="SVGID_1_" x="15.807" y="13.208" width="42.386" height="42.584"/>
									</defs>
									<clipPath id="SVGID_2_">
										<use xlink:href="#SVGID_1_"  overflow="visible"/>
									</clipPath>
									<path clip-path="url(#SVGID_2_)" fill="#FEDECE" d="M40.391,45.729c8.275,4.242,5.958,10.063,5.958,10.063
										s-21.312-3.917-28.74-7.724c-3.681-1.889-1.565-3.94,4.725-4.588C28.628,42.835,36.71,43.841,40.391,45.729"/>
								</g>
							</g>
						</g>
					</g>
				</g>
			</g>
		</g>
	</g>
</g>
<g>
	<g>
		<g>
			<g>
				<g>
					<g>
						<g>
							<g>
								<g>
									<defs>
										<rect id="SVGID_3_" x="15.807" y="13.208" width="42.386" height="42.584"/>
									</defs>
									<clipPath id="SVGID_4_">
										<use xlink:href="#SVGID_3_"  overflow="visible"/>
									</clipPath>
									<path clip-path="url(#SVGID_4_)" fill="#D35E13" d="M46.373,34.899c-5.055,0-9.15-4.097-9.15-9.151s4.097-9.152,9.15-9.152
										c5.055,0,9.15,4.098,9.15,9.152S51.428,34.899,46.373,34.899 M46.373,13.208c-6.527,0-11.82,5.292-11.82,11.82
										c0,13.166,11.82,30.764,11.82,30.764s11.82-16.088,11.82-30.764C58.193,18.5,52.9,13.208,46.373,13.208"/>
								</g>
							</g>
						</g>
					</g>
				</g>
			</g>
		</g>
	</g>
</g>
<g>
	<g>
		<g>
			<g>
				<g>
					<g>
						<g>
							<g>
								<g>
									<defs>
										<rect id="SVGID_5_" x="15.807" y="13.208" width="42.386" height="42.584"/>
									</defs>
									<clipPath id="SVGID_6_">
										<use xlink:href="#SVGID_5_"  overflow="visible"/>
									</clipPath>
									<path clip-path="url(#SVGID_6_)" fill="#D35E13" d="M46.939,26.753c-1.246,1.245-3.272,1.245-4.521,0
										c-1.244-1.246-1.244-3.273,0-4.519c1.246-1.246,3.271-1.246,4.521,0C48.186,23.48,48.186,25.507,46.939,26.753
										 M47.999,21.175c-1.83-1.83-4.808-1.83-6.638,0c-1.833,1.83-1.833,4.807,0,6.637c1.664,1.663,4.271,1.814,6.109,0.454
										l1.438,1.438l0.982-0.982l-1.439-1.438C49.812,25.448,49.662,22.838,47.999,21.175"/>
								</g>
							</g>
						</g>
					</g>
				</g>
			</g>
		</g>
	</g>
</g>
<rect x="50.198" y="29.567" transform="matrix(0.7073 -0.7069 0.7069 0.7073 -6.8087 44.9652)" fill="#D35E13" width="1.389" height="2.274"/>
</svg>
