<?xml version="1.0" encoding="utf-8"?>
<!-- Generator: Adobe Illustrator 17.1.0, SVG Export Plug-In . SVG Version: 6.00 Build 0)  -->
<!DOCTYPE svg PUBLIC "-//W3C//DTD SVG 1.1//EN" "http://www.w3.org/Graphics/SVG/1.1/DTD/svg11.dtd">
<svg version="1.1" id="Layer_1" xmlns="http://www.w3.org/2000/svg" xmlns:xlink="http://www.w3.org/1999/xlink" x="0px" y="0px"
	 width="400px" height="43px" viewBox="0 0 400 43" enable-background="new 0 0 400 43" xml:space="preserve">
<rect fill="#D55E00" width="400" height="43"/>
<path fill="#FFFFFF" d="M367.6,28.4c0,0.6-0.5,1.2-1.2,1.2h-1.7c-0.6,0-1.2-0.5-1.2-1.2c0-0.3,0.1-0.6,0.4-0.9l3.3,0
	C367.5,27.8,367.6,28.1,367.6,28.4 M373.2,9.9c-0.2-0.5-0.7-0.7-1.1-0.5c-0.5,0.2-0.7,0.7-0.5,1.1l0.3,0.9l-0.1,0.1l2.2,6.2
	c0.1,0.2,0,0.5-0.2,0.6l0.1,0.3l-18,7.8l-0.3-0.6c-0.1-0.1-0.1-0.1-0.2-0.2l-0.2-0.7l-0.2,0.2l-0.2-0.7c-0.2-0.4-0.6-0.7-1.1-0.5
	c-0.4,0.2-0.7,0.6-0.5,1.1l1.4,4.1c0.1,0.3,0.4,0.6,0.8,0.6c0.1,0,0.2,0,0.3,0c0.4-0.2,0.7-0.6,0.5-1.1l-0.2-0.7l6.5,0
	c-0.1,0.3-0.1,0.5-0.1,0.8c0,1.4,1.2,2.6,2.6,2.6h1.7c1.4,0,2.6-1.2,2.6-2.6c0-0.3-0.1-0.6-0.2-0.9l8.6,0l0.5,1.6
	c0.1,0.4,0.5,0.6,0.8,0.6c0.1,0,0.2,0,0.3,0c0.5-0.2,0.7-0.7,0.5-1.1L373.2,9.9z"/>
<polyline fill="#FFFFFF" points="356.3,25.1 372,15.4 370.9,12.1 355.9,24 356.3,25.1 356.3,25.1 "/>
<path fill="#FFFFFF" d="M385.6,18.3c0-0.1,0-0.2,0-0.3l0-0.2c-0.1-0.4-0.2-0.7-0.3-1c-0.4-1.3-1.4-2.4-2.5-3.2
	c-1.1-0.7-2.5-1-3.8-0.8c1.2,0.4,2.2,1.1,2.9,1.8s1.4,1.7,1.7,2.7c0.1,0.2,0.2,0.5,0.2,0.7l0,0.2c0,0,0,0.1,0,0.2
	c0,0.1,0,0.3,0.1,0.4c0.1,0.5,0.1,1.1,0,1.6c-0.1,1.1-0.5,2.2-1.2,3.3c1.1-0.6,2-1.7,2.4-2.9c0.2-0.6,0.3-1.3,0.3-2
	C385.6,18.6,385.6,18.4,385.6,18.3"/>
<path fill="#FFFFFF" d="M382.5,18.6l0-0.1c0-0.2-0.1-0.4-0.2-0.6c-0.3-0.8-0.8-1.4-1.5-1.9c-0.7-0.4-1.5-0.6-2.2-0.4
	c0.7,0.3,1.3,0.6,1.7,1.1c0.5,0.4,0.8,1,1,1.6c0.1,0.1,0.1,0.3,0.1,0.4l0,0.2l0,0.2c0,0.3,0,0.6,0,0.9c-0.1,0.6-0.3,1.3-0.7,1.9
	c0.7-0.3,1.2-1,1.4-1.7c0.1-0.4,0.2-0.8,0.2-1.2c0-0.1,0-0.2,0-0.3L382.5,18.6z"/>
</svg>
