<svg id="Layer_1" data-name="Layer 1" xmlns="http://www.w3.org/2000/svg" width="400" height="43" viewBox="0 0 400 43">
  <defs>
    <style>
      .cls-1 {
        fill: #d55e00;
      }

      .cls-2 {
        fill: #fff;
      }
    </style>
  </defs>
  <title>saal-module-header-events2</title>
  <rect class="cls-1" width="400" height="43"/>
  <path class="cls-2" d="M385.41,27.36"/>
  <path class="cls-2" d="M383.55,8.26h-7.73v3.21a1.2,1.2,0,0,1-2.4,0V8.26H364.6v3.21a1.2,1.2,0,0,1-2.4,0V8.26h-6.93a1.89,1.89,0,0,0-1.89,1.89V32.82a1.89,1.89,0,0,0,1.89,1.89h28.29a1.89,1.89,0,0,0,1.89-1.89V10.15A1.89,1.89,0,0,0,383.55,8.26Zm0.28,24.56a0.28,0.28,0,0,1-.28.28H355.26a0.28,0.28,0,0,1-.28-0.28v-19h28.85v19Z"/>
  <circle class="cls-2" cx="358.16" cy="17.69" r="1.12"/>
  <circle class="cls-2" cx="358.16" cy="23.83" r="1.12"/>
  <circle class="cls-2" cx="358.16" cy="29.96" r="1.12"/>
  <circle class="cls-2" cx="363.98" cy="17.69" r="1.12"/>
  <circle class="cls-2" cx="363.98" cy="23.83" r="1.12"/>
  <circle class="cls-2" cx="363.98" cy="29.96" r="1.12"/>
  <circle class="cls-2" cx="369.4" cy="17.69" r="1.12"/>
  <circle class="cls-2" cx="369.4" cy="23.83" r="1.12"/>
  <circle class="cls-2" cx="369.4" cy="29.96" r="1.12"/>
  <circle class="cls-2" cx="374.83" cy="17.69" r="1.12"/>
  <path class="cls-2" d="M374.83,26.48a2.65,2.65,0,1,1,2.65-2.65A2.65,2.65,0,0,1,374.83,26.48Zm0-4.44a1.79,1.79,0,1,0,1.79,1.79A1.8,1.8,0,0,0,374.83,22Z"/>
  <circle class="cls-2" cx="374.83" cy="23.83" r="1.12"/>
  <circle class="cls-2" cx="374.83" cy="29.96" r="1.12"/>
  <circle class="cls-2" cx="380.64" cy="17.69" r="1.12"/>
  <circle class="cls-2" cx="380.64" cy="23.83" r="1.12"/>
  <circle class="cls-2" cx="380.64" cy="29.96" r="1.12"/>
</svg>
