<?xml version="1.0" encoding="utf-8"?>
<!-- Generator: Adobe Illustrator 16.0.0, SVG Export Plug-In . SVG Version: 6.00 Build 0)  -->
<!DOCTYPE svg PUBLIC "-//W3C//DTD SVG 1.1//EN" "http://www.w3.org/Graphics/SVG/1.1/DTD/svg11.dtd">
<svg version="1.1" id="Layer_1" xmlns="http://www.w3.org/2000/svg" xmlns:xlink="http://www.w3.org/1999/xlink" x="0px" y="0px"
	 width="27px" height="27px" viewBox="0 0 27 27" enable-background="new 0 0 27 27" xml:space="preserve">
<g>
	<g>
		<g>
			<g>
				<g>
					<g>
						<g>
							<g>
								<g>
									<g>
										<g>
											<defs>
												<rect id="SVGID_1_" width="27" height="27"/>
											</defs>
											<clipPath id="SVGID_2_">
												<use xlink:href="#SVGID_1_"  overflow="visible"/>
											</clipPath>
											<path clip-path="url(#SVGID_2_)" fill="#FEDECE" d="M21.924,20.712l-5.195-4.735l5.109-4.427
												c0.031-0.028,0.059-0.047,0.079-0.061c0.004,0.024,0.007,0.054,0.007,0.091V20.712z M21.094,10.198
												c0,0.156-0.07,0.303-0.197,0.412l-2.117,1.825V9.827c0-0.371-0.352-0.674-0.773-0.674H9.42
												c-0.431,0-0.783,0.303-0.783,0.674v2.608l-2.12-1.825C6.39,10.501,6.32,10.354,6.32,10.198
												c0-0.157,0.07-0.303,0.197-0.412l6.71-5.782c0.128-0.11,0.298-0.17,0.479-0.17s0.353,0.06,0.479,0.169l6.711,5.783
												C21.023,9.895,21.094,10.041,21.094,10.198 M5.578,11.529l5.323,4.588l-5.412,4.467v-9.023
												c0-0.039,0.003-0.069,0.008-0.092C5.519,11.482,5.547,11.502,5.578,11.529 M10.509,12.216
												c-0.304,0-0.551-0.212-0.551-0.474c0-0.262,0.247-0.475,0.551-0.475h6.312c0.312,0,0.559,0.213,0.559,0.475
												c0,0.262-0.247,0.474-0.559,0.474H10.509z M16.415,14.072c0,0.262-0.183,0.474-0.407,0.474h-4.685
												c-0.226,0-0.409-0.212-0.409-0.474c0-0.262,0.183-0.475,0.409-0.475h4.685C16.232,13.597,16.415,13.81,16.415,14.072
												 M6.589,21.469l5.397-4.455c0.33,0.221,0.713,0.424,0.999,0.521c0.424,0.145,1.123,0.145,1.533-0.001
												c0.325-0.113,0.789-0.38,1.146-0.646l5.021,4.572L6.589,21.469L6.589,21.469z M27,13.501C27,6.046,20.957,0,13.501,0
												S0,6.046,0,13.501C0,20.958,6.045,27,13.501,27S27,20.958,27,13.501"/>
										</g>
									</g>
								</g>
							</g>
						</g>
					</g>
				</g>
			</g>
		</g>
	</g>
</g>
</svg>
