<?xml version="1.0" encoding="utf-8"?>
<!-- Generator: Adobe Illustrator 19.0.0, SVG Export Plug-In . SVG Version: 6.00 Build 0)  -->
<svg version="1.1" id="Layer_1" xmlns="http://www.w3.org/2000/svg" xmlns:xlink="http://www.w3.org/1999/xlink" x="0px" y="0px"
	 width="295px" height="120px" viewBox="0 0 295 120" style="enable-background:new 0 0 295 120;" xml:space="preserve">
<style type="text/css">
	.st0{fill:#FFFFFF;}
	.st1{opacity:0.8;fill:#FFFFFF;enable-background:new    ;}
</style>
<g>
	<path class="st0" d="M39.7,55.7c0.7,1.2,2.4,3.2,4.5,5.6c0,0,0.5-3.8-0.1-7.3c-0.6,0.3-1.1,0.7-1.8,0.9
		C41.5,55.3,40.6,55.5,39.7,55.7 M54.3,58.2c0.2,0.1,0.7-0.2,1.8-2.1c0.7-1.3,2.5-3.5,3.8-4.9c-0.4-0.3-0.9-0.6-1.3-0.8
		c-0.7-0.2-1.9,0.1-2.4,0h-0.5c-0.4,1.5-1.1,5.8-1.2,6.8C54.3,57.5,54.3,57.8,54.3,58.2 M54.4,50.5h-1.6c-1.4,1.3-1.6,3-2,7.5
		c-0.4,5.6-3.6,5.1-3.4,6.5c0.2,1.2,4.5,5.1,5.6,6.1l0,0l0.4-3.9c0,0-0.2-7.1-0.2-8.4C53.4,56.2,53.9,52.4,54.4,50.5 M56.8,67.5
		c2.2-2.3,4.7-5.5,5.5-8.7c0.6-2.3,1.2-3.5,1.4-4.6c-1.3-0.2-2.2-1.3-3.2-2.2c-1.2,1.4-3,3.7-3.5,4.6C54.5,60.6,55.1,63.2,56.8,67.5
		L56.8,67.5z M75.6,57.3c-0.6-0.4-1.2-1-1.7-1.6c-1,0.2-2.2-0.2-4,1.2c0.2,0,0.4,0.1,0.6,0.1c0.7,0.1,2.9,1.1,3.5,1
		C74.8,58,75.3,57.6,75.6,57.3 M40.9,59c-1.1-1.4-2-2.5-2.4-3c-1.9,0.4-2.3,0.1-3,0.8c-0.8,0.8-1,1.3-2.2,1.7l0,0
		c1.2,0.3,2.2,0.1,3.7,0.1C38.2,58.6,39.9,58.9,40.9,59 M76.3,57.8c-0.4,0.4-1.2,1-2.3,1.1c-1.4,0.2-3.6-1.1-4.4-1
		c-0.5,0-1.1,0.5-1.1,0.5c-2.9,3.1-4.7,2-5.7,3.4c-1.8,2.6-5.9,8.4-5.7,13.4c0.1,3,0.7,5.8,0.7,5.8s-1.5,0.5-3.3,0.5
		s-2.6-0.6-2.6-0.6s1.8-4.9,0.3-7c-1.6-2.2-5.8-7.8-9.3-12.2c-0.6-0.5-1.3-1.1-2.1-1.6c-1.1-0.7-3.1-0.6-3.8-0.6
		c-1.2,0-2.7,0.2-5.1-0.5c-0.2,0-0.3-0.1-0.5-0.1l0,0c-1,0.2-2.1,0.4-2.1,0.4c-3.3-0.2-4.7-1.9-5.2-3.4c-0.5-1.6,1.8-2.2,2.8-3.9
		c0.9-1.7,1.7-2.7,3-4.2s3.6-2.1,4.9-2.6c1.3-0.5,2.2-3.6,4.1-3.4c1.1,0.1,1.4,0.3,2.6,0.6c2,0.5,7.1,4.6,5.1,10
		c-0.4,0.2-0.9,0.4-1.4,0.8c0.1,1.4,0.1,3.7-0.2,8.3c-0.1,1.6,3.5,1.2,4.1-0.9c1.3-5.1,1.6-9.2,2.6-10.2c-0.2,0.2-0.6,0-1.1,0.2
		c-0.5,0.1-1,0.2-2.4,1.1l0.2-0.7c0.4-1.9-0.4-5.8-4.1-8.4c0,0,1.9-1,4-0.6c1.5,0.3,1.4,0.1,2.6-0.3s3.4,0.1,4.5-0.9
		s2.1-2.1,4.6-2.3c2.5-0.3,4.8,1.7,7,3.3c2.2,1.5,2.5,0.3,5,1.1c2,0.6,2,1.5,2.4,2.2c0.3,2.1,0.1,5.8-4,8.2
		c-1.6,0.2-3.8,2.2-5.7,1.6c-0.1,0-0.1-0.1-0.2-0.1c-0.5,2.5-1.1,4.9-1.2,5.1c0,0,3.5-0.6,5.4-3.2c0.9-1.2,3.1-1.4,4.4-1.8
		c-0.5-0.6-0.6-0.9-1.1-1.2c1.4-0.9,3.9-3.3,3.7-7.9c1.6,0.2,4.7-0.3,7.2,2.1c2.8,2.7,4,5.4,3.2,6.6c-1.1,1.6-6.1,4-8.6,3.7
		C77,58,76.6,57.9,76.3,57.8"/>
	<g>
		<polygon id="XMLID_39_" class="st0" points="102.1,42.4 105.8,42.4 111.4,54.2 111.5,54.2 111.5,42.4 114.3,42.4 114.3,58.1 
			110.7,58.1 105,46.4 105,46.4 105,58.1 102.1,58.1 		"/>
		<path class="st0" d="M120.8,56.2c0.9,0,1.6-0.4,2-1c0.5-0.7,0.6-1.5,0.6-2.4h-1.2c-1.3,0-3.2,0.2-3.2,2
			C119,55.8,119.8,56.2,120.8,56.2 M117.5,47.2c1.1-0.5,2.6-0.9,3.8-0.9c3.4,0,4.7,1.5,4.7,4.9v1.5c0,1.2,0,2,0,2.9s0.1,1.7,0.1,2.6
			h-2.5c-0.1-0.6-0.1-1.4-0.1-1.7l0,0c-0.7,1.3-2.1,2-3.4,2c-1.9,0-3.8-1.2-3.8-3.4c0-1.7,0.8-2.7,1.9-3.3c1.1-0.6,2.5-0.7,3.7-0.7
			h1.6c0-1.9-0.8-2.5-2.5-2.5c-1.2,0-2.4,0.5-3.4,1.3L117.5,47.2z"/>
		<path id="XMLID_36_" class="st0" d="M129.1,48.8H127v-2.2h2.1v-2.3l2.9-1v3.3h2.5v2.2H132v5.4c0,1,0.3,1.9,1.3,1.9
			c0.5,0,1-0.1,1.3-0.3l0.1,2.4c-0.6,0.2-1.3,0.3-2.1,0.3c-2.2,0-3.5-1.5-3.5-3.8C129.1,54.7,129.1,48.8,129.1,48.8z"/>
		<path id="XMLID_35_" class="st0" d="M145.9,58.1h-2.7v-1.6l0,0c-0.9,1.1-2.1,1.8-3.6,1.8c-2.6,0-3.7-1.9-3.7-4.5v-7.3h2.9v6.2
			c0,1.4,0,3.3,1.9,3.3c2.1,0,2.5-2.4,2.5-3.8v-5.7h2.9v11.6H145.9z"/>
		<path id="XMLID_34_" class="st0" d="M148.4,46.6h2.5v2.6l0,0c0.1-1.1,1.3-2.9,3-2.9c0.3,0,0.6,0,0.9,0.1v3
			c-0.3-0.2-0.8-0.2-1.3-0.2c-2.3,0-2.3,3.1-2.3,4.7v4.2h-2.9V46.6L148.4,46.6L148.4,46.6z"/>
		<path class="st0" d="M159.6,56.2c0.9,0,1.6-0.4,2-1c0.5-0.7,0.6-1.5,0.6-2.4H161c-1.3,0-3.2,0.2-3.2,2
			C157.8,55.8,158.6,56.2,159.6,56.2 M156.2,47.2c1.1-0.5,2.6-0.9,3.8-0.9c3.4,0,4.7,1.5,4.7,4.9v1.5c0,1.2,0,2,0,2.9
			s0.1,1.7,0.1,2.6h-2.5c-0.1-0.6-0.1-1.4-0.1-1.7l0,0c-0.7,1.3-2.1,2-3.4,2c-1.9,0-3.8-1.2-3.8-3.4c0-1.7,0.8-2.7,1.9-3.3
			c1.1-0.6,2.5-0.7,3.7-0.7h1.6c0-1.9-0.8-2.5-2.5-2.5c-1.2,0-2.4,0.5-3.4,1.3L156.2,47.2z"/>
		<rect id="XMLID_31_" x="167.1" y="41.3" class="st0" width="2.9" height="16.9"/>
		<path class="st0" d="M181.3,49.1h1c1.5,0,3.2-0.2,3.2-2.2c0-1.9-1.7-2-3.2-2h-1V49.1z M178.3,42.4h3.2c3.2,0,7-0.1,7,4.2
			c0,1.8-1.2,3.4-3.1,3.6l0,0c0.8,0.1,1.3,0.9,1.6,1.6l2.4,6.1h-3.3l-1.8-4.9c-0.4-1.2-0.8-1.6-2.1-1.6h-1v6.5h-3L178.3,42.4
			L178.3,42.4L178.3,42.4z"/>
		<path class="st0" d="M197.6,51.2c-0.1-1.5-0.7-2.7-2.3-2.7s-2.4,1.2-2.5,2.7H197.6z M199.5,57.5c-1,0.6-2.2,0.9-3.8,0.9
			c-3.6,0-5.7-2.2-5.7-6c0-3.4,1.7-6.1,5.1-6.1c4.1,0,5.2,2.9,5.2,7h-7.6c0.1,1.9,1.4,2.9,3.1,2.9c1.4,0,2.6-0.5,3.6-1.2L199.5,57.5
			L199.5,57.5z"/>
		<path id="XMLID_26_" class="st0" d="M208.7,49c-0.9-0.3-1.5-0.5-2.6-0.5c-0.8,0-1.7,0.3-1.7,1.3c0,1.8,5,0.7,5,4.9
			c0,2.7-2.3,3.8-4.6,3.8c-1.1,0-2.2-0.2-3.2-0.5l0.2-2.5c0.9,0.5,1.8,0.8,2.8,0.8c0.7,0,1.9-0.3,1.9-1.4c0-2.3-5-0.7-5-4.9
			c0-2.5,2.1-3.6,4.3-3.6c1.3,0,2.2,0.2,3.1,0.4L208.7,49z"/>
		<path class="st0" d="M216.1,56.1c2.2,0,2.8-2.1,2.8-4c0-1.8-0.9-3.4-2.8-3.4c-1.9,0-2.8,1.7-2.8,3.4C213.4,54,214,56.1,216.1,56.1
			 M216.1,46.3c3.3,0,5.8,2.3,5.8,6.1c0,3.3-2.1,6-5.8,6c-3.6,0-5.7-2.7-5.7-6C210.4,48.6,212.9,46.3,216.1,46.3"/>
		<path id="XMLID_23_" class="st0" d="M233.7,58.1H231v-1.6h-0.1c-0.9,1.1-2.1,1.8-3.6,1.8c-2.6,0-3.7-1.9-3.7-4.5v-7.3h2.9v6.2
			c0,1.4,0,3.3,1.9,3.3c2.1,0,2.5-2.4,2.5-3.8v-5.7h2.9L233.7,58.1L233.7,58.1z"/>
		<path id="XMLID_22_" class="st0" d="M236.1,46.6h2.5v2.6l0,0c0.1-1.1,1.3-2.9,3-2.9c0.3,0,0.6,0,0.9,0.1v3
			c-0.3-0.2-0.8-0.2-1.3-0.2c-2.3,0-2.3,3.1-2.3,4.7v4.2H236V46.6L236.1,46.6L236.1,46.6z"/>
		<path id="XMLID_21_" class="st0" d="M251,49c-0.5-0.2-1.1-0.4-1.9-0.4c-1.8,0-2.9,1.5-2.9,3.7c0,2.1,1,3.8,3,3.8
			c0.8,0,1.7-0.3,2.2-0.5l0.1,2.5c-0.8,0.3-1.7,0.4-2.9,0.4c-3.6,0-5.4-2.6-5.4-6.1c0-3.4,1.9-6,5.3-6c1.2,0,2,0.1,2.8,0.4L251,49z"
			/>
		<path class="st0" d="M259.7,51.2c-0.1-1.5-0.7-2.7-2.3-2.7s-2.4,1.2-2.5,2.7H259.7z M261.6,57.5c-1,0.6-2.2,0.9-3.8,0.9
			c-3.6,0-5.8-2.2-5.8-6c0-3.4,1.7-6.1,5.1-6.1c4.1,0,5.2,2.9,5.2,7h-7.6c0.1,1.9,1.4,2.9,3.1,2.9c1.4,0,2.6-0.5,3.7-1.2L261.6,57.5
			L261.6,57.5L261.6,57.5z"/>
		<path id="XMLID_18_" class="st0" d="M270.8,49c-0.9-0.3-1.5-0.5-2.6-0.5c-0.8,0-1.7,0.3-1.7,1.3c0,1.8,5,0.7,5,4.9
			c0,2.7-2.3,3.8-4.6,3.8c-1.1,0-2.2-0.2-3.2-0.5l0.2-2.5c0.9,0.5,1.8,0.8,2.8,0.8c0.7,0,1.9-0.3,1.9-1.4c0-2.3-5-0.7-5-4.9
			c0-2.5,2.1-3.6,4.3-3.6c1.3,0,2.2,0.2,3.1,0.4L270.8,49z"/>
		<path id="XMLID_17_" class="st1" d="M101.9,79.4c0.9,0.6,1.9,0.9,3.3,0.9c1.9,0,3.4-1,3.4-3.1c0-3-6.9-3.3-6.9-7.3
			c0-2.4,2.1-3.9,4.8-3.9c0.7,0,1.9,0.1,3,0.5l-0.2,1.4c-0.7-0.4-1.7-0.6-2.7-0.6c-1.6,0-3.3,0.7-3.3,2.6c0,3,6.9,3,6.9,7.4
			c0,3-2.6,4.2-4.9,4.2c-1.5,0-2.6-0.3-3.4-0.6L101.9,79.4z"/>
		<path class="st1" d="M117.6,67.7l-3.3,8.3h6.5L117.6,67.7z M116.8,66.3h1.7l6,15.1h-1.6l-1.6-4h-7.6l-1.6,4h-1.4L116.8,66.3z"/>
		<path class="st1" d="M136.9,67.7l-3.3,8.3h6.5L136.9,67.7z M136.1,66.3h1.7l6,15.1h-1.6l-1.6-4H133l-1.6,4H130L136.1,66.3z"/>
		<path id="XMLID_12_" class="st1" d="M145.1,72.8c0-1.2,0-1.7-0.1-2.5h1.4v2.1h0.1c0.5-1.2,1.4-2.4,2.8-2.4c0.3,0,0.7,0.1,0.9,0.1
			v1.4c-0.3-0.1-0.6-0.1-1-0.1c-2.2,0-2.7,2.4-2.7,4.4v5.4h-1.4C145.1,81.2,145.1,72.8,145.1,72.8z"/>
		<path class="st1" d="M151.4,70.3h1.4v11h-1.4V70.3z M152.8,67.4h-1.4v-1.8h1.4V67.4z"/>
		<path class="st1" d="M159.4,80.4c2.4,0,3.3-2.6,3.3-4.6s-0.8-4.6-3.3-4.6c-2.6,0-3.3,2.5-3.3,4.6C156.1,78,156.8,80.4,159.4,80.4
			 M164,81.3h-1.4v-1.7l0,0c-0.7,1.4-1.9,2-3.4,2c-3,0-4.5-2.5-4.5-5.8s1.3-5.8,4.5-5.8c2.2,0,3.2,1.6,3.4,2.1l0,0v-7h1.4
			C164,65.1,164,81.3,164,81.3z"/>
		<polygon id="XMLID_7_" class="st1" points="172.2,66.3 173.7,66.3 173.7,80 179.8,80 179.8,81.3 172.2,81.3 		"/>
		<path class="st1" d="M187.6,75.8h-0.4c-2.4,0-5.2,0.2-5.2,2.7c0,1.4,1,2,2.3,2c3.2,0,3.3-2.8,3.3-4V75.8L187.6,75.8z M187.7,79.6
			L187.7,79.6c-0.6,1.3-2.2,2-3.5,2c-3.1,0-3.6-2.1-3.6-3.1c0-3.7,3.9-3.9,6.8-3.9h0.3V74c0-1.9-0.7-2.8-2.5-2.8
			c-1.1,0-2.2,0.3-3.2,0.9v-1.3c0.8-0.4,2.3-0.8,3.2-0.8c2.7,0,3.9,1.2,3.9,4.1V79c0,0.9,0,1.6,0.1,2.3h-1.3v-1.7H187.7z"/>
		<path id="XMLID_4_" class="st1" d="M191.2,72.9c0-0.8,0-1.7-0.1-2.6h1.3v2l0,0c0.5-1,1.3-2.2,3.6-2.2c2.7,0,3.8,1.8,3.8,4.2v7
			h-1.4v-6.7c0-2.1-0.7-3.4-2.6-3.4c-2.5,0-3.3,2.2-3.3,4v6.1h-1.4L191.2,72.9L191.2,72.9z"/>
		<path class="st1" d="M206.4,80.4c2.4,0,3.3-2.6,3.3-4.6s-0.8-4.6-3.3-4.6c-2.6,0-3.3,2.5-3.3,4.6C203.1,78,203.8,80.4,206.4,80.4
			 M211,81.3h-1.4v-1.7l0,0c-0.7,1.4-1.9,2-3.4,2c-3,0-4.5-2.5-4.5-5.8s1.3-5.8,4.5-5.8c2.2,0,3.2,1.6,3.4,2.1l0,0v-7h1.4V81.3z"/>
		<path id="XMLID_1_" class="st1" d="M212.5,79.7c0.8,0.4,1.8,0.7,2.9,0.7c1.3,0,2.4-0.7,2.4-2c0-2.6-5.3-2.2-5.3-5.4
			c0-2.2,1.8-3,3.6-3c0.6,0,1.7,0.1,2.7,0.5l-0.1,1.2c-0.7-0.3-1.7-0.5-2.4-0.5c-1.4,0-2.4,0.4-2.4,1.8c0,2,5.4,1.8,5.4,5.4
			c0,2.3-2.2,3.1-3.8,3.1c-1.1,0-2.1-0.1-3.1-0.5L212.5,79.7z"/>
	</g>
</g>
</svg>
