<?xml version="1.0" encoding="utf-8"?>
<!-- Generator: Adobe Illustrator 19.0.0, SVG Export Plug-In . SVG Version: 6.00 Build 0)  -->
<svg version="1.1" id="Layer_1" xmlns="http://www.w3.org/2000/svg" xmlns:xlink="http://www.w3.org/1999/xlink" x="0px" y="0px"
	 width="325px" height="120px" viewBox="0 0 325 120" style="enable-background:new 0 0 325 120;" xml:space="preserve">
<style type="text/css">
	.st0{fill:#FFFFFF;}
	.st1{opacity:0.8;fill:#CFE2F4;enable-background:new    ;}
</style>
<g>
	<g>
		<polygon id="XMLID_58_" class="st0" points="101.2,38.8 104.9,38.8 110.6,50.5 110.6,50.5 110.6,38.8 113.5,38.8 113.5,54.5 
			109.8,54.5 104.1,42.7 104.1,42.7 104.1,54.5 101.2,54.5 		"/>
		<path class="st0" d="M120,52.5c0.9,0,1.6-0.4,2-1c0.5-0.7,0.6-1.5,0.6-2.4h-1.2c-1.3,0-3.2,0.2-3.2,2
			C118.1,52.1,118.9,52.5,120,52.5 M116.6,43.5c1.1-0.5,2.6-0.9,3.8-0.9c3.4,0,4.8,1.5,4.8,4.9V49c0,1.2,0,2,0,2.9s0.1,1.7,0.1,2.6
			h-2.5c-0.1-0.6-0.1-1.4-0.1-1.7l0,0c-0.7,1.3-2.1,2-3.4,2c-1.9,0-3.9-1.2-3.9-3.4c0-1.7,0.8-2.7,1.9-3.3c1.1-0.6,2.5-0.7,3.7-0.7
			h1.6c0-1.9-0.8-2.5-2.5-2.5c-1.2,0-2.4,0.5-3.4,1.3L116.6,43.5z"/>
		<path id="XMLID_55_" class="st0" d="M128.3,45.1h-2.1v-2.2h2.1v-2.3l2.9-1v3.3h2.5v2.2h-2.5v5.4c0,1,0.3,1.9,1.3,1.9
			c0.5,0,1-0.1,1.3-0.3l0.1,2.4c-0.6,0.2-1.3,0.3-2.1,0.3c-2.2,0-3.5-1.5-3.5-3.8C128.3,51,128.3,45.1,128.3,45.1z"/>
		<path id="XMLID_54_" class="st0" d="M145.1,54.5h-2.7v-1.6l0,0c-0.9,1.1-2.1,1.8-3.6,1.8c-2.6,0-3.7-1.9-3.7-4.5v-7.3h2.9v6.2
			c0,1.4,0,3.3,1.9,3.3c2.1,0,2.5-2.4,2.5-3.9v-5.7h2.9v11.7H145.1z"/>
		<path id="XMLID_53_" class="st0" d="M147.6,42.9h2.5v2.6l0,0c0.1-1.1,1.3-2.9,3-2.9c0.3,0,0.6,0,0.9,0.1v3
			c-0.3-0.2-0.8-0.2-1.3-0.2c-2.3,0-2.3,3.1-2.3,4.7v4.3h-2.9L147.6,42.9L147.6,42.9z"/>
		<path class="st0" d="M158.8,52.5c0.9,0,1.6-0.4,2-1c0.5-0.7,0.6-1.5,0.6-2.4h-1.2c-1.3,0-3.2,0.2-3.2,2
			C157,52.1,157.8,52.5,158.8,52.5 M155.4,43.5c1.1-0.5,2.6-0.9,3.8-0.9c3.4,0,4.8,1.5,4.8,4.9V49c0,1.2,0,2,0,2.9s0.1,1.7,0.1,2.6
			h-2.4c-0.1-0.6-0.1-1.4-0.1-1.7l0,0c-0.7,1.3-2.1,2-3.4,2c-1.9,0-3.8-1.2-3.8-3.4c0-1.7,0.8-2.7,1.9-3.3c1.1-0.6,2.5-0.7,3.7-0.7
			h1.6c0-1.9-0.8-2.5-2.5-2.5c-1.2,0-2.4,0.5-3.4,1.3L155.4,43.5z"/>
		<rect id="XMLID_50_" x="166.3" y="37.6" class="st0" width="2.9" height="16.9"/>
		<path class="st0" d="M180.5,45.5h1c1.5,0,3.2-0.2,3.2-2.2c0-1.9-1.7-2-3.2-2h-1V45.5z M177.5,38.8h3.2c3.2,0,7-0.1,7,4.3
			c0,1.8-1.2,3.4-3.1,3.6l0,0c0.8,0.1,1.3,0.9,1.6,1.6l2.5,6.2h-3.3l-1.8-4.9c-0.4-1.2-0.8-1.6-2.1-1.6h-1v6.5h-3
			C177.5,54.5,177.5,38.8,177.5,38.8z"/>
		<path class="st0" d="M196.9,47.5c-0.1-1.5-0.7-2.7-2.3-2.7c-1.6,0-2.4,1.2-2.5,2.7H196.9z M198.8,53.8c-1.1,0.6-2.2,0.9-3.8,0.9
			c-3.6,0-5.8-2.2-5.8-6c0-3.4,1.7-6.1,5.1-6.1c4.1,0,5.2,2.9,5.2,7h-7.6c0.1,1.9,1.4,2.9,3.1,2.9c1.4,0,2.6-0.5,3.7-1.2v2.5H198.8z
			"/>
		<path id="XMLID_45_" class="st0" d="M208,45.3c-0.9-0.3-1.5-0.5-2.6-0.5c-0.8,0-1.7,0.3-1.7,1.3c0,1.8,5,0.7,5,4.9
			c0,2.7-2.3,3.8-4.6,3.8c-1.1,0-2.2-0.2-3.3-0.5l0.2-2.5c0.9,0.5,1.8,0.8,2.8,0.8c0.7,0,1.9-0.3,1.9-1.4c0-2.3-5-0.7-5-4.9
			c0-2.5,2.1-3.6,4.3-3.6c1.3,0,2.2,0.2,3.1,0.4L208,45.3z"/>
		<path class="st0" d="M215.5,52.4c2.2,0,2.8-2.1,2.8-4c0-1.8-0.9-3.4-2.8-3.4s-2.8,1.7-2.8,3.4C212.7,50.3,213.3,52.4,215.5,52.4
			 M215.5,42.6c3.3,0,5.8,2.3,5.8,6.1c0,3.3-2.1,6-5.8,6c-3.6,0-5.8-2.7-5.8-6C209.7,44.9,212.2,42.6,215.5,42.6"/>
		<path id="XMLID_42_" class="st0" d="M233.1,54.5h-2.7v-1.6l0,0c-0.9,1.1-2.1,1.8-3.6,1.8c-2.6,0-3.7-1.9-3.7-4.5v-7.3h2.9v6.2
			c0,1.4,0,3.3,1.9,3.3c2.1,0,2.5-2.4,2.5-3.9v-5.7h2.9v11.7H233.1z"/>
		<path id="XMLID_41_" class="st0" d="M235.5,42.9h2.5v2.6l0,0c0.1-1.1,1.3-2.9,3-2.9c0.3,0,0.6,0,0.9,0.1v3
			c-0.3-0.2-0.8-0.2-1.3-0.2c-2.3,0-2.3,3.1-2.3,4.7v4.3h-2.9V42.9H235.5z"/>
		<path id="XMLID_40_" class="st0" d="M250.4,45.4c-0.5-0.2-1.1-0.4-1.9-0.4c-1.8,0-2.9,1.5-2.9,3.7c0,2.1,1,3.8,3,3.8
			c0.8,0,1.7-0.3,2.2-0.5l0.1,2.5c-0.8,0.3-1.7,0.4-2.9,0.4c-3.6,0-5.4-2.6-5.4-6.1c0-3.4,1.9-6,5.3-6c1.2,0,2,0.1,2.8,0.4
			L250.4,45.4z"/>
		<path class="st0" d="M259.1,47.5c-0.1-1.5-0.7-2.7-2.3-2.7s-2.4,1.2-2.5,2.7H259.1z M261,53.8c-1,0.6-2.2,0.9-3.8,0.9
			c-3.6,0-5.8-2.2-5.8-6c0-3.4,1.7-6.1,5.1-6.1c4.1,0,5.2,2.9,5.2,7h-7.6c0.1,1.9,1.4,2.9,3.1,2.9c1.4,0,2.6-0.5,3.7-1.2v2.5H261z"
			/>
		<path id="XMLID_37_" class="st0" d="M270.2,45.3c-0.9-0.3-1.5-0.5-2.6-0.5c-0.8,0-1.7,0.3-1.7,1.3c0,1.8,5,0.7,5,4.9
			c0,2.7-2.3,3.8-4.6,3.8c-1.1,0-2.2-0.2-3.2-0.5l0.2-2.5c0.9,0.5,1.8,0.8,2.8,0.8c0.7,0,1.9-0.3,1.9-1.4c0-2.3-5-0.7-5-4.9
			c0-2.5,2.1-3.6,4.3-3.6c1.3,0,2.2,0.2,3.1,0.4L270.2,45.3z"/>
		<path id="XMLID_36_" class="st1" d="M101,75.8c0.9,0.6,1.9,0.9,3.3,0.9c1.9,0,3.4-1,3.4-3.1c0-3-6.9-3.3-6.9-7.3
			c0-2.4,2.1-3.9,4.8-3.9c0.7,0,1.9,0.1,3,0.5l-0.2,1.4c-0.7-0.4-1.7-0.6-2.7-0.6c-1.6,0-3.3,0.7-3.3,2.6c0,3,6.9,3,6.9,7.5
			c0,3-2.6,4.3-5,4.3c-1.5,0-2.6-0.3-3.4-0.6L101,75.8z"/>
		<path class="st1" d="M116.7,64.1l-3.3,8.3h6.5L116.7,64.1z M116,62.6h1.7l6,15.1h-1.6l-1.6-4h-7.6l-1.6,4h-1.4L116,62.6z"/>
		<polygon id="XMLID_33_" class="st1" points="130.7,62.6 133,62.6 138.6,75.9 144.1,62.6 146.2,62.6 146.2,77.7 144.7,77.7 
			144.7,64.1 144.7,64.1 139.2,77.7 137.9,77.7 132.3,64.1 132.2,64.1 132.2,77.7 130.7,77.7 		"/>
		<path id="XMLID_32_" class="st1" d="M157.6,75.1c0,0.8,0,1.7,0.1,2.6h-1.3v-2l0,0c-0.5,1-1.3,2.2-3.6,2.2c-2.7,0-3.8-1.8-3.8-4.2
			v-7h1.4v6.7c0,2.1,0.7,3.4,2.6,3.4c2.5,0,3.3-2.2,3.3-4v-6.1h1.4v8.4H157.6z"/>
		<path id="XMLID_31_" class="st1" d="M160,69.2c0-1.2,0-1.7-0.1-2.5h1.4v2.1l0,0c0.5-1.2,1.4-2.4,2.8-2.4c0.3,0,0.7,0.1,1,0.1v1.4
			c-0.3-0.1-0.7-0.1-1-0.1c-2.2,0-2.7,2.4-2.7,4.4v5.4H160C160,77.6,160,69.2,160,69.2z"/>
		<path id="XMLID_30_" class="st1" d="M166.3,69.2c0-1.2,0-1.7-0.1-2.5h1.4v2.1l0,0c0.5-1.2,1.4-2.4,2.8-2.4c0.3,0,0.7,0.1,1,0.1
			v1.4c-0.3-0.1-0.7-0.1-1-0.1c-2.2,0-2.8,2.4-2.8,4.4v5.4h-1.4L166.3,69.2L166.3,69.2z"/>
		<path class="st1" d="M178.6,72.2h-0.4c-2.4,0-5.2,0.2-5.2,2.7c0,1.4,1,2,2.3,2c3.2,0,3.3-2.8,3.3-4
			C178.6,72.9,178.6,72.2,178.6,72.2z M178.7,76L178.7,76c-0.7,1.3-2.2,2-3.5,2c-3.1,0-3.6-2.1-3.6-3.1c0-3.7,3.9-3.9,6.8-3.9h0.3
			v-0.6c0-1.9-0.7-2.8-2.5-2.8c-1.1,0-2.2,0.3-3.2,0.9v-1.3c0.8-0.4,2.3-0.8,3.2-0.8c2.7,0,3.9,1.2,3.9,4.1v4.9c0,0.9,0,1.6,0.1,2.3
			h-1.5V76z"/>
		<path id="XMLID_27_" class="st1" d="M185.4,79.4c-0.5,1.5-1.3,3-2.8,3c-0.5,0-1-0.1-1.5-0.2l0.1-1.2c0.3,0.1,0.5,0.2,1,0.2
			c1.2,0,1.5-1,2-2.4l0.3-1l-3.9-11.2h1.5l3.1,9.2l0,0l0,0l3.2-9.2h1.4L185.4,79.4z"/>
		<rect id="XMLID_26_" x="190.1" y="71.2" class="st1" width="5.4" height="1.5"/>
		<path class="st1" d="M199.4,76.4h1.3c4.3,0,7.1-1.7,7.1-6.4c0-4.6-2.7-6.1-6.1-6.1h-2.2v12.5H199.4z M198,62.6h3.7
			c5.4,0,7.5,3.1,7.5,7.5c0,5.5-3.7,7.6-8.6,7.6H198V62.6z"/>
		<path class="st1" d="M217.4,72.2H217c-2.4,0-5.2,0.2-5.2,2.7c0,1.4,1,2,2.3,2c3.2,0,3.3-2.8,3.3-4
			C217.4,72.9,217.4,72.2,217.4,72.2z M217.5,76L217.5,76c-0.7,1.3-2.2,2-3.6,2c-3.1,0-3.6-2.1-3.6-3.1c0-3.7,3.9-3.9,6.8-3.9h0.3
			v-0.6c0-1.9-0.7-2.8-2.5-2.8c-1.1,0-2.2,0.3-3.2,0.9v-1.3c0.8-0.4,2.3-0.8,3.2-0.8c2.7,0,3.9,1.2,3.9,4.1v4.9c0,0.9,0,1.6,0.1,2.3
			h-1.3V76H217.5z"/>
		<path id="XMLID_21_" class="st1" d="M221,69.2c0-1.2,0-1.7-0.1-2.5h1.4v2.1l0,0c0.5-1.2,1.4-2.4,2.8-2.4c0.3,0,0.7,0.1,1,0.1v1.4
			c-0.3-0.1-0.6-0.1-1-0.1c-2.2,0-2.7,2.4-2.7,4.4v5.4H221C221,77.6,221,69.2,221,69.2z"/>
		<rect id="XMLID_20_" x="227.3" y="61.5" class="st1" width="1.4" height="16.2"/>
		<path class="st1" d="M231.1,66.7h1.4v11h-1.4V66.7z M232.4,63.8H231V62h1.4V63.8z"/>
		<path id="XMLID_17_" class="st1" d="M234.8,69.3c0-0.8,0-1.7-0.1-2.6h1.3v2l0,0c0.5-1,1.3-2.2,3.6-2.2c2.7,0,3.8,1.8,3.8,4.2v7
			H242V71c0-2.1-0.7-3.4-2.6-3.4c-2.5,0-3.3,2.2-3.3,4v6.1h-1.4L234.8,69.3L234.8,69.3z"/>
		<path class="st1" d="M249.9,76.6c2.5,0,3.3-2.3,3.3-4.3c0-2.7-0.8-4.6-3.3-4.6c-2.6,0-3.3,2.5-3.3,4.6
			C246.7,74.4,247.6,76.6,249.9,76.6 M254.6,76.8c0,3.1-1.4,5.6-5.2,5.6c-1.4,0-2.8-0.4-3.3-0.6l0.1-1.4c0.8,0.4,2.1,0.8,3.2,0.8
			c3.5,0,3.8-2.6,3.8-5.7l0,0c-0.7,1.6-1.9,2.2-3.3,2.2c-3.5,0-4.7-3.1-4.7-5.5c0-3.4,1.3-5.8,4.5-5.8c1.5,0,2.4,0.2,3.4,1.5l0,0
			v-1.3h1.4v10.2H254.6z"/>
		<path class="st1" d="M264.4,69.2h1.7c1.6,0,3.7-0.4,3.7-2.8c0-2.2-2-2.5-3.3-2.5h-2.1L264.4,69.2L264.4,69.2z M264.3,76.4h1.6
			c2,0,4.3-0.5,4.3-2.9c0-2.7-2.3-3-4.5-3h-1.3v5.9H264.3z M262.8,62.6h3.6c2.5,0,4.8,0.8,4.8,3.7c0,1.9-0.9,3.1-2.7,3.4l0,0
			c1.9,0.3,3.2,1.6,3.2,3.6c0,3.3-2.7,4.3-5.8,4.3h-3v-15H262.8z"/>
		<path class="st1" d="M280.1,72.2h-0.4c-2.4,0-5.2,0.2-5.2,2.7c0,1.4,1,2,2.3,2c3.2,0,3.3-2.8,3.3-4L280.1,72.2L280.1,72.2z
			 M280.3,76L280.3,76c-0.6,1.3-2.2,2-3.5,2c-3.1,0-3.6-2.1-3.6-3.1c0-3.7,3.9-3.9,6.8-3.9h0.3v-0.6c0-1.9-0.7-2.8-2.5-2.8
			c-1.1,0-2.2,0.3-3.2,0.9v-1.3c0.8-0.4,2.3-0.8,3.2-0.8c2.7,0,3.9,1.2,3.9,4.1v4.9c0,0.9,0,1.6,0.1,2.3h-1.3V76H280.3z"/>
		<path id="XMLID_9_" class="st1" d="M283,76.1c0.8,0.4,1.8,0.7,2.9,0.7c1.3,0,2.4-0.7,2.4-2c0-2.6-5.3-2.2-5.3-5.4
			c0-2.2,1.8-3,3.6-3c0.6,0,1.8,0.1,2.7,0.5l-0.1,1.2c-0.7-0.3-1.7-0.5-2.4-0.5c-1.4,0-2.4,0.4-2.4,1.8c0,2.1,5.4,1.8,5.4,5.4
			c0,2.3-2.2,3.1-3.8,3.1c-1.1,0-2.1-0.1-3.1-0.5L283,76.1z"/>
		<path class="st1" d="M291.2,66.7h1.4v11h-1.4V66.7z M292.6,63.8h-1.4V62h1.4V63.8z"/>
		<path id="XMLID_6_" class="st1" d="M295,69.3c0-0.8,0-1.7-0.1-2.6h1.3v2l0,0c0.5-1,1.3-2.2,3.6-2.2c2.7,0,3.8,1.8,3.8,4.2v7h-1.4
			V71c0-2.1-0.7-3.4-2.6-3.4c-2.5,0-3.3,2.2-3.3,4v6.1h-1.4L295,69.3L295,69.3z"/>
	</g>
	<g>
		<path class="st0" d="M50,68.5c-4,0.6-7.2,2.4-10.7,0.6c-3.1-1.5-2-3.9-1.2-5.4c1.9,1.5,3.6,2.4,6,3.3C48.4,68.7,50,68.5,50,68.5
			 M69.1,57.9c0-2,0.3-4.1,1.2-6c0.4-0.8,0.8-1.6,1.3-2.3c0.2,0.1,5.8,2.3,10.4,5.4c1.7,1.2,2.3,2.1,2,2.8c0.3,0.7-0.3,1.8-2,2.9
			c-4.6,3.1-10.1,5.3-10.4,5.4c-0.5-0.7-0.9-1.5-1.3-2.3C69.4,61.9,69,59.9,69.1,57.9 M24,57.7c0-4,0.9-7,1.2-7.9
			c1.2-4.2,7.4,6.9,11.5,4.5c1.4-0.8,6.1-6.3,19.4-6.5c0.7,0,1.3,0,1.9,0c-2.4,3.9-3.5,8.6-2.9,13.4c0.3,2.5,1.1,4.8,2.3,6.8
			c-0.5,0-0.9,0-1.4,0c-13.3-0.2-18-5.7-19.4-6.5C32.4,59,26.3,70.1,25.1,66C24.9,65,24,61.7,24,57.7 M59.6,47.8
			c8.5,0.1,10.9,1.5,10.9,1.5c-0.8,1.2-1.4,2.6-1.8,4.1c-0.4,1.5-0.6,3-0.6,4.5s0.1,3,0.6,4.5c0.4,1.5,1,2.9,1.8,4.1v0.2
			c-0.8,1.4-1.4,3.4-2.5,3.5c-1.1,0.2-5.9-0.6-4.1-2c0.2-0.2,0.5-0.3,0.7-0.5c-1.5,0.1-3.3,0.2-5.6,0.3c-1.2-2-2-4.2-2.4-6.7
			C55.8,56.5,57.1,51.7,59.6,47.8 M49.9,47.4c0,0-1.6-0.1-6,1.4c-2.4,0.9-4.1,1.8-6,3.3c-0.8-1.4-1.9-3.8,1.2-5.4
			C42.7,45,45.8,46.8,49.9,47.4"/>
	</g>
</g>
</svg>
