<svg xmlns="http://www.w3.org/2000/svg" xmlns:xlink="http://www.w3.org/1999/xlink" width="27" height="27" viewBox="0 0 27 27">
  <defs>
    <style>
      .a {
        fill: none;
      }

      .b {
        clip-path: url(#a);
      }

      .c {
        fill: #fff;
        opacity: 0.8;
      }
    </style>
    <clipPath id="a">
      <rect class="a" width="27" height="27"/>
    </clipPath>
  </defs>
  <title>samdb-twitter</title>
  <g class="b">
    <path class="c" d="M20.3,10.78c0,0.15,0,.29,0,0.44a9.68,9.68,0,0,1-14.9,8.15,7,7,0,0,0,.81,0A6.82,6.82,0,0,0,10.45,18,3.4,3.4,0,0,1,7.27,15.6a3.38,3.38,0,0,0,1.54-.06,3.4,3.4,0,0,1-2.73-3.34s0,0,0,0a3.4,3.4,0,0,0,1.54.43A3.41,3.41,0,0,1,6.57,8a9.66,9.66,0,0,0,7,3.55,3.35,3.35,0,0,1-.09-0.77A3.4,3.4,0,0,1,19.38,8.5a6.84,6.84,0,0,0,2.16-.82A3.42,3.42,0,0,1,20,9.55,6.85,6.85,0,0,0,22,9a6.92,6.92,0,0,1-1.7,1.76M13.5,0A13.5,13.5,0,1,0,27,13.5,13.5,13.5,0,0,0,13.5,0"/>
  </g>
</svg>
