<?xml version="1.0" encoding="utf-8"?>
<!-- Generator: Adobe Illustrator 16.0.0, SVG Export Plug-In . SVG Version: 6.00 Build 0)  -->
<!DOCTYPE svg PUBLIC "-//W3C//DTD SVG 1.1//EN" "http://www.w3.org/Graphics/SVG/1.1/DTD/svg11.dtd">
<svg version="1.1" id="Layer_1" xmlns="http://www.w3.org/2000/svg" xmlns:xlink="http://www.w3.org/1999/xlink" x="0px" y="0px"
	 width="400px" height="43px" viewBox="150.5 34 400 43" enable-background="new 150.5 34 400 43" xml:space="preserve">
<rect x="150.5" y="34" fill="#0084C5" width="400" height="43"/>
<path fill="#FFFFFF" d="M518.146,62.421c0,0.646-0.524,1.168-1.168,1.168h-1.748c-0.646,0-1.166-0.522-1.166-1.168
	c0-0.338,0.146-0.639,0.373-0.853l3.319-0.012C517.994,61.77,518.146,62.076,518.146,62.421 M523.691,43.855
	c-0.16-0.459-0.666-0.703-1.125-0.539c-0.459,0.162-0.699,0.666-0.539,1.125l0.324,0.92l-0.098,0.076l2.188,6.217
	c0.082,0.238-0.016,0.498-0.224,0.625l0.075,0.257L506.3,60.298l-0.319-0.642c-0.078-0.061-0.145-0.141-0.179-0.241l-0.247-0.703
	l-0.201,0.157l-0.244-0.688c-0.15-0.434-0.625-0.66-1.055-0.508c-0.433,0.151-0.658,0.625-0.507,1.059l1.444,4.106
	c0.119,0.343,0.439,0.556,0.781,0.556c0.092,0,0.185-0.018,0.274-0.049c0.431-0.152,0.657-0.623,0.507-1.057l-0.244-0.691
	l6.485-0.022c-0.092,0.265-0.146,0.55-0.146,0.847c0,1.422,1.156,2.579,2.578,2.579h1.748c1.422,0,2.58-1.157,2.58-2.579
	c0-0.307-0.058-0.598-0.156-0.867l8.634-0.031l0.548,1.559c0.127,0.363,0.468,0.591,0.832,0.591c0.097,0,0.195-0.017,0.292-0.05
	c0.46-0.163,0.7-0.665,0.538-1.127L523.691,43.855z"/>
<polyline fill="#FFFFFF" points="506.803,59.068 522.539,49.434 521.378,46.136 506.432,58.014 506.8,59.062 506.803,59.068 "/>
<path fill="#FFFFFF" d="M536.07,52.255c-0.012-0.092-0.016-0.159-0.03-0.269l-0.031-0.227c-0.065-0.363-0.153-0.686-0.264-1.013
	c-0.449-1.306-1.358-2.438-2.499-3.153c-1.137-0.717-2.514-1.021-3.753-0.761c1.176,0.449,2.153,1.056,2.938,1.817
	s1.363,1.668,1.711,2.658c0.092,0.243,0.162,0.508,0.215,0.738l0.047,0.223c0.013,0.041,0.023,0.123,0.035,0.184
	c0.021,0.132,0.037,0.262,0.053,0.395c0.059,0.527,0.054,1.063-0.014,1.604c-0.131,1.086-0.523,2.174-1.158,3.259
	c1.131-0.575,2.012-1.67,2.449-2.941c0.224-0.639,0.33-1.319,0.326-2.004C536.098,52.596,536.085,52.424,536.07,52.255"/>
<path fill="#FFFFFF" d="M532.993,52.584l-0.019-0.131c-0.037-0.217-0.091-0.404-0.154-0.598c-0.264-0.771-0.801-1.44-1.473-1.86
	c-0.67-0.423-1.479-0.603-2.213-0.447c0.693,0.265,1.27,0.618,1.732,1.071c0.463,0.449,0.803,0.982,1.008,1.564
	c0.055,0.145,0.096,0.301,0.128,0.438l0.048,0.24l0.03,0.229c0.034,0.312,0.032,0.627-0.009,0.948
	c-0.077,0.641-0.309,1.279-0.682,1.92c0.664-0.34,1.185-0.986,1.443-1.736c0.13-0.373,0.193-0.775,0.189-1.181
	c0.002-0.101-0.004-0.2-0.014-0.301L532.993,52.584z"/>
</svg>
