<svg xmlns="http://www.w3.org/2000/svg" xmlns:xlink="http://www.w3.org/1999/xlink" width="27" height="27" viewBox="0 0 27 27">
  <defs>
    <style>
      .a {
        fill: none;
      }

      .b {
        clip-path: url(#a);
      }

      .c {
        fill: #fff;
        opacity: 0.8;
      }
    </style>
    <clipPath id="a">
      <rect class="a" width="27" height="27"/>
    </clipPath>
  </defs>
  <title>samdb-subscribe</title>
  <g class="b">
    <path class="c" d="M21.92,20.71L16.73,16l5.11-4.43,0.08-.06a0.55,0.55,0,0,1,0,.09v9.13ZM21.09,10.2a0.54,0.54,0,0,1-.2.41l-2.12,1.82V9.83A0.74,0.74,0,0,0,18,9.15H9.42a0.74,0.74,0,0,0-.78.67v2.61L6.52,10.61a0.53,0.53,0,0,1,0-.82L13.23,4a0.76,0.76,0,0,1,1,0L20.9,9.79a0.54,0.54,0,0,1,.2.41M5.58,11.53l5.32,4.59L5.49,20.58v-9a0.44,0.44,0,0,1,0-.09l0.08,0.06m4.93,0.69a0.48,0.48,0,1,1,0-.95h6.31a0.48,0.48,0,1,1,0,.95H10.51Zm5.91,1.86a0.44,0.44,0,0,1-.41.47H11.32a0.48,0.48,0,0,1,0-.95H16a0.45,0.45,0,0,1,.41.48m-9.83,7.4L12,17a4.67,4.67,0,0,0,1,.52,2.76,2.76,0,0,0,1.53,0,4.85,4.85,0,0,0,1.15-.65l5,4.58H6.59ZM27,13.5A13.5,13.5,0,1,0,13.5,27,13.5,13.5,0,0,0,27,13.5"/>
  </g>
</svg>
