<?xml version="1.0" encoding="utf-8"?>
<!-- Generator: Adobe Illustrator 16.0.0, SVG Export Plug-In . SVG Version: 6.00 Build 0)  -->
<!DOCTYPE svg PUBLIC "-//W3C//DTD SVG 1.1//EN" "http://www.w3.org/Graphics/SVG/1.1/DTD/svg11.dtd">
<svg version="1.1" id="Layer_1" xmlns="http://www.w3.org/2000/svg" xmlns:xlink="http://www.w3.org/1999/xlink" x="0px" y="0px"
	 width="80px" height="72px" viewBox="-265.5 431 80 72" enable-background="new -265.5 431 80 72" xml:space="preserve">
<path opacity="0.48" fill="#0081C6" d="M-225.109,476.729c8.275,4.242,5.958,10.063,5.958,10.063s-21.31-3.917-28.733-7.724
	c-3.681-1.889-1.567-3.94,4.723-4.588C-236.872,473.835-228.79,474.841-225.109,476.729"/>
<path fill="#0081C6" d="M-219.127,465.898c-5.055,0-9.15-4.097-9.15-9.15c0-5.055,4.097-9.152,9.15-9.152
	c5.055,0,9.15,4.098,9.15,9.152C-209.977,461.802-214.073,465.898-219.127,465.898 M-219.127,444.208
	c-6.527,0-11.82,5.292-11.82,11.819c0,13.166,11.82,30.765,11.82,30.765s11.82-16.088,11.82-30.765
	C-207.307,449.5-212.6,444.208-219.127,444.208"/>
<path fill="#0081C6" d="M-218.561,457.753c-1.246,1.245-3.272,1.245-4.52,0c-1.245-1.246-1.245-3.272,0-4.519
	c1.246-1.246,3.273-1.246,4.52,0S-217.314,456.507-218.561,457.753 M-217.501,452.175c-1.83-1.83-4.808-1.83-6.638,0
	c-1.828,1.83-1.828,4.808,0,6.638c1.664,1.662,4.272,1.813,6.109,0.453l1.438,1.438l0.982-0.981l-1.438-1.438
	C-215.688,456.448-215.838,453.838-217.501,452.175"/>
<rect x="-215.302" y="460.567" transform="matrix(0.7071 -0.7071 0.7071 0.7071 -389.3311 -16.5204)" fill="#0081C6" width="1.389" height="2.275"/>
</svg>
