<?xml version="1.0" encoding="utf-8"?>
<!-- Generator: Adobe Illustrator 15.1.0, SVG Export Plug-In . SVG Version: 6.00 Build 0)  -->
<!DOCTYPE svg PUBLIC "-//W3C//DTD SVG 1.1//EN" "http://www.w3.org/Graphics/SVG/1.1/DTD/svg11.dtd">
<svg version="1.1" id="Layer_1" xmlns="http://www.w3.org/2000/svg" xmlns:xlink="http://www.w3.org/1999/xlink" x="0px" y="0px"
	 width="412.583px" height="207px" viewBox="0 0 412.583 207" enable-background="new 0 0 412.583 207" xml:space="preserve">
<defs>
	<filter id="Adobe_OpacityMaskFilter" filterUnits="userSpaceOnUse" x="-177.417" y="-97.312" width="594.333" height="304.312">
		<feColorMatrix  type="matrix" values="1 0 0 0 0  0 1 0 0 0  0 0 1 0 0  0 0 0 1 0"/>
	</filter>
</defs>
<mask maskUnits="userSpaceOnUse" x="-177.417" y="-97.312" width="594.333" height="304.312" id="SVGID_1_">
	<g filter="url(#Adobe_OpacityMaskFilter)">
		
			<linearGradient id="SVGID_2_" gradientUnits="userSpaceOnUse" x1="-213.6128" y1="170.3975" x2="-212.6133" y2="170.3975" gradientTransform="matrix(241.0369 397.9993 -397.9993 241.0369 119374.7891 43833.0312)">
			<stop  offset="0" style="stop-color:#FFFFFF"/>
			<stop  offset="1" style="stop-color:#000000"/>
		</linearGradient>
		<polygon fill="url(#SVGID_2_)" points="306.036,-191.792 524.606,169.111 106.548,422.297 -112.023,61.393 		"/>
	</g>
</mask>
<g opacity="0.31" mask="url(#SVGID_1_)">
	<defs>
		<rect id="SVGID_3_" y="-1" opacity="0.31" width="412.583" height="208"/>
	</defs>
	<clipPath id="SVGID_4_">
		<use xlink:href="#SVGID_3_"  overflow="visible"/>
	</clipPath>
	<g clip-path="url(#SVGID_4_)">
		<path fill="#0081C6" d="M112.955,143.697c-37.728,16.221-64.001,41.33-102.735,33.646c-34.35-6.798-29.987-33.109-25.83-48.982
			c21.943,10.185,40.767,14.504,66.73,16.693C97.589,148.967,112.955,143.697,112.955,143.697 M270.79-8.646
			c-5.541-19.608-7.26-40.411-3.633-61.865c1.629-9.224,3.868-17.711,6.622-25.541c2.634,0.246,61.896,7.685,114.528,25.995
			c19.771,6.843,27.445,14.984,26.537,22.653c4.568,6.228,1.986,17.738-11.795,33.34c-36.784,41.886-84.859,77.509-86.957,79.197
			c-6.269-5.55-12.381-11.925-18.243-19.062C284.133,29.203,275.647,11.25,270.79-8.646 M-168.547,105.459
			c-10.292-39.092-8.907-70.678-8.687-80.039c0.864-43.672,89.425,48.445,123.564,13.922
			c11.646-11.774,43.248-76.655,172.04-113.125c6.574-1.941,12.871-3.599,18.903-5.187c-13.356,43.973-12.186,92.586,6.48,137.445
			c9.723,23.374,23.397,43.674,39.83,60.333c-4.387,1.154-8.962,2.217-13.621,3.369C39.905,153.844-19.66,112.979-35.557,108.422
			c-46.664-13.176-78.456,110.46-100.639,72.977C-141.012,173.35-158.274,144.482-168.547,105.459 M152.296-82.795
			c83.143-20.363,109.404-13.35,109.404-13.35c-4.923,13.81-7.087,28.625-7.441,44.559c-0.326,15.582,1.771,30.478,5.844,44.922
			c3.553,14.52,9.206,29.216,17.128,42.613c7.994,13.675,17.322,25.532,28.425,35.008l0.246,1.943
			c-3.828,15.807-5.005,36.25-14.77,40.762c-10.598,4.792-58.576,8.932-45.01-9.075c1.858-2.389,3.575-4.552,5.141-6.464
			c-14.223,5.245-31.932,10.962-53.718,17.009c-16.457-16.436-30.503-35.839-40.253-58.775
			C138.308,11.292,138.062-37.969,152.296-82.795 M56.905-61.954c0,0-15.865,2.913-54.457,29.177
			C-19.09-18.006-33.281-4.987-47.385,14.681c-11.494-11.712-28.216-32.473-1.639-55.426
			C-19.151-66.465,16.102-57.465,56.905-61.954"/>
	</g>
</g>
</svg>
