<svg xmlns="http://www.w3.org/2000/svg" xmlns:xlink="http://www.w3.org/1999/xlink" width="27" height="27" viewBox="0 0 27 27">
  <defs>
    <style>
      .a {
        fill: none;
      }

      .b {
        clip-path: url(#a);
      }

      .c {
        fill: #fff;
        opacity: 0.8;
      }
    </style>
    <clipPath id="a">
      <rect class="a" width="27" height="27"/>
    </clipPath>
  </defs>
  <title>samdb-youtube</title>
  <g class="b">
    <path class="c" d="M14.06,9.54V7.18c0-.52-0.16-0.78-0.48-0.78s-0.48.26-.48,0.78V9.54c0,0.52.16,0.78,0.48,0.78s0.48-.26.48-0.78M8.72,14.76H9.92V13.71H6.41v1.05H7.6v6.41H8.72V14.76ZM12,21.17h1V15.61H12v4.25a0.88,0.88,0,0,1-.64.47,0.23,0.23,0,0,1-.24-0.24,3.18,3.18,0,0,1,0-.39V15.61h-1V20a2.83,2.83,0,0,0,.09.83,0.62,0.62,0,0,0,.65.41A1.61,1.61,0,0,0,12,20.56v0.61Zm3.82-1.59c0,0.5-.15.75-0.44,0.75a0.72,0.72,0,0,1-.5-0.25V16.69a0.72,0.72,0,0,1,.5-0.25c0.29,0,.44.26,0.44,0.76v2.37Zm0.91,1a4.47,4.47,0,0,0,.1-1.12V17.28a4.28,4.28,0,0,0-.1-1.12,0.8,0.8,0,0,0-.81-0.63,1.36,1.36,0,0,0-1,.6V13.71h-1v7.46h1V20.63a1.37,1.37,0,0,0,1,.61,0.8,0.8,0,0,0,.81-0.63m1.89-2.88V17.22c0-.51.17-0.77,0.5-0.77s0.5,0.26.5,0.77v0.51h-1Zm2,2.3c0-.1,0-0.32,0-0.65V19.24h-1a6.45,6.45,0,0,1,0,.68,0.43,0.43,0,0,1-.45.4c-0.35,0-.51-0.26-0.51-0.77v-1h2V17.42a2.19,2.19,0,0,0-.31-1.31,1.4,1.4,0,0,0-1.19-.57,1.43,1.43,0,0,0-1.21.57,2.17,2.17,0,0,0-.31,1.31v1.94a2.15,2.15,0,0,0,.32,1.31,1.44,1.44,0,0,0,1.22.57,1.39,1.39,0,0,0,1.22-.6,1.42,1.42,0,0,0,.24-0.6m1.26-2.47a17.86,17.86,0,0,1-.29,3.94,2.1,2.1,0,0,1-1.8,1.64,52.72,52.72,0,0,1-5.86.23H13.12a53,53,0,0,1-5.86-.23,2.1,2.1,0,0,1-1.8-1.64,17.87,17.87,0,0,1-.29-3.94,17.85,17.85,0,0,1,.29-3.94A2.1,2.1,0,0,1,7.27,12a52.72,52.72,0,0,1,5.86-.23h0.76a52.71,52.71,0,0,1,5.86.23,2.1,2.1,0,0,1,1.8,1.64,17.84,17.84,0,0,1,.29,3.94m-3-6.39h-1V10.56a1.63,1.63,0,0,1-1.16.69A0.62,0.62,0,0,1,16,10.83,2.84,2.84,0,0,1,15.91,10V5.55h1V9.69a2.25,2.25,0,0,0,0,.4,0.23,0.23,0,0,0,.24.24,0.89,0.89,0,0,0,.64-0.48V5.55h1v5.61h0ZM15.08,9.35a2.21,2.21,0,0,1-.32,1.32,1.51,1.51,0,0,1-2.37,0,2.18,2.18,0,0,1-.32-1.32v-2a2.18,2.18,0,0,1,.32-1.32,1.51,1.51,0,0,1,2.37,0,2.21,2.21,0,0,1,.32,1.32v2Zm-3-5.72L10.7,8.12v3.05H9.58V8.12a18.53,18.53,0,0,0-.69-2.38L8.16,3.63H9.35l0.8,3,0.77-3h1.14ZM27,13.5A13.5,13.5,0,1,0,13.5,27,13.5,13.5,0,0,0,27,13.5"/>
  </g>
</svg>
