<?xml version="1.0" encoding="utf-8"?>
<!-- Generator: Adobe Illustrator 16.0.0, SVG Export Plug-In . SVG Version: 6.00 Build 0)  -->
<!DOCTYPE svg PUBLIC "-//W3C//DTD SVG 1.1//EN" "http://www.w3.org/Graphics/SVG/1.1/DTD/svg11.dtd">
<svg version="1.1" id="Layer_1" xmlns="http://www.w3.org/2000/svg" xmlns:xlink="http://www.w3.org/1999/xlink" x="0px" y="0px"
	 width="80px" height="72px" viewBox="0 0 80 72" enable-background="new 0 0 80 72" xml:space="preserve">
<path fill="#008589" d="M59.473,45.329"/>
<path fill="#0081C1" d="M57.146,21.5H47.5v4c0,0.829-0.672,1.5-1.5,1.5s-1.5-0.671-1.5-1.5v-4h-11v4c0,0.829-0.671,1.5-1.5,1.5
	s-1.5-0.671-1.5-1.5v-4h-8.647c-1.297,0-2.353,1.055-2.353,2.353v28.295c0,1.297,1.055,2.353,2.353,2.353h35.295
	c1.297,0,2.353-1.056,2.353-2.353V23.853C59.5,22.555,58.443,21.5,57.146,21.5z M57.5,52.146c0,0.194-0.158,0.354-0.354,0.354
	H21.853c-0.194,0-0.353-0.158-0.353-0.354V28.5h36V52.146z"/>
<circle fill="#0081C1" cx="25.474" cy="33.264" r="1.402"/>
<circle fill="#0081C1" cx="25.474" cy="40.921" r="1.402"/>
<circle fill="#0081C1" cx="25.474" cy="48.58" r="1.402"/>
<circle fill="#0081C1" cx="32.728" cy="33.264" r="1.402"/>
<circle fill="#0081C1" cx="32.728" cy="40.921" r="1.402"/>
<circle fill="#0081C1" cx="32.728" cy="48.58" r="1.402"/>
<circle fill="#0081C1" cx="39.499" cy="33.264" r="1.402"/>
<circle fill="#0081C1" cx="39.499" cy="40.921" r="1.402"/>
<circle fill="#0081C1" cx="39.499" cy="48.58" r="1.402"/>
<circle fill="#0081C1" cx="46.27" cy="33.264" r="1.401"/>
<path fill="#0081C1" d="M46.27,44.229c-1.824,0-3.309-1.482-3.309-3.308s1.484-3.308,3.309-3.308c1.823,0,3.308,1.482,3.308,3.308
	S48.093,44.229,46.27,44.229z M46.27,38.684c-1.233,0-2.237,1.004-2.237,2.237s1.004,2.237,2.237,2.237s2.236-1.004,2.236-2.237
	S47.503,38.684,46.27,38.684z"/>
<circle fill="#0081C1" cx="46.27" cy="40.921" r="1.401"/>
<circle fill="#0081C1" cx="46.27" cy="48.58" r="1.4"/>
<circle fill="#0081C1" cx="53.521" cy="33.264" r="1.401"/>
<circle fill="#0081C1" cx="53.521" cy="40.921" r="1.401"/>
<circle fill="#0081C1" cx="53.521" cy="48.58" r="1.4"/>
</svg>
