<?xml version="1.0" encoding="utf-8"?>
<!-- Generator: Adobe Illustrator 16.0.0, SVG Export Plug-In . SVG Version: 6.00 Build 0)  -->
<!DOCTYPE svg PUBLIC "-//W3C//DTD SVG 1.1//EN" "http://www.w3.org/Graphics/SVG/1.1/DTD/svg11.dtd">
<svg version="1.1" id="Layer_1" xmlns="http://www.w3.org/2000/svg" xmlns:xlink="http://www.w3.org/1999/xlink" x="0px" y="0px"
	 width="80px" height="72px" viewBox="-265.5 432.5 80 72" enable-background="new -265.5 432.5 80 72" xml:space="preserve">
<g>
	<path fill="#0084C5" d="M-228.067,475.117c-0.048-1.217,0.054-2.265,0.122-2.793c-0.771,0.368-2.004,0.838-3.295,0.838
		c-1.041,0-1.909-0.303-2.584-0.904c-1.057,4.52-1.68,10.712,1.02,15.352c1.111-0.937,2.13-2.222,3.105-3.918l0.262-0.446
		c0.638-1.085,1.511-2.567,1.598-3.707c0.072-0.928-0.018-1.889-0.106-2.817C-227.994,476.194-228.046,475.649-228.067,475.117z"/>
	<path fill="#0084C5" d="M-231.134,463.22c0.957,0,2.145,0.376,3.061,0.776c-1.007-1.904-0.898-3.715-0.795-5.47
		c0.03-0.496,0.061-1.009,0.065-1.518c0.009-0.862-0.574-1.56-1.191-2.3c-0.198-0.237-0.398-0.478-0.582-0.726
		c-0.068-0.092-0.167-0.245-0.288-0.431c-0.352-0.544-1.166-1.803-1.591-1.85c-0.194,0.231-0.628,1.563-0.818,2.144
		c-0.103,0.317-0.187,0.573-0.23,0.681c-0.149,0.36-0.305,0.721-0.462,1.081c-0.294,0.677-0.6,1.381-0.844,2.083
		c-0.742,2.15-1.099,5.234,0.035,7.634C-234.042,464-232.708,463.22-231.134,463.22z"/>
	<path fill="#0084C5" d="M-211.428,473.241c-1.012,0-2.092-0.29-3.02-0.804c0.22,1.826,0.24,3.357,0.063,4.917
		c-0.031,0.276-0.082,0.557-0.133,0.843c-0.109,0.6-0.223,1.223-0.129,1.772c0.119,0.716,0.502,1.514,0.841,2.217
		c0.068,0.144,0.134,0.282,0.196,0.415c1.057,2.267,2.244,3.964,3.626,5.18c2.794-4.627,2.296-10.86,1.335-15.405
		C-209.435,472.943-210.391,473.241-211.428,473.241z"/>
	<path fill="#0084C5" d="M-207.414,458.192c-0.208-0.733-0.511-1.45-0.805-2.143l-0.134-0.319c-0.161-0.382-0.305-0.819-0.459-1.284
		c-0.281-0.849-0.571-1.726-0.977-2.324c-0.167-0.247-0.316-0.465-0.374-0.49c-0.034,0.022-0.194,0.22-0.35,0.41
		c-0.088,0.107-0.192,0.237-0.315,0.381c-0.843,0.999-1.75,2.208-2.367,3.158l-0.116,0.166c-0.137,0.192-0.17,0.237-0.118,0.804
		c0.035,0.364,0.111,0.743,0.194,1.146c0.088,0.432,0.179,0.879,0.211,1.306c0.121,1.61,0.009,2.927-0.339,4.022
		c-0.051,0.158-0.108,0.315-0.168,0.47c0.666-0.198,1.346-0.304,1.991-0.304c1.705,0,3.06,0.707,3.857,1.997
		C-206.796,463.323-206.692,460.74-207.414,458.192z"/>
	<path fill="#0084C5" d="M-228.113,465.202c-0.963-0.557-2.042-0.877-2.959-0.877c-1.417,0-2.437,0.822-2.871,2.318
		c-0.291,1.008-0.23,2.457,0.142,3.447c0.487,1.271,1.394,1.918,2.696,1.918c1.016,0,2.246-0.458,3.292-1.222l0.058-0.045
		c0.069-0.433,0.139-0.867,0.215-1.299c0.037-0.198,0.082-0.405,0.127-0.618C-227.126,467.487-226.801,465.973-228.113,465.202z"/>
	<path fill="#0084C5" d="M-215.168,468.707c0.04,0.456,0.247,1.766,0.718,2.235c1.023,1.024,2.293,1.162,3.4,1.162
		c1.339,0,2.31-0.688,2.808-1.983c0.132-0.345,0.216-0.771,0.259-1.302c0.009-0.11,0.025-0.657,0.025-0.751
		c-0.011-0.585-0.073-1.054-0.192-1.431c-0.486-1.534-1.599-2.346-3.21-2.346c-0.863,0-2.094,0.147-3.064,0.847
		c-0.916,0.66-0.815,2.382-0.76,3.305L-215.168,468.707z"/>
	<path fill="#0084C5" d="M-221.308,474.604L-221.308,474.604c-2.31,0-4.257-1.25-5.235-3.31c-0.533,4.44-0.264,7.899,0.876,11.452
		c0.036,0.112,0.086,0.271,0.148,0.475c2.32,7.516,3.675,9.094,4.402,9.094v0.185l0,0.001l0.013-0.186
		c0.544-0.017,1.804-1.231,4.13-9.188c0.058-0.196,0.102-0.346,0.13-0.437c1.276-4.148,1.614-7.753,1.072-11.59
		C-216.788,473.25-218.894,474.604-221.308,474.604z"/>
	<path fill="#0084C5" d="M-226.381,464.655c1.028-1.441,3.009-2.324,5.242-2.324c2.338,0,4.366,0.949,5.366,2.493
		c4.285-4.923,0.021-11.785-3.413-17.312c-0.667-1.072-1.302-2.092-1.813-3.013c-0.592,1.101-1.312,2.267-2.069,3.496
		c-2.815,4.563-6.004,9.736-4.506,14.472C-227.334,463.228-226.914,463.996-226.381,464.655z"/>
	<path fill="#0084C5" d="M-218.977,463.782c-0.464-0.17-1.046-0.267-1.772-0.297l-0.204-0.003c-0.243,0-0.603,0.004-0.713,0.009
		c-0.642,0.034-1.192,0.133-1.635,0.291c-1.292,0.469-2.132,1.26-2.496,2.353c-0.637,1.897-0.327,4.045,0.807,5.604
		c0.732,1.006,2.159,1.657,3.638,1.667l0.034,0.187v-0.187c1.446,0,2.982-0.63,3.733-1.528c1.326-1.586,1.757-3.847,1.102-5.765
		C-216.853,465.032-217.691,464.249-218.977,463.782z"/>
</g>
</svg>
