<?xml version="1.0" encoding="utf-8"?>
<!-- Generator: Adobe Illustrator 16.0.0, SVG Export Plug-In . SVG Version: 6.00 Build 0)  -->
<!DOCTYPE svg PUBLIC "-//W3C//DTD SVG 1.1//EN" "http://www.w3.org/Graphics/SVG/1.1/DTD/svg11.dtd">
<svg version="1.1" id="Layer_1" xmlns="http://www.w3.org/2000/svg" xmlns:xlink="http://www.w3.org/1999/xlink" x="0px" y="0px"
	 width="593px" height="242px" viewBox="0 0 593 242" enable-background="new 0 0 593 242" xml:space="preserve">
<g>
	<g>
		<g>
			
				<line fill="none" stroke="#73A950" stroke-width="2" stroke-linecap="round" stroke-linejoin="bevel" x1="203.373" y1="128.377" x2="203.373" y2="128.377"/>
			
				<path fill="none" stroke="#73A950" stroke-width="2" stroke-linecap="round" stroke-linejoin="bevel" stroke-dasharray="0,3.9232" d="
				M200.105,130.541c-6.963,4.531-19.213,11.953-20.908,8.812c-2.312-4.275-0.838-32.049,6.8-26.314
				c5.432,4.133,11.557,8.09,14.584,10.013c10.789-1.229,21.832-4.082,26.516-5.677c5.532-1.903,3.088-18.529,1.269-24.675
				c-0.682-2.221-8.439-9.115-17.792-17.899"/>
			
				<line fill="none" stroke="#73A950" stroke-width="2" stroke-linecap="round" stroke-linejoin="bevel" x1="209.141" y1="73.452" x2="209.141" y2="73.452"/>
			
				<path fill="none" stroke="#73A950" stroke-width="2" stroke-linecap="round" stroke-linejoin="bevel" stroke-dasharray="0,3.8732" d="
				M211.792,70.634c13.31-13.66,49.206-43.708,95.092-27.757c47.647,16.594,66.201,60.081,71.068,74.199"/>
			
				<line fill="none" stroke="#73A950" stroke-width="2" stroke-linecap="round" stroke-linejoin="bevel" x1="378.564" y1="118.91" x2="378.564" y2="118.91"/>
			
				<line fill="none" stroke="#73A950" stroke-width="2" stroke-linecap="round" stroke-linejoin="bevel" x1="376.587" y1="121.254" x2="376.587" y2="121.254"/>
			
				<path fill="none" stroke="#73A950" stroke-width="2" stroke-linecap="round" stroke-linejoin="bevel" stroke-dasharray="0,3.9129" d="
				M372.733,120.587c-19.409-3.085-40.866-2.354-62.075,6.349c-3.773,1.605-7.374,3.232-10.839,4.963
				c-7.965,0.264-16.999-0.062-26.396-1.588c-19.028-3.028-26.8-15.894-30.003-25.077"/>
			
				<line fill="none" stroke="#73A950" stroke-width="2" stroke-linecap="round" stroke-linejoin="bevel" x1="242.816" y1="103.377" x2="242.816" y2="103.377"/>
			
				<path fill="none" stroke="#73A950" stroke-width="2" stroke-linecap="round" stroke-linejoin="bevel" stroke-dasharray="0,3.8318" d="
				M243.323,107.176c0.95,8.771,0.505,19.611-6.932,21.265c-9.015,2.052-22.117,1.185-31.117,0.161"/>
			
				<line fill="none" stroke="#73A950" stroke-width="2" stroke-linecap="round" stroke-linejoin="bevel" x1="203.373" y1="128.377" x2="203.373" y2="128.377"/>
		</g>
		<g>
			
				<line fill="none" stroke="#73A950" stroke-width="2" stroke-linecap="round" stroke-linejoin="bevel" x1="203.464" y1="67.974" x2="203.464" y2="67.974"/>
			
				<path fill="none" stroke="#73A950" stroke-width="2" stroke-linecap="round" stroke-linejoin="bevel" stroke-dasharray="0,3.8309" d="
				M200.741,65.283c-13.859-13.854-27.122-29.734-24.214-39.831c4.707-16.679,25.627-13.619,32.019-12.264"/>
			
				<line fill="none" stroke="#73A950" stroke-width="2" stroke-linecap="round" stroke-linejoin="bevel" x1="210.407" y1="13.629" x2="210.407" y2="13.629"/>
			
				<path fill="none" stroke="#73A950" stroke-width="2" stroke-linecap="round" stroke-linejoin="bevel" stroke-dasharray="0,3.8896" d="
				M211.128,9.822c1.173-3.542,4.252-8.387,12.339-9.17c8.64-0.806,14.586,6.643,16.839,10.065"/>
			
				<line fill="none" stroke="#73A950" stroke-width="2" stroke-linecap="round" stroke-linejoin="bevel" x1="241.311" y1="12.38" x2="241.311" y2="12.38"/>
			
				<path fill="none" stroke="#73A950" stroke-width="2" stroke-linecap="round" stroke-linejoin="bevel" stroke-dasharray="0,3.9545" d="
				M245.265,12.323c12.429,0.706,17.512,10.018,28.158,16.758c1.104,0.667,2.344,1.319,3.721,1.928"/>
			
				<line fill="none" stroke="#73A950" stroke-width="2" stroke-linecap="round" stroke-linejoin="bevel" x1="278.977" y1="31.76" x2="278.977" y2="31.76"/>
			
				<path fill="none" stroke="#73A950" stroke-width="2" stroke-linecap="round" stroke-linejoin="bevel" stroke-dasharray="0,3.9142" d="
				M275.067,31.943c-34.973,2.308-58.521,21.942-70.285,34.589"/>
			
				<line fill="none" stroke="#73A950" stroke-width="2" stroke-linecap="round" stroke-linejoin="bevel" x1="203.464" y1="67.974" x2="203.464" y2="67.974"/>
		</g>
		<g>
			
				<line fill="none" stroke="#73A950" stroke-width="2" stroke-linecap="round" stroke-linejoin="bevel" x1="316.127" y1="38.212" x2="316.127" y2="38.212"/>
			
				<path fill="none" stroke="#73A950" stroke-width="2" stroke-linecap="round" stroke-linejoin="bevel" stroke-dasharray="0,3.8679" d="
				M315.436,34.407c-0.697-4.899-0.894-11.751,2.453-15.818c5.572-6.873,14.224-6.209,49.354,45.68
				c20.3,30.088,21.467,41.887,18.822,46.473"/>
			
				<line fill="none" stroke="#73A950" stroke-width="2" stroke-linecap="round" stroke-linejoin="bevel" x1="384.836" y1="112.221" x2="384.836" y2="112.221"/>
			
				<path fill="none" stroke="#73A950" stroke-width="2" stroke-linecap="round" stroke-linejoin="bevel" stroke-dasharray="0,3.9653" d="
				M383.09,108.666c-9.17-18.191-30.974-54.44-65.136-69.665"/>
			
				<line fill="none" stroke="#73A950" stroke-width="2" stroke-linecap="round" stroke-linejoin="bevel" x1="316.127" y1="38.212" x2="316.127" y2="38.212"/>
		</g>
		<g>
			
				<line fill="none" stroke="#73A950" stroke-width="2" stroke-linecap="round" stroke-linejoin="bevel" x1="371.066" y1="127.652" x2="371.066" y2="127.652"/>
			
				<path fill="none" stroke="#73A950" stroke-width="2" stroke-linecap="round" stroke-linejoin="bevel" stroke-dasharray="0,3.8314" d="
				M369.692,131.222c-7.785,15.813-36.519,29.319-43.933,32.594"/>
			
				<line fill="none" stroke="#73A950" stroke-width="2" stroke-linecap="round" stroke-linejoin="bevel" x1="324.004" y1="164.572" x2="324.004" y2="164.572"/>
			
				<path fill="none" stroke="#73A950" stroke-width="2" stroke-linecap="round" stroke-linejoin="bevel" stroke-dasharray="0,3.8893" d="
				M327.891,164.408c51.454-1.967,69.699,5.552,74.723,8.431"/>
			
				<line fill="none" stroke="#73A950" stroke-width="2" stroke-linecap="round" stroke-linejoin="bevel" x1="404.225" y1="173.918" x2="404.225" y2="173.918"/>
			
				<path fill="none" stroke="#73A950" stroke-width="2" stroke-linecap="round" stroke-linejoin="bevel" stroke-dasharray="0,3.8808" d="
				M403.222,177.672c-6.852,21.996-28.745,36.887-39.847,43.291"/>
			
				<line fill="none" stroke="#73A950" stroke-width="2" stroke-linecap="round" stroke-linejoin="bevel" x1="361.689" y1="221.918" x2="361.689" y2="221.918"/>
			
				<path fill="none" stroke="#73A950" stroke-width="2" stroke-linecap="round" stroke-linejoin="bevel" stroke-dasharray="0,3.9553" d="
				M360.739,225.757c-1.997,7.667-4.928,16.448-7.619,15.593c-4.664-1.49-22.879-22.516-13.406-23.623
				c5.693-0.695,11.636-1.797,15.459-2.574c26.391-17.602,30.238-26.577,30.388-30.146"/>
			
				<line fill="none" stroke="#73A950" stroke-width="2" stroke-linecap="round" stroke-linejoin="bevel" x1="385.161" y1="183.102" x2="385.161" y2="183.102"/>
			
				<path fill="none" stroke="#73A950" stroke-width="2" stroke-linecap="round" stroke-linejoin="bevel" stroke-dasharray="0,3.8915" d="
				M381.342,183.832c-12.168,2.279-50.462,9.077-71.532,8.516c-25.29-0.615-20.964-14.193-20.964-14.193
				c1.799-22.377,9.163-34.826,17.139-41.76c6.788-2.994,14.203-5.385,22.325-7.021c14.867-3.014,28.486-3.348,40.826-1.954"/>
			
				<line fill="none" stroke="#73A950" stroke-width="2" stroke-linecap="round" stroke-linejoin="bevel" x1="371.066" y1="127.652" x2="371.066" y2="127.652"/>
		</g>
	</g>
</g>
</svg>
