<?xml version="1.0" encoding="utf-8"?>
<!-- Generator: Adobe Illustrator 16.0.0, SVG Export Plug-In . SVG Version: 6.00 Build 0)  -->
<!DOCTYPE svg PUBLIC "-//W3C//DTD SVG 1.1//EN" "http://www.w3.org/Graphics/SVG/1.1/DTD/svg11.dtd">
<svg version="1.1" id="Layer_1" xmlns="http://www.w3.org/2000/svg" xmlns:xlink="http://www.w3.org/1999/xlink" x="0px" y="0px"
	 width="27px" height="27px" viewBox="0 0 27 27" enable-background="new 0 0 27 27" xml:space="preserve">
<path fill="#E4EDDA" d="M13.501,0C6.044,0,0,6.046,0,13.501S6.044,27,13.501,27c7.456,0,13.5-6.044,13.5-13.499
	S20.957,0,13.501,0 M20.039,12.192H18.56c0.107,0.418,0.171,0.855,0.171,1.308c0,2.89-2.342,5.231-5.23,5.231S8.27,16.39,8.27,13.5
	c0-0.453,0.064-0.89,0.172-1.308h-1.48v7.193c0,0.36,0.293,0.653,0.655,0.653h11.769c0.361,0,0.654-0.293,0.654-0.653V12.192z
	 M20.039,7.615c0-0.361-0.293-0.654-0.654-0.654h-1.962c-0.36,0-0.653,0.293-0.653,0.654v1.961c0,0.361,0.293,0.654,0.653,0.654
	h1.962c0.361,0,0.654-0.293,0.654-0.654V7.615z M13.5,10.23c-1.805,0-3.269,1.463-3.269,3.27c0,1.806,1.463,3.27,3.269,3.27
	c1.806,0,3.27-1.464,3.27-3.27C16.77,11.694,15.306,10.23,13.5,10.23 M20.039,22H6.961C5.878,22,5,21.122,5,20.038V6.961
	C5,5.878,5.878,5,6.961,5h13.078C21.122,5,22,5.878,22,6.961v13.077C22,21.122,21.122,22,20.039,22"/>
</svg>
