<svg id="Layer_2" data-name="Layer 2" xmlns="http://www.w3.org/2000/svg" width="27" height="27" viewBox="0 0 27 27"><defs><style>.cls-1{fill:#e4edda;}</style></defs><title>se-instagram1</title><path class="cls-1" d="M20.13,8.49a2.81,2.81,0,0,0-1.61-1.61,4.7,4.7,0,0,0-1.58-.29c-0.9,0-1.17,0-3.43,0s-2.54,0-3.43,0a4.7,4.7,0,0,0-1.58.29A2.81,2.81,0,0,0,6.87,8.49a4.7,4.7,0,0,0-.29,1.58c0,0.9,0,1.17,0,3.43s0,2.54,0,3.43a4.7,4.7,0,0,0,.29,1.58,2.81,2.81,0,0,0,1.61,1.61,4.7,4.7,0,0,0,1.58.29c0.9,0,1.16,0,3.43,0s2.54,0,3.43,0a4.7,4.7,0,0,0,1.58-.29,2.81,2.81,0,0,0,1.61-1.61,4.7,4.7,0,0,0,.29-1.58c0-.9,0-1.17,0-3.43s0-2.54,0-3.43A4.7,4.7,0,0,0,20.13,8.49ZM13.5,17.86a4.36,4.36,0,1,1,4.36-4.36A4.36,4.36,0,0,1,13.5,17.86ZM18,10a1,1,0,1,1,1-1A1,1,0,0,1,18,10Z"/><path class="cls-1" d="M13.5,0A13.5,13.5,0,1,0,27,13.5,13.5,13.5,0,0,0,13.5,0Zm8.45,17a6.24,6.24,0,0,1-.4,2.06,4.35,4.35,0,0,1-2.49,2.49,6.24,6.24,0,0,1-2.06.4c-0.91,0-1.2.05-3.5,0.05s-2.6,0-3.5-.05a6.24,6.24,0,0,1-2.06-.4,4.35,4.35,0,0,1-2.49-2.49A6.24,6.24,0,0,1,5.05,17C5,16.1,5,15.81,5,13.5s0-2.6.05-3.5a6.24,6.24,0,0,1,.4-2.06A4.35,4.35,0,0,1,7.93,5.45,6.24,6.24,0,0,1,10,5.05C10.9,5,11.19,5,13.5,5s2.6,0,3.5.05a6.24,6.24,0,0,1,2.06.4,4.35,4.35,0,0,1,2.49,2.49,6.24,6.24,0,0,1,.4,2.06c0,0.91.05,1.2,0.05,3.5S22,16.1,21.95,17Z"/><circle class="cls-1" cx="13.5" cy="13.5" r="2.83"/></svg>