<?xml version="1.0" encoding="utf-8"?>
<!-- Generator: Adobe Illustrator 16.0.0, SVG Export Plug-In . SVG Version: 6.00 Build 0)  -->
<!DOCTYPE svg PUBLIC "-//W3C//DTD SVG 1.1//EN" "http://www.w3.org/Graphics/SVG/1.1/DTD/svg11.dtd">
<svg version="1.1" id="Layer_1" xmlns="http://www.w3.org/2000/svg" xmlns:xlink="http://www.w3.org/1999/xlink" x="0px" y="0px"
	 width="80px" height="69px" viewBox="0 0 80 69" enable-background="new 0 0 80 69" xml:space="preserve">
<g>
	<g>
		<g>
			<g>
				<g>
					<g>
						<g>
							<path fill="#73A950" d="M20.984,27.037c0,1.913,0.674,3.672,1.793,5.055c0.388-2.79,1.681-5.227,3.773-7.072
								c1.486-1.311,2.921-1.918,3.269-2.054c0.355-0.171,1.744-0.761,3.887-0.761c0.615,0,1.238,0.059,1.864,0.156
								c-1.462-2.037-3.844-3.372-6.538-3.372C24.595,18.989,20.984,22.6,20.984,27.037"/>
						</g>
					</g>
				</g>
			</g>
		</g>
	</g>
</g>
<g>
	<g>
		<g>
			<g>
				<g>
					<g>
						<g>
							<path fill="#73A950" d="M27.566,16.749c0.02,0.17,0.395,0.298,0.395,0.298h-0.01l2.128-0.022
								c-0.772-1.277-0.883-2.778-0.881-3.562C27.581,14.606,27.483,16.014,27.566,16.749"/>
						</g>
					</g>
				</g>
			</g>
		</g>
	</g>
</g>
<g>
	<g>
		<g>
			<g>
				<g>
					<g>
						<g>
							<path fill="#73A950" d="M22.871,18.994c0.075,0,0.15-0.021,0.216-0.061l1.84-1.086c-1.308-0.72-2.156-1.962-2.548-2.642
								c-0.829,1.799-0.212,3.068,0.226,3.663C22.687,18.977,22.807,18.994,22.871,18.994"/>
						</g>
					</g>
				</g>
			</g>
		</g>
	</g>
</g>
<g>
	<g>
		<g>
			<g>
				<g>
					<g>
						<g>
							<path fill="#73A950" d="M20.88,21.131c-0.091-0.021-0.15-0.02-0.204-0.02c-1.397,0-2.683-0.623-3.324-0.995
								c0.182,1.969,1.351,2.763,2.029,3.059C19.419,23.191,19.46,23.2,19.5,23.2c0.129,0,0.259-0.083,0.332-0.21L20.88,21.131z"/>
						</g>
					</g>
				</g>
			</g>
		</g>
	</g>
</g>
<g>
	<g>
		<g>
			<g>
				<g>
					<g>
						<g>
							<path fill="#73A950" d="M15.474,26.882c0.945,1.37,2.104,1.657,2.901,1.657h0.001c0.134,0,0.258-0.009,0.366-0.021
								c0.172-0.02,0.301-0.185,0.299-0.385l-0.022-2.136C17.746,26.767,16.254,26.882,15.474,26.882"/>
						</g>
					</g>
				</g>
			</g>
		</g>
	</g>
</g>
<g>
	<g>
		<g>
			<g>
				<g>
					<g>
						<g>
							<path fill="#73A950" d="M20.979,33.114c-0.009-0.045-0.027-0.09-0.052-0.134l-1.088-1.838
								c-0.718,1.307-1.962,2.157-2.641,2.548c0.565,0.282,1.146,0.415,1.699,0.415c0.3,0,0.571-0.041,0.816-0.103
								C20.121,33.664,20.549,33.366,20.979,33.114"/>
						</g>
					</g>
				</g>
			</g>
		</g>
	</g>
</g>
<g>
	<g>
		<g>
			<g>
				<g>
					<g>
						<g>
							<path fill="#73A950" d="M38.227,22.934c0.003,0,0.02-0.001,0.032-0.021c0.682-1.288,1.924-2.137,2.604-2.529
								c-0.564-0.283-1.145-0.416-1.698-0.416c-0.904,0-1.566,0.35-1.963,0.643c-0.14,0.103-0.167,0.311-0.066,0.483L38.227,22.934z
								"/>
						</g>
					</g>
				</g>
			</g>
		</g>
	</g>
</g>
<g>
	<g>
		<g>
			<g>
				<g>
					<g>
						<g>
							<path fill="#73A950" d="M33.078,17.837l1.86,1.05c-0.031-1.495,0.622-2.85,1.014-3.528c-1.971,0.181-2.763,1.35-3.059,2.028
								C32.824,17.545,32.903,17.739,33.078,17.837"/>
						</g>
					</g>
				</g>
			</g>
		</g>
	</g>
</g>
<g>
	<g>
		<g>
			<g>
				<g>
					<g>
						<g>
							<path fill="#73A950" d="M24.929,46.26h33.442h0.018c0.303,0,4.654-0.128,4.375-4.703c-0.176-2.861-2.888-3.44-4.853-3.44
								c-0.608,0-1.144,0.042-1.512,0.096c-0.016,0.003-0.028-0.003-0.042-0.003c-0.229,0-0.402-0.279-0.367-0.514
								c0.198-1.263,0.291-4.556-3.294-7.104c-1.364-0.969-2.902-1.282-4.311-1.282c-1.769,0-3.336,0.492-4.102,0.782
								c-0.056,0.021-0.114,0.032-0.171,0.032c-0.204,0-0.397-0.132-0.465-0.337c-0.394-1.174-1.768-4.122-5.993-5.633
								c-1.511-0.54-2.848-0.718-3.952-0.718c-2.126,0-3.394,0.66-3.394,0.66s-5.734,2.054-6.376,8.624
								c-0.03,0.309-0.245,0.568-0.541,0.659c-1.343,0.411-4.918,2.132-4.832,5.509C18.718,45.115,23.128,46.26,24.929,46.26"/>
						</g>
					</g>
				</g>
			</g>
		</g>
	</g>
</g>
<g>
	<g>
		<g>
			<g>
				<g>
					<g>
						<g>
							<path fill="#73A950" d="M29.963,53.946c0.065-0.851-1.252-2.792-1.308-2.874l-0.089,0.061l-0.09-0.061
								c-0.055,0.082-1.341,2.007-1.341,2.994c0,0.551,0.333,1.375,1.251,1.395c0.014,0.001,0.027,0.001,0.041,0.001
								C29.291,55.462,29.893,54.872,29.963,53.946"/>
						</g>
					</g>
				</g>
			</g>
		</g>
	</g>
</g>
<g>
	<g>
		<g>
			<g>
				<g>
					<g>
						<g>
							<path fill="#73A950" d="M36.13,52.178c0.945,0,1.604-0.646,1.683-1.659c0.07-0.927-1.355-3.029-1.416-3.119l-0.118,0.08
								l-0.119-0.08c-0.059,0.089-1.452,2.174-1.452,3.246c0,0.603,0.366,1.508,1.375,1.53C36.1,52.178,36.114,52.178,36.13,52.178"
								/>
						</g>
					</g>
				</g>
			</g>
		</g>
	</g>
</g>
<g>
	<g>
		<g>
			<g>
				<g>
					<g>
						<g>
							<path fill="#73A950" d="M32.905,57.048c0.833,0,1.412-0.569,1.481-1.46c0.062-0.812-1.182-2.647-1.235-2.725l-0.116,0.08
								l-0.118-0.079c-0.051,0.076-1.267,1.895-1.267,2.835c0,0.532,0.324,1.329,1.215,1.351
								C32.879,57.048,32.892,57.048,32.905,57.048"/>
						</g>
					</g>
				</g>
			</g>
		</g>
	</g>
</g>
<g>
	<g>
		<g>
			<g>
				<g>
					<g>
						<g>
							<path fill="#73A950" d="M31.932,50.191c0.608,0,1.046-0.429,1.096-1.076c0.045-0.583-0.792-1.828-0.887-1.968l-0.115,0.077
								l-0.116-0.076C31.874,47.202,31,48.51,31,49.191c0,0.394,0.241,0.986,0.903,1C31.913,50.191,31.924,50.191,31.932,50.191"/>
						</g>
					</g>
				</g>
			</g>
		</g>
	</g>
</g>
<g>
	<g>
		<g>
			<g>
				<g>
					<g>
						<g>
							<path fill="#73A950" d="M23.88,50.874c0.738,0,1.271-0.521,1.331-1.308c0.055-0.708-0.962-2.221-1.078-2.391l-0.14,0.096
								l-0.14-0.095c-0.045,0.065-1.106,1.653-1.106,2.481c0,0.479,0.292,1.197,1.097,1.216
								C23.857,50.874,23.868,50.874,23.88,50.874"/>
						</g>
					</g>
				</g>
			</g>
		</g>
	</g>
</g>
<g>
	<g>
		<g>
			<g>
				<g>
					<g>
						<g>
							<path fill="#73A950" d="M28.311,50.191c0.607,0,1.046-0.429,1.096-1.076c0.045-0.583-0.792-1.828-0.888-1.968l-0.113,0.078
								l-0.116-0.077c-0.038,0.055-0.911,1.362-0.911,2.044c0,0.394,0.24,0.986,0.904,1C28.292,50.191,28.302,50.191,28.311,50.191"
								/>
						</g>
					</g>
				</g>
			</g>
		</g>
	</g>
</g>
</svg>
