<?xml version="1.0" encoding="utf-8"?>
<!-- Generator: Adobe Illustrator 17.1.0, SVG Export Plug-In . SVG Version: 6.00 Build 0)  -->
<!DOCTYPE svg PUBLIC "-//W3C//DTD SVG 1.1//EN" "http://www.w3.org/Graphics/SVG/1.1/DTD/svg11.dtd">
<svg version="1.1" id="NY" xmlns="http://www.w3.org/2000/svg" xmlns:xlink="http://www.w3.org/1999/xlink" x="0px" y="0px"
	 width="609.3px" height="115.7px" viewBox="-0.3 338.3 609.3 115.7" enable-background="new -0.3 338.3 609.3 115.7"
	 xml:space="preserve">
<g>
	<polygon fill="#1D1D1B" points="157.4,343.1 167.3,343.1 182.3,374.3 182.6,374.3 182.6,343.1 190.1,343.1 190.1,384.8 
		180.5,384.8 165.2,353.6 165.2,353.6 165.2,384.8 157.4,384.8 	"/>
	<path fill="#1D1D1B" d="M207.4,379.6c2.3,0,4.1-1.1,5.2-2.7c1.1-1.8,1.6-3.9,1.6-6.4h-3.2c-3.4,0-8.4,0.7-8.4,5.2
		C202.4,378.4,204.7,379.6,207.4,379.6 M198.3,355.6c3-1.4,6.8-2.3,10.3-2.3c8.9,0,12.6,3.9,12.6,13v3.9c0,3.2,0,5.5,0.2,7.8
		c0,2.3,0.2,4.6,0.2,6.8H215c-0.2-1.6-0.2-3.7-0.2-4.6h-0.2c-1.8,3.4-5.5,5.2-9.1,5.2c-5.2,0-10.3-3.2-10.3-9.1c0-4.6,2.1-7.3,5-8.9
		s6.6-1.8,9.8-1.8h4.1c0-5-2.1-6.6-6.6-6.6c-3.2,0-6.4,1.4-9.1,3.4V355.6z"/>
	<path fill="#1D1D1B" d="M229.6,359.9h-5.7V354h5.7v-6.2l7.5-2.5v8.7h6.8v5.9h-6.8v14.4c0,2.7,0.7,5,3.7,5c1.4,0,2.7-0.2,3.4-0.9
		l0.2,6.4c-1.6,0.5-3.4,0.7-5.7,0.7c-5.9,0-9.4-3.9-9.4-10v-15.5H229.6z"/>
	<path fill="#1D1D1B" d="M274.3,384.8H267v-4.1l0,0c-2.3,3-5.7,4.8-9.6,4.8c-6.8,0-10-5.2-10-12.1V354h7.5v16.4c0,3.9,0,8.9,5,8.9
		c5.5,0,6.6-6.4,6.6-10.3V354h7.5L274.3,384.8L274.3,384.8L274.3,384.8z"/>
	<path fill="#1D1D1B" d="M280.7,354h6.8v7.1h0.2c0.2-3,3.4-7.8,8-7.8c0.7,0,1.6,0,2.3,0.2v8c-0.7-0.5-2.1-0.7-3.4-0.7
		c-6.2,0-6.2,8.2-6.2,12.6v11.4h-7.8V354L280.7,354z"/>
	<path fill="#1D1D1B" d="M310.6,379.6c2.3,0,4.1-1.1,5.2-2.7c1.1-1.8,1.6-3.9,1.6-6.4h-3.2c-3.4,0-8.4,0.7-8.4,5.2
		C305.8,378.4,307.8,379.6,310.6,379.6 M301.7,355.6c3-1.4,6.8-2.3,10.3-2.3c8.9,0,12.6,3.9,12.6,13v3.9c0,3.2,0,5.5,0.2,7.8
		c0,2.3,0.2,4.6,0.2,6.8h-6.6c-0.2-1.6-0.2-3.7-0.2-4.6l0,0c-1.8,3.4-5.5,5.2-9.1,5.2c-5.2,0-10.3-3.2-10.3-9.1c0-4.6,2.1-7.3,5-8.9
		c3-1.6,6.6-1.8,9.8-1.8h4.1c0-5-2.1-6.6-6.6-6.6c-3.2,0-6.4,1.4-9.1,3.4L301.7,355.6z"/>
	<rect x="330.6" y="339.9" fill="#1D1D1B" width="7.5" height="45"/>
	<path fill="#1D1D1B" d="M368.3,360.9h2.5c3.9,0,8.4-0.7,8.4-5.7s-4.3-5.5-8.4-5.5h-2.5V360.9z M360.3,343.1h8.7
		c8.4,0,18.7-0.2,18.7,11.4c0,5-3.2,8.9-8.2,9.6l0,0c2.1,0.2,3.4,2.5,4.1,4.3l6.4,16.4h-8.9l-4.8-13c-1.1-3.2-2.1-4.3-5.5-4.3h-2.5
		v17.3h-8V343.1L360.3,343.1L360.3,343.1z"/>
	<path fill="#1D1D1B" d="M411.9,366.3c-0.2-3.9-2.1-7.3-6.2-7.3s-6.4,3.2-6.8,7.3H411.9z M416.9,383c-2.7,1.6-5.9,2.5-10,2.5
		c-9.6,0-15.3-5.9-15.3-16c0-8.9,4.6-16.2,13.7-16.2c11,0,13.9,7.8,13.9,18.7h-20.3c0.5,5,3.7,7.8,8.4,7.8c3.7,0,6.8-1.4,9.8-3.2
		L416.9,383L416.9,383L416.9,383z"/>
	<path fill="#1D1D1B" d="M441.3,360.4c-2.3-0.9-4.1-1.4-6.8-1.4c-2.1,0-4.6,0.7-4.6,3.4c0,4.8,13.2,1.8,13.2,13
		c0,7.1-6.2,10-12.3,10c-3,0-5.9-0.5-8.7-1.4l0.5-6.6c2.3,1.1,4.8,2.1,7.5,2.1c1.8,0,5-0.7,5-3.9c0-5.9-13.2-1.8-13.2-13
		c0-6.6,5.5-9.6,11.4-9.6c3.7,0,5.9,0.7,8.2,1.1L441.3,360.4z"/>
	<path fill="#1D1D1B" d="M461.2,379.3c5.9,0,7.3-5.5,7.3-10.7c0-4.8-2.3-9.1-7.3-9.1c-5,0-7.3,4.6-7.3,9.1
		C453.9,373.6,455.5,379.3,461.2,379.3 M461.2,353.3c8.7,0,15.3,6.2,15.3,16.4c0,8.9-5.7,16-15.3,16c-9.6,0-15.3-7.1-15.3-16
		C445.9,359.5,452.5,353.3,461.2,353.3"/>
	<path fill="#1D1D1B" d="M507.9,384.8h-7.3v-4.1l0,0c-2.3,3-5.7,4.8-9.6,4.8c-6.8,0-10-5.2-10-12.1V354h7.5v16.4c0,3.9,0,8.9,5,8.9
		c5.5,0,6.6-6.4,6.6-10.3V354h7.5L507.9,384.8L507.9,384.8L507.9,384.8z"/>
	<path fill="#1D1D1B" d="M514.3,354h6.8v7.1l0,0c0.5-3,3.4-7.8,8-7.8c0.7,0,1.6,0,2.3,0.2v8c-0.7-0.5-2.1-0.7-3.4-0.7
		c-6.2,0-6.2,8.2-6.2,12.6v11.4h-7.5V354L514.3,354z"/>
	<path fill="#1D1D1B" d="M554,360.6c-1.4-0.7-2.7-1.1-5.2-1.1c-4.8,0-7.8,3.9-7.8,9.8c0,5.7,2.5,10,8,10c2.1,0,4.6-0.9,5.9-1.4
		l0.2,6.6c-2.3,0.7-4.6,0.9-7.5,0.9c-9.6,0-14.4-6.8-14.4-16.2c0-8.9,5-16,14.1-16c3,0,5.2,0.5,7.3,0.9L554,360.6z"/>
	<path fill="#1D1D1B" d="M577.1,366.3c-0.2-3.9-2.1-7.3-6.2-7.3c-4.3,0-6.4,3.2-6.8,7.3H577.1z M582.3,383c-2.7,1.6-5.9,2.5-10,2.5
		c-9.6,0-15.3-5.9-15.3-16c0-8.9,4.6-16.2,13.7-16.2c11,0,13.9,7.8,13.9,18.7h-20.3c0.5,5,3.7,7.8,8.4,7.8c3.7,0,6.8-1.4,9.8-3.2
		L582.3,383L582.3,383z"/>
	<path fill="#1D1D1B" d="M606.8,360.4c-2.3-0.9-4.1-1.4-6.8-1.4c-2.1,0-4.6,0.7-4.6,3.4c0,4.8,13.2,1.8,13.2,13
		c0,7.1-6.2,10-12.3,10c-3,0-5.9-0.5-8.7-1.4l0.5-6.6c2.3,1.1,4.8,2.1,7.5,2.1c2.1,0,5-0.7,5-3.9c0-5.9-13.2-1.8-13.2-13
		c0-6.6,5.5-9.6,11.4-9.6c3.7,0,5.9,0.7,8.2,1.1L606.8,360.4z"/>
	<path fill="#1D1D1B" d="M157,441.4c2.3,1.6,5,2.3,8.9,2.3c5,0,9.1-2.5,9.1-8.2c0-8-18.5-8.9-18.5-19.4c0-6.4,5.7-10.5,12.8-10.5
		c2.1,0,5,0.2,7.8,1.4l-0.7,3.7c-1.8-0.9-4.6-1.6-7.3-1.6c-4.1,0-8.7,1.8-8.7,6.8c0,8,18.5,8.2,18.5,19.9c0,8.2-6.8,11.4-13.2,11.4
		c-3.9,0-7.1-0.7-9.1-1.8L157,441.4z"/>
	<path fill="#1D1D1B" d="M195.8,444.1c6.4,0,9.8-5.5,9.8-12.3c0-6.8-3.4-12.3-9.8-12.3c-6.4,0-9.8,5.5-9.8,12.3
		S189.4,444.1,195.8,444.1 M195.8,416.5c9.6,0,13.7,7.3,13.7,15.3s-4.1,15.3-13.7,15.3c-9.6,0-13.7-7.3-13.7-15.3
		S186.4,416.5,195.8,416.5"/>
	<path fill="#1D1D1B" d="M236.9,439.6c0,2.3,0,4.6,0.2,6.8h-3.4v-5.2h-0.2c-1.1,2.7-3.4,5.9-9.6,5.9c-7.3,0-10-4.8-10-11.2v-18.7
		h3.7V435c0,5.5,2.1,9.1,6.8,9.1c6.6,0,8.7-5.7,8.7-10.7v-16.2h3.7L236.9,439.6L236.9,439.6z"/>
	<path fill="#1D1D1B" d="M256,420.4h-6.6v18.9c0,2.7,0.9,4.8,3.9,4.8c1.4,0,2.3-0.2,3.4-0.7l0.2,3c-0.9,0.2-2.7,0.7-4.3,0.7
		c-6.4,0-6.6-4.3-6.6-9.8v-17.1h-5.7V417h5.7v-7.1l3.7-1.4v8.2h6.6L256,420.4L256,420.4z"/>
	<path fill="#1D1D1B" d="M260.1,403.5h3.7v18.7l0,0c1.6-3.2,4.8-5.7,9.1-5.7c8,0,10,5.2,10,12.6v17.6h-3.7v-17.6
		c0-5-0.9-9.4-6.8-9.4c-6.4,0-8.7,6.2-8.7,11.2v15.7h-3.7V403.5L260.1,403.5z"/>
	<polygon fill="#1D1D1B" points="305.5,406.5 325.4,406.5 325.4,409.9 309.7,409.9 309.7,424.3 324.5,424.3 324.5,427.7 
		309.7,427.7 309.7,443.2 326.1,443.2 326.1,446.7 305.5,446.7 	"/>
	<path fill="#1D1D1B" d="M348,431.8h-1.1c-6.2,0-13.7,0.7-13.7,7.1c0,3.9,2.7,5.2,6.2,5.2c8.4,0,8.7-7.3,8.7-10.5V431.8L348,431.8z
		 M348.4,441.9L348.4,441.9c-1.8,3.4-5.7,5.5-9.4,5.5c-8.4,0-9.6-5.7-9.6-8.2c0-9.8,10.5-10.3,18-10.3h0.7v-1.6c0-5-1.8-7.5-6.6-7.5
		c-3,0-5.9,0.7-8.7,2.5v-3.4c2.3-1.1,5.9-2.1,8.7-2.1c7.3,0,10.3,3.2,10.3,11v13c0,2.3,0,4.1,0.2,6.2h-3.7V441.9L348.4,441.9z"/>
	<path fill="#1D1D1B" d="M355.7,442.3c2.3,1.1,4.8,1.8,7.5,1.8c3.4,0,6.6-1.8,6.6-5.2c0-6.8-14.1-5.9-14.1-14.4c0-5.7,4.8-8,9.6-8
		c1.6,0,4.6,0.2,7.3,1.4l-0.5,3.2c-1.8-0.9-4.6-1.4-6.4-1.4c-3.7,0-6.4,1.1-6.4,4.8c0,5.5,14.4,4.8,14.4,14.4
		c0,6.2-5.7,8.4-10.3,8.4c-2.7,0-5.7-0.5-8.2-1.4L355.7,442.3z"/>
	<path fill="#1D1D1B" d="M391.1,420.4h-6.6v18.9c0,2.7,0.9,4.8,3.9,4.8c1.4,0,2.3-0.2,3.4-0.7l0.2,3c-0.9,0.2-2.7,0.7-4.3,0.7
		c-6.4,0-6.6-4.3-6.6-9.8v-17.1h-5.7V417h5.7v-7.1l3.7-1.4v8.2h6.6L391.1,420.4L391.1,420.4z"/>
	<path fill="#1D1D1B" d="M13,399.4c-2.5,1.6-10.5,7.1-11.4,5.2c-1.1-2.1-0.5-15.3,3.2-12.6c2.5,2.1,5.5,3.9,6.8,4.8
		c5-0.7,10.3-1.8,12.6-2.7c2.5-0.9,1.4-8.7,0.7-11.6c-0.2-1.1-4.3-4.6-9.1-9.1c5-5.5,22.8-22.6,46.3-14.4
		c23.5,8.2,32.2,30.3,33.8,36.1c-0.2,0.5-0.7,0.9-0.9,1.1c-9.6-1.8-20.5-1.6-31.3,2.7c-1.8,0.7-3.4,1.6-5.2,2.3
		c-3.9,0.2-8,0-12.6-0.7c-9.6-1.6-13.2-8.4-14.6-12.8c0.7,4.3,0.9,11-3,11.9C24,400.6,17.1,400.1,13,399.4 M13,370.9
		c-7.1-6.8-14.1-15.1-12.8-20.1c2.7-9.4,16-5.7,16-5.7s0-5.5,6.2-6.2c5.2-0.5,8.4,5.5,8.4,5.5c7.3-0.7,9.6,4.3,15.3,8
		c0.7,0.5,1.6,0.9,2.7,1.4C30.6,354.2,18.5,364.7,13,370.9 M66.4,356.8c-0.5-2.1-1.1-6.8,0.9-9.4c2.7-3.2,6.8-3,23.3,21.7
		c11,16.2,10.3,21.2,8.4,22.8C95.2,383.9,84.2,364.3,66.4,356.8 M92.4,399.2c-2.5,9.4-22.4,17.6-22.4,17.6
		c31.5-1.6,38.1,4.3,38.1,4.3c-2.7,11.9-15.1,19.9-20.1,22.8c-0.9,3.9-2.5,9.6-4.1,9.1c-2.3-0.7-10.7-10.7-6.4-11.2
		c2.7-0.2,5.5-0.9,7.3-1.1C102,429.3,99,425.4,99,425.4s-23.7,4.8-35.6,4.3c-12.1-0.2-10-6.6-10-6.6c0.9-10.5,4.3-16.4,8.2-19.9
		c3.2-1.4,6.6-2.5,10.5-3.4C79.4,398.5,86.3,398.3,92.4,399.2"/>
</g>
</svg>
