<?xml version="1.0" encoding="utf-8"?>
<!-- Generator: Adobe Illustrator 19.0.0, SVG Export Plug-In . SVG Version: 6.00 Build 0)  -->
<svg version="1.1" id="Layer_1" xmlns="http://www.w3.org/2000/svg" xmlns:xlink="http://www.w3.org/1999/xlink" x="0px" y="0px"
	 width="270px" height="120px" viewBox="0 0 270 120" style="enable-background:new 0 0 270 120;" xml:space="preserve">
<style type="text/css">
	.st0{fill:#FFFFFF;}
	.st1{fill:#E4EDDA;}
</style>
<g>
	<g>
		<polygon id="XMLID_37_" class="st0" points="75.5,39.6 79.1,39.6 84.9,51.5 85,51.5 85,39.6 87.8,39.6 87.8,55.6 84.2,55.6 
			78.4,43.7 78.3,43.7 78.3,55.6 75.5,55.6 		"/>
		<path class="st0" d="M94.3,53.5c0.9,0,1.6-0.4,2.1-1C96.9,51.8,97,51,97,50h-1.2c-1.3,0-3.2,0.2-3.2,2.1
			C92.6,53.1,93.3,53.5,94.3,53.5 M91.1,44.5c1.1-0.5,2.6-0.9,3.8-0.9c3.4,0,4.8,1.5,4.8,4.9V50c0,1.2,0,2.2,0,2.9
			c0,0.9,0.1,1.7,0.1,2.6h-2.6c-0.1-0.6-0.1-1.4-0.1-1.7l0,0c-0.7,1.3-2.2,2.1-3.4,2.1c-2,0-3.9-1.2-3.9-3.4c0-1.7,0.8-2.8,2-3.3
			c1.1-0.6,2.6-0.7,3.7-0.7h1.6c0-2-0.8-2.6-2.6-2.6c-1.2,0-2.5,0.5-3.4,1.3L91.1,44.5L91.1,44.5z"/>
		<path id="XMLID_34_" class="st0" d="M103,46.1h-2.2v-2.2h2.2v-2.5l2.9-1v3.3h2.6V46h-2.6v5.4c0,1,0.3,2,1.3,2c0.5,0,1-0.1,1.3-0.3
			l0.1,2.5c-0.6,0.2-1.3,0.3-2.2,0.3c-2.3,0-3.5-1.5-3.5-3.8L103,46.1L103,46.1L103,46.1z"/>
		<path id="XMLID_33_" class="st0" d="M119.8,55.6h-2.7V54l0,0c-0.9,1.1-2.2,1.8-3.6,1.8c-2.6,0-3.8-2-3.8-4.6v-7.3h2.9v6.3
			c0,1.4,0,3.3,2,3.3c2.2,0,2.6-2.5,2.6-3.9v-5.7h2.9v11.7L119.8,55.6L119.8,55.6z"/>
		<path id="XMLID_32_" class="st0" d="M122.4,43.9h2.6v2.6l0,0c0.1-1.1,1.3-2.9,3-2.9c0.3,0,0.6,0,0.9,0.1v3
			c-0.3-0.2-0.8-0.2-1.3-0.2c-2.4,0-2.4,3.1-2.4,4.7v4.3h-2.9L122.4,43.9L122.4,43.9z"/>
		<path class="st0" d="M133.7,53.5c0.9,0,1.6-0.4,2.1-1c0.5-0.7,0.6-1.5,0.6-2.5h-1.2c-1.3,0-3.2,0.2-3.2,2.1
			C131.8,53.1,132.7,53.5,133.7,53.5 M130.3,44.5c1.1-0.5,2.6-0.9,3.8-0.9c3.4,0,4.8,1.5,4.8,4.9V50c0,1.2,0,2.2,0,2.9
			c0,0.9,0.1,1.7,0.1,2.6h-2.5c-0.1-0.6-0.1-1.4-0.1-1.7l0,0c-0.7,1.3-2.2,2.1-3.4,2.1c-2,0-3.9-1.2-3.9-3.4c0-1.7,0.8-2.8,2-3.3
			c1.1-0.6,2.6-0.7,3.7-0.7h1.6c0-2-0.8-2.6-2.6-2.6c-1.2,0-2.5,0.5-3.4,1.3L130.3,44.5z"/>
		<rect id="XMLID_29_" x="141.3" y="38.4" class="st0" width="2.9" height="17"/>
		<path class="st0" d="M155.6,46.4h1c1.5,0,3.2-0.2,3.2-2.3c0-2-1.7-2.2-3.2-2.2h-1V46.4z M152.6,39.6h3.2c3.2,0,7.1-0.1,7.1,4.3
			c0,1.8-1.2,3.4-3.1,3.7l0,0c0.8,0.1,1.3,0.9,1.6,1.6l2.5,6.3h-3.3l-1.8-4.9c-0.4-1.2-0.8-1.6-2.2-1.6h-1v6.6h-3V39.6L152.6,39.6z"
			/>
		<path class="st0" d="M172.1,48.5c-0.1-1.5-0.7-2.7-2.4-2.7c-1.6,0-2.5,1.2-2.6,2.7H172.1z M174,54.9c-1.1,0.6-2.3,0.9-3.8,0.9
			c-3.6,0-5.9-2.3-5.9-6.1c0-3.4,1.7-6.2,5.1-6.2c4.1,0,5.2,3,5.2,7.1h-7.7c0.1,2,1.4,2.9,3.2,2.9c1.4,0,2.6-0.5,3.7-1.2L174,54.9
			L174,54.9z"/>
		<path id="XMLID_24_" class="st0" d="M183.3,46.2c-0.9-0.3-1.5-0.5-2.6-0.5c-0.8,0-1.7,0.3-1.7,1.3c0,1.8,5,0.7,5,4.9
			c0,2.7-2.4,3.8-4.6,3.8c-1.1,0-2.3-0.2-3.3-0.5l0.2-2.6c0.9,0.5,1.8,0.8,2.8,0.8c0.7,0,2-0.3,2-1.4c0-2.4-5-0.7-5-4.9
			c0-2.6,2.2-3.6,4.3-3.6c1.3,0,2.3,0.2,3.1,0.4L183.3,46.2z"/>
		<path class="st0" d="M190.9,53.4c2.3,0,2.8-2.2,2.8-4s-0.9-3.4-2.8-3.4c-1.9,0-2.8,1.7-2.8,3.4C188,51.4,188.6,53.4,190.9,53.4
			 M190.9,43.6c3.3,0,5.9,2.4,5.9,6.3c0,3.3-2.2,6.1-5.9,6.1c-3.6,0-5.9-2.7-5.9-6.1C185,45.9,187.5,43.6,190.9,43.6"/>
		<path id="XMLID_21_" class="st0" d="M208.6,55.6h-2.7V54l0,0c-0.9,1.1-2.2,1.8-3.6,1.8c-2.6,0-3.8-2-3.8-4.6v-7.3h2.9v6.3
			c0,1.4,0,3.3,2,3.3c2.2,0,2.6-2.5,2.6-3.9v-5.7h2.9L208.6,55.6L208.6,55.6L208.6,55.6z"/>
		<path id="XMLID_20_" class="st0" d="M211,43.9h2.6v2.6l0,0c0.1-1.1,1.3-2.9,3-2.9c0.3,0,0.6,0,0.9,0.1v3c-0.3-0.2-0.8-0.2-1.3-0.2
			c-2.4,0-2.4,3.1-2.4,4.7v4.3h-2.9L211,43.9L211,43.9z"/>
		<path id="XMLID_19_" class="st0" d="M226.1,46.3c-0.5-0.2-1.1-0.4-2-0.4c-1.8,0-2.9,1.5-2.9,3.7s1,3.8,3,3.8
			c0.8,0,1.7-0.3,2.3-0.5l0.1,2.6c-0.8,0.3-1.7,0.4-2.9,0.4c-3.6,0-5.4-2.6-5.4-6.2c0-3.4,2-6.1,5.3-6.1c1.2,0,2.1,0.1,2.8,0.4
			L226.1,46.3z"/>
		<path class="st0" d="M234.7,48.5c-0.1-1.5-0.7-2.7-2.4-2.7c-1.7,0-2.5,1.2-2.6,2.7H234.7z M236.8,54.9c-1.1,0.6-2.3,0.9-3.8,0.9
			c-3.6,0-5.9-2.3-5.9-6.1c0-3.4,1.7-6.2,5.1-6.2c4.1,0,5.2,3,5.2,7.1h-7.7c0.1,2,1.4,2.9,3.2,2.9c1.4,0,2.6-0.5,3.7-1.2L236.8,54.9
			L236.8,54.9L236.8,54.9z"/>
		<path id="XMLID_16_" class="st0" d="M246,46.2c-0.9-0.3-1.5-0.5-2.6-0.5c-0.8,0-1.7,0.3-1.7,1.3c0,1.8,5,0.7,5,4.9
			c0,2.7-2.4,3.8-4.6,3.8c-1.1,0-2.3-0.2-3.3-0.5l0.2-2.6c0.9,0.5,1.8,0.8,2.8,0.8c0.7,0,2-0.3,2-1.4c0-2.4-5-0.7-5-4.9
			c0-2.6,2.2-3.6,4.3-3.6c1.4,0,2.3,0.2,3.1,0.4L246,46.2z"/>
		<path id="XMLID_15_" class="st1" d="M75.2,77c0.9,0.6,2,0.9,3.3,0.9c2,0,3.4-0.9,3.4-3.1c0-3-7-3.3-7-7.4c0-2.5,2.2-3.9,4.8-3.9
			c0.7,0,2,0.1,3,0.5l-0.2,1.3c-0.7-0.4-1.7-0.6-2.8-0.6c-1.6,0-3.3,0.6-3.3,2.6c0,3,7,3.1,7,7.6c0,3.1-2.6,4.3-5,4.3
			c-1.5,0-2.6-0.3-3.4-0.6L75.2,77z"/>
		<path class="st1" d="M90,78c2.5,0,3.7-2.2,3.7-4.6c0-2.6-1.3-4.6-3.7-4.6s-3.7,2.2-3.7,4.6C86.3,76,87.6,78,90,78 M90,67.6
			c3.6,0,5.2,2.8,5.2,5.9s-1.6,5.9-5.2,5.9s-5.2-2.8-5.2-5.9S86.4,67.6,90,67.6"/>
		<path id="XMLID_12_" class="st1" d="M105.6,76.4c0,0.8,0,1.7,0.1,2.6h-1.3v-2.1l0,0c-0.5,1-1.3,2.3-3.6,2.3
			c-2.7,0-3.8-1.8-3.8-4.2v-7.2h1.4v6.8c0,2.2,0.7,3.4,2.6,3.4c2.6,0,3.3-2.3,3.3-4v-6.2h1.4L105.6,76.4L105.6,76.4L105.6,76.4z"/>
		<path id="XMLID_11_" class="st1" d="M113,69h-2.6v7.2c0,1,0.4,1.8,1.5,1.8c0.5,0,0.9-0.1,1.3-0.3l0.1,1.1c-0.3,0.1-1,0.3-1.7,0.3
			c-2.5,0-2.6-1.7-2.6-3.7v-6.6h-2.3v-1.2h2.3v-2.7l1.4-0.5v3.1h2.6V69L113,69z"/>
		<path id="XMLID_10_" class="st1" d="M114.5,62.6h1.4v7.2l0,0c0.6-1.2,1.8-2.2,3.4-2.2c3,0,3.8,2.1,3.8,4.7V79h-1.4v-6.7
			c0-2-0.4-3.6-2.6-3.6c-2.5,0-3.3,2.4-3.3,4.2v6h-1.3V62.6L114.5,62.6z"/>
		<polygon id="XMLID_9_" class="st1" points="131.8,63.7 139.3,63.7 139.3,65 133.3,65 133.3,70.5 139,70.5 139,71.8 133.3,71.8 
			133.3,77.7 139.4,77.7 139.4,79 131.8,79 		"/>
		<path class="st1" d="M148,73.3h-0.4c-2.5,0-5.2,0.2-5.2,2.7c0,1.4,1,2.1,2.4,2.1c3.2,0,3.3-2.8,3.3-4L148,73.3L148,73.3z
			 M148.1,77.2L148.1,77.2c-0.6,1.3-2.3,2.1-3.6,2.1c-3.1,0-3.6-2.2-3.6-3.1c0-3.7,3.9-3.9,6.9-3.9h0.3v-0.6c0-2-0.7-2.8-2.6-2.8
			c-1.2,0-2.3,0.3-3.3,0.9v-1.3c0.8-0.4,2.4-0.8,3.3-0.8c2.7,0,3.9,1.2,3.9,4.1v4.9c0,0.9,0,1.6,0.1,2.4h-1.3L148.1,77.2L148.1,77.2
			z"/>
		<path id="XMLID_6_" class="st1" d="M150.7,77.3c0.8,0.4,1.8,0.7,2.9,0.7c1.3,0,2.5-0.7,2.5-2.1c0-2.6-5.3-2.3-5.3-5.4
			c0-2.3,1.8-3,3.6-3c0.6,0,1.8,0.1,2.7,0.5l-0.1,1.2c-0.7-0.3-1.7-0.5-2.5-0.5c-1.4,0-2.5,0.4-2.5,1.8c0,2.2,5.4,1.8,5.4,5.4
			c0,2.4-2.3,3.1-3.9,3.1c-1.1,0-2.2-0.1-3.1-0.5L150.7,77.3z"/>
		<path id="XMLID_5_" class="st1" d="M164.3,69h-2.6v7.2c0,1,0.4,1.8,1.5,1.8c0.5,0,0.9-0.1,1.3-0.3l0.1,1.1c-0.3,0.1-1,0.3-1.7,0.3
			c-2.5,0-2.6-1.7-2.6-3.7v-6.6H158v-1.2h2.3v-2.7l1.4-0.5v3.1h2.6V69L164.3,69z"/>
	</g>
	<path class="st0" d="M28.8,61.5c-0.9,0.6-3.9,2.6-4.2,2c-0.5-0.8-0.2-5.7,1.2-4.6c1,0.7,2.1,1.4,2.6,1.8c1.9-0.2,3.8-0.7,4.6-1
		c1-0.3,0.6-3.2,0.2-4.3c-0.1-0.5-1.6-1.8-3.3-3.4c1.9-2.1,8.5-8.4,17.2-5.4c8.8,3,12,11.4,12.7,13.4c-0.1,0.2-0.2,0.3-0.4,0.4
		c-3.5-0.7-7.6-0.6-11.7,1c-0.7,0.3-1.3,0.6-1.9,0.9c-1.4,0-2.9,0-4.6-0.3c-3.5-0.6-4.9-3.1-5.4-4.7c0.3,1.6,0.4,4-1.1,4.4
		C32.9,61.8,30.4,61.7,28.8,61.5 M28.8,50.8c-2.6-2.5-5.3-5.5-4.7-7.5c1-3.4,5.9-2.1,5.9-2.1s0-2.1,2.3-2.3c2-0.2,3.1,2.1,3.1,2.1
		c2.7-0.2,3.5,1.7,5.6,2.9c0.3,0.2,0.6,0.3,1,0.5C35.4,44.7,30.9,48.5,28.8,50.8 M48.7,45.6c-0.2-0.8-0.5-2.6,0.3-3.4
		c1-1.2,2.5-1.1,8.7,8.1c4,6,3.7,7.9,3,8.5C59.3,55.6,55.3,48.3,48.7,45.6 M58.3,61.4c-1,3.4-8.3,6.5-8.3,6.5
		c11.8-0.5,14.1,1.7,14.1,1.7c-1,4.4-5.5,7.4-7.5,8.5c-0.3,1.5-1,3.5-1.5,3.4c-0.8-0.3-4-3.9-2.4-4.1c1-0.1,2.1-0.3,2.7-0.5
		c6.4-4.2,5.3-5.6,5.3-5.6s-8.8,1.8-13.3,1.6c-4.4-0.1-3.6-2.5-3.6-2.5c0.3-3.9,1.6-6.1,3-7.4c1.2-0.5,2.5-1,3.9-1.3
		C53.6,61.1,56.1,61.1,58.3,61.4"/>
</g>
</svg>
