<?xml version="1.0" encoding="utf-8"?>
<!-- Generator: Adobe Illustrator 16.0.0, SVG Export Plug-In . SVG Version: 6.00 Build 0)  -->
<!DOCTYPE svg PUBLIC "-//W3C//DTD SVG 1.1//EN" "http://www.w3.org/Graphics/SVG/1.1/DTD/svg11.dtd">
<svg version="1.1" id="Layer_1" xmlns="http://www.w3.org/2000/svg" xmlns:xlink="http://www.w3.org/1999/xlink" x="0px" y="0px"
	 width="25.512px" height="45.354px" viewBox="0 0 25.512 45.354" enable-background="new 0 0 25.512 45.354" xml:space="preserve">
<path fill="#E70095" d="M12.426,45.143"/>
<path fill="#E70095" d="M12.426,45.143"/>
<path fill="#ACCB94" d="M13.244,23.854c5.826,0,10.554-4.725,10.554-10.554S19.073,2.746,13.244,2.746
	c-5.83,0-10.559,4.724-10.559,10.553S7.414,23.854,13.244,23.854"/>
<path fill="#FFFFFF" d="M17.292,8.724h-5.869v-0.8h5.869V8.724z M17.292,10.166h-5.869v-0.8h5.869V10.166z M17.292,11.605h-5.869
	v-0.801h5.869V11.605z M17.292,13.098h-5.869v-0.801h5.869V13.098z M17.292,14.593h-5.869v-0.801h5.869V14.593z M17.292,16.034
	h-5.869v-0.804h5.869V16.034z M17.292,17.473h-5.869v-0.8h5.869V17.473z M9.358,19.473v-0.426H10.2l-0.015,0.426H9.358z
	 M8.742,13.605v0.479v0.427v0.693v0.428v0.479v0.429v0.588v0.427v0.479v0.429v0.586v0.426H7.651v-0.426V18.46v-0.429v-0.479v-0.427
	v-0.588V16.11v-0.479v-0.428v-0.692v-0.427v-0.479v-0.428h1.095L8.742,13.605L8.742,13.605z M7.035,13.605H6.249v-0.428h0.786
	V13.605z M7.035,14.512H6.249v-0.427h0.786V14.512z M7.035,15.634H6.249v-0.428h0.786V15.634z M7.035,16.54H6.249v-0.429h0.786
	V16.54z M7.035,17.554H6.249v-0.427h0.786V17.554z M7.035,18.462H6.249v-0.428h0.786V18.462z M7.035,19.473H6.249v-0.426h0.786
	V19.473z M9.358,18.034h0.868l-0.011,0.428H9.358V18.034z M9.358,17.128h0.896l-0.011,0.427H9.358V17.128z M9.358,16.115h0.896
	v0.427H9.358V16.115z M9.358,15.206h0.896v0.428H9.358V15.206z M9.358,14.086h0.896v0.427H9.358V14.086z M9.358,13.178h0.896v0.428
	H9.358V13.178z M17.774,6.084h-6.614c-0.354,0-0.643,0.287-0.643,0.64l-0.146,5.732c-0.059-0.019-0.113-0.024-0.173-0.024H6.089
	c-0.354,0-0.64,0.287-0.64,0.644L5.271,19.83c1.854,1.99,4.491,3.238,7.429,3.238c0.033,0,0.071,0,0.108-0.002v-2.472h2.88v2.022
	c1.108-0.345,2.138-0.87,3.043-1.55L18.411,6.722C18.411,6.371,18.126,6.084,17.774,6.084"/>
<path fill="#73A950" d="M12.753,23.098c-5.354,0-9.693-4.34-9.693-9.689c0-5.354,4.341-9.693,9.693-9.693
	c5.354,0,9.69,4.34,9.69,9.693C22.447,18.759,18.108,23.098,12.753,23.098 M12.753,0.123c-6.916,0-12.521,5.604-12.521,12.52
	c0,13.946,12.521,32.589,12.521,32.589s12.521-17.043,12.521-32.589C25.274,5.727,19.668,0.123,12.753,0.123"/>
</svg>
