<?xml version="1.0" encoding="utf-8"?>
<!-- Generator: Adobe Illustrator 16.0.0, SVG Export Plug-In . SVG Version: 6.00 Build 0)  -->
<!DOCTYPE svg PUBLIC "-//W3C//DTD SVG 1.1//EN" "http://www.w3.org/Graphics/SVG/1.1/DTD/svg11.dtd">
<svg version="1.1" id="Layer_1" xmlns="http://www.w3.org/2000/svg" xmlns:xlink="http://www.w3.org/1999/xlink" x="0px" y="0px"
	 width="25.512px" height="45.354px" viewBox="0 0 25.512 45.354" enable-background="new 0 0 25.512 45.354" xml:space="preserve">
<path fill="#E70095" d="M12.428,45.144"/>
<path fill="#E70095" d="M12.428,45.144"/>
<path fill="#ACCB94" d="M13.246,23.854c5.829,0,10.554-4.725,10.554-10.554S19.074,2.746,13.246,2.746
	C7.416,2.746,2.69,7.47,2.69,13.299S7.416,23.854,13.246,23.854"/>
<g>
	<path fill="#FFFFFF" d="M7.181,6.672c-0.445,0-0.805,0.361-0.805,0.805v13.229v0.185c0.498,0.399,1.037,0.751,1.607,1.048v-0.083
		V7.477C7.987,7.033,7.626,6.672,7.181,6.672"/>
	<path fill="#FFFFFF" d="M15.449,11.306v6.271c0,0.233-0.191,0.429-0.433,0.429c-0.232,0-0.429-0.192-0.429-0.429V9.62
		c-1.204-2.104-6.015-1.068-6.015-1.068v10.311c1.12-0.854,2.295-1.296,3.677-1.421c1.262-0.113,0.854,0.146,1.332,0.934
		c0.678,1.111,1.844,0.927,2.983,0.83c0.279-0.025,3.73-0.538,3.713-0.231c0.002-0.021,0.217-3.222,0.217-3.222
		C20.499,11.672,16.941,11.288,15.449,11.306"/>
</g>
<path fill="#73A950" d="M12.755,22.976c-5.354,0-9.693-4.34-9.693-9.688c0-5.354,4.34-9.694,9.693-9.694
	c5.353,0,9.69,4.34,9.69,9.694C22.448,18.636,18.109,22.976,12.755,22.976 M12.755,0C5.839,0,0.234,5.604,0.234,12.52
	c0,13.946,12.521,32.589,12.521,32.589S25.276,28.068,25.276,12.52C25.276,5.605,19.67,0,12.755,0"/>
</svg>
