<?xml version="1.0" encoding="utf-8"?>
<!-- Generator: Adobe Illustrator 16.0.0, SVG Export Plug-In . SVG Version: 6.00 Build 0)  -->
<!DOCTYPE svg PUBLIC "-//W3C//DTD SVG 1.1//EN" "http://www.w3.org/Graphics/SVG/1.1/DTD/svg11.dtd">
<svg version="1.1" id="Layer_1" xmlns="http://www.w3.org/2000/svg" xmlns:xlink="http://www.w3.org/1999/xlink" x="0px" y="0px"
	 width="412.582px" height="206.053px" viewBox="0 0 412.582 206.053" enable-background="new 0 0 412.582 206.053"
	 xml:space="preserve">
<linearGradient id="SVGID_1_" gradientUnits="userSpaceOnUse" x1="153.1528" y1="558.4641" x2="76.8235" y2="330.5018" gradientTransform="matrix(1 0 0 1 0.085 -390.0332)">
	<stop  offset="0" style="stop-color:#5B348B;stop-opacity:0"/>
	<stop  offset="1" style="stop-color:#5B348B"/>
</linearGradient>
<path display="none" fill="url(#SVGID_1_)" d="M261.077,0.881c-13.192,3.322-29.903,10.382-45.229,25.462
	C182.841-15.782,128.637-38.091,74.3-40.938C20.832-43.775-29.307-26.942-65.996,2.317c-1.875,1.426-3.768,3.03-5.488,4.576
	c-4.57,3.955-8.972,8.179-13.108,12.549C-74.911-45.418,1.675-76.99,1.675-76.99c-9.273-10.067-39.021-1.646-39.021-1.646
	C20.749-134.365,117.97-95.358,117.97-95.358c0.947-12.926-23.667-25.826-23.667-25.826c56.039,6.365,67.458,12.378,67.458,12.378
	c24.366,9.7,42.938,21.748,56.973,34.48c6.828,4.101,12.205,11.039,15.687,16.589C252.605-34.975,258.911-12.482,261.077,0.881
	 M207.453,35.375c-34.055,40.247-24.414,71.797-20.277,80.996c2.009,4.762,5.94,7.451,15.07,10.322
	c38.236,11.986,37.24,31.67,37.24,31.67c-26.342-19.521-38.01,0.779-38.01,0.779s-15.483,3.285-34.24-6.865
	c-12.582-6.73-10.245-57.474-90.927-57.474c-12.494,0-23.972,1.365-34.404,3.435c-0.462,1.109-0.96,2.229-1.367,3.481
	c-10.534,28.55-47.521,50.826-66.182,53.125c0,0-6.054-19.398-40.979,1.475c0,0,1.473-32.495,42.775-33.738
	c-32.454-40.506-71.778-2.932-71.778-2.932c-7.054-45.604,5.446-76.547,19.868-96.167C-38.534-11.544,15.67-33.612,74.301-30.532
	C127.982-27.673,170.828-9.27,207.453,35.375 M262.124,14.416c21.787,2.3,32.692,18.767,45.106,42.159
	c12.439,23.259,21.299,22.724,40.844,22.724c19.525,0,12.855,43.574-7.153,28.132c-10.272-7.928-14.459-1.123-58.545,8.154
	c-59.782,12.546-84.272,1.628-86.449-11.689c-2.167-12.268-1.812-34.088,18.231-56.581C232.962,26.087,249.83,17.276,262.124,14.416
	"/>
<linearGradient id="SVGID_2_" gradientUnits="userSpaceOnUse" x1="391.9688" y1="151.2844" x2="-8.0005" y2="151.2844">
	<stop  offset="0" style="stop-color:#73A950;stop-opacity:0"/>
	<stop  offset="1" style="stop-color:#73A950"/>
</linearGradient>
<path fill="url(#SVGID_2_)" d="M39.781,164.221c-9.182,6.175-38.859,25.79-42.391,19.248c-4.056-7.5-1.47-56.199,11.923-46.142
	c9.523,7.246,20.265,14.186,25.573,17.557c18.918-2.154,38.28-7.156,46.495-9.955c9.701-3.336,5.416-32.488,2.225-43.266
	c-1.257-4.094-16.209-17.23-33.711-33.753c18.465-20.364,84.775-83.72,171.389-53.61c87.584,30.502,119.104,112.826,125.685,133.321
	c-1.006,1.542-2.153,2.995-3.463,4.108c-35.772-6.688-75.937-6.312-115.605,9.964c-6.616,2.815-12.929,5.668-19.005,8.702
	c-13.967,0.461-29.808-0.111-46.284-2.786c-35.683-5.677-48.791-31.085-53.669-47.225c2.512,15.922,3.751,40.611-11.264,43.946
	C80.719,168.192,55.505,166.161,39.781,164.221 M39.941,58.304C14.03,32.983-12.724,2.609-7.291-16.255
	c9.772-34.63,59.408-20.732,59.408-20.732s0.142-20.55,22.899-22.754c19.599-1.83,31.29,20.565,31.29,20.565
	c27.044-2.167,35.776,16.284,56.307,29.284c2.759,1.666,6.007,3.283,9.737,4.698C104.8-3.308,60.401,35.546,39.941,58.304
	 M237.491,6.119c-1.646-7.476-4.568-25.1,3.088-34.408c9.773-12.051,24.943-10.887,86.54,80.098
	c40.353,59.809,37.593,78.402,30.85,84.082C343.866,106.397,303.5,33.72,237.491,6.119 M333.825,162.951
	c-9.522,34.629-82.521,64.736-82.521,64.736c116.85-5.382,140.665,16.388,140.665,16.388c-9.901,44.327-55.383,73.484-74.585,84.168
	c-3.373,14.313-9.489,35.83-15.03,34.07c-8.177-2.612-40.113-39.481-23.506-41.423c9.985-1.217,20.402-3.153,27.108-4.512
	c63.451-42.32,52.587-56.202,52.587-56.202s-87.802,17.396-132.13,16.215c-44.344-1.08-36.757-24.89-36.757-24.89
	c3.154-39.235,16.068-61.064,30.05-73.223c11.905-5.25,24.908-9.443,39.147-12.312C286.288,160.405,311.303,160.05,333.825,162.951"
	/>
</svg>
