<?xml version="1.0" encoding="utf-8"?>
<!-- Generator: Adobe Illustrator 16.0.0, SVG Export Plug-In . SVG Version: 6.00 Build 0)  -->
<!DOCTYPE svg PUBLIC "-//W3C//DTD SVG 1.1//EN" "http://www.w3.org/Graphics/SVG/1.1/DTD/svg11.dtd">
<svg version="1.1" id="Layer_2" xmlns="http://www.w3.org/2000/svg" xmlns:xlink="http://www.w3.org/1999/xlink" x="0px" y="0px"
	 width="434px" height="275px" viewBox="0 0 434 275" enable-background="new 0 0 434 275" xml:space="preserve">
<g id="Layer_1">
	<g>
		<path fill="#E4EDDA" d="M348.359,214.398c-16.595-27.947-28.666-58.744-36.48-89.267c-8.866-30.34-13.761-61.723-13.787-94.666
			c0.007-14.105,0.673-27.807,2.12-41.133H-1.833v291.333h402C380.402,262.268,363.333,239.898,348.359,214.398z"/>
		<path fill="#FFFFFF" d="M297.36,0.002c-1.429,12.58-2.086,25.512-2.092,38.826c0.026,31.097,4.858,60.721,13.611,89.358
			c7.722,28.812,19.639,57.882,36.021,84.263C359.688,236.518,374.483,257.631,394,275l20.062,0.001
			c-19.73-16.989-36.882-37.745-52.029-61.47c-16.844-26.092-29.268-54.947-37.486-83.622
			c-9.254-28.479-14.604-58.015-15.175-89.107c-0.234-13.998,0.242-27.588,1.601-40.801L297.36,0.002L297.36,0.002z"/>
	</g>
</g>
</svg>
