<?xml version="1.0" encoding="utf-8"?>
<!-- Generator: Adobe Illustrator 16.0.4, SVG Export Plug-In . SVG Version: 6.00 Build 0)  -->
<!DOCTYPE svg PUBLIC "-//W3C//DTD SVG 1.1//EN" "http://www.w3.org/Graphics/SVG/1.1/DTD/svg11.dtd">
<svg version="1.1" id="Layer_1" xmlns="http://www.w3.org/2000/svg" xmlns:xlink="http://www.w3.org/1999/xlink" x="0px" y="0px"
	 width="80px" height="69px" viewBox="0 0 80 69" enable-background="new 0 0 80 69" xml:space="preserve">
<g>
	<path fill="#0090B9" d="M20.912,799.4C9.363,799.4,0,808.912,0,820.645c0,11.734,9.363,21.246,20.912,21.246
		c11.549,0,20.912-9.512,20.912-21.246C41.824,808.912,32.461,799.4,20.912,799.4z M26.399,828.68l-3.255-3.328
		c-1.347,0.953-2.977,1.519-4.736,1.519c-4.594,0-8.331-3.822-8.331-8.521c0-4.697,3.737-8.52,8.331-8.52
		c4.593,0,8.33,3.822,8.33,8.52c0,1.718-0.503,3.312-1.36,4.65l3.287,3.363L26.399,828.68z"/>
	<path fill="#0090B9" d="M18.409,812.916c-2.93,0-5.314,2.438-5.314,5.434s2.384,5.437,5.314,5.437c2.93,0,5.313-2.439,5.313-5.437
		C23.722,815.354,21.338,812.916,18.409,812.916z"/>
	<path fill="#FFFFFF" d="M26.739,818.35c0-4.696-3.737-8.52-8.33-8.52c-4.594,0-8.331,3.822-8.331,8.52
		c0,4.698,3.737,8.521,8.331,8.521c1.759,0,3.389-0.564,4.736-1.519l3.255,3.328l2.266-2.315L25.378,823
		C26.236,821.662,26.739,820.066,26.739,818.35z M18.409,823.785c-2.93,0-5.314-2.439-5.314-5.437s2.384-5.434,5.314-5.434
		c2.93,0,5.313,2.438,5.313,5.434S21.338,823.785,18.409,823.785z"/>
</g>
<polygon fill="#FFFFFF" points="29.12,826.828 26.854,829.143 29.12,831.461 31.385,829.143 "/>
<ellipse fill="#0090B9" cx="20.912" cy="820.985" rx="20.912" ry="20.905"/>
<text transform="matrix(1 0 0 1 16.3813 831.1602)" fill="#FFFFFF" font-family="'FrutigerLTCom-Black'" font-size="27.1315">i</text>
<path fill="#A9343A" d="M39.932,15.081h-0.039C28.352,15.091,19,24.445,19,35.984c0,11.547,9.362,20.906,20.912,20.906
	c11.551,0,20.912-9.359,20.912-20.906C60.824,24.445,51.475,15.091,39.932,15.081z"/>
<text transform="matrix(1 0 0 1 35.3813 46.1602)" fill="#FFFFFF" font-family="'FrutigerLTCom-Black'" font-size="27.1315">i</text>
</svg>
