<?xml version="1.0" encoding="utf-8"?>
<!-- Generator: Adobe Illustrator 16.0.0, SVG Export Plug-In . SVG Version: 6.00 Build 0)  -->
<!DOCTYPE svg PUBLIC "-//W3C//DTD SVG 1.1//EN" "http://www.w3.org/Graphics/SVG/1.1/DTD/svg11.dtd">
<svg version="1.1" id="Layer_1" xmlns="http://www.w3.org/2000/svg" xmlns:xlink="http://www.w3.org/1999/xlink" x="0px" y="0px"
	 width="80px" height="69px" viewBox="-331.5 290 80 69" enable-background="new -331.5 290 80 69" xml:space="preserve">
<rect x="-286.286" y="319.973" transform="matrix(0.7071 -0.7071 0.7071 0.7071 -310.7217 -107.8731)" fill="#A9343A" width="1.423" height="2.329"/>
<g>
	<path fill="#A9343A" d="M-285.479,306.5h-0.033c-9.937,0.008-17.988,8.063-17.988,17.998c0,9.943,8.06,18.002,18.003,18.002
		c9.941,0,17.997-8.059,17.997-18.002C-267.499,314.563-275.544,306.508-285.479,306.5z"/>
	<g>
		<rect x="-292.35" y="327.291" fill="#FFFFFF" width="13.54" height="1.723"/>
		<circle fill="#FFFFFF" cx="-290.929" cy="330.68" r="1.131"/>
		<circle fill="#FFFFFF" cx="-280.19" cy="330.68" r="1.131"/>
		<path fill="#FFFFFF" d="M-291.668,317.684l-0.132-1.103l-1.572-1.248l-0.806,1.433l1.018,0.808l0.82,8.243l0.012-0.002v0.002
			h13.562l0.614-6.372L-291.668,317.684z M-291.488,319.622l2.416,0.241l0.096,1.728l-2.33-0.142L-291.488,319.622z
			 M-291.02,324.357l-0.16-1.632l2.269,0.073l0.085,1.549L-291.02,324.357z M-285.345,324.336l-1.844,0.008l-0.032-1.49l1.898,0.062
			L-285.345,324.336z M-285.305,321.812l-1.941-0.116l-0.035-1.655l1.999,0.201L-285.305,321.812z M-282.387,324.324l-1.572,0.004
			l0.062-1.366l1.61,0.052L-282.387,324.324z M-282.214,321.997l-1.64-0.1l0.065-1.507l1.685,0.168L-282.214,321.997z
			 M-279.844,324.316l-1.353,0.004l0.125-1.267l1.384,0.044L-279.844,324.316z M-279.57,322.155l-1.406-0.084l0.136-1.385
			l1.437,0.143L-279.57,322.155z"/>
	</g>
</g>
</svg>
