<?xml version="1.0" encoding="utf-8"?>
<!-- Generator: Adobe Illustrator 16.0.4, SVG Export Plug-In . SVG Version: 6.00 Build 0)  -->
<!DOCTYPE svg PUBLIC "-//W3C//DTD SVG 1.1//EN" "http://www.w3.org/Graphics/SVG/1.1/DTD/svg11.dtd">
<svg version="1.1" id="Layer_1" xmlns="http://www.w3.org/2000/svg" xmlns:xlink="http://www.w3.org/1999/xlink" x="0px" y="0px"
	 width="80px" height="69px" viewBox="0 0 80 69" enable-background="new 0 0 80 69" xml:space="preserve">
<polygon fill="#FFFFFF" points="39.912,13.329 39.912,17.329 39.912,19.069 42.912,19.069 42.912,13.329 "/>
<g>
	<path fill="#A9343A" d="M41.113,13.127c-11.55,0-20.912,9.359-20.912,20.906c0,11.545,9.362,20.904,20.912,20.904
		c11.551,0,20.912-9.359,20.912-20.904C62.025,22.487,52.664,13.127,41.113,13.127"/>
</g>
<text transform="matrix(1 0 0 1 33.2021 44.459)" fill="#FFFFFF" font-family="'FrutigerLTCom-BlackCn'" font-size="30">S</text>
<path fill="#FFFFFF" d="M47.287,35.443c-0.41-0.771-0.92-1.4-1.529-1.891c-0.611-0.489-1.271-0.885-1.98-1.185
	c-0.711-0.3-1.369-0.595-1.979-0.885c-0.608-0.29-1.12-0.62-1.53-0.99c-0.41-0.37-0.615-0.875-0.615-1.516
	c0-0.779,0.265-1.354,0.795-1.725c0.529-0.37,1.195-0.555,1.996-0.555c0.658,0,1.369,0.104,2.129,0.313
	c0.761,0.21,1.431,0.465,2.011,0.766l0.21-3.9c-0.46-0.1-0.88-0.195-1.26-0.285c-0.381-0.09-0.766-0.165-1.155-0.225
	c-0.368-0.057-0.741-0.103-1.119-0.142v-2.31h-3v2.342c-0.503,0.067-0.961,0.169-1.37,0.306c-0.81,0.27-1.485,0.604-2.025,1.005
	c-0.54,0.401-0.96,0.845-1.26,1.335c-0.3,0.49-0.525,0.955-0.675,1.395c-0.15,0.44-0.24,0.83-0.27,1.17
	c-0.03,0.341-0.045,0.561-0.045,0.66c0,1.24,0.205,2.245,0.615,3.015c0.41,0.771,0.92,1.396,1.53,1.875
	c0.61,0.48,1.27,0.866,1.98,1.156c0.709,0.289,1.37,0.58,1.979,0.869c0.61,0.291,1.12,0.631,1.53,1.021
	c0.409,0.389,0.615,0.924,0.615,1.604c0,0.42-0.086,0.791-0.256,1.111s-0.399,0.58-0.689,0.779c-0.29,0.198-0.62,0.35-0.988,0.448
	c-0.371,0.103-0.747,0.15-1.125,0.15c-0.92,0-1.73-0.146-2.43-0.437c-0.7-0.289-1.42-0.574-2.16-0.854l-0.27,4.08
	c0.459,0.139,1.195,0.32,2.205,0.539c0.919,0.201,1.966,0.298,3.11,0.314v3.112h3v-3.481c0.071-0.021,0.148-0.029,0.22-0.052
	c0.891-0.289,1.666-0.709,2.326-1.26c0.658-0.55,1.174-1.215,1.545-1.994c0.368-0.78,0.555-1.67,0.555-2.67
	C47.902,37.219,47.697,36.213,47.287,35.443z"/>
</svg>
