<?xml version="1.0" encoding="utf-8"?>
<!-- Generator: Adobe Illustrator 16.0.0, SVG Export Plug-In . SVG Version: 6.00 Build 0)  -->
<!DOCTYPE svg PUBLIC "-//W3C//DTD SVG 1.1//EN" "http://www.w3.org/Graphics/SVG/1.1/DTD/svg11.dtd">
<svg version="1.1" id="Layer_1" xmlns="http://www.w3.org/2000/svg" xmlns:xlink="http://www.w3.org/1999/xlink" x="0px" y="0px"
	 width="80px" height="69px" viewBox="-331.5 290 80 69" enable-background="new -331.5 290 80 69" xml:space="preserve">
<rect x="-286.286" y="319.973" transform="matrix(0.7071 -0.7071 0.7071 0.7071 -310.7217 -107.8731)" fill="#A9343A" width="1.423" height="2.329"/>
<g>
	<path fill="#A9343A" d="M-285.479,306.5h-0.033c-9.937,0.009-17.988,8.062-17.988,17.998c0,9.943,8.06,18.002,18.003,18.002
		c9.941,0,17.997-8.059,17.997-18.002C-267.499,314.562-275.544,306.509-285.479,306.5z"/>
	<g>
		<rect x="-292.35" y="327.292" fill="#FFFFFF" width="13.54" height="1.722"/>
		<circle fill="#FFFFFF" cx="-290.929" cy="330.681" r="1.13"/>
		<circle fill="#FFFFFF" cx="-280.19" cy="330.681" r="1.13"/>
		<path fill="#FFFFFF" d="M-291.668,317.684l-0.132-1.102l-1.572-1.248l-0.806,1.431l1.018,0.809l0.82,8.243l0.012-0.002v0.002
			h13.562l0.614-6.371L-291.668,317.684z M-291.488,319.622l2.416,0.241l0.096,1.728l-2.33-0.141L-291.488,319.622z
			 M-291.02,324.357l-0.16-1.631l2.269,0.072l0.085,1.55L-291.02,324.357z M-285.345,324.336l-1.844,0.008l-0.032-1.489l1.898,0.061
			L-285.345,324.336z M-285.305,321.811l-1.941-0.116l-0.035-1.653l1.999,0.201L-285.305,321.811z M-282.387,324.324l-1.572,0.004
			l0.062-1.367l1.61,0.053L-282.387,324.324z M-282.213,321.997l-1.64-0.101l0.065-1.506l1.685,0.168L-282.213,321.997z
			 M-279.844,324.316l-1.353,0.004l0.125-1.267l1.384,0.044L-279.844,324.316z M-279.57,322.156l-1.406-0.086l0.136-1.384
			l1.437,0.143L-279.57,322.156z"/>
	</g>
</g>
<g>
	<path fill="#A9343A" d="M-285.479,306.5h-0.033c-9.937,0.009-17.988,8.062-17.988,17.998c0,9.943,8.06,18.002,18.003,18.002
		c9.941,0,17.997-8.059,17.997-18.002C-267.499,314.562-275.544,306.509-285.479,306.5z"/>
	<polygon fill="none" points="-284.346,331.337 -278.257,329.453 -278.257,317.9 -284.346,319.785 	"/>
	<polygon fill="none" points="-292.114,329.453 -286.022,331.337 -286.022,319.785 -292.114,317.9 	"/>
	<path fill="#FFFFFF" d="M-285.183,318.334l-8.564-2.648v14.975l8.564,2.648l8.559-2.648v-14.976L-285.183,318.334z
		 M-286.022,331.337l-6.092-1.884V317.9l6.092,1.885V331.337z M-278.257,329.453l-6.089,1.884v-11.552l6.089-1.885V329.453z"/>
</g>
</svg>
