<?xml version="1.0" encoding="utf-8"?>
<!-- Generator: Adobe Illustrator 16.0.4, SVG Export Plug-In . SVG Version: 6.00 Build 0)  -->
<!DOCTYPE svg PUBLIC "-//W3C//DTD SVG 1.1 Tiny//EN" "http://www.w3.org/Graphics/SVG/1.1/DTD/svg11-tiny.dtd">
<svg version="1.1" baseProfile="tiny" id="Layer_1" xmlns="http://www.w3.org/2000/svg" xmlns:xlink="http://www.w3.org/1999/xlink"
	 x="0px" y="0px" width="80px" height="69px" viewBox="0 0 80 69" xml:space="preserve">
<g>
	<path fill="#0090B9" d="M18.409,812.916c-2.93,0-5.314,2.438-5.314,5.434s2.384,5.437,5.314,5.437c2.93,0,5.313-2.439,5.313-5.437
		C23.722,815.354,21.338,812.916,18.409,812.916z"/>
	<path fill="#0090B9" d="M20.912,799.4C9.363,799.4,0,808.912,0,820.645c0,11.734,9.363,21.246,20.912,21.246
		c11.549,0,20.912-9.512,20.912-21.246C41.824,808.912,32.461,799.4,20.912,799.4z M26.399,828.68l-3.255-3.328
		c-1.347,0.953-2.977,1.519-4.736,1.519c-4.594,0-8.331-3.822-8.331-8.521c0-4.697,3.737-8.52,8.331-8.52
		c4.593,0,8.33,3.822,8.33,8.52c0,1.718-0.503,3.312-1.36,4.65l3.287,3.363L26.399,828.68z"/>
	<path fill="#FFFFFF" d="M26.739,818.35c0-4.696-3.737-8.52-8.33-8.52c-4.594,0-8.331,3.822-8.331,8.52
		c0,4.698,3.737,8.521,8.331,8.521c1.759,0,3.389-0.564,4.736-1.519l3.255,3.328l2.266-2.315L25.378,823
		C26.236,821.662,26.739,820.066,26.739,818.35z M18.409,823.785c-2.93,0-5.314-2.439-5.314-5.437s2.384-5.434,5.314-5.434
		c2.93,0,5.313,2.438,5.313,5.434S21.338,823.785,18.409,823.785z"/>
</g>
<polygon fill="#FFFFFF" points="29.12,826.828 26.854,829.143 29.12,831.461 31.385,829.143 "/>
<path fill="#A9343A" d="M39.912,14.401C28.363,14.401,19,23.913,19,35.645c0,11.734,9.363,21.246,20.912,21.246
	c11.549,0,20.912-9.512,20.912-21.246C60.824,23.913,51.461,14.401,39.912,14.401z M45.398,43.68l-3.254-3.328
	c-1.349,0.953-2.978,1.519-4.736,1.519c-4.594,0-8.331-3.822-8.331-8.519c0-4.698,3.737-8.521,8.331-8.521
	c4.593,0,8.33,3.822,8.33,8.521c0,1.715-0.502,3.312-1.359,4.65l3.287,3.363L45.398,43.68z"/>
<path fill="#A9343A" d="M37.409,27.916c-2.93,0-5.314,2.438-5.314,5.435c0,2.997,2.384,5.435,5.314,5.435
	c2.93,0,5.313-2.438,5.313-5.435C42.723,30.353,40.338,27.916,37.409,27.916z"/>
<path fill="#FFFFFF" d="M45.738,33.35c0-4.698-3.736-8.521-8.33-8.521c-4.594,0-8.331,3.822-8.331,8.521
	c0,4.697,3.737,8.519,8.331,8.519c1.759,0,3.388-0.564,4.736-1.518l3.254,3.328l2.268-2.316L44.379,38
	C45.236,36.662,45.738,35.066,45.738,33.35z M37.409,38.785c-2.93,0-5.314-2.439-5.314-5.435c0-2.997,2.384-5.435,5.314-5.435
	c2.93,0,5.313,2.438,5.313,5.435C42.723,36.346,40.338,38.785,37.409,38.785z"/>
<polygon fill="#FFFFFF" points="48.119,41.828 45.854,44.143 48.119,46.461 50.385,44.143 "/>
</svg>
