
<?xml version="1.0" encoding="utf-8"?>
<!-- Generator: Adobe Illustrator 16.0.0, SVG Export Plug-In . SVG Version: 6.00 Build 0)  -->
<!DOCTYPE svg PUBLIC "-//W3C//DTD SVG 1.1//EN" "http://www.w3.org/Graphics/SVG/1.1/DTD/svg11.dtd">
<svg version="1.1" id="Layer_1" xmlns="http://www.w3.org/2000/svg" xmlns:xlink="http://www.w3.org/1999/xlink" x="0px" y="0px"
	 width="27px" height="27px" viewBox="0 0 27 27" enable-background="new 0 0 27 27" xml:space="preserve">
<path opacity="0.8" fill="#FFFFFF" d="M14.093,9.547l0.02-2.362c0.005-0.519-0.149-0.778-0.471-0.781
	c-0.328-0.003-0.485,0.255-0.49,0.773l-0.02,2.362c-0.005,0.521,0.15,0.779,0.476,0.782C13.929,10.323,14.088,10.067,14.093,9.547
	 M8.706,14.719l1.206,0.011l0.009-1.051l-3.51-0.03l-0.009,1.051l1.184,0.01l-0.055,6.405l1.12,0.01L8.706,14.719L8.706,14.719z
	 M11.892,21.151l1.006,0.009l0.048-5.558l-1.007-0.009l-0.036,4.248c-0.226,0.31-0.438,0.467-0.641,0.466
	c-0.135-0.002-0.21-0.081-0.234-0.237c-0.008-0.033-0.007-0.156-0.005-0.393l0.035-4.091l-1.007-0.009l-0.038,4.395
	c-0.003,0.393,0.029,0.657,0.083,0.826c0.1,0.282,0.32,0.415,0.645,0.418c0.37,0.003,0.752-0.216,1.156-0.672L11.892,21.151z
	 M15.729,19.596c-0.005,0.502-0.153,0.748-0.445,0.746c-0.165-0.002-0.334-0.082-0.501-0.252l0.029-3.387
	c0.169-0.165,0.34-0.241,0.505-0.24c0.288,0.003,0.437,0.262,0.432,0.763L15.729,19.596z M16.626,20.643
	c0.068-0.233,0.11-0.604,0.114-1.116l0.02-2.213c0.004-0.525-0.027-0.896-0.096-1.117c-0.131-0.417-0.39-0.631-0.801-0.634
	c-0.369-0.003-0.717,0.194-1.044,0.594l0.021-2.436l-1.006-0.009l-0.064,7.457l1.006,0.008l0.004-0.537
	c0.333,0.418,0.679,0.619,1.034,0.623C16.217,21.264,16.488,21.056,16.626,20.643 M18.538,17.775l0.004-0.521
	c0.005-0.514,0.175-0.77,0.512-0.767c0.334,0.003,0.5,0.272,0.495,0.775l-0.004,0.521L18.538,17.775z M20.51,20.096
	c0.009-0.1,0.023-0.323,0.026-0.646l0.001-0.148l-1.024-0.009c-0.003,0.402-0.019,0.628-0.026,0.684
	c-0.062,0.269-0.201,0.401-0.449,0.399c-0.349-0.003-0.517-0.264-0.512-0.775l0.008-0.984l2.019,0.018l0.01-1.15
	c0.006-0.594-0.095-1.028-0.3-1.313c-0.277-0.381-0.68-0.573-1.184-0.577c-0.519-0.004-0.918,0.181-1.212,0.557
	c-0.219,0.28-0.317,0.715-0.323,1.309l-0.017,1.945c-0.005,0.592,0.098,1.029,0.311,1.311c0.287,0.382,0.683,0.573,1.215,0.578
	c0.524,0.005,0.94-0.19,1.225-0.592C20.395,20.521,20.473,20.319,20.51,20.096 M21.794,17.632c-0.011,1.299-0.025,2.676-0.325,3.936
	c-0.21,0.884-0.941,1.531-1.815,1.622c-1.94,0.2-3.903,0.196-5.859,0.18c-0.126-0.001-0.253-0.002-0.38-0.003
	c-0.126-0.001-0.253-0.003-0.379-0.004c-1.956-0.017-3.918-0.048-5.856-0.279c-0.871-0.106-1.59-0.766-1.786-1.653
	c-0.279-1.265-0.267-2.642-0.256-3.94c0.011-1.297,0.026-2.676,0.327-3.934c0.212-0.884,0.941-1.532,1.814-1.623
	c1.942-0.2,3.904-0.197,5.86-0.18c0.127,0.001,0.253,0.002,0.38,0.003c0.126,0.001,0.253,0.002,0.38,0.003
	c1.957,0.017,3.917,0.048,5.855,0.28c0.87,0.105,1.59,0.766,1.788,1.653C21.819,14.956,21.805,16.333,21.794,17.632 M18.857,11.213
	l-1.018-0.009l0.006-0.612c-0.407,0.461-0.797,0.683-1.168,0.68c-0.327-0.003-0.552-0.139-0.652-0.424
	c-0.054-0.171-0.086-0.438-0.082-0.834l0.038-4.44l1.015,0.009L16.96,9.717c-0.002,0.237-0.003,0.361,0.011,0.396
	c0.02,0.158,0.103,0.239,0.236,0.24c0.203,0.001,0.417-0.153,0.65-0.472l0.037-4.288l1.021,0.009l-0.049,5.611H18.857z
	 M15.111,9.366c-0.005,0.596-0.112,1.038-0.325,1.316c-0.285,0.382-0.684,0.569-1.192,0.565c-0.507-0.004-0.902-0.198-1.179-0.585
	c-0.214-0.282-0.313-0.727-0.308-1.322l0.017-1.967c0.005-0.6,0.113-1.038,0.331-1.319c0.284-0.382,0.682-0.57,1.189-0.566
	c0.509,0.004,0.903,0.199,1.182,0.586c0.211,0.285,0.309,0.726,0.304,1.324L15.111,9.366z M12.146,3.623L10.75,8.093l-0.026,3.051
	l-1.128-0.01l0.026-3.05C9.525,7.543,9.306,6.749,8.955,5.695C8.723,4.994,8.481,4.29,8.25,3.588l1.185,0.01l0.775,2.966
	l0.794-2.953L12.146,3.623L12.146,3.623z M26.999,13.616C27.063,6.161,21.071,0.064,13.617,0C6.161-0.063,0.064,5.93,0,13.384
	C-0.063,20.841,5.929,26.936,13.385,27C20.84,27.063,26.936,21.072,26.999,13.616"/>
</svg>
